<?xml version="1.0" encoding="utf-8"?>
<!-- Generator: Adobe Illustrator 24.3.0, SVG Export Plug-In . SVG Version: 6.00 Build 0)  -->
<svg version="1.1" id="Layer_1" xmlns="http://www.w3.org/2000/svg" xmlns:xlink="http://www.w3.org/1999/xlink" x="0px" y="0px"
	 viewBox="0 0 512 512" style="enable-background:new 0 0 512 512;" xml:space="preserve">
<g id="XMLID_3_">
	<path id="XMLID_49_" d="M248.57,115.14c-31.98,0.42-92.02,6.45-92.02,87.11s61.44,85.99,92.02,86.83
		c30.58-0.84,92.02-6.17,92.02-86.83C340.59,121.6,280.55,115.57,248.57,115.14z M244.36,121.6c2.38,0,6.03-0.14,8.42-0.14v62.56
		h-8.42V121.6z M166.79,202.25c0-63.68,41.8-80.66,75.05-80.66l-27.21,78.13l-11.92,73.22
		C199.19,272.25,166.36,256.68,166.79,202.25L166.79,202.25z M248.71,283.47c-14.87-0.14-36.47-5.05-41.94-8.42l36.33-79.96h10.8
		l36.05,80.52C284.62,278.98,263.57,283.61,248.71,283.47z M294.29,273.51l-10.8-73.78l-28.2-78.13c33.24,0,75.19,16.97,75.19,80.66
		C330.63,256.68,297.52,272.81,294.29,273.51z M45.03,322.05h20.34l45.31,74.77h-21.6l-33.81-56.95l-18.1,30.16h29.18l8.84,14.17
		H29.6l-8.14,12.62H0L45.03,322.05z M446.35,322.05h20.34L512,396.81h-21.6l-33.81-56.95l-17.96,30.3h29.18l8.84,14.17h-45.59
		l-8.14,12.62h-21.46L446.35,322.05L446.35,322.05z M109.41,369.32c0.42,19.64,11.5,27.91,28.62,27.49h56.53v-15.29h-56.39
		c-9.54,0.28-10.1-6.31-10.38-12.76v-19.22c0.28-5.89,0.84-12.48,10.38-12.34h56.39v-15.29h-56.53c-17.11-0.42-28.2,8-28.62,27.49
		V369.32L109.41,369.32z M323.89,396.81h-18.24v-74.77h68.45c23.85,0,30.02,31.7,13.33,42.64c7.15,3.93,8.28,11.92,8.84,14.87
		c0.42,2.95,0.56,17.39,0.56,17.39h-17.96l-0.56-15.29c-0.56-6.59-4.49-11.08-11.22-11.08h-34.79l-3.65-15.99h40.82
		c6.31,0,9.54-2.67,9.54-8.28c0-5.47-3.23-8.28-9.54-8.28h-45.45L323.89,396.81z M265.4,396.81c19.64-0.42,27.91-11.5,27.49-28.62
		v-46.29h-18.1v49.94c0.28,9.4-6.31,10.1-12.76,10.38h-26.09c-5.89-0.28-12.48-0.84-12.34-10.38v-49.94h-18.52v46.43
		c-0.42,17.11,8,28.05,27.49,28.48H265.4L265.4,396.81L265.4,396.81z"/>
</g>
</svg>
