<svg xmlns="http://www.w3.org/2000/svg" xml:space="preserve" viewBox="0 0 512 512"><path d="M248.57 115.14c-31.98.42-92.02 6.45-92.02 87.11s61.44 85.99 92.02 86.83c30.58-.84 92.02-6.17 92.02-86.83 0-80.65-60.04-86.68-92.02-87.11m-4.21 6.46c2.38 0 6.03-.14 8.42-.14v62.56h-8.42zm-77.57 80.65c0-63.68 41.8-80.66 75.05-80.66l-27.21 78.13-11.92 73.22c-3.52-.69-36.35-16.26-35.92-70.69m81.92 81.22c-14.87-.14-36.47-5.05-41.94-8.42l36.33-79.96h10.8l36.05 80.52c-5.33 3.37-26.38 8-41.24 7.86m45.58-9.96-10.8-73.78-28.2-78.13c33.24 0 75.19 16.97 75.19 80.66.15 54.42-32.96 70.55-36.19 71.25M45.03 322.05h20.34l45.31 74.77h-21.6l-33.81-56.95-18.1 30.16h29.18l8.84 14.17H29.6l-8.14 12.62H0zm401.32 0h20.34L512 396.81h-21.6l-33.81-56.95-17.96 30.3h29.18l8.84 14.17h-45.59l-8.14 12.62h-21.46zm-336.94 47.27c.42 19.64 11.5 27.91 28.62 27.49h56.53v-15.29h-56.39c-9.54.28-10.1-6.31-10.38-12.76v-19.22c.28-5.89.84-12.48 10.38-12.34h56.39v-15.29h-56.53c-17.11-.42-28.2 8-28.62 27.49zm214.48 27.49h-18.24v-74.77h68.45c23.85 0 30.02 31.7 13.33 42.64 7.15 3.93 8.28 11.92 8.84 14.87.42 2.95.56 17.39.56 17.39h-17.96l-.56-15.29c-.56-6.59-4.49-11.08-11.22-11.08H332.3l-3.65-15.99h40.82c6.31 0 9.54-2.67 9.54-8.28 0-5.47-3.23-8.28-9.54-8.28h-45.45zm-58.49 0c19.64-.42 27.91-11.5 27.49-28.62V321.9h-18.1v49.94c.28 9.4-6.31 10.1-12.76 10.38h-26.09c-5.89-.28-12.48-.84-12.34-10.38V321.9h-18.52v46.43c-.42 17.11 8 28.05 27.49 28.48z"/></svg>