<svg width="48" height="48" viewBox="0 0 48 48" fill="none" xmlns="http://www.w3.org/2000/svg">
<g clip-path="url(#clip0_143_4336)">
<path d="M13.7643 29.9875L13.44 29.7113L13.1157 29.9875C11.7766 31.1284 10.0473 31.82 8.16 31.82C3.94087 31.82 0.5 28.3791 0.5 24.16C0.5 19.9409 3.94087 16.5 8.16 16.5C10.0473 16.5 11.7766 17.1916 13.1157 18.3325L13.44 18.6087L13.7643 18.3325C15.1034 17.1916 16.8327 16.5 18.72 16.5C20.6073 16.5 22.3366 17.1916 23.6757 18.3325L24 18.6087L24.3243 18.3325C25.6634 17.1916 27.3927 16.5 29.28 16.5C31.1673 16.5 32.8966 17.1916 34.2357 18.3325L34.56 18.6087L34.8843 18.3325C36.2234 17.1916 37.9527 16.5 39.84 16.5C44.0591 16.5 47.5 19.9409 47.5 24.16C47.5 28.3791 44.0591 31.82 39.84 31.82C37.9527 31.82 36.2234 31.1284 34.8843 29.9875L34.56 29.7113L34.2357 29.9875C32.8966 31.1284 31.1673 31.82 29.28 31.82C27.3927 31.82 25.6634 31.1284 24.3243 29.9875L24 29.7113L23.6757 29.9875C22.3366 31.1284 20.6073 31.82 18.72 31.82C16.8327 31.82 15.1034 31.1284 13.7643 29.9875ZM12.5475 19.6464L12.8264 19.2663L12.4634 18.9656C11.2971 17.9993 9.79805 17.42 8.16 17.42C4.42623 17.42 1.42 20.4262 1.42 24.16C1.42 27.8938 4.42623 30.9 8.16 30.9C9.79805 30.9 11.2971 30.3207 12.4634 29.3544L12.8264 29.0537L12.5475 28.6736C11.6158 27.4038 11.06 25.8459 11.06 24.16C11.06 22.4741 11.6158 20.9162 12.5475 19.6464ZM23.1075 19.6464L23.3864 19.2663L23.0234 18.9656C21.8571 17.9993 20.3581 17.42 18.72 17.42C17.0819 17.42 15.5829 17.9993 14.4166 18.9656L14.0536 19.2663L14.3325 19.6464C15.2642 20.9162 15.82 22.4741 15.82 24.16C15.82 25.8459 15.2642 27.4038 14.3325 28.6736L14.0536 29.0537L14.4166 29.3544C15.5829 30.3207 17.0819 30.9 18.72 30.9C20.3581 30.9 21.8571 30.3207 23.0234 29.3544L23.3864 29.0537L23.1075 28.6736C22.1758 27.4038 21.62 25.8459 21.62 24.16C21.62 22.4741 22.1758 20.9162 23.1075 19.6464ZM33.6675 19.6464L33.9464 19.2663L33.5834 18.9656C32.4171 17.9993 30.9181 17.42 29.28 17.42C27.6419 17.42 26.1429 17.9993 24.9766 18.9656L24.6136 19.2663L24.8925 19.6464C25.8242 20.9162 26.38 22.4741 26.38 24.16C26.38 25.8459 25.8242 27.4038 24.8925 28.6736L24.6136 29.0537L24.9766 29.3544C26.1429 30.3207 27.6419 30.9 29.28 30.9C30.9181 30.9 32.4171 30.3207 33.5834 29.3544L33.9464 29.0537L33.6675 28.6736C32.7358 27.4038 32.18 25.8459 32.18 24.16C32.18 22.4741 32.7358 20.9162 33.6675 19.6464ZM35.4525 28.6736L35.1736 29.0537L35.5366 29.3544C36.7029 30.3207 38.2019 30.9 39.84 30.9C43.5738 30.9 46.58 27.8938 46.58 24.16C46.58 20.4262 43.5738 17.42 39.84 17.42C38.2019 17.42 36.7029 17.9993 35.5366 18.9656L35.1736 19.2663L35.4525 19.6464C36.3842 20.9162 36.94 22.4741 36.94 24.16C36.94 25.8459 36.3842 27.4038 35.4525 28.6736ZM13.8632 20.5694L13.44 19.8967L13.0168 20.5694C12.3635 21.6077 11.98 22.8362 11.98 24.16C11.98 25.4838 12.3635 26.7123 13.0168 27.7506L13.44 28.4233L13.8632 27.7506C14.5165 26.7123 14.9 25.4838 14.9 24.16C14.9 22.8362 14.5165 21.6077 13.8632 20.5694ZM24.4232 20.5694L24 19.8967L23.5768 20.5694C22.9235 21.6077 22.54 22.8362 22.54 24.16C22.54 25.4838 22.9235 26.7123 23.5768 27.7506L24 28.4233L24.4232 27.7506C25.0765 26.7123 25.46 25.4838 25.46 24.16C25.46 22.8362 25.0765 21.6077 24.4232 20.5694ZM34.9832 20.5694L34.56 19.8967L34.1368 20.5694C33.4835 21.6077 33.1 22.8362 33.1 24.16C33.1 25.4838 33.4835 26.7123 34.1368 27.7506L34.56 28.4233L34.9832 27.7506C35.6365 26.7123 36.02 25.4838 36.02 24.16C36.02 22.8362 35.6365 21.6077 34.9832 20.5694Z" stroke="black"/>
</g>
<defs>
<clipPath id="clip0_143_4336">
<rect width="48" height="48" fill="white"/>
</clipPath>
</defs>
</svg>
