<svg xmlns="http://www.w3.org/2000/svg" width="1021" height="576"><g class="layer"><title>Layer 1</title><g fill="none" stroke-width="2"><path stroke="#575459" d="M166.75 0q-.07.09-.16.15-.09.07-.21.08-63.54 4.68-109.53 46.73-7.39 6.76-13.89 14.37Q7.13 103.29.88 159.12q-.05.37-.31 4.3-.14 2.17-.57 4.28M187.31.3q56.33 3.81 99.99 38.67a1.04 1.03 45.2 0 0 1.28.01Q332.54 4.39 388.1.37q.37-.02.74.03.62.09.66-.4m20.79.33c31.05 2.23 60.3 11.65 86.21 28.91q1.18.79 6.74 4.85 3.31 2.41 6.86 4.67m.88-.03q.29.18.54-.02 27.17-21.53 59.82-31.27 6.72-2 15.99-3.93Q599.96.88 603.5.87q4.22-.03 8.39-.59m20.9.05q55.66 3.8 98.96 38.18 1.24.98 2.49.01Q778.03 4.25 833.43.37q.28-.02.56.03.46.07.51-.4m20.28.31Q891.37 2.57 924 18.93q13.04 6.54 24.97 15.46 7.2 5.4 12.36 10.06 7.99 7.21 15.79 15.83 8.35 9.22 16.84 22.92 23.68 38.23 26.77 83.27m.27 17.83q-2.9 49.01-28.26 87.96-35.77 54.91-100.57 74.22-9.56 2.84-19.74 4.36-23.26 3.46-44.87 1.42-51.71-4.89-94.04-38.15a.96.95 44.7 0 0-1.19 0q-32.05 25.84-73.55 35.06-9.45 2.1-19.57 3-22.33 1.99-41.63-.75-48.23-6.84-86.76-37.48a.64.63 44.5 0 0-.79 0q-34.86 28.1-79.93 36.42-8.48 1.57-18.85 2.25-45.09 2.95-86.18-15.88-19.48-8.93-36.47-22.62a1.16 1.16 0 0 0-1.48.03q-2.64 2.32-5.31 4.27-29.15 21.36-63.93 29.8-9.83 2.39-18.96 3.44-31.11 3.57-58.29-2.29-55.71-12-94.24-53.51-6.46-6.96-12.55-15.43Q3.74 238.63.29 186.31"/><path stroke="#8c8c8d" d="M259.3 67.81c-25.91-19.43-56.88-29.15-89.32-27.57-70.36 3.4-127.33 60.31-129.71 131.49-2.26 67.75 44.96 126.8 111.8 139.2 38.14 7.08 76.24-2.55 107.28-25.61a.42.41 53.1 0 0 .08-.59q-25.7-33.71-33.5-73.57c-9.89-50.48 2.12-101.86 33.47-142.61q.32-.42-.1-.74m222.54.05c-28.04-21.26-62.51-30.73-97.55-26.99q-36.89 3.95-67.69 27.01a.46.45 53.4 0 0-.09.64c49.16 64.11 49.25 152.1 0 216.13q-.27.35.08.62 26.43 19.97 58.74 25.78c37.89 6.81 75.75-2.81 106.4-25.65q.47-.35.11-.82-26.34-34.71-33.86-75.86c-9.06-49.64 3.12-100.11 33.95-140.16a.5.49-52.7 0 0-.09-.7m222.47-.04c-27.62-21-61.67-30.44-96.28-27.08q-37.34 3.63-68.88 27.08a.49.49 0 0 0-.1.68c49.06 64.03 49.28 151.75.12 216a.62.61-52.7 0 0 .11.86q25.14 19.05 56.05 25.21c38.71 7.7 77.42-1.77 108.99-25.17q.47-.35.11-.81c-48.97-63.86-49.28-152.01-.01-215.97q.35-.45-.11-.8M841.75 313.1c71.45 1.49 132.84-53.52 138.58-124.75q3.68-45.63-20.32-84.32c-14.65-23.6-36.78-42.21-62.09-53.04q-33.52-14.34-70.63-9.88-35.22 4.23-65.45 26.59-.58.44-.13 1.01c20 25.56 32.96 57.91 35.88 90.2q6.29 69.61-35.9 125.73-.33.43.1.75 35.95 26.8 79.96 27.71"/><path stroke="#8c8c8d" d="M287.58 98.02c-33.38 47.22-33.07 110.14.06 157.17q.36.5.71 0 19.71-28.32 23.96-62.21c4.22-33.68-4.67-67.33-23.93-94.95q-.4-.58-.8-.01m222.57.03c-17.93 24.92-26.43 55.87-24.77 85.92q2.14 38.66 24.69 71.16.39.58.8.01 11.69-16.43 18.01-35.7c13.54-41.31 7.03-85.71-18-121.38a.45.45 0 0 0-.73-.01m208.3 25.53c-18.4 43.84-12.84 92.57 14.18 131.61q.37.54.74.01 16.7-23.62 22.41-52.26c7.36-36.9-1.05-74.23-22.37-104.98q-.35-.51-.7-.01-8.51 11.95-14.26 25.63"/><path stroke="#e18797" d="M176.38 564.56q-.72-.4-1.27-1.43-27.13-51.06-53.71-102.29a1.63 1.62 76 0 0-1.46-.88L97.6 460q-1.66 0-2.44 1.47L40.04 566.21"/><path stroke="#e18797" d="M176.57 564.66q.28 2.24-.8 2.24-12.25-.01-24.53.06a1.88 1.87-13.4 0 1-1.67-1.02l-10.45-20.34a1.54 1.54 0 0 0-1.37-.84l-58.49-.01a2.44 2.43-76.4 0 0-2.17 1.33l-10.02 19.73a2 1.98 13.8 0 1-1.81 1.09q-12.12-.12-24.46.07-.34 0-.56-.13-.48-.29-.2-.63m313.45 2.59q12.93-2.08 22.58-9.17a.76.76 0 0 1 1.2.47l1.08 5.92a1.19 1.19 0 0 0 1.17.97l18.03-.02a1.27 1.26 90 0 0 1.26-1.27l.01-104.59a1.09 1.09 0 0 0-1.09-1.1h-20.87a1.38 1.38 0 0 0-1.38 1.38l.19 33.83a.51.51 0 0 1-.75.45q-10.76-5.8-22.8-6.65-12.21-.86-22.49 1.89c-13.92 3.72-24.35 14-26.79 28.3-1.48 8.64-1.12 19.18 2.17 27.19q7.22 17.55 27.25 21.7 3.71.77 9.24 1.17m-129.23-78.11-21.65.02a1.04 1.04 0 0 0-1.04 1.04q.01 21.83.11 45.67c.04 10.26 3.89 20.55 12.83 25.94q7.8 4.7 16.85 4.94 3.61.09 7 .22 3.99.15 7.36-.32 13-1.78 23.38-8.54a.59.58-22.4 0 1 .9.37l1.24 5.95a.66.65-6.3 0 0 .66.52q9.18-.28 18.33-.03 1.16.03 1.72-.7"/><path stroke="#e18797" d="m279.98 502.05-.15-9.83a1.02 1.02 0 0 0-1.02-1.01l-21.04.01a1.13 1.12-.3 0 0-1.13 1.13q.06 25.61-.01 51.11-.01 1.58-1.44 2.36-13.86 7.56-28.89 5.18c-7.34-1.16-11.93-5.55-13.02-12.65q-.52-3.4-.52-5.85-.06-20.75-.05-41.48m238.32-29.82a1.19 1.19 0 0 0-1.19-1.19h-20.86a1.19 1.19 0 0 0-1.19 1.19v17.82a1.19 1.19 0 0 0 1.19 1.19h20.86a1.19 1.19 0 0 0 1.19-1.19V461.2M87.09 525.78a.32.32 0 0 0 .29.46h41.88a.32.32 0 0 0 .29-.46l-20.94-41.82a.32.32 0 0 0-.58 0l-20.94 41.82m240.56-6.84q-3.64 8.94-.51 18.75c6.16 19.33 34.91 14.58 47.73 7.81a1.18 1.17 76.2 0 0 .62-1.04l.01-30.92a.76.76 0 0 0-.42-.68q-11.78-6.03-25.54-5.86c-9.23.11-18.25 2.99-21.89 11.94m123.24-26.74a1.02 1.02 0 0 0-1.03-1.02l-21.12.04a1.02 1.02 0 0 0-1.01 1.02l.12 73.68a1.02 1.02 0 0 0 1.03 1.02l21.12-.04a1.02 1.02 0 0 0 1.01-1.02l-.12-73.68"/></g><path fill="#969097" d="M165.88 0h.87q-.07.09-.16.15-.09.07-.21.08-63.54 4.68-109.53 46.73-7.39 6.76-13.89 14.37Q7.13 103.29.88 159.12q-.05.37-.31 4.3-.14 2.17-.57 4.28v-7.19q.73-5 1.39-10 .8-6.01 1.65-9.96c5.9-27.22 17.94-53.65 35.75-75.18 3.11-3.76 6.2-7.66 9.54-11.11q41.8-43.11 101.01-52.85 4.1-.67 8.26-.94 4.14-.26 8.28-.47"/><path fill="#19181b" d="M166.75 0h19.37l1.19.3q56.33 3.81 99.99 38.67a1.04 1.03 45.2 0 0 1.28.01Q332.54 4.39 388.1.37q.37-.02.74.03.62.09.66-.4h18.78l2.01.33c31.05 2.23 60.3 11.65 86.21 28.91q1.18.79 6.74 4.85 3.31 2.41 6.86 4.67-.22-.28.88-.03.29.18.54-.02 27.17-21.53 59.82-31.27 6.72-2 15.99-3.93Q599.96.88 603.5.87q4.22-.03 8.39-.59l.12-.28h19.11l1.67.33q55.66 3.8 98.96 38.18 1.24.98 2.49.01Q778.03 4.25 833.43.37q.28-.02.56.03.46.07.51-.4h19.62q.01.14.66.31Q891.37 2.57 924 18.93q13.04 6.54 24.97 15.46 7.2 5.4 12.36 10.06 7.99 7.21 15.79 15.83 8.35 9.22 16.84 22.92 23.68 38.23 26.77 83.27l.27.31v17.52q-2.9 49.01-28.26 87.96-35.77 54.91-100.57 74.22-9.56 2.84-19.74 4.36-23.26 3.46-44.87 1.42-51.71-4.89-94.04-38.15a.96.95 44.7 0 0-1.19 0q-32.05 25.84-73.55 35.06-9.45 2.1-19.57 3-22.33 1.99-41.63-.75-48.23-6.84-86.76-37.48a.64.63 44.5 0 0-.79 0q-34.86 28.1-79.93 36.42-8.48 1.57-18.85 2.25-45.09 2.95-86.18-15.88-19.48-8.93-36.47-22.62a1.16 1.16 0 0 0-1.48.03q-2.64 2.32-5.31 4.27-29.15 21.36-63.93 29.8-9.83 2.39-18.96 3.44-31.11 3.57-58.29-2.29-55.71-12-94.24-53.51-6.46-6.96-12.55-15.43Q3.74 238.63.29 186.31q-.09-.7-.29-.93V167.7q.43-2.11.57-4.28.26-3.93.31-4.3 6.25-55.83 42.08-97.79 6.5-7.61 13.89-14.37Q102.84 4.91 166.38.23q.12-.01.21-.08.09-.06.16-.15m92.55 67.81c-25.91-19.43-56.88-29.15-89.32-27.57-70.36 3.4-127.33 60.31-129.71 131.49-2.26 67.75 44.96 126.8 111.8 139.2 38.14 7.08 76.24-2.55 107.28-25.61a.42.41 53.1 0 0 .08-.59q-25.7-33.71-33.5-73.57c-9.89-50.48 2.12-101.86 33.47-142.61q.32-.42-.1-.74m222.54.05c-28.04-21.26-62.51-30.73-97.55-26.99q-36.89 3.95-67.69 27.01a.46.45 53.4 0 0-.09.64c49.16 64.11 49.25 152.1 0 216.13q-.27.35.08.62 26.43 19.97 58.74 25.78c37.89 6.81 75.75-2.81 106.4-25.65q.47-.35.11-.82-26.34-34.71-33.86-75.86c-9.06-49.64 3.12-100.11 33.95-140.16a.5.49-52.7 0 0-.09-.7m222.47-.04c-27.62-21-61.67-30.44-96.28-27.08q-37.34 3.63-68.88 27.08a.49.49 0 0 0-.1.68c49.06 64.03 49.28 151.75.12 216a.62.61-52.7 0 0 .11.86q25.14 19.05 56.05 25.21c38.71 7.7 77.42-1.77 108.99-25.17q.47-.35.11-.81c-48.97-63.86-49.28-152.01-.01-215.97q.35-.45-.11-.8M841.75 313.1c71.45 1.49 132.84-53.52 138.58-124.75q3.68-45.63-20.32-84.32c-14.65-23.6-36.78-42.21-62.09-53.04q-33.52-14.34-70.63-9.88-35.22 4.23-65.45 26.59-.58.44-.13 1.01c20 25.56 32.96 57.91 35.88 90.2q6.29 69.61-35.9 125.73-.33.43.1.75 35.95 26.8 79.96 27.71M287.58 98.02c-33.38 47.22-33.07 110.14.06 157.17q.36.5.71 0 19.71-28.32 23.96-62.21c4.22-33.68-4.67-67.33-23.93-94.95q-.4-.58-.8-.01m222.57.03c-17.93 24.92-26.43 55.87-24.77 85.92q2.14 38.66 24.69 71.16.39.58.8.01 11.69-16.43 18.01-35.7c13.54-41.31 7.03-85.71-18-121.38a.45.45 0 0 0-.73-.01m208.3 25.53c-18.4 43.84-12.84 92.57 14.18 131.61q.37.54.74.01 16.7-23.62 22.41-52.26c7.36-36.9-1.05-74.23-22.37-104.98q-.35-.51-.7-.01-8.51 11.95-14.26 25.63"/><path fill="#969097" d="M388.63 0h.87q-.04.49-.66.4-.37-.05-.74-.03-55.56 4.02-99.52 38.61a1.04 1.03 45.2 0 1-1.28-.01Q243.64 4.11 187.31.3q12.69-.26 25.2 2.69 9.37 2.22 16.75 4.42 31.94 9.52 57 30.14.45.37 1.04.38 1.58.01 2.87-1.01 31.57-24.91 72.08-33.67Q376.05.27 388.63 0m445.25 0h.62q-.05.47-.51.4-.28-.05-.56-.03-55.4 3.88-99.19 38.15-1.25.97-2.49-.01Q688.45 4.13 632.79.33q6.11-.17 12.19.61c17.81 2.27 34 7.08 49.94 14.16q18.86 8.39 34.37 20.73 1.61 1.28 3.83 2.47.44.24.82-.1 2.06-1.85 4.01-3.33Q773.9 7.6 819.81 1.06q3.29-.47 6.98-.67 3.54-.19 7.09-.39M410.29.33Q416.91.1 423.5 1q17.14 2.35 33.47 8.07 23.11 8.09 43.36 21.86 5.09 3.46 9.77 7.83-3.55-2.26-6.86-4.67-5.56-4.06-6.74-4.85C470.59 11.98 441.34 2.56 410.29.33m201.6-.05q-4.17.56-8.39.59-3.54.01-16.17 2.64-9.27 1.93-15.99 3.93-32.65 9.74-59.82 31.27-.25.2-.54.02.1-.51.6-.9Q550.23 7.31 599.23.74q4.87-.65 12.66-.46m242.89.03q7.72-.2 12.72.49 19.25 2.65 35.61 8.45 9.97 3.54 21.45 9.33 9.3 4.7 17.2 9.92 35.99 23.79 56.99 61.21 2.12 3.77 4.12 7.58c5.75 10.96 9.75 22.72 13.38 36.22q4.6 17.06 4.48 32.96-3.09-45.04-26.77-83.27-8.49-13.7-16.84-22.92-7.8-8.62-15.79-15.83-5.16-4.66-12.36-10.06-11.93-8.92-24.97-15.46Q891.37 2.57 854.78.31M1021 184.3v7.7q-3.21 35.29-18.68 65.08-30.47 58.69-92.77 84.38c-4.83 1.99-9.85 3.46-14.73 5.04q-5.67 1.84-11.31 2.99-17.8 3.65-32.37 4.25-26.58 1.08-53.02-6.02-14.14-3.8-26.78-9.56-18.98-8.63-34.76-20.87-1.53-1.18-3.27-2.11-.51-.27-.96.08-10.8 8.26-20.69 14.15-10.2 6.07-24.51 11.91-8.09 3.31-19.91 6.6-8.63 2.4-18.57 3.83-12.51 1.8-19.39 2.02-65.7 2.17-117.99-38.51a1.37 1.37 0 0 0-1.7 0q-31.33 24.78-69.15 33.78-6.71 1.59-16.68 3.03-21.09 3.04-41.24.99-14.97-1.52-26.63-4.54-32.86-8.51-60.43-28.2c-2.18-1.56-4.06-3.47-6.29-4.82a2.44 2.43 41 0 0-2.8.19q-20.33 16.4-45.69 26.15-10.2 3.91-17.9 5.88-25.12 6.39-46.05 6.2-63.25-.55-111.95-40-36.57-29.62-54.14-75.37-1.87-4.88-3.55-10.4-2.26-7.48-3.05-10.81Q1.3 205.82.23 192q-.09-1.2.06-5.69 3.45 52.32 33.55 94.11 6.09 8.47 12.55 15.43 38.53 41.51 94.24 53.51 27.18 5.86 58.29 2.29 9.13-1.05 18.96-3.44 34.78-8.44 63.93-29.8 2.67-1.95 5.31-4.27a1.16 1.16 0 0 1 1.48-.03q16.99 13.69 36.47 22.62 41.09 18.83 86.18 15.88 10.37-.68 18.85-2.25 45.07-8.32 79.93-36.42a.64.63 44.5 0 1 .79 0q38.53 30.64 86.76 37.48 19.3 2.74 41.63.75 10.12-.9 19.57-3 41.5-9.22 73.55-35.06a.96.95 44.7 0 1 1.19 0q42.33 33.26 94.04 38.15 21.61 2.04 44.87-1.42 10.18-1.52 19.74-4.36 64.8-19.31 100.57-74.22 25.36-38.95 28.26-87.96"/><path fill="#fff" d="M176.38 564.56q-.72-.4-1.27-1.43-27.13-51.06-53.71-102.29a1.63 1.62 76 0 0-1.46-.88L97.6 460q-1.66 0-2.44 1.47L40.04 566.21q-.09-.99.32-1.87 2.14-4.59 5.35-10.55 8.17-15.2 16.14-30.24 4.28-8.08 7.9-15.17 3.68-7.19 7.38-13.97c2.57-4.71 5.08-9.7 7.7-14.79q3-5.83 5.94-11.18c1.77-3.2 2.33-6.73 5.35-9.12a1.3 1.28-64.5 0 1 .77-.28q10.71-.27 22.05.02 1.61.04 2.96 1.02.35.25.38.67.02.22-.05.44a.53.52 23.3 0 0 .25.62c1.04.57 1.19 1.83 1.71 2.83 1.92 3.7 4.09 7.33 5.88 11.15q1.23 2.62 3.44 5.43.43.54.4-.15-.03-.53-.41-.91-.47-.47.18-.31.68.17.93.76a1.22 1.22 0 0 1-.13 1.19q-.62.88-.15 1.81 3.52 6.82 7.08 14.02 2.09 4.24 4.52 8.39 2.38 4.09 4.57 8.29 5.04 9.65 10.06 19.71 3.63 7.28 7.4 14.15 3.83 6.99 7.75 14.08.56 1.01.67 2.31m177.11 4.24q12.93-2.08 22.58-9.17a.76.76 0 0 1 1.2.47l1.08 5.92a1.19 1.19 0 0 0 1.17.97l18.03-.02a1.27 1.26 90 0 0 1.26-1.27l.01-104.59a1.09 1.09 0 0 0-1.09-1.1h-20.87a1.38 1.38 0 0 0-1.38 1.38l.19 33.83a.51.51 0 0 1-.75.45q-10.76-5.8-22.8-6.65-12.21-.86-22.49 1.89c-13.92 3.72-24.35 14-26.79 28.3-1.48 8.64-1.12 19.18 2.17 27.19q7.22 17.55 27.25 21.7 3.71.77 9.24 1.17-1.47.49-2.98.5-1.22.02-2.5-.38-1.17-.37-2.46-.52-18.85-2.16-28.09-19.6-.11-.21-.33-.31-.44-.2-.54-.68-.51-2.53-1.45-4.97-.89-2.29-1.24-4.67-.35-2.4-.73-4.68-.4-2.36-.37-4.64.18-11.54 5.57-22.51c5.73-11.67 21.27-18.15 33.39-18.68 5.93-.25 12.34-.55 18.2.68q6.01 1.26 11.6 3.34a.8.76 84.9 0 1 .4.35q.11.18.28.32.22.16.49.16.76-.01 1.18.61a1.02 1.02 0 0 0 .79.43l1.56.06q.64.03.65-.61.34-15.26-.26-28.38-.06-1.28-.34-2.39c-.56-2.12 1.49-3.67 3.43-3.68q9.89-.05 20.08.03a2.18 2.17-89.7 0 1 2.15 2.18l.01 104.52a2.24 2.24 0 0 1-2.24 2.24h-18.26a1.4 1.39 65.1 0 1-.9-.33q-1.8-1.47-1.56-3.89.06-.66-.49-.91-.59-.26-.26-.82l.27-.44q.34-.57-.3-.71-.27-.06-.58.07-.48.2-.84.6-1.6 1.76-3.94 2.24-.71.14-1.11.74-.32.48-.9.45-.61-.03-1.01.42-.7.77-1.76.59-.67-.11-1.11.4-.65.74-1.61.58-.7-.11-1.25.33-1.02.79-2.47.79-.58.01-1.11.27-2.17 1.09-5.07.43m98.46-89.79a2.02 2.02 0 0 1-2.03 2.02l-20.92-.08a2.02 2.02 0 0 1-2.01-2.02l.06-17.92a2.02 2.02 0 0 1 2.03-2.02l20.92.08a2.02 2.02 0 0 1 2.01 2.02zm-.92-17.81a1.19 1.19 0 0 0-1.19-1.19h-20.86a1.19 1.19 0 0 0-1.19 1.19v17.82a1.19 1.19 0 0 0 1.19 1.19h20.86a1.19 1.19 0 0 0 1.19-1.19z"/><path fill="#c20f2f" d="M176.38 564.56q.1.05.19.1.28 2.24-.8 2.24-12.25-.01-24.53.06a1.88 1.87-13.4 0 1-1.67-1.02l-10.45-20.34a1.54 1.54 0 0 0-1.37-.84l-58.49-.01a2.44 2.43-76.4 0 0-2.17 1.33l-10.02 19.73a2 1.98 13.8 0 1-1.81 1.09q-12.12-.12-24.46.07-.34 0-.56-.13-.48-.29-.2-.63l55.12-104.74q.78-1.47 2.44-1.47l22.34-.04a1.63 1.62 76 0 1 1.46.88q26.58 51.23 53.71 102.29.55 1.03 1.27 1.43m-89.29-38.78a.32.32 0 0 0 .29.46h41.88a.32.32 0 0 0 .29-.46l-20.94-41.82a.32.32 0 0 0-.58 0zm266.4 43.02q-5.52 1.05-11.99.47-5.53-.4-9.24-1.17-20.03-4.15-27.25-21.7c-3.29-8.01-3.65-18.55-2.17-27.19 2.44-14.3 12.87-24.58 26.79-28.3q10.28-2.75 22.49-1.89 12.04.85 22.8 6.65a.51.51 0 0 0 .75-.45l-.19-33.83a1.38 1.38 0 0 1 1.38-1.38h20.87a1.09 1.09 0 0 1 1.09 1.1l-.01 104.59a1.27 1.26 90 0 1-1.26 1.27l-18.03.02a1.19 1.19 0 0 1-1.17-.97l-1.08-5.92a.76.76 0 0 0-1.2-.47q-9.65 7.09-22.58 9.17m-25.84-49.86q-3.64 8.94-.51 18.75c6.16 19.33 34.91 14.58 47.73 7.81a1.18 1.17 76.2 0 0 .62-1.04l.01-30.92a.76.76 0 0 0-.42-.68q-11.78-6.03-25.54-5.86c-9.23.11-18.25 2.99-21.89 11.94"/><rect width="23.24" height="20.2" x="427.79" y="460.01" fill="#c20f2f" rx="1.19"/><path fill="#fff" d="m212.27 491.16-21.65.02a1.04 1.04 0 0 0-1.04 1.04q.01 21.83.11 45.67c.04 10.26 3.89 20.55 12.83 25.94q7.8 4.7 16.85 4.94 3.61.09 7 .22 3.99.15 7.36-.32 13-1.78 23.38-8.54a.59.58-22.4 0 1 .9.37l1.24 5.95a.66.65-6.3 0 0 .66.52q9.18-.28 18.33-.03 1.16.03 1.72-.7.16.7-.03 1.26a.71.7 9.1 0 1-.67.48l-19.25-.02a1.97 1.97 0 0 1-1.97-1.95l-.04-3.42q-.01-1.39-1.31-.88-2.72 1.08-4.84 2.45c-3 1.94-6.55 2.66-9.87 3.77-2.98 1-5.98 1.01-9.09 1.3q-1.95.18-3.81.18-12.56-.01-16.43-.7-3.77-.67-9.09-3.44c-1.79-.93-2.92-2.38-4.77-3.17q-.47-.2-.69-.67c-.69-1.53-2.27-1.56-2.92-3.21q-.52-1.32-1.54-2.52-.74-.87-1.14-1.95-.75-2.03-1.69-4.11-.79-1.72-1-3.49c-.21-1.79-.8-3.43-.8-5.26q0-23.17.01-44.23 0-.44-.29-.77-.1-.11-.25-.16-.21-.08-.11-.28 1.03-2.04.71-4.09a1.14 1.14 0 0 1 1.13-1.32l19.02-.02q.58 0 .95.46.39.5.82.02.42-.47.87-.04.28.27.4.7"/><path fill="#fff" d="m279.98 502.05-.15-9.83a1.02 1.02 0 0 0-1.02-1.01l-21.04.01a1.13 1.12-.3 0 0-1.13 1.13q.06 25.61-.01 51.11-.01 1.58-1.44 2.36-13.86 7.56-28.89 5.18c-7.34-1.16-11.93-5.55-13.02-12.65q-.52-3.4-.52-5.85-.06-20.75-.05-41.48.36-.14.83.02.44.16.45.63.03 22.61-.04 46.15c-.01 3.14 2.22 6.28 3.98 8.58 1.03 1.35 3.18 2.42 5.08 2.68q.69.1 1.16.6.34.35.83.33c2.25-.08 4.33.96 6.65.91q12.05-.25 22.12-5.33c2.32-1.17 2.28-2.9 2.29-5.21q.06-24.29-.05-48.45a1.97 1.97 0 0 1 2.89-1.75c1.43.75 2.97-.18 4.51-.18q7.82.02 15.72 0 .54 0 .79.48 1.14 2.13.39 5.02-.56 2.15-.33 6.55m166.32-11.23q1.92-1.65 5.18.29.49.29.49.86v73.54a2.48 2.47 0 0 1-2.48 2.47h-20.1a2.35 2.34 0 0 1-2.35-2.34l-.04-73.32a2.2 2.19-.3 0 1 2.18-2.19l16.13-.12q.42 0 .73.27.24.21.19.5a.04.04 0 0 0 .07.04m4.59 1.38a1.02 1.02 0 0 0-1.03-1.02l-21.12.04a1.02 1.02 0 0 0-1.01 1.02l.12 73.68a1.02 1.02 0 0 0 1.03 1.02l21.12-.04a1.02 1.02 0 0 0 1.01-1.02z"/><path fill="#c20f2f" d="m212.27 491.16.44-.14q-.01 20.73.05 41.48 0 2.45.52 5.85c1.09 7.1 5.68 11.49 13.02 12.65q15.03 2.38 28.89-5.18 1.43-.78 1.44-2.36.07-25.5.01-51.11a1.13 1.12-.3 0 1 1.13-1.13l21.04-.01a1.02 1.02 0 0 1 1.02 1.01l.15 9.83.05 60.29q0 .46.36.74.15.11.25.26.11.17-.02.33-.86 1-.66 2.57-.56.73-1.72.7-9.15-.25-18.33.03a.66.65-6.3 0 1-.66-.52l-1.24-5.95a.59.58-22.4 0 0-.9-.37q-10.38 6.76-23.38 8.54-3.37.47-7.36.32-3.39-.13-7-.22-9.05-.24-16.85-4.94c-8.94-5.39-12.79-15.68-12.83-25.94q-.1-23.84-.11-45.67a1.04 1.04 0 0 1 1.04-1.04z"/><rect width="23.16" height="75.72" x="-11.58" y="-37.86" fill="#c20f2f" rx="1.02" transform="rotate(-.1 303348.66 -251475.873)"/><path fill="#fff" d="M176.57 564.66q1.41-1.08.41 2.56a1.05 1.04 7.6 0 1-1.01.76l-24.03-.01a3.79 3.79 0 0 1-3.39-2.09q-1.85-3.72-4-7.4c-.57-.99-.48-1.92-1.04-2.89q-1.99-3.44-3.64-7.03-.22-.48-.58-.85-.4-.41-.26-.95.2-.78-.6-.77c-.95.01-1.66.02-2.57-.32q-.77-.29-1.61.08-.48.21-1.01.22-23.68.05-48.78-.02-1.73 0-3.53-.41-2.36-.54-3.62 1.91-4.82 9.38-9.39 18.61a3.46 3.45 13.1 0 1-3.1 1.92l-25.07-.01q-.59 0-.52-.58.06-.55.81-1.18-.28.34.2.63.22.13.56.13 12.34-.19 24.46-.07a2 1.98 13.8 0 0 1.81-1.09l10.02-19.73a2.44 2.43-76.4 0 1 2.17-1.33l58.49.01a1.54 1.54 0 0 1 1.37.84l10.45 20.34a1.88 1.87-13.4 0 0 1.67 1.02q12.28-.07 24.53-.06 1.08 0 .8-2.24m15.57-5.34a.68.67-37.8 0 1 .12-.93q.79-.64 1.83.59a.58.58 0 0 1-.29.93q-1.01.28-1.66-.59m6.35 4.54q.6-.14 1.06.56.45.68-.36.7-.38 0-.75-.12a.59.59 0 0 1 .05-1.14m254.74 4.71a.31.31 0 0 1 .57-.08q.3.54.02 1.12t-.65.05q-.16-.23.06-1.09"/></g></svg>