<?xml version="1.0" encoding="utf-8"?>
<!-- Generator: Adobe Illustrator 24.3.0, SVG Export Plug-In . SVG Version: 6.00 Build 0)  -->
<svg version="1.1" id="Layer_1" xmlns="http://www.w3.org/2000/svg" xmlns:xlink="http://www.w3.org/1999/xlink" x="0px" y="0px"
	 viewBox="0 0 512 512" style="enable-background:new 0 0 512 512;" xml:space="preserve">
<style type="text/css">
	.st0{fill:#1A1A1A;}
	.st1{fill:#C4C4C4;}
	.st2{fill:#FFFFFF;}
	.st3{fill:url(#XMLID_5_);}
	.st4{fill:url(#path2500_2_);}
	.st5{fill:url(#path2508_2_);}
	.st6{fill:url(#path2516_2_);}
	.st7{fill:url(#path2524_2_);}
	.st8{fill:url(#path2532_2_);}
	.st9{fill:url(#path2536_2_);}
	.st10{fill:url(#path2548_2_);}
	.st11{fill:url(#path2552_2_);}
	.st12{fill:url(#path2564_2_);}
	.st13{fill:url(#path2572_2_);}
	.st14{fill:url(#path2584_2_);}
	.st15{fill:url(#path2588_2_);}
	.st16{fill:url(#path2596_2_);}
	.st17{fill:url(#path2632_2_);}
	.st18{fill:url(#path2644_2_);}
	.st19{fill:url(#path2656_2_);}
	.st20{fill:url(#path2660_2_);}
	.st21{fill:url(#path2696_2_);}
	.st22{fill:url(#path2700_2_);}
	.st23{fill:url(#path2708_2_);}
	.st24{fill:url(#path2496_2_);}
	.st25{fill:url(#path2504_2_);}
	.st26{fill:url(#path2512_2_);}
	.st27{fill:url(#path2520_2_);}
	.st28{fill:url(#path2528_2_);}
	.st29{fill:url(#path2540_2_);}
	.st30{fill:url(#path2544_2_);}
	.st31{fill:url(#path2556_2_);}
	.st32{fill:url(#path2560_2_);}
	.st33{fill:url(#path2568_2_);}
	.st34{fill:url(#path2576_2_);}
	.st35{fill:url(#path2580_2_);}
	.st36{fill:url(#path2592_2_);}
	.st37{fill:url(#path2600_2_);}
	.st38{fill:url(#path2628_2_);}
	.st39{fill:url(#path2640_2_);}
	.st40{fill:url(#path2648_2_);}
	.st41{fill:url(#path2652_2_);}
	.st42{fill:url(#path2664_2_);}
	.st43{fill:url(#path2704_2_);}
	.st44{fill:url(#path2712_2_);}
	.st45{fill:url(#path2668_2_);}
	.st46{fill:url(#path2672_2_);}
	.st47{fill:url(#path2676_2_);}
	.st48{fill:url(#path2680_2_);}
	.st49{fill:url(#path2684_2_);}
	.st50{fill:url(#path2688_2_);}
	.st51{fill:url(#path2692_2_);}
	.st52{fill:url(#path2604_2_);}
	.st53{fill:url(#path2716_2_);}
</style>
<g id="XMLID_1_">
	<path id="path2492" class="st0" d="M301.39,184.75c-15.51-7.42-29.54-9.85-46.13-9.85c-15.11,0-30.89,3.24-45.32,9.31
		c-14.97-5.13-50.71-2.02-58.54-1.89c-8.9,0.27-45.99-2.02-54.76-2.02s-26.84,0.27-40.46,1.21c-20.77,1.35-44.24-0.54-47.07-1.35
		c-1.35-0.27-2.43,0.54-2.43,0.54c-0.67,0.81-6.88,7.82-6.88,7.82l0.67,2.02l14.84,7.42l-2.02,9.71l14.43,6.47c0,0,0,8.09,0.81,9.04
		c0.81,1.08,15.24,4.59,15.24,4.59s1.48,9.44,2.43,10.25c1.75,1.48,16.86,2.97,16.86,2.97s4.72,8.5,6.74,9.31
		c2.02,0.81,18.34,3.24,21.31,2.43c0,0,1.35,7.01,4.18,8.36c3.1,1.35,20.77,0.81,20.77,0.81s2.16,6.88,5.66,7.96
		c3.24,0.94,18.75-2.97,18.75-2.97s2.29,5.13,4.45,6.07c3.37,1.35,15.78-2.97,15.78-2.97c6.34,26.03,27.65,44.51,52.74,54.09
		l3.51,7.01l8.23-3.1l4.32,6.47l7.55-4.05l5.13,6.2l6.74-4.86l5.93,5.53l5.93-5.66l6.74,4.86l5.13-6.2l7.55,4.05l4.32-6.47l8.23,3.1
		l3.37-7.01c23.2-8.9,44.78-27.52,51.79-50.98c2.16,0.94,6.34,2.29,9.71,2.56c0,0,3.91-1.35,5.53-6.2c0,0,13.49,4.18,15.92,3.37
		c0,0,2.29-0.13,4.32-6.88c1.35,0.67,2.56,0.27,4.59,0.67c10.52,2.29,15.11,1.08,15.11,1.08s2.29-0.4,4.18-9.17
		c0.94,0.13,1.62,0.27,2.29,0.27c0,0,15.65,0.4,18.34-0.94c0,0,2.43-0.67,3.37-9.44c6.47,0.94,12.27,1.35,16.86,0.81
		c0,0,5.26-1.75,7.28-12c3.51-0.27,14.03-0.94,15.24-2.43c0,0,2.56-1.21,2.56-10.39c4.05-0.27,10.66-1.08,13.08-3.64
		c0,0,2.56-2.83,1.48-9.85c9.58-2.02,12.95-5.13,12.95-5.13c0-3.37-3.1-9.58-3.1-9.58s10.79-4.05,13.35-6.2l0.81-1.48
		c0,0-6.47-7.69-7.55-7.96c-2.29-0.54-23.2,2.56-36.69,2.56c-13.49,0-37.77-2.02-47.88-2.02c-9.98,0-41.27,2.29-55.97,2.29
		s-20.37-2.29-31.29-2.29C326.34,180.97,310.83,181.38,301.39,184.75"/>
	<g id="XMLID_2_">
		<path id="path2608_1_" d="M193.62,253.13c0-25.22,27.25-45.59,60.97-45.59s60.97,20.37,60.97,45.59s-27.25,45.59-60.97,45.59
			C221,298.72,193.62,278.36,193.62,253.13z"/>
		<path id="XMLID_3_" class="st1" d="M254.59,299.13c-33.85,0-61.23-20.64-61.23-45.99s27.52-45.99,61.23-45.99
			c33.85,0,61.37,20.64,61.37,45.99S288.44,299.13,254.59,299.13z M254.59,207.81c-33.45,0-60.56,20.23-60.56,45.18
			s27.11,45.32,60.56,45.32s60.56-20.37,60.56-45.32C315.15,228.18,288.04,207.81,254.59,207.81z"/>
	</g>
	<path id="path2612" class="st2" d="M250,216.45c-0.54,0.27-1.35,0.13-1.89,0.13c-2.43,0.27-4.99,0.67-7.28,1.08
		c-6.88,1.21-13.62,3.91-19.15,7.82c-1.48,0.94-3.1,2.02-4.18,3.51c0,0,0,0.13-0.13,0.13c-0.4,0.67-1.08,1.21-1.35,1.89
		c-0.13,0.27-0.27,0.81-0.13,1.08c0.4,1.08,2.43,2.97,3.51,3.51c0.54,0.27,1.35,0.94,1.48,1.48c0.13,0.94-0.13,1.89-0.13,2.7
		c0,1.21,0,2.29,0,3.51v16.99v6.74c0,0.94,0,2.02,0,2.97c-0.13,0.54-2.16,2.29-2.56,2.83c-0.67,0.67-0.94,1.62-1.48,2.29v0.13
		c0.27,0.27,0.27,0.81,0.4,1.08c0.54,0.94,1.62,2.02,2.56,2.7c7.69,5.93,19.29,9.31,29.54,10.12c4.05,0.27,8.23,0,12.41,0
		c0.4-0.4,2.97-0.4,3.64-0.4c0.27-0.27,2.16-0.4,2.7-0.4c0.4-0.4,1.48-0.4,2.02-0.4c0.27-0.27,0.54-0.27,0.94-0.27
		c0.27-0.4,1.08-0.4,1.62-0.4c0.27-0.27,0.94-0.4,1.21-0.4c0.27-0.27,0.81-0.4,1.21-0.4c0.27-0.27,0.94-0.4,1.21-0.4
		c0.4-0.4,1.48-0.67,2.02-0.67c0.27-0.4,0.81-0.4,1.21-0.67c0.94-0.54,2.02-0.94,2.97-1.48c3.51-2.02,6.47-4.72,8.36-8.23
		c0.4-0.67,0.81-1.35,0.81-2.16c0.27-0.27,0.4-0.81,0.4-1.21c0.4-0.4,0.4-1.35,0.4-2.02c0.4-0.54,0.27-2.02,0.27-2.83
		c-0.13-7.01-5.53-13.62-11.73-16.32c-0.13,0-0.4,0-0.4-0.27c0.4-0.27,1.08-0.94,1.62-0.94c0.4-0.67,1.89-1.21,2.56-1.89
		c1.48-1.21,4.86-4.59,4.86-6.34c0.27-0.27,0.4-0.54,0.4-0.94c0.27-0.27,0.4-0.81,0.4-1.21c0.54-0.54,0.4-1.89,0.4-2.7
		c0.4-0.54,0.13-1.62,0-2.16c-0.67-3.37-2.02-6.07-4.32-8.5c-0.54-0.54-1.08-0.94-1.62-1.48c-1.62-1.62-3.78-2.7-5.8-3.78
		c-5.66-2.83-12.14-4.32-19.02-4.59C256.61,216.45,253.37,216.45,250,216.45L250,216.45z M253.51,222.52
		c3.91,0,7.69,0.27,10.66,2.02c4.59,2.7,5.93,8.23,5.26,13.49c-0.4,3.1-1.48,6.2-3.91,8.23c-2.29,2.02-5.4,2.56-8.5,2.97
		c-7.01,0.94-14.3-1.48-16.32-8.23c-0.54-1.62-0.81-3.37-0.94-5.13c0-0.94,0.13-1.75,0.13-2.7c0.27-0.27,0.4-1.21,0.4-1.62
		c0.27-0.27,0.4-0.67,0.4-1.08c0.13-0.13,0.4-0.54,0.4-0.81c0.13-0.13,0.27-0.27,0.27-0.54c0.4-0.27,1.08-1.35,1.08-1.89
		c0.54-0.27,0.81-0.94,1.35-1.35c1.21-1.08,3.51-2.56,5.26-2.56c0.13-0.13,0.4-0.27,0.67-0.27c0.4-0.4,1.48-0.4,2.02-0.4
		C251.89,222.38,252.97,222.78,253.51,222.52z M252.56,254.62c4.72,0,8.9,0.13,12.68,1.75c7.96,3.64,8.77,16.86,3.24,22.79
		c-4.05,4.45-12.68,5.13-18.61,3.64c-1.35-0.4-2.7-0.67-3.91-1.35c-1.62-0.94-2.83-2.02-3.91-3.64c-1.48-2.16-2.43-5.13-2.56-7.82
		c-0.13-1.62,0.13-3.1,0.13-4.59c0.27-0.27,0.4-0.94,0.4-1.35c0.27-0.27,0.4-0.81,0.4-1.08c0.27-0.13,0.4-0.54,0.4-0.81
		c0.27-0.27,0.54-0.81,0.54-1.08c0.67-0.4,1.08-1.35,1.48-2.02c0.54-0.67,2.56-2.43,3.37-2.43c0.27-0.4,1.08-0.67,1.62-0.67
		c0.27-0.27,0.81-0.4,1.08-0.4c0.27-0.27,0.94-0.4,1.48-0.4C250.81,254.75,252.02,255.16,252.56,254.62z"/>
	<g id="XMLID_6_">
		
			<radialGradient id="XMLID_5_" cx="254.6535" cy="260.8673" r="54.1913" gradientTransform="matrix(1 0 0 -1 0 514)" gradientUnits="userSpaceOnUse">
			<stop  offset="0" style="stop-color:#FFFFFF"/>
			<stop  offset="1" style="stop-color:#E6E6E6"/>
		</radialGradient>
		<path id="XMLID_10_" class="st3" d="M254.59,299.13c-33.85,0-61.23-20.64-61.23-45.99s27.52-45.99,61.23-45.99
			c33.85,0,61.37,20.64,61.37,45.99S288.44,299.13,254.59,299.13z M254.59,207.81c-33.45,0-60.56,20.23-60.56,45.18
			s27.11,45.32,60.56,45.32s60.56-20.37,60.56-45.32C315.15,228.18,288.04,207.81,254.59,207.81z"/>
		<g id="XMLID_13_">
			
				<linearGradient id="path2500_2_" gradientUnits="userSpaceOnUse" x1="22.5782" y1="307.8677" x2="135.6069" y2="307.8677" gradientTransform="matrix(1 0 0 -1 0 514)">
				<stop  offset="0" style="stop-color:#FFFFFF"/>
				<stop  offset="0.3637" style="stop-color:#CCCCCC"/>
				<stop  offset="0.5278" style="stop-color:#E1E1E1"/>
				<stop  offset="0.7435" style="stop-color:#F7F7F7"/>
				<stop  offset="0.8828" style="stop-color:#FFFFFF"/>
				<stop  offset="1" style="stop-color:#B3B3B3"/>
			</linearGradient>
			<path id="path2500_1_" class="st4" d="M24.48,200.8c-1.21,0.4-1.75,1.08-1.89,2.29c-0.13,0.94,0.54,3.1,2.97,4.32
				c1.62,0.81,7.96,3.64,9.58,4.05c1.48,0.27,95.9-5.13,96.17-5.13c1.21-0.54,4.72-1.48,4.45-3.51c-0.13-0.54-0.94-1.08-1.48-1.35
				c-1.08-0.4-12.68,0.67-13.62,0.67C112.42,202.01,26.64,200.8,24.48,200.8"/>
			
				<linearGradient id="path2508_2_" gradientUnits="userSpaceOnUse" x1="137.6351" y1="307.89" x2="156.4799" y2="307.89" gradientTransform="matrix(1 0 0 -1 0 514)">
				<stop  offset="0" style="stop-color:#FFFFFF"/>
				<stop  offset="0.3637" style="stop-color:#CCCCCC"/>
				<stop  offset="0.5278" style="stop-color:#E1E1E1"/>
				<stop  offset="0.7435" style="stop-color:#F7F7F7"/>
				<stop  offset="0.8828" style="stop-color:#FFFFFF"/>
				<stop  offset="1" style="stop-color:#B3B3B3"/>
			</linearGradient>
			<path id="path2508_1_" class="st5" d="M152.89,202.15c-3.24,0.94-6.74,1.48-10.12,2.16c-1.35,0.27-3.1,0.27-4.18,1.08
				c-0.54,0.4-0.81,0.81-0.94,1.48c-0.13,0.54,0,1.21,0.27,1.62c0.54,0.54,3.64,1.89,5.8,1.62c3.24-0.81,6.07-1.75,9.17-2.83
				c1.08-0.27,2.43-0.54,3.24-1.35c0.81-0.94,0.27-1.89-0.4-2.7C155.05,202.42,153.97,201.88,152.89,202.15"/>
			
				<linearGradient id="path2516_2_" gradientUnits="userSpaceOnUse" x1="143.7715" y1="299.1234" x2="161.5531" y2="299.1234" gradientTransform="matrix(1 0 0 -1 0 514)">
				<stop  offset="0" style="stop-color:#FFFFFF"/>
				<stop  offset="0.3637" style="stop-color:#CCCCCC"/>
				<stop  offset="0.5278" style="stop-color:#E1E1E1"/>
				<stop  offset="0.7435" style="stop-color:#F7F7F7"/>
				<stop  offset="0.8828" style="stop-color:#FFFFFF"/>
				<stop  offset="1" style="stop-color:#B3B3B3"/>
			</linearGradient>
			<path id="path2516_1_" class="st6" d="M157.07,209.7c-3.1,0.67-5.93,1.89-8.9,2.97c-1.21,0.4-2.83,0.67-3.78,1.62
				c-0.54,0.54-0.67,1.35-0.54,2.16c0.13,0.54,0.4,1.35,0.81,1.89c0.81,0.94,2.83,1.75,4.32,1.75c0.81,0,2.02-0.27,2.56-0.4
				c2.29-1.21,4.59-2.43,7.01-3.78c0.81-0.4,1.75-0.54,2.43-1.21C163.14,212.4,158.96,209.3,157.07,209.7"/>
			
				<linearGradient id="path2524_2_" gradientUnits="userSpaceOnUse" x1="35.9971" y1="296.5428" x2="138.995" y2="296.5428" gradientTransform="matrix(1 0 0 -1 0 514)">
				<stop  offset="0" style="stop-color:#FFFFFF"/>
				<stop  offset="0.3637" style="stop-color:#CCCCCC"/>
				<stop  offset="0.5278" style="stop-color:#E1E1E1"/>
				<stop  offset="0.7435" style="stop-color:#F7F7F7"/>
				<stop  offset="0.8828" style="stop-color:#FFFFFF"/>
				<stop  offset="1" style="stop-color:#B3B3B3"/>
			</linearGradient>
			<path id="path2524_1_" class="st7" d="M133.6,210.11c-2.16,0.27-17.67,1.75-23.47,2.02c-3.1,0.27-56.11,3.51-60.7,3.51
				c-0.81,0-12,0-13.22,0.94c-0.54,0.54,0,3.51,0.67,4.05c1.08,1.08,3.1,1.35,4.45,1.75c4.18,1.08,7.82,2.43,12.54,2.43
				c0.27,0,83.22-10.52,84.7-10.52c0.27-0.27,0.4-0.4,0.4-0.67c0-0.81-2.97-2.97-3.64-3.37
				C134.81,210.11,134.27,210.11,133.6,210.11"/>
			
				<linearGradient id="path2532_2_" gradientUnits="userSpaceOnUse" x1="52.0959" y1="286.2519" x2="141.5141" y2="286.2519" gradientTransform="matrix(1 0 0 -1 0 514)">
				<stop  offset="0" style="stop-color:#FFFFFF"/>
				<stop  offset="0.3637" style="stop-color:#CCCCCC"/>
				<stop  offset="0.5278" style="stop-color:#E1E1E1"/>
				<stop  offset="0.7435" style="stop-color:#F7F7F7"/>
				<stop  offset="0.8828" style="stop-color:#FFFFFF"/>
				<stop  offset="1" style="stop-color:#B3B3B3"/>
			</linearGradient>
			<path id="path2532_1_" class="st8" d="M132.39,218.74c-4.59,0.81-9.31,1.62-13.89,2.43c-7.28,1.35-36.15,5.53-43.16,6.34
				c-4.59,0.54-9.17,1.08-13.89,1.35c-8.63-0.4-10.12,0.94-9.04,3.24c0.4,0.94,0.94,2.29,1.89,2.97c1.21,0.81,10.79,2.83,14.43,2.83
				c4.45,0.13,24.28-2.97,27.52-3.78c5.13-1.21,43.84-11.6,44.91-12.14c0.81-0.54,0.13-2.83-0.81-4.05
				C139.53,216.99,134.54,218.33,132.39,218.74"/>
			
				<linearGradient id="path2536_2_" gradientUnits="userSpaceOnUse" x1="151.8277" y1="290.4771" x2="169.0895" y2="290.4771" gradientTransform="matrix(1 0 0 -1 0 514)">
				<stop  offset="0" style="stop-color:#FFFFFF"/>
				<stop  offset="0.3637" style="stop-color:#CCCCCC"/>
				<stop  offset="0.5278" style="stop-color:#E1E1E1"/>
				<stop  offset="0.7435" style="stop-color:#F7F7F7"/>
				<stop  offset="0.8828" style="stop-color:#FFFFFF"/>
				<stop  offset="1" style="stop-color:#B3B3B3"/>
			</linearGradient>
			<path id="path2536_1_" class="st9" d="M163.68,217.79c-1.35,0-10.79,5.93-11.46,6.74c-0.4,0.54-0.4,1.35-0.27,2.02
				c0.13,0.54,0.4,1.21,0.81,1.62c1.08,1.08,3.37,1.08,4.86,1.08c0.4-0.13,0.81-0.27,1.21-0.54c0.81-0.4,1.48-1.21,2.29-1.75
				c1.62-1.21,2.83-2.16,4.45-3.51c0.81-0.54,2.7-1.08,3.24-1.89C170.15,219.28,165.3,217.66,163.68,217.79"/>
			
				<linearGradient id="path2548_2_" gradientUnits="userSpaceOnUse" x1="161.9028" y1="283.5345" x2="177.5571" y2="283.5345" gradientTransform="matrix(1 0 0 -1 0 514)">
				<stop  offset="0" style="stop-color:#FFFFFF"/>
				<stop  offset="0.3637" style="stop-color:#CCCCCC"/>
				<stop  offset="0.5278" style="stop-color:#E1E1E1"/>
				<stop  offset="0.7435" style="stop-color:#F7F7F7"/>
				<stop  offset="0.8828" style="stop-color:#FFFFFF"/>
				<stop  offset="1" style="stop-color:#B3B3B3"/>
			</linearGradient>
			<path id="path2548_1_" class="st10" d="M172.04,224.4c-1.35,0-5.53,4.18-7.01,5.4c-0.67,0.54-2.56,2.16-2.83,2.97
				c-0.67,1.75,0.4,2.56,1.48,3.37s4.18,0.27,5.53-0.81c1.08-0.81,7.55-6.61,7.96-7.28C179.05,224.81,174.2,224.4,172.04,224.4"/>
			
				<linearGradient id="path2552_2_" gradientUnits="userSpaceOnUse" x1="72.4985" y1="277.3235" x2="148.7923" y2="277.3235" gradientTransform="matrix(1 0 0 -1 0 514)">
				<stop  offset="0" style="stop-color:#FFFFFF"/>
				<stop  offset="0.3637" style="stop-color:#CCCCCC"/>
				<stop  offset="0.5278" style="stop-color:#E1E1E1"/>
				<stop  offset="0.7435" style="stop-color:#F7F7F7"/>
				<stop  offset="0.8828" style="stop-color:#FFFFFF"/>
				<stop  offset="1" style="stop-color:#B3B3B3"/>
			</linearGradient>
			<path id="path2552_1_" class="st11" d="M145.74,224.4c-0.54,0.13-1.08,0.27-1.62,0.4c-1.48,0.67-35.47,11.06-51.66,14.43
				c-4.59,0.94-9.31,1.62-14.16,2.29c-1.48,0.27-4.59,0-5.66,0.81c-0.67,0.54,1.35,3.64,1.89,4.59c1.48,2.16,18.07,2.83,25.49,0.81
				c2.97-0.81,47.21-16.19,48.02-17.26c0.94-1.21,0.67-4.05,0.54-4.59C148.44,224.54,147.09,224.4,145.74,224.4"/>
			
				<linearGradient id="path2564_2_" gradientUnits="userSpaceOnUse" x1="172.4052" y1="278.0042" x2="185.5706" y2="278.0042" gradientTransform="matrix(1 0 0 -1 0 514)">
				<stop  offset="0" style="stop-color:#FFFFFF"/>
				<stop  offset="0.3637" style="stop-color:#CCCCCC"/>
				<stop  offset="0.5278" style="stop-color:#E1E1E1"/>
				<stop  offset="0.7435" style="stop-color:#F7F7F7"/>
				<stop  offset="0.8828" style="stop-color:#FFFFFF"/>
				<stop  offset="1" style="stop-color:#B3B3B3"/>
			</linearGradient>
			<path id="path2564_1_" class="st12" d="M180.13,230.47c-1.08,0.67-2.43,2.29-3.24,3.24c-0.67,0.67-1.21,1.35-1.89,2.02
				c-1.21,1.21-3.91,3.51-1.62,4.99c0.94,0.67,2.56,1.21,3.51,0.94c0.81-0.4,1.62-0.4,2.29-1.08c0.67-0.54,1.21-1.48,1.62-2.29
				c0.54-0.81,2.43-3.51,2.97-3.91c0.94-0.81,2.43-1.48,1.48-3.24C184.85,230.47,181.21,229.93,180.13,230.47"/>
			
				<linearGradient id="path2572_2_" gradientUnits="userSpaceOnUse" x1="98.1884" y1="268.2737" x2="159.0376" y2="268.2737" gradientTransform="matrix(1 0 0 -1 0 514)">
				<stop  offset="0" style="stop-color:#FFFFFF"/>
				<stop  offset="0.3637" style="stop-color:#CCCCCC"/>
				<stop  offset="0.5278" style="stop-color:#E1E1E1"/>
				<stop  offset="0.7435" style="stop-color:#F7F7F7"/>
				<stop  offset="0.8828" style="stop-color:#FFFFFF"/>
				<stop  offset="1" style="stop-color:#B3B3B3"/>
			</linearGradient>
			<path id="path2572_1_" class="st13" d="M151.81,233.31c-2.16,0.13-10.12,4.59-13.35,5.93c-8.9,3.78-18.07,6.88-27.38,9.98
				c-2.43,0.67-4.86,1.48-7.42,2.16c-1.48,0.4-3.37,0.67-4.72,1.48c-0.4,0.27-0.81,0.54-0.81,1.08c-0.13,0.81,0.54,1.48,1.08,1.89
				c0.67,0.54,1.35,1.08,2.16,1.35c1.35,0.4,2.83,0.4,4.32,0.54c3.51,0.13,10.52,1.21,14.97-0.67c4.18-1.75,21.85-11.06,26.57-13.49
				c2.16-1.21,11.87-5.66,11.73-7.42C158.82,233.31,154.37,233.31,151.81,233.31"/>
			
				<linearGradient id="path2584_2_" gradientUnits="userSpaceOnUse" x1="122.6547" y1="261.1207" x2="169.1125" y2="261.1207" gradientTransform="matrix(1 0 0 -1 0 514)">
				<stop  offset="0" style="stop-color:#FFFFFF"/>
				<stop  offset="0.3637" style="stop-color:#CCCCCC"/>
				<stop  offset="0.5278" style="stop-color:#E1E1E1"/>
				<stop  offset="0.7435" style="stop-color:#F7F7F7"/>
				<stop  offset="0.8828" style="stop-color:#FFFFFF"/>
				<stop  offset="1" style="stop-color:#B3B3B3"/>
			</linearGradient>
			<path id="path2584_1_" class="st14" d="M161.25,240.45c-1.62,0.4-38.04,20.1-38.44,21.04c-0.81,1.35,1.75,3.51,3.1,3.91
				c2.02,0.4,13.08-0.67,17.8-3.37c1.35-1.08,17.8-13.89,19.15-14.84c1.62-1.35,6.74-3.91,6.2-5.13
				C168.4,240.59,162.87,239.91,161.25,240.45"/>
			
				<linearGradient id="path2588_2_" gradientUnits="userSpaceOnUse" x1="146.3042" y1="256.8893" x2="180.187" y2="256.8893" gradientTransform="matrix(1 0 0 -1 0 514)">
				<stop  offset="0" style="stop-color:#FFFFFF"/>
				<stop  offset="0.3637" style="stop-color:#CCCCCC"/>
				<stop  offset="0.5278" style="stop-color:#E1E1E1"/>
				<stop  offset="0.7435" style="stop-color:#F7F7F7"/>
				<stop  offset="0.8828" style="stop-color:#FFFFFF"/>
				<stop  offset="1" style="stop-color:#B3B3B3"/>
			</linearGradient>
			<path id="path2588_1_" class="st15" d="M171.5,245.44c-0.94-0.13-6.74,7.01-20.64,16.59c-1.21,0.81-3.91,2.56-4.45,3.78
				c-0.81,2.29,3.1,2.97,4.59,2.97c0.27,0,7.82-0.94,11.33-2.97c1.62-0.94,17.13-16.32,17.67-16.99c0.27-0.27,0.4-1.89,0.27-2.02
				c-0.81-1.21-3.37-0.4-4.86-0.54C174.2,245.85,172.58,245.58,171.5,245.44"/>
			
				<linearGradient id="path2596_2_" gradientUnits="userSpaceOnUse" x1="167.6904" y1="217.4889" x2="214.0382" y2="217.4889" gradientTransform="matrix(1 0 0 -1 0 514)">
				<stop  offset="0" style="stop-color:#FFFFFF"/>
				<stop  offset="0.3637" style="stop-color:#CCCCCC"/>
				<stop  offset="0.5278" style="stop-color:#E1E1E1"/>
				<stop  offset="0.7435" style="stop-color:#F7F7F7"/>
				<stop  offset="0.8828" style="stop-color:#FFFFFF"/>
				<stop  offset="1" style="stop-color:#B3B3B3"/>
			</linearGradient>
			<path id="path2596_1_" class="st16" d="M168.13,275.25c-0.67,0.27-0.4,1.35-0.27,1.89c0.27,0.94,4.32,7.55,6.2,10.12
				c1.48,2.29,2.97,4.59,4.86,6.61c6.88,7.96,15.24,15.11,24.14,19.69c1.35,0.67,8.77,4.45,10.52,4.32c0.4,0,0.54-0.4,0.4-0.54
				c-0.13-0.4-0.54-0.67-0.81-0.94c-1.75-0.81-3.37-1.62-5.13-2.43c-2.97-1.35-5.8-2.97-8.5-4.72c-6.47-4.18-12.41-9.04-17.8-14.97
				c-2.43-2.7-4.18-5.53-6.47-8.77c-2.16-3.1-4.99-8.63-5.66-9.85C169.21,275.25,168.67,274.98,168.13,275.25"/>
			
				<linearGradient id="path2632_2_" gradientUnits="userSpaceOnUse" x1="135.6591" y1="315.6072" x2="153.3439" y2="315.6072" gradientTransform="matrix(1 0 0 -1 0 514)">
				<stop  offset="0" style="stop-color:#FFFFFF"/>
				<stop  offset="0.3637" style="stop-color:#CCCCCC"/>
				<stop  offset="0.5278" style="stop-color:#E1E1E1"/>
				<stop  offset="0.7435" style="stop-color:#F7F7F7"/>
				<stop  offset="0.8828" style="stop-color:#FFFFFF"/>
				<stop  offset="1" style="stop-color:#B3B3B3"/>
			</linearGradient>
			<path id="path2632_1_" class="st17" d="M153.29,198.1c0.13,1.62-6.88,1.62-8.63,1.75c-2.43,0.27-6.47,1.89-7.82,0.4
				c-0.94-1.08-2.29-4.32-0.27-4.32c2.83-0.13,4.99,0.13,8.23,0.27C148.17,196.48,153.16,195.81,153.29,198.1"/>
			
				<linearGradient id="path2644_2_" gradientUnits="userSpaceOnUse" x1="155.6818" y1="300.6888" x2="197.8146" y2="300.6888" gradientTransform="matrix(1 0 0 -1 0 514)">
				<stop  offset="0" style="stop-color:#FFFFFF"/>
				<stop  offset="0.3637" style="stop-color:#CCCCCC"/>
				<stop  offset="0.5278" style="stop-color:#E1E1E1"/>
				<stop  offset="0.7435" style="stop-color:#F7F7F7"/>
				<stop  offset="0.8828" style="stop-color:#FFFFFF"/>
				<stop  offset="1" style="stop-color:#B3B3B3"/>
			</linearGradient>
			<path id="path2644_1_" class="st18" d="M157.47,197.16c-0.94,0-1.62,0.13-1.75,1.08c-0.13,1.08,0,2.83,1.89,2.83
				c2.16,0,4.86-2.83,6.07-1.08c1.48,2.02-6.07,3.24-4.86,5.8c1.48,3.24,4.59,0.27,5.13,0.13c1.48-0.67,6.2-4.86,8.09-2.16
				c1.75,2.43-6.07,5.93-7.01,7.01c-0.27,0.27-0.81,2.16-0.54,2.56c1.75,3.64,5.93,0.13,8.77-2.97c1.08-1.21,1.89-1.75,2.83-2.02
				c1.48-0.4,2.7-0.13,3.1,1.21c0.27,0.67,0,1.62-0.54,2.16c-0.54,0.54-7.28,5.26-7.01,6.74c0.4,2.83,2.16,3.24,3.51,2.7
				c1.35-0.67,5.26-7.15,7.55-6.34c0.67,0.27,1.35,0.27,1.62,0.94c0.4,0.81,0.27,1.89-0.27,2.56c-0.67,0.81-1.89,2.02-2.7,2.7
				c-0.67,0.67-1.48,1.35-1.89,2.02c-1.08,1.89,0.54,2.83,2.29,2.83c0.67,0,0.94-0.4,1.35-0.67c1.08-0.94,2.16-4.99,4.45-3.91
				c2.29,1.08-2.02,4.32-1.48,6.61c0.67,1.75,3.37,2.02,4.18,0.81c0.81-2.02,0.4-5.26,1.21-8.77c0.81-3.24,3.1-8.09,4.32-9.98
				c0.67-1.08,1.62-2.02,1.89-3.37c0-0.13,0-0.13,0-0.27c0.13-1.48-0.67-2.56-1.75-3.51c-1.62-1.48-3.78-2.29-5.8-2.97
				c-5.93-1.89-12.27-2.16-19.02-2.43C166.78,197.29,162.19,197.16,157.47,197.16"/>
			
				<linearGradient id="path2656_2_" gradientUnits="userSpaceOnUse" x1="166.267" y1="254.5824" x2="187.5726" y2="254.5824" gradientTransform="matrix(1 0 0 -1 0 514)">
				<stop  offset="0" style="stop-color:#FFFFFF"/>
				<stop  offset="0.3637" style="stop-color:#CCCCCC"/>
				<stop  offset="0.5278" style="stop-color:#E1E1E1"/>
				<stop  offset="0.7435" style="stop-color:#F7F7F7"/>
				<stop  offset="0.8828" style="stop-color:#FFFFFF"/>
				<stop  offset="1" style="stop-color:#B3B3B3"/>
			</linearGradient>
			<path id="path2656_1_" class="st19" d="M180.4,252.46c1.75-2.29,3.91-4.32,6.07-4.05c0.54,0,0.81,0.13,1.08,0.4
				c-0.13,1.35-0.27,2.7-0.27,4.18v0.67v0.13c-0.54,2.16-0.81,1.62-2.29,4.32c-2.16,4.18-4.59,10.12-5.93,10.66
				c-2.02,0.94-5.13,0.81-7.42,1.35c-3.24,0.81-5.53,0-5.53-1.48C166.24,266.89,179.19,254.35,180.4,252.46"/>
			
				<linearGradient id="path2660_2_" gradientUnits="userSpaceOnUse" x1="173.2082" y1="221.7344" x2="225.3264" y2="221.7344" gradientTransform="matrix(1 0 0 -1 0 514)">
				<stop  offset="0" style="stop-color:#FFFFFF"/>
				<stop  offset="0.3637" style="stop-color:#CCCCCC"/>
				<stop  offset="0.5278" style="stop-color:#E1E1E1"/>
				<stop  offset="0.7435" style="stop-color:#F7F7F7"/>
				<stop  offset="0.8828" style="stop-color:#FFFFFF"/>
				<stop  offset="1" style="stop-color:#B3B3B3"/>
			</linearGradient>
			<path id="path2660_1_" class="st20" d="M181.35,272.02c1.89,0.13,2.43,2.7,4.72,3.24c1.35,0.27,3.1-0.4,4.18-1.08
				c0.67-0.4,1.75-1.21,2.7-1.08c6.34,11.06,17.94,20.1,32.37,25.36c0,0,0,0.13,0.13,0.13c0.13,0.54,0,1.08-0.27,1.21
				c-0.81,0.81-8.09,12.27-9.58,12.68c-1.35,0.4-6.34-2.7-8.23-3.78c-9.58-5.13-18.61-12-25.63-20.91
				c-2.16-2.83-8.5-9.98-8.36-12.95C173.25,272.82,180.13,272.02,181.35,272.02"/>
			
				<linearGradient id="path2696_2_" gradientUnits="userSpaceOnUse" x1="181.6718" y1="274.3636" x2="192.784" y2="274.3636" gradientTransform="matrix(1 0 0 -1 0 514)">
				<stop  offset="0" style="stop-color:#FFFFFF"/>
				<stop  offset="0.3637" style="stop-color:#CCCCCC"/>
				<stop  offset="0.5278" style="stop-color:#E1E1E1"/>
				<stop  offset="0.7435" style="stop-color:#F7F7F7"/>
				<stop  offset="0.8828" style="stop-color:#FFFFFF"/>
				<stop  offset="1" style="stop-color:#B3B3B3"/>
			</linearGradient>
			<path id="path2696_1_" class="st21" d="M189.03,233.31c1.08-0.27,3.37-1.08,3.78,0c-2.43,4.18-4.05,8.5-4.86,13.08
				c-0.81,0.54-2.97-0.81-5.26-1.62c-2.97-1.21,1.48-3.78,3.1-6.07C186.61,237.35,187.96,234.11,189.03,233.31"/>
			
				<linearGradient id="path2700_2_" gradientUnits="userSpaceOnUse" x1="183.9831" y1="248.9147" x2="191.572" y2="248.9147" gradientTransform="matrix(1 0 0 -1 0 514)">
				<stop  offset="0" style="stop-color:#FFFFFF"/>
				<stop  offset="0.3637" style="stop-color:#CCCCCC"/>
				<stop  offset="0.5278" style="stop-color:#E1E1E1"/>
				<stop  offset="0.7435" style="stop-color:#F7F7F7"/>
				<stop  offset="0.8828" style="stop-color:#FFFFFF"/>
				<stop  offset="1" style="stop-color:#B3B3B3"/>
			</linearGradient>
			<path id="path2700_1_" class="st22" d="M187.69,258.12c0.67,4.32,1.89,8.5,3.91,12.54c-0.4,0.81-4.86,2.43-7.28,0.4
				C182.97,269.45,186.07,257.99,187.69,258.12"/>
			
				<linearGradient id="path2708_2_" gradientUnits="userSpaceOnUse" x1="9.641" y1="307.6863" x2="218.5099" y2="307.6863" gradientTransform="matrix(1 0 0 -1 0 514)">
				<stop  offset="0" style="stop-color:#FFFFFF"/>
				<stop  offset="0.3637" style="stop-color:#CCCCCC"/>
				<stop  offset="0.5278" style="stop-color:#E1E1E1"/>
				<stop  offset="0.7435" style="stop-color:#F7F7F7"/>
				<stop  offset="0.8828" style="stop-color:#FFFFFF"/>
				<stop  offset="1" style="stop-color:#B3B3B3"/>
			</linearGradient>
			<path id="path2708_1_" class="st23" d="M96.1,183c9.17,0,17.26,0.81,26.17,1.21c4.59,0.27,8.9,0.27,13.49,0.54
				c4.59,0.27,9.31,0.54,13.89,0.54c8.36,0,16.19-0.54,24.41-0.94h6.2c3.91,0,8.23-0.27,12.14,0.13c2.43,0.27,4.99,0.27,7.28,0.54
				c3.24,0.4,8.77,1.08,11.19,2.02c2.16,0.94,3.78,2.43,4.59,3.37c1.62,1.75,3.91,4.45,2.7,6.47c-0.54,1.08-2.02,2.56-2.83,3.37
				c-1.08,1.21-9.31,7.96-11.46,10.93c-1.89,2.56-2.43,4.59-3.51,6.61c-1.62,2.56,0.13,4.59-0.4,6.07
				c-1.75,1.75-3.24,3.64-4.72,5.66c-0.27,0.13-0.54,0.27-0.81,0c-1.48-0.94-1.08-3.1-0.81-5.8c0.13-2.02,1.75-6.34,2.43-7.42
				c1.21-2.16,4.99-6.74,5.26-7.55c2.43-6.74-4.32-10.79-9.44-12.54c-1.75-0.54-3.37-1.21-5.13-1.48
				c-6.61-1.21-13.62-1.08-20.77-1.21c-4.86-0.13-9.98-0.4-14.97-0.4h-10.79c-3.37-0.27-6.88-0.4-10.12-1.21
				c-5.53-1.35-10.12-2.43-15.51-3.64c-4.72-1.08-9.71-1.89-14.7-2.16c-3.37-0.27-9.31-0.54-12.81-0.54
				c-2.56,0-21.85-0.13-24.68,0.54c-0.94,0.13-0.81,2.02-0.13,2.16c3.64,1.08,17.4,1.35,26.44,1.08c5.4,0.27,11.33,0.94,16.32,1.62
				c6.47,0.94,12.54,2.16,18.61,4.05l6.47,1.62c1.08,0.27,2.43,1.08,0.94,2.02c-4.05,0-7.69-0.81-11.73-0.81
				c-10.25,0-24.95-0.27-35.2-0.27c-1.08,0-50.71-0.54-56.51-0.94c-6.61-0.4-12.54-3.51-14.7-4.59c-0.81-0.4-3.37-2.29-3.24-2.7
				c0.54-1.21,3.24-5.8,5.26-5.93c4.45,0.4,9.98,0.94,14.57,1.21c0,0,33.18-0.4,34.12-0.4c4.99-0.4,16.86-0.94,21.99-0.94
				C88.55,183,93.27,182.86,96.1,183"/>
		</g>
		<g id="XMLID_14_">
			
				<linearGradient id="path2496_2_" gradientUnits="userSpaceOnUse" x1="375.2519" y1="310.1992" x2="491.3543" y2="310.1992" gradientTransform="matrix(1 0 0 -1 0 514)">
				<stop  offset="0" style="stop-color:#B3B3B3"/>
				<stop  offset="0.1172" style="stop-color:#FFFFFF"/>
				<stop  offset="0.2565" style="stop-color:#F7F7F7"/>
				<stop  offset="0.4722" style="stop-color:#E1E1E1"/>
				<stop  offset="0.6363" style="stop-color:#CCCCCC"/>
				<stop  offset="1" style="stop-color:#FFFFFF"/>
			</linearGradient>
			<path id="path2496_1_" class="st24" d="M478.22,199.05c-3.51,0-7.01,0-10.52,0c-5.93,0.27-12.41,0.13-18.48,0.27
				c-8.09,0.13-26.71,0.27-27.65,0.4c-3.91,0-7.69,0-11.6,0c-6.61,0-12.41,0-18.88,0c-1.08,0-7.82,0.27-9.85,0.27
				c-0.94,0-2.7-0.13-3.51,0c-1.62,0.27-4.05,3.51-1.08,3.51c0.13,0,0.27,0,0.4-0.13c0.27,0,0.67-0.13,0.94-0.13
				c0.81-0.27,2.02,0,2.83,0.13c1.62,0.13,3.24,0.27,4.86,0.4c4.32,0.27,8.63,0.54,12.81,0.81c3.1,0.27,6.2,0.54,9.31,0.67
				c22.52,1.35,44.91,3.37,68.25,3.37c5.4,0,10.25-2.29,11.87-2.83c0.67-0.27,2.29-0.4,2.83-0.94c1.21-1.08-0.13-4.86-1.35-5.53
				C488.6,198.78,479.16,199.05,478.22,199.05"/>
			
				<linearGradient id="path2504_2_" gradientUnits="userSpaceOnUse" x1="352.7308" y1="307.8603" x2="371.2966" y2="307.8603" gradientTransform="matrix(1 0 0 -1 0 514)">
				<stop  offset="0" style="stop-color:#B3B3B3"/>
				<stop  offset="0.1172" style="stop-color:#FFFFFF"/>
				<stop  offset="0.2565" style="stop-color:#F7F7F7"/>
				<stop  offset="0.4722" style="stop-color:#E1E1E1"/>
				<stop  offset="0.6363" style="stop-color:#CCCCCC"/>
				<stop  offset="1" style="stop-color:#FFFFFF"/>
			</linearGradient>
			<path id="path2504_1_" class="st25" d="M355.48,202.15c-1.08,0-2.16,0.54-2.56,1.75c-0.4,0.94-0.4,2.16,0.4,2.83
				c0.81,0.67,2.16,0.81,3.1,1.08c1.62,0.4,3.37,0.81,4.99,1.35c1.89,0.4,3.51,0.67,5.8,0.94c1.75,0.13,3.24-0.27,3.64-1.62
				c0.54-1.62,0.27-2.7-0.94-3.37c-0.54-0.27-2.97-0.94-6.61-1.62C360.06,202.82,356.55,202.28,355.48,202.15"/>
			
				<linearGradient id="path2512_2_" gradientUnits="userSpaceOnUse" x1="374.2017" y1="299.5101" x2="479.2798" y2="299.5101" gradientTransform="matrix(1 0 0 -1 0 514)">
				<stop  offset="0" style="stop-color:#B3B3B3"/>
				<stop  offset="0.1172" style="stop-color:#FFFFFF"/>
				<stop  offset="0.2565" style="stop-color:#F7F7F7"/>
				<stop  offset="0.4722" style="stop-color:#E1E1E1"/>
				<stop  offset="0.6363" style="stop-color:#CCCCCC"/>
				<stop  offset="1" style="stop-color:#FFFFFF"/>
			</linearGradient>
			<path id="path2512_1_" class="st26" d="M376.11,207.27c-0.4,0.13-0.81,0.27-1.08,0.67c-1.08,1.08-1.35,2.83,0.67,2.83
				c0.81-0.27,3.1,0.13,3.91,0.27c1.48,0.27,2.97,0.4,4.45,0.67c6.07,0.94,12.14,1.89,18.21,2.83c7.28,1.21,14.57,2.43,21.99,3.24
				c5.26,0.54,10.39,1.48,15.65,2.02c8.09,0.81,16.05,1.89,24.68,1.89c0.54,0,1.08,0,1.62,0c0.27,0,0.67,0,0.94,0s0.4,0,0.67-0.13
				c0.27,0,0.4,0,0.67-0.13c0.27,0,0.54,0,0.81,0s0.4,0,0.67-0.13c0.13,0,0.27,0,0.54-0.13c0.13,0,0.27,0,0.4,0
				c0.13,0,0.27,0,0.4-0.13c0.13,0,0.27,0,0.4-0.13c0.81-0.13,1.62-0.4,2.29-0.54c2.7-0.81,4.05-1.89,4.99-4.59
				c0.27-0.54,0.4-1.48,0-2.02s-1.08-0.54-1.75-0.54c-3.37,0-6.88,0-10.25,0c-4.59-0.13-9.31-0.4-13.89-0.54
				c-17.26-0.81-34.39-2.16-51.39-3.24c-5.8-0.4-11.6-0.94-17.4-1.35C382.05,207.81,378.67,207.27,376.11,207.27"/>
			
				<linearGradient id="path2520_2_" gradientUnits="userSpaceOnUse" x1="347.7902" y1="298.7727" x2="366.0798" y2="298.7727" gradientTransform="matrix(1 0 0 -1 0 514)">
				<stop  offset="0" style="stop-color:#B3B3B3"/>
				<stop  offset="0.1172" style="stop-color:#FFFFFF"/>
				<stop  offset="0.2565" style="stop-color:#F7F7F7"/>
				<stop  offset="0.4722" style="stop-color:#E1E1E1"/>
				<stop  offset="0.6363" style="stop-color:#CCCCCC"/>
				<stop  offset="1" style="stop-color:#FFFFFF"/>
			</linearGradient>
			<path id="path2520_1_" class="st27" d="M351.16,210.78c-1.35,0.4-4.32,2.02-3.1,3.51c0.54,0.54,2.16,1.08,2.83,1.35
				c0.81,0.4,0.81,0.54,1.62,0.81c0.94,0.4,1.89,0.94,2.97,1.35c1.75,0.81,2.83,1.89,5.13,1.89c2.7,0,3.91,0.4,5.26-2.16
				c0.4-0.67,0.13-1.35-0.27-1.89c-0.67-0.81-4.18-2.16-5.8-2.56C356.82,211.99,351.97,210.51,351.16,210.78"/>
			
				<linearGradient id="path2528_2_" gradientUnits="userSpaceOnUse" x1="369.6247" y1="290.2709" x2="464.8405" y2="290.2709" gradientTransform="matrix(1 0 0 -1 0 514)">
				<stop  offset="0" style="stop-color:#B3B3B3"/>
				<stop  offset="0.1172" style="stop-color:#FFFFFF"/>
				<stop  offset="0.2565" style="stop-color:#F7F7F7"/>
				<stop  offset="0.4722" style="stop-color:#E1E1E1"/>
				<stop  offset="0.6363" style="stop-color:#CCCCCC"/>
				<stop  offset="1" style="stop-color:#FFFFFF"/>
			</linearGradient>
			<path id="path2528_1_" class="st28" d="M371.26,213.48c-0.81,0.27-1.75,0.67-1.62,1.89c0.13,0.81,0.54,2.02,1.21,2.56
				c1.08,0.81,3.78,1.21,5.13,1.62c4.05,1.08,8.09,2.02,12.27,3.1c6.07,1.48,12.14,2.83,18.21,4.18c7.42,1.75,15.11,3.24,22.66,4.45
				c4.18,0.67,8.36,1.35,12.68,2.02c2.29,0.27,4.45,0.67,6.74,0.67c0.27,0,0.4,0,0.67-0.13c0.4,0,0.81,0,1.21,0
				c0.27,0,0.54,0,0.81-0.13c0.27,0,0.4,0,0.67-0.13c0.27,0,0.67,0,0.94,0c0.27,0,0.67,0,0.94,0s0.67,0,0.94-0.13
				c0.27,0,0.4,0,0.67-0.13c0.27,0,0.4,0,0.67,0s0.4,0,0.67-0.13c0.27,0,0.4,0,0.67-0.13c0.13,0,0.4,0,0.54,0s0.27,0,0.4-0.13
				c0.13,0,0.27,0,0.4-0.13c0.13,0,0.27,0,0.4-0.13c0.13,0,0.27,0,0.4-0.13c0.81-0.4,1.75-0.4,2.56-0.94
				c1.08-0.67,3.64-4.18,2.29-5.26c-1.08-0.94-6.88-0.67-8.77-0.81c-5.53-0.4-10.93-1.08-16.46-1.62c-7.82-0.67-15.51-2.16-23.2-3.1
				c-9.17-1.21-18.07-2.7-27.11-4.18c-4.18-0.67-8.36-1.35-12.54-2.16C374.63,214.42,373.28,213.48,371.26,213.48"/>
			
				<linearGradient id="path2540_2_" gradientUnits="userSpaceOnUse" x1="340.2566" y1="290.8104" x2="358.4908" y2="290.8104" gradientTransform="matrix(1 0 0 -1 0 514)">
				<stop  offset="0" style="stop-color:#B3B3B3"/>
				<stop  offset="0.1172" style="stop-color:#FFFFFF"/>
				<stop  offset="0.2565" style="stop-color:#F7F7F7"/>
				<stop  offset="0.4722" style="stop-color:#E1E1E1"/>
				<stop  offset="0.6363" style="stop-color:#CCCCCC"/>
				<stop  offset="1" style="stop-color:#FFFFFF"/>
			</linearGradient>
			<path id="path2540_1_" class="st29" d="M344.95,217.79c-1.62,0.13-4.45,1.08-4.72,3.1c-0.13,0.54,0,1.08,0.4,1.35
				c0.67,0.54,6.34,3.37,8.09,4.45c1.35,0.81,2.43,1.89,4.18,1.89c2.43-0.13,3.24-0.67,3.91-1.08c1.08-0.67,2.29-2.16,1.35-3.37
				c-0.81-1.08-2.43-1.62-3.64-2.16c-1.21-0.54-2.56-1.21-3.78-1.75C349.81,219.82,346.44,217.79,344.95,217.79"/>
			
				<linearGradient id="path2544_2_" gradientUnits="userSpaceOnUse" x1="362.1208" y1="280.2224" x2="446.6072" y2="280.2224" gradientTransform="matrix(1 0 0 -1 0 514)">
				<stop  offset="0" style="stop-color:#B3B3B3"/>
				<stop  offset="0.1172" style="stop-color:#FFFFFF"/>
				<stop  offset="0.2565" style="stop-color:#F7F7F7"/>
				<stop  offset="0.4722" style="stop-color:#E1E1E1"/>
				<stop  offset="0.6363" style="stop-color:#CCCCCC"/>
				<stop  offset="1" style="stop-color:#FFFFFF"/>
			</linearGradient>
			<path id="path2544_1_" class="st30" d="M368.15,221.84c-0.81,0.4-1.62,0.67-2.56,1.08c-1.08,0.4-4.05,1.08-3.37,2.83
				c0.54,1.35,14.16,5.4,18.21,6.88c10.79,3.64,20.1,6.88,31.43,9.31c8.23,1.75,17.13,3.78,26.3,3.78c0.4,0,0.81,0,1.08,0
				c0.27,0,0.54,0,0.81,0c0.13,0,0.27,0,0.4-0.13c0.67-0.27,1.21-0.4,1.89-0.81c0.94-0.67,1.48-1.62,2.16-2.43
				c0.67-0.67,1.62-1.21,2.02-2.16c0.13-0.4,0.13-0.94-0.13-1.21c-0.27-0.4-0.81-0.54-1.21-0.67c-2.16-0.27-4.18-0.54-6.34-0.81
				c-4.05-0.67-8.23-1.35-12.27-2.02c-5.53-0.94-11.06-2.16-16.46-3.24c-8.63-1.89-17.13-3.78-25.49-5.93
				c-3.91-1.08-7.82-2.02-11.73-3.1c-0.81-0.27-1.62-0.54-2.43-0.81C369.64,222.25,369.1,221.84,368.15,221.84"/>
			
				<linearGradient id="path2556_2_" gradientUnits="userSpaceOnUse" x1="332.3297" y1="283.9316" x2="348.5942" y2="283.9316" gradientTransform="matrix(1 0 0 -1 0 514)">
				<stop  offset="0" style="stop-color:#B3B3B3"/>
				<stop  offset="0.1172" style="stop-color:#FFFFFF"/>
				<stop  offset="0.2565" style="stop-color:#F7F7F7"/>
				<stop  offset="0.4722" style="stop-color:#E1E1E1"/>
				<stop  offset="0.6363" style="stop-color:#CCCCCC"/>
				<stop  offset="1" style="stop-color:#FFFFFF"/>
			</linearGradient>
			<path id="path2556_1_" class="st31" d="M337,224.54c-1.35,0.4-3.37-0.27-4.18,1.08c-0.4,0.67-0.54,1.75-0.13,2.43
				c0.54,0.81,7.69,6.61,8.63,7.01c1.08,0.54,2.56,0.54,4.05,0.54c1.21,0,3.64-1.08,3.37-2.83c-0.13-0.54-0.4-0.94-0.81-1.21
				c-1.08-0.94-2.43-1.62-3.64-2.43c-1.08-0.67-2.16-1.48-3.24-2.16c-0.94-0.67-1.75-1.21-2.7-1.89
				C337.94,224.67,337.4,224.54,337,224.54"/>
			
				<linearGradient id="path2560_2_" gradientUnits="userSpaceOnUse" x1="323.8338" y1="277.9827" x2="338.0138" y2="277.9827" gradientTransform="matrix(1 0 0 -1 0 514)">
				<stop  offset="0" style="stop-color:#B3B3B3"/>
				<stop  offset="0.1172" style="stop-color:#FFFFFF"/>
				<stop  offset="0.2565" style="stop-color:#F7F7F7"/>
				<stop  offset="0.4722" style="stop-color:#E1E1E1"/>
				<stop  offset="0.6363" style="stop-color:#CCCCCC"/>
				<stop  offset="1" style="stop-color:#FFFFFF"/>
			</linearGradient>
			<path id="path2560_1_" class="st32" d="M326.21,230.2c-1.21,0.27-2.56,0.81-2.29,2.43c0,0.27,1.89,1.75,2.56,2.43
				c1.62,1.62,2.83,4.45,4.86,5.53c1.48,0.81,3.51,1.75,5.13,0.94c2.02-0.94,1.48-2.97,1.21-3.37c-1.48-1.89-3.51-3.37-5.26-4.99
				c-0.81-0.81-1.62-2.02-2.7-2.43C328.9,230.07,327.42,230.2,326.21,230.2"/>
			
				<linearGradient id="path2568_2_" gradientUnits="userSpaceOnUse" x1="356.1498" y1="271.3149" x2="423.8602" y2="271.3149" gradientTransform="matrix(1 0 0 -1 0 514)">
				<stop  offset="0" style="stop-color:#B3B3B3"/>
				<stop  offset="0.1172" style="stop-color:#FFFFFF"/>
				<stop  offset="0.2565" style="stop-color:#F7F7F7"/>
				<stop  offset="0.4722" style="stop-color:#E1E1E1"/>
				<stop  offset="0.6363" style="stop-color:#CCCCCC"/>
				<stop  offset="1" style="stop-color:#FFFFFF"/>
			</linearGradient>
			<path id="path2568_1_" class="st33" d="M360.47,230.61c-0.94,0.4-4.32,1.62-4.32,2.56c0.13,1.35,2.16,2.02,3.37,2.43
				c0.94,0.27,1.75,0.81,2.56,1.21c1.75,0.94,3.51,1.89,5.26,2.7c2.83,1.35,5.53,2.83,8.36,4.18c4.05,2.16,8.09,4.05,12.27,5.8
				c4.32,1.75,8.77,3.91,13.49,4.72c4.05,0.67,8.77,0.54,13.22,0.54c0.4,0,0.67,0,1.08-0.13c0.54,0,1.21,0,1.75-0.13
				c0.27,0,0.67,0,0.94,0c0.13,0,0.4,0,0.54-0.13c0.13,0,0.4,0,0.54-0.13c0.13,0,0.27,0,0.4-0.13c0.4-0.13,0.81-0.4,1.35-0.54
				c0.94-0.67,3.37-3.1,2.29-4.32c-0.94-1.08-4.86-1.35-6.34-1.75c-3.37-0.67-6.61-1.48-9.85-2.29
				c-11.73-2.97-23.06-6.74-34.26-10.52c-2.83-1.08-5.8-2.16-8.63-3.1C363.16,231.28,361.95,230.61,360.47,230.61"/>
			
				<linearGradient id="path2576_2_" gradientUnits="userSpaceOnUse" x1="348.8432" y1="263.9695" x2="400.1476" y2="263.9695" gradientTransform="matrix(1 0 0 -1 0 514)">
				<stop  offset="0" style="stop-color:#B3B3B3"/>
				<stop  offset="0.1172" style="stop-color:#FFFFFF"/>
				<stop  offset="0.2565" style="stop-color:#F7F7F7"/>
				<stop  offset="0.4722" style="stop-color:#E1E1E1"/>
				<stop  offset="0.6363" style="stop-color:#CCCCCC"/>
				<stop  offset="1" style="stop-color:#FFFFFF"/>
			</linearGradient>
			<path id="path2576_1_" class="st34" d="M351.56,236.27c-0.81,0.54-2.97,2.16-2.7,3.24c0.27,1.21,4.18,2.97,4.86,3.51
				c6.07,4.45,12,8.9,18.21,12.95c3.51,2.16,7.01,4.45,10.79,5.93c3.78,1.35,8.23,1.89,12.68,1.89c0.27,0,0.54,0,0.81,0
				c0.4-0.13,0.67-0.27,1.08-0.4c1.08-0.67,3.51-2.7,2.7-4.05c-0.13-0.27-0.54-0.54-0.81-0.67c-0.94-0.27-1.75-0.67-2.7-0.94
				c-1.62-0.54-3.1-1.08-4.72-1.75c-4.86-1.89-9.58-4.05-14.3-6.34c-6.47-3.1-12.81-6.34-19.15-9.71c-2.02-1.08-3.91-2.16-5.8-3.37
				c-0.13,0-0.27-0.13-0.54-0.13C351.83,236.27,351.7,236.27,351.56,236.27"/>
			
				<linearGradient id="path2580_2_" gradientUnits="userSpaceOnUse" x1="339.3236" y1="259.8557" x2="377.859" y2="259.8557" gradientTransform="matrix(1 0 0 -1 0 514)">
				<stop  offset="0" style="stop-color:#B3B3B3"/>
				<stop  offset="0.1172" style="stop-color:#FFFFFF"/>
				<stop  offset="0.2565" style="stop-color:#F7F7F7"/>
				<stop  offset="0.4722" style="stop-color:#E1E1E1"/>
				<stop  offset="0.6363" style="stop-color:#CCCCCC"/>
				<stop  offset="1" style="stop-color:#FFFFFF"/>
			</linearGradient>
			<path id="path2580_1_" class="st35" d="M342.12,240.32c-0.4,0.13-0.67,0.4-0.94,0.67c-0.4,0.67-0.67,1.48-0.94,2.16
				s-0.54,1.21-0.81,1.89c-0.13,0.4-0.13,0.81,0,1.08c0.4,0.67,1.35,0.81,2.02,1.08c0.54,0.27,1.08,0.67,1.62,1.08
				c4.32,4.05,8.5,8.36,12.95,12.27c1.62,1.48,3.1,3.24,4.99,4.18c1.48,0.81,3.37,1.21,4.99,1.62c2.56,0.67,5.13,1.62,8.09,1.62
				c1.08-0.54,4.32-1.48,3.78-3.24c0,0,0-0.13-0.13-0.13c0-0.13-0.13-0.27-0.27-0.27c-1.08-1.21-2.7-1.75-4.05-2.56
				c-2.43-1.48-4.86-3.1-7.15-4.59c-5.8-3.78-11.33-8.09-16.99-12.27c-2.02-1.48-3.51-3.91-6.07-4.59c-0.13,0-0.27,0-0.4,0
				c-0.13,0-0.27,0-0.4,0C342.39,240.32,342.26,240.32,342.12,240.32"/>
			
				<linearGradient id="path2592_2_" gradientUnits="userSpaceOnUse" x1="329.1295" y1="255.8094" x2="357.2965" y2="255.8094" gradientTransform="matrix(1 0 0 -1 0 514)">
				<stop  offset="0" style="stop-color:#B3B3B3"/>
				<stop  offset="0.1172" style="stop-color:#FFFFFF"/>
				<stop  offset="0.2565" style="stop-color:#F7F7F7"/>
				<stop  offset="0.4722" style="stop-color:#E1E1E1"/>
				<stop  offset="0.6363" style="stop-color:#CCCCCC"/>
				<stop  offset="1" style="stop-color:#FFFFFF"/>
			</linearGradient>
			<path id="path2592_1_" class="st36" d="M331.33,245.44c-1.35,0.4-2.7,2.02-2.02,3.64c0.27,0.81,1.21,1.08,1.89,1.62
				c0.67,0.54,1.08,1.08,1.48,1.75c2.83,3.78,5.53,7.69,8.5,11.33c1.08,1.35,2.29,3.24,3.91,4.32c2.02,1.35,6.07,2.83,8.77,2.83
				c0.94-0.54,3.37-0.54,3.51-2.02v-0.13c-0.13-1.35-2.83-3.24-3.78-4.18c-4.18-3.91-8.23-7.82-12.41-11.73
				c-0.81-0.81-1.75-1.75-2.56-2.56c-0.81-0.94-1.48-1.89-2.43-2.7C334.84,246.25,333.09,245.44,331.33,245.44"/>
			
				<linearGradient id="path2600_2_" gradientUnits="userSpaceOnUse" x1="295.4722" y1="216.8969" x2="341.3642" y2="216.8969" gradientTransform="matrix(1 0 0 -1 0 514)">
				<stop  offset="0" style="stop-color:#B3B3B3"/>
				<stop  offset="0.1172" style="stop-color:#FFFFFF"/>
				<stop  offset="0.2565" style="stop-color:#F7F7F7"/>
				<stop  offset="0.4722" style="stop-color:#E1E1E1"/>
				<stop  offset="0.6363" style="stop-color:#CCCCCC"/>
				<stop  offset="1" style="stop-color:#FFFFFF"/>
			</linearGradient>
			<path id="path2600_1_" class="st37" d="M340.5,275.93c-0.67,0.4-4.72,7.82-8.23,12.81c-3.91,5.53-8.77,10.93-14.3,15.24
				c-4.59,3.64-9.04,6.2-14.03,8.9c-3.1,1.48-7.15,3.24-7.96,3.91c-0.94,0.81-0.54,1.48,0.67,1.48c1.08-0.4,5.66-2.29,10.39-4.86
				c9.85-5.4,19.83-14.3,26.71-23.47c2.97-4.05,7.01-11.46,7.42-12.54C341.58,276.47,341.31,276.06,340.5,275.93"/>
			
				<linearGradient id="path2628_2_" gradientUnits="userSpaceOnUse" x1="356.2031" y1="316.2777" x2="374.179" y2="316.2777" gradientTransform="matrix(1 0 0 -1 0 514)">
				<stop  offset="0" style="stop-color:#B3B3B3"/>
				<stop  offset="0.1172" style="stop-color:#FFFFFF"/>
				<stop  offset="0.2565" style="stop-color:#F7F7F7"/>
				<stop  offset="0.4722" style="stop-color:#E1E1E1"/>
				<stop  offset="0.6363" style="stop-color:#CCCCCC"/>
				<stop  offset="1" style="stop-color:#FFFFFF"/>
			</linearGradient>
			<path id="path2628_1_" class="st38" d="M356.15,197.29c-0.13,2.43,6.74,1.89,8.36,2.02c2.43,0.27,7.28,2.02,8.23,1.21
				c1.08-0.94,2.29-5.66,0.27-5.8c-2.97-0.13-4.05,0.27-7.28,0.4C362.49,195.4,356.42,195,356.15,197.29"/>
			
				<linearGradient id="path2640_2_" gradientUnits="userSpaceOnUse" x1="313.1304" y1="301.1639" x2="352.7352" y2="301.1639" gradientTransform="matrix(1 0 0 -1 0 514)">
				<stop  offset="0" style="stop-color:#B3B3B3"/>
				<stop  offset="0.1172" style="stop-color:#FFFFFF"/>
				<stop  offset="0.2565" style="stop-color:#F7F7F7"/>
				<stop  offset="0.4722" style="stop-color:#E1E1E1"/>
				<stop  offset="0.6363" style="stop-color:#CCCCCC"/>
				<stop  offset="1" style="stop-color:#FFFFFF"/>
			</linearGradient>
			<path id="path2640_1_" class="st39" d="M351.02,196.48c0.67,0.13,1.62,0.13,1.75,1.08c0.13,1.08-0.67,2.02-2.83,2.29
				c-1.48-0.13-4.59-2.83-5.8-0.4c-1.08,2.02,5.4,2.83,5.13,4.72c-0.27,1.62-0.81,1.89-2.29,1.89c-0.67,0-2.29-0.94-2.83-1.08
				c-1.48-0.67-4.99-3.37-6.2-1.21c-1.35,2.16,7.55,5.13,7.28,6.74c-0.27,1.62-1.89,2.83-3.1,2.43c-1.75-0.4-7.15-6.74-9.58-4.18
				c-2.29,2.29,6.88,6.34,6.34,7.69c-0.81,2.29-2.83,3.1-5.66,0.67c-1.48-1.21-3.91-3.51-5.26-1.75c-1.62,2.29,3.1,4.99,3.51,5.8
				c1.08,1.89-1.35,4.05-2.97,3.64c-1.48-0.13-3.64-5.66-5.8-3.78c-1.62,1.48,2.29,4.86,1.89,6.34c-0.13,1.21-3.51,2.97-4.99,1.75
				c-2.16-1.35,2.83-8.63-2.02-15.38c-2.29-2.83-4.32-7.28-4.45-8.09c-0.13-1.35-0.13-3.78,0.81-4.86
				c3.37-4.59,18.88-4.18,25.49-4.59C344.01,195.94,346.44,196.48,351.02,196.48"/>
			
				<linearGradient id="path2648_2_" gradientUnits="userSpaceOnUse" x1="316.9337" y1="273.6899" x2="327.4448" y2="273.6899" gradientTransform="matrix(1 0 0 -1 0 514)">
				<stop  offset="0" style="stop-color:#B3B3B3"/>
				<stop  offset="0.1172" style="stop-color:#FFFFFF"/>
				<stop  offset="0.2565" style="stop-color:#F7F7F7"/>
				<stop  offset="0.4722" style="stop-color:#E1E1E1"/>
				<stop  offset="0.6363" style="stop-color:#CCCCCC"/>
				<stop  offset="1" style="stop-color:#FFFFFF"/>
			</linearGradient>
			<path id="path2648_1_" class="st40" d="M317.03,233.71c0.81-1.62,4.59,0.13,4.99,0.54c1.08,0.94,1.35,2.43,2.16,3.51
				c0.94,1.35,3.37,4.18,3.24,5.66c-0.13,1.21-4.86,4.86-5.93,4.05c0,0,0-0.13-0.13-0.13c-0.67-4.59-2.29-8.9-4.45-13.08
				C316.9,233.98,317.03,233.85,317.03,233.71"/>
			
				<linearGradient id="path2652_2_" gradientUnits="userSpaceOnUse" x1="321.7506" y1="253.2467" x2="340.832" y2="253.2467" gradientTransform="matrix(1 0 0 -1 0 514)">
				<stop  offset="0" style="stop-color:#B3B3B3"/>
				<stop  offset="0.1172" style="stop-color:#FFFFFF"/>
				<stop  offset="0.2565" style="stop-color:#F7F7F7"/>
				<stop  offset="0.4722" style="stop-color:#E1E1E1"/>
				<stop  offset="0.6363" style="stop-color:#CCCCCC"/>
				<stop  offset="1" style="stop-color:#FFFFFF"/>
			</linearGradient>
			<path id="path2652_1_" class="st41" d="M322.16,249.63c1.35,0,3.51,0.54,4.45,1.35c0.81,0.67,1.08,1.62,1.62,2.43l2.83,3.91
				l6.47,8.5l2.97,3.78c0.54,0.94,0.4,1.62-0.4,2.29h-0.54c-2.97,0-7.69-1.08-9.71-2.83c-1.08-0.94-1.62-1.89-2.16-2.97l-3.1-5.8
				c-0.54-0.81-2.29-3.51-2.7-4.45c0-0.13-0.13-0.27-0.13-0.4c0-0.81,0-1.48,0-2.29c0-0.94,0-2.02-0.13-2.97
				C321.89,249.9,322.03,249.63,322.16,249.63"/>
			
				<linearGradient id="path2664_2_" gradientUnits="userSpaceOnUse" x1="284.2678" y1="220.9554" x2="335.0497" y2="220.9554" gradientTransform="matrix(1 0 0 -1 0 514)">
				<stop  offset="0" style="stop-color:#B3B3B3"/>
				<stop  offset="0.1172" style="stop-color:#FFFFFF"/>
				<stop  offset="0.2565" style="stop-color:#F7F7F7"/>
				<stop  offset="0.4722" style="stop-color:#E1E1E1"/>
				<stop  offset="0.6363" style="stop-color:#CCCCCC"/>
				<stop  offset="1" style="stop-color:#FFFFFF"/>
			</linearGradient>
			<path id="path2664_1_" class="st42" d="M328.5,273.77c0.81-0.27,6.47,1.75,6.61,3.1c0,1.08-3.51,5.93-7.42,11.19
				c-6.88,9.17-15.38,15.38-24.95,20.5c-2.02,1.08-4.18,2.16-6.34,3.1l-1.89,0.67c-0.54,0-1.08-0.13-1.48-0.54
				c-0.67-0.81-8.23-11.73-8.5-12.14c-0.27-0.4-0.27-1.08,0-1.48c13.49-5.13,24.55-13.35,31.02-23.74c1.08-0.27,2.97,1.35,3.78,1.75
				c1.48,0.67,3.24,1.35,4.99,0.94C326.21,276.74,327.02,274.44,328.5,273.77"/>
			
				<linearGradient id="path2704_2_" gradientUnits="userSpaceOnUse" x1="293.4015" y1="306.9707" x2="501.4482" y2="306.9707" gradientTransform="matrix(1 0 0 -1 0 514)">
				<stop  offset="0" style="stop-color:#B3B3B3"/>
				<stop  offset="0.1172" style="stop-color:#FFFFFF"/>
				<stop  offset="0.2565" style="stop-color:#F7F7F7"/>
				<stop  offset="0.4722" style="stop-color:#E1E1E1"/>
				<stop  offset="0.6363" style="stop-color:#CCCCCC"/>
				<stop  offset="1" style="stop-color:#FFFFFF"/>
			</linearGradient>
			<path id="path2704_1_" class="st43" d="M493.86,183.54c1.08,0,2.02,0,2.97,0.4c1.21,0.54,4.72,4.05,4.59,5.4
				c0,0.67-4.32,2.02-6.34,2.83c-1.48,0.67-4.72,1.89-5.26,2.16c-0.4,0.13-2.97,0.13-3.37,0.13c-0.54,0-4.72,0-6.34,0
				c-0.67,0-13.08,0.4-17.26,0.4c-4.72,0-9.31,0.13-13.89,0.13c-1.08,0-6.34,0.13-6.74,0.13h-19.96h-4.32h-1.75h-1.08h-12.81
				c-0.94,0-7.55,0.13-10.39,0.4c-4.05,0.27-9.98,0.81-10.12,0.81c-0.81,0-2.29,0.27-2.56-0.54c-0.27-0.94,1.75-1.35,2.29-1.48
				c7.15-1.35,14.3-3.1,22.52-4.05c13.49-1.62,19.96-1.89,22.25-2.56c1.21-0.4,1.08-2.02,0-2.16c-14.43-1.75-46.8,4.59-51.52,5.53
				c-8.63,1.89-14.97,2.29-17.13,2.29h-20.1c-11.19,0-16.05,1.21-16.86,1.35c-2.16,0.54-4.18,1.21-6.07,2.16
				c-4.05,2.02-6.61,4.59-4.99,9.44c0.67,1.08,1.21,2.43,1.75,3.51c1.35,2.7,3.24,6.07,4.59,8.77c1.08,1.89,1.75,4.32,1.75,6.61
				l-0.54,2.97c0,0.54-1.35,2.7-1.89,2.29c0,0-0.13-0.13-0.27-0.4c-0.81-1.08-1.62-2.29-2.56-3.37c-0.27-0.4-0.54-0.67-0.67-0.81
				c-1.08-1.35,2.02-3.24,1.75-4.86c-0.54-3.37-5.66-9.85-9.44-12.95c-2.16-1.75-4.32-4.18-6.2-6.47c-0.81-1.08-1.75-2.02-2.56-3.1
				c-0.67-0.94-1.08-1.62-1.35-2.7c-0.54-2.29,0.81-3.78,2.43-4.99c0.94-0.67,2.7-1.75,4.05-2.43c3.78-1.62,12.81-3.1,18.07-3.78
				c1.75-0.13,6.07-0.67,9.31-0.81c3.64,0,7.01,0.13,10.39,0.4c6.61,0.54,12.95,1.75,19.83,1.75c9.98,0.13,19.42-0.4,29.13-0.94
				c4.32-0.27,8.77-0.54,13.35-0.81c7.01-0.54,28.46-0.27,31.7-0.13c1.62,0.13,15.78,0.67,22.93,1.21c1.62,0.13,2.83,0.27,3.91,0.4
				c3.1,0,6.34,0.13,9.44-0.13c5.8-0.4,11.6-0.94,17.26-1.48L493.86,183.54L493.86,183.54z"/>
			
				<linearGradient id="path2712_2_" gradientUnits="userSpaceOnUse" x1="317.0349" y1="246.5019" x2="325.3608" y2="246.5019" gradientTransform="matrix(1 0 0 -1 0 514)">
				<stop  offset="0" style="stop-color:#B3B3B3"/>
				<stop  offset="0.1172" style="stop-color:#FFFFFF"/>
				<stop  offset="0.2565" style="stop-color:#F7F7F7"/>
				<stop  offset="0.4722" style="stop-color:#E1E1E1"/>
				<stop  offset="0.6363" style="stop-color:#CCCCCC"/>
				<stop  offset="1" style="stop-color:#FFFFFF"/>
			</linearGradient>
			<path id="path2712_1_" class="st44" d="M322.03,260.42c1.48-0.13,4.72,12.81,2.7,13.89c-2.02,1.08-6.88-1.35-7.55-2.02
				c-0.13-0.13-0.13-0.27-0.13-0.4c1.89-3.51,3.24-7.15,4.05-10.93C321.35,260.69,321.62,260.55,322.03,260.42"/>
		</g>
		<g id="XMLID_15_">
			<g id="XMLID_16_">
				
					<radialGradient id="path2668_2_" cx="265.4478" cy="198.2802" r="9.6013" gradientTransform="matrix(1 0 0 -1 0 514)" gradientUnits="userSpaceOnUse">
					<stop  offset="0" style="stop-color:#B3B3B3"/>
					<stop  offset="0.1172" style="stop-color:#FFFFFF"/>
					<stop  offset="0.2565" style="stop-color:#F7F7F7"/>
					<stop  offset="0.4722" style="stop-color:#E1E1E1"/>
					<stop  offset="0.6363" style="stop-color:#CCCCCC"/>
					<stop  offset="1" style="stop-color:#FFFFFF"/>
				</radialGradient>
				<path id="path2668_1_" class="st45" d="M264.7,302.9c0.81,0.4,1.08,1.21,1.48,1.89c0.54,1.21,2.43,11.6,3.37,15.65
					c0.27,1.35,0.67,3.51,0.4,4.86c-0.13,1.21-1.62,2.97-3.24,3.24c-1.21,0.13-3.78-1.75-4.18-2.7c-0.54-1.21-0.4-2.83-0.54-4.18
					c-0.27-4.45-0.94-14.97-0.94-16.05c0-0.67,0.27-1.75,0.94-2.29C262.81,303.04,263.76,303.04,264.7,302.9"/>
				
					<radialGradient id="path2672_2_" cx="275.5031" cy="200.0033" r="9.9183" gradientTransform="matrix(1 0 0 -1 0 514)" gradientUnits="userSpaceOnUse">
					<stop  offset="0" style="stop-color:#B3B3B3"/>
					<stop  offset="0.1172" style="stop-color:#FFFFFF"/>
					<stop  offset="0.2565" style="stop-color:#F7F7F7"/>
					<stop  offset="0.4722" style="stop-color:#E1E1E1"/>
					<stop  offset="0.6363" style="stop-color:#CCCCCC"/>
					<stop  offset="1" style="stop-color:#FFFFFF"/>
				</radialGradient>
				<path id="path2672_1_" class="st46" d="M273.33,301.42c0.4,0.4,0.67,0.81,0.94,1.08c0.81,1.08,4.45,11.33,6.2,15.24
					c0.54,1.35,1.35,3.37,1.35,4.86c0,1.35-1.08,3.37-2.56,3.78c-1.21,0.4-4.18-1.08-4.72-1.89c-0.81-1.21-0.94-2.7-1.35-4.18
					c-1.08-4.32-3.64-14.97-3.91-16.05c-0.13-0.54-0.13-1.35,0.27-2.02C270.77,301.96,272.12,301.82,273.33,301.42"/>
				
					<radialGradient id="path2676_2_" cx="285.0359" cy="202.4894" r="10.1024" gradientTransform="matrix(1 0 0 -1 0 514)" gradientUnits="userSpaceOnUse">
					<stop  offset="0" style="stop-color:#B3B3B3"/>
					<stop  offset="0.1172" style="stop-color:#FFFFFF"/>
					<stop  offset="0.2565" style="stop-color:#F7F7F7"/>
					<stop  offset="0.4722" style="stop-color:#E1E1E1"/>
					<stop  offset="0.6363" style="stop-color:#CCCCCC"/>
					<stop  offset="1" style="stop-color:#FFFFFF"/>
				</radialGradient>
				<path id="path2676_1_" class="st47" d="M281.29,299.4c0.54,0.27,0.94,0.81,1.21,1.08c0.94,0.94,5.8,10.66,7.96,14.43
					c0.67,1.21,1.75,3.24,1.89,4.59c0.13,1.21-0.67,3.37-2.16,4.05c-1.21,0.54-4.18-0.54-4.99-1.35c-0.94-1.08-1.35-2.56-1.89-3.91
					c-1.62-4.18-5.53-14.43-5.8-15.51c-0.13-0.54-0.27-1.48,0.13-2.29C279,300.07,280.21,299.67,281.29,299.4"/>
				
					<radialGradient id="path2680_2_" cx="254.728" cy="197.744" r="9.4718" gradientTransform="matrix(1 0 0 -1 0 514)" gradientUnits="userSpaceOnUse">
					<stop  offset="0" style="stop-color:#B3B3B3"/>
					<stop  offset="0.1172" style="stop-color:#FFFFFF"/>
					<stop  offset="0.2565" style="stop-color:#F7F7F7"/>
					<stop  offset="0.4722" style="stop-color:#E1E1E1"/>
					<stop  offset="0.6363" style="stop-color:#CCCCCC"/>
					<stop  offset="1" style="stop-color:#FFFFFF"/>
				</radialGradient>
				<path id="path2680_1_" class="st48" d="M255.93,303.44c0.67,0.54,0.94,1.35,1.21,2.02c0.4,1.21,0.94,11.73,1.35,15.92
					c0.13,1.35,0.27,3.51-0.13,4.86c-0.4,1.21-2.02,2.83-3.51,2.83c-1.21,0-3.51-2.16-3.91-3.1c-0.4-1.35-0.13-2.83-0.13-4.32
					c0.27-4.45,0.81-14.97,0.94-16.05c0.13-0.67,0.4-1.62,1.08-2.16c0.54,0,1.08,0,1.62,0
					C255.13,303.44,255.53,303.44,255.93,303.44"/>
				
					<radialGradient id="path2684_2_" cx="244.0716" cy="198.3714" r="9.5729" gradientTransform="matrix(1 0 0 -1 0 514)" gradientUnits="userSpaceOnUse">
					<stop  offset="0" style="stop-color:#B3B3B3"/>
					<stop  offset="0.1172" style="stop-color:#FFFFFF"/>
					<stop  offset="0.2565" style="stop-color:#F7F7F7"/>
					<stop  offset="0.4722" style="stop-color:#E1E1E1"/>
					<stop  offset="0.6363" style="stop-color:#CCCCCC"/>
					<stop  offset="1" style="stop-color:#FFFFFF"/>
				</radialGradient>
				<path id="path2684_1_" class="st49" d="M247.98,303.17c0.54,0.67,0.67,1.48,0.81,2.16c0.27,1.21-0.94,11.73-1.21,15.92
					c-0.13,1.35-0.27,3.51-0.94,4.86c-0.54,1.08-2.43,2.43-3.91,2.16c-1.21-0.13-3.1-2.7-3.37-3.64c-0.13-1.35,0.27-2.83,0.54-4.18
					c0.94-4.32,3.24-14.7,3.51-15.78c0.13-0.54,0.54-1.21,1.08-1.75C245.82,303.04,246.9,303.17,247.98,303.17"/>
				
					<radialGradient id="path2688_2_" cx="234.2194" cy="199.8932" r="9.8294" gradientTransform="matrix(1 0 0 -1 0 514)" gradientUnits="userSpaceOnUse">
					<stop  offset="0" style="stop-color:#B3B3B3"/>
					<stop  offset="0.1172" style="stop-color:#FFFFFF"/>
					<stop  offset="0.2565" style="stop-color:#F7F7F7"/>
					<stop  offset="0.4722" style="stop-color:#E1E1E1"/>
					<stop  offset="0.6363" style="stop-color:#CCCCCC"/>
					<stop  offset="1" style="stop-color:#FFFFFF"/>
				</radialGradient>
				<path id="path2688_1_" class="st50" d="M239.88,302.23c0.67,0.81,0.67,1.89,0.67,2.56c0,1.35-2.97,11.46-3.91,15.51
					c-0.4,1.35-0.94,3.37-1.75,4.59c-0.67,1.08-2.83,2.02-4.32,1.48c-1.21-0.4-2.7-3.1-2.56-4.18c0-1.35,0.81-2.7,1.35-4.05
					c1.62-4.05,5.66-13.89,6.2-14.84c0.27-0.54,0.81-1.21,1.48-1.48C237.86,301.96,238.81,302.09,239.88,302.23"/>
				
					<radialGradient id="path2692_2_" cx="224.5811" cy="202.6434" r="9.9125" gradientTransform="matrix(1 0 0 -1 0 514)" gradientUnits="userSpaceOnUse">
					<stop  offset="0" style="stop-color:#B3B3B3"/>
					<stop  offset="0.1172" style="stop-color:#FFFFFF"/>
					<stop  offset="0.2565" style="stop-color:#F7F7F7"/>
					<stop  offset="0.4722" style="stop-color:#E1E1E1"/>
					<stop  offset="0.6363" style="stop-color:#CCCCCC"/>
					<stop  offset="1" style="stop-color:#FFFFFF"/>
				</radialGradient>
				<path id="path2692_1_" class="st51" d="M231.93,300.48c0.54,0.81,0.27,1.89,0.13,2.56c-0.13,1.21-4.72,10.79-6.34,14.7
					c-0.54,1.21-1.48,3.24-2.43,4.18c-0.94,0.94-3.1,1.48-4.45,0.81c-1.08-0.54-2.16-3.51-1.89-4.59c0.27-1.35,1.21-2.56,2.02-3.78
					c2.29-3.78,7.82-12.81,8.5-13.76c0.27-0.4,0.67-0.81,1.35-1.08C229.77,299.94,230.85,300.21,231.93,300.48"/>
			</g>
			<g id="XMLID_17_">
				
					<radialGradient id="path2604_2_" cx="256.4892" cy="330.8422" r="28.8976" gradientTransform="matrix(1 0 0 -1 0 514)" gradientUnits="userSpaceOnUse">
					<stop  offset="0" style="stop-color:#B3B3B3"/>
					<stop  offset="0.1172" style="stop-color:#FFFFFF"/>
					<stop  offset="0.2565" style="stop-color:#F7F7F7"/>
					<stop  offset="0.4722" style="stop-color:#E1E1E1"/>
					<stop  offset="0.6363" style="stop-color:#CCCCCC"/>
					<stop  offset="1" style="stop-color:#FFFFFF"/>
				</radialGradient>
				<path id="path2604_1_" class="st52" d="M216.15,187.04c0,0-0.94-1.89,1.21-2.97c2.16-1.08,18.61-6.34,38.04-6.34
					c21.31,0,39.92,6.88,41,7.69c1.48,1.21,0.13,3.37-1.48,3.1c-1.62-0.27-18.48-7.42-39.25-7.42s-35.2,5.4-36.55,6.2
					C217.63,188.26,216.15,187.04,216.15,187.04"/>
				
					<radialGradient id="path2716_2_" cx="256.7462" cy="311.0903" r="39.4433" gradientTransform="matrix(1 0 0 -1 0 514)" gradientUnits="userSpaceOnUse">
					<stop  offset="0" style="stop-color:#B3B3B3"/>
					<stop  offset="0.1172" style="stop-color:#FFFFFF"/>
					<stop  offset="0.2565" style="stop-color:#F7F7F7"/>
					<stop  offset="0.4722" style="stop-color:#E1E1E1"/>
					<stop  offset="0.6363" style="stop-color:#CCCCCC"/>
					<stop  offset="1" style="stop-color:#FFFFFF"/>
				</radialGradient>
				<path id="path2716_1_" class="st53" d="M255.8,183.94c-16.59,0-34.39,4.59-35.07,5.66c-1.48,2.43,1.75,2.29,1.62,5.66
					c-0.13,4.05-3.24,6.74-4.45,7.96c-4.18,4.45-9.58,6.74-13.35,11.6c-0.27,0.4-0.54,2.02-0.13,2.56c0.94,1.35,3.24-0.13,3.91-0.54
					c7.82-6.07,15.24-8.5,24.01-11.19c2.16-0.67,13.35-2.97,27.79-2.43c12.81,0.54,24.55,3.78,34.8,9.85
					c4.05,2.43,7.69,5.26,11.6,8.5c1.35,1.21,2.56-0.54,2.56-1.21s-0.54-1.75-0.94-2.43c-2.97-4.86-9.44-9.31-13.89-14.43
					c-2.29-2.56-3.37-3.51-4.18-4.99c-2.7-4.59,1.48-4.86,0.94-7.01C290.6,189.74,274.28,183.94,255.8,183.94"/>
			</g>
		</g>
	</g>
</g>
</svg>
