<svg width="48" height="48" viewBox="0 0 48 48" fill="none" xmlns="http://www.w3.org/2000/svg">
<path d="M24.04 1C11.3275 1 1 11.3275 1 24.04C1 36.7525 11.3275 47.08 24.04 47.08C36.7525 47.08 47.08 36.7525 47.08 24.04C47.08 11.3275 36.7525 1 24.04 1ZM24.04 2.92C35.7175 2.92 45.16 12.3625 45.16 24.04C45.16 35.7138 35.7175 45.16 24.04 45.16C12.3663 45.16 2.92 35.7138 2.92 24.04C2.92 12.3625 12.3663 2.92 24.04 2.92ZM22.57 3.61L20.56 3.85L20.35 9.91L21.91 9.67L22.06 5.62L23.47 9.67H24.61L26.02 5.62L26.17 9.67L27.73 9.91L27.52 3.85L25.51 3.61L24.04 7.87L22.57 3.61ZM37.27 8.26L33.64 13.06L34.75 14.08L38.77 12.25L36.1 15.76L36.88 17.08L42.34 14.56L41.56 13.24L38.41 14.68L40.66 11.74L39.67 10.51L36.31 12.07L38.41 9.31L37.27 8.26ZM10.54 8.98C10.405 8.99125 10.2513 9.02125 10.12 9.07C9.8725 9.16375 9.655 9.31375 9.49 9.52C9.39625 9.63625 9.31375 9.76375 9.22 9.88C8.7325 10.4913 8.2375 11.0987 7.75 11.71C7.33 12.235 6.91 12.745 6.49 13.27C6.46375 13.3038 6.42625 13.3563 6.4 13.39C6.39625 13.3938 6.45625 13.4163 6.46 13.42C6.625 13.5513 6.80875 13.6788 6.97 13.81C7.585 14.3013 8.185 14.7888 8.8 15.28C9.4075 15.7675 10.0187 16.2625 10.63 16.75C10.7837 16.8738 10.9563 17.0163 11.11 17.14C11.1175 17.1475 11.1325 17.1775 11.14 17.17C11.17 17.1325 11.2 17.0875 11.23 17.05C11.6463 16.5288 12.0738 16.0113 12.49 15.49C12.9925 14.8638 13.4875 14.2263 13.99 13.6C14.2488 13.2775 14.5263 12.985 14.65 12.58C14.7138 12.37 14.7288 12.1337 14.71 11.92C14.6275 11.3463 14.2825 10.8737 13.75 10.63C13.2175 10.3863 12.5987 10.4763 12.13 10.81C12.0925 10.8363 12.0475 10.87 12.01 10.9C12.0887 10.6338 12.1375 10.3637 12.07 10.09C12.0063 9.82375 11.845 9.59125 11.65 9.4C11.35 9.1075 10.9487 8.95 10.54 8.98ZM10.42 10.51C10.6263 10.495 10.8475 10.5625 10.99 10.72C11.1438 10.8888 11.1888 11.1288 11.14 11.35C11.0838 11.545 10.9338 11.6763 10.81 11.83C10.5625 12.1413 10.3075 12.4487 10.06 12.76C9.80875 13.0713 9.5575 13.3788 9.31 13.69C9.055 13.4875 8.815 13.2925 8.56 13.09C8.4625 13.0113 8.3575 12.9288 8.26 12.85C8.25625 12.8463 8.3725 12.7375 8.38 12.73C8.8525 12.1413 9.3175 11.5487 9.79 10.96C9.91375 10.8063 10.0187 10.6187 10.21 10.54C10.2737 10.5137 10.3525 10.5137 10.42 10.51ZM24.04 10.6C16.63 10.6 10.6 16.63 10.6 24.04C10.6 31.45 16.63 37.48 24.04 37.48C31.45 37.48 37.48 31.45 37.48 24.04C37.48 16.63 31.45 10.6 24.04 10.6ZM12.52 11.86C12.7975 11.8525 13.0338 12.0025 13.15 12.25C13.2513 12.49 13.2213 12.7675 13.06 12.97C12.8988 13.1725 12.7375 13.3713 12.58 13.57C12.1413 14.1213 11.6988 14.6687 11.26 15.22C11.2375 15.2013 11.1925 15.2088 11.17 15.19C11.05 15.0925 10.93 14.9875 10.81 14.89C10.6038 14.725 10.4163 14.545 10.21 14.38C10.6075 13.8813 10.9825 13.4088 11.38 12.91C11.575 12.6663 11.785 12.4038 11.98 12.16C12.1188 11.9875 12.2875 11.8675 12.52 11.86ZM24.04 12.52C30.415 12.52 35.56 17.665 35.56 24.04H24.04V35.56C17.665 35.56 12.52 30.415 12.52 24.04H24.04V12.52Z" fill="black"/>
</svg>
