<svg xmlns="http://www.w3.org/2000/svg" xml:space="preserve" id="Layer_1" x="0" y="0" viewBox="0 0 512 512"><style>.st0{fill:#231f20}.st3{fill:#656363}.st16{fill:#1c1b1a}</style><path d="M307.93 348.86c2.49 2.49 2.21 6.78-.69 9.55-2.91 2.77-7.33 3.04-9.82.69-2.49-2.49-2.21-6.78.69-9.55 2.9-2.91 7.33-3.18 9.82-.69" class="st0"/><path d="M467.31 410.84c-32.79-3.18 14.53-51.33 35.42-45.24 4.29 4.15.42 9.96-8.02 16.74-1.25 2.21-.42 2.91 2.49 2.21 12.04-6.23 19.09-16.6 11.62-22.97-28.09-12.45-59.49 28.22-76.1 44.41-9.55 8.58-15.36.83-10.65-4.7l32.51-36.11c-26.01-8.16-51.88 4.01-73.74 29.33-18.26 14.39-36.39 22.55-31.82 5.26 45.24-26.84 70.42-61.02 53.68-64.34-13.56-1.25-59.36 41.78-63.78 65.86-24.77 9.82-40.68 12.45-35.28-2.08 38.6-22.69 71.25-58.8 57.83-67.52-17.16.55-60.74 42.34-66.83 68.07-22.97 12.18-35.7 11.35-28.36-1.94l33.07-32.93-11.62.14-30.85 27.95c-19.09 18.82-28.09 17.16-24.35 5.95 19.79-22.83 42.2-42.75 63.78-63.51h-13.14c-9.13 9.82-19.37 18.4-28.5 28.22-18.4-2.63-41.92 4.29-63.37 32.51-17.02 14.67-31.96 22-24.21 5.81l34.17-37.49c-20.75-6.5-45.93 3.04-72.08 27.67-79.69 52.3-129.23 39.71-70.98-26.98 49.12 6.64 177.37-40.26 152.75-70.56-26.7-19.23-101.69 17.43-161.32 63.78-73.19-1.11-25.04-63.51 48.98-59.36l.14-4.15c-115.8-.83-123.69 70.84-55.62 70.15-63.92 90.76 41.09 75.54 84.67 32.79-8.02 17.29 6.36 24.07 29.75 5.67-4.7 19.92 17.29 12.73 33.21-4.84-10.93 18.26 6.92 24.9 33.07 1.25-5.4 20.06 13.42 20.34 33.21-3.18-8.3 21.72 12.31 25.32 38.05 7.33.28 14.53 13.7 15.91 42.75 1.52 3.74 12.59 23.52 15.36 42.75-6.78-6.23 17.99 12.31 23.11 32.38 4.29-.83 14.94 15.63 17.16 33.76-5.67-5.67 28.5 34.17 22 60.88 3.32-.69-1.38-1.38-2.63-2.08-4.01-11.93 7.63-24.66 12.75-38.22 14.13m-65.85-72.64c7.61 4.7-10.93 26.7-51.05 54.79 5.94-17.84 29.05-40.81 51.05-54.79m-45.52-.55c7.61 4.7-10.93 26.7-51.05 54.79 5.94-17.99 29.05-40.95 51.05-54.79m-149.43-38.19c10.1 16.46-85.23 68.07-142.37 60.6 76.1-59.07 130.33-74.99 142.37-60.6m-62.95 109.17c-7.61 1.66-8.58-1.8-6.23-7.61 7.33-16.05 33.48-34.31 51.19-34.59-19.92 26.01-35.28 40.26-44.96 42.2m59.63.27c-7.61 1.66-8.58-1.8-6.23-7.61 7.33-16.05 33.48-34.31 51.19-34.59-19.92 26.02-35.28 40.27-44.96 42.2m192.32.28c-7.61 1.66-8.58-1.8-6.23-7.61 7.33-15.91 33.48-34.31 51.19-34.59-19.92 26.01-35.28 40.26-44.96 42.2" class="st0"/><g id="XMLID_142_"><linearGradient id="XMLID_2_" x1="133.32" x2="199.731" y1="315.25" y2="315.25" gradientTransform="translate(0 -130)" gradientUnits="userSpaceOnUse"><stop offset="0" style="stop-color:#b0272d"/><stop offset=".25" style="stop-color:#ac262c"/><stop offset=".486" style="stop-color:#a12328"/><stop offset=".716" style="stop-color:#8e1f22"/><stop offset=".94" style="stop-color:#731919"/><stop offset="1" style="stop-color:#6b1716"/></linearGradient><path id="XMLID_81_" d="M199.73 171.76h-66.41l3.6 26.98h62.81z" style="fill:url(#XMLID_2_)"/><linearGradient id="XMLID_3_" x1="166.871" x2="166.871" y1="216.184" y2="385.74" gradientTransform="translate(0 -130)" gradientUnits="userSpaceOnUse"><stop offset="0" style="stop-color:#f7f8fa"/><stop offset=".463" style="stop-color:#f5f6f9"/><stop offset=".63" style="stop-color:#eef0f3"/><stop offset=".749" style="stop-color:#e3e5e9"/><stop offset=".845" style="stop-color:#d2d6db"/><stop offset=".926" style="stop-color:#bcc2c8"/><stop offset=".998" style="stop-color:#a1aab2"/><stop offset="1" style="stop-color:#a0a9b1"/></linearGradient><path id="XMLID_213_" d="M60.96 93.59s4.7 4.15 10.38 10.79h198.68v18.12H84.2c.97 1.66 1.94 3.46 2.63 5.26 0 .28.14.42.14.69h183.32v13.01H89.05c.28 1.94.69 4.01.97 6.23h180v17.29H92.78c.42 2.21.69 4.57 1.11 6.92h105.98v26.98H98.04c.55 3.46.97 6.78 1.52 9.82.28 1.66.83 3.04 1.38 4.29H200v9.41h-87.3c5.81 2.35 14.25 4.7 26.15 7.75 28.36 5.67 133.93 28.64 133.93 28.64V93.59z" style="fill:url(#XMLID_3_)"/><g id="XMLID_141_"><path id="XMLID_137_" d="M122.53 228.21c-19.37-5.4-24.21-9.82-24.63-14.53s-13.7-85.92-13.7-85.92-9.55-15.91-20.34-28.22c-10.1-9.82-19.92-13.14-25.6-14.25 6.36 8.99 21.03 29.47 29.61 41.37 0 0 12.87 75.82 14.8 86.33.83 4.43 5.53 9.55 22.97 15.91l59.08 9.27c-.13.14-22.82-4.56-42.19-9.96" class="st0"/><path id="XMLID_138_" d="m164.59 238.73-59.22-9.27h-.14c-15.08-5.53-22.14-10.65-23.24-16.33-1.94-10.24-14.11-82.88-14.8-86.33-9.13-12.87-24.9-34.87-29.47-41.23-.14-.14-.14-.42 0-.55s.28-.28.55-.28c5.26.97 15.5 4.29 25.87 14.39 10.65 12.18 20.2 28.09 20.34 28.22v.14c.55 3.32 13.28 81.35 13.7 85.92.42 3.74 3.46 8.3 24.21 14.11 19.09 5.4 41.92 10.1 42.06 10.1.28 0 .42.28.42.55.27.42 0 .56-.28.56m-58.94-10.24 42.61 6.64c-7.75-1.8-17.29-4.15-26.01-6.5-17.16-4.84-24.35-9.13-25.04-14.94-.42-4.57-13.14-82.6-13.7-85.78-.69-1.25-9.96-16.46-20.2-28.09-9.27-9.13-18.68-12.59-24.07-13.84 5.4 7.61 20.2 28.09 28.78 40.26 0 0 .14.14.14.28.14.69 12.87 75.96 14.8 86.33.83 3.32 3.73 8.58 22.69 15.64" class="st3"/></g><linearGradient id="XMLID_4_" x1="54.895" x2="64.056" y1="241.393" y2="234.698" gradientTransform="translate(0 -130)" gradientUnits="userSpaceOnUse"><stop offset="0" style="stop-color:#acb7cd"/><stop offset=".37" style="stop-color:#a0abbe"/><stop offset="1" style="stop-color:#848f9a"/></linearGradient><path id="XMLID_211_" d="m42.56 91.24 8.85 7.19s5.53.69 9.96 5.67 15.77 20.2 15.77 20.2l-8.99 4.7s0-1.8-1.11-3.46c-1.1-1.51-24.48-34.3-24.48-34.3" style="fill:url(#XMLID_4_)"/><linearGradient id="XMLID_13_" x1="73.482" x2="90.956" y1="302.717" y2="299.937" gradientTransform="translate(0 -130)" gradientUnits="userSpaceOnUse"><stop offset="0" style="stop-color:#e1e5ed"/><stop offset=".179" style="stop-color:#d8dce5"/><stop offset=".471" style="stop-color:#bfc6cf"/><stop offset=".838" style="stop-color:#98a1ab"/><stop offset="1" style="stop-color:#848f9a"/></linearGradient><path id="XMLID_210_" d="M68.02 127.62H81.3s11.62 66 12.18 70.01c.55 4.01 5.4 17.57 0 17.85-5.26.14-10.65-.69-12.04-8.99z" style="fill:url(#XMLID_13_)"/><g id="XMLID_136_"><path id="XMLID_132_" d="M267.53 257.54c-21.17-4.57-104.32-22.69-128.95-27.53-29.47-7.75-36.94-10.24-39.29-21.45-3.6-24.49-10.93-70.42-12.45-80.94-8.58-18.68-26.01-34.17-26.01-34.17S48.09 84.73 35.22 81c.42.55 1.52 2.08 2.91 4.15 5.67 1.11 15.5 4.43 25.6 14.25 10.65 12.18 20.34 28.22 20.34 28.22s13.28 81.22 13.7 85.92 5.26 9.13 24.63 14.53 42.2 10.1 42.2 10.1 91.86 18.68 102.93 19.37" style="fill:#fff"/><path id="XMLID_133_" d="M267.53 258.1c-11.07-.69-99.34-18.54-103.08-19.37-.28 0-22.97-4.7-42.2-10.1-17.16-4.84-24.35-9.13-25.04-14.94-.42-4.57-13.14-82.6-13.7-85.78-.69-1.25-9.96-16.46-20.2-28.09-10.1-9.96-20.2-13.01-25.32-14.11-.14 0-.28-.14-.28-.14l-2.91-4.15c-.14-.14-.14-.42 0-.55.14-.14.42-.28.55-.14 12.73 3.74 25.6 12.45 25.73 12.45.28.14 17.71 15.77 26.15 34.45v.14c.55 3.6 1.8 11.48 3.32 21.17 2.91 18.4 6.78 43.72 9.13 59.77 2.21 11.07 9.96 13.56 38.88 21.03 25.18 4.98 111.79 23.8 128.95 27.53.28 0 .42.28.42.55.15.14-.13.28-.4.28M38.55 84.73c5.26 1.11 15.5 4.29 25.73 14.39 10.65 12.18 20.2 28.09 20.34 28.22v.14c.55 3.32 13.28 81.35 13.7 85.92.42 3.74 3.46 8.3 24.21 14.11 19.09 5.4 41.92 10.1 42.06 10.1.69.14 56.31 11.35 85.78 16.74-31.55-6.78-91.73-19.79-112.07-23.8-28.92-7.61-37.36-10.24-39.71-21.86-2.35-16.05-6.36-41.37-9.13-59.77-1.52-9.68-2.77-17.43-3.32-21.03C77.7 109.5 60.41 94.14 60.27 94c-.14 0-11.9-8.02-23.94-11.9z" class="st3"/></g><g id="XMLID_131_"><linearGradient id="XMLID_14_" x1="306.773" x2="185.973" y1="400.864" y2="374.695" gradientTransform="translate(0 -130)" gradientUnits="userSpaceOnUse"><stop offset="0" style="stop-color:#e1e5ed"/><stop offset=".014" style="stop-color:#dadfe7"/><stop offset=".085" style="stop-color:#c0c6cf"/><stop offset=".166" style="stop-color:#aab2bb"/><stop offset=".261" style="stop-color:#99a2ac"/><stop offset=".378" style="stop-color:#8d97a1"/><stop offset=".543" style="stop-color:#86919b"/><stop offset="1" style="stop-color:#848f9a"/></linearGradient><path id="XMLID_127_" d="M267.53 257.54c-11.07-.69-102.94-19.37-102.94-19.37l-59.08-9.27c23.94 8.85 71.95 20.34 167 36.25v-6.5s-1.8-.42-4.98-1.11" style="fill:url(#XMLID_14_)"/><path id="XMLID_128_" d="m273.06 265.84-.55-.14c-84.95-14.11-139.6-26.01-167.14-36.25l.28-.97 59.08 9.27c.97.14 91.87 18.68 102.94 19.37h.14l5.4 1.11v7.61zm-162.15-35.55c28.78 9.68 81.63 21.03 161.05 34.17v-5.53l-4.57-.97c-11.21-.69-99.2-18.54-102.94-19.37z" class="st3"/></g><g id="XMLID_126_"><linearGradient id="XMLID_15_" x1="90.014" x2="132.044" y1="286.334" y2="286.334" gradientTransform="translate(0 -130)" gradientUnits="userSpaceOnUse"><stop offset="0" style="stop-color:#cad1e0"/><stop offset=".026" style="stop-color:#c6cedc"/><stop offset=".698" style="stop-color:#687686"/><stop offset="1" style="stop-color:#435363"/></linearGradient><path id="XMLID_122_" d="M90.01 147.69c.83 5.26 1.8 11.21 2.63 17.29h39.29c-.97-4.98-2.08-13.28-2.49-17.29z" style="fill:url(#XMLID_15_)"/><path id="XMLID_123_" d="M132.07 165.4H92.78c-.28 0-.42-.14-.55-.42l-2.63-17.29c0-.14 0-.28.14-.42s.28-.14.42-.14h39.43c.28 0 .55.14.55.42.55 4.29 1.52 12.31 2.49 17.29 0 .14 0 .28-.14.42s-.28.14-.42.14m-38.87-.97h38.32c-.83-4.7-1.8-12.04-2.35-16.33H90.71z" class="st3"/></g><g id="XMLID_121_"><linearGradient id="XMLID_16_" x1="93.749" x2="136.852" y1="315.25" y2="315.25" gradientTransform="translate(0 -130)" gradientUnits="userSpaceOnUse"><stop offset="0" style="stop-color:#cad1e0"/><stop offset=".026" style="stop-color:#c6cedc"/><stop offset=".698" style="stop-color:#687686"/><stop offset="1" style="stop-color:#435363"/></linearGradient><path id="XMLID_117_" d="M93.75 171.76c1.38 9.27 2.91 18.68 4.15 26.98h39.02l-3.6-26.98z" style="fill:url(#XMLID_16_)"/><path id="XMLID_118_" d="M136.92 199.29H97.9c-.28 0-.42-.14-.55-.42-1.25-8.3-2.77-17.71-4.15-26.98 0-.14 0-.28.14-.42s.28-.14.42-.14h39.57c.28 0 .42.14.55.42l3.6 26.98c0 .14 0 .28-.14.42s-.28.14-.42.14m-38.6-.96h37.91l-3.46-26.01H94.3c1.52 8.99 2.91 17.98 4.02 26.01" class="st3"/></g><g id="XMLID_116_"><linearGradient id="XMLID_17_" x1="335.431" x2="507.246" y1="400.804" y2="223.325" gradientTransform="translate(0 -130)" gradientUnits="userSpaceOnUse"><stop offset="0" style="stop-color:#231f20"/><stop offset=".348" style="stop-color:#242123"/><stop offset=".557" style="stop-color:#28282b"/><stop offset=".729" style="stop-color:#2f3339"/><stop offset=".881" style="stop-color:#38424d"/><stop offset="1" style="stop-color:#435363"/></linearGradient><path id="XMLID_112_" d="m510.62 80.86-26.15 12.73-22.97 34.87s-7.61 54.37-10.24 67.93c-2.63 13.7-5.81 24.21-14.67 27.81-30.85 10.38-163.81 34.59-163.81 34.59s86.33-12.04 126.04-21.45c15.22-3.18 30.02-5.95 41.78-8.3 17.29-6.36 22-11.48 22.83-15.91 1.94-10.52 14.8-86.33 14.8-86.33 10.81-15.78 32.39-45.94 32.39-45.94" style="fill:url(#XMLID_17_)"/><path id="XMLID_113_" d="M272.51 259.2c-.28 0-.42-.14-.55-.42 0-.28.14-.55.42-.55 1.38-.28 133.38-24.35 163.81-34.45 8.16-3.32 11.48-12.45 14.39-27.39 2.63-13.42 10.24-67.38 10.24-67.93 0-.14 0-.14.14-.14l22.97-34.87c0-.14.14-.14.14-.14l26.15-12.73h.28c.14 0 .42.14.42.28.14.14.14.42 0 .55-.28.28-21.72 30.16-32.65 45.66-.55 3.32-12.87 75.96-14.8 86.33-1.11 5.67-8.16 10.79-23.11 16.33-5.26 1.11-11.21 2.21-17.43 3.46-7.89 1.52-15.91 3.18-24.35 4.84-39.18 9-125.1 21.03-126.07 21.17.14 0 0 0 0 0m189.41-130.61c-.42 2.77-7.61 54.65-10.24 67.79-2.49 12.73-5.53 24.35-15.08 28.09-22.14 7.47-97.54 22.14-137.94 29.75 28.78-4.29 74.16-11.48 99.89-17.57 8.3-1.66 16.46-3.32 24.35-4.84 6.23-1.25 12.18-2.35 17.43-3.46 18.82-7.06 21.72-12.18 22.41-15.5 1.94-10.52 14.67-85.64 14.8-86.33 0-.14 0-.14.14-.28 9.55-13.42 26.98-37.63 31.55-44.14l-24.21 11.76z" class="st3"/></g><g id="XMLID_111_"><linearGradient id="XMLID_18_" x1="272.507" x2="440.195" y1="377.027" y2="377.027" gradientTransform="translate(0 -130)" gradientUnits="userSpaceOnUse"><stop offset="0" style="stop-color:#848f9a"/><stop offset=".447" style="stop-color:#b5bcc5"/><stop offset=".803" style="stop-color:#d5dae2"/><stop offset="1" style="stop-color:#e1e5ed"/></linearGradient><path id="XMLID_107_" d="M272.51 258.65v6.5h.28c95.33-15.91 143.48-27.39 167.41-36.25-11.62 2.35-26.56 5.26-41.78 8.3-39.58 9.41-125.91 21.45-125.91 21.45" style="fill:url(#XMLID_18_)"/><path id="XMLID_108_" d="m272.92 265.7-.83-.14v-7.33h.42c.83-.14 86.75-12.18 126.04-21.45 8.3-1.66 16.46-3.32 24.35-4.84 6.23-1.25 12.18-2.35 17.43-3.46l.28.97c-27.67 10.24-82.46 22.14-167.69 36.25m.14-6.64v5.53c78.31-13.01 130.89-24.07 160.08-33.76-3.18.69-6.64 1.25-10.1 1.94-7.89 1.52-15.91 3.18-24.35 4.84-37.77 9-118.85 20.62-125.63 21.45" class="st3"/></g><linearGradient id="XMLID_19_" x1="272.507" x2="505.443" y1="306.188" y2="306.188" gradientTransform="translate(0 -130)" gradientUnits="userSpaceOnUse"><stop offset="0" style="stop-color:#f5f6f9"/><stop offset=".33" style="stop-color:#f3f4f7"/><stop offset=".48" style="stop-color:#ebeef1"/><stop offset=".594" style="stop-color:#dfe2e6"/><stop offset=".69" style="stop-color:#ccd1d7"/><stop offset=".774" style="stop-color:#b5bcc3"/><stop offset=".85" style="stop-color:#98a1ab"/><stop offset=".92" style="stop-color:#75828e"/><stop offset=".983" style="stop-color:#4e5e6d"/><stop offset="1" style="stop-color:#435363"/></linearGradient><path id="XMLID_203_" d="M272.51 93.59v165.2s132.96-24.21 163.81-34.59c8.85-3.6 12.04-14.11 14.67-27.81s10.24-67.93 10.24-67.93l22.97-34.87z" style="fill:url(#XMLID_19_)"/><linearGradient id="XMLID_20_" x1="308.272" x2="308.272" y1="287.469" y2="278.614" gradientTransform="translate(0 -130)" gradientUnits="userSpaceOnUse"><stop offset="0" style="stop-color:#0043a6"/><stop offset=".327" style="stop-color:#0141a3"/><stop offset=".555" style="stop-color:#063c9a"/><stop offset=".755" style="stop-color:#0d348a"/><stop offset=".936" style="stop-color:#172775"/><stop offset="1" style="stop-color:#1c226b"/></linearGradient><path id="XMLID_202_" d="M275.69 148.65h65.17v8.85h-65.17z" style="fill:url(#XMLID_20_)"/><linearGradient id="XMLID_21_" x1="275.689" x2="412.939" y1="310.615" y2="310.615" gradientTransform="translate(0 -130)" gradientUnits="userSpaceOnUse"><stop offset="0" style="stop-color:#7e6528"/><stop offset=".217" style="stop-color:#957c2e"/><stop offset=".468" style="stop-color:#a88e33"/><stop offset=".726" style="stop-color:#b39936"/><stop offset="1" style="stop-color:#b79d37"/></linearGradient><path id="XMLID_201_" d="M412.94 172.18H275.69c.14 3.87 0 11.76 0 16.88h134.62z" style="fill:url(#XMLID_21_)"/><g id="XMLID_106_"><linearGradient id="XMLID_34_" x1="436.058" x2="419.279" y1="316.024" y2="298.1" gradientTransform="translate(0 -130)" gradientUnits="userSpaceOnUse"><stop offset="0" style="stop-color:#fff"/><stop offset=".163" style="stop-color:#fcfcfc"/><stop offset=".3" style="stop-color:#f2f1f1"/><stop offset=".427" style="stop-color:#e0e0e0"/><stop offset=".549" style="stop-color:#c8c7c8"/><stop offset=".667" style="stop-color:#a9a8a8"/><stop offset=".781" style="stop-color:#838181"/><stop offset=".891" style="stop-color:#575455"/><stop offset=".998" style="stop-color:#242021"/><stop offset="1" style="stop-color:#231f20"/></linearGradient><path id="XMLID_102_" d="M451.68 172.18h-38.74l-2.63 16.88h38.05z" style="fill:url(#XMLID_34_)"/><path id="XMLID_103_" d="M448.36 189.47h-38.05c-.14 0-.28 0-.42-.14s-.14-.28-.14-.42l2.63-16.88c0-.28.28-.42.55-.42h38.74c.14 0 .28 0 .42.14s.14.28.14.42l-3.32 16.88c-.14.28-.27.42-.55.42m-37.5-.97h37.08l3.18-15.77h-37.63z" class="st3"/></g><path id="XMLID_199_" d="M275.69 195.42v11.76l128.67.14c1.11-3.18 2.21-8.72 2.77-11.76z" class="st16"/><g id="XMLID_100_"><linearGradient id="XMLID_35_" x1="437.862" x2="408.497" y1="337.681" y2="322.896" gradientTransform="translate(0 -130)" gradientUnits="userSpaceOnUse"><stop offset="0" style="stop-color:#fff"/><stop offset=".173" style="stop-color:#fcfcfc"/><stop offset=".31" style="stop-color:#f2f2f2"/><stop offset=".436" style="stop-color:#e2e1e1"/><stop offset=".555" style="stop-color:#cac9c9"/><stop offset=".668" style="stop-color:#acabab"/><stop offset=".778" style="stop-color:#878585"/><stop offset=".885" style="stop-color:#5b5859"/><stop offset=".987" style="stop-color:#2a2627"/><stop offset="1" style="stop-color:#231f20"/></linearGradient><path id="XMLID_96_" d="M447.11 195.7h-39.99c-.55 3.04-1.66 8.58-2.77 11.76h41.51z" style="fill:url(#XMLID_35_)"/><path id="XMLID_97_" d="M445.87 207.87h-41.51c-.14 0-.28-.14-.42-.28q-.21-.21 0-.42c1.11-3.18 2.21-8.58 2.63-11.62 0-.28.28-.42.55-.42h39.99c.14 0 .28 0 .42.14s.14.28.14.42l-1.25 11.76c0 .28-.28.42-.55.42m-40.82-.97h40.4l1.11-10.65h-39.02c-.55 2.77-1.52 7.47-2.49 10.65" class="st3"/></g><linearGradient id="XMLID_38_" x1="420.781" x2="281.922" y1="351.863" y2="379.041" gradientTransform="translate(0 -130)" gradientUnits="userSpaceOnUse"><stop offset="0" style="stop-color:#f7f8fa"/><stop offset=".463" style="stop-color:#f5f6f9"/><stop offset=".63" style="stop-color:#eef0f3"/><stop offset=".749" style="stop-color:#e3e5e9"/><stop offset=".845" style="stop-color:#d2d6db"/><stop offset=".926" style="stop-color:#bcc2c8"/><stop offset=".998" style="stop-color:#a1aab2"/><stop offset="1" style="stop-color:#a0a9b1"/></linearGradient><path id="XMLID_197_" d="M380.84 227.93c-11.07 2.91-91.45 16.46-105.29 18.82v8.3S398 231.81 412.8 227.66c4.29-1.25 8.16-2.35 11.76-3.46-7.61-1.11-21.17-2.08-27.67-2.63-4.15 2.63-9.82 4.7-16.05 6.36" style="fill:url(#XMLID_38_)"/><g id="XMLID_95_"><linearGradient id="XMLID_39_" x1="421.681" x2="417.447" y1="356.3" y2="340.642" gradientTransform="translate(0 -130)" gradientUnits="userSpaceOnUse"><stop offset="0" style="stop-color:#fff"/><stop offset=".143" style="stop-color:#fbfbfb"/><stop offset=".278" style="stop-color:#f0f0f0"/><stop offset=".409" style="stop-color:#ddd"/><stop offset=".539" style="stop-color:#c3c2c2"/><stop offset=".667" style="stop-color:#a1a0a0"/><stop offset=".794" style="stop-color:#787576"/><stop offset=".917" style="stop-color:#474445"/><stop offset="1" style="stop-color:#231f20"/></linearGradient><path id="XMLID_91_" d="M441.72 213.82h-37.63c-.97 3.18-3.46 5.67-7.06 7.89 6.5.42 20.06 1.52 27.67 2.63 8.58-2.91 14.8-5.81 17.02-10.52" style="fill:url(#XMLID_39_)"/><path id="XMLID_92_" d="M424.7 224.75q-.21 0 0 0c-7.89-1.11-22-2.21-27.67-2.63q-.42 0-.42-.42c0-.28 0-.42.28-.55 3.74-2.21 5.95-4.7 6.78-7.61 0-.28.28-.42.55-.42h37.63c.14 0 .28.14.42.28s.14.28 0 .55c-2.49 5.26-9.82 8.3-17.29 10.65zm-26.15-3.46c6.36.55 18.82 1.52 26.01 2.49 6.92-2.21 13.56-4.84 16.19-9.41h-36.39c-.83 2.49-2.77 4.85-5.81 6.92" class="st3"/></g><g id="XMLID_90_"><linearGradient id="XMLID_40_" x1="35.086" x2="272.507" y1="217.224" y2="217.224" gradientTransform="translate(0 -130)" gradientUnits="userSpaceOnUse"><stop offset="0" style="stop-color:#e7e6e7"/><stop offset=".299" style="stop-color:#dcdbdc"/><stop offset=".826" style="stop-color:#bfbebe"/><stop offset="1" style="stop-color:#b4b3b3"/></linearGradient><path id="XMLID_86_" d="M272.51 93.59V80.86H35.09l.28.28c12.73 3.74 25.6 12.45 25.6 12.45z" style="fill:url(#XMLID_40_)"/><path id="XMLID_87_" d="M272.51 94H60.96c-.14 0-.28 0-.28-.14-.14-.14-12.87-8.72-25.46-12.31-.14 0-.28-.14-.28-.14l-.28-.28c-.14-.14-.14-.42 0-.55.14-.14.28-.28.42-.28H272.5c.28 0 .55.28.55.55v12.73c.01.29-.27.42-.54.42M61.1 93.04h210.99V81.27H37.71c11.21 3.74 22 10.8 23.39 11.77" class="st3"/></g><linearGradient id="XMLID_41_" x1="114.503" x2="270.016" y1="243.305" y2="243.305" gradientTransform="translate(0 -130)" gradientUnits="userSpaceOnUse"><stop offset="0" style="stop-color:#b79d37"/><stop offset=".274" style="stop-color:#b39936"/><stop offset=".532" style="stop-color:#a88e33"/><stop offset=".783" style="stop-color:#957c2e"/><stop offset="1" style="stop-color:#7e6528"/></linearGradient><path id="XMLID_194_" d="M270.02 104.24H114.5l13.98 18.13h141.54z" style="fill:url(#XMLID_41_)"/><g id="XMLID_85_"><linearGradient id="XMLID_46_" x1="71.336" x2="128.477" y1="243.305" y2="243.305" gradientTransform="translate(0 -130)" gradientUnits="userSpaceOnUse"><stop offset="0" style="stop-color:#cad1e0"/><stop offset=".141" style="stop-color:#bfc7d5"/><stop offset=".39" style="stop-color:#a2acba"/><stop offset=".716" style="stop-color:#727f8f"/><stop offset="1" style="stop-color:#435363"/></linearGradient><path id="XMLID_77_" d="M71.34 104.24c4.29 4.98 8.99 11.21 13.01 18.12h43.03l-13.84-18.12z" style="fill:url(#XMLID_46_)"/><path id="XMLID_82_" d="M128.2 122.92H83.93l-.14-.28c-3.32-5.95-7.61-11.9-12.87-17.99l-.69-.83h43.44zm-43.72-.97h41.65l-13.01-17.16H72.44c4.85 5.82 9 11.49 12.04 17.16" class="st3"/></g><linearGradient id="XMLID_47_" x1="122.664" x2="117.99" y1="242.033" y2="245.474" gradientTransform="translate(0 -130)" gradientUnits="userSpaceOnUse"><stop offset="0" style="stop-color:#435363"/><stop offset=".225" style="stop-color:#40505e"/><stop offset=".489" style="stop-color:#3a4550"/><stop offset=".772" style="stop-color:#2f3239"/><stop offset="1" style="stop-color:#231f20"/></linearGradient><path id="XMLID_172_" d="M114.5 104.24h-1.1l13.83 18.13h1.25z" style="fill:url(#XMLID_47_)"/><path id="XMLID_78_" d="m164.59 238.73-59.22-9.27h-.14c-15.08-5.53-22.14-10.65-23.24-16.33-1.94-10.24-14.11-82.88-14.8-86.33-9.13-12.87-24.9-34.87-29.47-41.23-.14-.14-.14-.42 0-.55s.28-.28.55-.28c5.26.97 15.5 4.29 25.87 14.39 10.65 12.18 20.2 28.09 20.34 28.22v.14c.55 3.32 13.28 81.35 13.7 85.92.42 3.74 3.46 8.3 24.21 14.11 19.09 5.4 41.92 10.1 42.06 10.1.28 0 .42.28.42.55.27.42 0 .56-.28.56m-58.94-10.24 42.61 6.64c-7.75-1.8-17.29-4.15-26.01-6.5-17.16-4.84-24.35-9.13-25.04-14.94-.42-4.57-13.14-82.6-13.7-85.78-.69-1.25-9.96-16.46-20.2-28.09-9.27-9.13-18.68-12.59-24.07-13.84 5.4 7.61 20.2 28.09 28.78 40.26 0 0 .14.14.14.28.14.69 12.87 75.96 14.8 86.33.83 3.32 3.73 8.58 22.69 15.64" class="st3"/><linearGradient id="XMLID_48_" x1="126.266" x2="133.196" y1="266.003" y2="264.062" gradientTransform="translate(0 -130)" gradientUnits="userSpaceOnUse"><stop offset="0" style="stop-color:#435363"/><stop offset=".101" style="stop-color:#3f4e5c"/><stop offset="1" style="stop-color:#231f20"/></linearGradient><path id="XMLID_170_" d="m126.13 128.45 3.59 13.01h4.15l-3.73-13.01z" style="fill:url(#XMLID_48_)"/><g id="XMLID_76_"><linearGradient id="XMLID_49_" x1="87.037" x2="129.789" y1="264.957" y2="264.957" gradientTransform="translate(0 -130)" gradientUnits="userSpaceOnUse"><stop offset="0" style="stop-color:#cad1e0"/><stop offset=".025" style="stop-color:#c6cedc"/><stop offset=".659" style="stop-color:#687686"/><stop offset=".944" style="stop-color:#435363"/></linearGradient><path id="XMLID_69_" d="M86.97 128.45c.42 2.77 1.11 7.33 2.08 13.01h40.68l-3.6-13.01z" style="fill:url(#XMLID_49_)"/><path id="XMLID_73_" d="M129.72 141.88H89.05c-.28 0-.42-.14-.55-.42-.83-5.67-1.52-10.24-2.08-13.01 0-.14 0-.28.14-.42s.28-.14.42-.14H126c.28 0 .42.14.55.42l3.6 13.01c0 .14 0 .28-.14.42-.01.14-.15.14-.29.14m-40.26-.97h39.57l-3.32-11.9H87.66c.42 2.63.97 6.78 1.8 11.9" class="st3"/></g><path id="XMLID_168_" d="M270.43 128.45H130.14l3.73 13.01h136.56z" class="st16"/><linearGradient id="XMLID_50_" x1="129.446" x2="270.016" y1="286.334" y2="286.334" gradientTransform="translate(0 -130)" gradientUnits="userSpaceOnUse"><stop offset="0" style="stop-color:#b79d37"/><stop offset=".274" style="stop-color:#b39936"/><stop offset=".532" style="stop-color:#a88e33"/><stop offset=".783" style="stop-color:#957c2e"/><stop offset="1" style="stop-color:#7e6528"/></linearGradient><path id="XMLID_167_" d="M270.02 147.69H129.45c.55 4.01 1.52 12.31 2.49 17.29h137.94v-17.29z" style="fill:url(#XMLID_50_)"/><path id="XMLID_101_" d="M283.58 245.37c1.38-.28 2.77-.42 4.29-.69h-4.29z" style="fill:#d2b887"/><linearGradient id="XMLID_51_" x1="275.827" x2="404.038" y1="360.7" y2="360.7" gradientTransform="translate(0 -130)" gradientUnits="userSpaceOnUse"><stop offset="0" style="stop-color:#7e6528"/><stop offset=".217" style="stop-color:#957c2e"/><stop offset=".468" style="stop-color:#a88e33"/><stop offset=".726" style="stop-color:#b39936"/><stop offset="1" style="stop-color:#b79d37"/></linearGradient><path id="XMLID_7_" d="M397.44 214.51H275.83c.14 6.92 0 21.86 0 32.51 1.52-.28 3.87-.83 6.78-1.25.28 0 1.11-.28 1.11-.28v-.55h4.15c1.94-1.38 4.01-.83 6.09-1.25.97-.14 1.94-.42 3.04-.55.14 0 .28-.14.55-.14 2.77-.42 5.81-.97 8.85-1.52.28 0 .69-.14.97-.14 3.46-.55 7.06-1.25 10.65-1.8.55-.14.97-.14 1.52-.28 2.49-.42 4.98-.55 7.47-1.11 3.04-.55 5.95-1.38 8.85-1.38l4.57-1.38c1.11 0 .97-.14 1.25-.14 3.32-.55 6.78-1.25 9.96-1.8.55-.14 1.11-.14 1.52-.28 3.04-.55 5.95-1.11 8.58-1.52.14 0 .42 0 .55-.14 3.46-.69 6.64-1.25 9.41-1.8.28 0 .69-.14.97-.14 1.11-.28 2.08-.42 2.91-.55 1.94-.42 3.6-.83 4.7-1.11.14 0 .28-.14.42-.14 1.11-.28 2.08-.55 3.18-.97.55-.14.97-.28 1.52-.42 4.15-1.25 7.89-2.77 10.93-4.57.28-.14.69-.42.97-.55l.14-.14c.28-.14.69-.14.97-.28 2.63-1.94 4.57-5.12 5.4-6.5h-6.36z" style="fill:url(#XMLID_51_)"/><g id="XMLID_72_"><path id="XMLID_45_" d="M275.69 104.66h65.17v26.98h-65.17z" style="fill:#a22a2e"/><path id="XMLID_68_" d="M340.72 132.19h-65.17c-.28 0-.55-.28-.55-.55v-26.98c0-.28.28-.55.55-.55h65.17c.28 0 .55.28.55.55v26.98c0 .27-.28.55-.55.55m-64.62-1.11h64.06v-25.87H276.1z" class="st3"/></g><linearGradient id="XMLID_52_" x1="347.496" x2="418.75" y1="280.315" y2="280.315" gradientTransform="translate(0 -130)" gradientUnits="userSpaceOnUse"><stop offset="0" style="stop-color:#6b1716"/><stop offset=".06" style="stop-color:#731919"/><stop offset=".284" style="stop-color:#8e1f22"/><stop offset=".514" style="stop-color:#a12328"/><stop offset=".75" style="stop-color:#ac262c"/><stop offset="1" style="stop-color:#b0272d"/></linearGradient><path id="XMLID_57_" d="m418.75 135.65-71.25.41v28.92h65.99z" style="fill:url(#XMLID_52_)"/><g id="XMLID_67_"><linearGradient id="XMLID_53_" x1="100.764" x2="152.831" y1="347.695" y2="347.695" gradientTransform="translate(0 -130)" gradientUnits="userSpaceOnUse"><stop offset="0" style="stop-color:#cad1e0"/><stop offset=".026" style="stop-color:#c6cedc"/><stop offset=".698" style="stop-color:#687686"/><stop offset="1" style="stop-color:#435363"/></linearGradient><path id="XMLID_32_" d="M142.59 212.99h-41.92c1.8 4.01 5.26 6.78 11.76 9.41h40.4c-5.67-3.04-8.72-6.78-10.24-9.41" style="fill:url(#XMLID_53_)"/><path id="XMLID_64_" d="M152.83 222.81h-40.54c-6.64-2.63-10.1-5.4-12.04-9.68-.14-.14 0-.28 0-.55.14-.14.28-.28.42-.28h41.92c.14 0 .42.14.42.28 1.38 2.63 4.29 6.36 9.96 9.13.28.14.28.28.28.55-.01.42-.15.55-.42.55m-40.26-.96h38.32c-4.57-2.77-7.06-5.95-8.44-8.3h-40.82c1.8 3.45 5.13 5.81 10.94 8.3" class="st3"/></g><linearGradient id="XMLID_54_" x1="171.16" x2="171.16" y1="352.309" y2="342.945" gradientTransform="translate(0 -130)" gradientUnits="userSpaceOnUse"><stop offset="0" style="stop-color:#0043a6"/><stop offset=".327" style="stop-color:#0141a3"/><stop offset=".555" style="stop-color:#063c9a"/><stop offset=".755" style="stop-color:#0d348a"/><stop offset=".936" style="stop-color:#172775"/><stop offset="1" style="stop-color:#1c226b"/></linearGradient><path id="XMLID_44_" d="M199.73 212.99h-57.14c1.52 2.63 4.43 6.5 10.24 9.41h46.9z" style="fill:url(#XMLID_54_)"/><linearGradient id="XMLID_55_" x1="236.949" x2="236.949" y1="320.528" y2="310.59" gradientTransform="translate(0 -130)" gradientUnits="userSpaceOnUse"><stop offset="0" style="stop-color:#0043a6"/><stop offset=".327" style="stop-color:#0141a3"/><stop offset=".555" style="stop-color:#063c9a"/><stop offset=".755" style="stop-color:#0d348a"/><stop offset=".936" style="stop-color:#172775"/><stop offset="1" style="stop-color:#1c226b"/></linearGradient><path id="XMLID_43_" d="M204.16 180.62h65.58v9.96h-65.58z" style="fill:url(#XMLID_55_)"/><linearGradient id="XMLID_56_" x1="204.02" x2="269.878" y1="355.235" y2="355.235" gradientTransform="translate(0 -130)" gradientUnits="userSpaceOnUse"><stop offset="0" style="stop-color:#b0272d"/><stop offset=".25" style="stop-color:#ac262c"/><stop offset=".486" style="stop-color:#a12328"/><stop offset=".716" style="stop-color:#8e1f22"/><stop offset=".94" style="stop-color:#731919"/><stop offset="1" style="stop-color:#6b1716"/></linearGradient><path id="XMLID_42_" d="M204.02 203.72v30.72l65.86 12.31v-43.03z" style="fill:url(#XMLID_56_)"/><linearGradient id="XMLID_58_" x1="386.375" x2="386.375" y1="251.217" y2="241.532" gradientTransform="translate(0 -130)" gradientUnits="userSpaceOnUse"><stop offset="0" style="stop-color:#0043a6"/><stop offset=".327" style="stop-color:#0141a3"/><stop offset=".555" style="stop-color:#063c9a"/><stop offset=".755" style="stop-color:#0d348a"/><stop offset=".936" style="stop-color:#172775"/><stop offset="1" style="stop-color:#1c226b"/></linearGradient><path id="XMLID_33_" d="M347.5 111.58v9.68h71.12c2.35-2.91 4.84-6.78 6.64-9.68z" style="fill:url(#XMLID_58_)"/><g id="XMLID_63_"><linearGradient id="XMLID_61_" x1="444.567" x2="441.226" y1="252.204" y2="237.642" gradientTransform="translate(0 -130)" gradientUnits="userSpaceOnUse"><stop offset="0" style="stop-color:#fff"/><stop offset=".131" style="stop-color:#fbfbfb"/><stop offset=".265" style="stop-color:#efefef"/><stop offset=".4" style="stop-color:#dbdada"/><stop offset=".535" style="stop-color:#bfbebe"/><stop offset=".672" style="stop-color:#9a9999"/><stop offset=".809" style="stop-color:#6e6b6c"/><stop offset=".945" style="stop-color:#3a3738"/><stop offset="1" style="stop-color:#231f20"/></linearGradient><path id="XMLID_31_" d="M458.32 111.58h-33.07c-1.8 2.91-4.29 6.78-6.64 9.68h43.17l6.09-9.68s-4.85-.42-9.55 0" style="fill:url(#XMLID_61_)"/><path id="XMLID_60_" d="M461.78 121.68h-43.17c-.14 0-.42-.14-.42-.28-.14-.14 0-.42 0-.55 2.35-2.91 4.84-6.78 6.64-9.68.14-.14.28-.28.42-.28h33.07c4.7-.42 9.55 0 9.68 0 .14 0 .28.14.42.28s.14.42 0 .55l-6.09 9.68c-.14.28-.41.28-.55.28m-42.06-.97h41.78l5.53-8.72c-1.66-.14-5.12-.28-8.58 0h-32.79c-1.65 2.63-3.87 5.95-5.94 8.72" class="st3"/></g><g id="XMLID_59_"><linearGradient id="XMLID_62_" x1="441.818" x2="429.764" y1="301.475" y2="262.185" gradientTransform="translate(0 -130)" gradientUnits="userSpaceOnUse"><stop offset="0" style="stop-color:#fff"/><stop offset=".2" style="stop-color:#fcfcfc"/><stop offset=".34" style="stop-color:#f3f3f3"/><stop offset=".461" style="stop-color:#e4e3e4"/><stop offset=".573" style="stop-color:#cecece"/><stop offset=".677" style="stop-color:#b2b1b1"/><stop offset=".776" style="stop-color:#908e8f"/><stop offset=".871" style="stop-color:#686565"/><stop offset=".961" style="stop-color:#3a3637"/><stop offset="1" style="stop-color:#231f20"/></linearGradient><path id="XMLID_8_" d="m457.08 135.37-38.33.28-5.26 29.33h39.3z" style="fill:url(#XMLID_62_)"/><path id="XMLID_30_" d="M452.79 165.53H413.5c-.14 0-.28 0-.42-.14s-.14-.28-.14-.42l5.26-29.33c0-.28.28-.42.55-.42l38.32-.28c.14 0 .28 0 .42.14s.14.28.14.42l-4.29 29.61c-.14.29-.28.42-.55.42m-38.61-.96h38.19l4.15-28.64-37.36.28z" class="st3"/></g><path id="XMLID_27_" d="M275.55 246.89v-33.21h.42v33.21z" class="st3"/><linearGradient id="XMLID_65_" x1="453.531" x2="471.579" y1="302.257" y2="302.257" gradientTransform="translate(0 -130)" gradientUnits="userSpaceOnUse"><stop offset="0" style="stop-color:#e1e5ed"/><stop offset=".064" style="stop-color:#d1d7df"/><stop offset=".206" style="stop-color:#b6bdc6"/><stop offset=".359" style="stop-color:#a0a9b2"/><stop offset=".527" style="stop-color:#909aa4"/><stop offset=".721" style="stop-color:#87929c"/><stop offset="1" style="stop-color:#848f9a"/></linearGradient><path id="XMLID_29_" d="M477.69 127.49h-13.7s-8.72 62.95-15.91 81.22c-3.6 8.3-.55 8.44 4.43 8.3 4.84-.14 10.93-5.53 10.93-5.53l14.94-83.98" style="fill:url(#XMLID_65_)"/><linearGradient id="XMLID_66_" x1="476.915" x2="492.182" y1="239.5" y2="239.5" gradientTransform="translate(0 -130)" gradientUnits="userSpaceOnUse"><stop offset="0" style="stop-color:#acb7cd"/><stop offset=".021" style="stop-color:#a8b3c9"/><stop offset=".194" style="stop-color:#8996a9"/><stop offset=".374" style="stop-color:#728091"/><stop offset=".562" style="stop-color:#616f7f"/><stop offset=".763" style="stop-color:#576675"/><stop offset="1" style="stop-color:#546371"/></linearGradient><path id="XMLID_28_" d="M502.04 92.76 490.7 103s-7.19 2.08-10.24 6.09c-3.04 3.87-11.07 16.19-11.07 16.19l8.85.97z" style="fill:url(#XMLID_66_)"/><path id="XMLID_26_" d="M275.69 247.17c-.14 0-.28 0-.28-.14-.14-.14-.14-.28-.14-.42v-32.93c0-.28.28-.55.55-.55h128.4c.14 0 .28 0 .42.14s.14.28.14.42c-.28 9.82-24.07 14.67-38.32 17.57-1.38.28-2.63.55-3.74.69-12.46 2.76-86.2 15.08-87.03 15.22m.41-32.8v31.82c7.19-1.25 74.57-12.59 86.2-14.94 1.11-.28 2.35-.42 3.74-.69 12.73-2.63 36.39-7.33 37.49-16.05z" class="st3"/><path id="XMLID_25_" d="M410.31 189.47H275.69c-.28 0-.55-.28-.55-.55v-16.74c0-.14 0-.28.14-.42s.28-.14.42-.14h137.25c.14 0 .28 0 .42.14s.14.28.14.42l-2.63 16.88c-.15.27-.43.41-.57.41m-134.21-.97h133.65l2.49-15.77H276.1z" class="st3"/><path id="XMLID_23_" d="M413.49 165.53h-66c-.28 0-.55-.28-.55-.55v-28.92c0-.28.28-.55.55-.55l71.25-.42c.14 0 .28 0 .42.14s.14.28.14.42l-5.26 29.33c-.13.42-.27.55-.55.55m-65.44-.96h65.03l5.12-28.36-70.01.42v27.95h-.14z" class="st3"/><linearGradient id="XMLID_70_" x1="275.689" x2="340.855" y1="248.147" y2="248.147" gradientTransform="translate(0 -130)" gradientUnits="userSpaceOnUse"><stop offset="0" style="stop-color:#6b1716"/><stop offset=".06" style="stop-color:#731919"/><stop offset=".284" style="stop-color:#8e1f22"/><stop offset=".514" style="stop-color:#a12328"/><stop offset=".75" style="stop-color:#ac262c"/><stop offset="1" style="stop-color:#b0272d"/></linearGradient><path id="XMLID_24_" d="M275.69 104.66h65.17v26.98h-65.17z" style="fill:url(#XMLID_70_)"/><path id="XMLID_12_" d="M270.02 122.92H128.48c-.14 0-.28-.14-.42-.14l-13.97-18.12c-.14-.14-.14-.42 0-.55.14-.14.28-.28.42-.28h155.51c.28 0 .55.28.55.55v18.12c0 .28-.28.42-.55.42m-141.27-.97H269.6V104.8H115.47z" class="st3"/><path id="XMLID_11_" d="M270.02 165.4H132.07c-.28 0-.42-.14-.55-.42-.97-4.84-1.94-13.01-2.49-17.29 0-.14 0-.28.14-.42s.28-.14.42-.14h140.43c.28 0 .55.28.55.55v17.29c0 .29-.28.43-.55.43m-137.53-.97h136.97V148.1H130.14c.55 4.43 1.52 11.62 2.35 16.33" class="st3"/><path id="XMLID_9_" d="m269.88 247.3-66-12.31c-.28 0-.42-.28-.42-.55v-30.72c0-.28.28-.55.55-.55h65.86c.28 0 .55.28.55.55v43.03c0 .14-.14.28-.14.42-.13 0-.26.13-.4.13m-65.31-13.28 64.89 12.04v-41.92h-64.89z" class="st3"/><path id="XMLID_10_" d="M199.73 171.76h-66.41l3.6 26.98h62.81z" style="fill:none"/><path id="XMLID_37_" d="M199.73 199.29h-62.81c-.28 0-.42-.14-.55-.42l-3.6-26.98c0-.14 0-.28.14-.42s.28-.14.42-.14h66.41c.28 0 .55.28.55.55v26.98c-.01.16-.28.43-.56.43m-62.4-.96h61.85v-26.01h-65.3z" class="st3"/><g id="XMLID_36_"><linearGradient id="XMLID_71_" x1="391.563" x2="391.563" y1="226.425" y2="204.16" gradientTransform="translate(0 -130)" gradientUnits="userSpaceOnUse"><stop offset="0" style="stop-color:#e7e6e7"/><stop offset=".392" style="stop-color:#e4e4e4"/><stop offset=".615" style="stop-color:#dcdcdc"/><stop offset=".795" style="stop-color:#cfcece"/><stop offset=".952" style="stop-color:#bbbabb"/><stop offset="1" style="stop-color:#b4b3b3"/></linearGradient><path id="XMLID_5_" d="M272.92 80.86h-.41v12.73h211.96l26.15-12.73z" style="fill:url(#XMLID_71_)"/><path id="XMLID_6_" d="M484.47 94H272.51c-.28 0-.55-.28-.55-.55V80.72c0-.28.28-.55.55-.55h238.11c.28 0 .42.14.55.42 0 .28 0 .42-.28.55l-26.15 12.73c-.13.13-.27.13-.27.13m-211.41-.96h211.27l24.07-11.76H273.06z" class="st3"/></g></g></svg>