<svg xmlns="http://www.w3.org/2000/svg" xml:space="preserve" id="Layer_1" x="0" y="0" viewBox="0 0 512 512"><style>.st0{fill:#bc1822}</style><g id="XMLID_1_"><g id="XMLID_54_"><g id="XMLID_213_"><g id="XMLID_231_"><path id="XMLID_232_" d="M89.48 322.27v14.51H17.1s-2.7-.71-2.7 2.7v29.15s-.43 2.7 2.7 2.7h72.24v13.23h-74.8S.03 383.28.03 370.05V337.2s-1.71-14.79 14.79-14.79z" class="st0"/></g><g id="XMLID_229_"><path id="XMLID_230_" d="M220.88 347.01h65.7v13.51h-68.4v7.96s-.43 2.7 2.84 2.7h74.52v13.23h-77.22s-14.93-1.28-14.93-14.51v-32.85s-1.71-14.79 15.22-14.79l77.08-.14v13.08h-74.66s-2.84.28-2.84 2.84v8.67z" class="st0"/></g><g id="XMLID_222_"><path id="XMLID_226_" d="M100.57 321.84h14.37v25.46h61.29v-25.32h15.07v63.29h-14.64v-24.46h-61.72v24.03h-14.51z" class="st0"/></g><g id="XMLID_216_"><g id="XMLID_217_"><path id="XMLID_218_" d="M307.06 321.98h81.92s10.1 3.7 10.1 10.1v14.79s.85 10.52-10.52 10.52h-12.51l26.17 27.73h-18.91l-24.18-27.87H322.3v27.73h-15.1zm14.79 24.61h61.29s3.13-.43 3.13-3.13v-4.27s.71-2.99-2.99-2.99H321.7z" class="st0"/></g></g><g id="XMLID_214_"><path id="XMLID_215_" d="M402.34 321.84h22.18l33.57 29.44 33.56-29.44h20.33l-45.5 41.67v21.33H449.7v-21.61z" class="st0"/></g></g></g><g id="XMLID_2_"><linearGradient id="XMLID_6_" x1="179.027" x2="145.047" y1="307.334" y2="328.67" gradientTransform="matrix(1 0 0 -1 0 514)" gradientUnits="userSpaceOnUse"><stop offset="0" style="stop-color:#e8e8e8"/><stop offset="1" style="stop-color:#495153"/></linearGradient><path id="XMLID_51_" d="M245.63 137.26 141.25 261.12l-34.7 11.52 122.72-145.91z" style="fill:url(#XMLID_6_)"/><linearGradient id="XMLID_11_" x1="320.261" x2="311.569" y1="382.927" y2="256.89" gradientTransform="matrix(1 0 0 -1 0 514)" gradientUnits="userSpaceOnUse"><stop offset=".033" style="stop-color:#e8e8e8"/><stop offset=".098" style="stop-color:#d6d7d7"/><stop offset=".3" style="stop-color:#a4a8a8"/><stop offset=".491" style="stop-color:#7d8283"/><stop offset=".665" style="stop-color:#606769"/><stop offset=".817" style="stop-color:#4f5759"/><stop offset=".929" style="stop-color:#495153"/></linearGradient><path id="XMLID_50_" d="m245.63 137.26 104.23 123.86 34.85 11.52-122.73-145.91z" style="fill:url(#XMLID_11_)"/><linearGradient id="XMLID_12_" x1="245.626" x2="245.626" y1="375.655" y2="392.775" gradientTransform="matrix(1 0 0 -1 0 514)" gradientUnits="userSpaceOnUse"><stop offset="0" style="stop-color:#e8e8e8"/><stop offset=".124" style="stop-color:#c9cacb"/><stop offset=".327" style="stop-color:#9b9fa0"/><stop offset=".522" style="stop-color:#787d7f"/><stop offset=".705" style="stop-color:#5e6567"/><stop offset=".869" style="stop-color:#4e5658"/><stop offset="1" style="stop-color:#495153"/></linearGradient><path id="XMLID_47_" d="m245.63 137.26 16.35-10.53h-32.71z" style="fill:url(#XMLID_12_)"/><linearGradient id="XMLID_14_" x1="190.57" x2="172" y1="379.727" y2="371.43" gradientTransform="matrix(1 0 0 -1 0 514)" gradientUnits="userSpaceOnUse"><stop offset="0" style="stop-color:#fff"/><stop offset="1" style="stop-color:#495153"/></linearGradient><path id="XMLID_42_" d="m169.69 151.9 16.64-24.03-16.64 13.08z" style="fill:url(#XMLID_14_)"/><linearGradient id="XMLID_15_" x1="131.749" x2="48.384" y1="302.546" y2="441.62" gradientTransform="matrix(1 0 0 -1 0 514)" gradientUnits="userSpaceOnUse"><stop offset="0" style="stop-color:#495153"/><stop offset=".357" style="stop-color:#e8e8e8"/><stop offset=".424" style="stop-color:#ddddde"/><stop offset=".543" style="stop-color:#bfc1c2"/><stop offset=".699" style="stop-color:#8f9495"/><stop offset=".884" style="stop-color:#4d5557"/><stop offset=".896" style="stop-color:#495153"/></linearGradient><path id="XMLID_39_" d="m153.48 237.37-24.74 8.96C10.41 228.41 18.52 190.3 18.52 190.3c-.28-49.2 167.81-62.43 167.81-62.43l-16.64 13.23S32.6 160.87 36.58 190.16c3.98 29.15 116.9 47.21 116.9 47.21" style="fill:url(#XMLID_15_)"/><linearGradient id="XMLID_17_" x1="124.408" x2="90.958" y1="297.465" y2="375.693" gradientTransform="matrix(1 0 0 -1 0 514)" gradientUnits="userSpaceOnUse"><stop offset="0" style="stop-color:#e8e8e8"/><stop offset=".124" style="stop-color:#c9cacb"/><stop offset=".327" style="stop-color:#9b9fa0"/><stop offset=".522" style="stop-color:#787d7f"/><stop offset=".705" style="stop-color:#5e6567"/><stop offset=".869" style="stop-color:#4e5658"/><stop offset="1" style="stop-color:#495153"/></linearGradient><path id="XMLID_36_" d="M169.83 140.95v10.95s-114.9 8.53-114.9 37.54 91.16 36.41 91.16 36.41l7.39 11.52s-116.9-14.22-116.9-47.36c-.14-33.27 133.25-49.06 133.25-49.06" style="fill:url(#XMLID_17_)"/><linearGradient id="XMLID_18_" x1="107.132" x2="159.547" y1="247.29" y2="246.762" gradientTransform="matrix(1 0 0 -1 0 514)" gradientUnits="userSpaceOnUse"><stop offset="0" style="stop-color:#e8e8e8"/><stop offset=".124" style="stop-color:#c9cacb"/><stop offset=".327" style="stop-color:#9b9fa0"/><stop offset=".522" style="stop-color:#787d7f"/><stop offset=".705" style="stop-color:#5e6567"/><stop offset=".869" style="stop-color:#4e5658"/><stop offset="1" style="stop-color:#495153"/></linearGradient><path id="XMLID_33_" d="M106.55 272.64h46.64l-11.94-11.52z" style="fill:url(#XMLID_18_)"/><linearGradient id="XMLID_20_" x1="254.989" x2="131.452" y1="371.151" y2="233.127" gradientTransform="matrix(1 0 0 -1 0 514)" gradientUnits="userSpaceOnUse"><stop offset="0" style="stop-color:#495153"/><stop offset=".001" style="stop-color:#4a5254"/><stop offset=".047" style="stop-color:#73787a"/><stop offset=".094" style="stop-color:#959899"/><stop offset=".142" style="stop-color:#afb1b2"/><stop offset=".192" style="stop-color:#c2c3c3"/><stop offset=".242" style="stop-color:#cdcece"/><stop offset=".297" style="stop-color:#d1d1d1"/><stop offset=".634" style="stop-color:#888d8e"/><stop offset=".878" style="stop-color:#5b6263"/><stop offset="1" style="stop-color:#495153"/></linearGradient><path id="XMLID_26_" d="M245.63 137.26v22.75l-92.44 112.63-11.94-11.52z" style="fill:url(#XMLID_20_)"/><linearGradient id="XMLID_21_" x1="-176.308" x2="-299.844" y1="371.182" y2="233.157" gradientTransform="matrix(-1 0 0 -1 60 514)" gradientUnits="userSpaceOnUse"><stop offset="0" style="stop-color:#000"/><stop offset=".021" style="stop-color:#202020"/><stop offset=".058" style="stop-color:#515151"/><stop offset=".096" style="stop-color:#7a7a7a"/><stop offset=".134" style="stop-color:#9d9d9d"/><stop offset=".173" style="stop-color:#b7b7b7"/><stop offset=".212" style="stop-color:#cacaca"/><stop offset=".253" style="stop-color:#d5d5d5"/><stop offset=".297" style="stop-color:#d9d9d9"/><stop offset=".328" style="stop-color:#d2d2d2"/><stop offset=".652" style="stop-color:#888d8e"/><stop offset=".884" style="stop-color:#5b6263"/><stop offset="1" style="stop-color:#495153"/></linearGradient><path id="XMLID_22_" d="M245.63 137.26v22.75l92.57 112.63 11.81-11.52z" style="fill:url(#XMLID_21_)"/><linearGradient id="XMLID_23_" x1="-324.137" x2="-271.718" y1="247.29" y2="246.762" gradientTransform="matrix(-1 0 0 -1 60 514)" gradientUnits="userSpaceOnUse"><stop offset="0" style="stop-color:#e8e8e8"/><stop offset=".009" style="stop-color:#e3e3e3"/><stop offset=".087" style="stop-color:#babdbd"/><stop offset=".169" style="stop-color:#979b9c"/><stop offset=".257" style="stop-color:#7b8082"/><stop offset=".349" style="stop-color:#656b6d"/><stop offset=".451" style="stop-color:#555c5e"/><stop offset=".567" style="stop-color:#4c5456"/><stop offset=".731" style="stop-color:#495153"/></linearGradient><path id="XMLID_19_" d="M384.71 272.64h-46.65l11.95-11.52z" style="fill:url(#XMLID_23_)"/><linearGradient id="XMLID_24_" x1="-213.367" x2="-231.936" y1="379.762" y2="371.465" gradientTransform="matrix(-1 0 0 -1 87.379 514)" gradientUnits="userSpaceOnUse"><stop offset="0" style="stop-color:#fff"/><stop offset="1" style="stop-color:#495153"/></linearGradient><path id="XMLID_16_" d="m321.71 151.9-16.64-24.03 16.5 13.08z" style="fill:url(#XMLID_24_)"/><linearGradient id="XMLID_25_" x1="-272.099" x2="-355.465" y1="302.589" y2="441.664" gradientTransform="matrix(-1 0 0 -1 87.379 514)" gradientUnits="userSpaceOnUse"><stop offset="0" style="stop-color:#495153"/><stop offset=".357" style="stop-color:#e8e8e8"/><stop offset=".424" style="stop-color:#ddddde"/><stop offset=".543" style="stop-color:#bfc1c2"/><stop offset=".699" style="stop-color:#8f9495"/><stop offset=".884" style="stop-color:#4d5557"/><stop offset=".896" style="stop-color:#495153"/></linearGradient><path id="XMLID_13_" d="m337.92 237.37 24.74 8.96c118.32-17.92 110.07-56.17 110.07-56.17.28-49.2-167.81-62.43-167.81-62.43l16.64 13.23s137.09 19.77 133.11 49.06-116.75 47.35-116.75 47.35" style="fill:url(#XMLID_25_)"/><linearGradient id="XMLID_27_" x1="-279.593" x2="-313.044" y1="297.431" y2="375.66" gradientTransform="matrix(-1 0 0 -1 87.379 514)" gradientUnits="userSpaceOnUse"><stop offset="0" style="stop-color:#e8e8e8"/><stop offset=".098" style="stop-color:#c1c3c3"/><stop offset=".223" style="stop-color:#969a9b"/><stop offset=".344" style="stop-color:#757a7c"/><stop offset=".459" style="stop-color:#5d6465"/><stop offset=".565" style="stop-color:#4e5658"/><stop offset=".654" style="stop-color:#495153"/></linearGradient><path id="XMLID_10_" d="M321.57 140.95v10.95s114.9 8.53 114.9 37.54-91.16 36.41-91.16 36.41l-7.39 11.52s116.9-14.22 116.9-47.36c-.01-33.27-133.25-49.06-133.25-49.06" style="fill:url(#XMLID_27_)"/><linearGradient id="XMLID_28_" x1="294.824" x2="287.708" y1="273.845" y2="269.891" gradientTransform="matrix(1 0 0 -1 0 514)" gradientUnits="userSpaceOnUse"><stop offset="0" style="stop-color:#e8e8e8"/><stop offset=".067" style="stop-color:#d6d7d7"/><stop offset=".277" style="stop-color:#a4a8a8"/><stop offset=".475" style="stop-color:#7d8283"/><stop offset=".655" style="stop-color:#606769"/><stop offset=".812" style="stop-color:#4f5759"/><stop offset=".929" style="stop-color:#495153"/></linearGradient><path id="XMLID_8_" d="m282.46 231.68 16.07 21.76-13.65-11.52z" style="fill:url(#XMLID_28_)"/><linearGradient id="XMLID_29_" x1="225.612" x2="223.241" y1="274.61" y2="299.506" gradientTransform="matrix(1 0 0 -1 0 514)" gradientUnits="userSpaceOnUse"><stop offset="0" style="stop-color:#e8e8e8"/><stop offset=".124" style="stop-color:#c9cacb"/><stop offset=".327" style="stop-color:#9b9fa0"/><stop offset=".522" style="stop-color:#787d7f"/><stop offset=".705" style="stop-color:#5e6567"/><stop offset=".869" style="stop-color:#4e5658"/><stop offset="1" style="stop-color:#495153"/></linearGradient><path id="XMLID_4_" d="m166.56 239.08 21.05-8.53s79.07 3.27 94.85 1.14l2.42 10.24c0-.01-33 6.25-118.32-2.85" style="fill:url(#XMLID_29_)"/><linearGradient id="XMLID_30_" x1="231.141" x2="232.326" y1="299.695" y2="271.25" gradientTransform="matrix(1 0 0 -1 0 514)" gradientUnits="userSpaceOnUse"><stop offset="0" style="stop-color:#e8e8e8"/><stop offset=".067" style="stop-color:#d6d7d7"/><stop offset=".277" style="stop-color:#a4a8a8"/><stop offset=".475" style="stop-color:#7d8283"/><stop offset=".655" style="stop-color:#606769"/><stop offset=".812" style="stop-color:#4f5759"/><stop offset=".929" style="stop-color:#495153"/></linearGradient><path id="XMLID_3_" d="m284.88 241.92 13.51 11.52s-74.37 4.98-128.13-1.85l-3.7-12.51s73.09 6.68 118.32 2.84" style="fill:url(#XMLID_30_)"/></g></g></svg>