<svg xmlns="http://www.w3.org/2000/svg" xmlns:xlink="http://www.w3.org/1999/xlink" width="187.086" height="42.148"><defs><linearGradient id="d"><stop offset="0" style="stop-color:#999;stop-opacity:1"/><stop offset="1" style="stop-color:#999;stop-opacity:0"/></linearGradient><linearGradient id="c"><stop offset="0" style="stop-color:#000;stop-opacity:1"/><stop offset="1" style="stop-color:#000;stop-opacity:0"/></linearGradient><linearGradient id="b"><stop offset="0" style="stop-color:#000;stop-opacity:1"/><stop offset="1" style="stop-color:#000;stop-opacity:0"/></linearGradient><linearGradient id="a"><stop offset="0" style="stop-color:#000;stop-opacity:1"/><stop offset="1" style="stop-color:#000;stop-opacity:0"/></linearGradient><linearGradient xlink:href="#a" id="g" x1="33.567" x2="22.113" y1="18.096" y2="4.176" gradientTransform="translate(-2 20)" gradientUnits="userSpaceOnUse"/><linearGradient xlink:href="#b" id="h" x1="-1.057" x2="14.537" y1="-7.365" y2="-.603" gradientTransform="translate(-2 20)" gradientUnits="userSpaceOnUse"/><linearGradient xlink:href="#c" id="i" x1="8.458" x2="15.858" y1="15.805" y2="5.674" gradientTransform="translate(-2 20)" gradientUnits="userSpaceOnUse"/><linearGradient xlink:href="#d" id="j" x1="19.735" x2="20.263" y1="-19.171" y2="-4.106" gradientTransform="translate(-2 20)" gradientUnits="userSpaceOnUse"/><filter id="e"><feGaussianBlur stdDeviation=".179"/></filter><filter id="f" width="2.803" height="2.89" x="-.901" y="-.945"><feGaussianBlur stdDeviation="2.825"/></filter></defs><path d="m4.192 21.744-23.767 3.765-10.924-21.44 17.015-17.016L7.956-2.022z" style="opacity:1;fill:#7b7c7f;fill-opacity:1;fill-rule:nonzero;stroke:#fff;stroke-width:0;marker:none;marker-start:none;marker-mid:none;marker-end:none;stroke-miterlimit:4;stroke-dasharray:none;stroke-opacity:1;visibility:visible;display:inline;overflow:visible;enable-background:accumulate" transform="rotate(8.987 -93.005 173.256)scale(.74126)"/><path d="m4.192 21.744-23.767 3.765-10.924-21.44 17.015-17.016L7.956-2.022z" style="opacity:1;fill:#b8b9bd;fill-opacity:1;fill-rule:nonzero;stroke:#fff;stroke-width:0;marker:none;marker-start:none;marker-mid:none;marker-end:none;stroke-miterlimit:4;stroke-dasharray:none;stroke-opacity:1;visibility:visible;display:inline;overflow:visible;filter:url(#e);enable-background:accumulate" transform="matrix(.7177 .11399 -.1135 .72075 25.758 16.483)"/><path d="m4.555 16.39 11.9 2.037 1.332-11.34.166 12.645 12.666-3.37-10.51 4.796-2.095-.175 7.77 10.675-8.237-8.698-8.104 8.746 5.796-10.5z" style="fill:#fefefe;fill-opacity:1;fill-rule:evenodd;stroke:#000;stroke-width:0;stroke-linecap:butt;stroke-linejoin:miter;stroke-miterlimit:4;stroke-dasharray:none;stroke-opacity:1"/><path d="m20.66 2.515-4.644.234-1.657-4.345 3.62-2.92 3.895 2.541z" style="opacity:1;fill:#e6e6e6;fill-opacity:1;fill-rule:nonzero;stroke:#fff;stroke-width:0;marker:none;marker-start:none;marker-mid:none;marker-end:none;stroke-miterlimit:4;stroke-dasharray:none;stroke-opacity:1;visibility:visible;display:inline;overflow:visible;filter:url(#f);enable-background:accumulate" transform="matrix(1.71138 .07687 -.07192 1.829 -13.389 20.869)"/><path d="m4.555 16.39 11.9 2.037 1.332-11.34.166 12.645 12.666-3.37-10.51 4.796-2.095-.175 7.77 10.675-8.237-8.698-8.104 8.746 5.796-10.5z" style="fill:url(#g);fill-opacity:1;fill-rule:evenodd;stroke:#000;stroke-width:0;stroke-linecap:butt;stroke-linejoin:miter;stroke-miterlimit:4;stroke-dasharray:none;stroke-opacity:1"/><path d="m4.555 16.39 11.9 2.037 1.332-11.34.166 12.645 12.666-3.37-10.51 4.796-2.095-.175 7.77 10.675-8.237-8.698-8.104 8.746 5.796-10.5z" style="fill:url(#h);fill-opacity:1;fill-rule:evenodd;stroke:#000;stroke-width:0;stroke-linecap:butt;stroke-linejoin:miter;stroke-miterlimit:4;stroke-dasharray:none;stroke-opacity:1"/><g style="fill:#000;fill-rule:nonzero;stroke:none;stroke-width:1pt;stroke-linecap:butt;stroke-linejoin:miter;stroke-dasharray:none"><path d="M0 9.876h16.831V8.067H5.147V0H0z" style="fill:#000" transform="translate(129.526 20.418)"/></g><g style="fill:#000;fill-rule:nonzero;stroke:none;stroke-width:1pt;stroke-linecap:butt;stroke-linejoin:miter;stroke-dasharray:none"><path d="M0 0v9.876h5.147V5.842h9.04v4.034h5.148V0h-5.148v4.033h-9.04V0z" style="fill:#000" transform="translate(52.86 20.418)"/></g><g style="fill:#000;fill-rule:nonzero;stroke:none;stroke-width:1pt;stroke-linecap:butt;stroke-linejoin:miter;stroke-dasharray:none"><path d="M15.718 0 10.85 4.173 5.98 0H0l7.233 5.842v4.034h5.147V5.842C12.518 5.703 19.195 0 19.195 0z" style="fill:#000" transform="translate(90.797 20.418)"/></g><g style="fill:#000;fill-rule:nonzero;stroke:none;stroke-width:1pt;stroke-linecap:butt;stroke-linejoin:miter;stroke-dasharray:none"><path d="M0 9.876h17.108v-1.67H5.146V5.703h11.545v-1.67H5.146V1.67h11.823V0H0z" style="fill:#000" transform="translate(147.61 20.418)"/></g><g style="fill:#000;fill-rule:nonzero;stroke:none;stroke-width:1pt;stroke-linecap:butt;stroke-linejoin:miter;stroke-dasharray:none"><path d="M.14 3.06c0 2.226 2.642 2.783 6.398 3.2 3.756.556 5.564.695 5.564 1.53 0 .695-1.112 1.112-4.312 1.112-3.756 0-6.955-.834-7.372-.973 0 .14-.418 2.087-.418 2.087.418.138 3.478.834 7.929.834 5.008 0 9.737-.834 9.737-3.478 0-1.807-1.947-2.781-7.511-3.338-2.226-.278-4.59-.417-4.59-1.252 0-.695.556-.973 3.894-.973 3.199 0 5.982.695 6.399.695l.417-1.808C15.719.556 12.52 0 8.207 0 4.73 0 .14.418.14 3.06" style="fill:#000" transform="translate(109.327 20)"/></g><g style="fill:#000;fill-rule:nonzero;stroke:none;stroke-width:1pt;stroke-linecap:butt;stroke-linejoin:miter;stroke-dasharray:none"><path d="M0 5.426c0 3.198 3.478 5.424 10.71 5.424 2.782 0 5.703-.417 6.26-.556l.417-2.087c-.557.139-3.06.417-5.564.417-4.034 0-6.816-.974-6.816-3.198 0-2.365 2.643-3.339 6.816-3.339 2.364 0 5.007.278 5.564.417L16.97.418C16.274.278 13.63 0 10.85 0 3.478 0 0 2.087 0 5.426" style="fill:#000" transform="translate(33.482 20)"/></g><g style="fill:#000;fill-rule:nonzero;stroke:none;stroke-width:1pt;stroke-linecap:butt;stroke-linejoin:miter;stroke-dasharray:none"><path d="M0 10.016h5.148V1.947c.695-.138 1.529-.138 2.642-.138 1.252 0 2.226 0 2.921.138 1.53.14 2.086.696 2.086 1.392 0 .555-.695 1.252-2.225 1.39-1.113.14-1.808.279-2.643.279-.556 0-.974 0-1.67-.14l5.843 5.148h6.538L12.797 5.98c1.113-.138 1.53-.138 2.782-.556 1.53-.417 2.226-1.252 2.365-2.086 0-1.252-.835-2.226-3.755-2.921Q11.894 0 7.929 0C4.174 0 .418.14 0 .14z" style="fill:#000" transform="translate(74.075 20.278)"/></g><g style="fill:#000;fill-rule:nonzero;stroke:none;stroke-width:1pt;stroke-linecap:butt;stroke-linejoin:miter;stroke-dasharray:none"><path d="M0 10.016h5.147V1.947c.834-.138 1.53-.138 2.781-.138s2.087 0 2.922.138c1.53.14 2.086.696 1.947 1.392 0 .555-.695 1.252-2.225 1.39-.974.14-1.669.279-2.644.279-.556 0-.974 0-1.529-.14l5.842 5.148h6.537L12.797 5.98c1.252-.138 1.669-.138 2.782-.556 1.53-.417 2.365-1.252 2.365-2.086 0-1.252-.696-2.226-3.618-2.921C12.658.14 10.71 0 7.928 0 4.312 0 .417.14 0 .14z" style="fill:#000" transform="translate(166.308 20.278)"/></g><path d="m4.555 16.39 11.9 2.037 1.332-11.34.166 12.645 12.666-3.37-10.51 4.796-2.095-.175 7.77 10.675-8.237-8.698-8.104 8.746 5.796-10.5z" style="fill:url(#i);fill-opacity:1;fill-rule:evenodd;stroke:#000;stroke-width:0;stroke-linecap:butt;stroke-linejoin:miter;stroke-miterlimit:4;stroke-dasharray:none;stroke-opacity:1"/><path d="m4.557 16.388 13.115 4.419-1.283-2.423zM9.43 31.716l8.479-10.937-2.71.416z" style="fill:#000;fill-rule:evenodd;stroke:#000;stroke-width:0;stroke-linecap:butt;stroke-linejoin:miter;stroke-miterlimit:4;stroke-dasharray:none;stroke-opacity:1"/><path d="m25.859 31.687-7.221-9.502-1.153-1.516 2.706.442z" style="fill:#000;fill-rule:evenodd;stroke:#000;stroke-width:0;stroke-linecap:butt;stroke-linejoin:miter;stroke-miterlimit:4;stroke-dasharray:none;stroke-opacity:1"/><path d="m17.79 7.08-.17 13.838 1.912-1.966z" style="fill:#000;fill-rule:evenodd;stroke:#000;stroke-width:0;stroke-linecap:butt;stroke-linejoin:miter;stroke-miterlimit:4;stroke-dasharray:none;stroke-opacity:1"/><path d="m30.617 16.356-13.102 4.458 1.276-2.427z" style="fill:#000;fill-rule:evenodd;stroke:#000;stroke-width:0;stroke-linecap:butt;stroke-linejoin:miter;stroke-miterlimit:4;stroke-dasharray:none;stroke-opacity:1"/><path d="m4.555 16.39 11.9 2.037 1.332-11.34.166 12.645 12.666-3.37-10.51 4.796-2.095-.175 7.77 10.675-8.237-8.698-8.104 8.746 5.796-10.5z" style="fill:url(#j);fill-opacity:1;fill-rule:evenodd;stroke:#000;stroke-width:0;stroke-linecap:butt;stroke-linejoin:miter;stroke-miterlimit:4;stroke-dasharray:none;stroke-opacity:1"/></svg>