<svg xmlns="http://www.w3.org/2000/svg" width="142.689" height="24.094" viewBox="0 0 37.753 6.375"><defs><clipPath id="a"><path d="M642.63 52.165h113.386V27.08H642.63z" clip-rule="evenodd"/></clipPath><clipPath id="b"><path d="M0 595h841.89V-.276H0z"/></clipPath><clipPath id="c"><path d="M0 595.32h841.92V0H0z"/></clipPath></defs><g clip-path="url(#a)" transform="matrix(.35278 0 0 -.35278 -227.575 17.167)"><g clip-path="url(#b)"><g clip-path="url(#c)"><path fill="#ed1c24" d="M645.094 30.593h15.663v15.663h-15.663z"/><path fill="#fff" stroke="#fff" stroke-miterlimit="3.864" stroke-width=".078" d="m652.926 41.671-6.51-5.015 6.51 8.428 6.51-8.428zm0-4.89-6.51-5.015 6.51 8.428 6.51-8.428z"/><g fill="#231f20"><path d="M676.801 34.602a7.4 7.4 0 0 0-2.699-2.661 7.13 7.13 0 0 0-3.681-1q-3.076 0-5.247 2.189c-2.171 2.189-2.171 3.227-2.171 5.303a7.25 7.25 0 0 0 2.171 5.304q2.17 2.19 5.247 2.19a7.14 7.14 0 0 0 3.662-.982 7.4 7.4 0 0 0 2.699-2.661l-2.68-1.623a4.35 4.35 0 0 1-1.567 1.529 4.1 4.1 0 0 1-2.114.566 4.1 4.1 0 0 1-3.039-1.284q-1.245-1.264-1.245-3.039 0-1.792 1.245-3.057c1.245-1.265 1.844-1.265 3.039-1.265a4.2 4.2 0 0 1 2.133.567q.981.585 1.548 1.566zm1.679-3.303h3.171V45.53h-3.171zm12.306 11.23v-11.23h-3.171v11.23h-4.643v3.001h12.495v-3.001z"/><path fill-rule="evenodd" d="M699.883 42.812v-3.737h3.606q.981 0 1.472.397.566.453.566 1.472 0 1-.509 1.434c-.509.434-.85.434-1.529.434zm2.435-6.379h-2.435v-5.134h-3.076v14.25h6.757q2.416 0 3.681-1.038 1.377-1.133 1.377-3.435 0-1.812-.811-2.926-.812-1.094-2.322-1.491l3.756-5.36h-3.605zm22.536 2a7.25 7.25 0 0 0-2.17-5.303q-2.17-2.19-5.247-2.189c-3.077.001-3.8.729-5.248 2.189s-2.17 3.227-2.17 5.303.724 3.845 2.17 5.304 3.197 2.19 5.248 2.19 3.8-.73 5.247-2.19a7.25 7.25 0 0 0 2.17-5.304m-3.133 0q0 1.813-1.264 3.096-1.246 1.302-3.02 1.302a4.06 4.06 0 0 1-3.02-1.302 4.3 4.3 0 0 1-1.265-3.096q0-1.793 1.246-3.057a4.1 4.1 0 0 1 3.039-1.265 4.08 4.08 0 0 1 3.02 1.265q1.264 1.283 1.264 3.057m13.76 8.872q0-.51-.359-.869a1.18 1.18 0 0 0-.868-.358q-.529 0-.887.34c-.358.34-.359.522-.359.887q0 .509.359.925.377.433.887.433c.51 0 .629-.138.868-.415s.359-.591.359-.943m-4.53 0q0-.51-.359-.869a1.18 1.18 0 0 0-.868-.358q-.548 0-.906.34-.34.357-.34.887a1.4 1.4 0 0 0 .359.943q.358.415.887.415.49 0 .849-.415a1.32 1.32 0 0 0 .378-.943m6.379-16.006h-10.739V45.53h10.739v-2.831h-7.682v-2.68h6.776v-2.605h-6.776v-3.171h7.682z"/><path d="m748.183 31.299-5.663 9.362v-9.362h-3.095V45.53h3.737l5.851-9.758v9.758h3.096V31.299z"/></g></g></g></g></svg>