<svg width="48" height="48" viewBox="0 0 48 48" fill="none" xmlns="http://www.w3.org/2000/svg">
<g clip-path="url(#clip0_143_4300)">
<path d="M4.38716 20.6396L4.38739 20.6393C6.66289 17.805 10.4056 14.0695 14.174 10.9976C16.0576 9.46212 17.9316 8.10502 19.6398 7.11652C21.3716 6.11441 22.823 5.5 24.12 5.5C25.417 5.5 26.8684 6.11441 28.6002 7.11652C30.3085 8.10502 32.1824 9.46212 34.066 10.9976C37.8344 14.0695 41.5771 17.805 43.8526 20.6393L43.8528 20.6396C44.4096 21.332 44.74 22.1862 44.74 23.0825V25.9475C44.74 26.592 44.6818 27.0482 44.2023 27.3791C43.9876 27.5272 43.6503 27.5693 43.3946 27.502C43.1194 27.4297 42.8842 27.2859 42.6109 27.0601L42.6106 27.0599C38.9464 24.0378 35.2083 21.0109 31.9391 18.7612C30.2992 17.6328 28.7465 16.7151 27.4166 16.0773C26.1084 15.45 24.9488 15.06 24.12 15.06C23.2912 15.06 22.1316 15.45 20.8234 16.0773C19.4935 16.7151 17.9408 17.6328 16.3009 18.7612C13.0317 21.0109 9.29362 24.0378 5.62937 27.0599L5.62909 27.0601C5.35578 27.2859 5.12062 27.4297 4.8454 27.502C4.58969 27.5693 4.2524 27.5272 4.03772 27.3791C3.55825 27.0482 3.5 26.592 3.5 25.9475V23.0825C3.5 22.1862 3.83036 21.332 4.38716 20.6396ZM43.1358 21.2147L42.9857 21.0281H42.983C40.7678 18.3096 37.1041 14.6616 33.4847 11.7112C31.6324 10.2013 29.776 8.86129 28.1392 7.91411C27.3162 7.43787 26.5372 7.06826 25.8595 6.81631C25.193 6.56857 24.5862 6.42 24.12 6.42C23.6538 6.42 23.047 6.56857 22.3805 6.81631C21.7028 7.06826 20.9238 7.43787 20.1008 7.91411C18.464 8.86129 16.6076 10.2013 14.7553 11.7112C11.1359 14.6616 7.47218 18.3096 5.25698 21.0281H5.25431L5.1042 21.2147C4.66517 21.7603 4.42 22.4048 4.42 23.0825V25.8125V26.8725L5.23801 26.1983C8.84991 23.2214 12.5136 20.2524 15.7803 18.0044C17.4493 16.8559 18.9742 15.885 20.3741 15.2017C21.777 14.5168 23.0164 14.14 24.12 14.14C25.2236 14.14 26.463 14.5168 27.8659 15.2017C29.2658 15.885 30.7907 16.8559 32.4597 18.0044C35.7264 20.2524 39.3901 23.2214 43.002 26.1983L43.82 26.8725V25.8125V23.0825C43.82 22.4047 43.5748 21.7603 43.1358 21.2147ZM4.38716 35.9996L4.38739 35.9993C6.66289 33.165 10.4056 29.4295 14.174 26.3575C16.0576 24.8221 17.9316 23.465 19.6398 22.4765C21.3716 21.4744 22.823 20.86 24.12 20.86C25.417 20.86 26.8684 21.4744 28.6002 22.4765C30.3085 23.465 32.1824 24.8221 34.066 26.3575C37.8344 29.4295 41.5771 33.165 43.8526 35.9993L43.8528 35.9996C44.4096 36.692 44.74 37.5462 44.74 38.4425V41.3075C44.74 41.952 44.6818 42.4082 44.2023 42.7391C43.9876 42.8872 43.6503 42.9293 43.3946 42.862C43.1194 42.7897 42.8842 42.6459 42.6109 42.4201L42.6106 42.4199C38.9464 39.3978 35.2083 36.3709 31.9391 34.1212C30.2992 32.9928 28.7465 32.0751 27.4166 31.4373C26.1084 30.81 24.9488 30.42 24.12 30.42C23.2912 30.42 22.1316 30.81 20.8234 31.4373C19.4935 32.0751 17.9408 32.9928 16.3009 34.1212C13.0317 36.3709 9.29362 39.3978 5.62937 42.4199L5.62909 42.4201C5.35578 42.6459 5.12062 42.7897 4.8454 42.862C4.58969 42.9293 4.2524 42.8872 4.03772 42.7391C3.55825 42.4082 3.5 41.952 3.5 41.3075V38.4425C3.5 37.5462 3.83036 36.692 4.38716 35.9996ZM43.1358 36.5747L42.9857 36.3881H42.983C40.7678 33.6696 37.1041 30.0216 33.4847 27.0712C31.6324 25.5613 29.776 24.2213 28.1392 23.2741C27.3162 22.7979 26.5372 22.4283 25.8595 22.1763C25.193 21.9286 24.5862 21.78 24.12 21.78C23.6538 21.78 23.047 21.9286 22.3805 22.1763C21.7028 22.4283 20.9238 22.7979 20.1008 23.2741C18.464 24.2213 16.6076 25.5613 14.7553 27.0712C11.1359 30.0216 7.47218 33.6696 5.25698 36.3881H5.25431L5.1042 36.5747C4.66517 37.1203 4.42 37.7648 4.42 38.4425V41.1725V42.2325L5.23801 41.5583C8.84991 38.5814 12.5136 35.6124 15.7803 33.3644C17.4493 32.2159 18.9742 31.245 20.3741 30.5617C21.777 29.8768 23.0164 29.5 24.12 29.5C25.2236 29.5 26.463 29.8768 27.8659 30.5617C29.2658 31.245 30.7907 32.2159 32.4597 33.3644C35.7264 35.6124 39.3901 38.5814 43.002 41.5583L43.82 42.2325V41.1725V38.4425C43.82 37.7647 43.5748 37.1203 43.1358 36.5747Z" stroke="black"/>
</g>
<defs>
<clipPath id="clip0_143_4300">
<rect width="48" height="48" fill="white"/>
</clipPath>
</defs>
</svg>
