<svg xmlns="http://www.w3.org/2000/svg" width="142.689" height="24.094" viewBox="0 0 37.753 6.375" xmlns:v="https://vecta.io/nano"><defs><clipPath id="A"><path d="M642.63 52.165h113.386V27.08H642.63z" clip-rule="evenodd"/></clipPath><clipPath id="B"><path d="M0 595h841.89V-.276H0z"/></clipPath><clipPath id="C"><path d="M0 595.32h841.92V0H0z"/></clipPath></defs><g clip-path="url(#A)" transform="matrix(.352778 0 0 -.352778 -227.574816 17.167224)"><g clip-path="url(#B)"><g clip-path="url(#C)"><path d="M645.094 30.593h15.663v15.663h-15.663z" fill="#ed1c24"/><g fill="#fff" stroke="#fff" stroke-width=".078" stroke-miterlimit="3.864"><path d="M652.926 41.671l-6.51-5.015 6.51 8.428 6.51-8.428zm0-4.89l-6.51-5.015 6.51 8.428 6.51-8.428z"/></g><g fill="#231f20"><path d="M676.801 34.602a7.4 7.4 0 0 0-2.699-2.661 7.13 7.13 0 0 0-3.681-1c-2.051 0-3.8.729-5.247 2.189s-2.171 3.227-2.171 5.303a7.25 7.25 0 0 0 2.171 5.304c1.447 1.46 3.196 2.19 5.247 2.19 1.321 0 2.542-.328 3.662-.982 1.132-.654 2.032-1.541 2.699-2.661l-2.68-1.623a4.35 4.35 0 0 1-1.567 1.529c-.642.377-1.346.566-2.114.566a4.11 4.11 0 0 1-3.039-1.284c-.83-.843-1.245-1.856-1.245-3.039 0-1.195.415-2.214 1.245-3.057s1.844-1.265 3.039-1.265a4.19 4.19 0 0 1 2.133.567c.654.39 1.17.912 1.548 1.566l2.699-1.642m1.679-3.303h3.171V45.53h-3.171zm12.306 11.23v-11.23h-3.171v11.23h-4.643v3.001h12.495v-3.001h-4.681"/><g fill-rule="evenodd"><path d="M699.883 42.812v-3.737h3.606c.654 0 1.145.132 1.472.397.377.302.566.792.566 1.472 0 .667-.17 1.145-.509 1.434s-.85.434-1.529.434zm2.435-6.379h-2.435v-5.134h-3.076v14.25h6.757c1.611 0 2.838-.346 3.681-1.038.918-.755 1.377-1.9 1.377-3.435 0-1.208-.27-2.183-.811-2.926-.541-.73-1.315-1.226-2.322-1.491l3.756-5.36h-3.605l-3.322 5.134m22.536 2a7.25 7.25 0 0 0-2.17-5.303c-1.447-1.46-3.196-2.189-5.247-2.189s-3.8.729-5.248 2.189-2.17 3.227-2.17 5.303.724 3.845 2.17 5.304 3.197 2.19 5.248 2.19 3.8-.73 5.247-2.19a7.25 7.25 0 0 0 2.17-5.304zm-3.133 0c0 1.209-.421 2.24-1.264 3.096-.831.868-1.837 1.302-3.02 1.302a4.06 4.06 0 0 1-3.02-1.302 4.29 4.29 0 0 1-1.265-3.096c0-1.195.415-2.214 1.246-3.057a4.1 4.1 0 0 1 3.039-1.265 4.08 4.08 0 0 1 3.02 1.265c.843.855 1.264 1.875 1.264 3.057m13.76 8.872c0-.34-.12-.63-.359-.869a1.18 1.18 0 0 0-.868-.358c-.353 0-.648.113-.887.34s-.359.522-.359.887c0 .339.12.648.359.925.251.289.547.433.887.433s.629-.138.868-.415.359-.591.359-.943zm-4.53 0c0-.34-.12-.63-.359-.869a1.18 1.18 0 0 0-.868-.358c-.365 0-.667.113-.906.34-.227.238-.34.534-.34.887a1.4 1.4 0 0 0 .359.943c.239.277.534.415.887.415.327 0 .61-.138.849-.415a1.32 1.32 0 0 0 .378-.943zm6.379-16.006h-10.739V45.53h10.739v-2.831h-7.682v-2.68h6.776v-2.605h-6.776v-3.171h7.682v-2.944"/></g><path d="M748.183 31.299l-5.663 9.362v-9.362h-3.095V45.53h3.737l5.851-9.758v9.758h3.096V31.299h-3.926"/></g></g></g></g></svg>