<svg xmlns="http://www.w3.org/2000/svg" xml:space="preserve" id="Layer_1" x="0" y="0" viewBox="0 0 512 512"><style>.st8{fill:#bdbcbc}.st12{fill:#fff}</style><g id="XMLID_1_"><linearGradient id="XMLID_3_" x1="-702.369" x2="-701.499" y1="798.387" y2="798.387" gradientTransform="matrix(0 510.652 510.652 0 -407442.156 358699.969)" gradientUnits="userSpaceOnUse"><stop offset="0" style="stop-color:#fff"/><stop offset=".653" style="stop-color:#828384"/><stop offset="1" style="stop-color:#2a282c"/></linearGradient><path id="XMLID_5_" d="M25.32 40.62c-3.65.42-7.02.7-9.96 1.12-1.4.14-3.09.42-3.93.7-5.61 1.4-8.84 7.02-8.28 12.35 0 .28 1.4 8.14 1.82 10.52 3.37 18.38 7.02 36.76 10.95 55.01 3.93 18.1 8.28 36.2 12.77 54.16 2.81 10.95 5.61 21.75 8.7 32.7 2.1 8 8.98 31.71 13.05 45.18 4.49 15.15 9.26 30.03 14.03 45.04 5.33 16.28 22.03 63.99 24.98 71.56 13.61 34.66 28.2 61.46 53.46 81.39 24.56 19.36 50.66 27.64 112.82 27.64 62.3 0 88.26-8.28 112.82-27.64 25.4-20.07 39.85-46.73 53.46-81.39 3.09-7.58 19.65-55.15 24.98-71.56 4.91-15.01 9.54-29.89 14.17-45.04 4.07-13.47 10.8-37.19 13.05-45.18 2.95-10.95 5.89-21.75 8.7-32.7 4.63-17.96 8.84-36.06 12.77-54.16 3.93-18.24 7.72-36.62 10.95-55.01.42-2.53 1.82-10.24 1.82-10.52.7-5.33-2.67-10.8-8.14-12.35-.84-.28-2.53-.42-3.93-.7-2.95-.42-6.31-.84-9.96-1.12-33.82-2.95-141.02-6.74-230.69-6.74-89.38.01-196.59 3.8-230.41 6.74M371.5 266.68c-3.09 9.4-21.75 55.15-24.98 62.58-7.02 16.56-14.45 32.27-26.1 42.8-8.42 7.72-20.49 14.73-48.41 15.86-5.33.28-12.21.28-16 .28s-10.66 0-16-.28c-27.78-1.12-39.85-8.14-48.41-15.86-11.65-10.52-19.08-26.24-26.1-42.8-3.23-7.44-21.89-53.18-24.98-62.58 38.17 1.96 80.41 3.37 115.49 3.37s77.46-1.4 115.49-3.37" style="fill:url(#XMLID_3_)"/><linearGradient id="XMLID_4_" x1="-703.729" x2="-702.859" y1="795.04" y2="795.04" gradientTransform="matrix(0 -361.6539 -361.6539 0 287785.719 -254079.531)" gradientUnits="userSpaceOnUse"><stop offset="0" style="stop-color:#fcfcfc"/><stop offset=".492" style="stop-color:#4b4a4d"/><stop offset=".492" style="stop-color:#4b4a4d"/><stop offset=".789" style="stop-color:#2a282c"/><stop offset="1" style="stop-color:#2a282c"/></linearGradient><path id="XMLID_6_" d="M38.79 90.58c1.12 3.93 2.1 7.44 3.09 11.09 5.61 20.49 11.79 41.4 18.1 62.16 12.35 40.41 24.98 81.67 40.69 122.64 8.28 21.75 16 40.97 23.71 58.66 6.74 15.72 15.3 33.68 27.78 48.41 12.77 15.01 26.8 24.56 44.34 30.17 15.15 4.91 32.98 7.02 59.78 7.02s44.48-2.1 59.78-7.02c17.54-5.61 31.57-15.15 44.2-30.17 12.49-14.73 21.05-32.7 27.78-48.41 7.72-17.68 15.44-36.9 23.71-58.66 15.72-41.11 28.35-82.23 40.69-122.64 6.31-20.77 12.35-41.68 18.1-62.16.84-3.23 1.82-6.31 2.67-9.54 4.49-15.86 9.12-32.13 11.93-47.71-4.21 14.73-21.05 71-40.97 117.03-23.71 54.87-61.88 98.93-71.42 106.51l-.42.42-1.54 1.12c-.42 1.4-.98 2.81-1.12 3.23-.98 2.39-1.82 4.63-2.67 7.02-1.82 4.91-3.79 9.68-5.61 14.45-3.93 9.68-7.72 19.36-11.79 28.91-4.07 9.54-8 18.94-13.05 28.06-4.63 8.42-10.24 16.42-17.54 22.45-7.44 6.31-16.56 10.1-26.1 12.07-9.96 2.1-20.35 2.39-30.59 2.53h-12.34c-10.24 0-20.49-.42-30.59-2.53-9.54-1.96-18.52-5.89-25.96-12.07-7.44-6.17-12.91-14.17-17.54-22.45-4.91-9.12-8.98-18.66-13.05-28.06-4.07-9.54-8-19.22-11.79-28.91-1.96-4.77-3.79-9.68-5.61-14.45-.84-2.25-1.82-4.63-2.67-7.02-.14-.42-.7-1.82-1.12-3.23l-1.54-1.12-.42-.42c-9.54-7.58-48.41-53.6-72.13-108.61C47.49 112.89 31.22 57.6 27.29 43.85c2.38 14.88 7.01 31.01 11.5 46.73" style="fill:url(#XMLID_4_)"/><linearGradient id="XMLID_8_" x1="-701.624" x2="-700.754" y1="796.46" y2="796.46" gradientTransform="matrix(540.2397 0 0 -540.2397 379065.844 430516.719)" gradientUnits="userSpaceOnUse"><stop offset="0" style="stop-color:#fff"/><stop offset="1" style="stop-color:#fff"/></linearGradient><path id="XMLID_7_" d="M472.81 92.12c-.84 3.23-1.82 6.31-2.67 9.54-5.61 20.49-11.79 41.4-18.1 62.16-12.35 40.41-26.38 81.53-41.96 122.22-8.28 21.47-15.86 40.55-23.57 58.09-6.74 15.44-15.15 33.4-27.5 47.99-12.63 14.87-26.52 24.42-43.92 29.89-15.01 4.91-32.84 6.88-59.22 6.88s-44.2-2.1-59.22-6.88c-17.26-5.61-31.29-15.15-43.92-29.89-12.35-14.59-20.91-32.41-27.5-47.99-7.58-17.54-15.3-36.62-23.57-58.09-15.58-40.69-29.61-81.81-41.96-122.22-6.31-20.77-12.35-41.68-18.1-62.16-.98-3.65-2.1-7.3-3.09-11.09-4.91-16.98-9.82-34.52-12.21-50.1l-1.26.14-4.21.42c3.09 19.65 9.96 42.1 15.44 62.16 5.75 20.77 11.93 41.54 18.1 62.16 12.63 41.4 26.66 82.23 42.1 122.64 7.44 19.65 15.3 39.01 23.57 58.37 7.58 17.54 16.14 34.8 28.49 49.25 27.64 32.55 60.2 38.73 107.21 38.73s79.56-6.17 107.21-38.73c12.35-14.59 20.91-31.85 28.49-49.25 8.28-19.22 16.14-38.73 23.57-58.37 15.44-40.41 29.47-81.25 42.1-122.64 6.31-20.77 12.35-41.4 18.1-62.16 5.47-20.07 12.07-41.82 15.58-62.16l-4.21-.42-1.12-.14c-2.68 16.71-7.73 34.53-12.65 51.65" style="fill:url(#XMLID_8_)"/><linearGradient id="XMLID_9_" x1="-704.998" x2="-704.128" y1="791.77" y2="791.77" gradientTransform="matrix(0 -135.4147 -135.4147 0 107473.281 -95085.344)" gradientUnits="userSpaceOnUse"><stop offset="0" style="stop-color:#4f4c4c"/><stop offset="1" style="stop-color:#231f20"/></linearGradient><path id="XMLID_10_" d="M371.36 263.6c-42.52 2.1-83.49 3.23-115.35 3.23s-72.83-1.12-115.35-3.23l-4.63-.28 1.4 4.49c3.23 9.54 21.75 55.15 25.12 62.72 6.88 16.14 14.59 32.84 26.94 43.92 8.42 7.58 20.91 15.44 50.38 16.56l16.14.28 16.14-.28c29.47-1.12 42.1-8.98 50.38-16.7 12.35-11.09 20.07-27.78 26.94-43.92 3.23-7.58 21.89-53.18 25.12-62.72l1.4-4.49zm-4.49 6.59c-5.47 14.59-20.49 51.36-23.29 57.81-6.6 15.44-13.89 31.43-25.4 41.68-7.86 7.16-18.94 14.03-46.31 15.01l-15.86.14-15.86-.14c-27.36-1.12-38.87-8.14-46.31-15.01-11.37-10.24-18.8-26.24-25.26-41.68-2.81-6.45-17.82-43.22-23.29-57.81 40.83 1.96 80.12 3.09 110.86 3.09s69.89-1.12 110.72-3.09" style="fill:url(#XMLID_9_)"/><linearGradient id="XMLID_13_" x1="-704.058" x2="-703.187" y1="794.39" y2="794.39" gradientTransform="matrix(0 -271.3978 -271.3978 0 215851.469 -190809.625)" gradientUnits="userSpaceOnUse"><stop offset="0" style="stop-color:#343437"/><stop offset=".004" style="stop-color:#343437"/><stop offset=".157" style="stop-color:#fff"/><stop offset=".371" style="stop-color:#c4c6c7"/><stop offset="1" style="stop-color:#8a8d90"/></linearGradient><path id="XMLID_11_" d="M27.71 40.48s10.95 50.1 28.77 98.23c2.81 7.44 5.75 14.87 8.84 22.17 23.29 53.88 64.55 96.96 75.07 105.94 2.81.14 6.88.42 9.54.42 7.44.42 14.73.7 22.17.98 14.59.56 29.05 1.12 43.64 1.4a1918 1918 0 0 0 80.26 0c14.59-.28 29.05-.7 43.64-1.4 7.3-.28 14.73-.7 22.17-.98 2.81-.14 6.88-.42 9.54-.42 10.52-8.98 51.78-52.06 75.07-105.94 12.35-28.77 22.45-61.46 28.91-85.46v-.14c5.61-20.63 8.7-34.94 8.7-34.94-76.06-4.63-152.11-6.45-228.31-6.45-75.9.14-151.96 1.96-228.01 6.59" style="fill:url(#XMLID_13_)"/><radialGradient id="XMLID_14_" cx="-700.791" cy="796.03" r=".87" gradientTransform="matrix(336.4073 0 0 -336.4073 235777.219 267798.906)" gradientUnits="userSpaceOnUse"><stop offset="0" style="stop-color:#fff"/><stop offset=".924" style="stop-color:#cfd1d2"/><stop offset=".924" style="stop-color:#cfd1d2"/><stop offset="1" style="stop-color:#cfd1d2"/></radialGradient><path id="XMLID_12_" d="M27.71 40.34s10.95 50.1 28.77 98.23c.98 2.53 1.96 5.05 2.95 7.58 33.96 1.54 69.46 1.4 105.94-.56 124.47-6.88 235.18-34.52 310.68-72.69 5.33-19.36 8.14-32.7 8.14-32.7-36.2-2.95-140.6-6.45-228.31-6.45-87.43.14-191.83 3.65-228.17 6.59" style="fill:url(#XMLID_14_)"/><path id="XMLID_21_" d="M202.55 108.54c-3.37 0-6.6.56-9.4 1.26-2.81.7-4.91 1.82-6.31 3.23-.56.56-2.25 3.23-6.88 12.63l-10.24 21.89s-5.33 12.21-6.31 14.31h16.84c.42-.98 4.49-9.68 4.49-9.68h35.64s4.21 8.84 4.77 9.68h16.56c-.98-2.25-6.45-14.31-6.45-14.31-4.21-9.26-7.44-16.7-10.1-22.03-4.77-9.82-6.31-12.07-6.88-12.49-1.4-1.4-3.51-2.53-6.31-3.23-2.82-.7-6.05-1.26-9.42-1.26m178.35 0c-3.37 0-6.6.56-9.4 1.26-2.81.7-5.05 1.82-6.45 3.23-.56.56-2.1 3.23-6.6 12.63l-10.38 21.89s-5.33 12.21-6.31 14.31h16.84c.42-.98 4.77-9.68 4.77-9.68h35.36s4.21 8.84 4.77 9.68h16.7c-.98-2.25-6.45-14.31-6.45-14.31-4.21-9.26-7.72-16.7-10.24-22.03-4.77-9.82-6.31-12.07-6.88-12.49-1.4-1.4-3.51-2.53-6.31-3.23-3.1-.7-6.19-1.26-9.42-1.26m-287.52.42V162h39.15c8.98 0 16.14-2.67 21.33-8.14 4.63-4.77 7.02-10.8 7.02-17.82 0-7.3-2.39-13.61-7.16-18.66-5.19-5.61-12.35-8.42-21.19-8.42zm178.63 0c-8.84 0-15.86 2.81-21.19 8.42-4.63 5.05-7.16 11.37-7.16 18.66 0 7.16 2.39 13.05 7.02 17.82 5.19 5.47 12.35 8.14 21.33 8.14h32.27v-10.1h-29.47c-4.49 0-8.14-1.82-10.66-5.33-2.39-3.23-3.51-7.16-3.51-11.65 0-4.35 1.12-8 3.37-11.09 2.67-3.37 6.31-5.19 10.95-5.19h29.47v-9.68zm44.2 0V162h15.72v-53.18h-15.72zm-207.11 9.68h20.77c4.63 0 8.14 1.82 10.66 5.19 2.25 2.95 3.51 6.6 3.51 11.09s-1.26 8.56-3.51 11.65c-2.67 3.65-6.31 5.33-10.66 5.33H109.1zm93.45.57c1.54 0 2.1.7 2.25 1.12l11.51 23.85h-27.64l11.37-24c.55-.83 1.39-.97 2.51-.97m178.35 0c1.54 0 1.96.7 2.1 1.12l11.65 23.85h-27.64l11.37-24c.42-.83 1.26-.97 2.52-.97" style="fill:#0e2b58"/><linearGradient id="XMLID_15_" x1="-694.477" x2="-693.607" y1="810.942" y2="810.942" gradientTransform="rotate(82.333 -38557.03 -218.041)scale(47.6251 -47.6251)" gradientUnits="userSpaceOnUse"><stop offset="0" style="stop-color:#5a6898"/><stop offset="1" style="stop-color:#1b3564"/></linearGradient><path id="XMLID_27_" d="M371.36 109.8c-2.81.7-4.91 1.82-6.31 3.23-.14.14-.56.7-1.12 1.68 7.02-1.96 14.03-3.93 20.91-6.03-1.26-.14-2.53-.28-3.93-.28-3.52.28-6.6.56-9.55 1.4m-178.21 0c-2.81.7-4.91 1.82-6.31 3.23-.56.56-2.1 3.23-6.74 12.63l-9.12 19.65c6.03-.42 11.93-.7 17.96-1.26l11.37-24c.42-.7 1.26-1.12 2.39-1.12 1.54 0 2.1.7 2.25 1.12l10.38 21.47c5.61-.56 11.09-1.12 16.56-1.82-2.53-5.75-4.91-10.52-6.74-14.31-4.77-9.82-6.31-12.07-6.74-12.63-1.4-1.4-3.51-2.53-6.31-3.23-2.81-.84-6.03-1.26-9.4-1.26-3.52.41-6.74.69-9.55 1.53m123.06-.84v17.26c5.33-1.12 10.52-2.25 15.58-3.51v-13.89zm-44.2 0c-8.7 0-15.86 2.81-21.05 8.42-4.63 5.05-7.02 11.37-7.02 18.66 0 .84 0 1.68.14 2.53 5.61-.7 11.23-1.54 16.7-2.39v-1.12c0-4.35 1.26-8.14 3.51-11.09 2.67-3.51 6.31-5.19 10.8-5.19h29.47v-9.82zm-178.63 0v38.31h15.58v-28.63h20.77c4.63 0 8.28 1.68 10.8 5.19 2.25 2.95 3.51 6.74 3.51 11.09 0 4.63-1.12 8.42-3.51 11.65l-.14.28c6.17-.28 12.49-.42 18.66-.84 1.26-3.09 1.82-6.31 1.82-9.96 0-7.3-2.39-13.61-7.02-18.66-5.19-5.61-12.35-8.42-21.19-8.42z" style="fill:url(#XMLID_15_)"/><path id="XMLID_28_" d="M110.92 120.47h18.8c3.65 0 6.45 1.26 8.7 3.65l1.26-1.26c-2.53-2.81-5.89-4.21-9.96-4.21h-20.77v33.26l1.82-1.82" class="st8"/><linearGradient id="XMLID_16_" x1="-777.861" x2="-776.991" y1="735.843" y2="735.843" gradientTransform="rotate(62.082 8121.695 -2100.595)scale(-8.1721 8.1721)" gradientUnits="userSpaceOnUse"><stop offset="0" style="stop-color:#fff"/><stop offset="1" style="stop-color:#bdbcbc"/></linearGradient><path id="XMLID_29_" d="m138.42 124.12.7.7c2.1 2.67 3.09 6.03 3.09 9.96 0 4.21-1.12 7.72-3.23 10.52-2.39 3.23-5.33 4.63-9.26 4.63h-18.8l-1.82 1.82h20.63c4.49 0 8.14-1.82 10.8-5.47 2.39-3.23 3.51-7.02 3.51-11.65 0-4.35-1.12-8.14-3.37-11.09l-.84-.98z" style="fill:url(#XMLID_16_)"/><linearGradient id="XMLID_17_" x1="-673.175" x2="-672.306" y1="796.654" y2="796.654" gradientTransform="rotate(202.167 6925.205 12359.46)scale(-26.499 26.499)" gradientUnits="userSpaceOnUse"><stop offset="0" style="stop-color:#fff"/><stop offset="1" style="stop-color:#bdbcbc"/></linearGradient><path id="XMLID_30_" d="M91.56 107v56.97l1.82-1.82v-53.18h39.15c8.84 0 15.86 2.81 21.19 8.42.7.7 1.12 1.4 1.68 1.96l1.26-1.26c-.42-.7-.98-1.26-1.54-1.96-5.61-6.03-13.19-9.12-22.59-9.12z" style="fill:url(#XMLID_17_)"/><path id="XMLID_31_" d="M155.26 155.27c4.91-5.19 7.44-11.65 7.44-19.22 0-6.88-1.96-12.91-5.89-17.96l-1.26 1.26c3.65 4.63 5.33 10.24 5.33 16.56 0 7.16-2.25 13.19-6.88 17.96-5.19 5.47-12.35 8.14-21.33 8.14H93.38l-1.82 1.82h41.11c9.54.14 17.12-2.81 22.59-8.56" class="st8"/><linearGradient id="XMLID_18_" x1="-661.83" x2="-660.961" y1="791.36" y2="791.36" gradientTransform="matrix(18.1223 4.974 4.974 -18.1223 8252.099 17771.242)" gradientUnits="userSpaceOnUse"><stop offset="0" style="stop-color:#fff"/><stop offset="1" style="stop-color:#bdbcbc"/></linearGradient><path id="XMLID_32_" d="M192.73 107.98c-3.09.84-5.61 2.1-7.16 3.79-.7.7-2.1 2.81-7.02 13.19l-10.38 22.03-7.44 16.98 2.81-1.82c.98-2.1 6.31-14.31 6.31-14.31l10.38-22.17c4.49-9.4 6.17-12.07 6.74-12.63 1.4-1.4 3.65-2.53 6.31-3.23 2.81-.84 6.03-1.26 9.54-1.26 3.37 0 6.45.42 9.26 1.26 2.81.7 4.91 1.82 6.31 3.23.42.42 2.1 2.67 6.74 12.63 2.53 5.33 6.03 12.77 10.24 22.03 0 0 5.47 12.21 6.45 14.31h-16.7l-1.12 1.82h20.63l-7.58-16.98c-4.21-9.26-7.72-16.7-10.24-22.17-5.05-10.38-6.45-12.49-7.16-13.05-1.54-1.68-3.93-2.81-7.02-3.79-3.09-.84-6.31-1.26-9.82-1.26-3.77.28-7.13.7-10.08 1.4" style="fill:url(#XMLID_18_)"/><path id="XMLID_33_" d="M237.07 146.99c-4.21-9.26-7.72-16.7-10.24-22.17-5.05-10.38-6.45-12.49-7.16-13.05-1.54-1.68-3.93-2.95-7.16-3.79-3.09-.84-6.31-1.26-9.82-1.26v1.82c3.37 0 6.45.42 9.26 1.12s4.91 1.82 6.31 3.23c.56.42 2.1 2.67 6.74 12.63 2.53 5.33 6.03 12.77 10.24 22.03 0 0 5.47 12.21 6.45 14.31h-16.56l-1.12 1.82h20.63" class="st12"/><path id="XMLID_34_" d="M184.87 152.32s-4.21 8.84-4.63 9.68H163.4l-2.81 1.82h20.9s4.21-8.84 4.63-9.82h33.12l1.12-1.82" class="st12"/><path id="XMLID_35_" d="m201.71 121.31.7-.42v-1.82c-.98 0-1.82.42-2.25 1.12l-11.51 24.14 2.95-1.82c1.27-2.4 10.11-21.2 10.11-21.2" class="st8"/><linearGradient id="XMLID_19_" x1="-756.874" x2="-756.004" y1="750.169" y2="750.169" gradientTransform="rotate(64.146 10669.134 -2275.528)scale(-10.9287 10.9287)" gradientUnits="userSpaceOnUse"><stop offset="0" style="stop-color:#fff"/><stop offset="1" style="stop-color:#bdbcbc"/></linearGradient><path id="XMLID_38_" d="M202.55 119.06v1.82h.14l.7.42s9.12 18.66 10.24 21.05h-21.75l-2.95 1.82h27.78l-11.65-23.85c-.14-.56-.7-1.26-2.1-1.26zm2.25 1.13" style="fill:url(#XMLID_19_)"/><path id="XMLID_39_" d="m220.37 152.32-1.12 1.82c.42.98 4.77 9.82 4.77 9.82l1.12-1.82c-.42-.98-4.77-9.82-4.77-9.82" class="st12"/><linearGradient id="XMLID_20_" x1="-715.938" x2="-715.069" y1="767.194" y2="767.194" gradientTransform="matrix(0 -23.6289 -23.6289 0 18411.336 -16771.398)" gradientUnits="userSpaceOnUse"><stop offset="0" style="stop-color:#fff"/><stop offset="1" style="stop-color:#bdbcbc"/></linearGradient><path id="XMLID_40_" d="M304.43 108.82v9.82h-29.47c-4.63 0-8.14 1.68-10.8 5.19-2.39 2.95-3.51 6.74-3.51 11.09v1.12c.14 4.07 1.4 7.58 3.51 10.52 2.67 3.65 6.31 5.47 10.66 5.47h29.47l1.82-1.82h-31.43c-3.93 0-6.88-1.54-9.26-4.63-2.1-2.81-3.23-6.45-3.23-10.52v-.42c0-3.79 1.12-7.02 3.09-9.54 2.25-2.95 5.33-4.49 9.26-4.49h31.43v-13.47z" style="fill:url(#XMLID_20_)"/><linearGradient id="XMLID_22_" x1="-691.36" x2="-690.49" y1="823.658" y2="823.658" gradientTransform="matrix(0 26.4747 26.4747 0 -21531.906 18432.996)" gradientUnits="userSpaceOnUse"><stop offset="0" style="stop-color:#fff"/><stop offset="1" style="stop-color:#bdbcbc"/></linearGradient><path id="XMLID_41_" d="M272.01 107c-9.4 0-16.98 3.09-22.45 9.12-5.05 5.47-7.58 12.07-7.58 19.79 0 4.91 1.12 9.4 3.23 13.33 1.12 2.1 2.53 4.07 4.21 5.89 5.47 5.75 13.05 8.7 22.59 8.7h34.24v-13.75l-1.82 1.82V162h-32.41c-8.98 0-16.14-2.67-21.19-8.14-1.68-1.82-3.23-3.93-4.21-6.03-1.82-3.51-2.67-7.58-2.67-11.93 0-7.3 2.39-13.47 7.02-18.66 5.19-5.61 12.35-8.42 21.19-8.42h32.41l1.82-1.82z" style="fill:url(#XMLID_22_)"/><path id="XMLID_42_" d="M316.21 108.82h15.72l1.82-1.82h-19.36v56.97l1.82-1.83" class="st12"/><path id="XMLID_43_" d="m333.75 107-1.82 1.82v53.32h-15.72l-1.82 1.83h19.36" class="st8"/><linearGradient id="XMLID_23_" x1="-662.051" x2="-661.181" y1="791.647" y2="791.647" gradientTransform="rotate(196.434 5212.502 8167.98)scale(-18.3169 18.3169)" gradientUnits="userSpaceOnUse"><stop offset="0" style="stop-color:#fff"/><stop offset="1" style="stop-color:#bdbcbc"/></linearGradient><path id="XMLID_44_" d="M370.94 107.98c-3.09.84-5.61 2.1-7.3 3.79-.56.7-1.96 2.81-7.02 13.19l-10.38 22.03-7.44 16.98 2.81-1.82c.98-2.1 6.31-14.31 6.31-14.31l10.24-22.17c4.63-9.4 6.17-12.07 6.74-12.63 1.4-1.4 3.51-2.53 6.31-3.23 2.81-.84 6.03-1.26 9.4-1.26s6.45.42 9.4 1.26c2.81.7 4.91 1.82 6.31 3.23.56.42 2.1 2.67 6.74 12.63 2.67 5.33 6.03 12.77 10.24 22.03 0 0 5.47 12.21 6.45 14.31h-16.42l-1.12 1.82h20.63l-7.58-16.98c-4.21-9.26-7.72-16.7-10.24-22.17-5.05-10.38-6.45-12.49-7.16-13.05-1.54-1.68-3.93-2.81-7.16-3.79-2.95-.84-6.31-1.26-9.82-1.26-3.63.28-6.99.7-9.94 1.4" style="fill:url(#XMLID_23_)"/><path id="XMLID_45_" d="M363.08 152.32s-4.21 8.84-4.63 9.68h-16.84l-2.81 1.82h20.9s4.21-8.84 4.63-9.82h33.12l1.12-1.82" class="st12"/><linearGradient id="XMLID_24_" x1="-755.5" x2="-754.63" y1="752.093" y2="752.093" gradientTransform="rotate(64.498 10731.67 -2070.078)scale(-10.937 10.937)" gradientUnits="userSpaceOnUse"><stop offset="0" style="stop-color:#fff"/><stop offset="1" style="stop-color:#bdbcbc"/></linearGradient><path id="XMLID_48_" d="M380.62 119.06v1.82h.14l.7.42s9.12 18.66 10.24 21.05h-21.75l-2.95 1.82h27.64l-11.65-23.85c-.14-.56-.7-1.26-2.1-1.26zm2.39 1.13" style="fill:url(#XMLID_24_)"/><path id="XMLID_49_" d="m379.92 121.31.7-.42v-1.82c-.98 0-1.82.42-2.25 1.12l-11.51 24.14 2.95-1.82c1.27-2.4 10.11-21.2 10.11-21.2" class="st8"/><path id="XMLID_50_" d="M415.28 146.99c-4.21-9.26-7.58-16.7-10.24-22.17-5.05-10.38-6.45-12.49-7.16-13.05-1.54-1.68-3.93-2.95-7.16-3.79-3.09-.84-6.31-1.26-9.82-1.26v1.82c3.37 0 6.45.42 9.4 1.12 2.81.7 4.91 1.82 6.31 3.23.56.42 2.1 2.67 6.74 12.63 2.53 5.33 6.03 12.77 10.24 22.03 0 0 5.47 12.21 6.45 14.31h-16.7l-1.12 1.82h20.63" class="st12"/><path id="XMLID_51_" d="m398.58 152.32-1.12 1.82c.42.98 4.77 9.82 4.77 9.82l1.12-1.82c-.42-.98-4.77-9.82-4.77-9.82" class="st12"/><linearGradient id="XMLID_25_" x1="-701.821" x2="-700.951" y1="799.588" y2="799.588" gradientTransform="matrix(0 273.7059 273.7059 0 -218595.86 192126.063)" gradientUnits="userSpaceOnUse"><stop offset="0" style="stop-color:#4f4c4c"/><stop offset=".04" style="stop-color:#494546"/><stop offset=".54" style="stop-color:#231f20"/><stop offset="1" style="stop-color:#322f30"/></linearGradient><path id="XMLID_54_" d="M26.02 40.48c.7 2.81 15.15 68.62 37.75 120.96 22.87 52.9 63.71 97.38 75.21 106.79l.42.42s1.68 1.26 2.39 1.68c0 0-.84-2.53-1.26-3.51-9.26-7.86-51.22-51.36-74.79-106.08C42.86 107.98 28.27 41.19 28.13 40.48zm420.27 120.26c-23.57 54.73-65.67 98.37-74.79 106.08v.14c-.28.84-1.26 3.51-1.26 3.51l2.25-1.68.42-.42c11.65-9.4 52.48-54.02 75.35-106.93 22.59-52.2 37.33-118.15 37.89-120.96-.7 0-1.4-.14-2.1-.14-.15.85-14.88 67.64-37.76 120.4" style="fill:url(#XMLID_25_)"/><path id="XMLID_59_" d="M501.44 39.36h-.14zM145.16 447.98c-25.26-19.93-39.15-46.45-52.48-80.12-2.95-7.58-19.79-55.57-24.84-71.42l-14.17-44.9-13.05-45.18-8.7-32.7c-4.63-18.24-8.98-36.48-12.77-54.16C15.22 101.38 11.57 83 8.2 64.62L6.38 54.1c-.42-3.93 2.1-7.72 5.89-8.7l3.51-.56 9.82-1.12c34.66-2.95 142.85-6.6 230.41-6.6s195.75 3.51 230.41 6.6l9.82 1.12 3.51.56c3.79.98 6.31 4.77 5.89 8.84l-1.82 10.38c-3.37 18.24-7.02 36.76-10.95 54.87-3.93 17.82-8.14 36.06-12.77 54.16l-8.7 32.7-13.05 45.18-14.17 44.9c-5.19 15.86-21.89 63.85-24.84 71.42-13.33 33.68-27.36 60.2-52.48 80.12-22.59 17.82-46.03 26.94-110.86 26.94-64.53.01-88.67-9.53-110.84-26.93M25.04 37.4 14.8 38.52l-4.21.7C3.71 41.05-.78 47.78.07 54.94l1.96 10.8c3.37 18.38 7.02 37.05 10.95 55.15 3.93 17.68 8.14 36.06 12.77 54.31l8.7 32.7 13.05 45.32 14.17 45.04c5.33 16.28 21.89 63.85 24.98 71.71 13.61 34.66 28.2 62.02 54.45 82.79 26.8 21.19 55.85 28.35 114.92 28.35s87.98-7.16 114.78-28.35c26.38-20.77 40.83-48.13 54.45-82.79 3.09-7.72 19.65-55.43 24.98-71.71l14.17-45.04 13.05-45.32 8.7-32.7c4.63-18.1 8.98-36.48 12.77-54.31 3.93-18.24 7.72-36.76 10.95-55.15l1.96-10.8.14-1.68c0-6.45-4.35-12.35-10.66-14.03l-4.21-.7-10.24-1.12c-34.66-3.09-143.13-6.6-230.83-6.6S59.84 34.31 25.04 37.4" style="fill:#4f4c4d"/></g></svg>