<?xml version="1.0" encoding="utf-8"?>
<!-- Generator: Adobe Illustrator 24.3.0, SVG Export Plug-In . SVG Version: 6.00 Build 0)  -->
<svg version="1.1" id="Layer_1" xmlns="http://www.w3.org/2000/svg" xmlns:xlink="http://www.w3.org/1999/xlink" x="0px" y="0px"
	 viewBox="0 0 512 512" style="enable-background:new 0 0 512 512;" xml:space="preserve">
<style type="text/css">
	.st0{fill:url(#XMLID_3_);}
	.st1{fill:url(#XMLID_4_);}
	.st2{fill:url(#XMLID_8_);}
	.st3{fill:url(#XMLID_9_);}
	.st4{fill:url(#XMLID_13_);}
	.st5{fill:url(#XMLID_14_);}
	.st6{fill:#0E2B58;}
	.st7{fill:url(#XMLID_15_);}
	.st8{fill:#BDBCBC;}
	.st9{fill:url(#XMLID_16_);}
	.st10{fill:url(#XMLID_17_);}
	.st11{fill:url(#XMLID_18_);}
	.st12{fill:#FFFFFF;}
	.st13{fill:url(#XMLID_19_);}
	.st14{fill:url(#XMLID_20_);}
	.st15{fill:url(#XMLID_22_);}
	.st16{fill:url(#XMLID_23_);}
	.st17{fill:url(#XMLID_24_);}
	.st18{fill:url(#XMLID_25_);}
	.st19{fill:#4F4C4D;}
</style>
<g id="XMLID_1_">
	
		<linearGradient id="XMLID_3_" gradientUnits="userSpaceOnUse" x1="-702.3688" y1="798.3871" x2="-701.4991" y2="798.3871" gradientTransform="matrix(0 510.652 510.652 0 -407442.1562 358699.9688)">
		<stop  offset="0" style="stop-color:#FFFFFF"/>
		<stop  offset="0.6533" style="stop-color:#828384"/>
		<stop  offset="1" style="stop-color:#2A282C"/>
	</linearGradient>
	<path id="XMLID_5_" class="st0" d="M25.32,40.62c-3.65,0.42-7.02,0.7-9.96,1.12c-1.4,0.14-3.09,0.42-3.93,0.7
		c-5.61,1.4-8.84,7.02-8.28,12.35c0,0.28,1.4,8.14,1.82,10.52c3.37,18.38,7.02,36.76,10.95,55.01c3.93,18.1,8.28,36.2,12.77,54.16
		c2.81,10.95,5.61,21.75,8.7,32.7c2.1,8,8.98,31.71,13.05,45.18c4.49,15.15,9.26,30.03,14.03,45.04
		c5.33,16.28,22.03,63.99,24.98,71.56c13.61,34.66,28.2,61.46,53.46,81.39c24.56,19.36,50.66,27.64,112.82,27.64
		c62.3,0,88.26-8.28,112.82-27.64c25.4-20.07,39.85-46.73,53.46-81.39c3.09-7.58,19.65-55.15,24.98-71.56
		c4.91-15.01,9.54-29.89,14.17-45.04c4.07-13.47,10.8-37.19,13.05-45.18c2.95-10.95,5.89-21.75,8.7-32.7
		c4.63-17.96,8.84-36.06,12.77-54.16c3.93-18.24,7.72-36.62,10.95-55.01c0.42-2.53,1.82-10.24,1.82-10.52
		c0.7-5.33-2.67-10.8-8.14-12.35c-0.84-0.28-2.53-0.42-3.93-0.7c-2.95-0.42-6.31-0.84-9.96-1.12
		c-33.82-2.95-141.02-6.74-230.69-6.74C166.35,33.89,59.14,37.68,25.32,40.62 M371.5,266.68c-3.09,9.4-21.75,55.15-24.98,62.58
		c-7.02,16.56-14.45,32.27-26.1,42.8c-8.42,7.72-20.49,14.73-48.41,15.86c-5.33,0.28-12.21,0.28-16,0.28s-10.66,0-16-0.28
		c-27.78-1.12-39.85-8.14-48.41-15.86c-11.65-10.52-19.08-26.24-26.1-42.8c-3.23-7.44-21.89-53.18-24.98-62.58
		c38.17,1.96,80.41,3.37,115.49,3.37S333.47,268.65,371.5,266.68"/>
	
		<linearGradient id="XMLID_4_" gradientUnits="userSpaceOnUse" x1="-703.7291" y1="795.0405" x2="-702.8594" y2="795.0405" gradientTransform="matrix(0 -361.6539 -361.6539 0 287785.7188 -254079.5312)">
		<stop  offset="0" style="stop-color:#FCFCFC"/>
		<stop  offset="0.4917" style="stop-color:#4B4A4D"/>
		<stop  offset="0.4917" style="stop-color:#4B4A4D"/>
		<stop  offset="0.7893" style="stop-color:#2A282C"/>
		<stop  offset="1" style="stop-color:#2A282C"/>
	</linearGradient>
	<path id="XMLID_6_" class="st1" d="M38.79,90.58c1.12,3.93,2.1,7.44,3.09,11.09c5.61,20.49,11.79,41.4,18.1,62.16
		c12.35,40.41,24.98,81.67,40.69,122.64c8.28,21.75,16,40.97,23.71,58.66c6.74,15.72,15.3,33.68,27.78,48.41
		c12.77,15.01,26.8,24.56,44.34,30.17c15.15,4.91,32.98,7.02,59.78,7.02s44.48-2.1,59.78-7.02c17.54-5.61,31.57-15.15,44.2-30.17
		c12.49-14.73,21.05-32.7,27.78-48.41c7.72-17.68,15.44-36.9,23.71-58.66c15.72-41.11,28.35-82.23,40.69-122.64
		c6.31-20.77,12.35-41.68,18.1-62.16c0.84-3.23,1.82-6.31,2.67-9.54c4.49-15.86,9.12-32.13,11.93-47.71
		c-4.21,14.73-21.05,71-40.97,117.03c-23.71,54.87-61.88,98.93-71.42,106.51l-0.42,0.42l-1.54,1.12c-0.42,1.4-0.98,2.81-1.12,3.23
		c-0.98,2.39-1.82,4.63-2.67,7.02c-1.82,4.91-3.79,9.68-5.61,14.45c-3.93,9.68-7.72,19.36-11.79,28.91
		c-4.07,9.54-8,18.94-13.05,28.06c-4.63,8.42-10.24,16.42-17.54,22.45c-7.44,6.31-16.56,10.1-26.1,12.07
		c-9.96,2.1-20.35,2.39-30.59,2.53c-2.1,0-4.07,0-6.17,0c-2.1,0-4.07,0-6.17,0c-10.24,0-20.49-0.42-30.59-2.53
		c-9.54-1.96-18.52-5.89-25.96-12.07c-7.44-6.17-12.91-14.17-17.54-22.45c-4.91-9.12-8.98-18.66-13.05-28.06
		c-4.07-9.54-8-19.22-11.79-28.91c-1.96-4.77-3.79-9.68-5.61-14.45c-0.84-2.25-1.82-4.63-2.67-7.02c-0.14-0.42-0.7-1.82-1.12-3.23
		l-1.54-1.12l-0.42-0.42c-9.54-7.58-48.41-53.6-72.13-108.61C47.49,112.89,31.22,57.6,27.29,43.85
		C29.67,58.73,34.3,74.86,38.79,90.58"/>
	
		<linearGradient id="XMLID_8_" gradientUnits="userSpaceOnUse" x1="-701.6238" y1="796.46" x2="-700.7539" y2="796.46" gradientTransform="matrix(540.2397 0 0 -540.2397 379065.8438 430516.7188)">
		<stop  offset="0" style="stop-color:#FFFFFF"/>
		<stop  offset="1" style="stop-color:#FFFFFF"/>
	</linearGradient>
	<path id="XMLID_7_" class="st2" d="M472.81,92.12c-0.84,3.23-1.82,6.31-2.67,9.54c-5.61,20.49-11.79,41.4-18.1,62.16
		c-12.35,40.41-26.38,81.53-41.96,122.22c-8.28,21.47-15.86,40.55-23.57,58.09c-6.74,15.44-15.15,33.4-27.5,47.99
		c-12.63,14.87-26.52,24.42-43.92,29.89c-15.01,4.91-32.84,6.88-59.22,6.88s-44.2-2.1-59.22-6.88
		c-17.26-5.61-31.29-15.15-43.92-29.89c-12.35-14.59-20.91-32.41-27.5-47.99c-7.58-17.54-15.3-36.62-23.57-58.09
		c-15.58-40.69-29.61-81.81-41.96-122.22c-6.31-20.77-12.35-41.68-18.1-62.16c-0.98-3.65-2.1-7.3-3.09-11.09
		c-4.91-16.98-9.82-34.52-12.21-50.1l-1.26,0.14c-1.4,0.14-2.81,0.28-4.21,0.42c3.09,19.65,9.96,42.1,15.44,62.16
		c5.75,20.77,11.93,41.54,18.1,62.16c12.63,41.4,26.66,82.23,42.1,122.64c7.44,19.65,15.3,39.01,23.57,58.37
		c7.58,17.54,16.14,34.8,28.49,49.25c27.64,32.55,60.2,38.73,107.21,38.73s79.56-6.17,107.21-38.73
		c12.35-14.59,20.91-31.85,28.49-49.25c8.28-19.22,16.14-38.73,23.57-58.37c15.44-40.41,29.47-81.25,42.1-122.64
		c6.31-20.77,12.35-41.4,18.1-62.16c5.47-20.07,12.07-41.82,15.58-62.16c-1.4-0.14-2.81-0.28-4.21-0.42l-1.12-0.14
		C482.78,57.18,477.73,75,472.81,92.12"/>
	
		<linearGradient id="XMLID_9_" gradientUnits="userSpaceOnUse" x1="-704.9979" y1="791.7697" x2="-704.1281" y2="791.7697" gradientTransform="matrix(0 -135.4147 -135.4147 0 107473.2812 -95085.3438)">
		<stop  offset="0" style="stop-color:#4F4C4C"/>
		<stop  offset="1" style="stop-color:#231F20"/>
	</linearGradient>
	<path id="XMLID_10_" class="st3" d="M371.36,263.6c-42.52,2.1-83.49,3.23-115.35,3.23s-72.83-1.12-115.35-3.23l-4.63-0.28l1.4,4.49
		c3.23,9.54,21.75,55.15,25.12,62.72c6.88,16.14,14.59,32.84,26.94,43.92c8.42,7.58,20.91,15.44,50.38,16.56l16.14,0.28l16.14-0.28
		c29.47-1.12,42.1-8.98,50.38-16.7c12.35-11.09,20.07-27.78,26.94-43.92c3.23-7.58,21.89-53.18,25.12-62.72l1.4-4.49L371.36,263.6
		 M366.87,270.19c-5.47,14.59-20.49,51.36-23.29,57.81c-6.6,15.44-13.89,31.43-25.4,41.68c-7.86,7.16-18.94,14.03-46.31,15.01
		l-15.86,0.14l-15.86-0.14c-27.36-1.12-38.87-8.14-46.31-15.01c-11.37-10.24-18.8-26.24-25.26-41.68
		c-2.81-6.45-17.82-43.22-23.29-57.81c40.83,1.96,80.12,3.09,110.86,3.09S326.04,272.16,366.87,270.19"/>
	
		<linearGradient id="XMLID_13_" gradientUnits="userSpaceOnUse" x1="-704.0576" y1="794.3896" x2="-703.1874" y2="794.3896" gradientTransform="matrix(0 -271.3978 -271.3978 0 215851.4688 -190809.625)">
		<stop  offset="0" style="stop-color:#343437"/>
		<stop  offset="4.135000e-03" style="stop-color:#343437"/>
		<stop  offset="0.157" style="stop-color:#FFFFFF"/>
		<stop  offset="0.3708" style="stop-color:#C4C6C7"/>
		<stop  offset="1" style="stop-color:#8A8D90"/>
	</linearGradient>
	<path id="XMLID_11_" class="st4" d="M27.71,40.48c0,0,10.95,50.1,28.77,98.23l0,0l0,0c2.81,7.44,5.75,14.87,8.84,22.17
		c23.29,53.88,64.55,96.96,75.07,105.94c2.81,0.14,6.88,0.42,9.54,0.42c7.44,0.42,14.73,0.7,22.17,0.98
		c14.59,0.56,29.05,1.12,43.64,1.4c13.33,0.28,26.8,0.42,40.13,0.42c13.33,0,26.8-0.14,40.13-0.42c14.59-0.28,29.05-0.7,43.64-1.4
		c7.3-0.28,14.73-0.7,22.17-0.98c2.81-0.14,6.88-0.42,9.54-0.42c10.52-8.98,51.78-52.06,75.07-105.94
		c12.35-28.77,22.45-61.46,28.91-85.46l0,0v-0.14c5.61-20.63,8.7-34.94,8.7-34.94c-76.06-4.63-152.11-6.45-228.31-6.45
		C179.82,34.03,103.76,35.85,27.71,40.48"/>
	
		<radialGradient id="XMLID_14_" cx="-700.7906" cy="796.0302" r="0.8699" gradientTransform="matrix(336.4073 0 0 -336.4073 235777.2188 267798.9062)" gradientUnits="userSpaceOnUse">
		<stop  offset="0" style="stop-color:#FFFFFF"/>
		<stop  offset="0.9238" style="stop-color:#CFD1D2"/>
		<stop  offset="0.9238" style="stop-color:#CFD1D2"/>
		<stop  offset="1" style="stop-color:#CFD1D2"/>
	</radialGradient>
	<path id="XMLID_12_" class="st5" d="M27.71,40.34L27.71,40.34c0,0,10.95,50.1,28.77,98.23l0,0l0,0c0.98,2.53,1.96,5.05,2.95,7.58
		c33.96,1.54,69.46,1.4,105.94-0.56c124.47-6.88,235.18-34.52,310.68-72.69c5.33-19.36,8.14-32.7,8.14-32.7
		c-36.2-2.95-140.6-6.45-228.31-6.45C168.45,33.89,64.05,37.4,27.71,40.34"/>
	<path id="XMLID_21_" class="st6" d="M202.55,108.54c-3.37,0-6.6,0.56-9.4,1.26c-2.81,0.7-4.91,1.82-6.31,3.23
		c-0.56,0.56-2.25,3.23-6.88,12.63l-10.24,21.89c0,0-5.33,12.21-6.31,14.31h16.84c0.42-0.98,4.49-9.68,4.49-9.68h35.64
		c0,0,4.21,8.84,4.77,9.68h16.56c-0.98-2.25-6.45-14.31-6.45-14.31c-4.21-9.26-7.44-16.7-10.1-22.03
		c-4.77-9.82-6.31-12.07-6.88-12.49c-1.4-1.4-3.51-2.53-6.31-3.23C209.15,109.1,205.92,108.54,202.55,108.54z M380.9,108.54
		c-3.37,0-6.6,0.56-9.4,1.26c-2.81,0.7-5.05,1.82-6.45,3.23c-0.56,0.56-2.1,3.23-6.6,12.63l-10.38,21.89c0,0-5.33,12.21-6.31,14.31
		h16.84c0.42-0.98,4.77-9.68,4.77-9.68h35.36c0,0,4.21,8.84,4.77,9.68h16.7c-0.98-2.25-6.45-14.31-6.45-14.31
		c-4.21-9.26-7.72-16.7-10.24-22.03c-4.77-9.82-6.31-12.07-6.88-12.49c-1.4-1.4-3.51-2.53-6.31-3.23
		C387.22,109.1,384.13,108.54,380.9,108.54z M93.38,108.96V162h39.15c8.98,0,16.14-2.67,21.33-8.14c4.63-4.77,7.02-10.8,7.02-17.82
		c0-7.3-2.39-13.61-7.16-18.66c-5.19-5.61-12.35-8.42-21.19-8.42H93.38z M272.01,108.96c-8.84,0-15.86,2.81-21.19,8.42
		c-4.63,5.05-7.16,11.37-7.16,18.66c0,7.16,2.39,13.05,7.02,17.82c5.19,5.47,12.35,8.14,21.33,8.14h32.27v-10.1h-29.47
		c-4.49,0-8.14-1.82-10.66-5.33c-2.39-3.23-3.51-7.16-3.51-11.65c0-4.35,1.12-8,3.37-11.09c2.67-3.37,6.31-5.19,10.95-5.19h29.47
		v-9.68L272.01,108.96L272.01,108.96z M316.21,108.96V162h15.72v-53.18h-15.72V108.96z M109.1,118.64h20.77
		c4.63,0,8.14,1.82,10.66,5.19c2.25,2.95,3.51,6.6,3.51,11.09c0,4.49-1.26,8.56-3.51,11.65c-2.67,3.65-6.31,5.33-10.66,5.33H109.1
		V118.64z M202.55,119.21c1.54,0,2.1,0.7,2.25,1.12l11.51,23.85h-27.64l11.37-24C200.59,119.35,201.43,119.21,202.55,119.21z
		 M380.9,119.21c1.54,0,1.96,0.7,2.1,1.12l11.65,23.85h-27.64l11.37-24C378.8,119.35,379.64,119.21,380.9,119.21z"/>
	
		<linearGradient id="XMLID_15_" gradientUnits="userSpaceOnUse" x1="-694.4766" y1="810.9418" x2="-693.6069" y2="810.9418" gradientTransform="matrix(6.3537 47.1994 47.1994 -6.3537 -33629.2031 38023.4102)">
		<stop  offset="0" style="stop-color:#5A6898"/>
		<stop  offset="1" style="stop-color:#1B3564"/>
	</linearGradient>
	<path id="XMLID_27_" class="st7" d="M371.36,109.8c-2.81,0.7-4.91,1.82-6.31,3.23c-0.14,0.14-0.56,0.7-1.12,1.68
		c7.02-1.96,14.03-3.93,20.91-6.03c-1.26-0.14-2.53-0.28-3.93-0.28C377.39,108.68,374.31,108.96,371.36,109.8 M193.15,109.8
		c-2.81,0.7-4.91,1.82-6.31,3.23c-0.56,0.56-2.1,3.23-6.74,12.63l-9.12,19.65c6.03-0.42,11.93-0.7,17.96-1.26l11.37-24
		c0.42-0.7,1.26-1.12,2.39-1.12c1.54,0,2.1,0.7,2.25,1.12l10.38,21.47c5.61-0.56,11.09-1.12,16.56-1.82
		c-2.53-5.75-4.91-10.52-6.74-14.31c-4.77-9.82-6.31-12.07-6.74-12.63c-1.4-1.4-3.51-2.53-6.31-3.23c-2.81-0.84-6.03-1.26-9.4-1.26
		C199.18,108.68,195.96,108.96,193.15,109.8 M316.21,108.96v17.26c5.33-1.12,10.52-2.25,15.58-3.51v-13.89L316.21,108.96
		 M272.01,108.96c-8.7,0-15.86,2.81-21.05,8.42c-4.63,5.05-7.02,11.37-7.02,18.66c0,0.84,0,1.68,0.14,2.53
		c5.61-0.7,11.23-1.54,16.7-2.39v-1.12c0-4.35,1.26-8.14,3.51-11.09c2.67-3.51,6.31-5.19,10.8-5.19h29.47v-9.82L272.01,108.96
		 M93.38,108.96v38.31c5.19,0,10.38,0,15.58,0v-28.63h20.77c4.63,0,8.28,1.68,10.8,5.19c2.25,2.95,3.51,6.74,3.51,11.09
		c0,4.63-1.12,8.42-3.51,11.65l-0.14,0.28c6.17-0.28,12.49-0.42,18.66-0.84c1.26-3.09,1.82-6.31,1.82-9.96
		c0-7.3-2.39-13.61-7.02-18.66c-5.19-5.61-12.35-8.42-21.19-8.42L93.38,108.96"/>
	<path id="XMLID_28_" class="st8" d="M110.92,120.47h18.8c3.65,0,6.45,1.26,8.7,3.65l1.26-1.26c-2.53-2.81-5.89-4.21-9.96-4.21
		h-20.77v33.26l1.82-1.82"/>
	
		<linearGradient id="XMLID_16_" gradientUnits="userSpaceOnUse" x1="-777.8608" y1="735.8428" x2="-776.991" y2="735.8428" gradientTransform="matrix(-3.8263 -7.221 -7.221 3.8263 2462.884 -8293.5166)">
		<stop  offset="0" style="stop-color:#FFFFFF"/>
		<stop  offset="1" style="stop-color:#BDBCBC"/>
	</linearGradient>
	<path id="XMLID_29_" class="st9" d="M138.42,124.12l0.7,0.7c2.1,2.67,3.09,6.03,3.09,9.96c0,4.21-1.12,7.72-3.23,10.52
		c-2.39,3.23-5.33,4.63-9.26,4.63h-18.8l-1.82,1.82h20.63c4.49,0,8.14-1.82,10.8-5.47c2.39-3.23,3.51-7.02,3.51-11.65
		c0-4.35-1.12-8.14-3.37-11.09l-0.84-0.98L138.42,124.12"/>
	
		<linearGradient id="XMLID_17_" gradientUnits="userSpaceOnUse" x1="-673.1754" y1="796.6539" x2="-672.3057" y2="796.6539" gradientTransform="matrix(24.5404 9.9984 9.9984 -24.5404 8675.1738 26418.3477)">
		<stop  offset="0" style="stop-color:#FFFFFF"/>
		<stop  offset="1" style="stop-color:#BDBCBC"/>
	</linearGradient>
	<path id="XMLID_30_" class="st10" d="M91.56,107v56.97l1.82-1.82v-53.18h39.15c8.84,0,15.86,2.81,21.19,8.42
		c0.7,0.7,1.12,1.4,1.68,1.96l1.26-1.26c-0.42-0.7-0.98-1.26-1.54-1.96c-5.61-6.03-13.19-9.12-22.59-9.12L91.56,107"/>
	<path id="XMLID_31_" class="st8" d="M155.26,155.27c4.91-5.19,7.44-11.65,7.44-19.22c0-6.88-1.96-12.91-5.89-17.96l-1.26,1.26
		c3.65,4.63,5.33,10.24,5.33,16.56c0,7.16-2.25,13.19-6.88,17.96c-5.19,5.47-12.35,8.14-21.33,8.14H93.38l-1.82,1.82h41.11
		C142.21,163.97,149.79,161.02,155.26,155.27"/>
	
		<linearGradient id="XMLID_18_" gradientUnits="userSpaceOnUse" x1="-661.8304" y1="791.3604" x2="-660.9606" y2="791.3604" gradientTransform="matrix(18.1223 4.974 4.974 -18.1223 8252.0986 17771.2422)">
		<stop  offset="0" style="stop-color:#FFFFFF"/>
		<stop  offset="1" style="stop-color:#BDBCBC"/>
	</linearGradient>
	<path id="XMLID_32_" class="st11" d="M192.73,107.98c-3.09,0.84-5.61,2.1-7.16,3.79c-0.7,0.7-2.1,2.81-7.02,13.19l-10.38,22.03
		l-7.44,16.98l2.81-1.82c0.98-2.1,6.31-14.31,6.31-14.31l10.38-22.17c4.49-9.4,6.17-12.07,6.74-12.63c1.4-1.4,3.65-2.53,6.31-3.23
		c2.81-0.84,6.03-1.26,9.54-1.26l0,0c3.37,0,6.45,0.42,9.26,1.26c2.81,0.7,4.91,1.82,6.31,3.23c0.42,0.42,2.1,2.67,6.74,12.63
		c2.53,5.33,6.03,12.77,10.24,22.03c0,0,5.47,12.21,6.45,14.31h-16.7l-1.12,1.82h20.63l-7.58-16.98
		c-4.21-9.26-7.72-16.7-10.24-22.17c-5.05-10.38-6.45-12.49-7.16-13.05c-1.54-1.68-3.93-2.81-7.02-3.79
		c-3.09-0.84-6.31-1.26-9.82-1.26l0,0C199.04,106.86,195.68,107.28,192.73,107.98"/>
	<path id="XMLID_33_" class="st12" d="M237.07,146.99c-4.21-9.26-7.72-16.7-10.24-22.17c-5.05-10.38-6.45-12.49-7.16-13.05
		c-1.54-1.68-3.93-2.95-7.16-3.79c-3.09-0.84-6.31-1.26-9.82-1.26v1.82c3.37,0,6.45,0.42,9.26,1.12c2.81,0.7,4.91,1.82,6.31,3.23
		c0.56,0.42,2.1,2.67,6.74,12.63c2.53,5.33,6.03,12.77,10.24,22.03c0,0,5.47,12.21,6.45,14.31h-16.56l-1.12,1.82h20.63"/>
	<path id="XMLID_34_" class="st12" d="M184.87,152.32c0,0-4.21,8.84-4.63,9.68H163.4l-2.81,1.82h1.4h19.5c0,0,4.21-8.84,4.63-9.82
		h33.12l1.12-1.82"/>
	<path id="XMLID_35_" class="st8" d="M201.71,121.31l0.7-0.42v-1.82c-0.98,0-1.82,0.42-2.25,1.12l-11.51,24.14l2.95-1.82
		C192.87,140.11,201.71,121.31,201.71,121.31"/>
	
		<linearGradient id="XMLID_19_" gradientUnits="userSpaceOnUse" x1="-756.8739" y1="750.1692" x2="-756.004" y2="750.1692" gradientTransform="matrix(-4.7658 -9.8348 -9.8348 4.7658 3968.7551 -10884.4404)">
		<stop  offset="0" style="stop-color:#FFFFFF"/>
		<stop  offset="1" style="stop-color:#BDBCBC"/>
	</linearGradient>
	<path id="XMLID_38_" class="st13" d="M202.55,119.06v1.82h0.14l0.7,0.42c0,0,9.12,18.66,10.24,21.05h-21.75l-2.95,1.82h27.78
		l-11.65-23.85c-0.14-0.56-0.7-1.26-2.1-1.26L202.55,119.06 M204.8,120.19L204.8,120.19L204.8,120.19L204.8,120.19"/>
	<path id="XMLID_39_" class="st12" d="M220.37,152.32l-1.12,1.82c0.42,0.98,4.77,9.82,4.77,9.82l1.12-1.82
		C224.72,161.16,220.37,152.32,220.37,152.32"/>
	
		<linearGradient id="XMLID_20_" gradientUnits="userSpaceOnUse" x1="-715.9384" y1="767.1943" x2="-715.0687" y2="767.1943" gradientTransform="matrix(0 -23.6289 -23.6289 0 18411.3359 -16771.3984)">
		<stop  offset="0" style="stop-color:#FFFFFF"/>
		<stop  offset="1" style="stop-color:#BDBCBC"/>
	</linearGradient>
	<path id="XMLID_40_" class="st14" d="M304.43,108.82v9.82h-29.47c-4.63,0-8.14,1.68-10.8,5.19c-2.39,2.95-3.51,6.74-3.51,11.09
		v1.12c0.14,4.07,1.4,7.58,3.51,10.52c2.67,3.65,6.31,5.47,10.66,5.47h29.47l1.82-1.82h-31.43c-3.93,0-6.88-1.54-9.26-4.63
		c-2.1-2.81-3.23-6.45-3.23-10.52v-0.42c0-3.79,1.12-7.02,3.09-9.54c2.25-2.95,5.33-4.49,9.26-4.49h31.43v-13.47L304.43,108.82"/>
	
		<linearGradient id="XMLID_22_" gradientUnits="userSpaceOnUse" x1="-691.3597" y1="823.6578" x2="-690.49" y2="823.6578" gradientTransform="matrix(0 26.4747 26.4747 0 -21531.9062 18432.9961)">
		<stop  offset="0" style="stop-color:#FFFFFF"/>
		<stop  offset="1" style="stop-color:#BDBCBC"/>
	</linearGradient>
	<path id="XMLID_41_" class="st15" d="M272.01,107c-9.4,0-16.98,3.09-22.45,9.12c-5.05,5.47-7.58,12.07-7.58,19.79
		c0,4.91,1.12,9.4,3.23,13.33c1.12,2.1,2.53,4.07,4.21,5.89c5.47,5.75,13.05,8.7,22.59,8.7h34.24v-13.75l-1.82,1.82V162h-32.41
		c-8.98,0-16.14-2.67-21.19-8.14c-1.68-1.82-3.23-3.93-4.21-6.03c-1.82-3.51-2.67-7.58-2.67-11.93c0-7.3,2.39-13.47,7.02-18.66
		c5.19-5.61,12.35-8.42,21.19-8.42h32.41l1.82-1.82L272.01,107"/>
	<polyline id="XMLID_42_" class="st12" points="316.21,108.82 331.93,108.82 333.75,107 314.39,107 314.39,163.97 316.21,162.14 	
		"/>
	<polyline id="XMLID_43_" class="st8" points="333.75,107 331.93,108.82 331.93,162.14 316.21,162.14 314.39,163.97 333.75,163.97 	
		"/>
	
		<linearGradient id="XMLID_23_" gradientUnits="userSpaceOnUse" x1="-662.0513" y1="791.647" x2="-661.1814" y2="791.647" gradientTransform="matrix(17.5686 5.1819 5.1819 -17.5686 7901.3184 17476.9199)">
		<stop  offset="0" style="stop-color:#FFFFFF"/>
		<stop  offset="1" style="stop-color:#BDBCBC"/>
	</linearGradient>
	<path id="XMLID_44_" class="st16" d="M370.94,107.98c-3.09,0.84-5.61,2.1-7.3,3.79c-0.56,0.7-1.96,2.81-7.02,13.19l-10.38,22.03
		l-7.44,16.98l2.81-1.82c0.98-2.1,6.31-14.31,6.31-14.31l10.24-22.17c4.63-9.4,6.17-12.07,6.74-12.63c1.4-1.4,3.51-2.53,6.31-3.23
		c2.81-0.84,6.03-1.26,9.4-1.26l0,0c3.37,0,6.45,0.42,9.4,1.26c2.81,0.7,4.91,1.82,6.31,3.23c0.56,0.42,2.1,2.67,6.74,12.63
		c2.67,5.33,6.03,12.77,10.24,22.03c0,0,5.47,12.21,6.45,14.31h-16.42l-1.12,1.82h20.63l-7.58-16.98
		c-4.21-9.26-7.72-16.7-10.24-22.17c-5.05-10.38-6.45-12.49-7.16-13.05c-1.54-1.68-3.93-2.81-7.16-3.79
		c-2.95-0.84-6.31-1.26-9.82-1.26l0,0C377.25,106.86,373.89,107.28,370.94,107.98"/>
	<path id="XMLID_45_" class="st12" d="M363.08,152.32c0,0-4.21,8.84-4.63,9.68h-16.84l-2.81,1.82h1.4h19.5c0,0,4.21-8.84,4.63-9.82
		h33.12l1.12-1.82"/>
	
		<linearGradient id="XMLID_24_" gradientUnits="userSpaceOnUse" x1="-755.5001" y1="752.0932" x2="-754.6304" y2="752.0932" gradientTransform="matrix(-4.7088 -9.8714 -9.8714 4.7088 4242.8662 -10864.9277)">
		<stop  offset="0" style="stop-color:#FFFFFF"/>
		<stop  offset="1" style="stop-color:#BDBCBC"/>
	</linearGradient>
	<path id="XMLID_48_" class="st17" d="M380.62,119.06v1.82h0.14l0.7,0.42c0,0,9.12,18.66,10.24,21.05h-21.75l-2.95,1.82h27.64
		l-11.65-23.85c-0.14-0.56-0.7-1.26-2.1-1.26L380.62,119.06 M383.01,120.19L383.01,120.19L383.01,120.19L383.01,120.19"/>
	<path id="XMLID_49_" class="st8" d="M379.92,121.31l0.7-0.42v-1.82c-0.98,0-1.82,0.42-2.25,1.12l-11.51,24.14l2.95-1.82
		C371.08,140.11,379.92,121.31,379.92,121.31"/>
	<path id="XMLID_50_" class="st12" d="M415.28,146.99c-4.21-9.26-7.58-16.7-10.24-22.17c-5.05-10.38-6.45-12.49-7.16-13.05
		c-1.54-1.68-3.93-2.95-7.16-3.79c-3.09-0.84-6.31-1.26-9.82-1.26v1.82c3.37,0,6.45,0.42,9.4,1.12c2.81,0.7,4.91,1.82,6.31,3.23
		c0.56,0.42,2.1,2.67,6.74,12.63c2.53,5.33,6.03,12.77,10.24,22.03c0,0,5.47,12.21,6.45,14.31h-16.7l-1.12,1.82h20.63"/>
	<path id="XMLID_51_" class="st12" d="M398.58,152.32l-1.12,1.82c0.42,0.98,4.77,9.82,4.77,9.82l1.12-1.82
		C402.93,161.16,398.58,152.32,398.58,152.32"/>
	
		<linearGradient id="XMLID_25_" gradientUnits="userSpaceOnUse" x1="-701.8212" y1="799.588" x2="-700.9514" y2="799.588" gradientTransform="matrix(0 273.7059 273.7059 0 -218595.8594 192126.0625)">
		<stop  offset="0" style="stop-color:#4F4C4C"/>
		<stop  offset="0.0401" style="stop-color:#494546"/>
		<stop  offset="0.5401" style="stop-color:#231F20"/>
		<stop  offset="1" style="stop-color:#322F30"/>
	</linearGradient>
	<path id="XMLID_54_" class="st18" d="M26.02,40.48L26.02,40.48c0.7,2.81,15.15,68.62,37.75,120.96
		c22.87,52.9,63.71,97.38,75.21,106.79l0.42,0.42c0,0,1.68,1.26,2.39,1.68c0,0-0.84-2.53-1.26-3.51
		c-9.26-7.86-51.22-51.36-74.79-106.08C42.86,107.98,28.27,41.19,28.13,40.48C27.29,40.48,26.59,40.48,26.02,40.48 M446.29,160.74
		c-23.57,54.73-65.67,98.37-74.79,106.08v0.14c-0.28,0.84-1.26,3.51-1.26,3.51l2.25-1.68l0.42-0.42
		c11.65-9.4,52.48-54.02,75.35-106.93c22.59-52.2,37.33-118.15,37.89-120.96l0,0c-0.7,0-1.4-0.14-2.1-0.14
		C483.9,41.19,469.17,107.98,446.29,160.74"/>
	<path id="XMLID_59_" class="st19" d="M501.44,39.36h-0.14H501.44 M145.16,447.98c-25.26-19.93-39.15-46.45-52.48-80.12
		c-2.95-7.58-19.79-55.57-24.84-71.42l-14.17-44.9l-13.05-45.18l-8.7-32.7c-4.63-18.24-8.98-36.48-12.77-54.16
		C15.22,101.38,11.57,83,8.2,64.62L6.38,54.1c-0.42-3.93,2.1-7.72,5.89-8.7l3.51-0.56l9.82-1.12c34.66-2.95,142.85-6.6,230.41-6.6
		s195.75,3.51,230.41,6.6l9.82,1.12l3.51,0.56c3.79,0.98,6.31,4.77,5.89,8.84l-1.82,10.38c-3.37,18.24-7.02,36.76-10.95,54.87
		c-3.93,17.82-8.14,36.06-12.77,54.16l-8.7,32.7l-13.05,45.18l-14.17,44.9c-5.19,15.86-21.89,63.85-24.84,71.42
		c-13.33,33.68-27.36,60.2-52.48,80.12c-22.59,17.82-46.03,26.94-110.86,26.94C191.47,474.92,167.33,465.38,145.16,447.98
		 M25.04,37.4L14.8,38.52l-4.21,0.7C3.71,41.05-0.78,47.78,0.07,54.94l1.96,10.8c3.37,18.38,7.02,37.05,10.95,55.15
		c3.93,17.68,8.14,36.06,12.77,54.31l8.7,32.7l13.05,45.32l14.17,45.04c5.33,16.28,21.89,63.85,24.98,71.71
		c13.61,34.66,28.2,62.02,54.45,82.79c26.8,21.19,55.85,28.35,114.92,28.35s87.98-7.16,114.78-28.35
		c26.38-20.77,40.83-48.13,54.45-82.79c3.09-7.72,19.65-55.43,24.98-71.71l14.17-45.04l13.05-45.32l8.7-32.7
		c4.63-18.1,8.98-36.48,12.77-54.31c3.93-18.24,7.72-36.76,10.95-55.15l1.96-10.8l0.14-1.68c0-6.45-4.35-12.35-10.66-14.03
		l-4.21-0.7l-10.24-1.12c-34.66-3.09-143.13-6.6-230.83-6.6S59.84,34.31,25.04,37.4"/>
</g>
</svg>
