<svg width="48" height="48" viewBox="0 0 48 48" fill="none" xmlns="http://www.w3.org/2000/svg">
<path d="M1.37709 19.5366C0.803784 20.8451 0.5 22.2197 0.5 23.6395C0.5 27.0945 2.31006 30.3162 5.43226 32.9076C8.44397 35.4073 12.6523 37.2961 17.5243 38.1967C18.0241 29.1595 11.648 21.5709 1.37709 19.5366Z" fill="black" stroke="black"/>
<path d="M7.58015 12.8212C6.48404 13.5116 5.49505 14.2692 4.62817 15.0812C9.47215 17.3592 13.2985 20.3855 15.8923 24.2397C18.5331 28.1638 19.8737 32.9128 19.7413 38.5325C19.7667 38.5355 19.792 38.5384 19.8174 38.5413C20.4713 28.5189 14.6544 18.5165 7.58015 12.8212Z" fill="black" stroke="black"/>
<path d="M20.95 24.9981C20.0275 19.4605 18.5469 13.6616 16.4797 9.29331C15.1631 9.5812 13.8998 9.9426 12.7004 10.3693C15.9151 14.658 18.3858 19.7751 19.9954 24.7973C21.0238 28.0058 21.7049 31.1889 22.0007 34.1053C21.8398 31.4099 21.493 28.258 20.95 24.9981Z" fill="black" stroke="black"/>
<path d="M47.4996 23.6393C47.4996 22.2199 47.1948 20.8453 46.6215 19.5366C38.0599 21.2202 34.1408 25.9628 32.3388 30.2868C31.419 32.494 31.0467 34.6046 30.905 36.165C30.8342 36.9444 30.8212 37.584 30.8258 38.0266C30.8262 38.0685 30.8268 38.1087 30.8275 38.147C35.5812 37.2 39.6983 35.3004 42.6501 32.8149C45.7176 30.2319 47.4996 27.0436 47.4996 23.6393Z" fill="black" stroke="black"/>
<path d="M43.3737 15.0814C42.5058 14.269 41.5164 13.5111 40.4206 12.8206C33.3634 18.5072 27.8655 28.4343 28.528 38.4651C28.5534 38.4621 28.5788 38.4591 28.6041 38.456C28.4673 32.8441 29.7206 28.1149 32.2769 24.2075C34.7885 20.3686 38.5343 17.3587 43.3737 15.0814Z" fill="black" stroke="black"/>
<path d="M35.2999 10.3692C34.1009 9.94268 32.8374 9.58142 31.5213 9.29361C29.4635 13.656 28.1088 19.4494 27.3126 24.9871C26.8332 28.3214 26.5586 31.5454 26.4525 34.2846C27.0501 26.7932 30.0125 17.4448 35.2999 10.3692Z" fill="black" stroke="black"/>
<path d="M22.0267 8.55013C22.8621 14.1029 23.834 23.9435 24.2039 32.1823C24.3346 28.3499 24.6224 24.0513 24.9319 20.1636C25.1964 16.8414 25.4776 13.8093 25.6927 11.6078C25.8003 10.507 25.8913 9.61367 25.9555 8.9954C25.9729 8.82757 25.9883 8.68001 26.0016 8.55406C25.3415 8.51817 24.6736 8.50001 24.0002 8.50001C23.5777 8.50001 22.9472 8.5179 22.417 8.5361C22.2775 8.54089 22.1455 8.54567 22.0267 8.55013Z" fill="black" stroke="black"/>
</svg>
