<svg xmlns="http://www.w3.org/2000/svg" xml:space="preserve" viewBox="0 0 3269 630"><path fill="#fff" d="M2159 631H1V1h3269v630zm1014.557-98.06c.185-.3.37-.6.477-.908 0 0 .007.08.523-.092.185-.3.37-.601.475-.909 0 0 .008.08.525-.091.185-.301.37-.602.474-.91 0 0 .008.08.525-.09.188-.3.376-.6.48-.908 0 0 .007.085.53-.079.187-.302.374-.605.478-.914 0 0 .012.083.533-.094.092-.318.183-.636.559-1.581 5.294-6.79 11.382-13.114 15.716-20.47 8.986-15.253 17.697-30.745 25.248-46.74 5.105-10.812 8.039-22.65 12.62-34.38.373-1.928.746-3.856 1.268-6.196 0 0 .046-.436.57-.627.097-.32.195-.642.44-1.686.036-.736.073-1.472.774-2.554.355-1.9.71-3.8 1.217-6.315.016-.423.032-.846.695-1.583.054-.935.108-1.87.316-3.22 0 0 .04-.442.756-.835.36-2.914.72-5.83 1.242-9.174 0 0 .045-.458.744-.846.368-2.578.736-5.156 1.253-8.345.015-.42.03-.839.773-1.695.427-4.212.945-8.416 1.262-12.636.978-13.01 1.878-26.025 2.962-39.471 0 0 .04-.459.797-.907.014-4.227.028-8.453.2-13.424-.051-.755-.102-1.51-.003-3.15-.318-3.08-.636-6.16-.974-10.16-.668-10.34-.982-20.717-2.094-31.008-1.31-12.122-2.436-24.375-5.227-36.196-3.84-16.269-8.59-32.383-14.007-48.202-6.175-18.032-14.692-35.084-24.87-51.262-13.257-21.07-29.05-39.909-48.033-56.116-11.906-10.166-24.676-18.955-38.406-26.405-14.948-8.11-30.692-14.178-47.045-18.834-17.757-5.056-35.929-7.56-54.246-8.805-10.777-.733-21.646-.18-32.472-.081-1.546.014-3.085.73-5.53.973-5.076.328-10.186.392-15.216 1.062-4.713.627-9.34 1.895-14.454 2.932 0 0-.424.153-1.175 0a74 74 0 0 1-3.82 1s-.43.157-1.134.008c-.803.316-1.606.633-3.245.975-.999.009-2.088-.243-2.984.065-13.524 4.643-27.385 8.533-40.446 14.247-20.758 9.081-39.489 21.736-56.267 36.978-13.767 12.506-25.918 26.528-36.408 41.959-15.546 22.868-27.414 47.536-35.806 73.82-3.324 10.414-5.48 21.2-8.874 32.2-.458 2.892-.915 5.784-1.29 8.716 0 0-.031-.086-.759.323-.27 1.933-.57 3.862-.802 5.799-.759 6.295-1.493 12.594-2.393 19.315 0 0-.046.449-.795.885-.738 8.148-1.873 16.284-2.121 24.446-.364 11.964-.219 23.949-.053 35.922a606 606 0 0 0 1.022 27.69c.236 3.952 1.24 7.859 1.917 12.667.007 1.832-.297 3.728.069 5.485 2.899 13.919 5.726 27.858 8.957 41.702 5.826 24.958 15.567 48.383 27.939 70.805 14.461 26.21 32.668 49.411 55.992 68.145 12.068 9.693 25.043 18.45 38.387 26.309 14.731 8.675 30.77 14.755 47.908 19.272 2.262.367 4.524.734 7.192 1.256 0 0 .432.04.623.56.319.097.636.195 1.68.439.738.039 1.476.078 2.554.785 1.234.02 2.468.041 4.128.218 0 0 .45.043.861.77 3.57.358 7.14.716 11.136 1.23 0 0 .45.043.877.782 5.217.424 10.426 1.02 15.65 1.233 9.677.395 19.363.564 29.476.985 0 0 .458.047.65.582.357-.179.715-.358 1.525-.588 0 0 .43-.155 1.353-.008 5.375-.29 10.75-.582 16.778-.966.433-.06.866-.12 2.187-.03 10.055-1.626 20.11-3.252 30.805-4.971.426-.058.85-.116 2.036-.03 1.8-.65 3.6-1.3 5.843-1.992 0 0 .417-.154 1.128-.008.81-.317 1.62-.634 2.871-.992 0 0 .416-.154 1.056-.01.495-.317.99-.634 2.205-.981.715-.055 1.429-.11 2.694-.075.204-.298.408-.596 1.042-.93 0 0 .401-.156 1.17-.012 3.124-1.312 6.247-2.625 10.15-3.968 12.599-6.066 25.491-11.597 37.718-18.338 13.865-7.643 26.075-17.731 37.912-28.763.195-.29.389-.581.502-.895 0 0 .028.08.622-.136.82-.939 1.64-1.878 2.37-2.864 0 0 .047.089.673-.167 1.135-1.6 2.271-3.202 3.33-4.825 0 0 .013.079.529-.092.185-.3.37-.6.476-.908 0 0 .008.079.524-.092.185-.3.37-.6.477-.908 0 0 .007.079.523-.092.185-.3.37-.6.477-.908 0 0 .007.079.523-.092m-910.588 13.094s-.08.007.09.524c.3.186.6.372.908.477 0 0-.082.008.09.524.3.186.601.372.91.476 0 0-.082.008.09.525.3.185.601.37.91.475 0 0-.082.008.09.525.301.186.601.371.91.475 0 0-.082.008.09.525.301.185.601.37.917.476 0 0-.078.025.178.648 1.27.815 2.54 1.63 4.061 3.072 12.26 10.346 25.418 19.431 39.967 26.16 11.32 5.234 23.108 9.454 35.022 14.784 1.605.377 3.21.754 5.225 1.289 0 0 .436.047.81.756 3.585.698 7.17 1.396 11.179 2.25 0 0 .448.045.761.694.937.05 1.874.1 3.231.303 0 0 .446.05.836.78 1.59.264 3.174.567 4.77.785 10.913 1.493 21.79 3.668 32.752 4.27 13.545.744 27.162.198 40.748.136 1.187-.005 2.371-.553 4.206-.938.43-.062.861-.123 2.17-.034 4.75-.65 9.498-1.299 14.688-1.99 0 0 .415-.158 1.267-.013a4488 4488 0 0 1 26.734-5.99s.415-.153 1.063-.006c.5-.319 1-.637 1.943-1 0 0 .417-.156 1.057-.011.497-.314.993-.627 1.943-.982 0 0 .426-.16 1.136-.012.807-.317 1.613-.633 2.853-.997 0 0 .408-.154 1.102-.004 1.15-.65 2.299-1.299 4.229-1.975l14.742-5.914c21.615-8.675 40.533-21.652 57.707-37.128 7.97-7.183 15.2-15.24 22.354-23.266 11.13-12.489 20.327-26.369 28.369-41.04 14.04-25.612 24.34-52.663 30.6-81.153 2.779-12.651 4.284-25.582 7.11-38.826.741-7.814 2.102-15.627 2.104-23.44.007-21.7-.466-43.4-.966-65.095-.086-3.772-1.224-7.52-1.909-12.161-1.66-10.088-3.26-20.187-4.995-30.262-3.99-23.178-11.452-45.32-21.112-66.654-9.58-21.16-21.266-41.072-36.207-59.106-12.882-15.55-26.958-29.72-43.559-41.101-10.199-6.992-21.314-12.647-32.317-19.53-1.256-.483-2.512-.965-3.796-1.368 0 0 .081-.018-.086-.542-.318-.091-.636-.182-1.564-.418-.418-.016-.836-.032-1.435-.561a36 36 0 0 1-1.364-.441s-.446-.042-.776-.701c-2.248-.807-4.496-1.613-6.772-2.34 0 0 .082-.018-.088-.541-.318-.092-.636-.184-1.59-.42-.432-.037-.864-.075-1.527-.683-.588-.145-1.177-.29-1.796-.355 0 0 .083-.02-.085-.54a34 34 0 0 0-1.583-.42c-.432-.04-.864-.08-1.65-.799a2017 2017 0 0 1-16.137-4.205s-.452-.042-.635-.547c-.31-.096-.62-.191-1.542-.445-.422-.015-.843-.031-1.615-.727-1.258-.04-2.515-.08-4.201-.277 0 0-.454-.043-.85-.753-13.948-2.088-27.838-5.211-41.86-5.988-15.65-.868-31.422.3-47.134.806-3.284.106-6.537 1.185-10.448 1.906-.427.061-.853.122-2.12.036a738 738 0 0 1-9.757 1.993s-.422.154-1.254.003c-4.1.984-8.2 1.969-12.749 2.998 0 0-.423.155-1.122.006-.8.306-1.599.61-2.31.958 0 0-.047-.086-.843.007-3.092.995-6.183 1.99-9.904 3.01-.413.058-.826.116-1.779.096-.197.294-.395.588-1.214.903-.408.054-.817.108-1.78.077-.202.3-.405.602-1.225.929-.407.053-.814.106-1.765.063-.195.298-.39.596-.504.91 0 0-.026-.08-.754.018-1.447.661-2.893 1.322-4.774 2.026 0 0-.41.149-1.107-.003-1.151.653-2.302 1.305-4.207 2-22.314 9.02-42.524 21.656-60.145 37.856-11.36 10.443-21.59 22.261-31.37 34.243-14.192 17.385-25.295 36.924-33.343 57.777-7.109 18.42-12.914 37.451-17.758 56.601-3.49 13.797-4.455 28.233-7.295 42.819-.017 3.226-.035 6.452-.21 10.103 0 0-.042.452-.803.91-.403 14.059-.831 28.118-1.167 42.18-.028 1.18.565 2.375.95 4.49.333 6.416.256 12.886 1.08 19.239 2.09 16.11 4.197 32.236 7.006 48.231 4.146 23.602 11.944 46.152 22.055 67.812 8.218 17.604 17.62 34.605 29.952 50.264.293.192.586.384.893.499 0 0-.078.01.092.525.3.185.6.37.908.477 0 0-.079.007.095.529.302.193.604.386.938 1.015 0 0 .148.41.064.963.3.203.601.405 1.015 1.058.179.29.44.436.972.95.303.19.606.378.916.486 0 0-.08.007.09.53.303.19.607.38 1.023 1.03.183.294.448.442.902 1.101.654.8 1.308 1.6 1.989 2.326 0 0-.078.019.091.534.3.184.6.368.909.475 0 0-.077.008.09.525.3.185.6.37.908.477 0 0-.078.007.09.525.3.186.6.37.908.477 0 0-.08.007.09.524.3.185.602.37.909.476 0 0-.08.008.091.524.3.186.6.372.907.478 0 0-.08.008.094.523.3.186.6.371.91.478 0 0-.077.021.013.718 2.053 2.228 4.106 4.457 6.315 6.947 0 0 .261.157.59.64 1.047.836 2.093 1.672 3.547 2.656 0 0 .431.038.62.552.303.188.605.377.914.485m-222.264-39.238c.045-.926.09-1.852.29-3.211 0 0 .044-.457.748-.844.265-1.244.527-2.488.794-3.73a2551 2551 0 0 1 4.459-20.425s.045-.458.69-.77c.052-.93.103-1.86.496-3.51 2.102-8.427 4.264-16.84 6.293-25.286 4.559-18.986 8.998-38.002 13.585-56.982 7.088-29.334 14.25-58.65 21.4-87.969 4.165-17.08 8.429-34.135 12.538-51.227 6.109-25.415 12.128-50.852 18.17-76.282 2.646-11.137 5.256-22.283 8.483-33.685.065-.622.13-1.243.342-2.504.039-.435.077-.87.814-1.698.258-1.237.51-2.475.774-3.711 1.418-6.65 2.838-13.3 4.41-20.375 0 0 .046-.45.698-.758.051-.937.103-1.873.31-3.234 0 0 .042-.45.647-.716.067-.626.135-1.25.349-2.51.04-.432.08-.864.763-1.598.027-.93.055-1.86.234-3.396.017-.417.033-.834.754-1.637 1.698-7.249 3.396-14.497 5.25-22.35.017-.416.034-.833.731-1.597.038-1.255.076-2.511.268-4.201 0 0 .043-.46.748-.847 1.7-7.254 3.4-14.508 5.25-22.392.037-.428.074-.857.783-1.631.021-1.244.043-2.487.22-4.148 0 0 .046-.443.756-.837l1.356-7.5h-146.973c-.09 1.394-.166 2.552-.16 3.747 0 0-.035-.08-.752.313-.688 4.574-1.376 9.147-2.223 14.128 0 0-.043.436-.759.834-.452 3.227-.905 6.455-1.275 9.722 0 0-.032-.085-.754.31-.683 4.895-1.365 9.79-2.201 15.123 0 0-.05.463-.768.862-.267 1.584-.506 3.174-.806 4.752-2.084 10.99-4.182 21.978-6.427 33.604-.042.434-.083.868-.798 1.644a52 52 0 0 1-.224 4.53c-1.665 7.895-3.418 15.774-4.976 23.69-3.156 16.03-6.152 32.09-9.314 48.117-3.85 19.513-7.9 38.987-11.685 58.513-3.82 19.7-7.339 39.459-11.142 59.163-3.524 18.262-7.236 36.488-10.897 54.723-1.14 5.681-2.383 11.342-3.579 17.013-1.727-4.88-2.644-9.614-3.37-14.375-2.08-13.652-3.966-27.333-6.143-40.97-2.505-15.692-5.316-31.337-7.849-47.026-2.148-13.307-4.03-26.657-6.135-39.972-2.23-14.1-4.529-28.188-6.906-42.263-1.266-7.496-2.76-14.953-4.004-23.213-.315-1.449-.63-2.897-.986-4.796 0 0-.163-.422-.019-1.21-.314-1.448-.629-2.895-.982-4.786 0 0-.157-.416-.01-1.262-.65-3.43-1.3-6.86-1.992-10.737 0 0-.156-.422-.008-1.283-.651-3.757-1.303-7.514-1.994-11.716 0 0-.157-.417-.007-1.273-.33-2.58-.557-5.176-1.008-7.733-.914-5.192-1.95-10.363-2.977-15.995 0 0-.156-.427-.01-1.216-.32-1.446-.639-2.892-1.004-4.786 0 0-.156-.422-.008-1.211-.314-1.447-.629-2.894-.987-4.785 0 0-.157-.417-.012-1.277a3268 3268 0 0 1-2.989-17.728s-.156-.429-.008-1.214a186 186 0 0 1-.991-4.77s-.157-.422-.01-1.275c-.648-3.764-1.297-7.527-1.985-11.739 0 0-.157-.422-.01-1.268-.65-3.43-1.301-6.86-1.996-10.735 0 0-.156-.42-.007-1.208-.316-1.446-.63-2.891-.993-4.789 0 0-.156-.427-.008-1.212-.314-1.442-.628-2.885-.974-4.958-.056-.416-.112-.832-.015-2.09.46-4.48-.99-6.298-6.04-6.278-49.65.2-99.3.12-148.949.12h-4.911c-.085 1.95-.15 3.445-.135 4.984 0 0-.03-.087-.762.32-.634 4.345-1.287 8.687-1.899 13.035-1.062 7.548-2.098 15.098-3.299 23.293-.038.44-.076.88-.812 1.725a653 653 0 0 1-1.18 9.474c-.498 2.695-1.042 5.382-1.485 8.086-1.862 11.375-3.728 22.749-5.527 34.133-1.825 11.555-3.523 23.13-5.369 34.68-1.818 11.376-3.75 22.733-5.638 34.098-1.914 11.527-3.869 23.047-5.741 34.58a3639 3639 0 0 0-5.247 33.208c-1.77 11.574-3.323 23.183-5.19 34.741-2.148 13.288-4.626 26.523-6.797 39.807-2.465 15.085-4.749 30.2-7.217 45.976-.844-2.222-1.401-3.689-1.809-5.907a72 72 0 0 1-.995-3.814s-.158-.42-.01-1.253c-.959-4.411-1.917-8.823-2.966-13.876-.058-.427-.116-.853-.027-1.99a29 29 0 0 1-.998-2.885s-.16-.42-.014-1.173c-.314-1.125-.629-2.249-.987-3.82 0 0-.156-.423-.009-1.176-.315-1.124-.63-2.248-.973-4.004-.058-.417-.116-.833-.027-1.955-.314-.806-.627-1.611-.97-3.26-2.724-14.004-5.449-28.006-8.025-42.835-1.317-5.772-2.634-11.544-3.994-17.767 0 0-.158-.425-.01-1.275-1.98-9.761-3.961-19.523-5.985-29.735 0 0-.161-.424-.015-1.177-.316-1.123-.631-2.246-.993-3.822 0 0-.156-.428-.01-1.21a130 130 0 0 0-.952-4.219s.08-.037-.018-.887c-1.322-6.41-2.643-12.82-3.997-20.073-2.058-10.345-4.116-20.69-6.027-31.869-1.853-9.434-3.674-18.874-5.569-28.3-1.408-7.005-2.912-13.992-4.421-21.439 0 0-.16-.425-.014-1.24-.64-2.759-1.28-5.517-1.953-8.191 0 0 .08-.042-.016-.878-.657-3.081-1.314-6.162-2.017-9.682 0 0-.156-.413-.005-1.233-.65-2.777-1.3-5.555-1.979-8.956-.058-.41-.116-.82-.02-2.029-.65-2.443-1.3-4.886-1.997-7.782 0 0-.16-.426-.011-1.162a80 80 0 0 1-.97-3.972c-.059-.433-.119-.866-.03-2.051-.316-1.124-.632-2.247-.992-3.819 0 0-.155-.422-.006-1.258-.328-1.88-.594-3.775-.996-5.64-1.627-7.556-3.296-15.103-4.98-23.277-.059-.41-.117-.82-.029-1.919a27 27 0 0 1-.958-3.12 17 17 0 0 1-.042-2.851 9.4 9.4 0 0 1-.99-1.934s-.155-.428-.006-1.18c-.316-1.121-.633-2.243-.996-3.824 0 0-.157-.433-.008-1.282.791-4.41-1.412-5.217-5.37-5.207-46.084.112-92.17.07-138.255.082-1.405 0-2.81.16-4.393.257 1.067 3.886 2.028 7.383 3.03 11.323 0 0 .156.417.01 1.228 1.652 6.108 3.304 12.216 4.999 18.771 0 0 .154.423.008 1.126.313.804.626 1.607.97 3.248.003.833-.156 1.706.035 2.494 4.83 19.913 9.711 39.814 14.557 59.724 4.158 17.087 8.326 34.171 12.414 51.275 7.092 29.67 14.056 59.37 21.209 89.026 5.143 21.325 10.494 42.601 15.777 63.892 3.944 15.893 7.927 31.775 12.009 48.45.326 1.439.653 2.877 1.02 4.76 0 0 .157.42.01 1.201.65 2.118 1.3 4.236 1.994 6.808 0 0 .156.43.01 1.14.313.81.626 1.62.976 2.851 0 0 .159.393.02 1.18.648 2.125 1.296 4.25 1.99 6.823 0 0 .156.422.007 1.128.317.805.634 1.61.995 2.871 0 0 .157.431.01 1.234a319 319 0 0 1 1.992 7.767s.154.425.005 1.132c.317.807.633 1.614.992 2.854 0 0 .155.408.006 1.103.294.799.588 1.597.972 3.04.057.428.114.856.024 1.928.318.497.636.995.999 1.94 0 0 .154.424.004 1.131.316.808.633 1.615.996 2.872 0 0 .155.423.007 1.243 1.316 5.105 2.633 10.211 3.991 15.76 0 0 .157.417.01 1.222.98 3.442 1.96 6.884 2.968 11.155.336 1.896.552 3.822 1.03 5.682 2.345 9.132 4.76 18.247 7 28.12.316 1.125.633 2.25.994 3.816 0 0 .154.415.007 1.196.65 2.12 1.3 4.242 1.993 6.805 0 0 .154.416.007 1.196.648 2.118 1.297 4.236 1.99 6.792 0 0 .156.412.006 1.193.653 2.12 1.305 4.242 2.005 6.816 0 0 .15.43-.005 1.177.306 1.118.613 2.235.958 3.265 0 0-.085.043.011.841.637 2.4 1.274 4.8 2.003 7.839.058.425.116.85.03 2.035.65 1.8 1.298 3.6 1.993 5.846 0 0 .155.422.008 1.128.316.806.632 1.613.975 3.05.058.415.115.829.028 1.88.313.496.626.99.969 2.11.058.411.116.822.027 1.926.294.797.588 1.593.972 3.038.058.43.117.86.029 1.933.317.496.634.991 1 1.931 0 0 .156.419.003 1.23 1.982 7.778 3.964 15.557 5.993 23.756 0 0 .149.396-.003 1.281.145 3.946 3.205 2.057 4.79 2.06 49.424.116 98.848.096 148.272.097.999 0 2.272.378 2.928-.096.867-.626 1.251-1.92 1.997-3.335 0 0 .047-.433.774-.832.357-3.24.715-6.48 1.24-10.527.332-1.07.79-2.119.978-3.214 1.802-10.547 3.463-21.12 5.356-31.65 2.118-11.79 4.575-23.52 6.63-35.32 2.504-14.383 4.602-28.837 7.13-43.216 3.169-18.022 6.676-35.984 9.885-54 2.475-13.89 4.602-27.845 7.092-41.734 2.857-15.935 6.073-31.805 8.9-47.745 3.881-21.894 7.543-43.827 11.3-65.744 1.924 6.46 3.061 12.966 4.222 19.467 1.824 10.207 3.689 20.408 5.488 30.62 2.195 12.456 4.32 24.924 6.514 37.38 1.799 10.213 3.68 20.412 5.48 30.624 2.196 12.454 4.325 24.92 6.522 37.373 1.801 10.21 3.687 20.405 5.484 30.616 2.191 12.452 4.313 24.916 6.494 37.37 2.487 14.203 4.949 28.411 7.537 42.596 1.243 6.816 2.752 13.583 3.993 21.22.984 5.097 1.968 10.192 2.995 15.726 0 0 .155.412.007 1.251.64 3.091 1.278 6.182 1.957 9.186 0 0-.084.045.009.91 1.003 5.908 2.71 11.806 2.798 17.727.077 5.239 2.432 5.41 6.409 5.403 48.937-.086 97.874-.057 146.81-.058 1 0 2.24.367 2.938-.092.942-.618 1.468-1.872 2.09-2.892 0 0 .038.082.633-.166.062-.612.124-1.224.338-2.453.015-.423.03-.847.743-1.657.7-3.579 1.4-7.158 2.253-11.158 0 0 .046-.446.697-.756.052-.936.104-1.872.312-3.234 0 0 .043-.451.648-.716.067-.625.134-1.25.346-2.51.04-.431.08-.862.764-1.596.027-.93.055-1.86.234-3.396.016-.417.032-.833.752-1.635 1.7-7.25 3.398-14.5 5.252-22.352.017-.416.033-.831.731-1.595.038-1.257.076-2.514.268-4.206 0 0 .044-.46.748-.847l5.252-22.39c.039-.429.078-.858.803-1.658.11-1.555.22-3.11.25-4.67 0 0 .014.078.657-.227M858.015 218.254a25 25 0 0 1-.999-2.965c-.055-.423-.11-.846-.074-1.827-.303-.204-.607-.407-.949-1.033 0 0-.151-.395-.003-1.024-.297-.493-.594-.985-.973-2.117-.056-.425-.113-.85-.082-1.828-.3-.202-.6-.405-.941-1.05 0 0-.156-.414-.013-1.051-.313-.494-.626-.989-.97-2.272-4.142-13.346-8.173-26.727-12.452-40.029-8.165-25.38-16.472-50.714-24.644-76.605-.294-.194-.587-.389-.922-1.024 0 0-.154-.415-.004-1.176-.652-1.8-1.303-3.599-1.995-5.826 0 0-.153-.403-.008-1.125-.627-1.46-1.253-2.92-1.966-5.02-.057-.424-.115-.848-.09-1.823-.298-.203-.597-.405-.932-1.036 0 0-.156-.4-.016-1.13-.646-1.474-1.291-2.947-1.966-5.214-2.723-8.358-5.446-16.717-8.035-25.895-1.26-.73-2.517-2.093-3.778-2.097-43.732-.11-87.464-.105-131.195-.01-1.042.002-2.08 1.212-3.041 1.892 0 0-.022-.083-.545.086-.091.317-.183.633-.416 1.583-.04.429-.082.858-.806 1.641-.446 2.23-.892 4.458-2.008 7.042-3.24 10.238-6.521 20.464-9.708 30.719-2.567 8.259-5.02 16.553-8.182 25.164-.38 1.6-.76 3.202-1.298 5.223 0 0-.045.447-.642.708-.066.618-.132 1.236-.355 2.281 0 0-.044.453-.724.803a602 602 0 0 1-2.278 8.201s-.043.432-.57.623c-.097.323-.193.647-.43 1.6-.04.428-.079.856-.77 1.61-.36 1.588-.718 3.176-1.23 5.397-.04.431-.079.863-.702 1.537-.047.607-.094 1.213-.306 2.234 0 0-.036.443-.543.637-.095.314-.19.628-.446 1.578-.04.435-.08.87-.706 1.546-.046.607-.091 1.214-.48 2.51-8.192 25.224-16.414 50.44-24.57 75.676-9.106 28.178-18.158 56.374-27.222 84.566-8.672 26.972-17.345 53.944-25.986 80.926-5.891 18.395-11.677 36.824-17.602 55.209-9.43 29.263-18.98 58.487-28.38 87.76-2.556 7.958-4.755 16.032-7.707 24.31-.065.61-.13 1.22-.352 2.27 0 0-.044.465-.702.796-.38 1.603-.76 3.206-1.297 5.223 0 0-.042.442-.64.707-.068.62-.136 1.238-.36 2.276 0 0-.041.446-.647.708a20 20 0 0 1-.35 2.294s-.043.446-.71.772c-.38 1.61-.758 3.22-1.292 5.235 0 0-.042.432-.57.623-.096.324-.192.648-.43 1.6-.039.429-.078.856-.752 1.589-.031.918-.062 1.837-.25 3.189 0 0-.046.459-.56.641-.093.313-.186.625-.443 1.697-.946 3.083-1.892 6.166-2.993 9.663 0 0-.048.44-.746.795l-2.468 8.52c1.493.107 2.613.258 3.732.258 46.856.011 93.712.01 140.568.008.665 0 1.635.276 1.934-.055.765-.845 1.232-1.961 2.17-3.663 1.053-3.68 2.156-7.347 3.152-11.043 6.904-25.597 13.727-51.217 20.718-76.79 1.715-6.278 3.957-12.411 6.88-18.462 20.102.005 40.203.032 60.304.008 26.909-.033 53.817-.105 81.437.226 5.156 19.255 10.312 38.51 15.322 58.523.65 1.799 1.301 3.597 1.995 5.825 0 0 .154.403.005 1.197.984 3.123 1.968 6.246 2.998 9.805 0 0 .154.409.005 1.21 2.66 9.943 5.54 19.834 7.839 29.86.665 2.901 1.827 3.383 4.282 3.381 48.108-.031 96.216-.023 144.795-.023-1.03-2.54-1.961-4.834-2.92-7.921-3.877-12.436-7.674-24.898-11.648-37.304-8.682-27.107-17.473-54.18-26.183-81.278-7.089-22.054-14.063-44.145-21.206-66.182-4.26-13.14-8.746-26.208-12.995-40.067-.647-1.798-1.294-3.596-1.984-5.827 0 0-.156-.406-.01-1.178-1.315-3.461-2.63-6.922-3.987-10.82 0 0-.16-.409-.023-1.137-.645-1.47-1.29-2.94-1.965-5.203-.963-3.222-1.877-6.46-2.897-9.663-7.025-22.054-14.007-44.122-21.137-66.142-4.252-13.132-8.746-26.186-12.994-40.03-.639-1.784-1.278-3.57-1.948-5.271 0 0 .08-.038-.017-.725m521.976-121.099c1.283-13.056 2.567-26.112 4.003-39.869.017-.717.035-1.434.802-2.595l1.359-19.386H1061.28v561.42h335.436V477.994h-5.212c-35.16 0-70.32.017-105.479-.005-28.992-.02-57.983-.086-87.01-.583 0 0-.162-.423-.025-1.35.004-5.643.019-11.287.01-16.931-.051-33.362-.108-66.724.051-100.638.323-.215.644-.43 1.891-.493h140.765v-110c-11.268 0-22.242-.012-33.217.003-36.156.049-72.312.108-109.082-.114-.187-.634-.374-1.267-.414-2.825-.051-30.006-.102-60.013.059-90.572.321-.215.642-.43 1.888-.495h173.895c0-3.024 0-5.497.155-8.401 0 0 .044-.456.76-.853.031-1.904.061-3.808.243-6.48.02-1.043.039-2.087.804-3.575.097-2.984.049-5.981.319-8.95.84-9.25 1.801-18.488 2.873-28.577M312.019 43.969s.084-.034-.289-.744c-.822-.082-1.686-.03-2.462-.266-20.224-6.127-41.34-7.23-62.01-7.56-67.795-1.08-135.617-.404-203.43-.404h-4.517v562.008c7.13 0 13.947.13 20.757-.02 71.57-1.583 143.232 3.495 214.728-3.012 3.798-.345 7.545-1.252 11.226-1.938 0 0 .047.086.874-.007 2.055-.305 4.11-.611 6.815-1.007.433-.059.865-.118 2.006-.028.809-.317 1.617-.634 2.859-.998 0 0 .407-.153 1.167-.002 1.793-.649 3.586-1.298 6.07-2.262 5.213-1.534 10.546-2.747 15.616-4.659 20.272-7.645 39-17.914 55.431-32.291 12.409-10.857 23.633-22.647 33.252-36.077 12.407-17.321 21.867-36.167 29.428-55.95 3.543-9.269 5.716-19.062 9.11-28.879.064-.62.13-1.241.341-2.474.016-.42.033-.838.736-1.604.37-1.938.742-3.877 1.263-6.442.038-.427.077-.854.786-1.62.022-1.237.043-2.474.22-4.146 0 0 .045-.46.69-.774.05-.932.101-1.863.307-3.223 0 0 .045-.453.726-.803.04-1.256.078-2.513.268-4.387.018-.424.036-.847.774-1.68.082-.988.136-1.98.25-2.964 2.33-20.063 5.752-40.075 6.704-60.203.985-20.819-.42-41.751-.823-62.634-.007-.359-.555-.707-.89-1.507 0 0-.157-.42-.026-.91-.044-.163-.089-.326.017-1.158-.05-.45-.102-.902-.005-2.244-.67-7.987-1.236-15.985-2.067-23.955-.291-2.795-1.236-5.522-1.91-8.91-.058-.415-.116-.829-.026-2.098-1.315-7.088-2.631-14.177-3.977-22.103-.002-.833.15-1.7-.03-2.492-5.08-22.314-11.325-44.25-20.898-65.13-12.95-28.246-30.11-53.373-55.387-71.97-9.55-7.028-20.34-12.372-30.748-18.994a40 40 0 0 1-1.36-.44s-.447-.048-.748-.692c-1.285-.385-2.57-.77-4.267-1.306 0 0-.437-.045-.624-.559-.315-.097-.629-.195-1.37-.447 0 0-.452-.042-.72-.633-.613-.072-1.227-.143-2.272-.366 0 0-.454-.043-.639-.553-.312-.098-.624-.195-1.357-.453 0 0-.448-.046-.71-.648-.622-.066-1.244-.132-2.295-.346 0 0-.452-.044-.814-.732-5.236-1.461-10.473-2.923-15.75-4.304"/><path fill="#0f2d63" d="M1662.838 376.994s.158.419.166 1.01c.284 1.719.56 2.846.837 3.974l1.959 5.156c2.468-15.776 4.752-30.89 7.217-45.976 2.171-13.284 4.649-26.519 6.796-39.807 1.868-11.558 3.421-23.167 5.19-34.741a3639 3639 0 0 1 5.248-33.207c1.872-11.534 3.827-23.054 5.741-34.58 1.887-11.366 3.82-22.723 5.638-34.1 1.846-11.55 3.544-23.124 5.37-34.679 1.798-11.384 3.664-22.758 5.526-34.133a88 88 0 0 1 1.867-8.7c.754-3.497 1.125-6.38 1.495-9.264.039-.44.077-.88.462-1.896.856-3.143 1.49-5.692 1.852-8.28 1.293-9.287 2.494-18.586 3.73-27.88 0 0 .031.087.365.03 2.153-3.655 5.2-4.007 8.911-3.997 46.452.118 92.903.173 139.354-.054 5.353-.026 9.327.73 11.283 6.124.056.416.112.832.17 1.952.276 2.149.55 3.594.824 5.04 0 0 .156.426.164 1.042.284 2.064.56 3.513.836 4.961 0 0 .156.42.164 1.094.618 4.085 1.23 7.496 1.841 10.907 0 0 .157.422.161 1.113.001 2.48-.24 4.31.058 6.048.342 1.994 1.163 3.906 1.776 5.853 0 0 .157.422.168 1.034.286 2.056.559 3.5.832 4.943 0 0 .156.43.162 1.119.004 2.315-.252 3.988.05 5.555.8 4.14 1.842 8.232 2.788 12.343 0 0 .157.417.165 1.029.282 2.061.557 3.512.831 4.962 0 0 .156.422.164 1.036.29 2.063.57 3.512.85 4.961 0 0 .156.427.16 1.11.543 5.544.939 10.428 1.675 15.259.446 2.922 1.42 5.764 2.156 8.642 0 0 .157.417.163 1.095.617 4.417 1.229 8.158 1.84 11.899 0 0 .156.422.162 1.097.618 4.086 1.228 7.497 1.839 10.908 0 0 .157.416.162 1.028.281 2.062.557 3.512.834 4.962 0 0 .162.422.164 1.008.28 2.056.558 3.526.836 4.996 1.391 7.474 2.886 14.931 4.152 22.427a4084 4084 0 0 1 6.906 42.263c2.105 13.315 3.987 26.665 6.135 39.972 2.533 15.69 5.344 31.334 7.85 47.027 2.176 13.636 4.063 27.317 6.142 40.969.726 4.761 1.643 9.494 3.37 14.375 1.196-5.67 2.44-11.332 3.58-17.013 3.66-18.235 7.372-36.461 10.896-54.723 3.803-19.704 7.323-39.463 11.142-59.163 3.786-19.526 7.835-39 11.685-58.513 3.162-16.027 6.158-32.088 9.314-48.117a492 492 0 0 1 5.396-24.162c.439-1.78.458-3.09.477-4.4.042-.434.083-.868.507-1.817 4.446-12.772 6.863-25.343 7.57-38.24 0 0 .049-.463.393-.935 1.09-5.33 1.834-10.188 2.58-15.046 0 0 .03.085.392.007.785-3.4 1.207-6.721 1.63-10.042 0 0 .043-.436.49-.738 1.13-4.941 1.81-9.58 2.493-14.22 0 0 .034.081.377.017 2.563-1.016 4.78-2.788 7.004-2.796 44.122-.163 88.244-.124 132.366-.11 1.607.001 3.214.175 5.355.299v6.818s-.046.443-.459.725c-.434 1.592-.456 2.902-.478 4.212-.038.428-.075.857-.54 1.683-2.127 7.725-3.827 15.053-5.527 22.381 0 0-.043.46-.366.94-.424 1.677-.525 2.873-.626 4.07-.016.415-.033.832-.482 1.63-2.128 7.706-3.825 15.03-5.522 22.354-.017.417-.033.834-.445 1.617-.425 1.355-.454 2.344-.483 3.332-.04.432-.08.864-.419 1.812-.417 1.098-.536 1.679-.654 2.26 0 0-.042.45-.358.9-.427 1.33-.536 2.211-.646 3.093 0 0-.046.449-.426.855-1.241 2.828-2.415 5.19-2.9 7.687-1.054 5.426-1.756 10.92-2.602 16.385-.039.436-.077.87-.413 1.824a12.3 12.3 0 0 0-.645 2.246c-2.627 11.142-5.237 22.288-7.883 33.425-6.042 25.43-12.061 50.867-18.17 76.282-4.11 17.092-8.373 34.148-12.538 51.227-7.15 29.319-14.312 58.635-21.4 87.969-4.587 18.98-9.026 37.996-13.585 56.982a739 739 0 0 1-6.702 25.881c-.517 1.472-.625 2.35-.732 3.227 0 0-.045.458-.384.916-2.099 8.334-3.858 16.209-5.618 24.084 0 0-.044.457-.358.907-.415 1.322-.517 2.194-.619 3.066 0 0-.014-.078-.261.102-.395 1.74-.542 3.3-.69 4.861-.038.43-.077.858-.544 1.685-2.128 7.725-3.828 15.052-5.528 22.38 0 0-.044.459-.367.94-.424 1.678-.525 2.876-.626 4.073-.017.416-.033.831-.48 1.631-2.129 7.708-3.827 15.03-5.526 22.354-.016.416-.032.832-.443 1.615-.425 1.354-.454 2.343-.483 3.332-.04.432-.08.863-.419 1.811-.416 1.097-.534 1.678-.652 2.258 0 0-.043.45-.36.9-.427 1.332-.536 2.214-.646 3.095 0 0-.046.446-.43.855-1.11 3.985-1.839 7.56-2.567 11.136-.015.423-.03.847-.343 1.772a11.4 11.4 0 0 0-.635 2.199s-.037-.082-.386-.016c-2.156.682-3.962 1.833-5.77 1.837-48.377.098-96.755.061-145.133.108-3.933.004-5.619-1.536-5.864-5.58-.318-5.24-1.229-10.452-2.062-15.647-.107-.667-1.281-1.162-1.961-1.737 0 0 .084-.045.087-.44-.602-3.474-1.207-6.552-1.812-9.63 0 0-.155-.412-.162-1.087-.951-5.75-1.895-10.825-2.84-15.9-1.389-6.788-2.898-13.555-4.141-20.37-2.588-14.186-5.05-28.394-7.537-42.597-2.181-12.454-4.303-24.918-6.494-37.37-1.797-10.21-3.683-20.406-5.484-30.616-2.197-12.454-4.326-24.919-6.522-37.373-1.8-10.212-3.681-20.41-5.48-30.624-2.194-12.456-4.319-24.924-6.514-37.38-1.8-10.212-3.664-20.413-5.488-30.62-1.16-6.501-2.298-13.007-4.222-19.467-3.757 21.917-7.419 43.85-11.3 65.744-2.827 15.94-6.043 31.81-8.9 47.745-2.49 13.89-4.617 27.843-7.092 41.735-3.21 18.015-6.716 35.977-9.885 54-2.528 14.378-4.626 28.832-7.13 43.215-2.055 11.8-4.512 23.53-6.63 35.32-1.893 10.53-3.554 21.103-5.356 31.65-.188 1.095-.646 2.144-1.357 3.798-.781 3.837-1.185 7.09-1.588 10.342 0 0-.047.433-.5.699-2.947.897-5.44 2.072-7.936 2.078-47.198.11-94.397.115-141.595-.004-2.618-.007-5.234-1.272-7.851-1.951 0 0-.15-.396-.159-1.055-.985-6.248-1.802-11.872-3.015-17.409-.496-2.263-1.851-4.339-2.815-6.5 0 0-.157-.418-.18-.941-.293-1.032-.561-1.541-.83-2.05-.058-.43-.117-.86.044-1.803-.202-1.414-.623-2.317-1.044-3.22-.058-.41-.116-.82-.187-1.844-.279-1.12-.545-1.627-.811-2.135-.058-.414-.115-.828-.174-1.898a20 20 0 0 0-.827-3.101s-.155-.422-.165-1.06c-.619-2.414-1.228-4.191-1.838-5.969-.059-.424-.117-.85.07-1.83-.618-3.064-1.481-5.572-2.344-8.08 0 0 .085-.044.088-.366-.266-1.444-.536-2.567-.806-3.69 0 0-.15-.43-.16-1.085-.623-2.75-1.234-4.846-1.845-6.942 0 0-.156-.412-.164-1.04-.617-2.733-1.226-4.839-1.835-6.944 0 0-.154-.416-.162-1.047-.618-2.739-1.228-4.847-1.838-6.955 0 0-.154-.415-.161-1.004-.284-1.72-.56-2.85-.837-3.98-2.39-9.12-4.805-18.235-7.15-27.367-.478-1.86-.694-3.786-1.028-6.53-.94-4.268-1.882-7.69-2.823-11.112 0 0-.157-.417-.162-1.08-1.283-5.747-2.56-10.832-3.838-15.917 0 0-.155-.423-.164-.989-.285-1.381-.561-2.197-.837-3.013 0 0-.154-.424-.175-.95a9 9 0 0 0-.831-2.058c-.057-.428-.114-.856.048-1.794-.202-1.415-.622-2.32-1.042-3.225 0 0-.155-.408-.163-.965-.284-1.373-.56-2.189-.835-3.004 0 0-.154-.425-.163-1.065-.618-3.07-1.227-5.5-1.836-7.93 0 0-.157-.43-.166-1-.285-1.38-.561-2.194-.837-3.008 0 0-.156-.422-.164-1.074-.62-2.754-1.232-4.856-1.843-6.958 0 0-.16-.393-.163-.945-.277-1.372-.552-2.19-.826-3.01 0 0-.156-.429-.163-1.065-.618-2.742-1.23-4.847-1.84-6.952 0 0-.156-.42-.163-1.046-.381-2.058-.756-3.49-1.13-4.923-3.966-15.887-7.95-31.77-11.893-47.662-5.283-21.291-10.634-42.567-15.777-63.892-7.153-29.655-14.117-59.356-21.21-89.026-4.087-17.104-8.255-34.188-12.413-51.275-4.846-19.91-9.726-39.81-14.557-59.724-.191-.788-.032-1.66-.037-3.251-.275-1.57-.549-2.382-.822-3.194 0 0-.154-.423-.161-1.094-1.62-6.751-3.233-12.831-4.846-18.91 0 0-.156-.418-.16-1.107.033-9.898.033-9.898 9.226-9.898 42.415 0 84.83.05 127.244-.077 4.137-.013 7.131.792 8.373 5.058 0 0 .157.433.167 1.03.285 1.724.561 2.852.837 3.979 0 0 .155.428.178.954a9 9 0 0 0 .82 2.045c.063.738.126 1.476-.032 2.767.197 1.453.615 2.355 1.033 3.256.058.41.116.82.175 1.991.34 3.86.406 7.02 1.079 10.045 1.413 6.353 3.146 12.635 4.748 18.947 0 0 .155.422.163 1.014.284 1.721.56 2.85.835 3.979.06.433.12.866-.052 1.834.197 1.747.625 2.96 1.053 4.173 0 0 .159.426.167 1.076.617 3.076 1.226 5.503 1.836 7.93.057.41.115.82.172 1.993.61 3.513 1.22 6.263 1.83 9.014 0 0 .155.413.162 1.092.956 3.675-2.126 7.596 2.107 9.84 0 0-.081.04-.087.426.6 3.13 1.207 5.876 1.813 8.621 0 0 .16.425.168 1.108.193 3.152.14 5.667.603 8.084a2979 2979 0 0 0 7.424 37.317c.319 1.555 1.191 2.996 1.807 4.49 2.059 10.344 4.117 20.689 6.175 31.906.715 6.862 1.39 12.858 2.222 18.832.068.484 1.223.816 1.873 1.22 0 0-.08.036-.086.381.266 1.782.539 3.219.812 4.656 0 0 .156.428.165 1.022.285 1.724.561 2.853.838 3.981 0 0 .16.424.167 1.1.964 6.538 1.8 12.424 2.925 18.254.757 3.926 1.923 7.773 2.906 11.655 0 0 .158.425.166 1.1.706 5.942 1.357 11.217 2.166 16.467.086.557 1.092.97 1.671 1.451 2.725 14.003 5.45 28.005 8.175 42.77.274 1.576.548 2.39.822 3.205.058.416.116.832.174 1.933.276 1.814.55 2.943.826 4.073 0 0 .156.422.165 1.014.284 1.722.558 2.852.832 3.982 0 0 .16.42.167.987.286 1.387.565 2.208.843 3.03.059.425.117.851-.053 1.825.863 5.086 1.954 9.624 3.046 14.163M2957.856 604.042s-.451-.043-.935-.378c-4.01-.764-7.536-1.193-11.062-1.622 0 0-.45-.043-.864-.358-1.628-.4-2.842-.485-4.056-.57-.737-.04-1.475-.08-2.713-.392-.745-.508-1.035-.644-1.371-.684 0 0-.432-.041-.736-.49-2.619-.802-4.933-1.153-7.248-1.505-16.778-3.819-32.817-9.9-47.548-18.574-13.344-7.859-26.32-16.616-38.387-26.309-23.324-18.734-41.53-41.934-55.992-68.145-12.372-22.422-22.113-45.847-27.939-70.805-3.231-13.844-6.058-27.783-8.957-41.702-.366-1.757-.062-3.653-.066-6.4-.658-13.642-1.928-26.374-1.843-39.098.136-20.386 1.17-40.766 1.824-61.148 0 0 .046-.45.445-.875 1.44-8.65 2.482-16.873 3.524-25.097 0 0 .031.086.39.01.786-3.06 1.211-6.041 1.637-9.023 2.688-10.617 4.844-21.403 8.168-31.816 8.392-26.285 20.26-50.953 35.806-73.821 10.49-15.431 22.64-29.453 36.408-41.96 16.778-15.241 35.509-27.896 56.267-36.977 13.06-5.714 26.922-9.604 40.446-14.247.896-.308 1.985-.056 3.741-.068 1.569-.276 2.38-.55 3.191-.823 0 0 .43-.158 1.026-.167 1.722-.286 2.849-.561 3.976-.837 0 0 .424-.153 1.11-.163 10.42-1.285 20.153-2.56 29.887-3.836 1.542-.391 3.081-1.107 4.627-1.121 10.826-.1 21.695-.652 32.472.08 18.317 1.247 36.489 3.75 54.246 8.806 16.353 4.656 32.097 10.725 47.045 18.834 13.73 7.45 26.5 16.239 38.406 26.405 18.982 16.207 34.776 35.046 48.033 56.116 10.178 16.178 18.695 33.23 24.87 51.262 5.416 15.819 10.167 31.933 14.007 48.202 2.791 11.821 3.917 24.074 5.227 36.196 1.112 10.29 1.426 20.668 2.054 31.855-.017 3.966.005 7.084.027 10.578 0 1.125 0 1.875-.002 3.09.01 4.532.022 8.6.035 12.667 0 0-.04.459-.378.992-1.111 10.51-1.848 20.49-2.668 30.464-.59 7.187-1.292 14.365-1.945 21.547-.015.42-.03.839-.439 1.77-.781 3.083-1.17 5.652-1.559 8.221 0 0-.045.458-.445.883-.786 3.33-1.171 6.237-1.557 9.142 0 0-.04.442-.357.886-.427 1.326-.537 2.208-.647 3.09-.016.423-.032.846-.41 1.752-.747 2.382-1.133 4.28-1.52 6.178-.036.736-.073 1.472-.386 2.709-.512.746-.649 1.038-.687 1.376 0 0-.046.436-.43.844-.775 2.319-1.168 4.228-1.56 6.138-3.905 11.38-6.839 23.218-11.944 34.03-7.551 15.995-16.262 31.487-25.248 46.74-4.334 7.356-10.422 13.68-16.057 20.918-.575.69-.708.977-.739 1.31 0 0-.012-.083-.222.018-.403.392-.597.685-.791.977 0 0-.007-.085-.213.02-.401.394-.596.683-.791.973 0 0-.008-.08-.214.025-.4.396-.592.686-.785.976 0 0-.008-.08-.214.025-.4.395-.592.685-.785.975 0 0-.007-.08-.214.026-.4.395-.593.684-.786.974 0 0-.007-.079-.214.026-.4.395-.593.684-.786.974 0 0-.007-.08-.214.026-.4.395-.593.684-.786.974 0 0-.008-.08-.214.026-.4.395-.594.684-.786.974 0 0-.013-.08-.34-.052-1.428 1.703-2.529 3.378-3.63 5.054 0 0-.045-.089-.387-.084-1.102 1.028-1.862 2.051-2.623 3.074 0 0-.028-.08-.216-.003-.487.215-.707.435-.847.733-11.304 11.118-23.514 21.206-37.38 28.85-12.226 6.74-25.118 12.271-38.52 18.337-3.909 1.274-7.012 2.549-10.116 3.824 0 0-.401.156-.852.24-.76.226-.991.45-1.141.756-.715.055-1.43.11-2.804.18-1.17.284-1.677.553-2.185.822 0 0-.416.154-.978.16-1.382.285-2.2.563-3.02.84 0 0-.417.154-1.052.16-2.412.619-4.19 1.23-5.968 1.842-.425.058-.85.116-1.83-.071-10.75 1.526-20.944 3.296-31.14 5.066-.432.06-.865.12-1.865-.055-6.089.195-11.612.624-17.135 1.054 0 0-.429.155-.972.163-.753.02-.964.033-1.174.045 0 0-.458-.047-.992-.389-15.362-1.1-30.19-1.857-45.018-2.615m-11.242-450.802c-.192.29-.384.58-.591.79 0 0 .075.03-.684-.007-4.154.53-6.081 3.035-6.309 6.999 0 0 .079.016-.414.218-.192.29-.384.58-.585.791 0 0 .078.008-.414.21-.192.289-.384.578-.586.79 0 0 .078.008-.414.216-.193.29-.387.58-.617 1.587-7.745 10.955-13.946 22.69-17.98 35.523-2.059 6.544-4.123 13.087-6.927 19.832-.35 2.313-.7 4.627-1.082 7.571-.057.415-.115.83-.665 1.776-.103 1.2-.205 2.402-.336 4.23-.059.412-.117.824-.796 1.645-.357.549-.978 1.073-1.033 1.65-1.084 11.354-2.101 22.714-3.178 34.528 0 0-.163.429-.682 1.043-.44 4.096-1.286 8.196-1.254 12.288.202 25.216.429 50.435 1.052 75.643.16 6.494 1.776 12.952 2.879 19.85 0 0 .042.451.011 1.389-.002 2.136-.342 4.338.057 6.396 1.092 5.628 2.496 11.195 4.123 17.501 3.273 10.914 6.122 21.979 9.926 32.704 4.975 14.03 12.514 26.567 23.026 37.388 8.24 8.484 18.264 13.656 29.321 18.692 1.226.16 2.452.319 4.121.523 0 0 .418.156.84.789.388.303.765.854 1.167.874 9.036.436 18.076 1.074 27.113 1.061 3.105-.005 6.208-1.664 9.72-2.725 0 0 .436-.044 1.12-.015a290 290 0 0 0 2.871-.99s.447-.045 1.049-.038c.509-.269 1.017-.537 1.954-.959 0 0 .452-.04 1.204-.015 1.129-.608 2.257-1.216 3.803-1.981 0 0 .445-.042.906-.178.304-.143.527-.365 1.324-.977 5.67-4.013 11.766-7.548 16.92-12.14 10.577-9.426 17.781-21.272 23.654-34.173 10.108-22.203 14.88-45.647 17.78-69.633.604-4.99 1.427-9.955 2.669-15.544.44-7.4 1.216-14.8 1.26-22.202.126-21.462-.026-42.926-.174-64.388-.004-.575-1.219-1.141-1.785-1.755 0 0-.043.083.001-.859-.339-5.716-.317-11.484-1.117-17.135-.811-5.732-2.434-11.348-3.852-17.653-.043-.434-.086-.869.42-1.751-1.089-4.207-2.178-8.413-3.61-13.318-4.937-13.058-9.251-26.396-14.98-39.097-6.412-14.22-16.406-26.065-29.904-34.083-20.194-11.995-41.918-13.898-64.258-7.004-6.388 1.971-12.376 5.244-19.048 8.132-.2.295-.399.59-.704 1.34-.178.294-.438.443-1.254.58-.311.144-.54.37-1.1.827 0 0-.439.037-.937.242-.199.29-.398.582-.603.794 0 0 .078.008-.414.21-.193.29-.386.579-.586.79 0 0 .078.008-.414.21-.194.287-.388.576-.588.787 0 0 .077.008-.416.21M2384.012 28.16c.427-.062.853-.123 1.838.052 6.959-.284 13.368-.715 19.758-1.337 20.087-1.955 40.04-1.04 59.918 2.4 6.495 1.124 13.067 1.804 19.604 2.687 0 0 .454.043.933.367 1.677.426 2.874.53 4.072.633.422.016.843.032 1.706.321.678.5.96.633 1.284.676 0 0 .452.042.75.479 4.09 1.796 7.845 3.286 11.699 4.446 1.374.413 2.989.024 4.494.002.432.04.864.08 1.747.39.688.5.97.634 1.3.67 0 0-.083.019-.057.287.684.398 1.342.528 2 .658.433.037.865.075 1.75.383.69.506.975.64 1.307.672 0 0-.082.018-.032.35 2.383 1.111 4.718 1.89 7.052 2.667 0 0 .446.042.793.316.587.5.87.637 1.198.68.418.016.836.032 1.693.319.676.504.96.638 1.292.67 0 0-.081.019-.025.355 1.384.777 2.712 1.218 4.04 1.66 10.703 6.255 21.818 11.91 32.017 18.902 16.6 11.38 30.677 25.552 43.56 41.1 14.94 18.035 26.626 37.947 36.206 59.107 9.66 21.333 17.122 43.476 21.112 66.654 1.735 10.075 3.334 20.174 4.996 31.171.66 13.636 1.928 26.366 1.845 39.088-.135 20.383-1.165 40.76-1.817 61.14-2.084 12.803-3.59 25.734-6.368 38.385-6.26 28.49-16.56 55.541-30.6 81.154-8.042 14.67-17.238 28.55-28.37 41.039-7.154 8.027-14.383 16.083-22.353 23.266-17.174 15.476-36.092 28.453-57.707 37.128-4.914 1.972-9.828 3.942-15.508 5.914-1.897.609-3.026 1.217-4.157 1.825 0 0-.408.154-.965.164-1.374.286-2.19.562-3.006.838 0 0-.426.16-.953.181-1.037.286-1.546.552-2.056.817 0 0-.417.156-.943.176a9 9 0 0 0-2.065.833s-.415.152-1.078.159a1261 1261 0 0 0-25.885 4.315c-.423.075-.696.996-1.038 1.524 0 0-.415.157-1.102.163-5.418.616-10.149 1.225-14.88 1.835-.43.061-.86.122-1.856-.054-9.63-.087-18.705.381-27.76.13-10.036-.277-20.071-1.028-30.076-1.916-8.179-.725-16.312-1.954-24.465-2.96 0 0-.446-.049-.895-.363-1.33-.422-2.213-.53-3.095-.638 0 0-.448-.046-.857-.431-3.987-1.114-7.566-1.844-11.144-2.573 0 0-.436-.047-.735-.487-1.952-.797-3.606-1.153-5.26-1.509-11.58-4.67-23.368-8.89-34.688-14.125-14.55-6.728-27.707-15.813-40.117-26.843-1.49-1.46-2.828-2.235-4.167-3.01 0 0 .078-.026-.03-.233-.4-.4-.69-.593-.981-.786 0 0 .082-.008-.023-.214a5.4 5.4 0 0 0-.977-.786s.081-.008-.023-.215a5.4 5.4 0 0 0-.977-.785s.082-.008-.023-.215a5.4 5.4 0 0 0-.977-.785s.082-.008-.022-.215c-.394-.4-.685-.593-.974-.787 0 0 .08-.007-.029-.216-.404-.402-.7-.596-.994-.79 0 0-.431-.038-.65-.493-1.365-1.198-2.51-1.941-3.657-2.684 0 0-.261-.157-.125-.604-2.09-2.697-4.315-4.947-6.54-7.197 0 0 .077-.021-.03-.229a5.5 5.5 0 0 0-.978-.785s.08-.008-.024-.215a5.4 5.4 0 0 0-.973-.787s.079-.008-.025-.215a5.4 5.4 0 0 0-.975-.786s.08-.007-.025-.214a5.4 5.4 0 0 0-.971-.788s.078-.007-.027-.214c-.393-.4-.682-.593-.97-.787 0 0 .077-.008-.03-.215-.395-.399-.683-.59-.971-.783 0 0 .078-.02.076-.351-.7-1.105-1.397-1.878-2.094-2.652-.347 0-.612-.149-.954-.922-.452-.677-.743-.876-1.035-1.074 0 0 .081-.007-.028-.216a5.5 5.5 0 0 0-.998-.792c-.341 0-.602-.144-.904-.897-.27-.774-.497-1.003-.808-1.15 0 0-.148-.41-.267-.878-.41-.668-.701-.868-.993-1.068 0 0 .079-.007-.026-.214a5.4 5.4 0 0 0-.973-.785s.078-.01.005-.2c-.216-.487-.437-.706-.736-.846-12.416-15.122-21.818-32.123-30.036-49.727-10.111-21.66-17.91-44.21-22.055-67.812-2.809-15.995-4.916-32.121-7.006-48.231-.824-6.353-.747-12.823-.817-19.973.098-6.596-.271-12.463-.184-18.323.14-9.36.584-18.714.9-28.07 0 0 .041-.453.38-.976.433-3.687.526-6.851.62-10.015 2.091-14.15 3.056-28.587 6.546-42.384 4.844-19.15 10.65-38.18 17.758-56.6 8.048-20.854 19.15-40.393 33.343-57.778 9.78-11.982 20.01-23.8 31.37-34.243 17.62-16.2 37.83-28.837 60.898-37.868 1.885-.619 3.018-1.228 4.15-1.836 0 0 .411-.149 1.038-.159 2.043-.71 3.459-1.412 4.875-2.113 0 0 .026.078.217.007.494-.215.716-.438.857-.742.407-.053.814-.106 1.767-.24.857-.225 1.086-.452 1.234-.763.408-.054.817-.108 1.767-.24.845-.222 1.07-.444 1.213-.748.412-.057.825-.115 1.984-.172 3.816-1.033 6.885-2.069 9.954-3.104 0 0 .047.086.34.087 1.1-.27 1.908-.54 2.716-.81 0 0 .423-.155 1.09-.162 4.749-.951 8.831-1.896 12.914-2.84 0 0 .422-.154 1.101-.163 3.76-.617 6.839-1.227 9.918-1.837m11.643 112.022c-.302.141-.522.364-1.27.81-.417.016-.835.032-1.715.182-.303.142-.527.365-1.328.976-10.774 5.68-20.02 13.019-27.427 22.904-9.846 13.142-16.239 27.847-20.796 43.382-2.945 10.04-4.886 20.372-8.02 30.764-.325 3.62-.65 7.242-1.075 11.513-.062.432-.125.865-.732 1.825-1.097 9.457-2.803 18.892-3.15 28.377-.535 14.675-.273 29.386-.105 44.08.15 13.079.249 26.18 1.102 39.222.543 8.302 2.423 16.516 3.865 25.189 0 0 .039.447.01 1.132.276.82.551 1.64.98 3.287.334 1.235.786 2.451.984 3.708 3.327 21.053 9.333 41.224 19.88 59.866 5.664 10.01 12.912 18.833 22.249 25.521 16.75 11.998 35.457 15.808 55.949 13.197 21.818-2.78 38.23-13.828 50.861-31.072 10.024-13.685 16.34-29.267 20.976-45.46 2.88-10.064 4.872-20.384 8.021-30.791.314-.359.876-.699.904-1.079.747-9.949 1.437-19.901 2.182-30.306 0 0 .156-.427.667-1.005.442-2.426 1.307-4.861 1.261-7.278-.567-29.613-1.249-59.224-2.008-88.833-.029-1.11-1.147-2.193-1.91-4.015-.042-.74-.084-1.479.433-2.686-.762-4.19-1.525-8.38-2.655-13.306-2.266-9.725-4.242-19.528-6.856-29.158-5.63-20.743-14.333-40.104-29.944-55.255-6.278-6.093-14.592-10.088-22.115-15.708-2.31-.687-4.62-1.374-7.578-2.147-.43-.058-.86-.116-1.692-.623a44 44 0 0 0-2.193-.398s-.431-.156-.957-.647a264 264 0 0 0-4.217-.336c-.413-.058-.826-.117-1.77-.72-7.873-2.156-15.695-2.142-24.095.706-.437.041-.875.083-1.732-.418-2.55.752-5.1 1.504-8.063 2.408 0 0-.439.045-1.285.02-1.744.702-3.487 1.404-5.258 2.027 0 0 .082.02-.378.145M449.04 426.141c-.016.42-.033.839-.346 1.763-.413 1.08-.529 1.655-.645 2.23-2.793 9.556-4.966 19.35-8.509 28.619-7.561 19.782-17.021 38.628-29.428 55.95-9.619 13.43-20.843 25.22-33.252 36.076-16.432 14.377-35.159 24.646-55.431 32.291-5.07 1.912-10.403 3.125-16.373 4.803-2.53.752-4.301 1.36-6.073 1.967 0 0-.407.153-.966.163-1.375.286-2.192.563-3.01.84-.431.058-.863.117-1.877-.078-2.933-.49-5.699-2.395-7.061 1.354 0 0-.047-.086-.474-.09-4.722.24-9.028.37-13.31.756-11.2 1.011-22.385 3.016-33.583 3.069-63.646.3-127.294.146-190.94.145-7.757 0-7.76-.004-7.76-7.563L40 44.105c0-7.787.325-8.219 8.248-8.086 71.387 1.198 142.829-2.67 214.17 2.091 13.657.912 27.219 3.253 40.828 4.91 2.946.36 5.905.613 8.857.915 0 0-.084.034-.024.368 5.39 1.775 10.721 3.216 16.052 4.658 0 0 .452.044.865.343.99.415 1.567.532 2.144.65 0 0 .448.045.794.322.584.509.867.645 1.196.686 0 0 .454.043.866.342.984.418 1.556.538 2.128.658 0 0 .452.042.802.317.59.509.876.645 1.207.686 0 0 .437.045.73.473 1.62.793 2.947 1.158 4.275 1.522 0 0 .447.047.794.32.585.502.868.637 1.195.68 10.225 6.11 21.015 11.454 30.566 18.482 25.277 18.597 42.437 43.724 55.387 71.97 9.573 20.88 15.818 42.816 20.899 65.13.18.791.027 1.66.03 3.366 1.277 7.945 2.552 15.014 3.828 22.084.058.414.116.828.173 2.024.344 5.884.477 11.013 1.09 16.084.686 5.658 1.808 11.263 2.74 16.891.051.451.102.902-.069 1.78-.123.69-.025.956.074 1.221 0 0 .156.42.16 1.122.33 11.146.951 21.592.913 32.036-.052 14.441-.327 28.895-1.037 43.317-.437 8.887-1.836 17.73-2.853 26.586-.961 8.363-1.988 16.718-2.986 25.077-.019.423-.037.846-.376 1.842-.424 1.77-.526 2.967-.628 4.165 0 0-.045.453-.36.904-.422 1.329-.53 2.207-.637 3.086 0 0-.045.46-.36.879-.401 1.634-.488 2.85-.576 4.066-.038.427-.077.854-.558 1.694-.797 2.4-1.152 4.388-1.507 6.375M306.004 247.176c-1.337-8.153-2.596-16.32-4.028-24.457-2.965-16.85-8.147-32.94-18.109-47.026-8.54-12.075-19.677-19.252-35.404-18.833-21.972.585-43.97.146-65.957.146h-5.467c0 106.372 0 212.122.521 318.529 1.132.158 2.264.453 3.396.454 23.725.01 47.45-.012 71.971-.024 5.166-1.644 10.826-2.433 15.408-5.085 16.73-9.682 24.538-26.03 29.444-43.61 3.765-13.492 5.658-27.507 8.89-41.856 1.109-11.318 3.192-22.64 3.14-33.953-.148-32.989-1.127-65.975-1.891-98.96-.035-1.507-1.146-2.99-1.914-5.325M823.162 562.983s-.154-.41-.163-1.062c-.953-3.75-1.897-6.848-2.84-9.946 0 0-.154-.403-.162-1.032-.619-2.403-1.23-4.179-1.84-5.954-5.157-19.255-10.313-38.51-16.143-58.221-1.656-.56-2.639-.756-3.622-.756-44.704-.015-89.409-.021-134.113.022-1.419.002-2.837.526-4.255.807-2 6.2-4.242 12.333-5.957 18.61-6.991 25.574-13.814 51.194-20.718 76.791-.996 3.696-2.099 7.363-3.705 11.452-3.052 1.04-5.55 2.218-8.052 2.225-43.967.111-87.934.08-131.902.079h-5.357l.626-8.137s.048-.44.471-.722c1.473-3.569 2.522-6.854 3.568-10.42a21 21 0 0 0-.04-.84s.045-.458.384-.825c.409-1.287.477-2.207.546-3.127.039-.428.078-.855.39-1.739.51-.703.646-.997.685-1.336 0 0 .042-.432.482-.727.8-1.952 1.16-3.61 1.519-5.266 0 0 .043-.446.344-.857.418-.99.537-1.567.655-2.145 0 0 .041-.446.342-.854.42-.983.538-1.558.657-2.133 0 0 .042-.442.483-.74.798-1.952 1.156-3.604 1.514-5.256 0 0 .044-.465.344-.879.414-.98.528-1.547.642-2.114 2.362-8.02 4.561-16.094 7.117-24.052 9.4-29.273 18.95-58.497 28.38-87.76 5.925-18.385 11.71-36.814 17.602-55.209 8.64-26.982 17.314-53.954 25.986-80.926 9.064-28.192 18.116-56.388 27.222-84.566 8.156-25.237 16.378-50.452 25.029-76.063.508-1.046.558-1.705.607-2.364.04-.435.08-.87.397-1.762.503-.7.636-.985.676-1.315 0 0 .036-.443.406-.694.42-.908.47-1.567.52-2.225.04-.432.079-.864.527-1.679.764-2.035 1.118-3.687 1.473-5.34.04-.427.079-.855.391-1.738.509-.703.646-.997.684-1.336 0 0 .043-.432.474-.716 1.13-2.946 1.828-5.606 2.527-8.267 0 0 .044-.453.344-.865.417-.985.535-1.557.652-2.13 0 0 .045-.447.486-.747.8-1.952 1.157-3.604 1.515-5.256 2.504-8.278 4.957-16.572 7.524-24.831 3.187-10.255 6.468-20.48 10.377-31.034 1.12-2.57 1.571-4.825 2.022-7.08.041-.43.082-.86.392-1.738.504-.686.637-.97.67-1.302 0 0 .022.083.407.04 2.669-.336 4.952-.883 7.237-.886 39.225-.053 78.451-.1 117.677.048 4.195.016 8.387 1.248 12.58 1.916 2.724 8.358 5.447 16.717 8.171 25.868.61 2.246 1.217 3.698 1.825 5.15 0 0 .156.4.242.85.229.761.455.99.764 1.138.057.424.115.848-.056 1.797.531 2.089 1.29 3.653 2.05 5.217 0 0 .152.403.157 1.031.617 2.405 1.228 4.182 1.84 5.959 0 0 .154.415.244.864.233.75.455.971.756 1.113 8.248 25.353 16.555 50.687 24.72 76.067 4.279 13.302 8.31 26.683 12.467 40.723.28 1.201.546 1.708.812 2.215 0 0 .156.415.243.872.231.769.458.998.768 1.146.055.425.112.85-.028 1.754.21 1.075.615 1.67 1.02 2.266 0 0 .152.395.24.844.231.762.46.993.77 1.141.056.424.11.847-.062 1.792.289 1.391.806 2.26 1.323 3.13 0 0-.08.038-.087.407.6 2.132 1.209 3.895 1.817 5.657 4.386 13.09 8.88 26.143 13.132 39.275 7.13 22.02 14.112 44.088 21.137 66.142 1.02 3.203 1.934 6.441 2.9 10.456.61 2.241 1.217 3.69 1.825 5.138 0 0 .16.409.167 1.054 1.282 4.079 2.558 7.513 3.834 10.947 0 0 .156.406.163 1.036.62 2.405 1.23 4.18 1.841 5.956 4.385 13.1 8.872 26.167 13.131 39.308 7.143 22.037 14.117 44.128 21.206 66.182 8.71 27.098 17.5 54.17 26.183 81.278 3.974 12.406 7.77 24.868 11.649 38.091v5.893c-1.83.086-3.455.229-5.08.23-44.253.011-88.507.01-132.76.008-.998 0-2.229.356-2.946-.095-1.531-.964-3.6-2.113-4.038-3.602-2.572-8.718-4.698-17.568-7.09-26.341-.296-1.088-1.272-1.99-1.934-2.978m-111.687-271.95-23.275 87.77h85.15l-42.22-157.36-.955.22c-6.076 22.89-12.152 45.781-18.7 69.37M1198.848 245.983c.187.633.374 1.266 1.185 2.303 1.11.504 1.595.692 2.08.692 44.27.02 88.537.053 132.805-.024 3.188-.006 5.168.872 5.594 4.152.234 1.802.461 3.623.463 5.435.028 29.996.02 59.992.02 89.987 0 7.487-1 8.463-8.731 8.464-42.16.005-84.321-.007-126.482.041-1.922.002-3.842.528-5.764.81-.322.215-.643.43-1.335 1.237-.473 1.243-.667 1.893-.667 2.543-.017 37.205-.026 74.409.016 111.613.001 1.25.536 2.498.822 3.747 0 0 .162.423.243 1.057 2.054 1.075 4.026 1.899 6 1.9 61.49.069 122.98.054 184.471.06 6.409 0 6.427.018 6.429 6.394q.01 50.992.001 101.984c0 7.115-.513 7.62-7.729 7.62q-159.726.001-319.452-.002c-6.803 0-6.814-.012-6.814-7.008q-.003-272.96 0-545.918c0-7.062.011-7.068 7.258-7.068Q1223.238 36 1377.215 36c1 0 2 .005 3 .005 3.532 0 4.572 2.285 4.503 5.242-.11 4.632-.437 9.258-.672 13.887-.017.717-.035 1.434-.511 2.61-.798.984-1.392 1.487-1.438 2.035a6290 6290 0 0 0-3.1 38.648c-.983 12.518-1.964 24.609-2.944 36.7-.02 1.042-.038 2.086-.39 3.802-.43 2.517-.529 4.36-.627 6.204 0 0-.044.456-.368.943-.32 6.252-4.001 6.963-8.674 6.957-53.408-.063-106.815-.049-160.222-.004-1.919.002-3.837.529-5.755.81-.32.216-.642.43-1.332 1.238-.474 1.242-.668 1.89-.668 2.54-.018 28.207-.03 56.414.015 84.62.002 1.25.532 2.497.816 3.745"/><path fill="#192c52" d="M1384.421 54.913c-.14-4.407.188-9.033.297-13.665.07-2.957-.97-5.242-4.504-5.242-1 0-2-.005-2.999-.005h-307.954c-7.247.001-7.258.007-7.258 7.069q-.003 272.958 0 545.918c0 6.996.01 7.008 6.814 7.008q159.726.004 319.452.001c7.216 0 7.728-.504 7.729-7.619q.009-50.993-.001-101.984c-.002-6.376-.02-6.394-6.429-6.395-61.49-.005-122.981.01-184.472-.058-1.973-.002-3.945-.826-5.981-1.675 28.928-.363 57.92-.296 86.911-.277 35.16.022 70.32.005 105.48.005h5.211v118.731h-335.436V35.305h324.874c-.45 6.422-.905 12.904-1.734 19.608M311.917 43.58c-2.766.053-5.725-.2-8.67-.56-13.61-1.657-27.172-3.998-40.83-4.91-71.34-4.76-142.782-.893-214.17-2.09-7.922-.134-8.247.298-8.247 8.085q0 272.166.002 544.331c0 7.559.003 7.563 7.76 7.563 63.646.001 127.294.155 190.94-.145 11.198-.053 22.384-2.058 33.583-3.07 4.282-.386 8.588-.514 13.354-.735-3.298.67-7.045 1.577-10.843 1.922-71.496 6.507-143.159 1.429-214.728 3.012-6.81.15-13.627.02-20.757.02V34.995h4.518c67.812 0 135.634-.676 203.43.405 20.67.33 41.785 1.432 62.009 7.56.776.234 1.64.183 2.649.62"/><path fill="#192b4e" d="M1200.48 357.919c1.46-.358 3.38-.884 5.302-.886 42.16-.048 84.321-.036 126.482-.04 7.731-.002 8.73-.978 8.73-8.465.002-29.995.01-59.991-.019-89.987-.002-1.812-.229-3.633-.463-5.435-.426-3.28-2.406-4.158-5.594-4.152-44.268.077-88.536.044-132.804.024-.486 0-.971-.188-1.774-.553 35.84-.32 71.995-.379 108.151-.428 10.975-.015 21.949-.003 33.217-.003v110c-46.914 0-93.84 0-141.227-.075"/><path fill="#182c51" d="M823.088 563.383c.736.588 1.712 1.49 2.009 2.578 2.391 8.773 4.517 17.623 7.089 26.341.439 1.489 2.507 2.638 4.038 3.602.717.451 1.948.095 2.946.095 44.253.001 88.507.003 132.76-.009 1.625 0 3.25-.143 5.08-.229 0-1.946 0-3.526.014-5.496.944 1.903 1.875 4.197 2.905 6.737-48.579 0-96.687-.008-144.795.023-2.455.002-3.617-.48-4.282-3.381-2.3-10.026-5.18-19.917-7.764-30.26M1857.932 573.497c.634.143 1.808.638 1.915 1.305.833 5.195 1.744 10.406 2.062 15.647.245 4.044 1.931 5.584 5.864 5.58 48.378-.047 96.756-.01 145.133-.108 1.808-.004 3.614-1.155 5.81-1.818-.314.935-.84 2.189-1.782 2.807-.698.459-1.938.092-2.937.092-48.937 0-97.874-.028-146.811.058-3.977.007-6.332-.164-6.41-5.403-.087-5.921-1.794-11.819-2.844-18.16"/><path fill="#192b4e" d="M1200.48 153.916c1.455-.357 3.373-.884 5.292-.886 53.407-.045 106.814-.06 160.222.004 4.673.006 8.354-.705 8.597-6.741.246 2.2.246 4.674.246 7.698-57.988 0-115.941 0-174.358-.075"/><path fill="#192b53" d="M1881.922 41.573c-2.033-4.974-6.007-5.729-11.36-5.703-46.45.227-92.902.172-139.354.054-3.71-.01-6.758.342-8.952 3.975-.309-1.46-.243-2.956-.158-4.905h4.911c49.65 0 99.3.08 148.949-.12 5.05-.02 6.5 1.798 5.964 6.7"/><path fill="#182b51" d="M1596.91 40.558c-1.317-3.842-4.311-4.647-8.448-4.634-42.415.127-84.83.077-127.244.077-9.193 0-9.193 0-9.247 9.677-.977-3.03-1.938-6.527-3.005-10.413 1.583-.096 2.988-.257 4.393-.257 46.085-.013 92.17.03 138.255-.082 3.958-.01 6.161.797 5.295 5.632"/><path fill="#182c51" d="M1584.08 594.404c2.694.237 5.31 1.502 7.928 1.509 47.198.119 94.397.114 141.595.004 2.496-.006 4.989-1.181 7.86-1.875-.217.945-.6 2.24-1.468 2.866-.656.474-1.93.096-2.928.096-49.424 0-98.848.02-148.272-.097-1.585-.003-4.645 1.886-4.714-2.503"/><path fill="#192c52" d="M484.61 588.04c.16 2.265-.027 4.708-.277 7.958h5.357c43.968 0 87.935.032 131.902-.08 2.501-.006 5-1.184 7.876-1.878-.21.947-.676 2.063-1.44 2.908-.3.331-1.27.055-1.935.055-46.856.001-93.712.003-140.568-.008-1.12 0-2.239-.151-3.732-.259.877-3.027 1.672-5.773 2.817-8.697"/><path fill="#182b51" d="M2152.397 42.932c-.355-1.93-.355-4.058-.355-6.621-2.14-.124-3.748-.298-5.355-.298-44.122-.015-88.244-.054-132.366.109-2.223.008-4.44 1.78-7.044 2.777-.308-1.112-.232-2.27-.142-3.664h146.973c-.468 2.586-.912 5.043-1.711 7.697"/><path fill="#192b4e" d="M454.401 402.925c.639-8.154 1.666-16.509 2.627-24.872 1.017-8.857 2.416-17.699 2.853-26.586.71-14.422.985-28.876 1.037-43.317.038-10.444-.583-20.89-.894-31.813.313-.125.861.223.868.582.403 20.883 1.808 41.815.823 62.634-.952 20.128-4.373 40.14-6.703 60.203-.115.984-.169 1.976-.61 3.17"/><path fill="#192b53" d="M799.914 37.594c-4.261-.258-8.453-1.49-12.648-1.506-39.226-.147-78.452-.101-117.677-.048-2.285.003-4.568.55-7.277.87.615-.62 1.654-1.831 2.696-1.834 43.731-.094 87.463-.099 131.195.011 1.26.004 2.519 1.367 3.71 2.507"/><path fill="#182c51" d="M660.486 486.916c.956-.356 2.374-.88 3.793-.882 44.704-.043 89.409-.037 134.113-.022.983 0 1.966.195 3.267.563-26.591.318-53.5.39-80.408.423-20.101.024-40.202-.003-60.765-.082"/><path fill="#182b4f" d="M2484.932 31.607c-6.34-.528-12.911-1.208-19.406-2.332-19.878-3.44-39.83-4.355-59.918-2.4a317 317 0 0 1-19.436 1.291c3.03-.91 6.284-1.99 9.568-2.096 15.712-.506 31.484-1.674 47.135-.806 14.02.777 27.911 3.9 42.057 6.343"/><path fill="#192a4d" d="M1198.922 476.52c-.354-.786-.889-2.034-.89-3.284-.042-37.204-.033-74.408-.016-111.613 0-.65.194-1.3.56-2.267.317 33.045.374 66.407.425 99.769a1269 1269 0 0 1-.079 17.395"/><path fill="#182b4f" d="M2749.588 266.08c-.28 20.164-1.313 40.544-1.45 60.93-.084 12.724 1.186 25.456 1.834 38.659-.67-3.454-1.674-7.36-1.91-11.313a606 606 0 0 1-1.022-27.69c-.166-11.973-.311-23.958.053-35.922.248-8.162 1.383-16.298 2.495-24.664"/><path fill="#192b4e" d="M2672.416 365.904c.28-20.16 1.311-40.536 1.446-60.92.083-12.72-1.184-25.45-1.83-38.645.669 3.29 1.807 7.038 1.893 10.81.5 21.695.973 43.396.966 65.094-.002 7.814-1.363 15.627-2.475 23.66"/><path fill="#182b4f" d="M2369.049 601.406c7.958.64 16.091 1.87 24.27 2.595 10.005.888 20.04 1.64 30.077 1.917 9.054.25 18.129-.218 27.435-.086-.946.578-2.13 1.126-3.317 1.131-13.586.062-27.203.608-40.748-.136-10.963-.602-21.839-2.777-32.751-4.27-1.597-.218-3.18-.521-4.966-1.15"/><path fill="#192a4d" d="M1198.921 245.52c-.357-.785-.887-2.033-.89-3.282-.044-28.206-.032-56.413-.014-84.62 0-.65.194-1.298.561-2.264.315 29.691.366 59.698.343 90.167"/><path fill="#182b51" d="M1625.915 187.57c-.69-1.077-1.562-2.518-1.881-4.073a2979 2979 0 0 1-7.424-37.317c-.464-2.417-.41-4.932-.579-7.859a889 889 0 0 1 4.39 20.532 1470 1470 0 0 1 5.494 28.716"/><path fill="#182b4f" d="M3242.405 381.916c.289-6.963.99-14.141 1.581-21.328.82-9.973 1.557-19.953 2.59-30.247-.668 12.696-1.568 25.712-2.546 38.72a126 126 0 0 1-1.625 12.855"/><path fill="#182b51" d="M1998.602 80.074c-.347 12.698-2.764 25.269-7.134 37.722 1.787-10.792 3.885-21.78 5.97-32.77.299-1.578.538-3.168 1.164-4.952"/><path fill="#192a4d" d="M2175.58 284.086c.066 9.128-.377 18.483-.517 27.842-.088 5.86.281 11.727.143 17.86-.608-.918-1.2-2.113-1.173-3.294.336-14.061.764-28.12 1.548-42.408"/><path fill="#192c52" d="M1379 98c1.02-12.74 2.029-25.483 3.097-38.22.046-.548.64-1.051 1.362-1.684-.9 12.947-2.185 26.003-3.755 39.482-.287.422-.704.422-.704.422"/><path fill="#182b4f" d="M2958.069 604.411c14.615.389 29.443 1.147 44.59 2.167-9.364 0-19.05-.17-28.726-.564-5.225-.212-10.434-.81-15.864-1.603M1721.567 40.095c-.87 9.09-2.072 18.39-3.365 27.676-.361 2.588-.996 5.137-1.775 7.957.777-7.297 1.813-14.847 2.875-22.395.612-4.348 1.265-8.69 2.265-13.238"/><path fill="#192b4e" d="M1378.997 98.428c.003-.428.42-.428.628-.427-.706 9.243-1.667 18.482-2.507 27.731-.27 2.969-.222 5.966-.692 9.173.607-11.868 1.588-23.96 2.57-36.477"/><path fill="#182b4f" d="M3025.457 605.914c9.75-1.845 19.945-3.615 30.374-5.095-9.82 1.918-19.875 3.544-30.374 5.095"/><path fill="#192b4e" d="M459.914 271.546c-1.006-5.183-2.128-10.788-2.813-16.446-.614-5.071-.747-10.2-1.077-15.769.661 2.292 1.606 5.02 1.897 7.814.831 7.97 1.397 15.968 1.993 24.4M1643.912 280.569c-1.057-3.457-2.223-7.304-2.98-11.23-1.125-5.83-1.96-11.716-2.904-18.029a1140 1140 0 0 1 5.884 29.259"/><path fill="#182b4f" d="M2469.419 603.916c-.084-.6.19-1.522.612-1.597 8.397-1.495 16.811-2.892 25.664-4.294a878 878 0 0 1-26.276 5.89"/><path fill="#182b51" d="M1605.915 85.578c-1.677-5.894-3.41-12.176-4.823-18.53-.673-3.024-.738-6.183-1.064-9.732 1.669 7.1 3.338 14.648 4.965 22.204.402 1.865.668 3.76.922 6.058M2129.458 138.87c.497-5.27 1.2-10.764 2.253-16.19.485-2.496 1.659-4.859 2.824-7.475-1.116 6.457-2.536 13.106-3.954 19.757-.263 1.236-.516 2.474-1.123 3.907"/><path fill="#192a4d" d="M2975.533 26.088c-9.282 1.35-19.015 2.625-29.21 3.885 4.203-1.002 8.83-2.27 13.543-2.897 5.03-.67 10.14-.734 15.667-.988"/><path fill="#182c51" d="M1578.091 569.404c1.041 1.755 2.396 3.83 2.892 6.094 1.213 5.537 2.03 11.161 2.992 17.199a648 648 0 0 1-5.884-23.293"/><path fill="#182b4f" d="M2753.568 240.095c-.678 8.019-1.72 16.242-3.082 24.68.423-6.083 1.157-12.382 1.916-18.677.233-1.937.533-3.866 1.166-6.003"/><path fill="#182c51" d="M2026.392 564.934a269 269 0 0 1 5.096-21.859c-1.346 7.167-3.045 14.416-5.096 21.859M2041.391 502.934c1.408-7.681 3.167-15.556 5.19-23.673-1.173 6.422-2.609 13.085-4.044 19.75-.267 1.242-.53 2.486-1.146 3.923"/><path fill="#182b51" d="M2145.39 71.937a269 269 0 0 1 5.101-21.874c-1.347 7.172-3.048 14.426-5.1 21.874"/><path fill="#182c51" d="M2033.391 535.935a269 269 0 0 1 5.102-21.871c-1.348 7.17-3.049 14.424-5.102 21.87"/><path fill="#182b51" d="M2138.394 100.93a269 269 0 0 1 5.093-21.858c-1.345 7.17-3.043 14.417-5.093 21.859"/><path fill="#192b4e" d="M1897.915 141.569c-.811-2.45-1.785-5.292-2.23-8.214-.737-4.831-1.133-9.715-1.655-15.033a447 447 0 0 1 2.952 15.086c.45 2.557.679 5.154.933 8.16M455.91 236.565c-1.349-6.643-2.624-13.712-3.886-21.238a632 632 0 0 1 3.887 21.238M1636.062 239.52c-.601.021-1.756-.311-1.824-.795-.833-5.974-1.507-11.97-2.206-18.41 1.338 5.96 2.66 12.37 4.03 19.204"/><path fill="#182b51" d="M1452.078 47.41c1.687 5.675 3.3 11.755 4.9 18.282a391 391 0 0 1-4.9-18.281"/><path fill="#182b4f" d="M2509.89 38.546c-1.327.362-2.942.751-4.316.338-3.854-1.16-7.609-2.65-11.487-4.367 5.153.992 10.39 2.34 15.804 4.029"/><path fill="#192c52" d="M327.95 48.617a142 142 0 0 1-15.85-4.355c5.196 1.088 10.433 2.55 15.85 4.355"/><path fill="#192b4e" d="M1891.911 104.568c-1.018-3.681-2.06-7.774-2.86-11.913-.302-1.567-.046-3.24-.028-5.328a434 434 0 0 1 2.888 17.241M1647.916 299.6c-.654-.068-1.66-.482-1.746-1.039-.809-5.25-1.46-10.525-2.144-16.242a380 380 0 0 1 3.89 17.28"/><path fill="#192a4d" d="M1547.087 440.418c1.351 4.675 2.63 9.76 3.891 15.286a279 279 0 0 1-3.891-15.286"/><path fill="#182b51" d="M2006.582 39.098c-.324 4.443-1.006 9.082-2.056 13.82.32-4.476 1.009-9.05 2.056-13.82"/><path fill="#192a4d" d="M1662.912 376.577c-1.166-4.122-2.257-8.66-3.075-13.425 1.232 4.185 2.19 8.597 3.075 13.425"/><path fill="#182c51" d="M1853.085 546.433c1.019 4.65 1.963 9.725 2.893 15.256a320 320 0 0 1-2.893-15.256"/><path fill="#182b4f" d="M3006.474 606.912c5.061-.504 10.584-.933 16.348-1.081-5.135.572-10.511.863-16.348 1.08"/><path fill="#192b4e" d="M2250.938 534.406c2.18 1.901 4.407 4.151 6.418 6.717-2.267-1.912-4.32-4.14-6.418-6.717"/><path fill="#182b51" d="M2001.573 64.092c-.384 4.66-1.129 9.518-2.141 14.63a131 131 0 0 1 2.141-14.63"/><path fill="#192a4d" d="M902.91 357.631c-1.349-3.048-2.625-6.482-3.886-10.343 1.33 3.035 2.644 6.496 3.886 10.343"/><path fill="#182b4f" d="M2372.577 30.083c-3.667 1.02-7.75 1.965-12.274 2.894 3.658-1 7.758-1.985 12.274-2.894M2453.45 605.916c4.292-.685 9.023-1.294 14.22-1.889a327 327 0 0 1-14.22 1.889"/><path fill="#192b4e" d="M1887.913 79.577c-.687-1.52-1.508-3.432-1.85-5.426-.298-1.737-.057-3.567-.038-5.823.664 3.296 1.313 7.06 1.888 11.25"/><path fill="#182b4f" d="M3076.367 595.916c2.719-1.347 5.822-2.622 9.34-3.881-2.709 1.328-5.832 2.64-9.34 3.881"/><path fill="#182c51" d="M1569.93 535.465c.815 2.11 1.678 4.618 2.25 7.362-.928-2.163-1.565-4.563-2.25-7.362"/><path fill="#192c52" d="M489 577c-1.048 3.285-2.097 6.57-3.492 9.932.6-3.007 1.546-6.09 2.783-9.553.29-.38.71-.379.71-.379"/><path fill="#182b51" d="M1614.065 127.522c-4.185-1.825-1.103-5.746-2.036-9.202.673 2.622 1.33 5.703 2.036 9.202"/><path fill="#182b4f" d="M2353.05 597.39c3.391.375 6.97 1.105 10.745 2.141-3.387-.39-6.973-1.088-10.745-2.14"/><path fill="#182c51" d="M820.084 552.372c1.018 2.7 1.962 5.799 2.892 9.331-.998-2.688-1.982-5.81-2.892-9.33"/><path fill="#182b4f" d="M2383.592 28.086c-2.66.683-5.738 1.293-9.274 1.888 2.647-.664 5.75-1.313 9.274-1.888"/><path fill="#192b4e" d="M1899.917 154.56c-.685-3.31-1.297-7.05-1.894-11.246.665 3.302 1.317 7.059 1.894 11.246"/><path fill="#182b51" d="M2003.599 54.058c-.065 3.122-.487 6.443-1.312 9.823.05-3.169.502-6.397 1.312-9.823"/><path fill="#182b4f" d="M2355.535 33.93a137 137 0 0 1-9.242 3.045c2.66-1.009 5.752-2.003 9.242-3.044"/><path fill="#192a4d" d="M1551.087 457.407c1.015 3.02 1.957 6.442 2.882 10.297-.996-3.01-1.976-6.452-2.882-10.297"/><path fill="#182c51" d="M2020.39 589.936c.378-3.383 1.106-6.958 2.14-10.732-.392 3.38-1.092 6.96-2.14 10.732M1742.402 592.94c.04-3.052.444-6.305 1.142-9.738-.063 3.06-.42 6.3-1.142 9.739"/><path fill="#192b4e" d="M1901.917 166.573c-.684-2.988-1.294-6.4-1.89-10.26a148 148 0 0 1 1.89 10.26M1885.918 66.567c-.685-2.988-1.297-6.4-1.893-10.261a148 148 0 0 1 1.893 10.261"/><path fill="#182b4f" d="M2755.606 231.068c-.073 2.79-.498 5.773-1.325 8.812.057-2.836.514-5.728 1.325-8.812"/><path fill="#192c52" d="M286.482 592.073c.95-3.703 3.715-1.797 6.323-1.263-1.8.605-3.854.91-6.323 1.263"/><path fill="#182b4f" d="M2946.064 602.406c3.321.065 6.848.494 10.645 1.18-3.3-.1-6.87-.459-10.645-1.18M1715.54 78.149c-.022 2.681-.393 5.565-1.072 8.647.036-2.683.38-5.564 1.072-8.647"/><path fill="#172845" d="M3247.41 328.908c-.39-3.844-.403-7.911-.205-12.443.211-.465.627-.46.627-.46-.015 4.226-.029 8.452-.422 12.903"/><path fill="#182c51" d="M1856.087 563.414c.679 2.659 1.284 5.737 1.866 9.254-.662-2.652-1.3-5.743-1.866-9.254"/><path fill="#172845" d="M3247 313a617 617 0 0 1-.018-9.743c.368 2.693.686 5.773.72 9.298-.283.445-.702.445-.702.445"/><path fill="#182b51" d="M1611.918 116.599c-.685-2.34-1.295-5.091-1.889-8.292.666 2.327 1.315 5.105 1.89 8.292"/><path fill="#182b4f" d="M3238.398 401.955c.029-2.71.414-5.615 1.12-8.73-.042 2.704-.402 5.619-1.12 8.73"/><path fill="#192b53" d="M660.542 40.102c-.11 2.079-.561 4.334-1.347 6.727.113-2.092.559-4.32 1.347-6.727"/><path fill="#182b4f" d="M637.623 112.044c-.359 2.486-1.058 5.146-2.11 7.89.354-2.517 1.062-5.116 2.11-7.89"/><path fill="#192a4d" d="M3166.385 540.985c.787-1.548 1.888-3.223 3.354-4.914-.77 1.584-1.906 3.185-3.354 4.914"/><path fill="#182b4f" d="M2524.97 44.634c-2.17-.449-4.504-1.227-6.873-2.377 2.212.434 4.46 1.24 6.873 2.377"/><path fill="#182b51" d="M1615.912 136.58c-.68-2.337-1.286-5.083-1.87-8.256.663 2.332 1.303 5.09 1.87 8.256"/><path fill="#192a4d" d="M1541.09 415.416c.682 2.029 1.291 4.459 1.886 7.304-.663-2.024-1.312-4.463-1.886-7.304"/><path fill="#182b4f" d="M2929.05 598.392c2.136.003 4.45.354 6.866 1.077-2.161.006-4.423-.36-6.865-1.077"/><path fill="#182c51" d="M1567.084 523.374c.686 1.706 1.297 3.802 1.895 6.326-.665-1.693-1.317-3.814-1.895-6.326"/><path fill="#182b4f" d="M3235.44 413.884c.054-1.725.44-3.623 1.112-5.697-.07 1.725-.425 3.624-1.113 5.697"/><path fill="#192a4d" d="M2176.588 273.084c.28 2.947.187 6.11-.167 9.585a49 49 0 0 1 .167-9.585"/><path fill="#182b4f" d="M633.56 124.09c-.028 1.489-.382 3.141-1.069 4.86.026-1.521.385-3.109 1.07-4.86"/><path fill="#192a4d" d="M1538.083 403.369c.681 1.708 1.293 3.81 1.89 6.34-.663-1.696-1.311-3.822-1.89-6.34"/><path fill="#182b51" d="M1609.918 105.603c-.686-2.028-1.295-4.455-1.889-7.305.665 2.02 1.315 4.463 1.889 7.305"/><path fill="#182b4f" d="M3240.393 391.932c.04-2.375.428-4.944 1.135-7.72-.05 2.37-.418 4.948-1.135 7.72"/><path fill="#192a4d" d="M812.914 77.663c-.832-1.203-1.59-2.767-2.079-4.536.898 1.255 1.524 2.715 2.079 4.536"/><path fill="#182c51" d="M1565.086 515.39c.683 1.715 1.292 3.82 1.887 6.334-.663-1.708-1.312-3.826-1.887-6.334"/><path fill="#192c52" d="M299.363 589.915c1.392-.683 3.164-1.29 5.348-1.884-1.382.662-3.175 1.311-5.348 1.884"/><path fill="#182c51" d="M1563.087 507.389c.683 1.717 1.293 3.825 1.889 6.343-.664-1.711-1.313-3.832-1.89-6.343"/><path fill="#192a4d" d="M1535.087 391.393c.685 1.715 1.296 3.82 1.892 6.334-.665-1.708-1.315-3.826-1.892-6.334M814.914 84.633c-.687-1.396-1.298-3.173-1.895-5.364.667 1.385 1.318 3.185 1.895 5.364"/><path fill="#192b4e" d="M449.383 425.968c.012-1.814.367-3.802 1.09-5.889-.004 1.84-.375 3.778-1.09 5.89"/><path fill="#192a4d" d="M904.91 364.63c-.68-1.396-1.29-3.172-1.888-5.361.66 1.385 1.308 3.183 1.887 5.36"/><path fill="#182b4f" d="M3232.382 424.95c.054-1.736.447-3.645 1.148-5.758-.064 1.726-.437 3.654-1.148 5.757"/><path fill="#192a4d" d="M859.911 224.628c-.677-1.385-1.285-3.148-1.871-5.321.662 1.374 1.301 3.159 1.871 5.321"/><path fill="#182b51" d="M1607.913 96.628c-.502-.845-.93-2.058-1.082-3.479.569.899.862 2.005 1.082 3.479"/><path fill="#192b4e" d="M2257.724 542.1a13.6 13.6 0 0 1 3.288 2.368c-1.031-.455-2.077-1.29-3.288-2.368"/><path fill="#182b4f" d="M3058.362 600.917c1.398-.685 3.176-1.296 5.367-1.894-1.386.665-3.187 1.315-5.367 1.894"/><path fill="#182b51" d="M1990.549 120.103c.317 1.139.298 2.448-.057 3.829-.317-1.173-.298-2.416.057-3.83"/><path fill="#182c51" d="M818.083 545.368c.684 1.396 1.295 3.172 1.892 5.36-.664-1.384-1.314-3.182-1.892-5.36M1572.084 545.358c.682 1.397 1.291 3.174 1.887 5.365-.662-1.386-1.31-3.186-1.887-5.365"/><path fill="#182b4f" d="M2336.576 39.934c-1.052.653-2.468 1.354-4.294 2.044 1.037-.673 2.483-1.334 4.294-2.044"/><path fill="#192b4e" d="M2268.024 551.372c1.21.465 2.55 1.24 3.913 2.387-1.246-.445-2.515-1.26-3.913-2.387"/><path fill="#182b51" d="M2151.44 47.893c-.313-1.137-.291-2.447.066-3.83.313 1.17.291 2.413-.066 3.83"/><path fill="#192a4d" d="M809.912 68.657c-.678-1.087-1.286-2.54-1.88-4.388.659 1.077 1.304 2.55 1.88 4.388"/><path fill="#182b4f" d="M2347.035 595.37c1.487.026 3.141.382 4.889 1.1-1.512-.016-3.117-.393-4.889-1.1M640.63 103.038c-.028 1.485-.386 3.137-1.105 4.879.017-1.511.397-3.112 1.106-4.88"/><path fill="#192a4d" d="M898.905 345.652c-.677-1.084-1.285-2.533-1.88-4.377.658 1.073 1.303 2.543 1.88 4.377"/><path fill="#182c51" d="M2039.455 511.878c-.196-1.374-.05-2.935.385-4.672.178 1.377.068 2.932-.385 4.672"/><path fill="#192a4d" d="M492.63 563.022c-.026 1.494-.385 3.15-1.108 4.9.017-1.518.396-3.127 1.108-4.9M496.63 551.04c-.029 1.486-.387 3.138-1.107 4.882.018-1.511.398-3.114 1.107-4.882"/><path fill="#192b4e" d="M1903.914 178.597c-.352-1.077-.63-2.547-.889-4.378.334 1.088.648 2.536.89 4.378"/><path fill="#182b4f" d="M2507.33 594.91c.783-.682 1.912-1.29 3.418-1.885-.773.662-1.923 1.311-3.419 1.886"/><path fill="#192a4d" d="M858.064 218.598c-.469-.526-.986-1.396-1.234-2.468.574.573.88 1.348 1.234 2.468"/><path fill="#182b4f" d="M2330.68 42.082c-.785.684-1.918 1.293-3.427 1.892.776-.663 1.927-1.315 3.426-1.892"/><path fill="#192b4e" d="M451.44 417.902c-.247-1.046-.16-2.262.164-3.678.215 1.035.194 2.272-.163 3.678"/><path fill="#182b51" d="M2137.436 105.922c-.293-.837-.264-1.826.085-2.877.292.867.264 1.796-.085 2.877"/><path fill="#192a4d" d="M3163.358 543.995c.464-.915 1.224-1.938 2.37-2.942-.434.957-1.254 1.896-2.37 2.942"/><path fill="#192c52" d="M342.988 54.638c-1.178-.042-2.505-.407-3.919-1.124 1.198.033 2.483.417 3.919 1.124"/><path fill="#182b51" d="M1599.911 54.669c-.491-.557-.909-1.459-1.06-2.544.555.611.844 1.405 1.06 2.544"/><path fill="#182b4f" d="M2941.11 601.447c1.043-.248 2.257-.163 3.672.16-1.034.215-2.268.195-3.673-.16"/><path fill="#182c51" d="M2025.436 569.923c-.293-.838-.264-1.827.085-2.878.292.867.264 1.797-.085 2.878"/><path fill="#182b4f" d="M2533.976 48.648c-1.178-.127-2.506-.568-3.875-1.384 1.213.106 2.469.588 3.875 1.384"/><path fill="#192a4d" d="M1544.085 428.327c.495.557.915 1.462 1.072 2.555-.558-.61-.852-1.41-1.072-2.555"/><path fill="#182c51" d="M1576.084 561.331c.495.556.916 1.459 1.073 2.55-.558-.61-.852-1.406-1.073-2.55"/><path fill="#192b4e" d="M1375.394 144.936c-.26-1.646-.161-3.489.193-5.622.226 1.615.196 3.52-.193 5.622M1883.914 54.595c-.35-1.054-.627-2.503-.887-4.341.33 1.056.645 2.501.887 4.341"/><path fill="#192b53" d="M1882.913 48.593c-.348-1.053-.622-2.498-.882-4.332.328 1.054.642 2.497.882 4.332"/><path fill="#192b4e" d="M1636.91 244.59c-.346-1.045-.619-2.482-.87-4.305.329 1.047.636 2.48.87 4.305"/><path fill="#192a4d" d="M1533.926 385.428c.316 1.038.69 2.47 1.051 4.306-.34-1.035-.667-2.473-1.051-4.306"/><path fill="#192b4e" d="M1888.913 85.589c-.347-1.052-.62-2.495-.88-4.327.326 1.053.64 2.493.88 4.327M1892.909 110.594c-.348-1.055-.623-2.506-.883-4.346.328 1.058.643 2.505.883 4.346M1893.922 116.591c-.353-1.054-.634-2.503-.9-4.342.334 1.056.654 2.502.9 4.342"/><path fill="#192a4d" d="M489.57 572.08c.25.767.18 1.687-.15 2.757-.23-.768-.198-1.687.15-2.758"/><path fill="#192b4e" d="M1902.911 172.592c-.348-1.056-.624-2.506-.885-4.346.328 1.057.643 2.504.885 4.346M2242.93 525.365c.644.445 1.341 1.218 2.027 2.36-.665-.43-1.32-1.23-2.027-2.36"/><path fill="#192a4d" d="M2944.612 30.084c-.751.353-1.878.628-3.373.89.754-.331 1.876-.649 3.373-.89"/><path fill="#182c51" d="M1562.087 502.391c.352.754.628 1.884.89 3.383-.332-.757-.649-1.882-.89-3.383"/><path fill="#182b4f" d="M2489.96 32.622c-1.023.237-2.22.133-3.683-.215.993-.206 2.25-.166 3.683.215"/><path fill="#182c51" d="M1569.086 531.385c.348.75.618 1.872.866 3.36-.33-.752-.637-1.87-.866-3.36M2032.386 540.968c-.24-1.023-.138-2.22.21-3.682.207.994.169 2.25-.21 3.682"/><path fill="#182b51" d="M1597.914 45.615c-.35-.751-.627-1.879-.89-3.373.33.754.648 1.876.89 3.373"/><path fill="#192b4e" d="M1637.913 249.609c-.35-.752-.626-1.881-.888-3.378.33.755.645 1.878.888 3.378"/><path fill="#182b51" d="M1606.913 90.613c-.35-.753-.626-1.882-.888-3.379.33.756.646 1.88.888 3.379"/><path fill="#192a4d" d="M1657.912 351.616c-.35-.753-.624-1.882-.885-3.38.329.756.643 1.88.885 3.38M1658.908 356.612c-.347-.753-.62-1.883-.883-3.38.327.755.642 1.88.883 3.38"/><path fill="#192b4e" d="M453.378 408.962c-.238-1.023-.136-2.22.212-3.681.207.993.168 2.25-.212 3.681"/><path fill="#182b51" d="M2144.387 76.965c-.24-1.022-.139-2.218.208-3.678.208.993.17 2.249-.208 3.678"/><path fill="#182b4f" d="M631.595 131.066c.242.537.192 1.196-.145 1.898-.241-.564-.194-1.17.145-1.898"/><path fill="#192a4d" d="M855.916 211.72c-.48-.282-.885-.877-1.054-1.632.534.332.831.824 1.054 1.631"/><path fill="#182b4f" d="M629.595 137.062c.244.538.194 1.197-.143 1.898-.241-.564-.196-1.171.143-1.898M2514.943 40.605c-.543.156-1.2.026-1.87-.412.578-.163 1.167-.018 1.87.412"/><path fill="#192a4d" d="M1663.916 381.603c-.352-.753-.628-1.88-.891-3.376.331.755.648 1.877.891 3.376"/><path fill="#192c52" d="M295.363 590.917c.462-.351 1.28-.628 2.438-.891-.467.33-1.275.648-2.438.89"/><path fill="#182c51" d="M2023.363 577.983c-.216-.726-.107-1.608.242-2.727.187.7.135 1.636-.242 2.727"/><path fill="#182b4f" d="M2365.02 600.365c.726-.217 1.608-.11 2.73.236-.7.188-1.636.138-2.73-.236M3065.357 598.915c.464-.35 1.283-.628 2.445-.892-.469.331-1.279.648-2.445.892"/><path fill="#182b51" d="M1457.086 67.362c.346.46.62 1.272.88 2.423-.327-.465-.64-1.268-.88-2.423"/><path fill="#182b4f" d="M3246.999 313.375c.001-.375.42-.375.628-.377.26.752.311 1.507.284 2.634-.079.372-.495.368-.703.368-.209-.75-.21-1.5-.209-2.625"/><path fill="#192a4d" d="M2939.635 31.09c-.46.348-1.271.622-2.422.885.464-.326 1.267-.643 2.422-.885"/><path fill="#182b4f" d="M2503.366 595.912c.461-.35 1.277-.626 2.434-.888-.466.33-1.272.646-2.434.888"/><path fill="#182b51" d="M2135.363 113.983c-.216-.727-.107-1.608.241-2.726.188.7.136 1.635-.241 2.726"/><path fill="#182b4f" d="M2358.64 33.086c-.459.345-1.266.616-2.411.864.462-.327 1.261-.632 2.41-.864"/><path fill="#192a4d" d="M1540.086 411.36c.35.46.626 1.274.89 2.428-.33-.465-.648-1.27-.89-2.428M1543.088 424.364c.35.461.625 1.277.888 2.433-.33-.466-.646-1.273-.888-2.433"/><path fill="#192b4e" d="M452.363 412.97c-.215-.722-.107-1.6.238-2.716.186.696.135 1.627-.238 2.716"/><path fill="#192a4d" d="M1546.085 436.36c.35.462.627 1.278.889 2.435-.331-.467-.648-1.274-.89-2.435"/><path fill="#182b4f" d="M3237.36 405.97c-.213-.725-.103-1.607.247-2.725.185.698.131 1.633-.247 2.725"/><path fill="#192a4d" d="M1537.09 399.375c.348.464.623 1.283.882 2.444-.328-.469-.64-1.279-.881-2.444"/><path fill="#182c51" d="M2047.363 477.972c-.215-.721-.107-1.599.24-2.711.186.695.135 1.625-.24 2.711"/><path fill="#192a4d" d="M1656.911 345.634c-.347-.461-.621-1.276-.881-2.43.328.466.641 1.271.881 2.43"/><path fill="#182c51" d="M1574.085 552.359c.35.462.624 1.277.887 2.433-.328-.467-.644-1.274-.887-2.433"/><path fill="#192a4d" d="M1659.92 360.65c-.353-.466-.632-1.287-.896-2.45.333.469.651 1.281.895 2.45"/><path fill="#182c51" d="M2040.384 506.948c-.22-.719-.118-1.59.22-2.696.19.692.146 1.618-.22 2.696"/><path fill="#192a4d" d="M853.91 205.677c-.338-.188-.604-.695-.87-1.501.315.194.628.689.87 1.501"/><path fill="#182c51" d="M1577.085 566.328c.342.188.61.697.878 1.507-.317-.195-.634-.69-.878-1.507"/><path fill="#192a4d" d="M494.663 557.003c.18.442.061 1.017-.28 1.79-.155-.42-.087-1.039.28-1.79M497.65 548.01c.18.438.067 1.005-.268 1.766-.157-.416-.092-1.027.268-1.766"/><path fill="#182c51" d="M2019.36 593.976c-.186-.442-.074-1.008.26-1.767.16.42.099 1.031-.26 1.767M1575.088 557.324c.338.189.604.696.868 1.504-.315-.195-.628-.69-.868-1.504M2024.345 574.01c-.184-.447-.066-1.028.278-1.808.159.425.092 1.05-.278 1.808"/><path fill="#192a4d" d="M493.66 559.988c.185.447.066 1.025-.276 1.803-.159-.424-.093-1.048.276-1.803"/><path fill="#182b51" d="M2128.35 143.005c-.184-.446-.068-1.021.272-1.796.159.423.094 1.044-.271 1.796"/><path fill="#182b4f" d="M2497.318 597.918c.19-.344.703-.616 1.52-.884-.196.321-.696.64-1.52.884"/><path fill="#182b51" d="M1598.91 48.671c-.338-.188-.604-.694-.87-1.5.315.194.63.688.87 1.5"/><path fill="#192c52" d="M331.009 49.652c-.446.184-1.023.067-1.798-.274.423-.159 1.045-.093 1.798.274M335.99 51.666c-.438.176-1.01.056-1.779-.286.418-.152 1.032-.08 1.78.286"/><path fill="#182b4f" d="M3069.32 597.914c.188-.34.696-.61 1.505-.879-.194.317-.69.634-1.505.879"/><path fill="#192a4d" d="M1545.08 433.32c.344.188.614.699.882 1.511-.32-.194-.637-.692-.882-1.51"/><path fill="#182b4f" d="M2500.322 596.908c.19-.337.7-.603 1.51-.868-.197.314-.693.627-1.51.868"/><path fill="#192b4e" d="M448.35 430.004c-.185-.445-.069-1.02.271-1.794.159.422.093 1.042-.272 1.794"/><path fill="#182b4f" d="M638.66 109.005c.182.442.064 1.014-.275 1.785-.155-.419-.089-1.037.276-1.785"/><path fill="#182b51" d="M2136.343 110.012c-.184-.448-.065-1.029.28-1.81.158.426.09 1.051-.28 1.81"/><path fill="#182b4f" d="M3234.296 418.047c-.224-.243-.087-.535.352-.92.105.182.007.503-.352.92M2518.03 41.685c-.247.228-.532.095-.905-.338.184-.108.502-.016.905.338"/><path fill="#192a4d" d="M490.7 568.948c.224.243.087.537-.35.926-.107-.183-.01-.507.35-.926"/><path fill="#182b4f" d="M2527.035 45.703c-.236.213-.52.077-.896-.347.177-.1.491-.005.896.347M2530.027 46.687c-.247.229-.532.095-.903-.337.184-.107.502-.016.903.337"/><path fill="#192a4d" d="M488.998 576.72c.003.28-.416.28-.625.28-.116-.313-.023-.625.327-1.029.27.095.282.282.298.749"/><path fill="#192c52" d="M333.038 50.707c-.237.214-.52.078-.893-.35.176-.1.488-.003.893.35M338.04 52.708c-.238.216-.524.08-.9-.351.177-.1.491-.003.9.351"/><path fill="#182b4f" d="M2936.95 600.297c.24-.22.53-.083.913.352-.18.103-.498.005-.912-.352M630.707 133.961c.214.233.08.519-.342.9-.1-.175-.006-.489.342-.9"/><path fill="#192c52" d="M345.036 55.704c-.236.213-.519.078-.892-.347.176-.1.489-.004.892.347"/><path fill="#192a4d" d="M810.89 70.734c-.35.128-.577-.1-.788-.647.23-.033.53.17.787.647"/><path fill="#182b4f" d="M3003.962 607.314c.114-.28.325-.293.851-.288-.04.197-.398.376-.851.288M3074.264 596.885c-.125-.35.105-.575.651-.783.032.232-.172.53-.651.783"/><path fill="#192a4d" d="M815.877 86.722c-.339.127-.561-.094-.773-.623.224-.035.517.16.773.623"/><path fill="#182b4f" d="M634.698 120.947c.226.244.089.538-.35.926-.106-.183-.01-.507.35-.926"/><path fill="#192b4e" d="M2240.974 523.302c.206-.064.497.135.892.582-.2.06-.504-.13-.892-.582"/><path fill="#192a4d" d="M3174.3 532.026c-.066-.205.127-.495.566-.886.061.199-.124.5-.567.886"/><path fill="#192b4e" d="M2247.974 531.299c.205-.066.495.127.886.566-.2.062-.5-.123-.886-.566"/><path fill="#182b4f" d="M2337.742 39.103c.131.352-.09.575-.626.782-.036-.234.159-.532.626-.782"/><path fill="#192a4d" d="M3175.298 531.026c-.065-.205.127-.495.567-.887.062.2-.123.5-.567.887"/><path fill="#192b4e" d="M2246.977 530.297c.205-.065.494.128.884.569-.2.06-.5-.124-.884-.569"/><path fill="#192a4d" d="M3176.297 530.025c-.063-.205.132-.494.575-.884.06.2-.128.5-.575.884"/><path fill="#192b4e" d="M2245.98 529.296c.204-.065.493.128.882.567-.198.06-.498-.124-.882-.567"/><path fill="#192a4d" d="M3177.304 529.035c-.067-.21.127-.503.572-.892.064.205-.123.508-.572.892"/><path fill="#192b4e" d="M2244.98 528.297c.203-.066.491.126.882.564-.198.06-.498-.123-.883-.564"/><path fill="#192a4d" d="M3178.316 528.033c-.229-.244-.096-.532.337-.907.107.183.016.5-.337.907"/><path fill="#182b4f" d="M2340.738 38.106c.13.353-.1.58-.648.793-.035-.234.168-.535.648-.793"/><path fill="#192b4e" d="M2248.974 532.299c.204-.065.494.129.884.57-.2.06-.499-.126-.884-.57"/><path fill="#182b4f" d="M2343.724 37.122c.127.342-.097.564-.631.775-.034-.226.164-.52.631-.775"/><path fill="#192b4e" d="M2239.958 522.29q.298-.094.898.574c-.197.061-.5-.128-.898-.575M2238.108 520.263c.353-.13.58.098.793.646-.234.035-.535-.167-.793-.646M2236.977 518.3c.205-.06.496.14.89.59-.2.057-.501-.136-.89-.59M2235.976 517.298c.204-.065.493.127.884.566-.199.061-.499-.124-.884-.566M2235.118 516.263c.341-.129.562.09.77.616-.226.036-.519-.156-.77-.616"/><path fill="#192b53" d="M661.683 36.97c.23.248.096.532-.337.902-.107-.184-.015-.5.337-.902"/><path fill="#192b4e" d="M459.91 274.747c-.164-.02-.262-.285-.214-.643.191.072.236.235.214.643"/><path fill="#182b4f" d="M2493.034 33.706c-.234.21-.515.076-.887-.344.175-.1.485-.004.887.344"/><path fill="#192b4e" d="M2266.971 550.302c.205-.066.496.126.887.567-.2.062-.5-.124-.887-.567M2265.971 549.302c.205-.066.496.127.887.568-.2.061-.5-.124-.887-.568M2264.971 548.301c.205-.065.496.128.887.568-.2.062-.5-.124-.887-.568M2263.971 547.301c.205-.065.496.127.887.568-.2.062-.5-.124-.887-.568M2262.974 546.3c.204-.065.495.128.885.569-.2.061-.5-.125-.885-.57M2261.96 545.292c.2-.063.496.13.897.573-.197.06-.5-.128-.896-.573"/><path fill="#192a4d" d="M3162.264 544.876c-.126-.341.094-.56.622-.764.034.226-.16.516-.622.764M854.892 207.737c-.353.13-.58-.1-.79-.648.232-.034.533.169.79.648M856.897 213.74c-.357.131-.585-.1-.797-.65.235-.035.539.168.797.65"/><path fill="#182b4f" d="M2513.031 39.685c-.245.225-.528.092-.898-.338.183-.106.499-.014.898.338"/><path fill="#192a4d" d="M3170.299 536.025c-.066-.204.128-.493.567-.884.061.198-.124.498-.567.884M3171.299 535.025c-.065-.204.128-.493.567-.884.061.198-.124.499-.567.884M3172.3 534.025c-.066-.204.127-.493.566-.884.061.198-.124.498-.567.884"/><path fill="#192b4e" d="M2249.973 533.3c.203-.064.494.128.885.568-.199.061-.498-.124-.885-.568"/><path fill="#192a4d" d="M3173.3 533.025c-.066-.204.127-.493.567-.884.06.198-.125.499-.568.884"/><path fill="#fff" d="M3090.157 358.975c-.722 4.976-1.545 9.94-2.149 14.93-2.9 23.987-7.672 47.43-17.78 69.634-5.873 12.9-13.077 24.747-23.654 34.172-5.154 4.593-11.25 8.128-17.517 12.256-.794.41-.99.704-1.188.998 0 0-.445.042-1 .046-1.704.653-2.852 1.303-4 1.952 0 0-.452.04-.987.044-1.03.318-1.526.633-2.021.948 0 0-.447.045-1.012.049-1.373.322-2.182.64-2.99.957 0 0-.436.044-1.06.048-6.41.667-12.194 1.86-17.976 1.853-6.608-.008-13.215-1.086-19.822-1.7 0 0-.418-.156-.811-.52-1.647-.5-2.9-.634-4.155-.77-10.63-4.425-20.653-9.597-28.894-18.08-10.512-10.822-18.05-23.36-23.026-37.389-3.804-10.725-6.653-21.79-10.025-33.486-.429-3.028-.71-5.282-1.098-7.518-.958-5.516-1.965-11.024-2.952-16.535 0 0-.042-.45-.046-1.108 0-2.483.121-4.317-.014-6.132-.964-12.877-2.651-25.74-2.827-38.626-.285-20.986.408-41.986.687-62.98 0 0 .163-.429.557-.886 1.742-12.348 3.09-24.24 4.437-36.13.059-.412.117-.824.532-1.725.394-1.75.433-3.01.472-4.271.058-.416.116-.83.535-1.747.728-2.758 1.096-5.015 1.463-7.272 2.061-6.543 4.125-13.086 6.183-19.63 4.035-12.832 10.236-24.568 18.257-35.969l.833-1.349s-.078-.008.184-.055c.447-.346.632-.646.816-.945 0 0-.078-.008.184-.054.446-.347.631-.647.816-.947 0 0-.079-.016.245-.105 2.464-2.35 4.604-4.612 6.744-6.874 0 0-.075-.028.19-.075.45-.347.634-.647.819-.947 0 0-.077-.008.185-.053.448-.344.633-.644.818-.944 0 0-.078-.008.184-.054.447-.346.632-.646.816-.946 0 0-.078-.008.186-.055.455-.35.646-.65.837-.952 0 0 .438-.037.923-.066.685-.33.887-.63 1.088-.931.344-.004.604-.153 1.095-.769.506-.625.698-.928.892-1.23 6.171-2.676 12.159-5.949 18.547-7.92 22.34-6.894 44.064-4.99 64.258 7.004 13.498 8.018 23.492 19.863 29.905 34.083 5.728 12.7 10.042 26.04 15.076 39.86 1.052 4.843 2.008 8.923 2.964 13.003.043.434.086.869.128 2.043 1.006 8.417 1.967 16.1 3.038 23.769.524 3.755 1.252 7.482 1.888 11.221 0 0 .043-.083.044.4.34 9.901.99 19.321.956 28.739-.07 19.912-.497 39.824-.778 59.736"/><path fill="#182b4f" d="M2903.58 272.325c-.02 20.687-.712 41.687-.427 62.673.176 12.885 1.863 25.749 2.827 38.626.135 1.815.013 3.649-.063 5.92-1.022-6.03-2.637-12.487-2.798-18.981-.623-25.208-.85-50.427-1.052-75.643-.032-4.092.814-8.192 1.514-12.595M3090.417 358.668c.02-19.605.448-39.517.518-59.43.033-9.417-.616-18.837-.998-28.717.607.11 1.822.676 1.826 1.251.148 21.462.3 42.926.174 64.388-.044 7.403-.82 14.801-1.52 22.508M2908.524 235.206a687 687 0 0 1-4.104 35.698c.66-11.13 1.677-22.49 2.76-33.843.056-.577.677-1.101 1.344-1.855"/><path fill="#192a4d" d="M2977.212 495.478c6.396.298 13.003 1.376 19.61 1.384 5.783.008 11.567-1.186 17.772-1.775-2.683.979-5.786 2.638-8.89 2.643-9.038.013-18.078-.625-27.114-1.061-.402-.02-.779-.57-1.378-1.19"/><path fill="#182b4f" d="M3089.957 269.63c-.658-3.27-1.386-6.996-1.91-10.751a961 961 0 0 1-2.963-23.45c1.344 5.246 2.967 10.862 3.778 16.594.8 5.651.778 11.419 1.095 17.606M2906.024 381.333a683 683 0 0 1 2.968 16.066c.388 2.236.67 4.49.925 7.16-1.355-5.166-2.759-10.733-3.851-16.36-.4-2.06-.06-4.261-.042-6.866M3085.155 232.843c-1.23-3.856-2.186-7.936-3.067-12.43 1.164 3.793 2.253 8 3.067 12.43"/><path fill="#192a4d" d="M2945.719 154.041c-1.761 2.28-3.901 4.542-6.351 6.93-.11-3.913 1.817-6.419 6.35-6.93"/><path fill="#182b4f" d="M2911.464 220.088c.005 2.156-.363 4.413-1.075 6.855.004-2.127.354-4.44 1.075-6.855"/><path fill="#192a4d" d="M3023.245 492.975c.772-.661 1.92-1.31 3.415-1.885-.782.682-1.91 1.29-3.415 1.885M2972.249 494.178c1.04-.17 2.294-.035 3.719.441-1.054.183-2.28.023-3.72-.441"/><path fill="#182b4f" d="M2909.592 229.27c.207.996.168 2.257-.212 3.693-.24-1.025-.137-2.226.212-3.692"/><path fill="#192a4d" d="M3016.2 494.976c.467-.332 1.276-.65 2.439-.894-.462.352-1.28.63-2.438.894M3020.162 493.958c.194-.318.69-.633 1.507-.875-.189.342-.697.61-1.507.875M2953.88 147.143c.057.196-.135.5-.588.897-.06-.2.139-.496.588-.897M3028.1 490.897c-.034-.226.163-.52.631-.775.126.342-.097.564-.631.775M2937.863 162.14c.062.198-.123.498-.565.883-.065-.204.127-.493.565-.883M2949.884 150.135c.058.2-.133.5-.585.889-.062-.204.137-.495.585-.889M2948.864 151.141c.062.2-.123.499-.567.884-.065-.204.128-.493.567-.884M2947.864 152.14c.06.2-.124.5-.568.883-.066-.205.128-.494.568-.883M2946.86 153.138c.062.199-.122.499-.565.885-.065-.203.127-.493.565-.885M2938.863 161.14c.061.198-.124.498-.566.884-.065-.204.127-.494.566-.885M2951.908 149.103c.035.234-.167.535-.645.791-.13-.354.098-.58.645-.791M2936.863 163.143c.06.197-.125.498-.57.887-.063-.202.13-.492.57-.887"/><path fill="#fff" d="M2411.059 136.123c.437-.041.875-.083 2.074-.128l23.863-.157c.414.058.827.117 1.73.528 1.745.393 3 .433 4.253.474 0 0 .431.156.79.481.985.391 1.61.457 2.235.522.43.058.86.116 1.78.545 2.735 1.063 4.98 1.755 7.224 2.446 7.388 4.95 15.702 8.945 21.98 15.038 15.61 15.15 24.314 34.512 29.944 55.255 2.614 9.63 4.59 19.433 6.965 29.953.736 4.856 1.362 8.917 1.988 12.979.041.74.083 1.479.127 3.014.997 16.321 2.533 31.836 2.84 47.374.345 17.5-.416 35.022-.696 52.534 0 0-.156.427-.554.877-.745 4.204-1.068 7.96-1.444 11.71-.65 6.477-1.333 12.95-2.002 19.427-2.39 10.205-4.382 20.525-7.263 30.59-4.636 16.192-10.952 31.774-20.976 45.459-12.63 17.244-29.043 28.292-50.861 31.072-20.492 2.611-39.2-1.2-55.95-13.197-9.336-6.688-16.584-15.511-22.248-25.521-10.547-18.642-16.553-38.813-19.88-59.866-.198-1.257-.65-2.473-.986-4.476a16.7 16.7 0 0 0-.95-3.204s-.038-.447-.048-1.093c-.012-1.976.095-3.318-.033-4.636-1.298-13.33-3.322-26.633-3.795-39.991-.659-18.613-.168-37.266-.16-55.902 0-1.493-.005-2.992.119-4.477.886-10.583 1.804-21.163 2.712-31.744.062-.432.125-.865.594-1.832.741-4.08 1.076-7.624 1.411-11.168 2.39-10.202 4.332-20.535 7.277-30.574 4.557-15.535 10.95-30.24 20.796-43.382 7.407-9.885 16.653-17.224 28.026-23.017.796-.408.994-.703 1.191-.997l1.828-.072c.77-.32.962-.616 1.155-.911 0 0-.082-.02.308-.035 2.165-.672 3.94-1.33 5.714-1.987 0 0 .439-.045 1.044-.044 3.029-.622 5.453-1.244 7.878-1.867"/><path fill="#182b4f" d="M2333.564 252.273c-.635 10.317-1.553 20.897-2.439 31.48-.124 1.485-.119 2.984-.12 4.477-.007 18.636-.498 37.29.161 55.902.473 13.358 2.497 26.66 3.795 39.99.128 1.32.021 2.66-.047 4.428-1.352-7.818-3.232-16.032-3.775-24.334-.853-13.043-.952-26.143-1.102-39.222-.168-14.694-.43-29.405.106-44.08.346-9.485 2.052-18.92 3.421-28.641"/><path fill="#182c51" d="M2518.411 356.692c.025-17.223.786-34.745.44-52.245-.306-15.538-1.842-31.053-2.762-47.01.684.662 1.802 1.744 1.83 2.855.76 29.609 1.442 59.22 2.009 88.833.046 2.417-.82 4.852-1.517 7.567M2514.535 388.894c.29-6.375.973-12.85 1.623-19.327.376-3.75.699-7.505 1.422-11.482-.325 9.728-1.015 19.68-1.762 29.63-.028.38-.59.72-1.283 1.179"/><path fill="#192b4e" d="M2436.73 135.565c-7.434.324-15.135.375-23.276.352 7.317-2.766 15.139-2.78 23.277-.352"/><path fill="#182b4f" d="M2335.47 239.104c.037 3.45-.298 6.994-.99 10.748-.031-3.411.294-7.032.99-10.748"/><path fill="#182c51" d="M2516.164 253.825c-.905-3.828-1.531-7.89-2.082-12.377.836 3.763 1.599 7.953 2.082 12.377"/><path fill="#192b4e" d="M2454.94 140.5c-2.177-.357-4.421-1.049-6.831-2.068 2.144.358 4.454 1.045 6.831 2.067M2410.849 135.852c-2.215.894-4.64 1.516-7.461 2.062a40 40 0 0 1 7.46-2.062M2401.714 138.021c-1.352.67-3.126 1.328-5.277 2.04 1.367-.648 3.11-1.35 5.277-2.04M2442.716 136.594c-.99.205-2.245.165-3.675-.214 1.02-.236 2.216-.134 3.675.214"/><path fill="#182b4f" d="M2335.028 390.195c.33.47.647 1.28.888 2.447-.35-.466-.626-1.285-.888-2.447"/><path fill="#192b4e" d="M2445.804 137.619c-.425.159-1.05.093-1.806-.275.447-.185 1.026-.067 1.806.275M2392.901 141.106c.034.227-.164.522-.632.775-.126-.343.098-.566.632-.775M2395.885 140.118c.037.233-.156.529-.62.777-.132-.35.088-.573.62-.777"/><path fill="#fff" d="M306.163 385.981c-2.726 13.782-4.619 27.797-8.384 41.29-4.906 17.579-12.715 33.927-29.444 43.609-4.582 2.652-10.242 3.441-16.033 4.702a42.6 42.6 0 0 0-7.077-.578c-22.729-.053-45.458-.087-68.186-.126V157.006h5.467c21.987 0 43.985.44 65.957-.146 15.727-.42 26.864 6.758 35.404 18.833 9.962 14.085 15.144 30.175 18.109 47.026 1.432 8.137 2.69 16.304 4.032 25.314-.002 1.853-.07 2.854-.005 3.846.988 15.213 2.277 30.413 2.902 45.64.47 11.441.097 22.916.091 34.376-.002 4.318.183 8.649-.077 12.952-.828 13.717-1.824 27.424-2.756 41.134"/><path fill="#182b4f" d="M306.416 385.698c.679-13.427 1.675-27.134 2.503-40.851.26-4.303.075-8.634.077-12.952.006-11.46.38-22.935-.09-34.376-.626-15.227-1.915-30.427-2.903-45.64-.064-.992.003-1.993.084-3.426.685 1.058 1.796 2.541 1.831 4.049.764 32.984 1.743 65.97 1.892 98.96.05 11.312-2.032 22.634-3.394 34.236"/><path fill="#172845" d="M177.3 475.206c22.467-.29 45.196-.255 67.925-.202 2.15.005 4.301.127 6.678.576-23.497.397-47.222.42-70.947.409-1.132 0-2.264-.296-3.656-.783"/><path fill="#feffff" d="M711.711 290.684c6.312-23.24 12.388-46.13 18.464-69.02l.955-.221 42.22 157.36H688.2c7.78-29.337 15.527-58.554 23.511-88.12"/></svg>