<?xml version="1.0" encoding="utf-8"?>
<!-- Generator: Adobe Illustrator 24.3.0, SVG Export Plug-In . SVG Version: 6.00 Build 0)  -->
<svg version="1.1" id="Layer_1" xmlns="http://www.w3.org/2000/svg" xmlns:xlink="http://www.w3.org/1999/xlink" x="0px" y="0px"
	 viewBox="0 0 512 512" style="enable-background:new 0 0 512 512;" xml:space="preserve">
<style type="text/css">
	.st0{fill:#004993;}
	.st1{fill:#E3001E;}
</style>
<g id="XMLID_18_">
	<polygon id="XMLID_20_" class="st0" points="165.09,273.57 217.67,185.84 299.17,185.84 350.93,273.57 238.01,273.57 252.4,249.5 
		284.09,249.5 259.18,208.4 220.02,273.57 	"/>
	<polygon id="XMLID_24_" class="st0" points="362.83,185.84 511.58,185.84 511.58,211.3 420.53,211.3 420.53,226.8 510.34,226.8 
		510.34,251.02 420.53,251.02 420.53,273.57 362.83,273.57 	"/>
	<rect id="XMLID_25_" y="292.81" class="st1" width="512" height="33.35"/>
	<path id="XMLID_28_" class="st0" d="M56.6,209.23H69.6h11.35c11.62,0,14.94,2.35,18.96,6.09c4.01,3.74,6.09,9.41,6.09,14.53
		c0,5.67-2.08,10.93-6.09,14.67c-4.01,3.74-7.47,5.95-18.4,5.95H69.6H56.6v-20.76C56.6,229.71,56.6,209.23,56.6,209.23z M0,273.02
		h101.02c29.34,0,43.45-5.54,52.31-14.53c8.86-8.86,12.04-21.17,12.04-29.06s-3.04-20.2-12.04-29.06
		c-8.86-8.86-23.11-14.53-52.31-14.53H0V273.02z"/>
</g>
</svg>
