<svg xmlns="http://www.w3.org/2000/svg" xml:space="preserve" id="Layer_1" x="0" y="0" viewBox="0 0 512 512"><style>.st0{fill:#004993}</style><g id="XMLID_18_"><path id="XMLID_20_" d="m165.09 273.57 52.58-87.73h81.5l51.76 87.73H238.01l14.39-24.07h31.69l-24.91-41.1-39.16 65.17z" class="st0"/><path id="XMLID_24_" d="M362.83 185.84h148.75v25.46h-91.05v15.5h89.81v24.22h-89.81v22.55h-57.7z" class="st0"/><path id="XMLID_25_" d="M0 292.81h512v33.35H0z" style="fill:#e3001e"/><path id="XMLID_28_" d="M56.6 209.23h24.35c11.62 0 14.94 2.35 18.96 6.09 4.01 3.74 6.09 9.41 6.09 14.53 0 5.67-2.08 10.93-6.09 14.67s-7.47 5.95-18.4 5.95H56.6zM0 273.02h101.02c29.34 0 43.45-5.54 52.31-14.53 8.86-8.86 12.04-21.17 12.04-29.06s-3.04-20.2-12.04-29.06c-8.86-8.86-23.11-14.53-52.31-14.53H0z" class="st0"/></g></svg>