<svg xmlns="http://www.w3.org/2000/svg" xml:space="preserve" id="Layer_1" x="0" y="0" viewBox="0 0 512 512"><style>.st0{fill:#12110c}.st4{fill:#eee}.st5{fill:#4a555d}.st6{fill:#424b53}.st9{fill:#ecf5fc}.st18{fill:#5a6c79}.st20{fill:#dadadb}.st37{fill:#545d64}.st44{fill:#4b555e}.st45{fill:#fbfcfe}.st46{fill:#4f585f}.st48{fill:#414a53}.st49{fill:#4a545d}.st51{fill:#53616c}.st53{fill:#fdfdff}.st65{fill:#969498}.st73{fill:#969497}.st80{fill:#656469}.st81{fill:#93959a}.st86{fill:#656970}.st91{fill:#727176}.st93{fill:#656971}.st106{fill:#8d8e93}.st111{fill:#9ca1a7}.st116{fill:#a2a7ad}.st123{fill:#eeefee}.st126{fill:#abb0b6}.st129{fill:#b4bbc1}.st130{fill:#b4bbc0}.st141{fill:#ce312a}</style><path id="XMLID_60_" d="M0 0h512v512H0z"/><g id="XMLID_1_"><path id="XMLID_201_" d="M258.76 251.6a7.3 7.3 0 0 0-1.95-3.48c-1.13-1.23-2.66-2.05-4.1-2.76-3.28-1.43-6.86-2.05-10.34-2.46-4.71-.51-9.42-.51-14.13-.51-7.27 0-14.54-.1-21.71 0-1.64 0-3.58-.2-4.81 1.13-.82.92-.51 2.25-.61 3.38-.2 1.02 0 2.15-.2 3.17-.1 3.48-.1 6.96 0 10.55 0 .51.1 1.02.2 1.54.51 1.23 1.95 1.84 3.28 1.84 1.13.1 2.36 0 3.48.1h18.94c1.23-.1 2.46 0 3.69-.1 4.81 0 9.63 0 14.34-.61 1.84-.2 3.69-.51 5.53-1.02.82-.2 1.74-.51 2.56-.82 1.13-.41 2.15-.92 3.07-1.74 1.54-1.23 2.66-3.07 3.07-4.92-.2-1.25-.1-2.27-.31-3.29m-14.74 4.3c-1.13 1.23-2.76 1.74-4.4 2.15-4.51 1.13-9.11.72-13.72.82h-8.5c-.82 0-1.74.1-2.56-.2-.61-.2-.72-1.02-.72-1.54-.1-2.66.1-5.32.1-7.99 0-.41.1-.92.51-1.23.92-.51 1.95-.31 2.97-.31 3.58-.1 7.17 0 10.75 0 2.46 0 5.02 0 7.48.31 2.05.2 4.1.61 6.04 1.43 1.13.51 2.25 1.23 2.66 2.46.82 1.33.52 3.07-.61 4.1" class="st0"/><path id="XMLID_204_" d="M192.31 249.14c-1.95-2.36-4.92-3.58-7.78-4.61-.92-.31-1.95-.61-2.87-.82-.2-.1-.41-.1-.61-.1-1.64-.31-3.28-.61-4.92-.82-2.76-.31-5.63-.51-8.5-.72-6.45-.1-13-.1-19.46.72-3.89.51-7.88 1.33-11.47 3.17-1.74.92-3.38 2.15-4.3 3.89-1.23 2.25-1.13 5.22.41 7.37 1.33 1.95 3.38 3.07 5.53 3.99 1.02.41 2.05.82 3.07 1.02 6.04 1.64 12.29 2.05 18.43 2.15 7.17 0 14.44-.1 21.5-1.43 2.87-.61 5.73-1.43 8.19-2.97 1.64-1.02 3.17-2.56 3.79-4.51.83-2.03.52-4.59-1.01-6.33m-12.5 4.71c-.41 1.54-1.95 2.56-3.28 3.17-2.56 1.13-5.32 1.54-8.09 1.74-3.58.31-7.27.31-10.85 0-2.87-.31-5.63-.61-8.29-1.74-1.33-.61-2.76-1.43-3.38-2.87-.51-1.13-.1-2.46.82-3.38 1.23-1.33 2.97-1.95 4.61-2.46 4.51-1.23 9.11-1.33 13.72-1.23l.1.1c2.36 0 4.71.31 6.96.72 2.15.41 4.4 1.02 6.25 2.46 1.23.72 1.84 2.16 1.43 3.49" style="fill:#13120e"/><path id="XMLID_211_" d="M123.8 250.27c-.82-1.84-2.46-3.17-4.2-4.2-3.58-1.95-7.78-2.66-11.88-3.17-5.94-.61-11.88-.41-17.82-.51-6.55 0-13-.1-19.56 0-1.23 0-2.56.2-3.38 1.23-.51.61-.2 1.54-.31 2.25-.1 2.56-.1 5.12-.1 7.68v5.43c0 1.23-.41 2.76.51 3.79.92 1.02 2.36 1.02 3.69 1.13 6.76.1 13.52 0 20.38 0 1.02 0 2.05-.1 2.97-.1 6.86-.1 13.72.1 20.38-1.33 1.74-.41 3.48-.92 5.12-1.64 2.25-1.13 4.1-3.28 4.61-5.84.41-1.65.31-3.29-.41-4.72m-13.31 3.89c-.61 1.95-2.66 2.97-4.51 3.48-1.54.41-3.17.61-4.71.82-.92.1-1.95.1-2.87.2-4.71 0-9.42.1-14.13 0-1.13-.1-2.36.1-3.48-.2-.41-.2-.61-.72-.61-1.13 0-2.87 0-5.73.1-8.6 0-.72.82-1.02 1.43-1.02 3.17-.1 6.35 0 9.52 0 5.12 0 10.34-.31 15.26 1.23 1.33.41 2.76 1.13 3.58 2.25.62.92.62 2.05.42 2.97" class="st0"/><path id="XMLID_200_" d="M156.16 242.59c4.1-.1 8.19-.1 12.29 0 .92.1 1.95 0 2.87.2 3.79.2 7.68.72 11.37 1.74.72.2 1.43.41 2.15.72.31.2.51.31.72.51h-1.23c.61.31 1.23.61 1.84.82.41.2.72.31 1.13.51.2.1.41.2.61.31.72.41 1.43.92 2.05 1.43l.41.41c-.61-.1-1.23 0-1.74.1l-.31-.31c-1.33-.2-2.66.1-3.89-.1-1.02.1-2.15 0-3.17.1 0 .1-.1.31-.1.41-.72-.82-1.64-1.43-2.66-1.95-2.56-1.23-5.43-1.74-8.19-2.15a44.4 44.4 0 0 0-7.37-.31c-3.28 0-6.45.1-9.73.72-1.95.31-3.79.82-5.63 1.64-1.13.51-2.15 1.13-2.97 2.05l-.31.31c.1-.31.1-.51.2-.82-1.02-.51-2.05-.2-3.07-.31-1.13-.1-2.25 0-3.38 0-.51-.1-.82.41-1.33.31 0-.2.1-.31.1-.51-.61 0-1.02.41-1.54.82h-.41v-.2l1.13-1.13c.41-.31.72-.51 1.13-.82.41-.2.72-.41 1.13-.61.51-.2 1.02-.51 1.43-.82-.41-.1-.92-.1-1.33-.1.2-.1.31-.2.51-.2.72-.31 1.43-.51 2.25-.82 1.64-.51 3.28-.82 4.92-1.13 2.36-.41 4.71-.61 7.07-.72 1.1-.1 2.13 0 3.05-.1" style="fill:#edf5fc"/><path id="XMLID_199_" d="M284.26 242.69c3.79-.2 7.58-.2 11.26-.2h14.03c4.51 0 9.01-.1 13.52 0 .51 0 1.02.1 1.33.51.1.61 0 1.33.1 1.95-.1.51-.1 1.02-.1 1.64-.31.31-.72.61-1.23.51h-7.48c-.41.1-.72.1-1.13 0-6.25-.1-12.49 0-18.84 0-1.02.1-2.15 0-3.17 0-.72.1-1.43 0-2.25.1-2.25.2-4.51.41-6.66 1.23-1.23.41-2.36 1.02-3.17 2.15-.82 1.13-.92 2.66-.41 3.89.41 1.13 1.43 1.95 2.56 2.46 2.15 1.02 4.61 1.33 6.96 1.54-.2.1-.51.2-.72.2-1.43-.1-2.87-.31-4.2-.72-1.23-.41-2.46-.82-3.48-1.64-1.23-.92-1.95-2.46-1.64-3.99 0-.1.1-.41.1-.51 0-.2.1-.31.1-.51.51-1.43 1.74-2.25 2.97-2.87 2.87-1.23 6.04-1.43 9.22-1.54h13.11c1.54.1 3.17 0 4.71 0h12.9c.51 0 1.43 0 1.54-.72.1-1.02.1-2.05-.2-3.07l-.1-.1c-.51-.1-1.02-.1-1.43-.1H294.4c-3.69 0-7.48-.1-11.16.31-3.58.31-7.27.82-10.65 2.15-.51.2-.92.41-1.43.72-.51.2-.92.51-1.43.82-.41.31-.82.61-1.13.92-.31.2-.51.51-.72.82-1.43 1.74-1.84 4.1-1.23 6.25.1.31.2.61.31.82.92 2.15 2.97 3.58 5.12 4.51 3.38 1.43 6.96 2.05 10.65 2.46 3.79.41 7.48.31 11.26.31h26.32c.92 0 1.84 0 2.56-.51.61-.41.82-1.23.92-1.95.2-2.05.1-3.99.1-6.04v-2.15c-.1-.2-.1-.41-.2-.51-.51-.61-1.33-.92-2.15-.92-9.01-.1-17.92 0-26.93 0-.72 0-1.54.31-1.54 1.02 0 .31-.1.51-.1.82v1.64c.2.41.51.72 1.02.61h13.41c.92 0 1.74-.1 2.66.1.51.1.82.72 1.13 1.13v.82c0 .61-.1 1.23-.41 1.74h-.1c-.1 0-.31-.1-.41-.2.2-.2.51-.31.51-.61 0-.61.1-1.33-.1-1.95-.2-.61-1.02-.72-1.64-.72h-15.16c-.41 0-.92-.31-1.02-.72a8.5 8.5 0 0 1 0-3.17c.2-.51.72-.72 1.13-.92h25.8c.82 0 1.74 0 2.56.1.72.2 1.54.61 1.74 1.43.31 1.13.2 2.25.2 3.38 0 1.84 0 3.69-.2 5.63-.1.82-.61 1.64-1.33 2.05s-1.54.41-2.36.41h-26.42c-4.51 0-8.91 0-13.41-.61-2.56-.31-5.12-.82-7.48-1.74-2.66-1.02-5.32-2.56-6.55-5.22-.82-1.95-.82-4.3.1-6.25 1.13-2.36 3.48-3.89 5.84-4.81 3.69-1.36 7.79-1.87 11.78-2.18" style="fill:#12120d"/><path id="XMLID_198_" d="M335.05 242.89c.61-.41 1.33-.51 2.05-.51 3.79-.1 7.68 0 11.47 0h36.76c.72 0 1.33.61 1.33 1.23.1.72 0 1.43 0 2.25 0 .51-.41 1.13-.92 1.23s-1.02.1-1.54.1h-34.81c-.51 0-1.13.1-1.43.61-.2.72-.1 1.54-.1 2.25.61.31 1.23.31 1.84.31h30.82c1.13 0 2.36-.2 3.48.1.61.2 1.02.72 1.02 1.33.1.82.1 1.74-.2 2.56-.2.61-.82.82-1.43.82h-33.8c-.61 0-1.23.2-1.64.61-.41.61-.41 1.43-.31 2.15 0 .31.31.51.61.51 1.13.2 2.36.1 3.48.1h32.77c.72 0 1.54 0 2.25.31.51.2.61.72.72 1.23v.61c0 .51 0 1.13-.1 1.64-.2.41-.41.92-.82 1.13-.51.1-1.02 0-1.54.1h-48.02c-.82 0-1.64-.1-2.25-.51-.41-.31-.72-.72-.92-1.13-.31-1.33-.2-2.66-.31-3.99-.1-4.4 0-8.7.2-13.11.52-.6.73-1.42 1.34-1.93" class="st0"/><path id="XMLID_197_" d="M68.4 243.2c1.13-.51 2.36-.31 3.58-.31 9.22 0 18.33 0 27.55.1 1.23.1 2.36.1 3.58.1 2.05.1 4.1.31 6.14.61 2.66.41 5.32.92 7.88 1.95-1.23.41-2.66.1-3.99.31-.92-.1-1.74-.41-2.66-.61-2.15-.31-4.2-.61-6.35-.72-1.54-.1-3.07-.1-4.51-.2-1.64 0-3.28-.1-4.92 0-.82 0-1.64-.1-2.46 0-.92.1-1.95-.1-2.87 0H72.68c-1.02 0-2.15-.1-3.17.2-.61.2-.51.92-.51 1.43h-1.84v-1.02c-.09-1.02.63-1.64 1.24-1.84" class="st4"/><path id="XMLID_196_" d="M201.73 244.02c.72-.92 1.95-1.23 3.07-1.23 7.78-.1 15.56 0 23.45 0 4.61 0 9.22 0 13.82.51 3.17.41 6.35.92 9.32 2.05-.41.31-1.02.2-1.54.2-.82 0-1.54 0-2.36.1-1.95-.41-3.89-.92-5.94-1.02-1.33-.2-2.76-.2-4.2-.31-1.54 0-3.07 0-4.61-.1-1.64-.1-3.17.1-4.81-.1h-21.81c-.82 0-1.54 0-2.25.31-.51.1-.51.72-.51 1.13h-1.84c.11-.52.11-1.03.21-1.54" class="st4"/><path id="XMLID_195_" d="M283.24 243.2c3.69-.31 7.48-.31 11.16-.31h28.06c.51 0 1.02 0 1.43.1 0 .51-.41.72-.82.92l-.2.1v1.43h-.2c0-.41 0-.82-.1-1.23-3.99-.1-7.88 0-11.88 0h-15.46c-3.48 0-6.86-.1-10.34.2-2.97.1-5.84.61-8.7 1.33-.92-.1-1.84 0-2.76 0-.31 0-.51-.1-.82-.31 3.36-1.31 7.04-1.82 10.63-2.23" class="st4"/><path id="XMLID_194_" d="M335.77 243.1c.92-.31 1.95-.2 2.87-.2h45.98c.41 0 .92.1 1.33.31 0 .1.1.31.1.41-.31.2-.72.41-1.02.51-.1.31-.1.61-.1 1.02 0-.31-.1-.61-.1-1.02h-42.6c-1.84.1-3.58 0-5.43.1-.31.41-.61.92-.51 1.54h-1.74v-.82c.09-.83.5-1.65 1.22-1.85" class="st4"/><path id="XMLID_193_" d="M323.89 243.1c.41 1.02.31 2.15.2 3.17-.1.72-1.02.72-1.54.72h-12.9c-1.54 0-3.17.1-4.71 0 .51-.2 1.13-.2 1.64-.31 2.15-.31 4.2-.41 6.35-.61 1.33-.2 2.76-.1 4.2-.31.92-.1 1.84-.1 2.66-.2.92-.1 1.74-.2 2.66 0 .61.1.92.72 1.43.92-.2-.41-.51-.72-.72-1.13-.1-.51-.1-.92-.1-1.43.42-.11.83-.41.83-.82" class="st5"/><path id="XMLID_192_" d="M386.05 243.2c.72.92.41 2.15.2 3.17-.2-.2-.51-.31-.82-.2h-37.58c-.31 0-.61-.1-.92-.2.92-.61 2.15-.61 3.17-.61h9.83c1.33.1 2.76-.1 4.1-.1h18.43c.82 0 1.64-.1 2.46.1v-1.23c.31-.2.72-.31 1.02-.51.21-.11.11-.32.11-.42" class="st6"/><path id="XMLID_191_" d="M201.52 244.63c0-.2.1-.41.2-.61-.1.51-.1 1.02-.2 1.64v.82h1.43c.1.1.2.2.31.41 0 1.23 0 2.46-.1 3.69 0-.2-.1-.41-.1-.61 0-.61.1-1.33 0-1.95v-.61h-1.74c.1-.93.2-1.85.2-2.78" style="fill:#778082"/><path id="XMLID_190_" d="M322.87 245.45v-1.43l.2-.1c0 .51 0 .92.1 1.43.2.41.51.72.72 1.13-.51-.2-.82-.82-1.43-.92-.92-.1-1.74 0-2.66 0-.92.1-1.84.1-2.66.2-1.33.2-2.76.1-4.2.31-2.15.2-4.3.31-6.35.61-.61.1-1.13 0-1.64.31-4.4.1-8.7 0-13.11 0-3.07.1-6.25.31-9.22 1.54-.92-.1-1.95.31-2.87 0 2.05-1.84 4.92-2.46 7.58-2.87 1.84-.2 3.58-.41 5.43-.41 9.22-.1 18.33 0 27.55 0 .72 0 1.54 0 2.25.1z" style="fill:#5b6d7a"/><path id="XMLID_189_" d="M342.22 244.12c14.23.1 28.36 0 42.6 0 0 .31.1.61.1 1.02 0-.31.1-.61.1-1.02v1.23c-.82-.2-1.64-.1-2.46-.1h-18.43c-1.33 0-2.76.1-4.1.1h-9.83c-1.13 0-2.25 0-3.17.61-.61.41-.92 1.23-1.02 1.95 0 .82-.1 1.64.1 2.46l-.31-.31c-.2-.72 0-1.54-.1-2.36-.1-.1-.31-.1-.41-.2-.1.1-.2.1-.31.2-.72-.41-1.43 0-2.15-.1-1.13-.1-2.25-.2-3.48 0-.41 0-.82-.2-1.23-.1-.61.2-1.23.1-1.74.1 0-.61 0-1.33-.1-1.95 0-.51.2-1.02.51-1.54 1.85.01 3.59.11 5.43.01" class="st9"/><path id="XMLID_188_" d="M69.53 244.43c1.02-.31 2.05-.2 3.17-.2h16.69c.92 0 1.95.1 2.87 0 .82-.1 1.64 0 2.46 0 1.64-.1 3.28 0 4.92 0 1.54.2 3.07.1 4.51.2 2.15.1 4.2.41 6.35.72.92.1 1.74.41 2.66.61.72.2 1.33.61 2.15.72.2 0 .41.1.51.1.72.31 1.43.72 2.15 1.02.82.41 1.54.92 2.15 1.43.2.1.31.31.41.41-.51.1-.92-.1-1.33-.31-1.13.2-2.15 0-3.28 0-1.23-.1-2.46 0-3.69.1-.1.2-.1.41-.2.61a6.2 6.2 0 0 0-1.64-1.64 6.7 6.7 0 0 0-1.43-.82c-2.46-1.13-5.12-1.43-7.78-1.64-2.87-.31-5.73-.2-8.5-.2H85c-1.74.2-3.48-.2-5.22.31-1.13.31-1.95 1.33-2.05 2.36v.31c-.31.1-.61.1-.82.1-2.66-.1-5.22.1-7.88 0 0-.92 0-1.84-.1-2.76-.01-.51-.01-1.23.6-1.43" style="fill:#edf6fc"/><path id="XMLID_187_" d="M203.88 244.43c.72-.31 1.54-.31 2.25-.31h21.81c1.64.2 3.17-.1 4.81.1 1.54.1 3.07.1 4.61.1 1.43.1 2.76.1 4.2.31 1.95.1 3.99.61 5.94 1.02.61.2 1.13.41 1.74.51.2 0 .41.1.61.1.51.2 1.13.51 1.64.72.31.1.61.31.82.41.82.41 1.54.92 2.15 1.54.41.31.72.72 1.02 1.13-.51-.2-1.02-.51-1.43-.82s-1.02-.2-1.54-.2c-.72.1-1.43 0-2.05 0-1.13.1-2.36 0-3.48 0-.1.41-.1.72-.2 1.13-.72-1.13-1.74-2.05-2.97-2.56-2.25-1.13-4.81-1.43-7.27-1.74-5.22-.51-10.44-.2-15.56-.31-1.23-.1-2.46 0-3.69 0s-2.46-.1-3.48.41c-.61.31-1.13.82-1.43 1.43-.2.31-.31.61-.41.92-.1-.2-.1-.51-.31-.51-1.43 0-2.97.31-4.51 0-.51.31-1.13.1-1.64.1-.61 0-1.23 0-1.84.1-.1.41-.1.92-.2 1.33-.1-1.23.1-2.56-.1-3.79 0-.4.1-1.02.51-1.12" class="st9"/><path id="XMLID_186_" d="M284.88 244.43c3.38-.31 6.86-.2 10.34-.2h27.34c0 .41 0 .82.1 1.23-.72-.1-1.54 0-2.25-.1h-27.55c-1.84 0-3.58.1-5.43.41-2.66.41-5.53 1.02-7.58 2.87l-.1.1c-.2 0-.31-.1-.51-.1.2-.31.41-.51.72-.82-.1 0-.2-.1-.31-.1-.2.1-.51.2-.72.2.1-.1.1-.2.2-.31-.72 0-1.33.1-2.05.31-.92.2-1.95-.41-2.76-.1-.51.2-1.02-.1-1.54 0-.41.1-.82.1-1.23.1.31-.2.72-.51 1.13-.72.61-.31 1.13-.61 1.74-.82s1.23-.41 1.84-.61c2.78-.73 5.65-1.24 8.62-1.34" class="st9"/><path id="XMLID_185_" d="M66.97 246.48c0-.51.1-1.13.1-1.64v1.02h1.84c0 .92.1 1.84.1 2.76v3.79c-.1-.1-.2-.2-.2-.31v-4.71c0-.31-.1-.61-.1-.92-.61.01-1.13.01-1.74.01" style="fill:#adb1b4"/><path id="XMLID_184_" d="M334.44 247.19c.1-.72-.1-1.54.1-2.25v.82c0 .31 0 .51.1.82.51 0 1.02-.1 1.54.1.2.61.2 1.23.2 1.95 0 .92 0 1.84-.1 2.76v-3.99c-.72-.31-1.23-.21-1.84-.21" style="fill:#80868b"/><path id="XMLID_183_" d="M153.19 245.86c3.17-.51 6.45-.72 9.73-.72 2.46 0 4.92.1 7.37.31 2.76.31 5.63.82 8.19 2.15-.51.2-1.13-.1-1.64 0-.82.2-1.74-.2-2.56.2-2.87-.72-5.84-1.02-8.81-1.13-3.69-.1-7.48 0-11.16.61-2.25.41-4.61.92-6.66 2.15-.2.1-.51.1-.72.1-.72-.2-1.54.1-2.25-.1.82-.92 1.84-1.54 2.97-2.05 1.75-.7 3.59-1.21 5.54-1.52" style="fill:#566672"/><path id="XMLID_182_" d="M184.83 245.15c.92.2 1.84.72 2.66 1.02-.41.1-.92.2-1.33.31-.61-.31-1.23-.51-1.84-.82h1.23c-.21-.21-.41-.31-.72-.51" style="fill:#bbbec2"/><path id="XMLID_181_" d="M113.15 245.76c1.33-.2 2.66.2 3.99-.31.41.1.72.31 1.13.51-1.02.1-2.05 0-3.17.1 0 .1.1.31.1.41-.61-.2-1.33-.51-2.05-.71" style="fill:#cccdcf"/><path id="XMLID_180_" d="M251.39 245.45c.41.1.72.2 1.02.41-1.02.31-2.05.1-3.07.2v.31c-.61-.1-1.23-.31-1.74-.51.82-.1 1.54-.1 2.36-.1.41-.1.92 0 1.43-.31" style="fill:#d2d3d7"/><path id="XMLID_179_" d="M271.16 246.07c.51-.2.92-.51 1.43-.72.2.1.51.31.82.31h2.76c-.61.2-1.23.51-1.84.61-1.02-.31-2.15 0-3.17-.2" style="fill:#cbccce"/><path id="XMLID_178_" d="M79.87 245.86c1.74-.51 3.48-.1 5.22-.31 2.56.1 5.12 0 7.68 0 2.87 0 5.73-.1 8.5.2 2.66.2 5.32.51 7.78 1.64-.51.1-1.02 0-1.54-.1-1.02 0-2.05 0-2.97.41-2.87-.51-5.73-.72-8.7-.72-4.71 0-9.42-.1-14.13 0-.92 0-1.84.41-2.15 1.33-.1.2-.2.41-.31.61-.41.1-.92.1-1.33.2 0-.31 0-.61-.1-.92.11-1.01.93-2.03 2.05-2.34" class="st18"/><path id="XMLID_177_" d="M138.55 245.66c.51 0 .92.1 1.33.1-.41.31-.92.61-1.43.82 0-.1 0-.2.1-.31-.31-.1-.72-.1-1.02-.2.3-.11.61-.41 1.02-.41" style="fill:#babec1"/><path id="XMLID_176_" d="M201.52 245.66h1.84c.2 1.23 0 2.46.1 3.79-.1.92 0 1.84.1 2.76h8.4c0-1.23 0-2.56.1-3.79 0-.31.2-.61.41-.92-.2.61-.2 1.23-.2 1.84v1.33c0 .72-.1 1.33-.1 2.05-2.87.1-5.63 0-8.5 0 0-.1-.1-.2-.1-.31h-.2v-1.84c.1-1.23 0-2.46.1-3.69v-.92h-1.74c-.21-.1-.21-.3-.21-.3" class="st20"/><path id="XMLID_175_" d="M213.81 246.07c1.13-.51 2.36-.41 3.48-.41 1.23 0 2.46-.1 3.69 0 5.22.1 10.44-.2 15.56.31 2.46.2 5.02.51 7.27 1.74-.82 0-1.54-.2-2.36-.1-1.33.1-2.56.1-3.89.2-2.56-.31-5.12-.51-7.78-.51-4.71 0-9.32-.1-14.03 0-.92 0-1.95.61-1.84 1.64-.41.1-.72.2-1.13.31-.1 0-.2-.1-.2-.2-.2.1-.41.2-.51.2 0-.61 0-1.23.2-1.84.52-.52.93-1.14 1.54-1.34" class="st18"/><path id="XMLID_174_" d="M334.54 245.66h1.74c.1.61.1 1.23.1 1.95 0 1.54-.1 2.97 0 4.51 0 .1.1.31.1.51h7.99c1.74 0 3.48 0 5.22.1h33.17c0 .1.1.2.2.31H337.8c-.51 0-1.02 0-1.54-.1v-1.64c.1-.92 0-1.84.1-2.76 0-.61 0-1.33-.2-1.95-.51-.1-1.02-.1-1.54-.1-.08-.22-.08-.53-.08-.83" style="fill:#b1b4b9"/><path id="XMLID_173_" d="M252.31 245.76c.2.1.51.2.72.31-1.02.41-2.05.1-3.17.31-.2 0-.41-.1-.61-.1v-.31c1.02-.11 2.04.1 3.06-.21" style="fill:#b2b6b9"/><path id="XMLID_172_" d="M118.27 245.96c.2 0 .41.2.72.31-1.02.41-2.05.1-3.07.2-.2 0-.41-.1-.51-.1 0-.1-.1-.31-.1-.41.91 0 1.94.11 2.96 0" style="fill:#a7abae"/><path id="XMLID_171_" d="M201.52 245.96h1.74v.92c-.1-.1-.2-.2-.31-.41h-1.43c.11-.2.11-.3 0-.51" style="fill:#abb0b3"/><path id="XMLID_170_" d="M345.91 247.91c.1-.72.41-1.54 1.02-1.95.31.1.61.2.92.2h37.58c.31 0 .51.1.82.2-.2.31-.41.61-.82.61-3.58.1-7.07 0-10.65 0h-26.11c-.61-.1-1.13.31-1.33.92-.51.02-.92.02-1.43.02" style="fill:#63686f"/><path id="XMLID_169_" d="M136.91 246.37c.2-.1.31-.2.51-.31.31.1.72.1 1.02.2 0 .1 0 .2-.1.31-.41.2-.82.41-1.13.61.1-.1.2-.31.31-.41h-.72c.01-.09.11-.29.11-.4" style="fill:#969b9f"/><path id="XMLID_168_" d="M253.03 246.07c.41.2.82.41 1.23.72-.92.1-1.84-.1-2.66.31-.51-.2-1.13-.51-1.64-.72 1.02-.21 2.05.2 3.07-.31" style="fill:#8d9396"/><path id="XMLID_167_" d="M269.72 246.89c.41-.31.92-.61 1.43-.82 1.02.2 2.15-.1 3.17.31-.61.2-1.13.51-1.74.82-.91-.42-1.83-.11-2.86-.31" style="fill:#8c9295"/><path id="XMLID_166_" d="M118.99 246.27c.51.31 1.02.61 1.54.92-.82.1-1.74-.1-2.46.31-.72-.31-1.43-.72-2.15-1.02.92-.11 2.04.2 3.07-.21" style="fill:#80878a"/><path id="XMLID_165_" d="M187.6 246.17c.2.1.41.2.61.31-.31.1-.61.1-.92.2v.31c-.41-.2-.72-.41-1.13-.51.52-.11.92-.21 1.44-.31" style="fill:#94999d"/><path id="XMLID_164_" d="M66.97 246.48h1.74c0 .31.1.61.1.92-.61 0-1.23 0-1.84-.1z" style="fill:#788083"/><path id="XMLID_163_" d="M135.68 247.19c.41-.31.82-.51 1.23-.82 0 .1-.1.31-.1.41h.72c-.1.1-.2.31-.31.41-.41.31-.82.51-1.13.82v-.41c-.2 0-.41 0-.72-.1.11-.1.21-.2.31-.31" style="fill:#71787c"/><path id="XMLID_162_" d="M188.21 246.58c.31.1.61.31.92.51-.41.1-.72.2-1.13.31-.2-.1-.41-.2-.61-.31v-.31c.21-.1.51-.2.82-.2" style="fill:#798084"/><path id="XMLID_161_" d="M66.76 252.93c0-2.05 0-4.2.2-6.25v.61c0 .51 0 1.02.1 1.43.51.2 1.13 0 1.64.2v1.43c-.2 1.13.1 2.25-.2 3.28-.41.51-1.13.2-1.64.1-.1.41-.1.72-.2 1.13v.2c-.1-.7.1-1.42.1-2.13" class="st6"/><path id="XMLID_159_" d="M254.26 246.78c.31 0 .51.31.72.41-.82.51-1.74-.1-2.46.31-.31-.1-.61-.31-.82-.41.72-.41 1.64-.2 2.56-.31" style="fill:#72797f"/><path id="XMLID_158_" d="M268.6 247.81c.31-.31.72-.61 1.13-.92.92.2 1.95-.1 2.76.31-.41.2-.72.41-1.13.72-.2.1-.31.2-.51.31-.51-.52-1.44-.11-2.25-.42" style="fill:#656d73"/><path id="XMLID_155_" d="M189.13 247.09c.72.41 1.33.82 1.95 1.43-.41 0-.72.1-1.02.41-.61-.61-1.33-1.02-2.05-1.43.3-.2.71-.31 1.12-.41" style="fill:#5a6369"/><path id="XMLID_154_" d="M66.97 247.3c.61.1 1.23.2 1.84.1v1.54c-.51-.2-1.13 0-1.64-.2-.2-.52-.2-1.03-.2-1.44" class="st37"/><path id="XMLID_152_" d="M107.52 247.4c.51 0 1.02.1 1.54.1.51.2 1.02.51 1.43.82-1.02 0-2.15.1-3.17.31-.92-.31-1.84-.51-2.76-.72.91-.51 1.94-.51 2.96-.51" style="fill:#525f69"/><path id="XMLID_151_" d="M120.52 247.19c.61.41 1.13.82 1.64 1.33-.51.2-1.13.1-1.64 0-.1.1-.2.31-.31.41-.61-.61-1.33-1.13-2.15-1.43.72-.41 1.65-.1 2.46-.31" style="fill:#565f66"/><path id="XMLID_150_" d="M134.04 248.52c.51-.51 1.02-1.02 1.64-1.43-.1.1-.2.31-.2.41.2 0 .41 0 .72.1v.41c-.41.31-.72.72-1.13 1.13 0-.2-.1-.41-.1-.61-.42.1-.62-.01-.93-.01" style="fill:#535c63"/><path id="XMLID_148_" d="M252.42 247.5c.82-.31 1.74.2 2.46-.31.51.41 1.02.82 1.54 1.33-.51.61-1.33-.1-1.84.41-.63-.51-1.34-1.02-2.16-1.43" class="st37"/><path id="XMLID_147_" d="M334.44 247.19c.1.2.2.41.2.61h1.64v.82c-.51.1-1.02.1-1.64.1-.1-.31-.1-.51-.2-.82-.1-.19 0-.5 0-.71" style="fill:#515a61"/><path id="XMLID_146_" d="M334.54 247.19h1.64v.61h-1.64z" style="fill:#656c72"/><path id="XMLID_144_" d="M201.42 247.3h1.74v.61h-1.84c.1-.1.1-.31.1-.61" style="fill:#5f676d"/><path id="XMLID_143_" d="M241.56 247.5c.82-.1 1.54.1 2.36.1 1.23.51 2.25 1.43 2.97 2.56.1.1.1.2.2.31.31.82.61 1.64.61 2.56 0 .31 0 .72-.2.92-.61 0-1.33 0-1.95-.1.2-1.33-.2-2.87-1.23-3.69-1.74-1.54-4.2-1.95-6.45-2.46 1.13.01 2.36.01 3.69-.2" class="st44"/><path id="XMLID_142_" d="M338.12 247.5c.41-.1.82.1 1.23.1 1.13-.2 2.25 0 3.48 0 .72.1 1.43-.31 2.15.1.1-.1.2-.1.31-.2.1.1.2.1.41.2 0 .72-.1 1.54.1 2.36l.31.31c.41.51.72 1.13 1.33 1.43v.31h-10.96c-.1-1.54 0-2.97 0-4.51.52 0 1.03.11 1.64-.1" class="st45"/><path id="XMLID_141_" d="M174.28 247.91c.82-.41 1.64 0 2.56-.2.51-.1 1.13.1 1.64 0 1.02.51 1.95 1.13 2.66 1.95.61.72 1.13 1.64 1.23 2.56v.31c0 .31 0 .51.1.82 0 .51-.2 1.02-.41 1.43-.82.2-1.64.2-2.46.31.72-1.23.72-2.97-.2-4.2-1.12-1.75-3.17-2.47-5.12-2.98" class="st5"/><path id="XMLID_139_" d="M274.23 247.81c.92-.41 1.84.2 2.76.1.61-.1 1.33-.31 2.05-.31-.1.1-.1.2-.2.31.2-.1.51-.2.72-.2.1 0 .2.1.31.1-.2.31-.41.51-.72.82.2 0 .31.1.51.1-.61.61-1.13 1.33-1.43 2.15 0 .1-.1.2-.1.31-.1.31-.1.61-.2.92h-9.42c.1-1.23.72-2.25 1.54-3.17.31-.31.61-.51.92-.72.2-.1.31-.2.51-.31.41 0 .82 0 1.23-.1.49-.1 1.01.2 1.52 0" class="st45"/><path id="XMLID_136_" d="M205.62 247.91c.51 0 1.13.2 1.64-.1 1.43.31 2.97 0 4.51 0 .2 0 .2.31.31.51-.1 1.23 0 2.56-.1 3.79h-8.4c-.1-.92-.1-1.84-.1-2.76.1-.41.2-.92.2-1.33.71-.11 1.32-.11 1.94-.11" class="st45"/><path id="XMLID_135_" d="M267.88 248.63c.2-.31.51-.51.72-.82.72.2 1.74-.2 2.36.41-.31.2-.61.41-.92.72-.73-.11-1.44-.11-2.16-.31" class="st46"/><path id="XMLID_134_" d="M345.91 247.91h1.43c0 .72-.1 1.54 0 2.25.1.31.51.41.82.61.1.1.2.1.31.2-.2.1-.41.2-.61.31s-.31.31-.51.41c.1.1.41.2.61.2-.2 0-.41-.1-.61-.1-.61-.31-.92-.92-1.33-1.43-.22-.91-.11-1.63-.11-2.45" style="fill:#444e55"/><path id="XMLID_133_" d="M201.32 248.01h1.84v1.95c-.1-.31-.1-.61-.2-.92-.51-.1-1.13-.1-1.64 0z" class="st46"/><path id="XMLID_132_" d="M334.44 247.91c.1.31.1.51.2.82.51.1 1.02 0 1.64-.1v4.1c0 .31-.1.61-.2 1.02-.51 0-1.02 0-1.54-.1 0 .2-.1.31-.1.51v.1c-.1-1.02 0-2.05 0-3.07-.1-1.13-.21-2.15 0-3.28" class="st48"/><path id="XMLID_131_" d="M107.32 248.52c1.02-.2 2.15-.31 3.17-.31.61.41 1.23.92 1.64 1.64.41.51.61 1.13.82 1.74v1.95c-.51 0-1.13-.1-1.64.2.1-1.02-.1-2.15-.72-2.97-.82-1.12-2.15-1.73-3.27-2.25" class="st49"/><path id="XMLID_130_" d="M77.82 248.52v-.31c0 .31 0 .61.1.92v1.43c.61 0 1.13 0 1.64-.41 0 2.15-.1 4.2-.1 6.35-.1-.2-.1-.51-.2-.72-.51.1-1.02.1-1.54.1V252c0-1.12 0-2.25.1-3.48" class="st49"/><path id="XMLID_129_" d="M76.9 248.63c.31 0 .61 0 .82-.1 0 1.13 0 2.36-.1 3.48-1.02.1-2.15 0-3.17.1h-5.53v-3.48c2.76.1 5.42-.11 7.98 0" style="fill:#fcfdff"/><path id="XMLID_128_" d="M79.26 249.04c.1-.2.2-.41.31-.61v1.84c-.51.41-1.02.41-1.64.41v-1.43c.41-.11.82-.21 1.33-.21" class="st51"/><path id="XMLID_127_" d="M120.42 248.52c.51.1 1.13.2 1.64 0 1.33 1.33 2.05 3.17 1.84 5.02-.51.1-1.02.2-1.54.2-.51-.41-.1-1.23-.31-1.84v.2c-.1-.31-.2-.51-.31-.82a5.8 5.8 0 0 0-1.23-1.84l-.41-.41c.12-.2.22-.3.32-.51" class="st6"/><path id="XMLID_126_" d="M133.94 248.52h.92c0 .2.1.41.1.61v.2h-.2c-.41.61-.72 1.23-1.02 1.95 0 .1-.1.31-.1.31 0 .1-.1.2-.1.31-.1.41-.1.82 0 1.33-.31.41-1.02.31-1.43.41-.22-1.84.6-3.68 1.83-5.12" class="st6"/><path id="XMLID_125_" d="M189.95 248.93c.31-.31.61-.41 1.02-.41 1.64 1.23 2.46 3.38 2.25 5.43h-1.13c0-.61 0-1.33-.2-1.95-.1-.51-.41-1.13-.72-1.54-.2-.41-.51-.72-.72-1.02-.19-.3-.29-.4-.5-.51" style="fill:#424c53"/><path id="XMLID_124_" d="M256.51 248.52c1.43 1.54 2.25 3.69 1.84 5.73 0-.2-.1-.41-.1-.61h-1.54c0-.51 0-1.02-.1-1.54-.1-.31-.2-.51-.31-.82-.2-.41-.41-.82-.72-1.23s-.61-.72-1.02-1.13c.62-.5 1.44.22 1.95-.4" class="st6"/><path id="XMLID_123_" d="M279.76 248.63c.92.2 1.95-.1 2.87 0-1.23.61-2.56 1.54-2.97 2.87-.41-.1-.82-.1-1.33-.1 0-.1-.1-.31-.1-.51.4-.93.81-1.65 1.53-2.26" class="st44"/><path id="XMLID_122_" d="M135.37 249.34c.41-.41.92-.72 1.54-.82 0 .2-.1.31-.1.51.51 0 .82-.41 1.33-.31 1.13 0 2.25-.1 3.38 0 1.02.1 2.15-.1 3.07.31-.1.31-.1.51-.2.82-.31.41-.61.92-.82 1.33-.31.2-.41.51-.51.82-.92.1-1.84 0-2.76 0h-6.25c-.2-.2-.2-.61-.31-.82.2-.72.61-1.33 1.02-1.95h.2c.11.11.31.11.41.11" class="st53"/><path id="XMLID_121_" d="M266.65 254.87c-.61-2.15-.2-4.51 1.23-6.25.72.2 1.43.1 2.15.31-.82.92-1.43 1.95-1.54 3.17v1.02c0 .41-.1.82-.1 1.23-.1.1-.31.1-.41.2v-.31c-.41 0-.82.1-1.13.1-.1.12-.2.43-.2.53" class="st6"/><path id="XMLID_120_" d="M201.32 248.93c.51-.1 1.13 0 1.64 0 .1.31.1.61.2.92 0 .2.1.41.1.61v2.56c-.1.1-.2.31-.31.41-.61 0-1.33-.1-1.84.31.11-1.53.11-3.17.21-4.81" class="st48"/><path id="XMLID_119_" d="M112.33 249.14c1.23 0 2.46-.2 3.69-.1 1.13 0 2.15.2 3.28 0 .41.2.92.41 1.33.31.51.51.92 1.23 1.23 1.84v1.23h-8.6c-.1-.31-.2-.72-.41-.92-.1-.61-.41-1.23-.82-1.74.2-.11.2-.42.3-.62" style="fill:#fcfdfe"/><path id="XMLID_118_" d="M181.25 249.14c1.02-.1 2.15 0 3.17-.1 1.33.2 2.66-.1 3.89.1l.31.31c.61-.1 1.23-.2 1.74-.1.31.31.51.72.72 1.02 0 .61.2 1.13.41 1.64-1.23.2-2.46.1-3.58.1-1.13 0-2.25-.1-3.38 0h-2.15c-.1-.92-.61-1.84-1.23-2.56 0-.1.1-.31.1-.41" class="st53"/><path id="XMLID_117_" d="M212.17 249.34c.2-.1.41-.2.51-.2s.2.1.2.2c.41-.1.82-.2 1.13-.31v.92c-.1.31-.2.51-.41.82-.51.1-1.02 0-1.54 0 .11-.61.11-1.02.11-1.43" class="st51"/><path id="XMLID_116_" d="M246.99 249.04c1.13 0 2.36.1 3.48 0h2.05c.51 0 1.13-.1 1.54.2.51.31.92.72 1.43.82.31.41.51.82.72 1.23-.1.31 0 1.02-.61.92h-7.78c-.41-.51-.51-1.23-.92-1.74-.1-.1-.1-.2-.2-.31.19-.41.29-.71.29-1.12" class="st53"/><path id="XMLID_115_" d="M144.69 249.55c.72.2 1.54-.1 2.25.1.2 0 .51-.1.72-.1-1.02.82-2.05 1.84-2.25 3.17-.2 1.43.72 2.76 1.84 3.69-.92.1-1.95.51-2.76-.1-.2-.1-.31-.2-.51-.31-.1-.2-.31-.41-.41-.72-.31-.61-.51-1.33-.51-2.05 0-.1.1-.31.1-.41.1-.51.2-1.02.31-1.54.31-.51.51-.92.82-1.33.09-.2.3-.3.4-.4" class="st5"/><path id="XMLID_114_" d="M213.61 250.68c.2-.2.31-.51.41-.82-.1 2.56-.1 5.12-.1 7.78-.1-.41-.2-.72-.2-1.13-.51.1-1.02.1-1.54.2-.1-1.13-.1-2.36-.1-3.48v-.51c0-.72.1-1.33.1-2.05.5.01.91.01 1.43.01" class="st49"/><path id="XMLID_113_" d="M68.61 253.64c.2-1.13 0-2.25.2-3.28v1.74c0 .31 0 .72.1 1.02h8.81v.92c-1.13.1-2.15-.1-3.28 0-1.33.1-2.66 0-3.99 0-.41 0-.92 0-1.33.2-.31.31-.2.82-.31 1.23-.61.1-1.23.2-1.84.2 0-.31-.1-.51-.1-.82.1-.41.1-.72.2-1.13.41.13 1.13.44 1.54-.08" style="fill:#605f64"/><path id="XMLID_112_" d="M191.18 250.37c.31.51.51 1.02.72 1.54v.72c-1.74.2-3.38 0-5.12.1-1.33-.1-2.66.1-3.99 0-.1-.1-.2-.31-.31-.41v-.31c.72 0 1.43.1 2.15 0 1.13-.1 2.25.1 3.38 0 1.23 0 2.46.1 3.58-.1-.2-.42-.41-.93-.41-1.54" style="fill:#d5d5d7"/><path id="XMLID_111_" d="M246.99 250.47c.41.51.51 1.23.92 1.74 2.56.1 5.22 0 7.78 0 .51.1.51-.61.61-.92.1.31.2.51.31.82-.1.31-.1.51-.2.82-.72.2-1.43.1-2.15.1h-6.76c.1-.92-.2-1.74-.51-2.56" style="fill:#ceced0"/><path id="XMLID_110_" d="M348.16 250.78h35.12c.41 0 .82.1 1.02.51h-36.35c.2-.1.41-.2.61-.31-.2-.1-.3-.2-.4-.2" style="fill:#3d464d"/><path id="XMLID_109_" d="M278.12 251.19c0-.1.1-.2.1-.31 0 .1.1.31.1.51.41 0 .82.1 1.33.1-.1.2-.1.31-.1.51-.41-.1-.92-.1-1.33-.1 0-.3-.1-.51-.1-.71" style="fill:#61676d"/><path id="XMLID_108_" d="M294.6 250.98c9.01 0 17.92-.1 26.93 0 .82 0 1.64.31 2.15.92-.1.2-.31.31-.51.31h-29.29c-.2 0-.51-.1-.72-.1-.19-.82.73-1.23 1.44-1.13" style="fill:#eff1f5"/><path id="XMLID_107_" d="M277.91 252.11c0-.31.1-.61.2-.92 0 .2.1.41.1.72.41 0 .92 0 1.33.1 0 .1-.1.41-.1.51-.1.41-.31.92-.82 1.02-.31-.1-.41-.41-.51-.72 0 0-.1-.1-.1-.2-.1.2-.2.31-.31.51h-9.21v-.41c1.23.1 2.46 0 3.58 0 .92 0 1.84.1 2.76 0 .82-.1 1.64 0 2.56 0 .2 0 .41-.2.51-.31z" style="fill:#858688"/><path id="XMLID_106_" d="M347.85 251.29h36.35c.1 0 .2.1.2.1-.2.2-.51.31-.82.51-.1.1-.31.1-.41.2-.1 0-.2.1-.41.2-.61-.31-1.23-.2-1.84-.2H362.8c-.82 0-1.54-.1-2.36.1h-7.48c-1.43 0-2.87.1-4.4-.1-.2-.1-.41-.1-.61-.2-.1-.1-.41-.2-.61-.2.21-.21.41-.31.51-.41" class="st4"/><path id="XMLID_105_" d="M121.86 251.29c.1.31.2.51.31.82 0 .31-.1.72-.1 1.02h-8.91c-.1-.41-.2-.82-.31-1.23v-.41c.2.31.31.61.41.92h8.6z" style="fill:#9a999e"/><path id="XMLID_104_" d="M133.84 251.29c.1.31.1.61.31.82h6.25c.92 0 1.84.1 2.76 0 .1-.31.2-.61.51-.82-.1.51-.31 1.02-.31 1.54h-9.22c-.1-.31-.2-.72-.2-1.13-.21-.21-.21-.31-.1-.41" style="fill:#d8d8da"/><path id="XMLID_103_" d="M384.51 251.29c0 .92.2 1.95-.1 2.87-.2.51-.82.51-1.33.51-4.71 0-9.32-.1-14.03 0h-19.46c-.72 0-1.33.31-1.95.61 0-.1.1-.31.1-.41-.41 0-.92 0-1.33-.1-.1-.2-.2-.31-.2-.51.61-.41 1.13-.92 1.84-1.13 3.89-.1 7.68 0 11.57 0h22.12c.51 0 1.02.1 1.54.2 0-.51-.2-1.13.2-1.54.52-.09.83-.3 1.03-.5" style="fill:#4d555d"/><path id="XMLID_102_" d="M133.53 252.01c0-.1.1-.2.1-.31 0 .41.1.72.2 1.13h9.22c0 .1-.1.31-.1.41-1.02.1-2.05 0-3.07 0h-5.94c-.51 0-.41-.82-.41-1.23" class="st65"/><path id="XMLID_101_" d="M323.69 251.9c.1.2.1.41.2.51-.92.1-1.84 0-2.76.1-4.1.1-8.19 0-12.39.1-4.61 0-9.32.1-13.93 0-.31-.1-.72-.31-1.02-.51h29.29c.3.11.4.01.61-.2" style="fill:#677178"/><path id="XMLID_100_" d="M347.34 251.8c.2 0 .41.1.61.1s.41.1.61.2l.1.2.1.1c4.2.1 8.29-.1 12.49.1h19.46c.72 0 1.54.1 2.25-.31.1-.1.2-.1.41-.2 0 .41 0 .82-.1 1.13l-.2-.2c0-.1-.1-.2-.2-.31-2.46-.1-4.92 0-7.37 0h-25.8c-1.74-.1-3.48 0-5.22-.1h-7.99c0-.1-.1-.31-.1-.51h10.96v-.2z" style="fill:#dbdbdd"/><path id="XMLID_99_" d="M383.28 252.01c.1-.1.31-.1.41-.2-.41.41-.2 1.02-.2 1.54-.51-.1-1.02-.2-1.54-.2h-33.69c-3.99.1-7.99 0-11.98 0 0-.1-.1-.31-.1-.41.51.1 1.02.1 1.54.1h45.26c0 .1.1.2.2.2.1-.21.1-.62.1-1.03" style="fill:#858689"/><path id="XMLID_98_" d="M74.55 252.11c1.02 0 2.15.1 3.17-.1v.61h-8.5c0-.1-.1-.2-.1-.31V252c1.74.01 3.58.11 5.43.11" class="st20"/><path id="XMLID_97_" d="M112.95 251.9c.1.41.2.82.31 1.23h8.91c0-.31.1-.72.1-1.02v-.2c.1.61-.2 1.33.31 1.84.51 0 1.02-.1 1.54-.2-.1.92-.31 1.84-.61 2.66 0-.1-.1-.31-.1-.41-.41-.1-.92-.1-1.33-.1 0-.1-.1-.31-.1-.41.1-.31.31-.72-.1-1.02-.61-.2-1.23-.1-1.84-.1H114c-.61 0-1.02.41-1.54.51-.41.1-.82.1-1.33.2.1-.41.2-.82.31-1.13.51-.2 1.13-.2 1.64-.2-.13-.52-.13-1.03-.13-1.65" style="fill:#605f65"/><path id="XMLID_96_" d="M133.53 253.24c-.1-.41-.1-.82 0-1.33 0 .41-.1 1.23.51 1.23h9.01c0 .72.31 1.33.51 2.05-2.76-.1-5.43 0-8.19 0-.41 0-.92 0-1.33.1-.2.41.2.82.31 1.23.31.51.72.92 1.13 1.23.82.72 1.64 1.33 2.56 1.74 2.05 1.02 4.3 1.74 6.45 2.25 1.95.31 3.89.82 5.84.92 2.66.41 5.43.41 8.09.61h7.78c4.71-.2 9.42-.41 14.13-1.43 2.56-.51 5.22-1.33 7.48-2.66.72-.41 1.33-.92 1.95-1.43s1.02-1.23 1.43-1.95c.2-.41.2-.82.1-1.23h-8.19c-.41 0-.72.1-1.13.1.2-.51.31-.92.41-1.43h9.32c-.1.72 0 1.43-.1 2.15.31.1.61 0 .92-.1 0 .2 0 .41.1.61-.72 1.84-2.25 3.17-3.89 4.1-2.87 1.64-6.04 2.36-9.22 2.97-2.56.41-5.22.72-7.88.92-1.43.2-2.97.1-4.4.2-7.37.1-14.75.1-21.91-1.23-2.46-.51-5.02-1.13-7.37-2.15-2.36-1.02-4.71-2.66-5.63-5.22.1-.2.1-.31.2-.51.31 0 .72-.1 1.02-.1.09-.72.09-1.13-.01-1.64" style="fill:#65696f"/><path id="XMLID_95_" d="M191.9 251.9c.2.61.2 1.33.2 1.95h1.13c-.1.72-.2 1.33-.51 1.95 0-.2 0-.41-.1-.61-.31.1-.61.2-.92.1.1-.72 0-1.43.1-2.15v-.51c.1-.21.1-.42.1-.73" style="fill:#545b62"/><path id="XMLID_94_" d="M360.55 252.11c.82-.2 1.54-.1 2.36-.1h18.12c.61 0 1.33-.1 1.84.2-.61.41-1.43.31-2.25.31h-19.46c-4.2-.1-8.29 0-12.49-.1l-.1-.1c3.58.1 7.17 0 10.75.1.51-.11.92-.21 1.23-.31" style="fill:#b9babe"/><path id="XMLID_93_" d="M68.81 252.11c.1.1.2.2.2.31s.1.2.1.31h8.5v.51H68.8c.01-.41.01-.82.01-1.13" class="st73"/><path id="XMLID_92_" d="M256.61 252.11c.1.51.1 1.02.1 1.54h1.54c0 .2.1.41.1.61-.1.61-.2 1.23-.51 1.74-.1-.2-.1-.31-.2-.51h-1.23c-.1-.2-.1-.41-.2-.61-.72-.2-1.54-.1-2.25-.1h-5.63c-.61 0-1.13.31-1.74.31h-1.64c.2-.41.31-.82.41-1.23.61.1 1.33.1 1.95.1.2-.31.1-.61.2-.92h6.76c.72 0 1.43.1 2.15-.1.09-.32.09-.63.19-.83" style="fill:#65656a"/><path id="XMLID_91_" d="M268.49 252.11h9.42v.2c-.2.1-.31.41-.51.31-.82.1-1.64 0-2.56 0-.92.1-1.84-.1-2.76 0h-3.58c-.01-.1-.01-.41-.01-.51" style="fill:#d2d2d2"/><path id="XMLID_90_" d="M293.07 252.01c.2 0 .51.1.72.1.31.2.72.31 1.02.51-.61 0-1.23.1-1.84.2 0-.3 0-.51.1-.81" style="fill:#444d54"/><path id="XMLID_89_" d="M348.67 252.01c1.43.1 2.87 0 4.4.1h7.48c-.31.1-.61.2-1.02.2-3.58-.1-7.17.1-10.75-.1z" style="fill:#a1a5a8"/><path id="XMLID_88_" d="M203.26 252.42h.2c0 .1.1.2.1.31h8.5v.51c-2.87-.1-5.73 0-8.6 0 0 0-.1-.1-.2-.1z" class="st73"/><path id="XMLID_87_" d="M182.48 252.42c.1.1.2.31.31.41 1.33 0 2.66-.1 3.99 0 1.74-.2 3.38.1 5.12-.1v.51h-9.32c-.1-.31-.1-.52-.1-.82" class="st65"/><path id="XMLID_86_" d="M278.63 253.54c.51-.1.61-.61.82-1.02-.31 1.54.41 3.07 1.64 3.99 1.02.82 2.25 1.23 3.48 1.64-1.43-.1-2.97.1-4.4-.2l-.1-.1c-.41-.31-.82-.72-1.13-1.13-.31-.51-.61-1.02-.82-1.54-.1-.72-.51-1.43 0-2.15.1 0 .2.41.51.51" style="fill:#4b555d"/><path id="XMLID_85_" d="M321.13 252.62c.92-.1 1.84-.1 2.76-.1 0 .72-.1 1.43 0 2.15-.51.1-1.13.1-1.54-.31-.1-.51.2-1.13-.31-1.43-.3-.21-.61-.31-.91-.31" style="fill:#4a535b"/><path id="XMLID_84_" d="M278.02 252.62s.1.1.1.2c-.41.61-.1 1.43 0 2.15-1.02-.2-2.15-.1-3.17-.1h-4.51c-.51 0-1.02 0-1.54.1 0-.1-.1-.31-.1-.41 0 .1-.1.2-.2.2 0-.51-.1-1.02-.1-1.64h9.11c.2-.19.3-.29.41-.5" class="st80"/><path id="XMLID_83_" d="M292.97 252.83c.61-.1 1.23-.2 1.84-.2 0 .1-.1.31-.1.31h26.32c.31 0 .72 0 1.02-.31.41.31.2 1.02.31 1.43v.61c-.41-.61-1.13-.2-1.74-.31-.72-.1-1.54 0-2.25-.1-.82-.1-1.64.1-2.46.1-.82-.1-1.64 0-2.46-.1-.51 0-1.02 0-1.54.1-.1-.1-.2-.2-.31-.2-.92-.82-2.25-1.02-3.48-1.02h-12.29c-.82 0-1.64.31-2.15.92-.2.1-.41.1-.61.2-.21-.31-.21-.92-.1-1.43" class="st80"/><path id="XMLID_82_" d="M294.81 252.62c4.61.1 9.32 0 13.93 0 4.1-.1 8.19.1 12.39-.1.31 0 .61.1.92.2-.31.31-.61.31-1.02.31h-26.32c0-.1.1-.31.1-.41" class="st81"/><path id="XMLID_81_" d="M336.18 252.72v.1c0 .1.1.31.1.41 0 .51-.1.92-.1 1.43v.2c-.61 0-1.13 0-1.74-.1 0-.2-.1-.41-.1-.61s.1-.31.1-.51c.51.1 1.02.1 1.54.1.1-.3.2-.71.2-1.02" style="fill:#50575f"/><path id="XMLID_80_" d="M203.26 253.13s.1.1.2.1c-.1.41-.1.92-.31 1.33 0 .31-.41.2-.61.2-.41 0-.92-.1-1.33-.1v-.72c.51-.41 1.23-.31 1.84-.31a.9.9 0 0 1 .21-.5" style="fill:#4f565e"/><path id="XMLID_79_" d="M268.49 253.13h.1c0 .51.1 1.02.1 1.64v.82c-.61 0-1.33-.41-1.84.2-.1-.31-.2-.61-.31-.82 0-.1.1-.41.1-.51.41 0 .82-.1 1.13-.1v.31c.1-.1.31-.1.41-.2.21-.62.31-1.03.31-1.34" style="fill:#575e65"/><path id="XMLID_78_" d="M133.53 253.24c.1.51.1.92 0 1.43-.31 0-.72.1-1.02.1-.1.2-.1.31-.2.51a4.8 4.8 0 0 1-.31-1.64c.61-.1 1.22 0 1.53-.4" style="fill:#4f575e"/><path id="XMLID_77_" d="M203.47 253.13h8.6c0 1.13 0 2.36.1 3.48.51-.1 1.02-.1 1.54-.2.1.31.2.72.2 1.13 0 .1 0 .31.1.41-.61.1-1.33.2-1.95 0 0-.51-.1-1.13-.1-1.64 0-.41-.1-.72-.1-1.13-2.66-.1-5.32 0-7.99-.1-.41 0-.72.31-.72.72-.1 1.64 0 3.28 0 4.92 0-.41.1-.72.1-1.13v1.64l.51.51c.72.1 1.43.1 2.15.1h20.58c1.95-.1 3.79 0 5.73-.1 1.74 0 3.38 0 5.12-.1 2.46 0 4.92-.2 7.27-.51 2.66-.41 5.32-.92 7.78-1.95.2-.1.41-.2.61-.31.41-.2.72-.51 1.02-.82.51-.41.92-.92 1.33-1.43.31-.51.51-1.13.61-1.64.1.2.1.41.2.61h1.23c.1.2.1.31.2.51-.82 2.15-2.56 3.69-4.61 4.61-3.17 1.33-6.66 1.84-10.04 2.15-4.2.41-8.5.41-12.7.41-8.19.1-16.49.2-24.68.1-1.23-.1-2.66.1-3.69-.72-.51-.31-.82-.92-.82-1.64-.1-2.15-.1-4.3-.1-6.45.41 0 .92.1 1.33.1.2 0 .61.1.61-.2.37-.41.48-.82.58-1.33" class="st86"/><path id="XMLID_76_" d="M336.28 253.24h11.98c-.72.2-1.23.61-1.84 1.13-1.43-.41-3.07.1-4.51-.1-1.64 0-3.28-.1-5.02 0-.31 0-.51.2-.72.51.01-.62.11-1.03.11-1.54" style="fill:#625f64"/><path id="XMLID_75_" d="M293.58 254.26c.51-.61 1.33-.92 2.15-.92h12.29c1.23 0 2.46.2 3.48 1.02-.72.1-1.33.1-2.05.1h-14.13c-.72 0-1.23.11-1.74-.2" style="fill:#404952"/><path id="XMLID_74_" d="M69.12 254.36c.41-.2.92-.2 1.33-.2 1.33 0 2.66.1 3.99 0 1.13-.1 2.15.1 3.28 0V256c-.1-.2-.1-.72-.41-.72-2.25-.1-4.61 0-6.86 0h-1.13c-.2.1-.31.41-.51.61v-.51c0-.3-.1-.81.31-1.02" style="fill:#6f6e73"/><path id="XMLID_73_" d="M336.9 254.16c1.64-.2 3.28 0 5.02 0 1.54.2 3.07-.31 4.51.1-.41.61-.41 1.43-.51 2.15-.1-.2-.2-.41-.31-.61-.82-.1-1.64 0-2.46 0h-6.04c-.41 0-.72.2-1.02.41v-1.63c.29-.12.5-.42.81-.42" style="fill:#747378"/><path id="XMLID_72_" d="M112.23 254.67c.51-.1 1.02-.51 1.54-.51h6.04c.61 0 1.23-.1 1.84.1.41.2.2.61.1 1.02-.1.2-.2.31-.2.51-.41-.1-.72-.1-1.13-.1-3.28 0-6.55 0-9.93.1.2-.31.31-.61.51-.92.41-.1.82-.1 1.23-.2" class="st91"/><path id="XMLID_71_" d="M292.97 254.46c.2-.1.41-.1.61-.2.51.31 1.13.2 1.64.2h14.13c.72 0 1.33 0 2.05-.1.1.1.2.1.31.2.31.51.51 1.02.61 1.54-.41.1-.82.1-1.33.2-.2-.51-.51-1.02-1.13-1.13-.82-.2-1.74-.1-2.66-.1h-13.41c-.31.11-.72-.2-.82-.61" style="fill:#4e5f69"/><path id="XMLID_70_" d="M322.25 254.26c.41.41 1.02.41 1.54.31 0 2.05.1 3.99-.1 6.04 0 .72-.2 1.54-.92 1.95-.72.51-1.74.51-2.56.51h-26.32c-3.79 0-7.58 0-11.26-.31-3.58-.41-7.27-.92-10.65-2.46-2.15-.92-4.1-2.36-5.12-4.51.41-.61 1.23-.2 1.84-.2v-.82c0-.1.1-.2.2-.2 0 .1.1.31.1.41.1.61.31 1.13.61 1.64.41.51.92 1.02 1.43 1.54.61.51 1.33 1.02 2.15 1.23 1.23.41 2.56.92 3.89 1.13 2.15.41 4.3.82 6.55.72.41 0 .82-.1 1.13.2 1.64.2 3.28.1 4.92.1h31.54c.41 0 .92 0 1.02-.51s.1-.92.2-1.43c.2-1.54 0-3.07-.1-4.71-.09-.22-.09-.43-.09-.63" class="st93"/><path id="XMLID_69_" d="M334.34 254.26v-.1c0 .2 0 .41.1.61.61 0 1.13 0 1.74.1v3.58c0 .92-.1 1.84.1 2.66.1.61.82.51 1.33.61h48.32v-1.13l.2-.1c0 .51 0 .92.1 1.43.1.31.41.51.61.72.2-.82.2-1.74 0-2.56.1-.1.2-.1.31-.2l.1-.1c0 .92.1 1.95-.1 2.87-.1.31-.41.61-.72.51h-47.72c-1.02 0-2.15.1-3.07-.31s-1.02-1.43-1.13-2.36c-.28-2.03-.28-4.08-.17-6.23" style="fill:#656a70"/><path id="XMLID_68_" d="M311.71 254.57c.51-.1 1.02-.1 1.54-.1.82.1 1.64 0 2.46.1s1.64-.2 2.46-.1c.72.1 1.54 0 2.25.1.61 0 1.33-.31 1.74.31.1 1.54.31 3.07.1 4.71 0-1.13 0-2.15-.2-3.28-2.66-.1-5.32 0-7.99 0-.51 0-.92-.1-1.43.1-.31.51-.2 1.13-.31 1.64 0 .2-.1.41-.1.61-.1.31-.31.61-.41.92-1.43.1-2.87-.1-4.3-.1-2.36 0-4.71-.1-6.96-.1-.31 0-.72-.1-1.02-.2 2.66-.1 5.22 0 7.88 0 1.02 0 2.05.1 3.07-.1h.1c.51-.1.92-.1 1.43-.2.31-.31.31-.92.31-1.43 0-.41 0-.72-.1-1.13-.01-.73-.22-1.24-.52-1.75" style="fill:#7a797e"/><path id="XMLID_67_" d="M345.91 256.51c.1-.72.1-1.54.51-2.15 0 .2.1.41.2.51.41.1.82.1 1.33.1 0 .1-.1.31-.1.41-.2.41-.41.72-.51 1.13-.1.51 0 1.13 0 1.64h-1.33c0 .1 0 .41-.1.51 0-.1-.1-.2-.1-.2 0-.1 0-.2-.1-.2.09-.62.09-1.24.2-1.75" style="fill:#64696f"/><path id="XMLID_66_" d="M182.17 254.67c.41-.1.72-.1 1.13-.1h8.19c0 .41.1.92-.1 1.23l-.31-.31h-8.4c-.72 0-1.23.51-1.84.51-.72 0-1.33 0-2.05.1.41-.31.72-.72 1.02-1.13.72-.1 1.54-.1 2.36-.3" class="st91"/><path id="XMLID_65_" d="M246.68 255.08c.61 0 1.13-.31 1.74-.31h5.63c.72 0 1.54-.1 2.25.1-.1.61-.31 1.13-.61 1.64-.1-.2-.2-.41-.2-.51-1.13.1-2.25.2-3.28.1-1.74 0-3.48-.1-5.22.1-.72-.41-1.54-.2-2.36-.31.2-.2.41-.51.51-.82.42.01.93.01 1.54.01" style="fill:#7a7b80"/><path id="XMLID_64_" d="M269 254.98c.51-.1 1.02-.1 1.54-.1h4.51c1.02 0 2.15-.1 3.17.1.2.51.51 1.02.82 1.54-.72-.2-1.43-.1-2.15-.1h-4.61c-.92 0-1.74-.1-2.66.1-.31-.42-.62-1.03-.62-1.54" style="fill:#7d7d82"/><path id="XMLID_63_" d="M66.76 255.08v-.2c0 .31.1.51.1.82.61 0 1.23-.1 1.84-.2v1.64c0 1.23 0 2.56.1 3.79 0 .31 0 .61.41.82.31.1.72.1 1.02.1 3.28.1 6.66 0 10.04.1 4.71 0 9.32 0 14.03-.1h3.07c3.28 0 6.55 0 9.83-.31 3.58-.31 7.27-.72 10.55-2.15.82-.31 1.43-.72 2.15-1.23s1.23-1.33 1.64-2.15c.1-.2.2-.31.2-.51 0 .1.1.31.1.41.41 0 .92.1 1.33.1 0 .1.1.31.1.41-.51 1.13-1.23 2.05-2.15 2.87-1.54 1.33-3.38 1.95-5.32 2.46-4.3 1.13-8.81 1.43-13.31 1.54-3.48.1-6.86 0-10.34.1-7.27 0-14.54.1-21.81 0-.92 0-1.95-.1-2.66-.61-.51-.31-.82-1.02-.82-1.64 0-1.13 0-2.25-.1-3.38 0-.94-.1-1.76 0-2.68" class="st93"/><path id="XMLID_62_" d="M203.26 255.8c0-.41.31-.72.72-.72 2.66.1 5.32 0 7.99.1 0 .41.1.72.1 1.13h-3.89c-1.33 0-2.66-.1-3.99 0-.2 0-.51 0-.61.31-.31.72-.1 1.43-.1 2.15v.82c0 .41-.1.72-.1 1.13-.12-1.65-.22-3.29-.12-4.92" style="fill:#7e7f83"/><path id="XMLID_61_" d="M134.14 255.28c.41-.2.92-.1 1.33-.1h8.19c.1.2.2.41.41.72.1.2.2.31.2.51-.51-.1-1.02-.2-1.54-.2h-5.32c-.92 0-1.84 0-2.76-.1 0 .1-.1.31-.1.41-.2-.42-.61-.83-.41-1.24" style="fill:#7b7c80"/><path id="XMLID_59_" d="M68.81 256c.1-.2.31-.51.51-.61.41-.1.72 0 1.13 0h6.86c.41 0 .31.41.41.72v.92c-.1-.2-.1-.41-.2-.61-1.13-.1-2.25-.1-3.48-.1h-4.92c-.1.31-.2.51-.31.82z" style="fill:#808085"/><path id="XMLID_58_" d="M180.74 256c.72 0 1.23-.51 1.84-.51h8.4l.31.31c-.41.72-.82 1.43-1.43 1.95.1-.31.2-.51.31-.82-1.23-.1-2.56 0-3.79-.1-1.84.1-3.69.1-5.53 0-1.13-.2-2.25.1-3.38 0 .41-.2.82-.51 1.23-.82.7-.01 1.32-.01 2.04-.01" style="fill:#85878c"/><path id="XMLID_57_" d="M110.49 255.69c3.28-.1 6.55-.1 9.93-.1.41 0 .82.1 1.13.1-.41.82-.92 1.64-1.64 2.15v-.61c-2.76-.1-5.53 0-8.4 0 .1-.31.2-.51.41-.82h-2.05c.21-.1.41-.41.62-.72" style="fill:#8a8c91"/><path id="XMLID_56_" d="M77.72 256c.51 0 1.02 0 1.54-.1.1.2.1.51.2.72 0 .41 0 .72.1 1.13-.61-.1-1.23-.1-1.84 0z" style="fill:#5a636b"/><path id="XMLID_55_" d="M144.08 255.8c.2.1.31.2.51.31.82.61 1.84.2 2.76.1 1.13.82 2.36 1.23 3.69 1.64-1.23.31-2.36.1-3.58.2.31.2.51.41.82.61h-.41c-.1 0-.2-.1-.2-.1-.51-.31-.92-.51-1.43-.72-.72-.51-1.43-1.02-1.95-1.74-.11 0-.21-.1-.21-.3" style="fill:#656e75"/><path id="XMLID_54_" d="M337.1 255.9c2.05 0 3.99.1 6.04 0 .82 0 1.64-.1 2.46 0 .1.2.2.41.31.61-.1.61-.1 1.13-.1 1.74-.1-.31-.1-.51-.2-.82-2.05-.1-4.1 0-6.14 0-1.02 0-2.05-.1-3.07.1-.2.31-.2.61-.31.92v-2.15c.4-.2.7-.4 1.01-.4" class="st106"/><path id="XMLID_53_" d="M134.66 256c.92 0 1.84.1 2.76.1 1.74-.1 3.58 0 5.32 0 .51 0 1.02.1 1.54.2.51.72 1.23 1.23 1.95 1.74-.72-.1-1.33-.82-2.15-.72h-8.4c0 .1-.1.31-.1.41-.41-.41-.82-.82-1.13-1.23.1-.19.1-.4.21-.5" class="st106"/><path id="XMLID_52_" d="M243.4 256.82c.41-.31.72-.61 1.13-.92.82.1 1.64-.1 2.36.31 1.74-.1 3.48-.1 5.22-.1 1.13.1 2.25 0 3.28-.1.1.2.2.41.2.51-.41.51-.82 1.02-1.33 1.43.2-.31.31-.61.51-.92h-8.81c0-.1.1-.31.1-.41-.91-.01-1.73.2-2.66.2" class="st106"/><path id="XMLID_51_" d="M204.08 256.31c1.33-.1 2.66 0 3.99 0h3.89c0 .51.1 1.13.1 1.64-.1-.1-.2-.31-.31-.41h-5.94c-.82 0-1.54.1-2.36.2 0 .2-.1.51-.1.72v.31c0-.72-.1-1.43.1-2.15.12-.31.43-.31.63-.31" style="fill:#919498"/><path id="XMLID_50_" d="M312.32 256.2c0 .41.1.72.1 1.13-.41 0-.92-.1-1.33-.1v-.82c.41-.1.82-.21 1.23-.21" class="st86"/><path id="XMLID_49_" d="M69.22 256.31c1.64-.1 3.28 0 4.92 0 1.13 0 2.36-.1 3.48.1.1.2.1.41.2.61v.61c-.2-.1-.41-.31-.61-.31-1.33-.1-2.76 0-4.1 0-1.23-.1-2.56.1-3.79 0-.41 1.23-.2 2.46-.2 3.69-.1-1.23-.1-2.56-.1-3.79-.1-.4 0-.61.2-.91" style="fill:#8e9195"/><path id="XMLID_48_" d="M276.89 256.41c.72 0 1.43-.1 2.15.1.31.41.72.82 1.13 1.13-1.74-.31-3.38 0-5.12-.1-1.23 0-2.36 0-3.58-.1-.31 0-.31.31-.41.51-.51-.41-1.02-.92-1.43-1.54.82-.2 1.74-.1 2.66-.1 1.53.1 3.06.1 4.6.1" class="st81"/><path id="XMLID_47_" d="M312.73 256.31c.41-.1.92-.1 1.43-.1h7.99c.2 1.02.2 2.15.2 3.28 0 .51-.1.92-.2 1.43v-2.56c0-.31 0-.51-.1-.82-.51-.1-1.13-.1-1.74-.1h-5.43c-.82 0-1.84-.2-2.46.51.21-.52 0-1.13.31-1.64" style="fill:#919297"/><path id="XMLID_46_" d="M109.77 256.51h2.05c-.1.31-.2.51-.41.82h8.4v.61c-.61.51-1.33 1.02-2.15 1.23 0-.1-.1-.41-.1-.51-1.95 0-3.89.1-5.84 0-.72 0-1.43.1-2.05-.2.41-.2.72-.41 1.02-.72.2-.2.31-.41.41-.61-.82.1-1.74.2-2.56.1.52-.21.93-.41 1.23-.72" style="fill:#a5aaaf"/><path id="XMLID_45_" d="M177.46 256.92c1.13.1 2.25-.2 3.38 0 1.84.1 3.69.1 5.53 0 1.23.1 2.56 0 3.79.1-.1.31-.2.51-.31.82-.61.51-1.23 1.02-1.95 1.43.2-.2.41-.41.41-.72-.82-.2-1.64-.1-2.46-.1h-3.79c-1.23 0-2.46-.1-3.58.31v-.2c.41-.31.72-.51 1.13-.82-1.23 0-2.56.2-3.79.1.62-.51 1.13-.71 1.64-.92" class="st111"/><path id="XMLID_44_" d="M243.4 256.82c.82 0 1.74-.2 2.56-.2 0 .1-.1.31-.1.41l-.2.2c-1.02-.1-2.05 0-3.07 0 .3 0 .61-.21.81-.41" style="fill:#b0b5b8"/><path id="XMLID_43_" d="M245.96 257.13h8.81c-.2.31-.31.61-.51.92-.31.31-.72.61-1.02.82.2-.2.31-.41.41-.72-.72-.2-1.43-.1-2.15-.1h-3.17c-1.02 0-2.15.2-3.07-.2l.51-.51c-.01-.11.09-.11.19-.21" style="fill:#9ca1a6"/><path id="XMLID_42_" d="M311.09 257.13c.41.1.82.1 1.33.1 0 .51 0 1.02-.31 1.43-.51.1-.92.1-1.43.2.31-.5.41-1.12.41-1.73" style="fill:#4e5860"/><path id="XMLID_41_" d="M69.12 257.23c1.23 0 2.56-.1 3.79 0 1.33 0 2.76-.1 4.1 0 .2 0 .41.1.61.31v.72c-.41-.1-.82-.1-1.33-.1-2.46.1-4.81-.1-7.27 0 0 .2 0 .51-.1.72 0 .82-.1 1.74.1 2.56.31.31.72.41 1.13.51-.31 0-.72 0-1.02-.1-.31-.1-.31-.51-.41-.82.3-1.34.09-2.57.4-3.8" class="st111"/><path id="XMLID_40_" d="M108.65 257.33c.82 0 1.74 0 2.56-.1-.1.2-.31.41-.41.61-1.02-.31-2.05.1-3.07 0 .3-.2.61-.41.92-.51" style="fill:#cdcfd2"/><path id="XMLID_39_" d="M135.78 257.23h8.4c.82-.1 1.33.61 2.15.72.51.2.92.51 1.43.72-1.13 0-2.25-.2-3.38-.1-2.15 0-4.2-.1-6.35.1.1.2.2.51.2.72-.92-.51-1.84-1.13-2.56-1.74.01-.01.01-.22.11-.42" class="st116"/><path id="XMLID_38_" d="M242.59 257.33c1.02 0 2.05-.2 3.07 0l-.51.51h-.1c-1.13-.31-2.25.2-3.38-.1.4-.1.61-.2.92-.41" style="fill:#ced0d3"/><path id="XMLID_37_" d="M336.49 257.43c1.02-.2 2.05-.1 3.07-.1 2.05.1 4.1-.1 6.14 0 .1.31.1.51.2.82 0 .1 0 .2.1.2-2.05-.2-4.1 0-6.14-.1-1.13.1-2.25 0-3.38.1 0 .82-.2 1.64.1 2.46.2.51.72.61 1.23.51h43.93c1.33 0 2.66-.1 3.99.1v.2c-2.15-.1-4.4 0-6.55 0h-41.57c-.51 0-1.13 0-1.33-.61-.2-.92-.1-1.74-.1-2.66.1-.3.2-.61.31-.92" style="fill:#a1a6ab"/><path id="XMLID_36_" d="M271.05 258.05c.1-.2.1-.61.41-.51 1.23.1 2.36.1 3.58.1 1.74.1 3.38-.2 5.12.1l.1.1c.51.41 1.13.72 1.64 1.02-1.84-.1-3.69 0-5.43 0h-3.28c0 .1 0 .41.1.51-.91-.4-1.62-.81-2.24-1.32" style="fill:#a5abb0"/><path id="XMLID_35_" d="M312.52 257.95c.61-.72 1.64-.41 2.46-.51h5.43c.61 0 1.13-.1 1.74.1.1.2.1.51.1.82-3.07 0-6.14.1-9.22 0-.2.1-.41.2-.61.31 0-.31 0-.52.1-.72" style="fill:#a1a6ac"/><path id="XMLID_34_" d="M175.82 257.64c1.23.1 2.56 0 3.79-.1-.31.31-.72.51-1.13.82h-.1c-1.74-.31-3.58.2-5.32 0 1.02-.21 1.94-.41 2.76-.72" style="fill:#c4c9cc"/><path id="XMLID_33_" d="M203.57 257.74c.82-.1 1.54-.2 2.36-.2h5.94c.1.1.2.31.31.41v.41c-2.87 0-5.73-.1-8.6.1-.11-.31-.11-.51-.01-.72" class="st116"/><path id="XMLID_32_" d="M77.72 257.74c.61 0 1.23-.1 1.84 0 0 .2.1.41.1.51-.61 0-1.43.31-1.95-.31.01.01.01-.1.01-.2" style="fill:#717a80"/><path id="XMLID_31_" d="M107.72 257.74c1.02.1 2.05-.31 3.07 0-.31.2-.72.51-1.02.72-2.05 1.13-4.3 1.54-6.55 1.95-1.95.2-3.99.41-5.94.41-5.32 0-10.65.1-15.97 0-.72 0-1.43-.2-2.05-.41.72-.51 1.54-.31 2.25-.41 2.05-.2 4.2-.2 6.25-.61H97.9c3.37-.22 6.75-.32 9.82-1.65" class="st123"/><path id="XMLID_30_" d="M241.77 257.74c1.13.31 2.25-.31 3.38.1-.41.31-.82.61-1.23.82-2.36 1.13-5.02 1.64-7.68 1.84-1.74.2-3.48.2-5.22.2-4.4 0-8.7.1-13.11 0-1.33 0-2.76.1-4.1-.41.2-.1.51-.31.82-.31 3.07-.2 6.04-.41 9.11-.72.2 0 .41-.1.61-.1 3.69-.1 7.27.1 10.96-.2 2.05-.09 4.31-.4 6.46-1.22" class="st123"/><path id="XMLID_29_" d="M280.17 257.74c1.43.31 2.97.1 4.4.2 1.43.31 2.76.51 4.2.72.31.1.51-.1.72-.2.82 0 1.64 0 2.36.1v.1h-2.46c.1.1.31.2.41.31-.72.1-1.54 0-2.25 0-1.84 0-3.79 0-5.63-.1-.1 0-.2-.1-.2-.1-.43-.31-1.04-.62-1.55-1.03" style="fill:#697278"/><path id="XMLID_28_" d="M212.07 257.95c.61.2 1.33.1 1.95 0 .1.61.61.92 1.13 1.13-.82-.1-1.64.2-2.56.1-.31-.2-.41-.51-.61-.82.09-.11.09-.31.09-.41" style="fill:#858a91"/><path id="XMLID_27_" d="M243.81 258.66c.41-.2.82-.51 1.23-.82h.1c1.02.41 2.05.2 3.07.2h3.17c.72 0 1.43-.1 2.15.1 0 .31-.2.51-.41.72-.2.1-.41.2-.61.31 0-.1-.1-.2-.1-.31-2.15-.1-4.4 0-6.55 0-.71-.1-1.43.11-2.05-.2" class="st126"/><path id="XMLID_26_" d="M69.12 258.05c2.46-.1 4.81 0 7.27 0 .41 0 .82 0 1.33.1.1.31.1.61.2.92l.1.2c-.31-.2-.61-.41-.92-.41h-7.99c.01-.3.01-.61.01-.81" class="st126"/><path id="XMLID_25_" d="M77.72 258.05c.51.61 1.33.31 1.95.31.1.2.31.41.51.61-.72 0-1.43 0-2.15.1-.21-.31-.21-.61-.31-1.02" style="fill:#868e91"/><path id="XMLID_24_" d="M147.46 258.15c1.23-.1 2.46 0 3.58-.2.82.2 1.74.41 2.56.61-1.43.31-2.87.1-4.2.51.51.2 1.13.41 1.64.51s1.02.31 1.64.41c4.1.72 8.19.92 12.39.82 2.97-.1 5.94-.31 8.81-.92 1.64-.31 3.17-.82 4.71-1.54h.1v.2c-.92.41-1.84.72-2.76 1.02-.72.31-1.54.31-2.25.51-1.33.31-2.76.51-4.2.61-1.43.31-2.87.1-4.3.2-1.95.1-3.89.1-5.84-.1-1.64.1-3.28-.31-4.92-.41-1.74-.31-3.38-.72-5.02-1.13-.51-.1-.92-.31-1.33-.51h.41c-.51-.18-.82-.38-1.02-.59" style="fill:#8c9298"/><path id="XMLID_23_" d="M173.16 258.36c1.74.2 3.58-.41 5.32 0-1.43.72-3.07 1.13-4.71 1.54-2.87.61-5.84.82-8.81.92-4.1.1-8.29-.1-12.39-.82.72-.41 1.54-.2 2.36-.31 1.02-.1 1.95-.1 2.97-.2.82-.1 1.54 0 2.36-.2 4.3-.01 8.7-.01 12.9-.93" class="st123"/><path id="XMLID_22_" d="M178.59 258.56c1.13-.41 2.36-.31 3.58-.31h3.79c.82 0 1.64-.1 2.46.1-.1.31-.31.51-.41.72-2.36 1.33-4.92 2.15-7.48 2.66-4.61 1.02-9.42 1.23-14.13 1.43h-7.78c-2.66-.2-5.43-.2-8.09-.61-1.95-.1-3.89-.61-5.84-.92-2.25-.51-4.4-1.23-6.45-2.25-.1-.2-.2-.51-.2-.72 2.05-.31 4.2-.1 6.35-.1 1.13 0 2.25.2 3.38.1.1 0 .2.1.2.1.41.2.92.41 1.33.51 1.64.51 3.38.92 5.02 1.13 1.64.1 3.28.41 4.92.41 1.95.1 3.89.1 5.84.1 1.43-.1 2.87 0 4.3-.2 1.43-.1 2.76-.31 4.2-.61.72-.2 1.54-.2 2.25-.51.91-.31 1.83-.62 2.76-1.03" class="st129"/><path id="XMLID_21_" d="M312.93 258.36c3.07.1 6.14.1 9.22 0v2.56c0 .51-.61.61-1.02.51h-31.54c-1.64 0-3.28.1-4.92-.1-.31-.31-.72-.2-1.13-.2-2.25.1-4.4-.31-6.55-.72-1.33-.2-2.56-.72-3.89-1.13 0-.1 0-.41-.1-.51 1.13-.1 2.15 0 3.28 0 1.84 0 3.69-.1 5.43 0 .1 0 .2.1.2.1.51.2 1.02.72 1.74.61 1.33-.2 2.56-.1 3.89-.1 1.13 0 2.25 0 3.38.2l.2.31c-1.95.1-3.89-.31-5.73 0 1.84.51 3.79.51 5.63.61 3.58.2 7.27.1 10.85.1h7.17c.51 0 1.02-.1 1.54-.2h.41c.41-.2.61-.51.82-.82s.31-.61.41-.92c.3-.1.51-.3.71-.3" class="st130"/><path id="XMLID_20_" d="M336.38 258.46c1.13 0 2.25 0 3.38-.1 2.05.1 4.1-.1 6.14.1 0 .1.1.2.1.2.1.41.41 1.13 1.02 1.02h40.14v.2h-40.24c.82.61 1.74.61 2.76.61 2.76 0 5.53 0 8.29.1h11.26c5.53 0 11.06.1 16.59 0v.82c-1.33-.1-2.66 0-3.99-.1H337.9c-.51 0-1.02-.1-1.23-.51-.49-.7-.29-1.63-.29-2.34" class="st129"/><path id="XMLID_19_" d="M346.01 258.15h1.33c.2.82 1.13.82 1.84.92h13.72c4.1.1 8.19 0 12.29.1h10.85c.41 0 .82.1 1.02.51h-40.04c-.61.1-.82-.51-1.02-1.02-.09-.1.01-.41.01-.51" class="st46"/><path id="XMLID_18_" d="M203.37 258.46c2.87-.1 5.73 0 8.6-.1.2.31.31.61.61.82.82 0 1.64-.2 2.56-.1 1.13.2 2.25.1 3.38.1-.41.1-.92.2-1.33.31-1.43.1-2.76.1-4.2.41.2.2.41.41.72.51 1.33.51 2.76.41 4.1.41 4.4.1 8.7 0 13.11 0 1.74 0 3.48 0 5.22-.2 2.66-.2 5.32-.72 7.68-1.84.61.31 1.33.1 2.05.1h6.55c0 .1.1.2.1.31-2.46 1.02-5.12 1.64-7.78 1.95-2.46.31-4.92.51-7.27.51-1.74.2-3.38.1-5.12.1-1.95.1-3.79 0-5.73.1-6.86 0-13.72.1-20.58 0-.72 0-1.43-.1-2.15-.1l-.51-.51v-2.46c-.01-.12-.01-.32-.01-.32" class="st130"/><path id="XMLID_17_" d="M103.22 260.4c2.25-.31 4.51-.82 6.55-1.95.61.31 1.33.2 2.05.2 1.95.1 3.89 0 5.84 0 0 .1.1.41.1.51-3.38 1.43-6.96 1.84-10.55 2.15-2.56-.1-5.12 0-7.68 0-.72 0-1.54-.1-2.15.41h-3.07c-4.71.1-9.32.1-14.03.1-3.38 0-6.66 0-10.04-.1-.41-.1-.82-.31-1.13-.51-.2-.82-.1-1.64-.1-2.56H77c.41 0 .72.1.92.41.1.1.31.31.51.2.72 0 1.54-.1 2.25-.2.41.1.82.1 1.13.1-1.02.51-2.25.2-3.28.51.2.2.41.41.72.51.61.31 1.33.41 2.05.41 5.32.1 10.65 0 15.97 0 2.06.22 4 .02 5.95-.19" class="st130"/><path id="XMLID_16_" d="M292.04 258.56c.2-.1.51 0 .82 0 .51.1 1.13.1 1.64.1h-2.25v.31h7.37c.31.1.72.2 1.02.2 2.36 0 4.71.1 6.96.1 1.43 0 2.87.2 4.3.1-.2.31-.41.72-.82.82 0-.1.1-.31.1-.41-2.15-.1-4.2 0-6.35-.1-1.64 0-3.17-.2-4.81-.1-2.05 0-3.99 0-6.04-.1h-2.97c-1.13-.2-2.25-.2-3.38-.2-1.33 0-2.66-.1-3.89.1-.61.1-1.13-.41-1.74-.61 1.84.1 3.79.1 5.63.1.72 0 1.54.1 2.25 0h1.95c.11 0 .11-.21.21-.31" style="fill:#959ca0"/><path id="XMLID_15_" d="M149.3 259.07c1.43-.31 2.87-.1 4.2-.51 1.23.2 2.46.31 3.69.51-1.54.1-3.07.2-4.71.31-.51 0-1.02.1-1.54.31-.51-.21-1.03-.41-1.64-.62" style="fill:#aeb1b6"/><path id="XMLID_14_" d="M289.59 258.66h2.46c0 .1-.1.2-.1.31H290c-.11-.1-.31-.31-.41-.31" style="fill:#31322f"/><path id="XMLID_13_" d="M294.5 258.76h15.66c.1 0 .31.1.41.2-1.02.31-2.05.1-3.07.1-2.66 0-5.22-.1-7.88 0h-7.37v-.31c.72.01 1.43.01 2.25.01" style="fill:#323230"/><path id="XMLID_12_" d="M77.93 259.07c.72 0 1.43-.1 2.15-.1.2.1.41.2.61.31-.72.1-1.54.2-2.25.2-.2 0-.31-.1-.51-.2z" style="fill:#a0a5a9"/><path id="XMLID_11_" d="M152.58 259.28c1.54-.1 3.07-.2 4.71-.31 1.02.1 2.05.1 3.07.2-.72.2-1.54.1-2.36.2-1.02.1-1.95.1-2.97.2-.82.1-1.64-.1-2.36.31-.51-.1-1.02-.2-1.64-.41.52-.09 1.03-.09 1.55-.19" style="fill:#d3d5d7"/><path id="XMLID_10_" d="M217.19 259.48c.41 0 .92-.1 1.33-.31h5.63c-.2 0-.41.1-.61.1-3.07.31-6.04.51-9.11.72-.31 0-.51.2-.82.31-.31-.1-.51-.31-.72-.51 1.54-.21 2.87-.21 4.3-.31" style="fill:#d1d3d6"/><path id="XMLID_9_" d="M81.92 259.38h5.94c-2.05.31-4.1.41-6.25.61-.72.1-1.64-.1-2.25.41-.2-.2-.51-.31-.72-.51 1.13-.31 2.26 0 3.28-.51" style="fill:#d4d5d7"/><path id="XMLID_8_" d="M291.12 259.58h2.97c2.05.1 3.99.1 6.04.1 1.64 0 3.17.2 4.81.1 2.15.1 4.2 0 6.35.1 0 .1-.1.31-.1.41h-.41c-.82-.31-1.74-.2-2.66-.2-2.05 0-3.99 0-6.04-.1-3.58-.1-7.17 0-10.75-.2z" style="fill:#c8cace"/><path id="XMLID_7_" d="M285.59 259.79c1.95-.31 3.79.1 5.73 0 3.58.2 7.17.2 10.75.2 2.05.1 3.99.1 6.04.1.92 0 1.84-.1 2.66.2-.51.1-1.02.2-1.54.2h-7.17c-3.58 0-7.27.1-10.85-.1-1.83.01-3.77-.09-5.62-.6" class="st123"/><path id="XMLID_6_" d="M346.83 259.89h40.24c-.1.1-.2.1-.31.2-.2.1-.41.2-.72.41l-.2.1v1.13h-.2v-1.02c-5.53.1-11.06-.1-16.59 0h-11.26c-2.76-.1-5.53 0-8.29-.1-.93-.1-1.95-.1-2.67-.72" class="st4"/><path id="XMLID_5_" d="M386.15 260.51c.2-.1.41-.2.72-.41.2.82.2 1.74 0 2.56-.2-.2-.41-.41-.61-.72-.11-.51-.11-1.02-.11-1.43" class="st6"/><path id="XMLID_4_" d="M97.38 261.84c.61-.51 1.43-.31 2.15-.41 2.56 0 5.12-.1 7.68 0-3.27.41-6.55.3-9.83.41" style="fill:#9da4a8"/><path id="XMLID_205_" d="M423.73 229.89c.31-.1.72-.1 1.02-.1h20.48c-.51.82-1.23 1.54-1.95 2.36-5.73 6.55-11.37 13.21-17.1 19.87-1.64 1.95-3.28 3.79-4.81 5.63-6.76 7.78-13.52 15.56-20.17 23.45-.41.41-.72 1.23-1.43 1.13h-21.2c1.74-2.15 3.69-4.2 5.53-6.35 13.31-15.37 26.42-30.73 39.63-45.99" class="st141"/><g id="XMLID_2_"><path id="XMLID_206_" d="M392.09 230.2c.2-.31.61-.41.92-.41h20.89c-.82 1.02-1.74 2.05-2.56 3.07-6.14 7.17-12.29 14.34-18.53 21.4-1.74 1.95-3.38 3.99-5.12 5.94 0-.51-.2-1.02-.72-1.23-.72-.31-1.54-.31-2.25-.31H367c.92-1.23 2.05-2.36 2.97-3.48h13.52c.61 0 1.23-.2 1.43-.82.31-.82.2-1.74.2-2.56 0-.61-.41-1.23-1.02-1.33-1.13-.31-2.36-.1-3.48-.1h-6.45c.92-1.02 1.84-2.15 2.76-3.17h7.37c.51 0 1.02 0 1.54-.1.51-.1.92-.72.92-1.23 0-.72.1-1.54 0-2.25-.1-.72-.72-1.23-1.33-1.23-1.33-.1-2.66 0-3.99 0 .61-.41 1.13-1.13 1.64-1.64 2.87-3.59 5.94-7.07 9.01-10.55" class="st141"/><path id="XMLID_3_" d="M362.6 263.68h22.73-.1c-.41.1-.72.31-1.02.72-3.69 4.3-7.37 8.5-11.06 12.9-1.33 1.54-2.66 2.97-3.89 4.51-.2.2-.41.51-.82.51h-18.02c-1.13 0-2.15.1-3.28-.1 5.22-6.14 10.55-12.19 15.77-18.33 0-.11-.11-.11-.31-.21" class="st141"/></g></g></svg>