<?xml version="1.0" encoding="utf-8"?>
<!-- Generator: Adobe Illustrator 24.3.0, SVG Export Plug-In . SVG Version: 6.00 Build 0)  -->
<svg version="1.1" id="Layer_1" xmlns="http://www.w3.org/2000/svg" xmlns:xlink="http://www.w3.org/1999/xlink" x="0px" y="0px"
	 viewBox="0 0 512 512" style="enable-background:new 0 0 512 512;" xml:space="preserve">
<style type="text/css">
	.st0{fill:#12110C;}
	.st1{fill:#13120E;}
	.st2{fill:#EDF5FC;}
	.st3{fill:#12120D;}
	.st4{fill:#EEEEEE;}
	.st5{fill:#4A555D;}
	.st6{fill:#424B53;}
	.st7{fill:#778082;}
	.st8{fill:#5B6D7A;}
	.st9{fill:#ECF5FC;}
	.st10{fill:#EDF6FC;}
	.st11{fill:#ADB1B4;}
	.st12{fill:#80868B;}
	.st13{fill:#566672;}
	.st14{fill:#BBBEC2;}
	.st15{fill:#CCCDCF;}
	.st16{fill:#D2D3D7;}
	.st17{fill:#CBCCCE;}
	.st18{fill:#5A6C79;}
	.st19{fill:#BABEC1;}
	.st20{fill:#DADADB;}
	.st21{fill:#B1B4B9;}
	.st22{fill:#B2B6B9;}
	.st23{fill:#A7ABAE;}
	.st24{fill:#ABB0B3;}
	.st25{fill:#63686F;}
	.st26{fill:#969B9F;}
	.st27{fill:#8D9396;}
	.st28{fill:#8C9295;}
	.st29{fill:#80878A;}
	.st30{fill:#94999D;}
	.st31{fill:#788083;}
	.st32{fill:#71787C;}
	.st33{fill:#798084;}
	.st34{fill:#72797F;}
	.st35{fill:#656D73;}
	.st36{fill:#5A6369;}
	.st37{fill:#545D64;}
	.st38{fill:#525F69;}
	.st39{fill:#565F66;}
	.st40{fill:#535C63;}
	.st41{fill:#515A61;}
	.st42{fill:#656C72;}
	.st43{fill:#5F676D;}
	.st44{fill:#4B555E;}
	.st45{fill:#FBFCFE;}
	.st46{fill:#4F585F;}
	.st47{fill:#444E55;}
	.st48{fill:#414A53;}
	.st49{fill:#4A545D;}
	.st50{fill:#FCFDFF;}
	.st51{fill:#53616C;}
	.st52{fill:#424C53;}
	.st53{fill:#FDFDFF;}
	.st54{fill:#FCFDFE;}
	.st55{fill:#605F64;}
	.st56{fill:#D5D5D7;}
	.st57{fill:#CECED0;}
	.st58{fill:#3D464D;}
	.st59{fill:#61676D;}
	.st60{fill:#EFF1F5;}
	.st61{fill:#858688;}
	.st62{fill:#9A999E;}
	.st63{fill:#D8D8DA;}
	.st64{fill:#4D555D;}
	.st65{fill:#969498;}
	.st66{fill:#677178;}
	.st67{fill:#DBDBDD;}
	.st68{fill:#858689;}
	.st69{fill:#605F65;}
	.st70{fill:#65696F;}
	.st71{fill:#545B62;}
	.st72{fill:#B9BABE;}
	.st73{fill:#969497;}
	.st74{fill:#65656A;}
	.st75{fill:#D2D2D2;}
	.st76{fill:#444D54;}
	.st77{fill:#A1A5A8;}
	.st78{fill:#4B555D;}
	.st79{fill:#4A535B;}
	.st80{fill:#656469;}
	.st81{fill:#93959A;}
	.st82{fill:#50575F;}
	.st83{fill:#4F565E;}
	.st84{fill:#575E65;}
	.st85{fill:#4F575E;}
	.st86{fill:#656970;}
	.st87{fill:#625F64;}
	.st88{fill:#404952;}
	.st89{fill:#6F6E73;}
	.st90{fill:#747378;}
	.st91{fill:#727176;}
	.st92{fill:#4E5F69;}
	.st93{fill:#656971;}
	.st94{fill:#656A70;}
	.st95{fill:#7A797E;}
	.st96{fill:#64696F;}
	.st97{fill:#7A7B80;}
	.st98{fill:#7D7D82;}
	.st99{fill:#7E7F83;}
	.st100{fill:#7B7C80;}
	.st101{fill:#808085;}
	.st102{fill:#85878C;}
	.st103{fill:#8A8C91;}
	.st104{fill:#5A636B;}
	.st105{fill:#656E75;}
	.st106{fill:#8D8E93;}
	.st107{fill:#919498;}
	.st108{fill:#8E9195;}
	.st109{fill:#919297;}
	.st110{fill:#A5AAAF;}
	.st111{fill:#9CA1A7;}
	.st112{fill:#B0B5B8;}
	.st113{fill:#9CA1A6;}
	.st114{fill:#4E5860;}
	.st115{fill:#CDCFD2;}
	.st116{fill:#A2A7AD;}
	.st117{fill:#CED0D3;}
	.st118{fill:#A1A6AB;}
	.st119{fill:#A5ABB0;}
	.st120{fill:#A1A6AC;}
	.st121{fill:#C4C9CC;}
	.st122{fill:#717A80;}
	.st123{fill:#EEEFEE;}
	.st124{fill:#697278;}
	.st125{fill:#858A91;}
	.st126{fill:#ABB0B6;}
	.st127{fill:#868E91;}
	.st128{fill:#8C9298;}
	.st129{fill:#B4BBC1;}
	.st130{fill:#B4BBC0;}
	.st131{fill:#959CA0;}
	.st132{fill:#AEB1B6;}
	.st133{fill:#31322F;}
	.st134{fill:#323230;}
	.st135{fill:#A0A5A9;}
	.st136{fill:#D3D5D7;}
	.st137{fill:#D1D3D6;}
	.st138{fill:#D4D5D7;}
	.st139{fill:#C8CACE;}
	.st140{fill:#9DA4A8;}
	.st141{fill:#CE312A;}
</style>
<rect id="XMLID_60_" width="512" height="512"/>
<g id="XMLID_1_">
	<path id="XMLID_201_" class="st0" d="M258.76,251.6c-0.31-1.33-1.02-2.56-1.95-3.48c-1.13-1.23-2.66-2.05-4.1-2.76
		c-3.28-1.43-6.86-2.05-10.34-2.46c-4.71-0.51-9.42-0.51-14.13-0.51c-7.27,0-14.54-0.1-21.71,0c-1.64,0-3.58-0.2-4.81,1.13
		c-0.82,0.92-0.51,2.25-0.61,3.38c-0.2,1.02,0,2.15-0.2,3.17c-0.1,3.48-0.1,6.96,0,10.55c0,0.51,0.1,1.02,0.2,1.54
		c0.51,1.23,1.95,1.84,3.28,1.84c1.13,0.1,2.36,0,3.48,0.1c6.35,0,12.6,0,18.94,0c1.23-0.1,2.46,0,3.69-0.1
		c4.81,0,9.63,0,14.34-0.61c1.84-0.2,3.69-0.51,5.53-1.02c0.82-0.2,1.74-0.51,2.56-0.82c1.13-0.41,2.15-0.92,3.07-1.74
		c1.54-1.23,2.66-3.07,3.07-4.92C258.87,253.64,258.97,252.62,258.76,251.6z M244.02,255.9c-1.13,1.23-2.76,1.74-4.4,2.15
		c-4.51,1.13-9.11,0.72-13.72,0.82c-2.87,0-5.63,0-8.5,0c-0.82,0-1.74,0.1-2.56-0.2c-0.61-0.2-0.72-1.02-0.72-1.54
		c-0.1-2.66,0.1-5.32,0.1-7.99c0-0.41,0.1-0.92,0.51-1.23c0.92-0.51,1.95-0.31,2.97-0.31c3.58-0.1,7.17,0,10.75,0
		c2.46,0,5.02,0,7.48,0.31c2.05,0.2,4.1,0.61,6.04,1.43c1.13,0.51,2.25,1.23,2.66,2.46C245.45,253.13,245.15,254.87,244.02,255.9z"
		/>
	<path id="XMLID_204_" class="st1" d="M192.31,249.14c-1.95-2.36-4.92-3.58-7.78-4.61c-0.92-0.31-1.95-0.61-2.87-0.82
		c-0.2-0.1-0.41-0.1-0.61-0.1c-1.64-0.31-3.28-0.61-4.92-0.82c-2.76-0.31-5.63-0.51-8.5-0.72c-6.45-0.1-13-0.1-19.46,0.72
		c-3.89,0.51-7.88,1.33-11.47,3.17c-1.74,0.92-3.38,2.15-4.3,3.89c-1.23,2.25-1.13,5.22,0.41,7.37c1.33,1.95,3.38,3.07,5.53,3.99
		c1.02,0.41,2.05,0.82,3.07,1.02c6.04,1.64,12.29,2.05,18.43,2.15c7.17,0,14.44-0.1,21.5-1.43c2.87-0.61,5.73-1.43,8.19-2.97
		c1.64-1.02,3.17-2.56,3.79-4.51C194.15,253.44,193.84,250.88,192.31,249.14z M179.81,253.85c-0.41,1.54-1.95,2.56-3.28,3.17
		c-2.56,1.13-5.32,1.54-8.09,1.74c-3.58,0.31-7.27,0.31-10.85,0c-2.87-0.31-5.63-0.61-8.29-1.74c-1.33-0.61-2.76-1.43-3.38-2.87
		c-0.51-1.13-0.1-2.46,0.82-3.38c1.23-1.33,2.97-1.95,4.61-2.46c4.51-1.23,9.11-1.33,13.72-1.23l0.1,0.1c2.36,0,4.71,0.31,6.96,0.72
		c2.15,0.41,4.4,1.02,6.25,2.46C179.61,251.08,180.22,252.52,179.81,253.85z"/>
	<path id="XMLID_211_" class="st0" d="M123.8,250.27c-0.82-1.84-2.46-3.17-4.2-4.2c-3.58-1.95-7.78-2.66-11.88-3.17
		c-5.94-0.61-11.88-0.41-17.82-0.51c-6.55,0-13-0.1-19.56,0c-1.23,0-2.56,0.2-3.38,1.23c-0.51,0.61-0.2,1.54-0.31,2.25
		c-0.1,2.56-0.1,5.12-0.1,7.68v5.43c0,1.23-0.41,2.76,0.51,3.79c0.92,1.02,2.36,1.02,3.69,1.13c6.76,0.1,13.52,0,20.38,0
		c1.02,0,2.05-0.1,2.97-0.1c6.86-0.1,13.72,0.1,20.38-1.33c1.74-0.41,3.48-0.92,5.12-1.64c2.25-1.13,4.1-3.28,4.61-5.84
		C124.62,253.34,124.52,251.7,123.8,250.27z M110.49,254.16c-0.61,1.95-2.66,2.97-4.51,3.48c-1.54,0.41-3.17,0.61-4.71,0.82
		c-0.92,0.1-1.95,0.1-2.87,0.2c-4.71,0-9.42,0.1-14.13,0c-1.13-0.1-2.36,0.1-3.48-0.2c-0.41-0.2-0.61-0.72-0.61-1.13
		c0-2.87,0-5.73,0.1-8.6c0-0.72,0.82-1.02,1.43-1.02c3.17-0.1,6.35,0,9.52,0c5.12,0,10.34-0.31,15.26,1.23
		c1.33,0.41,2.76,1.13,3.58,2.25C110.69,252.11,110.69,253.24,110.49,254.16z"/>
	<path id="XMLID_200_" class="st2" d="M156.16,242.59c4.1-0.1,8.19-0.1,12.29,0c0.92,0.1,1.95,0,2.87,0.2
		c3.79,0.2,7.68,0.72,11.37,1.74c0.72,0.2,1.43,0.41,2.15,0.72c0.31,0.2,0.51,0.31,0.72,0.51c-0.41,0-0.82,0-1.23,0
		c0.61,0.31,1.23,0.61,1.84,0.82c0.41,0.2,0.72,0.31,1.13,0.51c0.2,0.1,0.41,0.2,0.61,0.31c0.72,0.41,1.43,0.92,2.05,1.43
		c0.1,0.1,0.31,0.31,0.41,0.41c-0.61-0.1-1.23,0-1.74,0.1c-0.1-0.1-0.2-0.2-0.31-0.31c-1.33-0.2-2.66,0.1-3.89-0.1
		c-1.02,0.1-2.15,0-3.17,0.1c0,0.1-0.1,0.31-0.1,0.41c-0.72-0.82-1.64-1.43-2.66-1.95c-2.56-1.23-5.43-1.74-8.19-2.15
		c-2.46-0.31-4.92-0.41-7.37-0.31c-3.28,0-6.45,0.1-9.73,0.72c-1.95,0.31-3.79,0.82-5.63,1.64c-1.13,0.51-2.15,1.13-2.97,2.05
		c-0.1,0.1-0.2,0.2-0.31,0.31c0.1-0.31,0.1-0.51,0.2-0.82c-1.02-0.51-2.05-0.2-3.07-0.31c-1.13-0.1-2.25,0-3.38,0
		c-0.51-0.1-0.82,0.41-1.33,0.31c0-0.2,0.1-0.31,0.1-0.51c-0.61,0-1.02,0.41-1.54,0.82c-0.1,0-0.31,0-0.41,0c0-0.1,0-0.2,0-0.2
		c0.41-0.41,0.72-0.72,1.13-1.13c0.41-0.31,0.72-0.51,1.13-0.82c0.41-0.2,0.72-0.41,1.13-0.61c0.51-0.2,1.02-0.51,1.43-0.82
		c-0.41-0.1-0.92-0.1-1.33-0.1c0.2-0.1,0.31-0.2,0.51-0.2c0.72-0.31,1.43-0.51,2.25-0.82c1.64-0.51,3.28-0.82,4.92-1.13
		c2.36-0.41,4.71-0.61,7.07-0.72C154.21,242.59,155.24,242.69,156.16,242.59z"/>
	<path id="XMLID_199_" class="st3" d="M284.26,242.69c3.79-0.2,7.58-0.2,11.26-0.2c4.71,0,9.32,0,14.03,0c4.51,0,9.01-0.1,13.52,0
		c0.51,0,1.02,0.1,1.33,0.51c0.1,0.61,0,1.33,0.1,1.95c-0.1,0.51-0.1,1.02-0.1,1.64c-0.31,0.31-0.72,0.61-1.23,0.51
		c-2.46,0-5.02,0-7.48,0c-0.41,0.1-0.72,0.1-1.13,0c-6.25-0.1-12.49,0-18.84,0c-1.02,0.1-2.15,0-3.17,0c-0.72,0.1-1.43,0-2.25,0.1
		c-2.25,0.2-4.51,0.41-6.66,1.23c-1.23,0.41-2.36,1.02-3.17,2.15c-0.82,1.13-0.92,2.66-0.41,3.89c0.41,1.13,1.43,1.95,2.56,2.46
		c2.15,1.02,4.61,1.33,6.96,1.54c-0.2,0.1-0.51,0.2-0.72,0.2c-1.43-0.1-2.87-0.31-4.2-0.72c-1.23-0.41-2.46-0.82-3.48-1.64
		c-1.23-0.92-1.95-2.46-1.64-3.99c0-0.1,0.1-0.41,0.1-0.51c0-0.2,0.1-0.31,0.1-0.51c0.51-1.43,1.74-2.25,2.97-2.87
		c2.87-1.23,6.04-1.43,9.22-1.54c4.4,0,8.7,0,13.11,0c1.54,0.1,3.17,0,4.71,0c4.3,0,8.6,0,12.9,0c0.51,0,1.43,0,1.54-0.72
		c0.1-1.02,0.1-2.05-0.2-3.07l-0.1-0.1c-0.51-0.1-1.02-0.1-1.43-0.1c-9.32,0-18.64,0-28.06,0c-3.69,0-7.48-0.1-11.16,0.31
		c-3.58,0.31-7.27,0.82-10.65,2.15c-0.51,0.2-0.92,0.41-1.43,0.72c-0.51,0.2-0.92,0.51-1.43,0.82c-0.41,0.31-0.82,0.61-1.13,0.92
		c-0.31,0.2-0.51,0.51-0.72,0.82c-1.43,1.74-1.84,4.1-1.23,6.25c0.1,0.31,0.2,0.61,0.31,0.82c0.92,2.15,2.97,3.58,5.12,4.51
		c3.38,1.43,6.96,2.05,10.65,2.46c3.79,0.41,7.48,0.31,11.26,0.31c8.81,0,17.51,0,26.32,0c0.92,0,1.84,0,2.56-0.51
		c0.61-0.41,0.82-1.23,0.92-1.95c0.2-2.05,0.1-3.99,0.1-6.04c0-0.72,0-1.43,0-2.15c-0.1-0.2-0.1-0.41-0.2-0.51
		c-0.51-0.61-1.33-0.92-2.15-0.92c-9.01-0.1-17.92,0-26.93,0c-0.72,0-1.54,0.31-1.54,1.02c0,0.31-0.1,0.51-0.1,0.82
		c0,0.51,0,1.13,0,1.64c0.2,0.41,0.51,0.72,1.02,0.61c4.51,0,8.91,0,13.41,0c0.92,0,1.74-0.1,2.66,0.1c0.51,0.1,0.82,0.72,1.13,1.13
		c0,0.31,0,0.51,0,0.82c0,0.61-0.1,1.23-0.41,1.74h-0.1c-0.1,0-0.31-0.1-0.41-0.2c0.2-0.2,0.51-0.31,0.51-0.61
		c0-0.61,0.1-1.33-0.1-1.95c-0.2-0.61-1.02-0.72-1.64-0.72c-5.02,0-10.04,0-15.16,0c-0.41,0-0.92-0.31-1.02-0.72
		c-0.2-1.02-0.2-2.15,0-3.17c0.2-0.51,0.72-0.72,1.13-0.92c8.6,0,17.2,0,25.8,0c0.82,0,1.74,0,2.56,0.1
		c0.72,0.2,1.54,0.61,1.74,1.43c0.31,1.13,0.2,2.25,0.2,3.38c0,1.84,0,3.69-0.2,5.63c-0.1,0.82-0.61,1.64-1.33,2.05
		c-0.72,0.41-1.54,0.41-2.36,0.41c-8.81,0-17.61,0-26.42,0c-4.51,0-8.91,0-13.41-0.61c-2.56-0.31-5.12-0.82-7.48-1.74
		c-2.66-1.02-5.32-2.56-6.55-5.22c-0.82-1.95-0.82-4.3,0.1-6.25c1.13-2.36,3.48-3.89,5.84-4.81
		C276.17,243.51,280.27,243,284.26,242.69z"/>
	<path id="XMLID_198_" class="st0" d="M335.05,242.89c0.61-0.41,1.33-0.51,2.05-0.51c3.79-0.1,7.68,0,11.47,0
		c9.11,0,18.12,0,27.24,0c1.74,0,3.48,0,5.22,0c0.1,0,0.31,0,0.31,0c1.33,0,2.66,0,3.99,0c0.72,0,1.33,0.61,1.33,1.23
		c0.1,0.72,0,1.43,0,2.25c0,0.51-0.41,1.13-0.92,1.23c-0.51,0.1-1.02,0.1-1.54,0.1c-2.46,0-4.92,0-7.37,0c-9.11,0-18.33,0-27.44,0
		c-0.51,0-1.13,0.1-1.43,0.61c-0.2,0.72-0.1,1.54-0.1,2.25c0.61,0.31,1.23,0.31,1.84,0.31c8.09,0,16.28,0,24.37,0
		c2.15,0,4.3,0,6.45,0c1.13,0,2.36-0.2,3.48,0.1c0.61,0.2,1.02,0.72,1.02,1.33c0.1,0.82,0.1,1.74-0.2,2.56
		c-0.2,0.61-0.82,0.82-1.43,0.82c-4.51,0-9.01,0-13.52,0c-6.76,0-13.52,0-20.28,0c-0.61,0-1.23,0.2-1.64,0.61
		c-0.41,0.61-0.41,1.43-0.31,2.15c0,0.31,0.31,0.51,0.61,0.51c1.13,0.2,2.36,0.1,3.48,0.1c5.02,0,10.04,0,15.05,0
		c5.94,0,11.88,0,17.72,0c0.72,0,1.54,0,2.25,0.31c0.51,0.2,0.61,0.72,0.72,1.23c0,0.2,0,0.51,0,0.61c0,0.51,0,1.13-0.1,1.64
		c-0.2,0.41-0.41,0.92-0.82,1.13c-0.51,0.1-1.02,0-1.54,0.1c-7.58,0-15.16,0-22.73,0c-8.4,0-16.9,0-25.29,0
		c-0.82,0-1.64-0.1-2.25-0.51c-0.41-0.31-0.72-0.72-0.92-1.13c-0.31-1.33-0.2-2.66-0.31-3.99c-0.1-4.4,0-8.7,0.2-13.11
		C334.23,244.22,334.44,243.4,335.05,242.89z"/>
	<path id="XMLID_197_" class="st4" d="M68.4,243.2c1.13-0.51,2.36-0.31,3.58-0.31c9.22,0,18.33,0,27.55,0.1
		c1.23,0.1,2.36,0.1,3.58,0.1c2.05,0.1,4.1,0.31,6.14,0.61c2.66,0.41,5.32,0.92,7.88,1.95c-1.23,0.41-2.66,0.1-3.99,0.31
		c-0.92-0.1-1.74-0.41-2.66-0.61c-2.15-0.31-4.2-0.61-6.35-0.72c-1.54-0.1-3.07-0.1-4.51-0.2c-1.64,0-3.28-0.1-4.92,0
		c-0.82,0-1.64-0.1-2.46,0c-0.92,0.1-1.95-0.1-2.87,0c-5.53,0-11.16,0-16.69,0c-1.02,0-2.15-0.1-3.17,0.2
		c-0.61,0.2-0.51,0.92-0.51,1.43c-0.61,0-1.23,0-1.84,0c0-0.31,0-0.72,0-1.02C67.07,244.02,67.79,243.4,68.4,243.2z"/>
	<path id="XMLID_196_" class="st4" d="M201.73,244.02c0.72-0.92,1.95-1.23,3.07-1.23c7.78-0.1,15.56,0,23.45,0
		c4.61,0,9.22,0,13.82,0.51c3.17,0.41,6.35,0.92,9.32,2.05c-0.41,0.31-1.02,0.2-1.54,0.2c-0.82,0-1.54,0-2.36,0.1
		c-1.95-0.41-3.89-0.92-5.94-1.02c-1.33-0.2-2.76-0.2-4.2-0.31c-1.54,0-3.07,0-4.61-0.1c-1.64-0.1-3.17,0.1-4.81-0.1
		c-7.27,0-14.54,0-21.81,0c-0.82,0-1.54,0-2.25,0.31c-0.51,0.1-0.51,0.72-0.51,1.13c-0.61,0-1.23,0-1.84,0
		C201.63,245.04,201.63,244.53,201.73,244.02z"/>
	<path id="XMLID_195_" class="st4" d="M283.24,243.2c3.69-0.31,7.48-0.31,11.16-0.31c9.32,0,18.64,0,28.06,0c0.51,0,1.02,0,1.43,0.1
		c0,0.51-0.41,0.72-0.82,0.92l-0.2,0.1c0,0.41,0,0.92,0,1.43h-0.2c0-0.41,0-0.82-0.1-1.23c-3.99-0.1-7.88,0-11.88,0
		c-5.12,0-10.34,0-15.46,0c-3.48,0-6.86-0.1-10.34,0.2c-2.97,0.1-5.84,0.61-8.7,1.33c-0.92-0.1-1.84,0-2.76,0
		c-0.31,0-0.51-0.1-0.82-0.31C275.97,244.12,279.65,243.61,283.24,243.2z"/>
	<path id="XMLID_194_" class="st4" d="M335.77,243.1c0.92-0.31,1.95-0.2,2.87-0.2c8.81,0,17.61,0,26.42,0c6.55,0,13.11,0,19.56,0
		c0.41,0,0.92,0.1,1.33,0.31c0,0.1,0.1,0.31,0.1,0.41c-0.31,0.2-0.72,0.41-1.02,0.51l0,0c-0.1,0.31-0.1,0.61-0.1,1.02
		c0-0.31-0.1-0.61-0.1-1.02c-14.23,0-28.36,0-42.6,0c-1.84,0.1-3.58,0-5.43,0.1c-0.31,0.41-0.61,0.92-0.51,1.54
		c-0.61,0-1.13,0-1.74,0c0-0.31,0-0.51,0-0.82C334.64,244.12,335.05,243.3,335.77,243.1z"/>
	<path id="XMLID_193_" class="st5" d="M323.89,243.1L323.89,243.1c0.41,1.02,0.31,2.15,0.2,3.17c-0.1,0.72-1.02,0.72-1.54,0.72
		c-4.3,0-8.6,0-12.9,0c-1.54,0-3.17,0.1-4.71,0c0.51-0.2,1.13-0.2,1.64-0.31c2.15-0.31,4.2-0.41,6.35-0.61
		c1.33-0.2,2.76-0.1,4.2-0.31c0.92-0.1,1.84-0.1,2.66-0.2c0.92-0.1,1.74-0.2,2.66,0c0.61,0.1,0.92,0.72,1.43,0.92
		c-0.2-0.41-0.51-0.72-0.72-1.13c-0.1-0.51-0.1-0.92-0.1-1.43C323.48,243.81,323.89,243.51,323.89,243.1z"/>
	<path id="XMLID_192_" class="st6" d="M386.05,243.2c0.72,0.92,0.41,2.15,0.2,3.17c-0.2-0.2-0.51-0.31-0.82-0.2
		c-12.49,0-25.09,0-37.58,0c-0.31,0-0.61-0.1-0.92-0.2c0.92-0.61,2.15-0.61,3.17-0.61c3.28,0,6.55,0,9.83,0
		c1.33,0.1,2.76-0.1,4.1-0.1c6.14,0,12.29,0,18.43,0c0.82,0,1.64-0.1,2.46,0.1c0-0.41,0-0.82,0-1.23c0.31-0.2,0.72-0.31,1.02-0.51
		C386.15,243.51,386.05,243.3,386.05,243.2z"/>
	<path id="XMLID_191_" class="st7" d="M201.52,244.63c0-0.2,0.1-0.41,0.2-0.61c-0.1,0.51-0.1,1.02-0.2,1.64c0,0.1,0,0.2,0,0.31
		c0,0.2,0,0.41,0,0.51c0.51,0,0.92,0,1.43,0c0.1,0.1,0.2,0.2,0.31,0.41c0,1.23,0,2.46-0.1,3.69c0-0.2-0.1-0.41-0.1-0.61
		c0-0.61,0.1-1.33,0-1.95c0-0.2,0-0.41,0-0.61c-0.61,0-1.23,0-1.74,0C201.42,246.48,201.52,245.56,201.52,244.63z"/>
	<path id="XMLID_190_" class="st8" d="M322.87,245.45c0-0.51,0-0.92,0-1.43l0.2-0.1c0,0.51,0,0.92,0.1,1.43
		c0.2,0.41,0.51,0.72,0.72,1.13c-0.51-0.2-0.82-0.82-1.43-0.92c-0.92-0.1-1.74,0-2.66,0c-0.92,0.1-1.84,0.1-2.66,0.2
		c-1.33,0.2-2.76,0.1-4.2,0.31c-2.15,0.2-4.3,0.31-6.35,0.61c-0.61,0.1-1.13,0-1.64,0.31c-4.4,0.1-8.7,0-13.11,0
		c-3.07,0.1-6.25,0.31-9.22,1.54c-0.92-0.1-1.95,0.31-2.87,0c2.05-1.84,4.92-2.46,7.58-2.87c1.84-0.2,3.58-0.41,5.43-0.41
		c9.22-0.1,18.33,0,27.55,0c0.72,0,1.54,0,2.25,0.1L322.87,245.45z"/>
	<path id="XMLID_189_" class="st9" d="M342.22,244.12c14.23,0.1,28.36,0,42.6,0c0,0.31,0.1,0.61,0.1,1.02c0-0.31,0.1-0.61,0.1-1.02
		l0,0c0,0.41,0,0.82,0,1.23c-0.82-0.2-1.64-0.1-2.46-0.1c-6.14,0-12.29,0-18.43,0c-1.33,0-2.76,0.1-4.1,0.1c-3.28,0-6.55,0-9.83,0
		c-1.13,0-2.25,0-3.17,0.61c-0.61,0.41-0.92,1.23-1.02,1.95c0,0.82-0.1,1.64,0.1,2.46c-0.1-0.1-0.2-0.2-0.31-0.31
		c-0.2-0.72,0-1.54-0.1-2.36c-0.1-0.1-0.31-0.1-0.41-0.2c-0.1,0.1-0.2,0.1-0.31,0.2c-0.72-0.41-1.43,0-2.15-0.1
		c-1.13-0.1-2.25-0.2-3.48,0c-0.41,0-0.82-0.2-1.23-0.1c-0.61,0.2-1.23,0.1-1.74,0.1c0-0.61,0-1.33-0.1-1.95
		c0-0.51,0.2-1.02,0.51-1.54C338.64,244.12,340.38,244.22,342.22,244.12z"/>
	<path id="XMLID_188_" class="st10" d="M69.53,244.43c1.02-0.31,2.05-0.2,3.17-0.2c5.53,0,11.16,0,16.69,0c0.92,0,1.95,0.1,2.87,0
		c0.82-0.1,1.64,0,2.46,0c1.64-0.1,3.28,0,4.92,0c1.54,0.2,3.07,0.1,4.51,0.2c2.15,0.1,4.2,0.41,6.35,0.72
		c0.92,0.1,1.74,0.41,2.66,0.61c0.72,0.2,1.33,0.61,2.15,0.72c0.2,0,0.41,0.1,0.51,0.1c0.72,0.31,1.43,0.72,2.15,1.02
		c0.82,0.41,1.54,0.92,2.15,1.43c0.2,0.1,0.31,0.31,0.41,0.41c-0.51,0.1-0.92-0.1-1.33-0.31c-1.13,0.2-2.15,0-3.28,0
		c-1.23-0.1-2.46,0-3.69,0.1c-0.1,0.2-0.1,0.41-0.2,0.61c-0.41-0.61-1.02-1.23-1.64-1.64c-0.41-0.31-0.92-0.61-1.43-0.82
		c-2.46-1.13-5.12-1.43-7.78-1.64c-2.87-0.31-5.73-0.2-8.5-0.2c-2.56,0-5.12,0-7.68,0c-1.74,0.2-3.48-0.2-5.22,0.31
		c-1.13,0.31-1.95,1.33-2.05,2.36c0,0.1,0,0.2,0,0.31c-0.31,0.1-0.61,0.1-0.82,0.1c-2.66-0.1-5.22,0.1-7.88,0
		c0-0.92,0-1.84-0.1-2.76C68.92,245.35,68.92,244.63,69.53,244.43z"/>
	<path id="XMLID_187_" class="st9" d="M203.88,244.43c0.72-0.31,1.54-0.31,2.25-0.31c7.27,0,14.54,0,21.81,0
		c1.64,0.2,3.17-0.1,4.81,0.1c1.54,0.1,3.07,0.1,4.61,0.1c1.43,0.1,2.76,0.1,4.2,0.31c1.95,0.1,3.99,0.61,5.94,1.02
		c0.61,0.2,1.13,0.41,1.74,0.51c0.2,0,0.41,0.1,0.61,0.1c0.51,0.2,1.13,0.51,1.64,0.72c0.31,0.1,0.61,0.31,0.82,0.41
		c0.82,0.41,1.54,0.92,2.15,1.54c0.41,0.31,0.72,0.72,1.02,1.13c-0.51-0.2-1.02-0.51-1.43-0.82c-0.41-0.31-1.02-0.2-1.54-0.2
		c-0.72,0.1-1.43,0-2.05,0c-1.13,0.1-2.36,0-3.48,0c-0.1,0.41-0.1,0.72-0.2,1.13c-0.72-1.13-1.74-2.05-2.97-2.56
		c-2.25-1.13-4.81-1.43-7.27-1.74c-5.22-0.51-10.44-0.2-15.56-0.31c-1.23-0.1-2.46,0-3.69,0s-2.46-0.1-3.48,0.41
		c-0.61,0.31-1.13,0.82-1.43,1.43c-0.2,0.31-0.31,0.61-0.41,0.92c-0.1-0.2-0.1-0.51-0.31-0.51c-1.43,0-2.97,0.31-4.51,0
		c-0.51,0.31-1.13,0.1-1.64,0.1c-0.61,0-1.23,0-1.84,0.1c-0.1,0.41-0.1,0.92-0.2,1.33c-0.1-1.23,0.1-2.56-0.1-3.79
		C203.37,245.15,203.47,244.53,203.88,244.43z"/>
	<path id="XMLID_186_" class="st9" d="M284.88,244.43c3.38-0.31,6.86-0.2,10.34-0.2c5.12,0,10.34,0,15.46,0c3.99,0,7.88,0,11.88,0
		c0,0.41,0,0.82,0.1,1.23c-0.72-0.1-1.54,0-2.25-0.1c-9.22,0-18.33,0-27.55,0c-1.84,0-3.58,0.1-5.43,0.41
		c-2.66,0.41-5.53,1.02-7.58,2.87l-0.1,0.1c-0.2,0-0.31-0.1-0.51-0.1c0.2-0.31,0.41-0.51,0.72-0.82c-0.1,0-0.2-0.1-0.31-0.1
		c-0.2,0.1-0.51,0.2-0.72,0.2c0.1-0.1,0.1-0.2,0.2-0.31c-0.72,0-1.33,0.1-2.05,0.31c-0.92,0.2-1.95-0.41-2.76-0.1
		c-0.51,0.2-1.02-0.1-1.54,0c-0.41,0.1-0.82,0.1-1.23,0.1c0.31-0.2,0.72-0.51,1.13-0.72c0.61-0.31,1.13-0.61,1.74-0.82
		s1.23-0.41,1.84-0.61C279.04,245.04,281.91,244.53,284.88,244.43z"/>
	<path id="XMLID_185_" class="st11" d="M66.97,246.48c0-0.51,0.1-1.13,0.1-1.64c0,0.31,0,0.72,0,1.02c0.61,0,1.23,0,1.84,0
		c0,0.92,0.1,1.84,0.1,2.76c0,1.13,0,2.36,0,3.48v0.31c-0.1-0.1-0.2-0.2-0.2-0.31c0-0.61,0-1.13,0-1.74c0-0.51,0-0.92,0-1.43
		c0-0.51,0-1.02,0-1.54c0-0.31-0.1-0.61-0.1-0.92C68.1,246.48,67.58,246.48,66.97,246.48z"/>
	<path id="XMLID_184_" class="st12" d="M334.44,247.19c0.1-0.72-0.1-1.54,0.1-2.25c0,0.2,0,0.51,0,0.82s0,0.51,0.1,0.82
		c0.51,0,1.02-0.1,1.54,0.1c0.2,0.61,0.2,1.23,0.2,1.95c0,0.92,0,1.84-0.1,2.76c0-0.82,0-1.74,0-2.56c0-0.31,0-0.61,0-0.82
		c0-0.2,0-0.41,0-0.61C335.56,247.09,335.05,247.19,334.44,247.19L334.44,247.19z"/>
	<path id="XMLID_183_" class="st13" d="M153.19,245.86c3.17-0.51,6.45-0.72,9.73-0.72c2.46,0,4.92,0.1,7.37,0.31
		c2.76,0.31,5.63,0.82,8.19,2.15c-0.51,0.2-1.13-0.1-1.64,0c-0.82,0.2-1.74-0.2-2.56,0.2c-2.87-0.72-5.84-1.02-8.81-1.13
		c-3.69-0.1-7.48,0-11.16,0.61c-2.25,0.41-4.61,0.92-6.66,2.15c-0.2,0.1-0.51,0.1-0.72,0.1c-0.72-0.2-1.54,0.1-2.25-0.1
		c0.82-0.92,1.84-1.54,2.97-2.05C149.4,246.68,151.24,246.17,153.19,245.86z"/>
	<path id="XMLID_182_" class="st14" d="M184.83,245.15c0.92,0.2,1.84,0.72,2.66,1.02c-0.41,0.1-0.92,0.2-1.33,0.31
		c-0.61-0.31-1.23-0.51-1.84-0.82c0.41,0,0.82,0,1.23,0C185.34,245.45,185.14,245.35,184.83,245.15z"/>
	<path id="XMLID_181_" class="st15" d="M113.15,245.76c1.33-0.2,2.66,0.2,3.99-0.31c0.41,0.1,0.72,0.31,1.13,0.51
		c-1.02,0.1-2.05,0-3.17,0.1c0,0.1,0.1,0.31,0.1,0.41C114.59,246.27,113.87,245.96,113.15,245.76z"/>
	<path id="XMLID_180_" class="st16" d="M251.39,245.45L251.39,245.45c0.41,0.1,0.72,0.2,1.02,0.41c-1.02,0.31-2.05,0.1-3.07,0.2
		c0,0.1,0,0.2,0,0.31c-0.61-0.1-1.23-0.31-1.74-0.51c0.82-0.1,1.54-0.1,2.36-0.1C250.37,245.66,250.88,245.76,251.39,245.45z"/>
	<path id="XMLID_179_" class="st17" d="M271.16,246.07c0.51-0.2,0.92-0.51,1.43-0.72c0.2,0.1,0.51,0.31,0.82,0.31
		c0.92,0,1.84,0,2.76,0c-0.61,0.2-1.23,0.51-1.84,0.61C273.31,245.96,272.18,246.27,271.16,246.07z"/>
	<path id="XMLID_178_" class="st18" d="M79.87,245.86c1.74-0.51,3.48-0.1,5.22-0.31c2.56,0.1,5.12,0,7.68,0c2.87,0,5.73-0.1,8.5,0.2
		c2.66,0.2,5.32,0.51,7.78,1.64c-0.51,0.1-1.02,0-1.54-0.1c-1.02,0-2.05,0-2.97,0.41c-2.87-0.51-5.73-0.72-8.7-0.72
		c-4.71,0-9.42-0.1-14.13,0c-0.92,0-1.84,0.41-2.15,1.33c-0.1,0.2-0.2,0.41-0.31,0.61c-0.41,0.1-0.92,0.1-1.33,0.2
		c0-0.31,0-0.61-0.1-0.92C77.93,247.19,78.75,246.17,79.87,245.86z"/>
	<path id="XMLID_177_" class="st19" d="M138.55,245.66c0.51,0,0.92,0.1,1.33,0.1c-0.41,0.31-0.92,0.61-1.43,0.82
		c0-0.1,0-0.2,0.1-0.31c-0.31-0.1-0.72-0.1-1.02-0.2C137.83,245.96,138.14,245.66,138.55,245.66z"/>
	<path id="XMLID_176_" class="st20" d="M201.52,245.66c0.61,0,1.23,0,1.84,0c0.2,1.23,0,2.46,0.1,3.79c-0.1,0.92,0,1.84,0.1,2.76
		c2.76,0,5.53,0,8.4,0c0-1.23,0-2.56,0.1-3.79c0-0.31,0.2-0.61,0.41-0.92c-0.2,0.61-0.2,1.23-0.2,1.84c0,0.41,0,0.92,0,1.33
		c0,0.72-0.1,1.33-0.1,2.05c-2.87,0.1-5.63,0-8.5,0c0-0.1-0.1-0.2-0.1-0.31c-0.1,0-0.2,0-0.2,0c0-0.61,0-1.23,0-1.84
		c0.1-1.23,0-2.46,0.1-3.69c0-0.31,0-0.61,0-0.92c-0.61,0-1.13,0-1.74,0C201.52,245.86,201.52,245.66,201.52,245.66z"/>
	<path id="XMLID_175_" class="st18" d="M213.81,246.07c1.13-0.51,2.36-0.41,3.48-0.41c1.23,0,2.46-0.1,3.69,0
		c5.22,0.1,10.44-0.2,15.56,0.31c2.46,0.2,5.02,0.51,7.27,1.74c-0.82,0-1.54-0.2-2.36-0.1c-1.33,0.1-2.56,0.1-3.89,0.2
		c-2.56-0.31-5.12-0.51-7.78-0.51c-4.71,0-9.32-0.1-14.03,0c-0.92,0-1.95,0.61-1.84,1.64c-0.41,0.1-0.72,0.2-1.13,0.31
		c-0.1,0-0.2-0.1-0.2-0.2c-0.2,0.1-0.41,0.2-0.51,0.2c0-0.61,0-1.23,0.2-1.84C212.79,246.89,213.2,246.27,213.81,246.07z"/>
	<path id="XMLID_174_" class="st21" d="M334.54,245.66c0.61,0,1.13,0,1.74,0c0.1,0.61,0.1,1.23,0.1,1.95c0,1.54-0.1,2.97,0,4.51
		c0,0.1,0.1,0.31,0.1,0.51c2.66,0,5.32,0,7.99,0c1.74,0,3.48,0,5.22,0.1c8.6,0,17.2,0,25.8,0c2.46,0,4.92,0,7.37,0
		c0,0.1,0.1,0.2,0.2,0.31c-15.05,0-30.21,0-45.26,0c-0.51,0-1.02,0-1.54-0.1v-0.1c0-0.51,0-1.02,0-1.54c0.1-0.92,0-1.84,0.1-2.76
		c0-0.61,0-1.33-0.2-1.95c-0.51-0.1-1.02-0.1-1.54-0.1C334.54,246.27,334.54,245.96,334.54,245.66z"/>
	<path id="XMLID_173_" class="st22" d="M252.31,245.76c0.2,0.1,0.51,0.2,0.72,0.31c-1.02,0.41-2.05,0.1-3.17,0.31
		c-0.2,0-0.41-0.1-0.61-0.1c0-0.1,0-0.2,0-0.31C250.27,245.86,251.29,246.07,252.31,245.76z"/>
	<path id="XMLID_172_" class="st23" d="M118.27,245.96c0.2,0,0.41,0.2,0.72,0.31c-1.02,0.41-2.05,0.1-3.07,0.2
		c-0.2,0-0.41-0.1-0.51-0.1c0-0.1-0.1-0.31-0.1-0.41C116.22,245.96,117.25,246.07,118.27,245.96z"/>
	<path id="XMLID_171_" class="st24" d="M201.52,245.96c0.61,0,1.13,0,1.74,0c0,0.31,0,0.61,0,0.92c-0.1-0.1-0.2-0.2-0.31-0.41
		c-0.51,0-0.92,0-1.43,0C201.63,246.27,201.63,246.17,201.52,245.96z"/>
	<path id="XMLID_170_" class="st25" d="M345.91,247.91c0.1-0.72,0.41-1.54,1.02-1.95c0.31,0.1,0.61,0.2,0.92,0.2
		c12.49,0,25.09,0,37.58,0c0.31,0,0.51,0.1,0.82,0.2c-0.2,0.31-0.41,0.61-0.82,0.61c-3.58,0.1-7.07,0-10.65,0
		c-8.7,0-17.41,0-26.11,0c-0.61-0.1-1.13,0.31-1.33,0.92C346.83,247.91,346.42,247.91,345.91,247.91z"/>
	<path id="XMLID_169_" class="st26" d="M136.91,246.37c0.2-0.1,0.31-0.2,0.51-0.31c0.31,0.1,0.72,0.1,1.02,0.2c0,0.1,0,0.2-0.1,0.31
		c-0.41,0.2-0.82,0.41-1.13,0.61c0.1-0.1,0.2-0.31,0.31-0.41c-0.2,0-0.51,0-0.72,0C136.81,246.68,136.91,246.48,136.91,246.37z"/>
	<path id="XMLID_168_" class="st27" d="M253.03,246.07c0.41,0.2,0.82,0.41,1.23,0.72c-0.92,0.1-1.84-0.1-2.66,0.31
		c-0.51-0.2-1.13-0.51-1.64-0.72C250.98,246.17,252.01,246.58,253.03,246.07z"/>
	<path id="XMLID_167_" class="st28" d="M269.72,246.89c0.41-0.31,0.92-0.61,1.43-0.82c1.02,0.2,2.15-0.1,3.17,0.31
		c-0.61,0.2-1.13,0.51-1.74,0.82C271.67,246.78,270.75,247.09,269.72,246.89z"/>
	<path id="XMLID_166_" class="st29" d="M118.99,246.27c0.51,0.31,1.02,0.61,1.54,0.92c-0.82,0.1-1.74-0.1-2.46,0.31
		c-0.72-0.31-1.43-0.72-2.15-1.02C116.84,246.37,117.96,246.68,118.99,246.27z"/>
	<path id="XMLID_165_" class="st30" d="M187.6,246.17c0.2,0.1,0.41,0.2,0.61,0.31c-0.31,0.1-0.61,0.1-0.92,0.2c0,0.1,0,0.2,0,0.31
		c-0.41-0.2-0.72-0.41-1.13-0.51C186.68,246.37,187.08,246.27,187.6,246.17z"/>
	<path id="XMLID_164_" class="st31" d="M66.97,246.48c0.61,0,1.13,0,1.74,0c0,0.31,0.1,0.61,0.1,0.92c-0.61,0-1.23,0-1.84-0.1
		c0-0.1,0-0.41,0-0.61C66.97,246.68,66.97,246.48,66.97,246.48z"/>
	<path id="XMLID_163_" class="st32" d="M135.68,247.19c0.41-0.31,0.82-0.51,1.23-0.82c0,0.1-0.1,0.31-0.1,0.41c0.2,0,0.51,0,0.72,0
		c-0.1,0.1-0.2,0.31-0.31,0.41c-0.41,0.31-0.82,0.51-1.13,0.82c0-0.1,0-0.31,0-0.41c-0.2,0-0.41,0-0.72-0.1
		C135.48,247.4,135.58,247.3,135.68,247.19z"/>
	<path id="XMLID_162_" class="st33" d="M188.21,246.58c0.31,0.1,0.61,0.31,0.92,0.51c-0.41,0.1-0.72,0.2-1.13,0.31
		c-0.2-0.1-0.41-0.2-0.61-0.31c0-0.1,0-0.2,0-0.31C187.6,246.68,187.9,246.58,188.21,246.58z"/>
	<path id="XMLID_161_" class="st6" d="M66.76,252.93c0-2.05,0-4.2,0.2-6.25c0,0.1,0,0.41,0,0.61c0,0.51,0,1.02,0.1,1.43
		c0.51,0.2,1.13,0,1.64,0.2c0,0.51,0,0.92,0,1.43c-0.2,1.13,0.1,2.25-0.2,3.28c-0.41,0.51-1.13,0.2-1.64,0.1
		c-0.1,0.41-0.1,0.72-0.2,1.13v0.2C66.56,254.36,66.76,253.64,66.76,252.93z"/>
	<path id="XMLID_159_" class="st34" d="M254.26,246.78c0.31,0,0.51,0.31,0.72,0.41c-0.82,0.51-1.74-0.1-2.46,0.31
		c-0.31-0.1-0.61-0.31-0.82-0.41C252.42,246.68,253.34,246.89,254.26,246.78z"/>
	<path id="XMLID_158_" class="st35" d="M268.6,247.81c0.31-0.31,0.72-0.61,1.13-0.92c0.92,0.2,1.95-0.1,2.76,0.31
		c-0.41,0.2-0.72,0.41-1.13,0.72c-0.2,0.1-0.31,0.2-0.51,0.31C270.34,247.71,269.41,248.12,268.6,247.81z"/>
	<path id="XMLID_155_" class="st36" d="M189.13,247.09L189.13,247.09c0.72,0.41,1.33,0.82,1.95,1.43c-0.41,0-0.72,0.1-1.02,0.41
		c-0.61-0.61-1.33-1.02-2.05-1.43C188.31,247.3,188.72,247.19,189.13,247.09z"/>
	<path id="XMLID_154_" class="st37" d="M66.97,247.3c0.61,0.1,1.23,0.2,1.84,0.1c0,0.51,0,1.02,0,1.54c-0.51-0.2-1.13,0-1.64-0.2
		C66.97,248.22,66.97,247.71,66.97,247.3z"/>
	<path id="XMLID_152_" class="st38" d="M107.52,247.4c0.51,0,1.02,0.1,1.54,0.1c0.51,0.2,1.02,0.51,1.43,0.82
		c-1.02,0-2.15,0.1-3.17,0.31c-0.92-0.31-1.84-0.51-2.76-0.72C105.47,247.4,106.5,247.4,107.52,247.4z"/>
	<path id="XMLID_151_" class="st39" d="M120.52,247.19L120.52,247.19c0.61,0.41,1.13,0.82,1.64,1.33c-0.51,0.2-1.13,0.1-1.64,0
		c-0.1,0.1-0.2,0.31-0.31,0.41c-0.61-0.61-1.33-1.13-2.15-1.43C118.78,247.09,119.71,247.4,120.52,247.19z"/>
	<path id="XMLID_150_" class="st40" d="M134.04,248.52c0.51-0.51,1.02-1.02,1.64-1.43c-0.1,0.1-0.2,0.31-0.2,0.41
		c0.2,0,0.41,0,0.72,0.1c0,0.1,0,0.31,0,0.41c-0.41,0.31-0.72,0.72-1.13,1.13c0-0.2-0.1-0.41-0.1-0.61
		C134.55,248.63,134.35,248.52,134.04,248.52z"/>
	<path id="XMLID_148_" class="st37" d="M252.42,247.5c0.82-0.31,1.74,0.2,2.46-0.31l0,0c0.51,0.41,1.02,0.82,1.54,1.33
		c-0.51,0.61-1.33-0.1-1.84,0.41C253.95,248.42,253.24,247.91,252.42,247.5z"/>
	<path id="XMLID_147_" class="st41" d="M334.44,247.19L334.44,247.19c0.1,0.2,0.2,0.41,0.2,0.61c0.51,0,1.02,0,1.64,0
		c0,0.31,0,0.61,0,0.82c-0.51,0.1-1.02,0.1-1.64,0.1c-0.1-0.31-0.1-0.51-0.2-0.82C334.34,247.71,334.44,247.4,334.44,247.19z"/>
	<path id="XMLID_146_" class="st42" d="M334.54,247.19c0.51,0,1.13,0,1.64,0c0,0.2,0,0.41,0,0.61c-0.51,0-1.02,0-1.64,0
		C334.54,247.6,334.54,247.4,334.54,247.19z"/>
	<path id="XMLID_144_" class="st43" d="M201.42,247.3c0.61,0,1.23,0,1.74,0c0,0.2,0,0.41,0,0.61c-0.61,0-1.23,0-1.84,0
		C201.42,247.81,201.42,247.6,201.42,247.3z"/>
	<path id="XMLID_143_" class="st44" d="M241.56,247.5c0.82-0.1,1.54,0.1,2.36,0.1c1.23,0.51,2.25,1.43,2.97,2.56
		c0.1,0.1,0.1,0.2,0.2,0.31c0.31,0.82,0.61,1.64,0.61,2.56c0,0.31,0,0.72-0.2,0.92c-0.61,0-1.33,0-1.95-0.1
		c0.2-1.33-0.2-2.87-1.23-3.69c-1.74-1.54-4.2-1.95-6.45-2.46C239,247.71,240.23,247.71,241.56,247.5z"/>
	<path id="XMLID_142_" class="st45" d="M338.12,247.5c0.41-0.1,0.82,0.1,1.23,0.1c1.13-0.2,2.25,0,3.48,0
		c0.72,0.1,1.43-0.31,2.15,0.1c0.1-0.1,0.2-0.1,0.31-0.2c0.1,0.1,0.2,0.1,0.41,0.2c0,0.72-0.1,1.54,0.1,2.36
		c0.1,0.1,0.2,0.2,0.31,0.31c0.41,0.51,0.72,1.13,1.33,1.43c0,0.1,0,0.2,0,0.31c-3.69,0-7.37,0-10.96,0c-0.1-1.54,0-2.97,0-4.51
		C337,247.6,337.51,247.71,338.12,247.5z"/>
	<path id="XMLID_141_" class="st5" d="M174.28,247.91c0.82-0.41,1.64,0,2.56-0.2c0.51-0.1,1.13,0.1,1.64,0
		c1.02,0.51,1.95,1.13,2.66,1.95c0.61,0.72,1.13,1.64,1.23,2.56c0,0.1,0,0.2,0,0.31c0,0.31,0,0.51,0.1,0.82
		c0,0.51-0.2,1.02-0.41,1.43c-0.82,0.2-1.64,0.2-2.46,0.31c0.72-1.23,0.72-2.97-0.2-4.2C178.28,249.14,176.23,248.42,174.28,247.91z
		"/>
	<path id="XMLID_139_" class="st45" d="M274.23,247.81c0.92-0.41,1.84,0.2,2.76,0.1c0.61-0.1,1.33-0.31,2.05-0.31
		c-0.1,0.1-0.1,0.2-0.2,0.31c0.2-0.1,0.51-0.2,0.72-0.2c0.1,0,0.2,0.1,0.31,0.1c-0.2,0.31-0.41,0.51-0.72,0.82
		c0.2,0,0.31,0.1,0.51,0.1c-0.61,0.61-1.13,1.33-1.43,2.15c0,0.1-0.1,0.2-0.1,0.31c-0.1,0.31-0.1,0.61-0.2,0.92
		c-3.17,0-6.25,0-9.42,0c0.1-1.23,0.72-2.25,1.54-3.17c0.31-0.31,0.61-0.51,0.92-0.72c0.2-0.1,0.31-0.2,0.51-0.31
		c0.41,0,0.82,0,1.23-0.1C273.2,247.71,273.72,248.01,274.23,247.81z"/>
	<path id="XMLID_136_" class="st45" d="M205.62,247.91c0.51,0,1.13,0.2,1.64-0.1c1.43,0.31,2.97,0,4.51,0c0.2,0,0.2,0.31,0.31,0.51
		c-0.1,1.23,0,2.56-0.1,3.79c-2.76,0-5.53,0-8.4,0c-0.1-0.92-0.1-1.84-0.1-2.76c0.1-0.41,0.2-0.92,0.2-1.33
		C204.39,247.91,205,247.91,205.62,247.91z"/>
	<path id="XMLID_135_" class="st46" d="M267.88,248.63c0.2-0.31,0.51-0.51,0.72-0.82c0.72,0.2,1.74-0.2,2.36,0.41
		c-0.31,0.2-0.61,0.41-0.92,0.72C269.31,248.83,268.6,248.83,267.88,248.63z"/>
	<path id="XMLID_134_" class="st47" d="M345.91,247.91c0.51,0,0.92,0,1.43,0c0,0.72-0.1,1.54,0,2.25c0.1,0.31,0.51,0.41,0.82,0.61
		c0.1,0.1,0.2,0.1,0.31,0.2c-0.2,0.1-0.41,0.2-0.61,0.31s-0.31,0.31-0.51,0.41c0.1,0.1,0.41,0.2,0.61,0.2c-0.2,0-0.41-0.1-0.61-0.1
		c-0.61-0.31-0.92-0.92-1.33-1.43C345.8,249.45,345.91,248.73,345.91,247.91z"/>
	<path id="XMLID_133_" class="st46" d="M201.32,248.01c0.61,0,1.23,0,1.84,0c0,0.61,0,1.33,0,1.95c-0.1-0.31-0.1-0.61-0.2-0.92
		c-0.51-0.1-1.13-0.1-1.64,0C201.32,248.63,201.32,248.32,201.32,248.01z"/>
	<path id="XMLID_132_" class="st48" d="M334.44,247.91c0.1,0.31,0.1,0.51,0.2,0.82c0.51,0.1,1.02,0,1.64-0.1c0,0.82,0,1.64,0,2.56
		c0,0.51,0,1.02,0,1.54c0,0.31-0.1,0.61-0.2,1.02c-0.51,0-1.02,0-1.54-0.1c0,0.2-0.1,0.31-0.1,0.51v0.1c-0.1-1.02,0-2.05,0-3.07
		C334.34,250.06,334.23,249.04,334.44,247.91z"/>
	<path id="XMLID_131_" class="st49" d="M107.32,248.52c1.02-0.2,2.15-0.31,3.17-0.31c0.61,0.41,1.23,0.92,1.64,1.64
		c0.41,0.51,0.61,1.13,0.82,1.74c0,0.1,0,0.31,0,0.41c0,0.51,0,1.02,0,1.54c-0.51,0-1.13-0.1-1.64,0.2c0.1-1.02-0.1-2.15-0.72-2.97
		C109.77,249.65,108.44,249.04,107.32,248.52z"/>
	<path id="XMLID_130_" class="st49" d="M77.82,248.52c0-0.1,0-0.2,0-0.31c0,0.31,0,0.61,0.1,0.92c0,0.51,0,1.02,0,1.43
		c0.61,0,1.13,0,1.64-0.41c0,2.15-0.1,4.2-0.1,6.35c-0.1-0.2-0.1-0.51-0.2-0.72c-0.51,0.1-1.02,0.1-1.54,0.1c0-0.61,0-1.23,0-1.84
		c0-0.31,0-0.61,0-0.92c0-0.2,0-0.31,0-0.51c0-0.2,0-0.41,0-0.61C77.72,250.88,77.72,249.75,77.82,248.52z"/>
	<path id="XMLID_129_" class="st50" d="M76.9,248.63c0.31,0,0.61,0,0.82-0.1c0,1.13,0,2.36-0.1,3.48c-1.02,0.1-2.15,0-3.17,0.1
		c-1.84,0-3.69,0-5.53,0c0-1.13,0-2.36,0-3.48C71.68,248.73,74.34,248.52,76.9,248.63z"/>
	<path id="XMLID_128_" class="st51" d="M79.26,249.04c0.1-0.2,0.2-0.41,0.31-0.61c0,0.61,0,1.23,0,1.84
		c-0.51,0.41-1.02,0.41-1.64,0.41c0-0.51,0-1.02,0-1.43C78.34,249.14,78.75,249.04,79.26,249.04z"/>
	<path id="XMLID_127_" class="st6" d="M120.42,248.52c0.51,0.1,1.13,0.2,1.64,0c1.33,1.33,2.05,3.17,1.84,5.02
		c-0.51,0.1-1.02,0.2-1.54,0.2c-0.51-0.41-0.1-1.23-0.31-1.84v0.2c-0.1-0.31-0.2-0.51-0.31-0.82c-0.31-0.72-0.72-1.33-1.23-1.84
		c-0.1-0.1-0.31-0.31-0.41-0.41C120.22,248.83,120.32,248.73,120.42,248.52z"/>
	<path id="XMLID_126_" class="st6" d="M133.94,248.52L133.94,248.52c0.41,0,0.61,0,0.92,0c0,0.2,0.1,0.41,0.1,0.61
		c0,0.1,0,0.2,0,0.2h-0.2c-0.41,0.61-0.72,1.23-1.02,1.95c0,0.1-0.1,0.31-0.1,0.31c0,0.1-0.1,0.2-0.1,0.31
		c-0.1,0.41-0.1,0.82,0,1.33c-0.31,0.41-1.02,0.31-1.43,0.41C131.89,251.8,132.71,249.96,133.94,248.52z"/>
	<path id="XMLID_125_" class="st52" d="M189.95,248.93c0.31-0.31,0.61-0.41,1.02-0.41c1.64,1.23,2.46,3.38,2.25,5.43
		c-0.41,0-0.82,0-1.13,0c0-0.61,0-1.33-0.2-1.95c-0.1-0.51-0.41-1.13-0.72-1.54c-0.2-0.41-0.51-0.72-0.72-1.02
		C190.26,249.14,190.16,249.04,189.95,248.93z"/>
	<path id="XMLID_124_" class="st6" d="M256.51,248.52L256.51,248.52c1.43,1.54,2.25,3.69,1.84,5.73c0-0.2-0.1-0.41-0.1-0.61
		c-0.51,0-1.02,0-1.54,0c0-0.51,0-1.02-0.1-1.54c-0.1-0.31-0.2-0.51-0.31-0.82c-0.2-0.41-0.41-0.82-0.72-1.23
		c-0.31-0.41-0.61-0.72-1.02-1.13C255.18,248.42,256,249.14,256.51,248.52z"/>
	<path id="XMLID_123_" class="st44" d="M279.76,248.63c0.92,0.2,1.95-0.1,2.87,0c-1.23,0.61-2.56,1.54-2.97,2.87
		c-0.41-0.1-0.82-0.1-1.33-0.1c0-0.1-0.1-0.31-0.1-0.51C278.63,249.96,279.04,249.24,279.76,248.63L279.76,248.63z"/>
	<path id="XMLID_122_" class="st53" d="M135.37,249.34c0.41-0.41,0.92-0.72,1.54-0.82c0,0.2-0.1,0.31-0.1,0.51
		c0.51,0,0.82-0.41,1.33-0.31c1.13,0,2.25-0.1,3.38,0c1.02,0.1,2.15-0.1,3.07,0.31c-0.1,0.31-0.1,0.51-0.2,0.82
		c-0.31,0.41-0.61,0.92-0.82,1.33c-0.31,0.2-0.41,0.51-0.51,0.82c-0.92,0.1-1.84,0-2.76,0c-2.05,0-4.2,0-6.25,0
		c-0.2-0.2-0.2-0.61-0.31-0.82c0.2-0.72,0.61-1.33,1.02-1.95h0.2C135.07,249.34,135.27,249.34,135.37,249.34z"/>
	<path id="XMLID_121_" class="st6" d="M266.65,254.87c-0.61-2.15-0.2-4.51,1.23-6.25c0.72,0.2,1.43,0.1,2.15,0.31
		c-0.82,0.92-1.43,1.95-1.54,3.17c0,0.1,0,0.41,0,0.61c0,0.1,0,0.31,0,0.41c0,0.41-0.1,0.82-0.1,1.23c-0.1,0.1-0.31,0.1-0.41,0.2
		c0-0.1,0-0.2,0-0.31c-0.41,0-0.82,0.1-1.13,0.1C266.75,254.46,266.65,254.77,266.65,254.87z"/>
	<path id="XMLID_120_" class="st48" d="M201.32,248.93c0.51-0.1,1.13,0,1.64,0c0.1,0.31,0.1,0.61,0.2,0.92c0,0.2,0.1,0.41,0.1,0.61
		c0,0.61,0,1.23,0,1.84c0,0.2,0,0.51,0,0.72c-0.1,0.1-0.2,0.31-0.31,0.41c-0.61,0-1.33-0.1-1.84,0.31
		C201.22,252.21,201.22,250.57,201.32,248.93z"/>
	<path id="XMLID_119_" class="st54" d="M112.33,249.14c1.23,0,2.46-0.2,3.69-0.1c1.13,0,2.15,0.2,3.28,0
		c0.41,0.2,0.92,0.41,1.33,0.31c0.51,0.51,0.92,1.23,1.23,1.84c0,0.41,0,0.82,0,1.23c-2.87,0-5.73,0-8.6,0
		c-0.1-0.31-0.2-0.72-0.41-0.92c-0.1-0.61-0.41-1.23-0.82-1.74C112.23,249.65,112.23,249.34,112.33,249.14z"/>
	<path id="XMLID_118_" class="st53" d="M181.25,249.14c1.02-0.1,2.15,0,3.17-0.1c1.33,0.2,2.66-0.1,3.89,0.1
		c0.1,0.1,0.2,0.2,0.31,0.31c0.61-0.1,1.23-0.2,1.74-0.1c0.31,0.31,0.51,0.72,0.72,1.02c0,0.61,0.2,1.13,0.41,1.64
		c-1.23,0.2-2.46,0.1-3.58,0.1c-1.13,0-2.25-0.1-3.38,0c-0.72,0-1.43,0-2.15,0c-0.1-0.92-0.61-1.84-1.23-2.56
		C181.15,249.45,181.25,249.24,181.25,249.14z"/>
	<path id="XMLID_117_" class="st51" d="M212.17,249.34c0.2-0.1,0.41-0.2,0.51-0.2s0.2,0.1,0.2,0.2c0.41-0.1,0.82-0.2,1.13-0.31
		c0,0.31,0,0.61,0,0.92c-0.1,0.31-0.2,0.51-0.41,0.82c-0.51,0.1-1.02,0-1.54,0C212.17,250.16,212.17,249.75,212.17,249.34z"/>
	<path id="XMLID_116_" class="st53" d="M246.99,249.04c1.13,0,2.36,0.1,3.48,0c0.72,0,1.43,0,2.05,0c0.51,0,1.13-0.1,1.54,0.2
		c0.51,0.31,0.92,0.72,1.43,0.82c0.31,0.41,0.51,0.82,0.72,1.23c-0.1,0.31,0,1.02-0.61,0.92c-2.56,0-5.22,0-7.78,0
		c-0.41-0.51-0.51-1.23-0.92-1.74c-0.1-0.1-0.1-0.2-0.2-0.31C246.89,249.75,246.99,249.45,246.99,249.04z"/>
	<path id="XMLID_115_" class="st5" d="M144.69,249.55c0.72,0.2,1.54-0.1,2.25,0.1c0.2,0,0.51-0.1,0.72-0.1
		c-1.02,0.82-2.05,1.84-2.25,3.17c-0.2,1.43,0.72,2.76,1.84,3.69c-0.92,0.1-1.95,0.51-2.76-0.1c-0.2-0.1-0.31-0.2-0.51-0.31
		c-0.1-0.2-0.31-0.41-0.41-0.72c-0.31-0.61-0.51-1.33-0.51-2.05c0-0.1,0.1-0.31,0.1-0.41c0.1-0.51,0.2-1.02,0.31-1.54
		c0.31-0.51,0.51-0.92,0.82-1.33C144.38,249.75,144.59,249.65,144.69,249.55z"/>
	<path id="XMLID_114_" class="st49" d="M213.61,250.68c0.2-0.2,0.31-0.51,0.41-0.82c-0.1,2.56-0.1,5.12-0.1,7.78
		c-0.1-0.41-0.2-0.72-0.2-1.13c-0.51,0.1-1.02,0.1-1.54,0.2c-0.1-1.13-0.1-2.36-0.1-3.48c0-0.2,0-0.31,0-0.51
		c0-0.72,0.1-1.33,0.1-2.05C212.68,250.68,213.09,250.68,213.61,250.68z"/>
	<path id="XMLID_113_" class="st55" d="M68.61,253.64c0.2-1.13,0-2.25,0.2-3.28c0,0.61,0,1.13,0,1.74c0,0.31,0,0.72,0.1,1.02
		c2.97,0,5.94,0,8.81,0c0,0.31,0,0.61,0,0.92c-1.13,0.1-2.15-0.1-3.28,0c-1.33,0.1-2.66,0-3.99,0c-0.41,0-0.92,0-1.33,0.2
		c-0.31,0.31-0.2,0.82-0.31,1.23c-0.61,0.1-1.23,0.2-1.84,0.2c0-0.31-0.1-0.51-0.1-0.82c0.1-0.41,0.1-0.72,0.2-1.13
		C67.48,253.85,68.2,254.16,68.61,253.64z"/>
	<path id="XMLID_112_" class="st56" d="M191.18,250.37c0.31,0.51,0.51,1.02,0.72,1.54c0,0.2,0,0.51,0,0.72
		c-1.74,0.2-3.38,0-5.12,0.1c-1.33-0.1-2.66,0.1-3.99,0c-0.1-0.1-0.2-0.31-0.31-0.41c0-0.1,0-0.2,0-0.31c0.72,0,1.43,0.1,2.15,0
		c1.13-0.1,2.25,0.1,3.38,0c1.23,0,2.46,0.1,3.58-0.1C191.39,251.49,191.18,250.98,191.18,250.37z"/>
	<path id="XMLID_111_" class="st57" d="M246.99,250.47c0.41,0.51,0.51,1.23,0.92,1.74c2.56,0.1,5.22,0,7.78,0
		c0.51,0.1,0.51-0.61,0.61-0.92c0.1,0.31,0.2,0.51,0.31,0.82c-0.1,0.31-0.1,0.51-0.2,0.82c-0.72,0.2-1.43,0.1-2.15,0.1
		c-2.25,0-4.51,0-6.76,0C247.6,252.11,247.3,251.29,246.99,250.47z"/>
	<path id="XMLID_110_" class="st58" d="M348.16,250.78c11.67,0,23.35,0,35.12,0c0.41,0,0.82,0.1,1.02,0.51c-12.08,0-24.27,0-36.35,0
		c0.2-0.1,0.41-0.2,0.61-0.31C348.36,250.88,348.26,250.78,348.16,250.78z"/>
	<path id="XMLID_109_" class="st59" d="M278.12,251.19c0-0.1,0.1-0.2,0.1-0.31c0,0.1,0.1,0.31,0.1,0.51c0.41,0,0.82,0.1,1.33,0.1
		c-0.1,0.2-0.1,0.31-0.1,0.51c-0.41-0.1-0.92-0.1-1.33-0.1C278.22,251.6,278.12,251.39,278.12,251.19z"/>
	<path id="XMLID_108_" class="st60" d="M294.6,250.98c9.01,0,17.92-0.1,26.93,0c0.82,0,1.64,0.31,2.15,0.92
		c-0.1,0.2-0.31,0.31-0.51,0.31c-8.81,0-17.61,0-26.42,0c-0.92,0-1.95,0-2.87,0c-0.2,0-0.51-0.1-0.72-0.1
		C292.97,251.29,293.89,250.88,294.6,250.98z"/>
	<path id="XMLID_107_" class="st61" d="M277.91,252.11c0-0.31,0.1-0.61,0.2-0.92c0,0.2,0.1,0.41,0.1,0.72c0.41,0,0.92,0,1.33,0.1
		c0,0.1-0.1,0.41-0.1,0.51c-0.1,0.41-0.31,0.92-0.82,1.02c-0.31-0.1-0.41-0.41-0.51-0.72c0,0-0.1-0.1-0.1-0.2
		c-0.1,0.2-0.2,0.31-0.31,0.51c-3.07,0-6.04,0-9.11,0h-0.1c0-0.1,0-0.31,0-0.41c1.23,0.1,2.46,0,3.58,0c0.92,0,1.84,0.1,2.76,0
		c0.82-0.1,1.64,0,2.56,0c0.2,0,0.41-0.2,0.51-0.31L277.91,252.11z"/>
	<path id="XMLID_106_" class="st4" d="M347.85,251.29c12.08,0,24.27,0,36.35,0c0.1,0,0.2,0.1,0.2,0.1c-0.2,0.2-0.51,0.31-0.82,0.51
		c-0.1,0.1-0.31,0.1-0.41,0.2c-0.1,0-0.2,0.1-0.41,0.2c-0.61-0.31-1.23-0.2-1.84-0.2c-6.04,0-12.08,0-18.12,0
		c-0.82,0-1.54-0.1-2.36,0.1c-2.46,0-5.02,0-7.48,0c-1.43,0-2.87,0.1-4.4-0.1c-0.2-0.1-0.41-0.1-0.61-0.2
		c-0.1-0.1-0.41-0.2-0.61-0.2C347.55,251.49,347.75,251.39,347.85,251.29z"/>
	<path id="XMLID_105_" class="st62" d="M121.86,251.29c0.1,0.31,0.2,0.51,0.31,0.82c0,0.31-0.1,0.72-0.1,1.02c-2.97,0-5.94,0-8.91,0
		c-0.1-0.41-0.2-0.82-0.31-1.23c0-0.1,0-0.31,0-0.41c0.2,0.31,0.31,0.61,0.41,0.92c2.87,0,5.73,0,8.6,0
		C121.86,252.11,121.86,251.7,121.86,251.29z"/>
	<path id="XMLID_104_" class="st63" d="M133.84,251.29c0.1,0.31,0.1,0.61,0.31,0.82c2.05,0,4.2,0,6.25,0c0.92,0,1.84,0.1,2.76,0
		c0.1-0.31,0.2-0.61,0.51-0.82c-0.1,0.51-0.31,1.02-0.31,1.54c-3.07,0-6.14,0-9.22,0c-0.1-0.31-0.2-0.72-0.2-1.13
		C133.73,251.49,133.73,251.39,133.84,251.29z"/>
	<path id="XMLID_103_" class="st64" d="M384.51,251.29c0,0.92,0.2,1.95-0.1,2.87c-0.2,0.51-0.82,0.51-1.33,0.51
		c-4.71,0-9.32-0.1-14.03,0c-6.45,0-12.9,0-19.46,0c-0.72,0-1.33,0.31-1.95,0.61c0-0.1,0.1-0.31,0.1-0.41c-0.41,0-0.92,0-1.33-0.1
		c-0.1-0.2-0.2-0.31-0.2-0.51c0.61-0.41,1.13-0.92,1.84-1.13c3.89-0.1,7.68,0,11.57,0c7.37,0,14.75,0,22.12,0
		c0.51,0,1.02,0.1,1.54,0.2c0-0.51-0.2-1.13,0.2-1.54C384,251.7,384.31,251.49,384.51,251.29z"/>
	<path id="XMLID_102_" class="st65" d="M133.53,252.01c0-0.1,0.1-0.2,0.1-0.31c0,0.41,0.1,0.72,0.2,1.13c3.07,0,6.14,0,9.22,0
		c0,0.1-0.1,0.31-0.1,0.41c-1.02,0.1-2.05,0-3.07,0c-1.95,0-3.89,0-5.94,0C133.43,253.24,133.53,252.42,133.53,252.01z"/>
	<path id="XMLID_101_" class="st66" d="M323.69,251.9c0.1,0.2,0.1,0.41,0.2,0.51c-0.92,0.1-1.84,0-2.76,0.1
		c-4.1,0.1-8.19,0-12.39,0.1c-4.61,0-9.32,0.1-13.93,0c-0.31-0.1-0.72-0.31-1.02-0.51c0.92,0,1.95,0,2.87,0c8.81,0,17.61,0,26.42,0
		C323.38,252.21,323.48,252.11,323.69,251.9z"/>
	<path id="XMLID_100_" class="st67" d="M347.34,251.8c0.2,0,0.41,0.1,0.61,0.1c0.2,0,0.41,0.1,0.61,0.2l0.1,0.2l0.1,0.1
		c4.2,0.1,8.29-0.1,12.49,0.1c6.45,0,13,0,19.46,0c0.72,0,1.54,0.1,2.25-0.31c0.1-0.1,0.2-0.1,0.41-0.2c0,0.41,0,0.82-0.1,1.13
		c-0.1-0.1-0.1-0.1-0.2-0.2c0-0.1-0.1-0.2-0.2-0.31c-2.46-0.1-4.92,0-7.37,0c-8.6,0-17.2,0-25.8,0c-1.74-0.1-3.48,0-5.22-0.1
		c-2.66,0-5.32,0-7.99,0c0-0.1-0.1-0.31-0.1-0.51c3.69,0,7.37,0,10.96,0V251.8z"/>
	<path id="XMLID_99_" class="st68" d="M383.28,252.01c0.1-0.1,0.31-0.1,0.41-0.2c-0.41,0.41-0.2,1.02-0.2,1.54
		c-0.51-0.1-1.02-0.2-1.54-0.2c-7.37,0-14.75,0-22.12,0c-3.89,0-7.68,0-11.57,0c-3.99,0.1-7.99,0-11.98,0c0-0.1-0.1-0.31-0.1-0.41
		c0.51,0.1,1.02,0.1,1.54,0.1c15.05,0,30.21,0,45.26,0c0,0.1,0.1,0.2,0.2,0.2C383.28,252.83,383.28,252.42,383.28,252.01z"/>
	<path id="XMLID_98_" class="st20" d="M74.55,252.11c1.02,0,2.15,0.1,3.17-0.1c0,0.2,0,0.41,0,0.61c-2.87,0-5.73,0-8.5,0
		c0-0.1-0.1-0.2-0.1-0.31v-0.31C70.86,252.01,72.7,252.11,74.55,252.11z"/>
	<path id="XMLID_97_" class="st69" d="M112.95,251.9c0.1,0.41,0.2,0.82,0.31,1.23c2.97,0,5.94,0,8.91,0c0-0.31,0.1-0.72,0.1-1.02
		v-0.2c0.1,0.61-0.2,1.33,0.31,1.84c0.51,0,1.02-0.1,1.54-0.2c-0.1,0.92-0.31,1.84-0.61,2.66c0-0.1-0.1-0.31-0.1-0.41
		c-0.41-0.1-0.92-0.1-1.33-0.1c0-0.1-0.1-0.31-0.1-0.41c0.1-0.31,0.31-0.72-0.1-1.02c-0.61-0.2-1.23-0.1-1.84-0.1
		c-2.05,0-3.99,0-6.04,0c-0.61,0-1.02,0.41-1.54,0.51c-0.41,0.1-0.82,0.1-1.33,0.2c0.1-0.41,0.2-0.82,0.31-1.13
		c0.51-0.2,1.13-0.2,1.64-0.2C112.95,253.03,112.95,252.52,112.95,251.9z"/>
	<path id="XMLID_96_" class="st70" d="M133.53,253.24c-0.1-0.41-0.1-0.82,0-1.33c0,0.41-0.1,1.23,0.51,1.23c1.95,0,3.89,0,5.94,0
		c1.02,0,2.05,0,3.07,0c0,0.72,0.31,1.33,0.51,2.05c-2.76-0.1-5.43,0-8.19,0c-0.41,0-0.92,0-1.33,0.1c-0.2,0.41,0.2,0.82,0.31,1.23
		c0.31,0.51,0.72,0.92,1.13,1.23c0.82,0.72,1.64,1.33,2.56,1.74c2.05,1.02,4.3,1.74,6.45,2.25c1.95,0.31,3.89,0.82,5.84,0.92
		c2.66,0.41,5.43,0.41,8.09,0.61c2.56,0,5.22,0,7.78,0c4.71-0.2,9.42-0.41,14.13-1.43c2.56-0.51,5.22-1.33,7.48-2.66
		c0.72-0.41,1.33-0.92,1.95-1.43s1.02-1.23,1.43-1.95c0.2-0.41,0.2-0.82,0.1-1.23c-2.76,0-5.53,0-8.19,0c-0.41,0-0.72,0.1-1.13,0.1
		c0.2-0.51,0.31-0.92,0.41-1.43c3.07,0,6.25,0,9.32,0c-0.1,0.72,0,1.43-0.1,2.15c0.31,0.1,0.61,0,0.92-0.1c0,0.2,0,0.41,0.1,0.61
		c-0.72,1.84-2.25,3.17-3.89,4.1c-2.87,1.64-6.04,2.36-9.22,2.97c-2.56,0.41-5.22,0.72-7.88,0.92c-1.43,0.2-2.97,0.1-4.4,0.2
		c-7.37,0.1-14.75,0.1-21.91-1.23c-2.46-0.51-5.02-1.13-7.37-2.15c-2.36-1.02-4.71-2.66-5.63-5.22c0.1-0.2,0.1-0.31,0.2-0.51
		c0.31,0,0.72-0.1,1.02-0.1C133.63,254.16,133.63,253.75,133.53,253.24z"/>
	<path id="XMLID_95_" class="st71" d="M191.9,251.9c0.2,0.61,0.2,1.33,0.2,1.95c0.41,0,0.82,0,1.13,0c-0.1,0.72-0.2,1.33-0.51,1.95
		c0-0.2,0-0.41-0.1-0.61c-0.31,0.1-0.61,0.2-0.92,0.1c0.1-0.72,0-1.43,0.1-2.15c0-0.2,0-0.31,0-0.51
		C191.9,252.42,191.9,252.21,191.9,251.9z"/>
	<path id="XMLID_94_" class="st72" d="M360.55,252.11c0.82-0.2,1.54-0.1,2.36-0.1c6.04,0,12.08,0,18.12,0c0.61,0,1.33-0.1,1.84,0.2
		c-0.61,0.41-1.43,0.31-2.25,0.31c-6.45,0-13,0-19.46,0c-4.2-0.1-8.29,0-12.49-0.1l-0.1-0.1c3.58,0.1,7.17,0,10.75,0.1
		C359.83,252.31,360.24,252.21,360.55,252.11z"/>
	<path id="XMLID_93_" class="st73" d="M68.81,252.11c0.1,0.1,0.2,0.2,0.2,0.31s0.1,0.2,0.1,0.31c2.87,0,5.73,0,8.5,0
		c0,0.2,0,0.31,0,0.51c-2.97,0-5.94,0-8.81,0C68.81,252.83,68.81,252.42,68.81,252.11z"/>
	<path id="XMLID_92_" class="st74" d="M256.61,252.11c0.1,0.51,0.1,1.02,0.1,1.54c0.51,0,1.02,0,1.54,0c0,0.2,0.1,0.41,0.1,0.61
		c-0.1,0.61-0.2,1.23-0.51,1.74c-0.1-0.2-0.1-0.31-0.2-0.51c-0.41,0-0.82,0-1.23,0c-0.1-0.2-0.1-0.41-0.2-0.61
		c-0.72-0.2-1.54-0.1-2.25-0.1c-1.84,0-3.69,0-5.63,0c-0.61,0-1.13,0.31-1.74,0.31c-0.51,0-1.02,0-1.64,0
		c0.2-0.41,0.31-0.82,0.41-1.23c0.61,0.1,1.33,0.1,1.95,0.1c0.2-0.31,0.1-0.61,0.2-0.92c2.25,0,4.51,0,6.76,0
		c0.72,0,1.43,0.1,2.15-0.1C256.51,252.62,256.51,252.31,256.61,252.11z"/>
	<path id="XMLID_91_" class="st75" d="M268.49,252.11c3.17,0,6.25,0,9.42,0v0.2c-0.2,0.1-0.31,0.41-0.51,0.31
		c-0.82,0.1-1.64,0-2.56,0c-0.92,0.1-1.84-0.1-2.76,0c-1.23,0-2.46,0-3.58,0C268.49,252.52,268.49,252.21,268.49,252.11z"/>
	<path id="XMLID_90_" class="st76" d="M293.07,252.01c0.2,0,0.51,0.1,0.72,0.1c0.31,0.2,0.72,0.31,1.02,0.51
		c-0.61,0-1.23,0.1-1.84,0.2C292.97,252.52,292.97,252.31,293.07,252.01z"/>
	<path id="XMLID_89_" class="st77" d="M348.67,252.01c1.43,0.1,2.87,0,4.4,0.1c2.46,0,5.02,0,7.48,0c-0.31,0.1-0.61,0.2-1.02,0.2
		c-3.58-0.1-7.17,0.1-10.75-0.1L348.67,252.01z"/>
	<path id="XMLID_88_" class="st73" d="M203.26,252.42c0.1,0,0.2,0,0.2,0c0,0.1,0.1,0.2,0.1,0.31c2.87,0,5.63,0,8.5,0
		c0,0.2,0,0.31,0,0.51c-2.87-0.1-5.73,0-8.6,0c0,0-0.1-0.1-0.2-0.1C203.26,252.83,203.26,252.62,203.26,252.42z"/>
	<path id="XMLID_87_" class="st65" d="M182.48,252.42c0.1,0.1,0.2,0.31,0.31,0.41c1.33,0,2.66-0.1,3.99,0
		c1.74-0.2,3.38,0.1,5.12-0.1c0,0.2,0,0.31,0,0.51c-3.07,0-6.25,0-9.32,0C182.48,252.93,182.48,252.72,182.48,252.42z"/>
	<path id="XMLID_86_" class="st78" d="M278.63,253.54c0.51-0.1,0.61-0.61,0.82-1.02c-0.31,1.54,0.41,3.07,1.64,3.99
		c1.02,0.82,2.25,1.23,3.48,1.64c-1.43-0.1-2.97,0.1-4.4-0.2l-0.1-0.1c-0.41-0.31-0.82-0.72-1.13-1.13
		c-0.31-0.51-0.61-1.02-0.82-1.54c-0.1-0.72-0.51-1.43,0-2.15C278.22,253.03,278.32,253.44,278.63,253.54z"/>
	<path id="XMLID_85_" class="st79" d="M321.13,252.62c0.92-0.1,1.84-0.1,2.76-0.1c0,0.72-0.1,1.43,0,2.15
		c-0.51,0.1-1.13,0.1-1.54-0.31c-0.1-0.51,0.2-1.13-0.31-1.43C321.74,252.72,321.43,252.62,321.13,252.62z"/>
	<path id="XMLID_84_" class="st80" d="M278.02,252.62c0,0,0.1,0.1,0.1,0.2c-0.41,0.61-0.1,1.43,0,2.15c-1.02-0.2-2.15-0.1-3.17-0.1
		c-1.54,0-2.97,0-4.51,0c-0.51,0-1.02,0-1.54,0.1c0-0.1-0.1-0.31-0.1-0.41c0,0.1-0.1,0.2-0.2,0.2c0-0.51-0.1-1.02-0.1-1.64
		c3.07,0,6.04,0,9.11,0C277.81,252.93,277.91,252.83,278.02,252.62z"/>
	<path id="XMLID_83_" class="st80" d="M292.97,252.83c0.61-0.1,1.23-0.2,1.84-0.2c0,0.1-0.1,0.31-0.1,0.31c8.81,0,17.61,0,26.32,0
		c0.31,0,0.72,0,1.02-0.31c0.41,0.31,0.2,1.02,0.31,1.43c0,0.2,0,0.41,0,0.61c-0.41-0.61-1.13-0.2-1.74-0.31
		c-0.72-0.1-1.54,0-2.25-0.1c-0.82-0.1-1.64,0.1-2.46,0.1c-0.82-0.1-1.64,0-2.46-0.1c-0.51,0-1.02,0-1.54,0.1
		c-0.1-0.1-0.2-0.2-0.31-0.2c-0.92-0.82-2.25-1.02-3.48-1.02c-4.1,0-8.19,0-12.29,0c-0.82,0-1.64,0.31-2.15,0.92
		c-0.2,0.1-0.41,0.1-0.61,0.2C292.86,253.95,292.86,253.34,292.97,252.83z"/>
	<path id="XMLID_82_" class="st81" d="M294.81,252.62c4.61,0.1,9.32,0,13.93,0c4.1-0.1,8.19,0.1,12.39-0.1c0.31,0,0.61,0.1,0.92,0.2
		c-0.31,0.31-0.61,0.31-1.02,0.31c-8.81,0-17.61,0-26.32,0C294.71,252.93,294.81,252.72,294.81,252.62z"/>
	<path id="XMLID_81_" class="st82" d="M336.18,252.72v0.1c0,0.1,0.1,0.31,0.1,0.41c0,0.51-0.1,0.92-0.1,1.43v0.2
		c-0.61,0-1.13,0-1.74-0.1c0-0.2-0.1-0.41-0.1-0.61s0.1-0.31,0.1-0.51c0.51,0.1,1.02,0.1,1.54,0.1
		C336.08,253.44,336.18,253.03,336.18,252.72z"/>
	<path id="XMLID_80_" class="st83" d="M203.26,253.13c0,0,0.1,0.1,0.2,0.1c-0.1,0.41-0.1,0.92-0.31,1.33c0,0.31-0.41,0.2-0.61,0.2
		c-0.41,0-0.92-0.1-1.33-0.1c0-0.2,0-0.51,0-0.72c0.51-0.41,1.23-0.31,1.84-0.31C203.06,253.44,203.16,253.24,203.26,253.13z"/>
	<path id="XMLID_79_" class="st84" d="M268.49,253.13h0.1c0,0.51,0.1,1.02,0.1,1.64c0,0.31,0,0.51,0,0.82
		c-0.61,0-1.33-0.41-1.84,0.2c-0.1-0.31-0.2-0.61-0.31-0.82c0-0.1,0.1-0.41,0.1-0.51c0.41,0,0.82-0.1,1.13-0.1c0,0.1,0,0.2,0,0.31
		c0.1-0.1,0.31-0.1,0.41-0.2C268.39,253.85,268.49,253.44,268.49,253.13z"/>
	<path id="XMLID_78_" class="st85" d="M133.53,253.24c0.1,0.51,0.1,0.92,0,1.43c-0.31,0-0.72,0.1-1.02,0.1
		c-0.1,0.2-0.1,0.31-0.2,0.51c-0.2-0.51-0.31-1.13-0.31-1.64C132.61,253.54,133.22,253.64,133.53,253.24z"/>
	<path id="XMLID_77_" class="st86" d="M203.47,253.13c2.87,0,5.73,0,8.6,0c0,1.13,0,2.36,0.1,3.48c0.51-0.1,1.02-0.1,1.54-0.2
		c0.1,0.31,0.2,0.72,0.2,1.13c0,0.1,0,0.31,0.1,0.41c-0.61,0.1-1.33,0.2-1.95,0c0-0.51-0.1-1.13-0.1-1.64c0-0.41-0.1-0.72-0.1-1.13
		c-2.66-0.1-5.32,0-7.99-0.1c-0.41,0-0.72,0.31-0.72,0.72c-0.1,1.64,0,3.28,0,4.92c0-0.41,0.1-0.72,0.1-1.13c0,0.51,0,1.13,0,1.64
		c0.2,0.2,0.31,0.31,0.51,0.51c0.72,0.1,1.43,0.1,2.15,0.1c6.86,0,13.72,0,20.58,0c1.95-0.1,3.79,0,5.73-0.1c1.74,0,3.38,0,5.12-0.1
		c2.46,0,4.92-0.2,7.27-0.51c2.66-0.41,5.32-0.92,7.78-1.95c0.2-0.1,0.41-0.2,0.61-0.31c0.41-0.2,0.72-0.51,1.02-0.82
		c0.51-0.41,0.92-0.92,1.33-1.43c0.31-0.51,0.51-1.13,0.61-1.64c0.1,0.2,0.1,0.41,0.2,0.61c0.41,0,0.82,0,1.23,0
		c0.1,0.2,0.1,0.31,0.2,0.51c-0.82,2.15-2.56,3.69-4.61,4.61c-3.17,1.33-6.66,1.84-10.04,2.15c-4.2,0.41-8.5,0.41-12.7,0.41
		c-8.19,0.1-16.49,0.2-24.68,0.1c-1.23-0.1-2.66,0.1-3.69-0.72c-0.51-0.31-0.82-0.92-0.82-1.64c-0.1-2.15-0.1-4.3-0.1-6.45
		c0.41,0,0.92,0.1,1.33,0.1c0.2,0,0.61,0.1,0.61-0.2C203.26,254.05,203.37,253.64,203.47,253.13z"/>
	<path id="XMLID_76_" class="st87" d="M336.28,253.24c3.99,0,7.99,0,11.98,0c-0.72,0.2-1.23,0.61-1.84,1.13
		c-1.43-0.41-3.07,0.1-4.51-0.1c-1.64,0-3.28-0.1-5.02,0c-0.31,0-0.51,0.2-0.72,0.51C336.18,254.16,336.28,253.75,336.28,253.24z"/>
	<path id="XMLID_75_" class="st88" d="M293.58,254.26c0.51-0.61,1.33-0.92,2.15-0.92c4.1,0,8.19,0,12.29,0
		c1.23,0,2.46,0.2,3.48,1.02c-0.72,0.1-1.33,0.1-2.05,0.1c-4.71,0-9.42,0-14.13,0C294.6,254.46,294.09,254.57,293.58,254.26z"/>
	<path id="XMLID_74_" class="st89" d="M69.12,254.36c0.41-0.2,0.92-0.2,1.33-0.2c1.33,0,2.66,0.1,3.99,0c1.13-0.1,2.15,0.1,3.28,0
		c0,0.61,0,1.23,0,1.84c-0.1-0.2-0.1-0.72-0.41-0.72c-2.25-0.1-4.61,0-6.86,0c-0.41,0-0.72,0-1.13,0c-0.2,0.1-0.31,0.41-0.51,0.61
		c0-0.1,0-0.31,0-0.51C68.81,255.08,68.71,254.57,69.12,254.36z"/>
	<path id="XMLID_73_" class="st90" d="M336.9,254.16c1.64-0.2,3.28,0,5.02,0c1.54,0.2,3.07-0.31,4.51,0.1
		c-0.41,0.61-0.41,1.43-0.51,2.15c-0.1-0.2-0.2-0.41-0.31-0.61c-0.82-0.1-1.64,0-2.46,0c-2.05,0-3.99,0-6.04,0
		c-0.41,0-0.72,0.2-1.02,0.41c0-0.51,0-0.92,0-1.43v-0.2C336.38,254.46,336.59,254.16,336.9,254.16z"/>
	<path id="XMLID_72_" class="st91" d="M112.23,254.67c0.51-0.1,1.02-0.51,1.54-0.51c2.05,0,3.99,0,6.04,0c0.61,0,1.23-0.1,1.84,0.1
		c0.41,0.2,0.2,0.61,0.1,1.02c-0.1,0.2-0.2,0.31-0.2,0.51c-0.41-0.1-0.72-0.1-1.13-0.1c-3.28,0-6.55,0-9.93,0.1
		c0.2-0.31,0.31-0.61,0.51-0.92C111.41,254.77,111.82,254.77,112.23,254.67z"/>
	<path id="XMLID_71_" class="st92" d="M292.97,254.46c0.2-0.1,0.41-0.1,0.61-0.2c0.51,0.31,1.13,0.2,1.64,0.2c4.71,0,9.42,0,14.13,0
		c0.72,0,1.33,0,2.05-0.1c0.1,0.1,0.2,0.1,0.31,0.2c0.31,0.51,0.51,1.02,0.61,1.54c-0.41,0.1-0.82,0.1-1.33,0.2
		c-0.2-0.51-0.51-1.02-1.13-1.13c-0.82-0.2-1.74-0.1-2.66-0.1c-4.51,0-8.91,0-13.41,0C293.48,255.18,293.07,254.87,292.97,254.46z"
		/>
	<path id="XMLID_70_" class="st93" d="M322.25,254.26c0.41,0.41,1.02,0.41,1.54,0.31c0,2.05,0.1,3.99-0.1,6.04
		c0,0.72-0.2,1.54-0.92,1.95c-0.72,0.51-1.74,0.51-2.56,0.51c-8.81,0-17.51,0-26.32,0c-3.79,0-7.58,0-11.26-0.31
		c-3.58-0.41-7.27-0.92-10.65-2.46c-2.15-0.92-4.1-2.36-5.12-4.51c0.41-0.61,1.23-0.2,1.84-0.2c0-0.31,0-0.51,0-0.82
		c0-0.1,0.1-0.2,0.2-0.2c0,0.1,0.1,0.31,0.1,0.41c0.1,0.61,0.31,1.13,0.61,1.64c0.41,0.51,0.92,1.02,1.43,1.54
		c0.61,0.51,1.33,1.02,2.15,1.23c1.23,0.41,2.56,0.92,3.89,1.13c2.15,0.41,4.3,0.82,6.55,0.72c0.41,0,0.82-0.1,1.13,0.2
		c1.64,0.2,3.28,0.1,4.92,0.1c10.55,0,20.99,0,31.54,0c0.41,0,0.92,0,1.02-0.51c0.1-0.51,0.1-0.92,0.2-1.43
		c0.2-1.54,0-3.07-0.1-4.71C322.25,254.67,322.25,254.46,322.25,254.26z"/>
	<path id="XMLID_69_" class="st94" d="M334.34,254.26v-0.1c0,0.2,0,0.41,0.1,0.61c0.61,0,1.13,0,1.74,0.1c0,0.51,0,0.92,0,1.43
		c0,0.72,0,1.43,0,2.15c0,0.92-0.1,1.84,0.1,2.66c0.1,0.61,0.82,0.51,1.33,0.61c13.82,0,27.75,0,41.57,0c2.15,0,4.4,0,6.55,0h0.2
		c0-0.41,0-0.72,0-1.13l0.2-0.1c0,0.51,0,0.92,0.1,1.43c0.1,0.31,0.41,0.51,0.61,0.72c0.2-0.82,0.2-1.74,0-2.56
		c0.1-0.1,0.2-0.1,0.31-0.2l0.1-0.1c0,0.92,0.1,1.95-0.1,2.87c-0.1,0.31-0.41,0.61-0.72,0.51c-15.87,0-31.85,0-47.72,0
		c-1.02,0-2.15,0.1-3.07-0.31c-0.92-0.41-1.02-1.43-1.13-2.36C334.23,258.46,334.23,256.41,334.34,254.26z"/>
	<path id="XMLID_68_" class="st95" d="M311.71,254.57c0.51-0.1,1.02-0.1,1.54-0.1c0.82,0.1,1.64,0,2.46,0.1s1.64-0.2,2.46-0.1
		c0.72,0.1,1.54,0,2.25,0.1c0.61,0,1.33-0.31,1.74,0.31c0.1,1.54,0.31,3.07,0.1,4.71c0-1.13,0-2.15-0.2-3.28
		c-2.66-0.1-5.32,0-7.99,0c-0.51,0-0.92-0.1-1.43,0.1c-0.31,0.51-0.2,1.13-0.31,1.64c0,0.2-0.1,0.41-0.1,0.61
		c-0.1,0.31-0.31,0.61-0.41,0.92c-1.43,0.1-2.87-0.1-4.3-0.1c-2.36,0-4.71-0.1-6.96-0.1c-0.31,0-0.72-0.1-1.02-0.2
		c2.66-0.1,5.22,0,7.88,0c1.02,0,2.05,0.1,3.07-0.1h0.1c0.51-0.1,0.92-0.1,1.43-0.2c0.31-0.31,0.31-0.92,0.31-1.43
		c0-0.41,0-0.72-0.1-1.13C312.22,255.59,312.01,255.08,311.71,254.57z"/>
	<path id="XMLID_67_" class="st96" d="M345.91,256.51c0.1-0.72,0.1-1.54,0.51-2.15c0,0.2,0.1,0.41,0.2,0.51
		c0.41,0.1,0.82,0.1,1.33,0.1c0,0.1-0.1,0.31-0.1,0.41c-0.2,0.41-0.41,0.72-0.51,1.13c-0.1,0.51,0,1.13,0,1.64
		c-0.41,0-0.92,0-1.33,0c0,0.1,0,0.41-0.1,0.51c0-0.1-0.1-0.2-0.1-0.2c0-0.1,0-0.2-0.1-0.2C345.8,257.64,345.8,257.02,345.91,256.51
		z"/>
	<path id="XMLID_66_" class="st91" d="M182.17,254.67c0.41-0.1,0.72-0.1,1.13-0.1c2.76,0,5.53,0,8.19,0c0,0.41,0.1,0.92-0.1,1.23
		c-0.1-0.1-0.2-0.2-0.31-0.31c-2.76,0-5.63,0-8.4,0c-0.72,0-1.23,0.51-1.84,0.51c-0.72,0-1.33,0-2.05,0.1
		c0.41-0.31,0.72-0.72,1.02-1.13C180.53,254.87,181.35,254.87,182.17,254.67z"/>
	<path id="XMLID_65_" class="st97" d="M246.68,255.08c0.61,0,1.13-0.31,1.74-0.31c1.84,0,3.69,0,5.63,0c0.72,0,1.54-0.1,2.25,0.1
		c-0.1,0.61-0.31,1.13-0.61,1.64c-0.1-0.2-0.2-0.41-0.2-0.51c-1.13,0.1-2.25,0.2-3.28,0.1c-1.74,0-3.48-0.1-5.22,0.1
		c-0.72-0.41-1.54-0.2-2.36-0.31c0.2-0.2,0.41-0.51,0.51-0.82C245.56,255.08,246.07,255.08,246.68,255.08z"/>
	<path id="XMLID_64_" class="st98" d="M269,254.98c0.51-0.1,1.02-0.1,1.54-0.1c1.54,0,2.97,0,4.51,0c1.02,0,2.15-0.1,3.17,0.1
		c0.2,0.51,0.51,1.02,0.82,1.54c-0.72-0.2-1.43-0.1-2.15-0.1c-1.54,0-3.07,0-4.61,0c-0.92,0-1.74-0.1-2.66,0.1
		C269.31,256.1,269,255.49,269,254.98z"/>
	<path id="XMLID_63_" class="st93" d="M66.76,255.08v-0.2c0,0.31,0.1,0.51,0.1,0.82c0.61,0,1.23-0.1,1.84-0.2c0,0.1,0,0.31,0,0.51
		c0,0.41,0,0.72,0,1.13c0,1.23,0,2.56,0.1,3.79c0,0.31,0,0.61,0.41,0.82c0.31,0.1,0.72,0.1,1.02,0.1c3.28,0.1,6.66,0,10.04,0.1
		c4.71,0,9.32,0,14.03-0.1c1.02,0,2.05,0,3.07,0c3.28,0,6.55,0,9.83-0.31c3.58-0.31,7.27-0.72,10.55-2.15
		c0.82-0.31,1.43-0.72,2.15-1.23s1.23-1.33,1.64-2.15c0.1-0.2,0.2-0.31,0.2-0.51c0,0.1,0.1,0.31,0.1,0.41c0.41,0,0.92,0.1,1.33,0.1
		c0,0.1,0.1,0.31,0.1,0.41c-0.51,1.13-1.23,2.05-2.15,2.87c-1.54,1.33-3.38,1.95-5.32,2.46c-4.3,1.13-8.81,1.43-13.31,1.54
		c-3.48,0.1-6.86,0-10.34,0.1c-7.27,0-14.54,0.1-21.81,0c-0.92,0-1.95-0.1-2.66-0.61c-0.51-0.31-0.82-1.02-0.82-1.64
		c0-1.13,0-2.25-0.1-3.38C66.76,256.82,66.66,256,66.76,255.08z"/>
	<path id="XMLID_62_" class="st99" d="M203.26,255.8c0-0.41,0.31-0.72,0.72-0.72c2.66,0.1,5.32,0,7.99,0.1c0,0.41,0.1,0.72,0.1,1.13
		c-1.33,0-2.56,0-3.89,0c-1.33,0-2.66-0.1-3.99,0c-0.2,0-0.51,0-0.61,0.31c-0.31,0.72-0.1,1.43-0.1,2.15c0,0.31,0,0.61,0,0.82
		c0,0.41-0.1,0.72-0.1,1.13C203.26,259.07,203.16,257.43,203.26,255.8z"/>
	<path id="XMLID_61_" class="st100" d="M134.14,255.28c0.41-0.2,0.92-0.1,1.33-0.1c2.66,0,5.43,0,8.19,0c0.1,0.2,0.2,0.41,0.41,0.72
		c0.1,0.2,0.2,0.31,0.2,0.51c-0.51-0.1-1.02-0.2-1.54-0.2c-1.74,0-3.58,0-5.32,0c-0.92,0-1.84,0-2.76-0.1c0,0.1-0.1,0.31-0.1,0.41
		C134.35,256.1,133.94,255.69,134.14,255.28z"/>
	<path id="XMLID_59_" class="st101" d="M68.81,256c0.1-0.2,0.31-0.51,0.51-0.61c0.41-0.1,0.72,0,1.13,0c2.25,0,4.61,0,6.86,0
		c0.41,0,0.31,0.41,0.41,0.72c0,0.31,0,0.61,0,0.92c-0.1-0.2-0.1-0.41-0.2-0.61c-1.13-0.1-2.25-0.1-3.48-0.1c-1.64,0-3.28,0-4.92,0
		c-0.1,0.31-0.2,0.51-0.31,0.82C68.81,256.72,68.81,256.31,68.81,256z"/>
	<path id="XMLID_58_" class="st102" d="M180.74,256c0.72,0,1.23-0.51,1.84-0.51c2.76,0,5.63,0,8.4,0c0.1,0.1,0.2,0.2,0.31,0.31
		c-0.41,0.72-0.82,1.43-1.43,1.95c0.1-0.31,0.2-0.51,0.31-0.82c-1.23-0.1-2.56,0-3.79-0.1c-1.84,0.1-3.69,0.1-5.53,0
		c-1.13-0.2-2.25,0.1-3.38,0c0.41-0.2,0.82-0.51,1.23-0.82C179.4,256,180.02,256,180.74,256z"/>
	<path id="XMLID_57_" class="st103" d="M110.49,255.69c3.28-0.1,6.55-0.1,9.93-0.1c0.41,0,0.82,0.1,1.13,0.1
		c-0.41,0.82-0.92,1.64-1.64,2.15c0-0.2,0-0.41,0-0.61c-2.76-0.1-5.53,0-8.4,0c0.1-0.31,0.2-0.51,0.41-0.82c-0.72,0-1.43,0-2.05,0
		C110.08,256.31,110.28,256,110.49,255.69z"/>
	<path id="XMLID_56_" class="st104" d="M77.72,256c0.51,0,1.02,0,1.54-0.1c0.1,0.2,0.1,0.51,0.2,0.72c0,0.41,0,0.72,0.1,1.13
		c-0.61-0.1-1.23-0.1-1.84,0v-0.31c0-0.2,0-0.41,0-0.61C77.72,256.61,77.72,256.31,77.72,256z"/>
	<path id="XMLID_55_" class="st105" d="M144.08,255.8c0.2,0.1,0.31,0.2,0.51,0.31c0.82,0.61,1.84,0.2,2.76,0.1
		c1.13,0.82,2.36,1.23,3.69,1.64c-1.23,0.31-2.36,0.1-3.58,0.2c0.31,0.2,0.51,0.41,0.82,0.61c-0.1,0-0.31,0-0.41,0
		c-0.1,0-0.2-0.1-0.2-0.1c-0.51-0.31-0.92-0.51-1.43-0.72c-0.72-0.51-1.43-1.02-1.95-1.74C144.18,256.1,144.08,256,144.08,255.8z"/>
	<path id="XMLID_54_" class="st106" d="M337.1,255.9c2.05,0,3.99,0.1,6.04,0c0.82,0,1.64-0.1,2.46,0c0.1,0.2,0.2,0.41,0.31,0.61
		c-0.1,0.61-0.1,1.13-0.1,1.74c-0.1-0.31-0.1-0.51-0.2-0.82c-2.05-0.1-4.1,0-6.14,0c-1.02,0-2.05-0.1-3.07,0.1
		c-0.2,0.31-0.2,0.61-0.31,0.92c0-0.72,0-1.43,0-2.15C336.49,256.1,336.79,255.9,337.1,255.9z"/>
	<path id="XMLID_53_" class="st106" d="M134.66,256c0.92,0,1.84,0.1,2.76,0.1c1.74-0.1,3.58,0,5.32,0c0.51,0,1.02,0.1,1.54,0.2
		c0.51,0.72,1.23,1.23,1.95,1.74c-0.72-0.1-1.33-0.82-2.15-0.72c-2.76,0-5.63,0-8.4,0c0,0.1-0.1,0.31-0.1,0.41
		c-0.41-0.41-0.82-0.82-1.13-1.23C134.55,256.31,134.55,256.1,134.66,256z"/>
	<path id="XMLID_52_" class="st106" d="M243.4,256.82c0.41-0.31,0.72-0.61,1.13-0.92c0.82,0.1,1.64-0.1,2.36,0.31
		c1.74-0.1,3.48-0.1,5.22-0.1c1.13,0.1,2.25,0,3.28-0.1c0.1,0.2,0.2,0.41,0.2,0.51c-0.41,0.51-0.82,1.02-1.33,1.43
		c0.2-0.31,0.31-0.61,0.51-0.92c-2.97,0-5.94,0-8.81,0c0-0.1,0.1-0.31,0.1-0.41C245.15,256.61,244.33,256.82,243.4,256.82z"/>
	<path id="XMLID_51_" class="st107" d="M204.08,256.31c1.33-0.1,2.66,0,3.99,0c1.33,0,2.56,0,3.89,0c0,0.51,0.1,1.13,0.1,1.64
		c-0.1-0.1-0.2-0.31-0.31-0.41c-1.95,0-3.89,0-5.94,0c-0.82,0-1.54,0.1-2.36,0.2c0,0.2-0.1,0.51-0.1,0.72c0,0.1,0,0.2,0,0.31
		c0-0.72-0.1-1.43,0.1-2.15C203.57,256.31,203.88,256.31,204.08,256.31z"/>
	<path id="XMLID_50_" class="st86" d="M312.32,256.2c0,0.41,0.1,0.72,0.1,1.13c-0.41,0-0.92-0.1-1.33-0.1c0-0.31,0-0.51,0-0.82
		C311.5,256.31,311.91,256.2,312.32,256.2z"/>
	<path id="XMLID_49_" class="st108" d="M69.22,256.31c1.64-0.1,3.28,0,4.92,0c1.13,0,2.36-0.1,3.48,0.1c0.1,0.2,0.1,0.41,0.2,0.61
		c0,0.2,0,0.41,0,0.61c-0.2-0.1-0.41-0.31-0.61-0.31c-1.33-0.1-2.76,0-4.1,0c-1.23-0.1-2.56,0.1-3.79,0
		c-0.41,1.23-0.2,2.46-0.2,3.69c-0.1-1.23-0.1-2.56-0.1-3.79C68.92,256.82,69.02,256.61,69.22,256.31z"/>
	<path id="XMLID_48_" class="st81" d="M276.89,256.41c0.72,0,1.43-0.1,2.15,0.1c0.31,0.41,0.72,0.82,1.13,1.13
		c-1.74-0.31-3.38,0-5.12-0.1c-1.23,0-2.36,0-3.58-0.1c-0.31,0-0.31,0.31-0.41,0.51c-0.51-0.41-1.02-0.92-1.43-1.54
		c0.82-0.2,1.74-0.1,2.66-0.1C273.82,256.41,275.35,256.41,276.89,256.41z"/>
	<path id="XMLID_47_" class="st109" d="M312.73,256.31c0.41-0.1,0.92-0.1,1.43-0.1c2.66,0,5.32,0,7.99,0c0.2,1.02,0.2,2.15,0.2,3.28
		c0,0.51-0.1,0.92-0.2,1.43c0-0.82,0-1.74,0-2.56c0-0.31,0-0.51-0.1-0.82c-0.51-0.1-1.13-0.1-1.74-0.1c-1.84,0-3.58,0-5.43,0
		c-0.82,0-1.84-0.2-2.46,0.51C312.63,257.43,312.42,256.82,312.73,256.31z"/>
	<path id="XMLID_46_" class="st110" d="M109.77,256.51c0.72,0,1.43,0,2.05,0c-0.1,0.31-0.2,0.51-0.41,0.82c2.76,0,5.53,0,8.4,0
		c0,0.2,0,0.41,0,0.61c-0.61,0.51-1.33,1.02-2.15,1.23c0-0.1-0.1-0.41-0.1-0.51c-1.95,0-3.89,0.1-5.84,0c-0.72,0-1.43,0.1-2.05-0.2
		c0.41-0.2,0.72-0.41,1.02-0.72c0.2-0.2,0.31-0.41,0.41-0.61c-0.82,0.1-1.74,0.2-2.56,0.1
		C109.06,257.02,109.47,256.82,109.77,256.51z"/>
	<path id="XMLID_45_" class="st111" d="M177.46,256.92c1.13,0.1,2.25-0.2,3.38,0c1.84,0.1,3.69,0.1,5.53,0c1.23,0.1,2.56,0,3.79,0.1
		c-0.1,0.31-0.2,0.51-0.31,0.82c-0.61,0.51-1.23,1.02-1.95,1.43c0.2-0.2,0.41-0.41,0.41-0.72c-0.82-0.2-1.64-0.1-2.46-0.1
		c-1.23,0-2.56,0-3.79,0c-1.23,0-2.46-0.1-3.58,0.31v-0.2c0.41-0.31,0.72-0.51,1.13-0.82c-1.23,0-2.56,0.2-3.79,0.1
		C176.44,257.33,176.95,257.13,177.46,256.92z"/>
	<path id="XMLID_44_" class="st112" d="M243.4,256.82c0.82,0,1.74-0.2,2.56-0.2c0,0.1-0.1,0.31-0.1,0.41c-0.1,0.1-0.2,0.2-0.2,0.2
		c-1.02-0.1-2.05,0-3.07,0C242.89,257.23,243.2,257.02,243.4,256.82z"/>
	<path id="XMLID_43_" class="st113" d="M245.96,257.13c2.97,0,5.94,0,8.81,0c-0.2,0.31-0.31,0.61-0.51,0.92
		c-0.31,0.31-0.72,0.61-1.02,0.82c0.2-0.2,0.31-0.41,0.41-0.72c-0.72-0.2-1.43-0.1-2.15-0.1c-1.02,0-2.15,0-3.17,0
		c-1.02,0-2.15,0.2-3.07-0.2c0.2-0.2,0.31-0.31,0.51-0.51C245.76,257.23,245.86,257.23,245.96,257.13z"/>
	<path id="XMLID_42_" class="st114" d="M311.09,257.13c0.41,0.1,0.82,0.1,1.33,0.1c0,0.51,0,1.02-0.31,1.43
		c-0.51,0.1-0.92,0.1-1.43,0.2C310.99,258.36,311.09,257.74,311.09,257.13z"/>
	<path id="XMLID_41_" class="st111" d="M69.12,257.23c1.23,0,2.56-0.1,3.79,0c1.33,0,2.76-0.1,4.1,0c0.2,0,0.41,0.1,0.61,0.31v0.31
		c0,0.1,0,0.2,0,0.31v0.1c-0.41-0.1-0.82-0.1-1.33-0.1c-2.46,0.1-4.81-0.1-7.27,0c0,0.2,0,0.51-0.1,0.72c0,0.82-0.1,1.74,0.1,2.56
		c0.31,0.31,0.72,0.41,1.13,0.51c-0.31,0-0.72,0-1.02-0.1c-0.31-0.1-0.31-0.51-0.41-0.82C69.02,259.69,68.81,258.46,69.12,257.23z"
		/>
	<path id="XMLID_40_" class="st115" d="M108.65,257.33c0.82,0,1.74,0,2.56-0.1c-0.1,0.2-0.31,0.41-0.41,0.61
		c-1.02-0.31-2.05,0.1-3.07,0C108.03,257.64,108.34,257.43,108.65,257.33z"/>
	<path id="XMLID_39_" class="st116" d="M135.78,257.23c2.76,0,5.63,0,8.4,0c0.82-0.1,1.33,0.61,2.15,0.72
		c0.51,0.2,0.92,0.51,1.43,0.72c-1.13,0-2.25-0.2-3.38-0.1c-2.15,0-4.2-0.1-6.35,0.1c0.1,0.2,0.2,0.51,0.2,0.72
		c-0.92-0.51-1.84-1.13-2.56-1.74C135.68,257.64,135.68,257.43,135.78,257.23z"/>
	<path id="XMLID_38_" class="st117" d="M242.59,257.33c1.02,0,2.05-0.2,3.07,0c-0.2,0.2-0.31,0.31-0.51,0.51h-0.1
		c-1.13-0.31-2.25,0.2-3.38-0.1C242.07,257.64,242.28,257.54,242.59,257.33z"/>
	<path id="XMLID_37_" class="st118" d="M336.49,257.43c1.02-0.2,2.05-0.1,3.07-0.1c2.05,0.1,4.1-0.1,6.14,0
		c0.1,0.31,0.1,0.51,0.2,0.82c0,0.1,0,0.2,0.1,0.2c-2.05-0.2-4.1,0-6.14-0.1c-1.13,0.1-2.25,0-3.38,0.1c0,0.82-0.2,1.64,0.1,2.46
		c0.2,0.51,0.72,0.61,1.23,0.51c14.64,0,29.29,0,43.93,0c1.33,0,2.66-0.1,3.99,0.1v0.2c-2.15-0.1-4.4,0-6.55,0
		c-13.82,0-27.75,0-41.57,0c-0.51,0-1.13,0-1.33-0.61c-0.2-0.92-0.1-1.74-0.1-2.66C336.28,258.05,336.38,257.74,336.49,257.43z"/>
	<path id="XMLID_36_" class="st119" d="M271.05,258.05c0.1-0.2,0.1-0.61,0.41-0.51c1.23,0.1,2.36,0.1,3.58,0.1
		c1.74,0.1,3.38-0.2,5.12,0.1l0.1,0.1c0.51,0.41,1.13,0.72,1.64,1.02c-1.84-0.1-3.69,0-5.43,0c-1.13,0-2.15,0-3.28,0
		c0,0.1,0,0.41,0.1,0.51C272.38,258.97,271.67,258.56,271.05,258.05z"/>
	<path id="XMLID_35_" class="st120" d="M312.52,257.95c0.61-0.72,1.64-0.41,2.46-0.51c1.84,0,3.58,0,5.43,0
		c0.61,0,1.13-0.1,1.74,0.1c0.1,0.2,0.1,0.51,0.1,0.82c-3.07,0-6.14,0.1-9.22,0c-0.2,0.1-0.41,0.2-0.61,0.31
		C312.42,258.36,312.42,258.15,312.52,257.95z"/>
	<path id="XMLID_34_" class="st121" d="M175.82,257.64c1.23,0.1,2.56,0,3.79-0.1c-0.31,0.31-0.72,0.51-1.13,0.82h-0.1
		c-1.74-0.31-3.58,0.2-5.32,0C174.08,258.15,175,257.95,175.82,257.64z"/>
	<path id="XMLID_33_" class="st116" d="M203.57,257.74c0.82-0.1,1.54-0.2,2.36-0.2c1.95,0,3.89,0,5.94,0c0.1,0.1,0.2,0.31,0.31,0.41
		c0,0.1,0,0.31,0,0.41c-2.87,0-5.73-0.1-8.6,0.1C203.47,258.15,203.47,257.95,203.57,257.74z"/>
	<path id="XMLID_32_" class="st122" d="M77.72,257.74c0.61,0,1.23-0.1,1.84,0c0,0.2,0.1,0.41,0.1,0.51c-0.61,0-1.43,0.31-1.95-0.31
		C77.72,257.95,77.72,257.84,77.72,257.74z"/>
	<path id="XMLID_31_" class="st123" d="M107.72,257.74c1.02,0.1,2.05-0.31,3.07,0c-0.31,0.2-0.72,0.51-1.02,0.72
		c-2.05,1.13-4.3,1.54-6.55,1.95c-1.95,0.2-3.99,0.41-5.94,0.41c-5.32,0-10.65,0.1-15.97,0c-0.72,0-1.43-0.2-2.05-0.41
		c0.72-0.51,1.54-0.31,2.25-0.41c2.05-0.2,4.2-0.2,6.25-0.61c3.38,0,6.76,0,10.14,0C101.27,259.17,104.65,259.07,107.72,257.74z"/>
	<path id="XMLID_30_" class="st123" d="M241.77,257.74c1.13,0.31,2.25-0.31,3.38,0.1c-0.41,0.31-0.82,0.61-1.23,0.82
		c-2.36,1.13-5.02,1.64-7.68,1.84c-1.74,0.2-3.48,0.2-5.22,0.2c-4.4,0-8.7,0.1-13.11,0c-1.33,0-2.76,0.1-4.1-0.41
		c0.2-0.1,0.51-0.31,0.82-0.31c3.07-0.2,6.04-0.41,9.11-0.72c0.2,0,0.41-0.1,0.61-0.1c3.69-0.1,7.27,0.1,10.96-0.2
		C237.36,258.87,239.62,258.56,241.77,257.74z"/>
	<path id="XMLID_29_" class="st124" d="M280.17,257.74c1.43,0.31,2.97,0.1,4.4,0.2c1.43,0.31,2.76,0.51,4.2,0.72
		c0.31,0.1,0.51-0.1,0.72-0.2c0.82,0,1.64,0,2.36,0.1v0.1c-0.82,0-1.64,0-2.46,0c0.1,0.1,0.31,0.2,0.41,0.31
		c-0.72,0.1-1.54,0-2.25,0c-1.84,0-3.79,0-5.63-0.1c-0.1,0-0.2-0.1-0.2-0.1C281.29,258.46,280.68,258.15,280.17,257.74z"/>
	<path id="XMLID_28_" class="st125" d="M212.07,257.95c0.61,0.2,1.33,0.1,1.95,0c0.1,0.61,0.61,0.92,1.13,1.13
		c-0.82-0.1-1.64,0.2-2.56,0.1c-0.31-0.2-0.41-0.51-0.61-0.82C212.07,258.25,212.07,258.05,212.07,257.95z"/>
	<path id="XMLID_27_" class="st126" d="M243.81,258.66c0.41-0.2,0.82-0.51,1.23-0.82h0.1c1.02,0.41,2.05,0.2,3.07,0.2s2.15,0,3.17,0
		c0.72,0,1.43-0.1,2.15,0.1c0,0.31-0.2,0.51-0.41,0.72c-0.2,0.1-0.41,0.2-0.61,0.31c0-0.1-0.1-0.2-0.1-0.31c-2.15-0.1-4.4,0-6.55,0
		C245.15,258.76,244.43,258.97,243.81,258.66z"/>
	<path id="XMLID_26_" class="st126" d="M69.12,258.05c2.46-0.1,4.81,0,7.27,0c0.41,0,0.82,0,1.33,0.1c0.1,0.31,0.1,0.61,0.2,0.92
		l0.1,0.2c-0.31-0.2-0.61-0.41-0.92-0.41c-2.66,0-5.32,0-7.99,0C69.12,258.56,69.12,258.25,69.12,258.05z"/>
	<path id="XMLID_25_" class="st127" d="M77.72,258.05c0.51,0.61,1.33,0.31,1.95,0.31c0.1,0.2,0.31,0.41,0.51,0.61
		c-0.72,0-1.43,0-2.15,0.1C77.82,258.76,77.82,258.46,77.72,258.05L77.72,258.05z"/>
	<path id="XMLID_24_" class="st128" d="M147.46,258.15c1.23-0.1,2.46,0,3.58-0.2c0.82,0.2,1.74,0.41,2.56,0.61
		c-1.43,0.31-2.87,0.1-4.2,0.51c0.51,0.2,1.13,0.41,1.64,0.51c0.51,0.1,1.02,0.31,1.64,0.41c4.1,0.72,8.19,0.92,12.39,0.82
		c2.97-0.1,5.94-0.31,8.81-0.92c1.64-0.31,3.17-0.82,4.71-1.54h0.1v0.2c-0.92,0.41-1.84,0.72-2.76,1.02
		c-0.72,0.31-1.54,0.31-2.25,0.51c-1.33,0.31-2.76,0.51-4.2,0.61c-1.43,0.31-2.87,0.1-4.3,0.2c-1.95,0.1-3.89,0.1-5.84-0.1
		c-1.64,0.1-3.28-0.31-4.92-0.41c-1.74-0.31-3.38-0.72-5.02-1.13c-0.51-0.1-0.92-0.31-1.33-0.51c0.1,0,0.31,0,0.41,0
		C147.97,258.56,147.66,258.36,147.46,258.15z"/>
	<path id="XMLID_23_" class="st123" d="M173.16,258.36c1.74,0.2,3.58-0.41,5.32,0c-1.43,0.72-3.07,1.13-4.71,1.54
		c-2.87,0.61-5.84,0.82-8.81,0.92c-4.1,0.1-8.29-0.1-12.39-0.82c0.72-0.41,1.54-0.2,2.36-0.31c1.02-0.1,1.95-0.1,2.97-0.2
		c0.82-0.1,1.54,0,2.36-0.2C164.56,259.28,168.96,259.28,173.16,258.36z"/>
	<path id="XMLID_22_" class="st129" d="M178.59,258.56c1.13-0.41,2.36-0.31,3.58-0.31c1.23,0,2.56,0,3.79,0
		c0.82,0,1.64-0.1,2.46,0.1c-0.1,0.31-0.31,0.51-0.41,0.72c-2.36,1.33-4.92,2.15-7.48,2.66c-4.61,1.02-9.42,1.23-14.13,1.43
		c-2.56,0-5.22,0-7.78,0c-2.66-0.2-5.43-0.2-8.09-0.61c-1.95-0.1-3.89-0.61-5.84-0.92c-2.25-0.51-4.4-1.23-6.45-2.25
		c-0.1-0.2-0.2-0.51-0.2-0.72c2.05-0.31,4.2-0.1,6.35-0.1c1.13,0,2.25,0.2,3.38,0.1c0.1,0,0.2,0.1,0.2,0.1
		c0.41,0.2,0.92,0.41,1.33,0.51c1.64,0.51,3.38,0.92,5.02,1.13c1.64,0.1,3.28,0.41,4.92,0.41c1.95,0.1,3.89,0.1,5.84,0.1
		c1.43-0.1,2.87,0,4.3-0.2c1.43-0.1,2.76-0.31,4.2-0.61c0.72-0.2,1.54-0.2,2.25-0.51C176.74,259.28,177.66,258.97,178.59,258.56z"/>
	<path id="XMLID_21_" class="st130" d="M312.93,258.36c3.07,0.1,6.14,0.1,9.22,0c0,0.82,0,1.74,0,2.56c0,0.51-0.61,0.61-1.02,0.51
		c-10.55,0-20.99,0-31.54,0c-1.64,0-3.28,0.1-4.92-0.1c-0.31-0.31-0.72-0.2-1.13-0.2c-2.25,0.1-4.4-0.31-6.55-0.72
		c-1.33-0.2-2.56-0.72-3.89-1.13c0-0.1,0-0.41-0.1-0.51c1.13-0.1,2.15,0,3.28,0c1.84,0,3.69-0.1,5.43,0c0.1,0,0.2,0.1,0.2,0.1
		c0.51,0.2,1.02,0.72,1.74,0.61c1.33-0.2,2.56-0.1,3.89-0.1c1.13,0,2.25,0,3.38,0.2l0.2,0.31c-1.95,0.1-3.89-0.31-5.73,0
		c1.84,0.51,3.79,0.51,5.63,0.61c3.58,0.2,7.27,0.1,10.85,0.1c2.36,0,4.81,0,7.17,0c0.51,0,1.02-0.1,1.54-0.2c0.1,0,0.2,0,0.41,0
		c0.41-0.2,0.61-0.51,0.82-0.82s0.31-0.61,0.41-0.92C312.52,258.56,312.73,258.36,312.93,258.36z"/>
	<path id="XMLID_20_" class="st129" d="M336.38,258.46c1.13,0,2.25,0,3.38-0.1c2.05,0.1,4.1-0.1,6.14,0.1c0,0.1,0.1,0.2,0.1,0.2
		c0.1,0.41,0.41,1.13,1.02,1.02c13.31,0,26.73,0,40.04,0h0.1v0.2c-13.41,0-26.83,0-40.24,0c0.82,0.61,1.74,0.61,2.76,0.61
		c2.76,0,5.53,0,8.29,0.1c3.79,0,7.58,0,11.26,0c5.53,0,11.06,0.1,16.59,0c0,0.31,0,0.51,0,0.82c-1.33-0.1-2.66,0-3.99-0.1
		c-14.64,0-29.29,0-43.93,0c-0.51,0-1.02-0.1-1.23-0.51C336.18,260.1,336.38,259.17,336.38,258.46z"/>
	<path id="XMLID_19_" class="st46" d="M346.01,258.15c0.41,0,0.92,0,1.33,0c0.2,0.82,1.13,0.82,1.84,0.92c4.61,0,9.11,0,13.72,0
		c4.1,0.1,8.19,0,12.29,0.1c3.58,0,7.27,0,10.85,0c0.41,0,0.82,0.1,1.02,0.51c-13.31,0-26.73,0-40.04,0
		c-0.61,0.1-0.82-0.51-1.02-1.02C345.91,258.56,346.01,258.25,346.01,258.15z"/>
	<path id="XMLID_18_" class="st130" d="M203.37,258.46c2.87-0.1,5.73,0,8.6-0.1c0.2,0.31,0.31,0.61,0.61,0.82
		c0.82,0,1.64-0.2,2.56-0.1c1.13,0.2,2.25,0.1,3.38,0.1c-0.41,0.1-0.92,0.2-1.33,0.31c-1.43,0.1-2.76,0.1-4.2,0.41
		c0.2,0.2,0.41,0.41,0.72,0.51c1.33,0.51,2.76,0.41,4.1,0.41c4.4,0.1,8.7,0,13.11,0c1.74,0,3.48,0,5.22-0.2
		c2.66-0.2,5.32-0.72,7.68-1.84c0.61,0.31,1.33,0.1,2.05,0.1c2.15,0,4.4,0,6.55,0c0,0.1,0.1,0.2,0.1,0.31
		c-2.46,1.02-5.12,1.64-7.78,1.95c-2.46,0.31-4.92,0.51-7.27,0.51c-1.74,0.2-3.38,0.1-5.12,0.1c-1.95,0.1-3.79,0-5.73,0.1
		c-6.86,0-13.72,0.1-20.58,0c-0.72,0-1.43-0.1-2.15-0.1c-0.2-0.2-0.31-0.31-0.51-0.51c0-0.51,0-1.13,0-1.64c0-0.31,0-0.61,0-0.82
		C203.37,258.66,203.37,258.46,203.37,258.46z"/>
	<path id="XMLID_17_" class="st130" d="M103.22,260.4c2.25-0.31,4.51-0.82,6.55-1.95c0.61,0.31,1.33,0.2,2.05,0.2
		c1.95,0.1,3.89,0,5.84,0c0,0.1,0.1,0.41,0.1,0.51c-3.38,1.43-6.96,1.84-10.55,2.15c-2.56-0.1-5.12,0-7.68,0
		c-0.72,0-1.54-0.1-2.15,0.41c-1.02,0-2.05,0-3.07,0c-4.71,0.1-9.32,0.1-14.03,0.1c-3.38,0-6.66,0-10.04-0.1
		c-0.41-0.1-0.82-0.31-1.13-0.51c-0.2-0.82-0.1-1.64-0.1-2.56c2.66,0,5.32,0,7.99,0c0.41,0,0.72,0.1,0.92,0.41
		c0.1,0.1,0.31,0.31,0.51,0.2c0.72,0,1.54-0.1,2.25-0.2c0.41,0.1,0.82,0.1,1.13,0.1c-1.02,0.51-2.25,0.2-3.28,0.51
		c0.2,0.2,0.41,0.41,0.72,0.51c0.61,0.31,1.33,0.41,2.05,0.41c5.32,0.1,10.65,0,15.97,0C99.33,260.81,101.27,260.61,103.22,260.4z"
		/>
	<path id="XMLID_16_" class="st131" d="M292.04,258.56c0.2-0.1,0.51,0,0.82,0c0.51,0.1,1.13,0.1,1.64,0.1c-0.72,0-1.54,0-2.25,0
		c0,0.1,0,0.2,0,0.31c2.46,0,4.92,0,7.37,0c0.31,0.1,0.72,0.2,1.02,0.2c2.36,0,4.71,0.1,6.96,0.1c1.43,0,2.87,0.2,4.3,0.1
		c-0.2,0.31-0.41,0.72-0.82,0.82c0-0.1,0.1-0.31,0.1-0.41c-2.15-0.1-4.2,0-6.35-0.1c-1.64,0-3.17-0.2-4.81-0.1
		c-2.05,0-3.99,0-6.04-0.1c-1.02,0-1.95,0-2.97,0c-1.13-0.2-2.25-0.2-3.38-0.2c-1.33,0-2.66-0.1-3.89,0.1
		c-0.61,0.1-1.13-0.41-1.74-0.61c1.84,0.1,3.79,0.1,5.63,0.1c0.72,0,1.54,0.1,2.25,0c0.61,0,1.23,0,1.95,0
		C291.94,258.87,291.94,258.66,292.04,258.56L292.04,258.56z"/>
	<path id="XMLID_15_" class="st132" d="M149.3,259.07c1.43-0.31,2.87-0.1,4.2-0.51c1.23,0.2,2.46,0.31,3.69,0.51
		c-1.54,0.1-3.07,0.2-4.71,0.31c-0.51,0-1.02,0.1-1.54,0.31C150.43,259.48,149.91,259.28,149.3,259.07z"/>
	<path id="XMLID_14_" class="st133" d="M289.59,258.66c0.82,0,1.64,0,2.46,0c0,0.1-0.1,0.2-0.1,0.31c-0.61,0-1.23,0-1.95,0
		C289.89,258.87,289.69,258.66,289.59,258.66z"/>
	<path id="XMLID_13_" class="st134" d="M294.5,258.76c4.3,0,8.7,0,13,0c0.92,0,1.74,0,2.66,0c0.1,0,0.31,0.1,0.41,0.2
		c-1.02,0.31-2.05,0.1-3.07,0.1c-2.66,0-5.22-0.1-7.88,0c-2.46,0-4.92,0-7.37,0c0-0.1,0-0.2,0-0.31
		C292.97,258.76,293.68,258.76,294.5,258.76z"/>
	<path id="XMLID_12_" class="st135" d="M77.93,259.07c0.72,0,1.43-0.1,2.15-0.1c0.2,0.1,0.41,0.2,0.61,0.31
		c-0.72,0.1-1.54,0.2-2.25,0.2c-0.2,0-0.31-0.1-0.51-0.2V259.07z"/>
	<path id="XMLID_11_" class="st136" d="M152.58,259.28c1.54-0.1,3.07-0.2,4.71-0.31c1.02,0.1,2.05,0.1,3.07,0.2
		c-0.72,0.2-1.54,0.1-2.36,0.2c-1.02,0.1-1.95,0.1-2.97,0.2c-0.82,0.1-1.64-0.1-2.36,0.31c-0.51-0.1-1.02-0.2-1.64-0.41
		C151.55,259.38,152.06,259.38,152.58,259.28z"/>
	<path id="XMLID_10_" class="st137" d="M217.19,259.48c0.41,0,0.92-0.1,1.33-0.31c1.84,0,3.79,0,5.63,0c-0.2,0-0.41,0.1-0.61,0.1
		c-3.07,0.31-6.04,0.51-9.11,0.72c-0.31,0-0.51,0.2-0.82,0.31c-0.31-0.1-0.51-0.31-0.72-0.51
		C214.43,259.58,215.76,259.58,217.19,259.48z"/>
	<path id="XMLID_9_" class="st138" d="M81.92,259.38c1.95,0,3.89,0,5.94,0c-2.05,0.31-4.1,0.41-6.25,0.61
		c-0.72,0.1-1.64-0.1-2.25,0.41c-0.2-0.2-0.51-0.31-0.72-0.51C79.77,259.58,80.9,259.89,81.92,259.38z"/>
	<path id="XMLID_8_" class="st139" d="M291.12,259.58c1.02,0,1.95,0,2.97,0c2.05,0.1,3.99,0.1,6.04,0.1c1.64,0,3.17,0.2,4.81,0.1
		c2.15,0.1,4.2,0,6.35,0.1c0,0.1-0.1,0.31-0.1,0.41c-0.1,0-0.2,0-0.41,0c-0.82-0.31-1.74-0.2-2.66-0.2c-2.05,0-3.99,0-6.04-0.1
		c-3.58-0.1-7.17,0-10.75-0.2L291.12,259.58z"/>
	<path id="XMLID_7_" class="st123" d="M285.59,259.79c1.95-0.31,3.79,0.1,5.73,0c3.58,0.2,7.17,0.2,10.75,0.2
		c2.05,0.1,3.99,0.1,6.04,0.1c0.92,0,1.84-0.1,2.66,0.2c-0.51,0.1-1.02,0.2-1.54,0.2c-2.36,0-4.81,0-7.17,0
		c-3.58,0-7.27,0.1-10.85-0.1C289.38,260.4,287.44,260.3,285.59,259.79z"/>
	<path id="XMLID_6_" class="st4" d="M346.83,259.89c13.41,0,26.83,0,40.24,0c-0.1,0.1-0.2,0.1-0.31,0.2c-0.2,0.1-0.41,0.2-0.72,0.41
		l-0.2,0.1c0,0.41,0,0.72,0,1.13h-0.2v-0.2c0-0.31,0-0.51,0-0.82c-5.53,0.1-11.06-0.1-16.59,0c-3.79,0-7.58,0-11.26,0
		c-2.76-0.1-5.53,0-8.29-0.1C348.57,260.51,347.55,260.51,346.83,259.89z"/>
	<path id="XMLID_5_" class="st6" d="M386.15,260.51c0.2-0.1,0.41-0.2,0.72-0.41c0.2,0.82,0.2,1.74,0,2.56
		c-0.2-0.2-0.41-0.41-0.61-0.72C386.15,261.43,386.15,260.92,386.15,260.51z"/>
	<path id="XMLID_4_" class="st140" d="M97.38,261.84c0.61-0.51,1.43-0.31,2.15-0.41c2.56,0,5.12-0.1,7.68,0
		C103.94,261.84,100.66,261.73,97.38,261.84z"/>
	<path id="XMLID_205_" class="st141" d="M423.73,229.89c0.31-0.1,0.72-0.1,1.02-0.1c6.04,0,12.08,0,18.12,0c0.82,0,1.54,0,2.36,0
		c-0.51,0.82-1.23,1.54-1.95,2.36c-5.73,6.55-11.37,13.21-17.1,19.87c-1.64,1.95-3.28,3.79-4.81,5.63
		c-6.76,7.78-13.52,15.56-20.17,23.45c-0.41,0.41-0.72,1.23-1.43,1.13c-7.07,0-14.13,0-21.2,0c1.74-2.15,3.69-4.2,5.53-6.35
		C397.41,260.51,410.52,245.15,423.73,229.89z"/>
	<g id="XMLID_2_">
		<path id="XMLID_206_" class="st141" d="M392.09,230.2c0.2-0.31,0.61-0.41,0.92-0.41c3.28,0,6.55,0,9.83,0c3.69,0,7.37,0,11.06,0
			c-0.82,1.02-1.74,2.05-2.56,3.07c-6.14,7.17-12.29,14.34-18.53,21.4c-1.74,1.95-3.38,3.99-5.12,5.94c0-0.51-0.2-1.02-0.72-1.23
			c-0.72-0.31-1.54-0.31-2.25-0.31c-5.94,0-11.88,0-17.72,0c0.92-1.23,2.05-2.36,2.97-3.48c4.51,0,9.01,0,13.52,0
			c0.61,0,1.23-0.2,1.43-0.82c0.31-0.82,0.2-1.74,0.2-2.56c0-0.61-0.41-1.23-1.02-1.33c-1.13-0.31-2.36-0.1-3.48-0.1
			c-2.15,0-4.3,0-6.45,0c0.92-1.02,1.84-2.15,2.76-3.17c2.46,0,4.92,0,7.37,0c0.51,0,1.02,0,1.54-0.1c0.51-0.1,0.92-0.72,0.92-1.23
			c0-0.72,0.1-1.54,0-2.25c-0.1-0.72-0.72-1.23-1.33-1.23c-1.33-0.1-2.66,0-3.99,0c0.61-0.41,1.13-1.13,1.64-1.64
			C385.95,237.16,389.02,233.68,392.09,230.2z"/>
		<path id="XMLID_3_" class="st141" d="M362.6,263.68c7.58,0,15.16,0,22.73,0h-0.1c-0.41,0.1-0.72,0.31-1.02,0.72
			c-3.69,4.3-7.37,8.5-11.06,12.9c-1.33,1.54-2.66,2.97-3.89,4.51c-0.2,0.2-0.41,0.51-0.82,0.51c-6.04,0-11.98,0-18.02,0
			c-1.13,0-2.15,0.1-3.28-0.1c5.22-6.14,10.55-12.19,15.77-18.33C362.91,263.78,362.8,263.78,362.6,263.68L362.6,263.68z"/>
	</g>
</g>
</svg>
