<?xml version="1.0" encoding="utf-8"?>
<!-- Generator: Adobe Illustrator 26.5.0, SVG Export Plug-In . SVG Version: 6.00 Build 0)  -->
<svg version="1.1" id="Layer_1" xmlns="http://www.w3.org/2000/svg" xmlns:xlink="http://www.w3.org/1999/xlink" x="0px" y="0px"
	 viewBox="0 0 512 512" style="enable-background:new 0 0 512 512;" xml:space="preserve">
<style type="text/css">
	.st0{fill:#FFFFFF;}
	.st1{fill:#33A457;}
	.st2{fill:#CC2131;}
	.st3{fill:#FFF22D;}
</style>
<g>
	<polygon class="st0" points="445.28,43.31 445.28,53.13 256,19.87 66.72,53.13 66.72,43.31 256,9.91 	"/>
	<polygon class="st1" points="445.28,33.34 445.28,43.31 256,9.91 66.72,43.31 66.72,33.34 256,-0.05 	"/>
	<path class="st2" d="M445.28,53.13L256,19.87L66.72,52.99v33.67l1.68-0.98c0.7-0.42,67.91-37.6,188.02-37.6
		c120.25,0,186.62,37.32,187.32,37.6l1.68,0.98L445.28,53.13z"/>
	<path class="st3" d="M256.42,54.67c108.6,0,172.16,30.59,182.41,35.92v96.96c0,52.9-12.49,105.51-37.04,156.45
		C348.04,455.4,267.22,499.18,256,504.79c-11.37-5.75-92.19-49.39-145.78-160.8c-24.55-51.07-37.04-103.69-37.04-156.45V90.59
		C83.56,85.26,147.82,54.67,256.42,54.67L256.42,54.67z"/>
	<path d="M68.26,85.82l-1.68,0.98v100.74c0,53.88,12.63,107.48,37.6,159.25c58.65,121.65,149.43,164.17,150.41,164.59l1.4,0.56
		l1.4-0.56c0.98-0.42,91.62-42.94,150.27-164.59c24.98-51.92,37.6-105.51,37.6-159.25V86.8l-1.68-0.98
		c-0.7-0.42-67.07-37.6-187.32-37.6C136.17,48.22,68.96,85.4,68.26,85.82L68.26,85.82z M256.42,54.67
		c108.6,0,172.16,30.59,182.41,35.92v96.96c0,52.9-12.49,105.51-37.04,156.45C348.04,455.4,267.22,499.18,256,504.79
		c-11.37-5.75-92.19-49.39-145.78-160.8c-24.55-51.07-37.04-103.69-37.04-156.45V90.59C83.56,85.26,147.82,54.67,256.42,54.67
		L256.42,54.67z"/>
	<path d="M284.76,410.93c3.09,2.25,0.84,6.03-1.4,6.59c-2.39,0.7-4.49-2.1-5.75,0.98c-0.7,1.54,1.12,13.61,13.47,13.61
		c11.51,0,16.98-14.73,18.1-16.98c1.12-2.24,1.82-5.05,0.7-5.05c-5.05,0-6.45,2.95-6.45,2.95s-0.42-2.95,2.1-5.05
		c2.1-1.82,4.77-1.4,5.75-1.4c2.1,0,1.68-1.54,2.95-4.49c2.81-7.16,4.77-7.44,6.59-10.66c1.54-2.67-1.4-3.65-7.02-4.21
		c-5.75-0.56-8.7-0.28-11.23,0c-2.53,0.42-5.05,1.4-6.73,5.33c-0.84,2.1,0.7,4.21,3.65,3.65s5.89-2.81,5.89-2.81
		s-1.4,5.33-5.75,6.45c-4.07,0.98-8.98-1.54-8.28-5.61c0.84-5.47,4.63-9.4,11.37-10.66c6.88-1.4,13.61-0.28,19.78,1.12
		c6.03,1.54,10.52,0.56,16.14,0.28c12.21-0.7,19.64-3.51,19.64-3.51s-5.47,4.49-13.05,6.45c-7.58,2.1-14.31,1.26-16.56,2.1
		c-1.82,0.7-4.21,4.21-6.31,8.28c-1.82,3.65-3.93,8-3.09,8c7.02,0.28,9.68-1.26,9.68-1.26s-1.4,3.09-4.77,4.49
		c-2.39,0.98-6.31,0.98-6.31,0.98s-1.82,4.49-3.79,8.56c-1.96,4.07-5.33,10.38-11.23,13.61c-6.03,3.09-17.4,7.02-24.55-3.37
		C270.59,418.22,277.47,405.87,284.76,410.93L284.76,410.93z M196.37,412.33c1.4,3.65-1.54,5.47-3.37,5.47
		c-1.68,0-3.93-1.26-4.35,0.84s4.63,13.33,16.28,13.33s17.12-6.73,16.28-12.91c-0.98-6.73-11.65-9.4-20.2-14.03
		c-4.21-2.24-13.75-3.65-13.75-12.63c0-18.94,28.9-6.88,28.9-6.88s0-2.39,1.4-2.53c0.7,0,1.96-0.28,2.39,1.82s2.39,13.61,2.39,13.61
		s-4.21-8.7-15.86-12.49c-2.1-0.7-11.08-2.39-11.08,4.63c0.14,4.21,5.33,6.17,14.17,9.54c11.79,4.63,17.82,8.84,15.01,21.33
		c-2.67,11.93-14.31,13.89-19.92,13.89c-5.61,0-18.52-3.93-18.52-16.98C186.26,409.38,195.39,409.66,196.37,412.33L196.37,412.33z
		 M258.1,341.05l4.77,2.24c2.67,1.12,4.49,0.56,5.05,0.28c0.7-0.28,3.23-2.95,3.65-5.19c0.28-0.98,0.14-1.68-0.42-2.39
		c-1.82-2.24-5.05-12.21-6.31-17.68c-0.42-1.96,0.14-7.58,0.56-12.07c0.42-3.79,0.56-6.17,0.42-6.88c-0.28-0.98-1.68-1.82-3.37-2.95
		l-2.53-1.82c-1.4-1.12-1.4-2.67-1.54-4.35l-0.28-2.53c-0.56-2.39-12.77-14.73-14.59-14.87c-2.67-0.14-3.37,2.81-3.65,4.63
		c-0.14,0.98,1.12,5.75,2.24,9.96l1.26,5.05c1.26,7.86,9.68,21.75,13.19,27.78l1.68,2.95c0.7,1.68,0.42,2.95-0.84,3.79
		c-1.26,0.7-12.21-0.42-17.4-1.54c-2.25-0.56-5.05-1.68-7.72-2.67c-3.09-1.26-6.03-2.39-7.72-2.53c-1.96-0.14-2.95,0.28-3.65,0.7
		l-1.12,0.28l-1.12-0.42c-1.4-0.7-4.21-1.82-11.51-2.53c-10.8-0.98-11.51,1.12-11.93,2.39c-0.56,1.54,6.03,8.42,7.16,9.4
		c1.54,1.26,6.31,3.09,9.26,2.53c3.37-0.56,8.84-1.26,9.54-1.12l1.12,0.7l0.98,0.7c0.98,0.42,6.88,0.7,8.7,0.84
		c2.1,0.14,7.58,1.26,11.65,2.1l4.49,0.84C249.97,336.98,254.46,339.23,258.1,341.05z"/>
	<path d="M369.37,201.58c-0.28-0.28-0.42-0.28-0.56-0.28c-0.14,0-0.28,0.14-0.28,0.56c-0.14,1.54-2.1,5.33-3.51,5.89
		c-3.09,1.12-4.63,4.77-5.75,7.3c-0.56,1.26-1.12,2.67-1.54,2.67c-0.14,0-0.42-0.14-0.7-0.56c-1.82-3.23-0.84-8.14,0-12.07
		l0.14-0.98c0.7-3.37,4.63-8,6.88-10.8l0.98-1.26c1.54-1.96,1.96-8.7,1.68-9.26l-0.14,0.14l-0.14,0.14l0,0l0,0
		c-0.14,0.14-0.14,0.14-0.28,0.42c-0.42,2.1-4.21,6.31-10.8,12.07c-1.4,1.12-2.81,3.23-4.07,4.91c-0.84,1.12-1.82,2.39-1.96,2.39
		c-1.68-8.7,1.26-13.61,2.67-16l0.7-1.26c2.81-7.58,9.96-13.19,9.96-13.33c0.14-0.28,0.14-0.42-0.14-0.56
		c-0.28-0.14-0.84-0.14-1.54,0.28l-0.42,0.28c-2.53,1.26-9.96,4.91-14.59,13.61c-3.37,6.31-4.63,13.47-4.63,18.8
		c0,2.67,0.28,5.05,0.84,6.45c1.68,4.35,4.49,15.01,5.33,19.22c0.56,2.67,0.56,11.51,0.56,17.12c0,2.81,0,4.63,0,4.77l-1.4,4.49
		c0,0-0.7,3.65-6.45,9.54c-5.89,6.03-12.35,7.86-12.49,7.86c-2.67,0.14-5.05,0.14-5.05-0.28c0-6.88-11.65-22.73-17.68-27.92
		c-6.17-5.33-10.94-9.12-19.22-14.17c-8.42-5.19-17.82-26.66-17.96-26.94l-0.84-2.95c0,0-0.42-5.75-0.56-7.3
		c0.28,0.14,0.7,0.42,0.7,0.42l2.95,1.68l3.37,1.26l4.35,0.84l2.39,1.26l2.24,1.4l3.51,2.53l3.51,1.82l4.35,0.28l0.14-0.28
		l-4.91-2.25l-1.82-3.09c-0.7-0.98-1.4-1.96-2.1-2.95l-2.53-1.54c-0.98-0.14-2.1-0.28-3.09-0.42c0,0-0.56-0.56-0.98-0.84
		c0.28-0.14,0.84-0.42,0.84-0.42l3.37,0.42l2.95,2.1l3.23,2.53l3.09,1.26l0.42,0.14l-1.26-3.51c-0.84-0.84-1.68-1.54-2.53-2.39
		l-3.65-3.09l-2.95-1.54l-3.09-0.98l-3.23-2.1c0,0,0-0.28,0-0.42c0.42,0.14,4.49,1.82,4.49,1.82l3.93,1.12l3.23,1.26l4.63,2.25
		l3.93,0.84l4.77-0.84l4.63-3.23l0.84-1.96l0.14-0.42l-1.4,0.56l-4.07,2.1l-2.81,0.7l-3.23-0.7l0,0l-2.53-2.39l-3.65-3.51
		l-3.37-1.68l-3.93-0.7l-2.39-1.26v-0.14c0-0.28-0.14-0.84-0.14-1.26l4.91,0.42l5.33-0.42l2.95,0.56l3.09,1.26l3.09,0.42l0.56,0.14
		l-3.51-3.37l-3.51-2.53l-2.95-1.12l-4.91-0.42v-0.14c0-0.28,0-0.7-0.14-0.98l2.24-0.42l3.65,0.84l3.37,2.1l3.65,1.26l5.47-0.84
		h0.28l-1.68-2.1l-2.81-0.84l-2.24-1.68l-3.23-2.25l-2.53-0.84l-3.93-0.7l-1.96-1.82c0,0,0.14-0.56,0.28-0.84l2.1,0.56l2.67,1.26
		l3.79,1.12l-0.84-1.68l-1.4-1.54l-1.26-1.68l0.56-0.14l3.93,2.1l3.09,1.12l2.39,2.25l4.49,2.53l0.42,0.28l-0.84-2.25l-2.53-3.23
		l-2.1-3.51l-3.65-3.79l-4.77-2.53l-1.82-2.1c-1.12-1.12-2.24-2.25-3.23-3.37c0,0-0.28-1.12-0.56-1.82
		c0.56,0.14,3.23,0.98,3.23,0.98l3.65,0.98l2.67,1.68l2.24,2.67l3.51,1.54l8.84,1.12h0.56l-2.39-2.53l-4.77-2.1l-2.81-2.1
		l-1.54-2.81l-1.68-2.95l-2.67-2.53l-3.37-1.96l-3.23-2.67c0,0-0.84-1.68-1.26-2.67l2.24,2.1l4.35,3.79l3.37,1.54l2.81,2.25
		l3.23,3.37l5.19,0.84l0.7,0.14l-5.19-4.49l-1.12-3.65c-0.84-0.84-1.82-1.68-2.67-2.53l-1.4-1.68l-1.4-4.35
		c-0.98-0.98-1.96-1.96-2.95-2.95l-4.63-4.35l0,0c0,0-0.14-0.7-0.28-1.12c0.42,0.14,0.84,0.42,0.84,0.42l4.35,2.53l5.19,1.54
		l5.33,1.26l6.17,0.98l-1.4-2.95l-3.23-1.4l-2.81-1.68l-3.51-1.54l-3.09-1.26c0,0-1.96-2.53-3.09-4.07c1.12,0.7,2.67,1.82,2.67,1.82
		l2.81,0.28h8.42l3.37,1.82l2.95,3.09l0.42,0.42l-0.42-3.51L311,119.5l-4.91-2.81l-3.93-1.54l-5.89-0.98l0,0l-1.12-1.4l-4.35-3.93
		c-0.7-0.42-1.4-0.7-2.1-1.12c0,0-0.7-0.7-1.12-1.12h2.24l3.37,2.1l4.49,1.54l5.75,0.84l0,0l2.1,2.53l3.09,1.96
		c1.12,0.28,2.39,0.42,3.51,0.7l0.56,0.14l-7.3-8.98l-3.51-1.96l-4.07-1.26l-3.65-4.07l-4.49-2.81c-1.12-0.28-2.24-0.56-3.23-0.84
		c0.14-0.28,0.84-1.4,0.84-1.4l3.65-1.54l5.33-0.98c0.14-0.14,0.56-1.4,0.56-1.4c0-0.28-2.39-1.68-2.39-1.68
		c-0.84-0.28-1.82-0.56-2.67-0.84c-0.14,0-1.54,0.84-1.54,0.84l-4.35,0.14l-5.33-1.26l-5.47-4.63c-0.84-0.42-1.68-0.84-2.53-1.26
		l-9.12-1.12l-2.1-3.23l-2.95-3.23l-3.65-3.37l-0.14,0.28l-1.26,2.67l-1.26,1.82l0,0c0,0.28,0.14,2.1,0.14,2.1l1.26,1.4l-0.42,1.96
		c0-0.14-4.91,0-4.91,0l-4.07-1.82l-3.09-1.12l-7.3,0.14c-0.14,0.14-1.4,1.96-1.4,1.96l-0.14,0.28l3.09,0.42c0,0,0.42,0.28,0.7,0.42
		l-0.84,0.7l-4.35-0.28l-3.23,1.26l-0.28,0.14l1.54,0.98l6.59,0.28l4.91,1.26l0,0l0.98,1.4c0,0,0.7,0.98,0.84,1.26l-2.1,1.12
		l-5.89,2.53l-12.35,6.88l-8.14,1.26l-3.23,1.68l-2.53,3.51l-1.4,4.35c-0.14,7.3,0.14,7.44,0.28,7.58c0.28,0.14,2.39,1.4,3.93,0.42
		c1.82-0.98,5.75-1.96,7.86-2.39c0.98-0.14,1.54,0.14,1.54,0.56c0.14,0.42-0.14,0.98-0.98,1.12l-0.42,0.14
		c-3.51,0.98-7.16,2.1-7.16,3.51l0.56,0.98c1.54,1.12,5.75,0.56,8,0.14l2.25-0.7c1.96-0.56,4.21-1.26,6.17-1.12
		c1.12,0.14,2.1,0.56,3.23,1.12c1.54,0.7,3.37,1.68,6.03,1.82c4.49,0.28,7.44,1.26,7.72,1.4c0.56,1.26,0.28,2.95-0.14,4.49
		l-0.28,1.26c-1.26,11.37-13.89,24.13-19.92,30.17c-1.68,1.68-2.67,2.81-2.95,3.23l-0.7,1.68c-0.56,1.54-1.12,2.81-2.95,3.51
		c-1.12,0.42-3.79,2.39-6.74,4.63c-4.35,3.23-9.82,7.3-11.22,7.16c-2.53-0.28-14.17-8.28-14.59-8.84
		c-11.37-10.94-16.14-8.7-18.94-7.44l-0.42,0.14c-3.37,1.54-6.88,11.08-7.3,13.19l-1.4,5.89l-0.98,4.35
		c-0.28,1.4-1.68,5.05-3.09,8.56l-2.67,7.58c-0.42,1.82-1.54,4.21-2.39,6.17l-1.26,2.95c-0.84,3.51-0.84,22.45,0.56,24.13l0,0
		l0.28,0.14c1.4-0.14,4.63-3.37,6.17-4.91l0.28-0.42c1.26-1.26,2.67-4.77,2.67-6.17s-0.7-4.35-0.98-5.19
		c-2.1-6.31-1.26-12.21-0.84-15.15l0.14-1.26c0.14-1.26,1.4-2.81,2.67-4.21l1.68-1.82c0.84-1.26,1.82-1.54,2.81-1.96l1.4-0.84
		l0.28-0.28c0.98-0.98,2.53-2.67,3.37-4.77l1.4-6.03l0.28-1.54c0-0.28,0.28-0.56,0.56-0.56c0.56-0.14,1.4,0.28,1.68,0.84l9.96,11.65
		c2.53,2.25,5.19,4.77,5.19,5.33l0,0l0,0c-1.4,0.14-8.42-1.4-9.68-1.68c-9.54-2.81-14.03-2.39-17.4,1.96
		c-3.79,4.91-2.67,19.64-1.82,21.33c0.7,1.54,4.21,19.5,4.35,22.03c0.14,2.39,1.12,6.59,1.96,7.58l0.28,0.28
		c1.12,1.12,4.35,4.35,4.91,7.44c0.56,3.37,7.72,12.35,10.52,13.19c0.42,0.14,0.84,0,1.26-0.28c2.1-1.54,3.09-8.7,3.09-11.79
		c0.14-3.79-1.26-5.61-2.67-7.58l-0.56-0.7c-1.12-1.4-2.95-1.96-4.21-2.39c-0.56-0.14-1.26-0.28-1.26-0.42c0,0-0.14-5.61-1.96-6.73
		c-1.4-0.84-2.81-6.17-2.95-8.28c-0.14-1.96-0.98-6.88-1.96-9.12c-1.12-2.1-1.96-6.17-1.54-9.26c0.14-1.26,1.12-1.68,1.82-1.82
		c1.26-0.14,2.81,0.42,3.09,0.84c0.56,1.12,10.66,7.16,14.03,8.42c2.1,0.84,5.05,3.23,7.58,5.33c1.82,1.54,3.37,2.81,4.35,3.23
		c1.26,0.56,5.05,0.7,8,0.7c1.54,0,3.23,0,3.37,0.14c-1.26,0.42-1.12,2.67-1.12,3.23c1.26,8.7,33.11,32.83,35.5,34.1
		c2.81,1.54,13.05,12.21,14.03,13.61s1.82,2.95,1.68,4.21c-0.28,1.82,0.42,3.79,1.82,5.47c1.4,1.54,3.09,2.53,4.77,2.53
		c1.4,0,2.39-1.26,3.09-2.24l0.14-0.14c1.96-2.53,4.77-6.17,5.05-11.93c0.42-5.89,3.09-8.28,3.93-8.42c0.42-0.14,0.7,0,0.84,0.28
		s0,0.7-0.56,1.12c-1.12,0.84-1.82,3.37-2.67,6.17l-0.28,2.81c0,2.1-0.14,4.49-2.24,6.88c-3.23,3.37-6.73,11.37-7.72,21.33
		c-0.56,6.03,2.1,14.59,8,25.68l0.42,0.84l1.54,2.67c1.54,2.53,4.35,6.88,4.21,7.86c-0.14,1.4-0.28,2.53-2.81,5.61
		c-2.67,3.37-12.49,14.87-13.47,15.01c-1.96,0-2.24,0.28-3.93,1.4l-1.68,1.26c-1.82,1.26-2.1,2.24-2.39,3.09
		c-0.28,0.7-0.42,1.26-1.26,1.82l-0.7,0.42c-0.14,0.14-0.42,0.56-4.49,4.63c-4.49,4.49-6.59,9.54-5.89,14.59
		c0.28,1.54,1.54,2.1,5.61,2.24c4.07,0.14,13.19-6.31,13.61-8.42l0.14-0.84c0.42-1.82,0.98-5.05,1.96-5.61
		c1.26-0.56,3.37-3.09,5.05-4.91l0.28-0.28c0.84-0.98,0.98-1.96,1.26-2.81c0.14-0.7,0.28-1.4,0.84-2.1c0.42-0.42,0.98-0.7,1.54-0.98
		c1.26-0.56,2.81-1.26,3.93-4.07c1.12-2.67,7.72-7.44,12.49-10.94c2.53-1.68,4.35-3.09,4.91-3.79c0.7-0.84,0.98-2.39,0.98-4.07
		c0-1.96-0.56-4.07-1.82-5.33c-1.82-1.68-3.51-6.73-4.07-8.28l0,0c0-0.7,0-1.82-0.14-4.07v-0.28c0-5.89,8.84-11.65,12.63-14.17
		l1.68-1.26c13.75-12.07,16.42-21.33,16.98-23.85l0.28-3.09c0.14-2.1,0.14-4.07,1.4-4.35c0.56-0.14,1.26,0.28,1.82,0.84
		c0.28,0.28,0.7,0.98,0.42,1.82c-0.56,1.68-0.84,18.8-0.84,19.5l1.54,1.82l0.28,0.28l0.14-0.42c0-0.14,0.84-4.91,0.84-6.45
		c0-1.82,2.95-9.68,3.65-9.82v0.14c0.28,1.12,0.84,3.79,0.84,6.59s-0.42,5.75-1.82,7.44c-2.1,2.53-3.65,6.59-4.77,9.26l-0.98,2.24
		c-0.14,0.28-0.14,0.7-0.14,0.98c0,2.1,1.12,6.73,1.82,7.72c0.14,0.14,0.28,0.14,0.42,0.14c0.28-0.14,0.42-0.42,0.42-2.24
		c0-6.88,5.75-11.93,5.89-11.93c5.19-4.07,6.17-11.65,6.17-17.4c0-4.35-0.7-7.72-0.7-7.72c-0.84-1.26-1.68-2.39-2.53-3.65
		c0.14,0,0.84-0.42,0.98-0.7c0.28,0.28,2.53,3.37,2.53,3.37c0.42,0.56,1.4,2.1,1.4,2.81c0,3.51,0.56,6.03,0.98,7.72l0.14,0.42
		c0.42,1.82,2.95,8,3.09,8.14l0.28,0.7l0.14-0.7c0,0,0.42-3.23,0-5.89c-0.28-1.54,0-3.37,0.42-5.33l0.42-4.63
		c0-3.79-0.56-6.17-1.82-8.28l-0.7-0.98c-0.28-0.42-0.56-0.84-0.56-0.98l0.56-0.28c10.8-3.65,15.86-11.65,17.96-16
		c2.1-4.63,2.24-11.93,2.24-13.19c0-1.82-0.14-11.23-1.68-16c-0.98-2.81-0.56-5.89-0.28-9.12l0.28-5.61c0-3.79,1.96-6.74,3.93-9.4
		l2.39-3.65C370.78,205.09,369.93,202.42,369.37,201.58L369.37,201.58z"/>
	<path d="M248.14,81.19c0.14,0,2.53-1.12,2.53-1.12c0.14-0.14-0.42-2.39-0.42-2.39c-1.68-1.96-3.37-3.93-5.05-5.89l-0.28-0.28
		l-0.14,0.42l-0.56,2.39l-1.54,3.79l-0.14,0.14l3.37,1.68L248.14,81.19z"/>
	<path class="st0" d="M249.26,96.2c0.56,0.14,1.26,0.14,2.1-0.28c1.12-0.56,1.82-1.54,1.54-2.1l-0.56-0.42
		c-0.56-0.14-1.26-0.14-2.1,0.28c-0.98,0.42-1.68,1.12-1.68,1.82v0.28L249.26,96.2z M269.19,87.93l0.98,0.56
		c0.14,0.28,0.42,0.56,0.84,0.7c0.42,0.14,0.84,0,1.12-0.28c0.28-0.14,0.28-0.56,0.14-0.98c-0.28-0.84-1.12-1.68-1.96-1.68
		c-1.12,0-2.25,0.14-2.25,0.98C268.21,87.65,268.63,87.79,269.19,87.93z M270.31,91.43c-0.42,0.28-0.7,0.7-0.56,1.26l0.14,0.42
		c0.14,0.42,0.14,0.56,0.56,0.56l0.7,0.14c0.98,0.28,2.39-0.28,2.81-1.12c0.14-0.28,0.14-0.7-0.42-1.12
		C272.42,90.73,271.15,90.87,270.31,91.43z M273.4,104.34c-0.28-0.14-0.14-0.56,0-1.12c0.14-0.56,0.28-0.98,0-1.26
		c-0.28-0.28-0.7-0.14-1.26,0c-2.53,0.84-2.81,3.37-3.09,5.19l-0.14,0.56c-0.14,0.84,0.28,1.12,0.56,1.26
		c0.84,0.28,2.39-0.42,2.81-1.12c0.42-0.7,2.53-1.26,4.07-1.68l0.56-0.14c0.7-0.14,1.12-0.42,1.12-0.84
		c0.14-0.56-0.42-0.98-0.98-1.26c-0.42-0.28-1.12-0.14-1.82,0.14C274.52,104.34,273.82,104.48,273.4,104.34L273.4,104.34z
		 M247.16,105.32c0.56,0,0.98-0.28,1.26-0.7c0.84-1.12,0.84-2.81,0-4.35c-0.7-1.4-1.96-2.39-3.37-2.39l0,0h-0.28l-2.39,0.14
		c-1.26,0.28-2.39,1.26-2.67,2.1c-0.14,0.42,0,0.84,0.28,1.26C241.97,103.36,245.34,105.46,247.16,105.32L247.16,105.32z
		 M223.73,103.36c0.28,0.7,1.54,0.84,3.51,0.14l0.42-0.14l3.51-1.4l5.05-3.23c0.14-0.14,1.4-1.12,1.12-1.68
		c-0.14-0.42-0.84-0.28-1.26-0.28c-1.4,0.28-2.67,0.98-4.21,1.54l-1.96,0.98l-0.84,0.42C225.69,101.12,223.17,102.24,223.73,103.36z
		 M213.2,107.01c-0.98,0-1.54,0.56-1.82,1.12l-0.42,0.56c-0.84,0.7-0.98,2.39-0.98,3.65c0,0.56,0.14,1.54,0.7,1.82
		c0.98,0.56,1.4,0.14,2.53-0.84l0.84-0.7c0.98-0.84,2.1-1.82,2.25-3.23c0-0.56-0.14-1.12-0.42-1.54
		C215.17,107.15,214.05,107.01,213.2,107.01L213.2,107.01z M218.96,107.43c-0.28,0-0.42,0-0.56,0.14c-0.28,0.28-0.14,0.98-0.14,1.4
		v0.42v0.28c0,0.14-0.14,0.42,0,0.56c0.14,0.14,0.42,0.28,0.98,0.28c0.7,0,0.7,0,0.98-0.7l0.14-0.42c0.14-0.42,0.14-0.84,0-1.12
		C220.08,107.71,219.52,107.57,218.96,107.43L218.96,107.43z M224.43,116.41c0.7,0,1.4-0.7,1.26-1.4c0-0.7-0.56-1.26-1.26-1.26
		s-1.4,0.56-1.4,1.4l0,0C223.17,115.85,223.73,116.41,224.43,116.41z M249.41,113.18c-0.42-0.14-0.84,0.14-0.98,0.42
		c-0.42,0.42-2.67,1.96-4.21,3.09l-2.1,1.54l-0.14,0.14c-0.28,0.28-0.42,0.42-0.28,0.98l0.28,0.42l0.56-0.14l0.84-0.28l1.12-0.14
		c1.12-0.14,2.53-0.28,3.09-0.98l0.84-1.26l1.12-1.82c0.56-0.56,0.56-0.98,0.56-1.26C249.97,113.32,249.69,113.18,249.41,113.18z
		 M251.93,120.76c0,0.7,0.28,0.98,0.56,1.12c0.56,0.28,1.26,0,1.68-0.56l1.54-1.26c0.84-0.56,1.68-1.26,2.53-2.25
		c0.7-0.98,0.42-1.54,0.14-1.82c-0.56-0.56-1.54-0.56-1.96-0.28l-0.42,0.28c-0.98,0.7-3.37,2.25-3.93,4.07
		C252.07,120.06,251.93,120.34,251.93,120.76z M261.89,120.06c-0.28-0.42-0.84-0.7-1.26-0.42l-1.12,0.84
		c-0.7,0.56-1.68,1.4-2.53,1.68c-1.96,0.56-4.63,1.4-4.91,2.81v0.14c0,0.42,0.14,0.56,0.28,0.7c0.7,0.56,2.53,0.28,3.93-0.28
		c1.96-0.7,3.23-1.68,4.91-3.09C262.31,121.46,262.17,120.48,261.89,120.06L261.89,120.06z M254.18,135.63l-0.7-0.14
		c-1.68,0.42-4.49,5.33-6.59,8.98l-0.42,0.7l-6.03,11.22l-1.82,3.65c-0.14,0.28-0.14,0.84,0.14,1.12c0.28,0.28,0.84,0.42,1.4,0
		c0.98-0.7,4.63-4.35,6.31-7.16l2.25-3.09c1.4-1.82,3.09-4.07,4.07-6.59l0.28-0.84C255.58,137.74,256,136.89,254.18,135.63
		L254.18,135.63z M276.77,114.02c-0.7,0-1.26,0.56-1.26,1.26l0,0c0,0.7,0.56,1.26,1.26,1.26s1.26-0.56,1.26-1.26
		S277.47,114.02,276.77,114.02L276.77,114.02z M276.06,119.36c0,0.7,0.56,1.26,1.26,1.26s1.26-0.56,1.26-1.26l0,0
		c0-0.7-0.56-1.26-1.26-1.26C276.77,118.09,276.2,118.65,276.06,119.36z M277.33,122.16c-0.84,0-1.54,0.56-1.54,1.26
		c0,0.7,0.7,1.26,1.54,1.26c0.84,0,1.54-0.56,1.54-1.26C278.87,122.72,278.17,122.16,277.33,122.16z M277.33,125.67
		c-0.98,0-1.68,0.56-1.68,1.4c0,0.7,0.7,1.4,1.68,1.4s1.68-0.56,1.68-1.4C279.01,126.23,278.17,125.67,277.33,125.67z
		 M277.33,130.16c-0.98,0-1.96,0.56-1.96,1.4s0.84,1.4,1.96,1.4s1.96-0.56,1.96-1.4C279.29,130.86,278.45,130.16,277.33,130.16z
		 M276.63,137.74c1.26-0.14,2.1-0.7,1.96-1.54l-0.42-0.7c-0.42-0.28-1.12-0.56-1.82-0.42c-1.12,0.14-1.96,0.7-1.96,1.4v0.14
		l0.42,0.7C275.22,137.6,275.92,137.74,276.63,137.74z M274.1,141.38L274.1,141.38L274.1,141.38z M276.63,142.37
		c1.4-0.14,2.24-0.98,2.1-1.68l-0.42-0.56c-0.42-0.42-1.26-0.56-2.1-0.42c-1.26,0.14-2.25,0.98-2.1,1.68l0.42,0.56
		C274.94,142.37,275.78,142.51,276.63,142.37z M274.38,144.61c0,0.84,0.98,1.54,2.39,1.54c1.26,0,2.24-0.7,2.24-1.54
		s-0.98-1.54-2.24-1.54C275.36,143.21,274.38,143.91,274.38,144.61z M278.45,149.52c0-0.84-1.26-1.54-2.67-1.54
		c-1.54,0-2.67,0.7-2.67,1.54s1.26,1.54,2.67,1.54C277.33,151.07,278.45,150.36,278.45,149.52z M276.77,153.59
		c0-0.84-0.84-1.54-1.96-1.54c-1.12,0-1.96,0.7-1.96,1.54c0,0.84,0.84,1.54,1.96,1.54C275.78,155.14,276.77,154.43,276.77,153.59z
		 M275.78,158.64c0-0.98-0.98-1.68-2.1-1.68c-1.12,0-2.1,0.84-2.1,1.68c0,0.98,0.98,1.68,2.1,1.68
		C274.8,160.47,275.78,159.63,275.78,158.64z M274.1,163.55c0-0.84-0.84-1.54-1.68-1.54c-0.98,0-1.68,0.7-1.68,1.54
		c0,0.84,0.84,1.54,1.68,1.54C273.26,165.1,274.1,164.4,274.1,163.55z M271.15,166.5c-0.84,0-1.68,0.7-1.68,1.54
		c0,0.84,0.7,1.54,1.68,1.54c0.84,0,1.68-0.7,1.68-1.54C272.7,167.2,272,166.5,271.15,166.5z M269.75,173.94
		c0.98,0,1.68-0.56,1.68-1.4s-0.84-1.4-1.68-1.4c-0.98,0-1.68,0.56-1.68,1.4C267.93,173.38,268.77,173.94,269.75,173.94z
		 M268.07,177.3c0.84,0,1.54-0.56,1.54-1.12c0-0.7-0.7-1.12-1.54-1.12s-1.54,0.56-1.54,1.12
		C266.52,176.74,267.22,177.3,268.07,177.3z M266.52,180.39c0.84,0,1.54-0.56,1.54-1.12c0-0.56-0.7-1.12-1.54-1.12
		c-0.84,0-1.54,0.56-1.54,1.12C265.12,179.83,265.68,180.39,266.52,180.39z M221.62,177.59h0.28l2.1-0.42
		c1.82-0.42,4.63-0.98,8-1.12c2.53,0,5.19,0.84,7.16,1.4c1.82,0.56,2.67,0.84,2.95,0.42c0.28-0.28,0.14-0.56,0-0.84
		c-0.56-1.12-2.95-4.91-10.52-5.19c-4.91-0.14-8.98,3.23-9.96,4.77C221.48,177.16,221.48,177.3,221.62,177.59L221.62,177.59
		L221.62,177.59z M250.11,192.04c0.42-0.28,0.7-0.84,0.7-1.68c-0.14-3.09-0.98-3.51-2.67-3.51s-2.95,1.68-2.95,2.67
		c0,0.84,0.56,1.54,1.82,2.25C247.58,192.04,249.26,192.6,250.11,192.04L250.11,192.04z M273.68,229.92
		c2.53,1.12,3.37,1.54,3.65,1.68l0,0l0,0c0.14,0,0.28,0,0.28,0l-0.14-0.14v-0.14l-0.14-0.14c-1.68-2.1-11.51-16-13.61-25.26
		c-0.28-1.54-0.7-2.95-1.68-3.51c-0.56-0.28-1.26-0.28-2.1,0l0,0c-0.14,0-0.28,0.28-0.42,0.42c-0.14,0.28-0.14,0.56-0.14,0.84
		c0,3.23,3.51,12.35,4.63,14.17C270.45,228.1,273.54,229.78,273.68,229.92z M354.08,233.85l-0.42,0.14c0,0,0.14,2.81,0.14,6.31
		c0,5.19-0.14,12.07-1.12,15.15c-0.7,2.53-4.07,7.3-6.73,11.08l-3.09,4.63c-0.14,0.14-0.14,0.28-0.14,0.56
		c0,0.42,0.28,0.84,0.7,1.12c0.28,0.28,1.4,0.7,2.95-1.12l1.96-2.1c2.67-2.67,5.89-5.89,8.28-13.19
		C359.27,248.58,354.22,233.99,354.08,233.85z M271.29,259.81c0.28,0.28,0.56,0.28,0.98,0.14c0.7-0.28,1.12-0.84,1.12-1.4
		c0.14-0.98,0.84-2.39,1.82-3.51c1.12-1.26,0.98-3.23-0.14-4.35l-1.26-0.56c-0.84,0-1.54,0.7-1.54,0.7
		c-0.42,2.1-0.84,4.21-1.26,6.31l0,0C270.73,257.56,270.59,259.25,271.29,259.81L271.29,259.81z M314.09,283.24L314.09,283.24
		L314.09,283.24c-0.14,0-1.26,0.56-1.54,1.68c-0.28,0.7,0.14,1.4,0.56,1.82l0.42,0.7l0.14,1.4l0.28,2.1c0.14,0.42,0.56,0.7,0.98,0.7
		c0.56,0,1.12-0.42,1.26-1.26c0.28-1.12,0.42-2.53,0.42-4.49C316.47,284.08,314.23,283.38,314.09,283.24z M247.58,266.68
		c-0.14-0.14-15.86-17.26-19.22-21.75c-3.51-4.63-5.05-4.91-6.88-3.93c-0.28,0.14-0.42,0.42-0.42,0.7
		c-0.28,1.82,3.65,6.31,7.16,9.68c4.77,4.63,19.08,15.57,19.22,15.57L247.58,266.68L247.58,266.68z M185.84,216.31
		c-3.23-1.96-8.7-3.09-8.7-3.09l-0.14,0.28l6.17,4.63c0.98,0.84,5.47,3.65,6.88,2.53c0.14-0.14,0.28-0.42,0.28-0.56
		C190.19,219.26,188.65,218.14,185.84,216.31L185.84,216.31z M184.3,190.21l0.42-0.14c0.56-0.56-0.7-2.39-2.25-3.79
		c-1.4-1.26-2.81-2.1-3.51-2.1l-0.42,0.14c-0.14,0.14-0.14,0.28-0.14,0.42c0,0.84,1.12,2.25,2.39,3.37
		C182.2,189.37,183.6,190.21,184.3,190.21z M200.72,187.97h-0.56c-1.12,0.56-3.09,3.51-4.63,7.3c-1.12,2.67-1.82,5.61-1.82,7.44
		c0,0.84,0.14,1.4,0.56,1.54h0.56c1.12-0.56,3.09-3.51,4.63-7.3c1.12-2.67,1.82-5.61,1.82-7.44
		C201.28,188.67,201.14,188.11,200.72,187.97L200.72,187.97z M171.25,169.31c-1.54,0-2.81,0.7-2.81,1.68c0,0.98,1.26,1.68,2.81,1.68
		c1.54,0,2.81-0.7,2.81-1.68C174.06,170.01,172.79,169.31,171.25,169.31z M161.43,189.65h0.42c0.84-0.42,2.1-2.67,3.09-5.47
		c0.98-2.95,1.54-6.17,0.56-6.59h-0.42c-0.84,0.42-2.1,2.67-3.09,5.47C161.01,186.14,160.59,189.37,161.43,189.65L161.43,189.65z
		 M164.1,205.23c0.84-1.12,0.98-2.39,0.42-2.81l-0.7-0.14c-0.56,0.14-1.26,0.56-1.82,1.26c-0.84,1.12-0.98,2.39-0.42,2.81l0.7,0.14
		C162.83,206.49,163.53,205.93,164.1,205.23L164.1,205.23z M163.11,222.2L163.11,222.2l-0.42-0.14c-1.12,0.28-0.28,5.05,0.28,7.58
		c0.84,3.51,1.96,6.31,2.67,6.88l0,0h0.28c1.12-0.28,0.28-5.05-0.28-7.58C164.94,225.57,163.81,222.63,163.11,222.2L163.11,222.2z
		 M152.03,228.66c-0.84,0-1.54,0.7-1.54,1.54s0.7,1.4,1.54,1.4s1.68-0.7,1.68-1.4C153.57,229.36,152.87,228.66,152.03,228.66z
		 M179.25,263.46c-0.98,0-1.82,0.84-1.82,1.82c0,0.98,0.84,1.82,1.82,1.82c0.98,0,1.82-0.84,1.82-1.82
		C181.07,264.3,180.23,263.46,179.25,263.46z M271.43,312c0,0.14,0.28,0.42,0.42,0.42H272l0.14-0.28l1.68-5.19l1.26-3.37l1.12-2.67
		c0.28-0.84,0.28-1.4,0-1.82c-0.56-0.56-1.68-0.14-1.82,0l-3.23,5.19c-0.56,0.98-0.84,2.1-0.84,3.51
		C270.59,309.48,271.01,311.3,271.43,312L271.43,312z M279.15,337.68v-0.56c0-0.28,0.98-7.44-1.26-10.24
		c-0.42-0.56-1.12-0.98-1.96-1.12c-0.7,0-1.12,0.14-1.4,0.56c-1.4,2.24,3.93,10.52,4.21,10.8L279.15,337.68L279.15,337.68z
		 M291.5,351.29c-1.12,0-1.96,0.84-1.96,1.82l0,0c0,1.12,0.84,1.82,1.96,1.82c0.98,0,1.82-0.84,1.82-1.82
		C293.32,352.13,292.48,351.29,291.5,351.29L291.5,351.29z M262.45,328.28c-0.84,0-1.68,0.7-1.68,1.54s0.84,1.54,1.68,1.54
		c0.98,0,1.68-0.7,1.68-1.54S263.3,328.28,262.45,328.28z M283.64,356.2h-0.14c-0.98,0-4.77,3.37-8,6.59
		c-0.28,0.28-7.3,7.44-6.31,8.42l0,0h0.28c0.98,0,4.77-3.37,8-6.59C277.61,364.48,284.62,357.19,283.64,356.2L283.64,356.2z
		 M262.45,375.71c-0.56,0-1.54,0.56-2.39,1.4c-0.98,0.98-1.68,2.39-1.12,2.95l0,0l0,0l0.56,0.14c0.56,0,1.54-0.56,2.39-1.4
		c0.98-0.98,1.68-2.39,1.12-2.95L262.45,375.71z M253.33,389.04c-0.7,0-1.68,0.56-2.67,1.54c-0.98,0.98-1.4,1.96-1.4,2.67
		c0,0.28,0.14,0.56,0.28,0.7l0.7,0.28c0.7,0,1.82-0.56,2.67-1.54c1.26-1.26,1.82-2.67,1.26-3.37L253.33,389.04z M204.93,321.83
		c-1.4,0-2.53,0.84-2.53,1.82c0,0.98,1.12,1.82,2.53,1.82s2.53-0.7,2.53-1.82C207.45,322.67,206.33,321.83,204.93,321.83z
		 M225.41,323.37c-0.98,0-1.68,0.56-1.68,1.26c0,0.7,0.7,1.26,1.68,1.26c0.98,0,1.68-0.56,1.68-1.26
		C227.1,323.79,226.39,323.37,225.41,323.37z M250.39,331.65l0.14-0.28c0.28-1.12-5.61-2.95-8.7-3.79
		c-3.79-0.98-8.28-1.68-9.26-1.12l0,0l-0.14,0.28c-0.28,1.12,5.61,2.95,8.7,3.79C244.78,331.51,249.26,332.35,250.39,331.65
		L250.39,331.65z"/>
</g>
</svg>
