<svg xmlns="http://www.w3.org/2000/svg" xml:space="preserve" id="Layer_1" x="0" y="0" viewBox="0 0 512 512"><style>.st0{fill:#fff}</style><path d="M445.28 43.31v9.82L256 19.87 66.72 53.13v-9.82L256 9.91z" class="st0"/><path d="M445.28 33.34v9.97L256 9.91 66.72 43.31v-9.97L256-.05z" style="fill:#33a457"/><path d="M445.28 53.13 256 19.87 66.72 52.99v33.67l1.68-.98c.7-.42 67.91-37.6 188.02-37.6 120.25 0 186.62 37.32 187.32 37.6l1.68.98z" style="fill:#cc2131"/><path d="M256.42 54.67c108.6 0 172.16 30.59 182.41 35.92v96.96c0 52.9-12.49 105.51-37.04 156.45C348.04 455.4 267.22 499.18 256 504.79c-11.37-5.75-92.19-49.39-145.78-160.8-24.55-51.07-37.04-103.69-37.04-156.45V90.59c10.38-5.33 74.64-35.92 183.24-35.92" style="fill:#fff22d"/><path d="m68.26 85.82-1.68.98v100.74c0 53.88 12.63 107.48 37.6 159.25 58.65 121.65 149.43 164.17 150.41 164.59l1.4.56 1.4-.56c.98-.42 91.62-42.94 150.27-164.59 24.98-51.92 37.6-105.51 37.6-159.25V86.8l-1.68-.98c-.7-.42-67.07-37.6-187.32-37.6-120.09 0-187.3 37.18-188 37.6m188.16-31.15c108.6 0 172.16 30.59 182.41 35.92v96.96c0 52.9-12.49 105.51-37.04 156.45C348.04 455.4 267.22 499.18 256 504.79c-11.37-5.75-92.19-49.39-145.78-160.8-24.55-51.07-37.04-103.69-37.04-156.45V90.59c10.38-5.33 74.64-35.92 183.24-35.92"/><path d="M284.76 410.93c3.09 2.25.84 6.03-1.4 6.59-2.39.7-4.49-2.1-5.75.98-.7 1.54 1.12 13.61 13.47 13.61 11.51 0 16.98-14.73 18.1-16.98 1.12-2.24 1.82-5.05.7-5.05-5.05 0-6.45 2.95-6.45 2.95s-.42-2.95 2.1-5.05c2.1-1.82 4.77-1.4 5.75-1.4 2.1 0 1.68-1.54 2.95-4.49 2.81-7.16 4.77-7.44 6.59-10.66 1.54-2.67-1.4-3.65-7.02-4.21-5.75-.56-8.7-.28-11.23 0-2.53.42-5.05 1.4-6.73 5.33-.84 2.1.7 4.21 3.65 3.65s5.89-2.81 5.89-2.81-1.4 5.33-5.75 6.45c-4.07.98-8.98-1.54-8.28-5.61.84-5.47 4.63-9.4 11.37-10.66 6.88-1.4 13.61-.28 19.78 1.12 6.03 1.54 10.52.56 16.14.28 12.21-.7 19.64-3.51 19.64-3.51s-5.47 4.49-13.05 6.45c-7.58 2.1-14.31 1.26-16.56 2.1-1.82.7-4.21 4.21-6.31 8.28-1.82 3.65-3.93 8-3.09 8 7.02.28 9.68-1.26 9.68-1.26s-1.4 3.09-4.77 4.49c-2.39.98-6.31.98-6.31.98s-1.82 4.49-3.79 8.56c-1.96 4.07-5.33 10.38-11.23 13.61-6.03 3.09-17.4 7.02-24.55-3.37-7.71-11.08-.83-23.43 6.46-18.37m-88.39 1.4c1.4 3.65-1.54 5.47-3.37 5.47-1.68 0-3.93-1.26-4.35.84s4.63 13.33 16.28 13.33 17.12-6.73 16.28-12.91c-.98-6.73-11.65-9.4-20.2-14.03-4.21-2.24-13.75-3.65-13.75-12.63 0-18.94 28.9-6.88 28.9-6.88s0-2.39 1.4-2.53c.7 0 1.96-.28 2.39 1.82s2.39 13.61 2.39 13.61-4.21-8.7-15.86-12.49c-2.1-.7-11.08-2.39-11.08 4.63.14 4.21 5.33 6.17 14.17 9.54 11.79 4.63 17.82 8.84 15.01 21.33-2.67 11.93-14.31 13.89-19.92 13.89s-18.52-3.93-18.52-16.98c.12-8.96 9.25-8.68 10.23-6.01m61.73-71.28 4.77 2.24c2.67 1.12 4.49.56 5.05.28.7-.28 3.23-2.95 3.65-5.19.28-.98.14-1.68-.42-2.39-1.82-2.24-5.05-12.21-6.31-17.68-.42-1.96.14-7.58.56-12.07.42-3.79.56-6.17.42-6.88-.28-.98-1.68-1.82-3.37-2.95l-2.53-1.82c-1.4-1.12-1.4-2.67-1.54-4.35l-.28-2.53c-.56-2.39-12.77-14.73-14.59-14.87-2.67-.14-3.37 2.81-3.65 4.63-.14.98 1.12 5.75 2.24 9.96l1.26 5.05c1.26 7.86 9.68 21.75 13.19 27.78l1.68 2.95c.7 1.68.42 2.95-.84 3.79-1.26.7-12.21-.42-17.4-1.54-2.25-.56-5.05-1.68-7.72-2.67-3.09-1.26-6.03-2.39-7.72-2.53-1.96-.14-2.95.28-3.65.7l-1.12.28-1.12-.42c-1.4-.7-4.21-1.82-11.51-2.53-10.8-.98-11.51 1.12-11.93 2.39-.56 1.54 6.03 8.42 7.16 9.4 1.54 1.26 6.31 3.09 9.26 2.53 3.37-.56 8.84-1.26 9.54-1.12l1.12.7.98.7c.98.42 6.88.7 8.7.84 2.1.14 7.58 1.26 11.65 2.1l4.49.84c1.85.31 6.34 2.56 9.98 4.38"/><path d="M369.37 201.58c-.28-.28-.42-.28-.56-.28s-.28.14-.28.56c-.14 1.54-2.1 5.33-3.51 5.89-3.09 1.12-4.63 4.77-5.75 7.3-.56 1.26-1.12 2.67-1.54 2.67-.14 0-.42-.14-.7-.56-1.82-3.23-.84-8.14 0-12.07l.14-.98c.7-3.37 4.63-8 6.88-10.8l.98-1.26c1.54-1.96 1.96-8.7 1.68-9.26l-.14.14-.14.14c-.14.14-.14.14-.28.42-.42 2.1-4.21 6.31-10.8 12.07-1.4 1.12-2.81 3.23-4.07 4.91-.84 1.12-1.82 2.39-1.96 2.39-1.68-8.7 1.26-13.61 2.67-16l.7-1.26c2.81-7.58 9.96-13.19 9.96-13.33.14-.28.14-.42-.14-.56s-.84-.14-1.54.28l-.42.28c-2.53 1.26-9.96 4.91-14.59 13.61-3.37 6.31-4.63 13.47-4.63 18.8 0 2.67.28 5.05.84 6.45 1.68 4.35 4.49 15.01 5.33 19.22.56 2.67.56 11.51.56 17.12v4.77l-1.4 4.49s-.7 3.65-6.45 9.54c-5.89 6.03-12.35 7.86-12.49 7.86-2.67.14-5.05.14-5.05-.28 0-6.88-11.65-22.73-17.68-27.92-6.17-5.33-10.94-9.12-19.22-14.17-8.42-5.19-17.82-26.66-17.96-26.94l-.84-2.95s-.42-5.75-.56-7.3c.28.14.7.42.7.42l2.95 1.68 3.37 1.26 4.35.84 2.39 1.26 2.24 1.4 3.51 2.53 3.51 1.82 4.35.28.14-.28-4.91-2.25-1.82-3.09c-.7-.98-1.4-1.96-2.1-2.95l-2.53-1.54c-.98-.14-2.1-.28-3.09-.42 0 0-.56-.56-.98-.84l.84-.42 3.37.42 2.95 2.1 3.23 2.53 3.09 1.26.42.14-1.26-3.51c-.84-.84-1.68-1.54-2.53-2.39l-3.65-3.09-2.95-1.54-3.09-.98-3.23-2.1v-.42c.42.14 4.49 1.82 4.49 1.82l3.93 1.12 3.23 1.26 4.63 2.25 3.93.84 4.77-.84 4.63-3.23.84-1.96.14-.42-1.4.56-4.07 2.1-2.81.7-3.23-.7-2.53-2.39-3.65-3.51-3.37-1.68-3.93-.7-2.39-1.26v-.14c0-.28-.14-.84-.14-1.26l4.91.42 5.33-.42 2.95.56 3.09 1.26 3.09.42.56.14-3.51-3.37-3.51-2.53-2.95-1.12-4.91-.42v-.14c0-.28 0-.7-.14-.98l2.24-.42 3.65.84 3.37 2.1 3.65 1.26 5.47-.84h.28l-1.68-2.1-2.81-.84-2.24-1.68-3.23-2.25-2.53-.84-3.93-.7-1.96-1.82s.14-.56.28-.84l2.1.56 2.67 1.26 3.79 1.12-.84-1.68-1.4-1.54-1.26-1.68.56-.14 3.93 2.1 3.09 1.12 2.39 2.25 4.49 2.53.42.28-.84-2.25-2.53-3.23-2.1-3.51-3.65-3.79-4.77-2.53-1.82-2.1c-1.12-1.12-2.24-2.25-3.23-3.37 0 0-.28-1.12-.56-1.82.56.14 3.23.98 3.23.98l3.65.98 2.67 1.68 2.24 2.67 3.51 1.54 8.84 1.12h.56l-2.39-2.53-4.77-2.1-2.81-2.1-1.54-2.81-1.68-2.95-2.67-2.53-3.37-1.96-3.23-2.67s-.84-1.68-1.26-2.67l2.24 2.1 4.35 3.79 3.37 1.54 2.81 2.25 3.23 3.37 5.19.84.7.14-5.19-4.49-1.12-3.65c-.84-.84-1.82-1.68-2.67-2.53l-1.4-1.68-1.4-4.35-2.95-2.95-4.63-4.35s-.14-.7-.28-1.12c.42.14.84.42.84.42l4.35 2.53 5.19 1.54 5.33 1.26 6.17.98-1.4-2.95-3.23-1.4-2.81-1.68-3.51-1.54-3.09-1.26s-1.96-2.53-3.09-4.07c1.12.7 2.67 1.82 2.67 1.82l2.81.28h8.42l3.37 1.82 2.95 3.09.42.42-.42-3.51-1.86-2.33-4.91-2.81-3.93-1.54-5.89-.98-1.12-1.4-4.35-3.93c-.7-.42-1.4-.7-2.1-1.12l-1.12-1.12h2.24l3.37 2.1 4.49 1.54 5.75.84 2.1 2.53 3.09 1.96c1.12.28 2.39.42 3.51.7l.56.14-7.3-8.98-3.51-1.96-4.07-1.26-3.65-4.07-4.49-2.81c-1.12-.28-2.24-.56-3.23-.84.14-.28.84-1.4.84-1.4l3.65-1.54 5.33-.98c.14-.14.56-1.4.56-1.4 0-.28-2.39-1.68-2.39-1.68-.84-.28-1.82-.56-2.67-.84-.14 0-1.54.84-1.54.84l-4.35.14-5.33-1.26-5.47-4.63c-.84-.42-1.68-.84-2.53-1.26l-9.12-1.12-2.1-3.23-2.95-3.23-3.65-3.37-.14.28-1.26 2.67-1.26 1.82c0 .28.14 2.1.14 2.1l1.26 1.4-.42 1.96c0-.14-4.91 0-4.91 0l-4.07-1.82-3.09-1.12-7.3.14c-.14.14-1.4 1.96-1.4 1.96l-.14.28 3.09.42s.42.28.7.42l-.84.7-4.35-.28-3.23 1.26-.28.14 1.54.98 6.59.28 4.91 1.26.98 1.4s.7.98.84 1.26l-2.1 1.12-5.89 2.53-12.35 6.88-8.14 1.26-3.23 1.68-2.53 3.51-1.4 4.35c-.14 7.3.14 7.44.28 7.58.28.14 2.39 1.4 3.93.42 1.82-.98 5.75-1.96 7.86-2.39.98-.14 1.54.14 1.54.56.14.42-.14.98-.98 1.12l-.42.14c-3.51.98-7.16 2.1-7.16 3.51l.56.98c1.54 1.12 5.75.56 8 .14l2.25-.7c1.96-.56 4.21-1.26 6.17-1.12 1.12.14 2.1.56 3.23 1.12 1.54.7 3.37 1.68 6.03 1.82 4.49.28 7.44 1.26 7.72 1.4.56 1.26.28 2.95-.14 4.49l-.28 1.26c-1.26 11.37-13.89 24.13-19.92 30.17-1.68 1.68-2.67 2.81-2.95 3.23l-.7 1.68c-.56 1.54-1.12 2.81-2.95 3.51-1.12.42-3.79 2.39-6.74 4.63-4.35 3.23-9.82 7.3-11.22 7.16-2.53-.28-14.17-8.28-14.59-8.84-11.37-10.94-16.14-8.7-18.94-7.44l-.42.14c-3.37 1.54-6.88 11.08-7.3 13.19l-1.4 5.89-.98 4.35c-.28 1.4-1.68 5.05-3.09 8.56l-2.67 7.58c-.42 1.82-1.54 4.21-2.39 6.17l-1.26 2.95c-.84 3.51-.84 22.45.56 24.13l.28.14c1.4-.14 4.63-3.37 6.17-4.91l.28-.42c1.26-1.26 2.67-4.77 2.67-6.17s-.7-4.35-.98-5.19c-2.1-6.31-1.26-12.21-.84-15.15l.14-1.26c.14-1.26 1.4-2.81 2.67-4.21l1.68-1.82c.84-1.26 1.82-1.54 2.81-1.96l1.4-.84.28-.28c.98-.98 2.53-2.67 3.37-4.77l1.4-6.03.28-1.54c0-.28.28-.56.56-.56.56-.14 1.4.28 1.68.84l9.96 11.65c2.53 2.25 5.19 4.77 5.19 5.33-1.4.14-8.42-1.4-9.68-1.68-9.54-2.81-14.03-2.39-17.4 1.96-3.79 4.91-2.67 19.64-1.82 21.33.7 1.54 4.21 19.5 4.35 22.03.14 2.39 1.12 6.59 1.96 7.58l.28.28c1.12 1.12 4.35 4.35 4.91 7.44.56 3.37 7.72 12.35 10.52 13.19.42.14.84 0 1.26-.28 2.1-1.54 3.09-8.7 3.09-11.79.14-3.79-1.26-5.61-2.67-7.58l-.56-.7c-1.12-1.4-2.95-1.96-4.21-2.39-.56-.14-1.26-.28-1.26-.42 0 0-.14-5.61-1.96-6.73-1.4-.84-2.81-6.17-2.95-8.28-.14-1.96-.98-6.88-1.96-9.12-1.12-2.1-1.96-6.17-1.54-9.26.14-1.26 1.12-1.68 1.82-1.82 1.26-.14 2.81.42 3.09.84.56 1.12 10.66 7.16 14.03 8.42 2.1.84 5.05 3.23 7.58 5.33 1.82 1.54 3.37 2.81 4.35 3.23 1.26.56 5.05.7 8 .7 1.54 0 3.23 0 3.37.14-1.26.42-1.12 2.67-1.12 3.23 1.26 8.7 33.11 32.83 35.5 34.1 2.81 1.54 13.05 12.21 14.03 13.61s1.82 2.95 1.68 4.21c-.28 1.82.42 3.79 1.82 5.47 1.4 1.54 3.09 2.53 4.77 2.53 1.4 0 2.39-1.26 3.09-2.24l.14-.14c1.96-2.53 4.77-6.17 5.05-11.93.42-5.89 3.09-8.28 3.93-8.42.42-.14.7 0 .84.28s0 .7-.56 1.12c-1.12.84-1.82 3.37-2.67 6.17l-.28 2.81c0 2.1-.14 4.49-2.24 6.88-3.23 3.37-6.73 11.37-7.72 21.33-.56 6.03 2.1 14.59 8 25.68l.42.84 1.54 2.67c1.54 2.53 4.35 6.88 4.21 7.86-.14 1.4-.28 2.53-2.81 5.61-2.67 3.37-12.49 14.87-13.47 15.01-1.96 0-2.24.28-3.93 1.4l-1.68 1.26c-1.82 1.26-2.1 2.24-2.39 3.09-.28.7-.42 1.26-1.26 1.82l-.7.42c-.14.14-.42.56-4.49 4.63-4.49 4.49-6.59 9.54-5.89 14.59.28 1.54 1.54 2.1 5.61 2.24s13.19-6.31 13.61-8.42l.14-.84c.42-1.82.98-5.05 1.96-5.61 1.26-.56 3.37-3.09 5.05-4.91l.28-.28c.84-.98.98-1.96 1.26-2.81.14-.7.28-1.4.84-2.1.42-.42.98-.7 1.54-.98 1.26-.56 2.81-1.26 3.93-4.07 1.12-2.67 7.72-7.44 12.49-10.94 2.53-1.68 4.35-3.09 4.91-3.79.7-.84.98-2.39.98-4.07 0-1.96-.56-4.07-1.82-5.33-1.82-1.68-3.51-6.73-4.07-8.28 0-.7 0-1.82-.14-4.07v-.28c0-5.89 8.84-11.65 12.63-14.17l1.68-1.26c13.75-12.07 16.42-21.33 16.98-23.85l.28-3.09c.14-2.1.14-4.07 1.4-4.35.56-.14 1.26.28 1.82.84.28.28.7.98.42 1.82-.56 1.68-.84 18.8-.84 19.5l1.54 1.82.28.28.14-.42c0-.14.84-4.91.84-6.45 0-1.82 2.95-9.68 3.65-9.82v.14c.28 1.12.84 3.79.84 6.59s-.42 5.75-1.82 7.44c-2.1 2.53-3.65 6.59-4.77 9.26l-.98 2.24c-.14.28-.14.7-.14.98 0 2.1 1.12 6.73 1.82 7.72.14.14.28.14.42.14.28-.14.42-.42.42-2.24 0-6.88 5.75-11.93 5.89-11.93 5.19-4.07 6.17-11.65 6.17-17.4 0-4.35-.7-7.72-.7-7.72-.84-1.26-1.68-2.39-2.53-3.65.14 0 .84-.42.98-.7.28.28 2.53 3.37 2.53 3.37.42.56 1.4 2.1 1.4 2.81 0 3.51.56 6.03.98 7.72l.14.42c.42 1.82 2.95 8 3.09 8.14l.28.7.14-.7s.42-3.23 0-5.89c-.28-1.54 0-3.37.42-5.33l.42-4.63c0-3.79-.56-6.17-1.82-8.28l-.7-.98c-.28-.42-.56-.84-.56-.98l.56-.28c10.8-3.65 15.86-11.65 17.96-16 2.1-4.63 2.24-11.93 2.24-13.19 0-1.82-.14-11.23-1.68-16-.98-2.81-.56-5.89-.28-9.12l.28-5.61c0-3.79 1.96-6.74 3.93-9.4l2.39-3.65c2.59-2.13 1.74-4.8 1.18-5.64"/><path d="M248.14 81.19c.14 0 2.53-1.12 2.53-1.12.14-.14-.42-2.39-.42-2.39l-5.05-5.89-.28-.28-.14.42-.56 2.39-1.54 3.79-.14.14 3.37 1.68z"/><path d="M249.26 96.2c.56.14 1.26.14 2.1-.28 1.12-.56 1.82-1.54 1.54-2.1l-.56-.42c-.56-.14-1.26-.14-2.1.28-.98.42-1.68 1.12-1.68 1.82v.28zm19.93-8.27.98.56c.14.28.42.56.84.7s.84 0 1.12-.28c.28-.14.28-.56.14-.98-.28-.84-1.12-1.68-1.96-1.68-1.12 0-2.25.14-2.25.98.15.42.57.56 1.13.7m1.12 3.5c-.42.28-.7.7-.56 1.26l.14.42c.14.42.14.56.56.56l.7.14c.98.28 2.39-.28 2.81-1.12.14-.28.14-.7-.42-1.12-1.12-.84-2.39-.7-3.23-.14m3.09 12.91c-.28-.14-.14-.56 0-1.12s.28-.98 0-1.26-.7-.14-1.26 0c-2.53.84-2.81 3.37-3.09 5.19l-.14.56c-.14.84.28 1.12.56 1.26.84.28 2.39-.42 2.81-1.12s2.53-1.26 4.07-1.68l.56-.14c.7-.14 1.12-.42 1.12-.84.14-.56-.42-.98-.98-1.26-.42-.28-1.12-.14-1.82.14-.71.27-1.41.41-1.83.27m-26.24.98c.56 0 .98-.28 1.26-.7.84-1.12.84-2.81 0-4.35-.7-1.4-1.96-2.39-3.37-2.39h-.28l-2.39.14c-1.26.28-2.39 1.26-2.67 2.1-.14.42 0 .84.28 1.26 1.98 1.98 5.35 4.08 7.17 3.94m-23.43-1.96c.28.7 1.54.84 3.51.14l.42-.14 3.51-1.4 5.05-3.23c.14-.14 1.4-1.12 1.12-1.68-.14-.42-.84-.28-1.26-.28-1.4.28-2.67.98-4.21 1.54l-1.96.98-.84.42c-3.38 1.41-5.9 2.53-5.34 3.65m-10.53 3.65c-.98 0-1.54.56-1.82 1.12l-.42.56c-.84.7-.98 2.39-.98 3.65 0 .56.14 1.54.7 1.82.98.56 1.4.14 2.53-.84l.84-.7c.98-.84 2.1-1.82 2.25-3.23 0-.56-.14-1.12-.42-1.54-.71-.7-1.83-.84-2.68-.84m5.76.42c-.28 0-.42 0-.56.14-.28.28-.14.98-.14 1.4v.7c0 .14-.14.42 0 .56s.42.28.98.28c.7 0 .7 0 .98-.7l.14-.42c.14-.42.14-.84 0-1.12-.28-.56-.84-.7-1.4-.84m5.47 8.98c.7 0 1.4-.7 1.26-1.4 0-.7-.56-1.26-1.26-1.26s-1.4.56-1.4 1.4c.14.7.7 1.26 1.4 1.26m24.98-3.23c-.42-.14-.84.14-.98.42-.42.42-2.67 1.96-4.21 3.09l-2.1 1.54-.14.14c-.28.28-.42.42-.28.98l.28.42.56-.14.84-.28 1.12-.14c1.12-.14 2.53-.28 3.09-.98l.84-1.26 1.12-1.82c.56-.56.56-.98.56-1.26-.14-.57-.42-.71-.7-.71m2.52 7.58c0 .7.28.98.56 1.12.56.28 1.26 0 1.68-.56l1.54-1.26c.84-.56 1.68-1.26 2.53-2.25.7-.98.42-1.54.14-1.82-.56-.56-1.54-.56-1.96-.28l-.42.28c-.98.7-3.37 2.25-3.93 4.07 0 0-.14.28-.14.7m9.96-.7c-.28-.42-.84-.7-1.26-.42l-1.12.84c-.7.56-1.68 1.4-2.53 1.68-1.96.56-4.63 1.4-4.91 2.81v.14c0 .42.14.56.28.7.7.56 2.53.28 3.93-.28 1.96-.7 3.23-1.68 4.91-3.09 1.12-.98.98-1.96.7-2.38m-7.71 15.57-.7-.14c-1.68.42-4.49 5.33-6.59 8.98l-.42.7-6.03 11.22-1.82 3.65c-.14.28-.14.84.14 1.12s.84.42 1.4 0c.98-.7 4.63-4.35 6.31-7.16l2.25-3.09c1.4-1.82 3.09-4.07 4.07-6.59l.28-.84c2.51-5.74 2.93-6.59 1.11-7.85m22.59-21.61c-.7 0-1.26.56-1.26 1.26s.56 1.26 1.26 1.26 1.26-.56 1.26-1.26-.56-1.26-1.26-1.26m-.71 5.34c0 .7.56 1.26 1.26 1.26s1.26-.56 1.26-1.26-.56-1.26-1.26-1.26c-.55-.01-1.12.55-1.26 1.26m1.27 2.8c-.84 0-1.54.56-1.54 1.26s.7 1.26 1.54 1.26 1.54-.56 1.54-1.26-.7-1.26-1.54-1.26m0 3.51c-.98 0-1.68.56-1.68 1.4 0 .7.7 1.4 1.68 1.4s1.68-.56 1.68-1.4-.84-1.4-1.68-1.4m0 4.49c-.98 0-1.96.56-1.96 1.4s.84 1.4 1.96 1.4 1.96-.56 1.96-1.4c0-.7-.84-1.4-1.96-1.4m-.7 7.58c1.26-.14 2.1-.7 1.96-1.54l-.42-.7c-.42-.28-1.12-.56-1.82-.42-1.12.14-1.96.7-1.96 1.4v.14l.42.7c.41.28 1.11.42 1.82.42m0 4.63c1.4-.14 2.24-.98 2.1-1.68l-.42-.56c-.42-.42-1.26-.56-2.1-.42-1.26.14-2.25.98-2.1 1.68l.42.56c.41.42 1.25.56 2.1.42m-2.25 2.24c0 .84.98 1.54 2.39 1.54 1.26 0 2.24-.7 2.24-1.54s-.98-1.54-2.24-1.54c-1.41.14-2.39.84-2.39 1.54m4.07 4.91c0-.84-1.26-1.54-2.67-1.54-1.54 0-2.67.7-2.67 1.54s1.26 1.54 2.67 1.54c1.55.01 2.67-.7 2.67-1.54m-1.68 4.07c0-.84-.84-1.54-1.96-1.54s-1.96.7-1.96 1.54.84 1.54 1.96 1.54c.97.01 1.96-.7 1.96-1.54m-.99 5.05c0-.98-.98-1.68-2.1-1.68s-2.1.84-2.1 1.68c0 .98.98 1.68 2.1 1.68 1.12.15 2.1-.69 2.1-1.68m-1.68 4.91c0-.84-.84-1.54-1.68-1.54-.98 0-1.68.7-1.68 1.54s.84 1.54 1.68 1.54c.84.01 1.68-.69 1.68-1.54m-2.95 2.95c-.84 0-1.68.7-1.68 1.54s.7 1.54 1.68 1.54c.84 0 1.68-.7 1.68-1.54-.13-.84-.83-1.54-1.68-1.54m-1.4 7.44c.98 0 1.68-.56 1.68-1.4s-.84-1.4-1.68-1.4c-.98 0-1.68.56-1.68 1.4-.14.84.7 1.4 1.68 1.4m-1.68 3.36c.84 0 1.54-.56 1.54-1.12 0-.7-.7-1.12-1.54-1.12s-1.54.56-1.54 1.12c-.01.56.69 1.12 1.54 1.12m-1.55 3.09c.84 0 1.54-.56 1.54-1.12s-.7-1.12-1.54-1.12-1.54.56-1.54 1.12c.14.56.7 1.12 1.54 1.12m-44.9-2.8h.28l2.1-.42c1.82-.42 4.63-.98 8-1.12 2.53 0 5.19.84 7.16 1.4 1.82.56 2.67.84 2.95.42.28-.28.14-.56 0-.84-.56-1.12-2.95-4.91-10.52-5.19-4.91-.14-8.98 3.23-9.96 4.77-.15.55-.15.69-.01.98m28.49 14.45c.42-.28.7-.84.7-1.68-.14-3.09-.98-3.51-2.67-3.51s-2.95 1.68-2.95 2.67c0 .84.56 1.54 1.82 2.25.57.27 2.25.83 3.1.27m23.57 37.88c2.53 1.12 3.37 1.54 3.65 1.68h.28l-.14-.14v-.14l-.14-.14c-1.68-2.1-11.51-16-13.61-25.26-.28-1.54-.7-2.95-1.68-3.51q-.84-.42-2.1 0c-.14 0-.28.28-.42.42-.14.28-.14.56-.14.84 0 3.23 3.51 12.35 4.63 14.17 6.44 10.26 9.53 11.94 9.67 12.08m80.4 3.93-.42.14s.14 2.81.14 6.31c0 5.19-.14 12.07-1.12 15.15-.7 2.53-4.07 7.3-6.73 11.08l-3.09 4.63c-.14.14-.14.28-.14.56 0 .42.28.84.7 1.12.28.28 1.4.7 2.95-1.12l1.96-2.1c2.67-2.67 5.89-5.89 8.28-13.19 2.66-7.85-2.39-22.44-2.53-22.58m-82.79 25.96c.28.28.56.28.98.14.7-.28 1.12-.84 1.12-1.4.14-.98.84-2.39 1.82-3.51 1.12-1.26.98-3.23-.14-4.35l-1.26-.56c-.84 0-1.54.7-1.54.7l-1.26 6.31c-.28.42-.42 2.11.28 2.67m42.8 23.43c-.14 0-1.26.56-1.54 1.68-.28.7.14 1.4.56 1.82l.42.7.14 1.4.28 2.1c.14.42.56.7.98.7.56 0 1.12-.42 1.26-1.26.28-1.12.42-2.53.42-4.49-.14-1.81-2.38-2.51-2.52-2.65m-66.51-16.56c-.14-.14-15.86-17.26-19.22-21.75-3.51-4.63-5.05-4.91-6.88-3.93a.77.77 0 0 0-.42.7c-.28 1.82 3.65 6.31 7.16 9.68 4.77 4.63 19.08 15.57 19.22 15.57zm-61.74-50.37c-3.23-1.96-8.7-3.09-8.7-3.09l-.14.28 6.17 4.63c.98.84 5.47 3.65 6.88 2.53.14-.14.28-.42.28-.56-.14-.84-1.68-1.96-4.49-3.79m-1.54-26.1.42-.14c.56-.56-.7-2.39-2.25-3.79-1.4-1.26-2.81-2.1-3.51-2.1l-.42.14c-.14.14-.14.28-.14.42 0 .84 1.12 2.25 2.39 3.37 1.41 1.26 2.81 2.1 3.51 2.1m16.42-2.24h-.56c-1.12.56-3.09 3.51-4.63 7.3-1.12 2.67-1.82 5.61-1.82 7.44 0 .84.14 1.4.56 1.54h.56c1.12-.56 3.09-3.51 4.63-7.3 1.12-2.67 1.82-5.61 1.82-7.44 0-.84-.14-1.4-.56-1.54m-29.47-18.66c-1.54 0-2.81.7-2.81 1.68s1.26 1.68 2.81 1.68c1.54 0 2.81-.7 2.81-1.68s-1.27-1.68-2.81-1.68m-9.82 20.34h.42c.84-.42 2.1-2.67 3.09-5.47.98-2.95 1.54-6.17.56-6.59h-.42c-.84.42-2.1 2.67-3.09 5.47-.98 3.08-1.4 6.31-.56 6.59m2.67 15.58c.84-1.12.98-2.39.42-2.81l-.7-.14c-.56.14-1.26.56-1.82 1.26-.84 1.12-.98 2.39-.42 2.81l.7.14c.55 0 1.25-.56 1.82-1.26m-.99 16.97-.42-.14c-1.12.28-.28 5.05.28 7.58.84 3.51 1.96 6.31 2.67 6.88h.28c1.12-.28.28-5.05-.28-7.58-.7-3.37-1.83-6.31-2.53-6.74m-11.08 6.46c-.84 0-1.54.7-1.54 1.54s.7 1.4 1.54 1.4 1.68-.7 1.68-1.4c-.14-.84-.84-1.54-1.68-1.54m27.22 34.8c-.98 0-1.82.84-1.82 1.82s.84 1.82 1.82 1.82 1.82-.84 1.82-1.82-.84-1.82-1.82-1.82M271.43 312c0 .14.28.42.42.42h.15l.14-.28 1.68-5.19 1.26-3.37 1.12-2.67c.28-.84.28-1.4 0-1.82-.56-.56-1.68-.14-1.82 0l-3.23 5.19c-.56.98-.84 2.1-.84 3.51.28 1.69.7 3.51 1.12 4.21m7.72 25.68v-.56c0-.28.98-7.44-1.26-10.24-.42-.56-1.12-.98-1.96-1.12-.7 0-1.12.14-1.4.56-1.4 2.24 3.93 10.52 4.21 10.8zm12.35 13.61c-1.12 0-1.96.84-1.96 1.82 0 1.12.84 1.82 1.96 1.82.98 0 1.82-.84 1.82-1.82s-.84-1.82-1.82-1.82m-29.05-23.01c-.84 0-1.68.7-1.68 1.54s.84 1.54 1.68 1.54c.98 0 1.68-.7 1.68-1.54s-.83-1.54-1.68-1.54m21.19 27.92h-.14c-.98 0-4.77 3.37-8 6.59-.28.28-7.3 7.44-6.31 8.42h.28c.98 0 4.77-3.37 8-6.59.14-.14 7.15-7.43 6.17-8.42m-21.19 19.51c-.56 0-1.54.56-2.39 1.4-.98.98-1.68 2.39-1.12 2.95l.56.14c.56 0 1.54-.56 2.39-1.4.98-.98 1.68-2.39 1.12-2.95zm-9.12 13.33c-.7 0-1.68.56-2.67 1.54-.98.98-1.4 1.96-1.4 2.67 0 .28.14.56.28.7l.7.28c.7 0 1.82-.56 2.67-1.54 1.26-1.26 1.82-2.67 1.26-3.37zm-48.4-67.21c-1.4 0-2.53.84-2.53 1.82s1.12 1.82 2.53 1.82 2.53-.7 2.53-1.82c-.01-.98-1.13-1.82-2.53-1.82m20.48 1.54c-.98 0-1.68.56-1.68 1.26s.7 1.26 1.68 1.26 1.68-.56 1.68-1.26c.01-.84-.7-1.26-1.68-1.26m24.98 8.28.14-.28c.28-1.12-5.61-2.95-8.7-3.79-3.79-.98-8.28-1.68-9.26-1.12l-.14.28c-.28 1.12 5.61 2.95 8.7 3.79 3.65.98 8.13 1.82 9.26 1.12" class="st0"/></svg>