<?xml version="1.0" encoding="utf-8"?>
<!-- Generator: Adobe Illustrator 26.5.0, SVG Export Plug-In . SVG Version: 6.00 Build 0)  -->
<svg version="1.1" id="Layer_1" xmlns="http://www.w3.org/2000/svg" xmlns:xlink="http://www.w3.org/1999/xlink" x="0px" y="0px"
	 viewBox="0 0 512 512" style="enable-background:new 0 0 512 512;" xml:space="preserve">
<style type="text/css">
	.st0{fill:url(#XMLID_00000125582852952478667420000002802606089913859994_);}
	.st1{fill:url(#XMLID_00000173877282285703027190000001860040159492613009_);}
	.st2{fill:url(#XMLID_00000179614018027184498950000012281224560669234315_);}
	.st3{fill:#6D0115;}
	.st4{fill:url(#XMLID_00000057135499537221404380000011084758413713285000_);}
	.st5{fill:url(#XMLID_00000081607460288751670500000004679424788580321971_);}
	.st6{fill:url(#XMLID_00000039846299412711053670000016778043937731946126_);}
	.st7{fill:#E9E8E8;}
	.st8{fill:url(#XMLID_00000106844239302761139000000009831986508266455220_);}
	.st9{fill:#BDBBBC;}
	.st10{fill:url(#XMLID_00000025443858441317809160000009398999133700863663_);}
	.st11{fill:url(#XMLID_00000016759307165240002820000013042953118171588506_);}
	.st12{fill:url(#XMLID_00000134947427566929879650000013963175042313609401_);}
	.st13{fill:url(#XMLID_00000036948759269212885180000016400782636623970969_);}
	.st14{fill:url(#XMLID_00000071539555146679219810000015440283499825922223_);}
	.st15{fill:url(#XMLID_00000004523442702352444820000015477352228427518624_);}
	.st16{fill:url(#XMLID_00000173139041917826124890000010506779152056338097_);}
	.st17{fill:url(#XMLID_00000038395845213993093820000007773858780720030347_);}
	.st18{fill:url(#XMLID_00000159435801696776759350000010357964369121723577_);}
	.st19{fill:url(#XMLID_00000074428053960686634230000012624420280184879549_);}
	.st20{fill:url(#XMLID_00000157306543488650575490000001342406865361397379_);}
	.st21{fill:url(#XMLID_00000091721086330074372380000005900512444329634224_);}
	.st22{fill:#2E2B2C;}
	.st23{fill:url(#XMLID_00000158731651195523970370000011982246233221073806_);}
	.st24{fill:url(#XMLID_00000028312448519029826460000005644294801578241703_);}
	.st25{fill:url(#XMLID_00000005232535534540150600000002251048827929838743_);}
	.st26{fill:url(#XMLID_00000067215784824342205270000004834234061061174400_);}
	.st27{fill:url(#XMLID_00000122000498234319025850000003735692858254646412_);}
	.st28{fill:url(#XMLID_00000003075813965705789220000009404565954124160700_);}
	.st29{fill:url(#XMLID_00000062159180028467404660000009326225290016942500_);}
	.st30{fill:url(#XMLID_00000037655446226629680600000015876859719846662557_);}
	.st31{fill:#A7A6A6;}
	.st32{fill:url(#XMLID_00000168820581207692238740000000156640963708271773_);}
	.st33{fill:url(#XMLID_00000116919580420520164040000005591566401975853189_);}
	.st34{fill:#231F20;}
	.st35{fill:#891731;}
	.st36{fill:url(#XMLID_00000165228659421661550640000018196952135653430939_);}
	.st37{fill:url(#XMLID_00000011004389321391973040000000082009971083500454_);}
	.st38{fill:#FFFFFF;}
	.st39{fill:#1A1A1A;}
	.st40{fill:url(#XMLID_00000018209061776857826800000015686153385305574273_);}
	.st41{fill:url(#XMLID_00000133505189665142580440000015803203048395562129_);}
	.st42{fill:url(#XMLID_00000144320955984527892950000008186125011529389234_);}
	.st43{fill:url(#XMLID_00000163786858307675005960000007654329586649795465_);}
</style>
<g id="XMLID_107_">
	
		<linearGradient id="XMLID_00000103968656355868772310000007730743317863072416_" gradientUnits="userSpaceOnUse" x1="-176.5017" y1="548.6589" x2="-175.0388" y2="548.6589" gradientTransform="matrix(-8.9942 0 0 -8.9942 -1513.4016 5201.9351)">
		<stop  offset="0" style="stop-color:#E9E8E8"/>
		<stop  offset="5.617980e-03" style="stop-color:#E9E8E8"/>
		<stop  offset="0.2933" style="stop-color:#BFBEBF"/>
		<stop  offset="0.5994" style="stop-color:#9A9999"/>
		<stop  offset="0.8459" style="stop-color:#838182"/>
		<stop  offset="1" style="stop-color:#7B7979"/>
	</linearGradient>
	<path id="XMLID_109_" style="fill:url(#XMLID_00000103968656355868772310000007730743317863072416_);" d="M65.24,270.77
		c1.9,26.33,12.58,43.3,22.38,63.05c-11.12-47.1-14.19-89.23-13.17-132.24c-1.61-2.05-4.24-0.88-6.88,2.05
		C65.83,218.7,63.49,246.64,65.24,270.77z"/>
	
		<radialGradient id="XMLID_00000062189743666292451200000014163568747373381308_" cx="-162.6108" cy="554.6844" r="1.4632" gradientTransform="matrix(121.6386 0 0 121.6386 20032.3086 -67206.3359)" gradientUnits="userSpaceOnUse">
		<stop  offset="0" style="stop-color:#E60A47"/>
		<stop  offset="1" style="stop-color:#7C0626"/>
	</radialGradient>
	<path id="XMLID_113_" style="fill:url(#XMLID_00000062189743666292451200000014163568747373381308_);" d="M174.52,443.1
		c18.87,4.53,45.2,8.78,78.12,8.78c33.21,0,95.82-7.02,118.78-27.94c17.99-16.38,25.31-44.03,34.23-79.14
		c21.07-82.94,15.51-133.56,10.97-192.8c-4.53-59.1-105.47-74.46-163.84-74.46c-50.91,0-161.35,15.36-165.89,76.51
		c-4.39,59.1-5.27,118.05,13.75,190.61C115.13,400.53,121.56,430.23,174.52,443.1z"/>
	
		<linearGradient id="XMLID_00000076574431095953978060000002708081180853665951_" gradientUnits="userSpaceOnUse" x1="-164.0977" y1="553.7924" x2="-162.6348" y2="553.7924" gradientTransform="matrix(1.579772e-08 351.8691 -351.8691 1.579772e-08 195118.4531 57739.7305)">
		<stop  offset="0" style="stop-color:#656363"/>
		<stop  offset="5.617980e-03" style="stop-color:#656363"/>
		<stop  offset="0.5" style="stop-color:#A7A6A6"/>
		<stop  offset="1" style="stop-color:#656363"/>
	</linearGradient>
	<path id="XMLID_117_" style="fill:url(#XMLID_00000076574431095953978060000002708081180853665951_);" d="M256,0
		C114.54,0,0,114.54,0,256c0,141.31,114.54,256,256,256c141.31,0,256-114.54,256-256S397.31,0,256,0z M258.63,498.69
		c-143.36,0-248.1-98.89-248.1-237.42c0-162.67,106.2-250.73,248.1-250.73c155.21,0,242.54,112.2,242.54,250.73
		S390.14,498.69,258.63,498.69z"/>
	<path id="XMLID_118_" class="st3" d="M202.31,449.24c-0.44,0-0.73-0.29-0.88-0.73c-10.09-80.6-23.26-286.57-19.31-363.67
		c0-0.44,0.44-0.88,0.88-0.73c0.44,0,0.88,0.44,0.73,0.88c-3.95,76.95,9.22,282.77,19.31,363.37
		C203.19,448.66,202.9,449.1,202.31,449.24L202.31,449.24z"/>
	<path id="XMLID_119_" class="st3" d="M233.18,452.17c-0.44,0-0.88-0.29-0.88-0.88c-1.61-47.25-9.36-287.01-10.83-372.15
		c0-0.44,0.29-0.88,0.88-0.88c0.44,0,0.88,0.29,0.88,0.88c1.46,85.28,9.36,325.05,10.83,372.15
		C234.06,451.73,233.62,452.17,233.18,452.17L233.18,452.17z"/>
	<path id="XMLID_120_" class="st3" d="M224.99,451.58c-0.44,0-0.88-0.29-0.88-0.88c-1.9-46.67-11.26-284.23-13.17-370.54
		c0-0.44,0.29-0.88,0.88-0.88c0.44,0,0.88,0.29,0.88,0.88c1.9,86.31,11.26,323.88,13.17,370.54
		C225.72,451.29,225.43,451.58,224.99,451.58L224.99,451.58z"/>
	<path id="XMLID_121_" class="st3" d="M249.56,452.61c-0.44,0-0.88-0.44-0.88-0.88c0-2.78-5.41-283.06-8.19-373.91
		c0-0.44,0.29-0.88,0.88-0.88c0.44,0,0.88,0.29,0.88,0.88c2.78,90.99,8.19,371.13,8.19,373.91
		C250.44,452.32,250.15,452.61,249.56,452.61L249.56,452.61z"/>
	<path id="XMLID_122_" class="st3" d="M242.4,452.46c-0.44,0-0.88-0.29-0.88-0.88c-1.61-46.81-9.51-284.96-9.22-373.47
		c0-0.44,0.44-0.88,0.88-0.88c0.44,0.15,0.88,0.44,0.88,0.88c-0.29,88.5,7.61,326.51,9.22,373.32
		C243.27,452.17,242.83,452.46,242.4,452.46L242.4,452.46z"/>
	<path id="XMLID_123_" class="st3" d="M193.54,447.78c-0.44,0-0.73-0.29-0.88-0.73c-2.19-21.36-13.02-130.63-15.95-182.27
		c-2.78-48.86-5.85-140.14-4.68-177.74c0-0.44,0.44-0.88,0.88-0.88s0.88,0.44,0.88,0.88c-1.17,37.6,1.9,128.73,4.68,177.59
		c2.93,51.64,13.75,160.77,15.95,182.13C194.41,447.34,193.97,447.78,193.54,447.78L193.54,447.78z"/>
	<path id="XMLID_125_" class="st3" d="M217.82,451c-0.44,0-0.73-0.29-0.88-0.73c-8.63-84.85-15.21-321.97-16.38-368.64
		c0-0.44,0.29-0.88,0.88-0.88c0.44,0,0.88,0.29,0.88,0.88c1.17,46.67,7.9,283.65,16.38,368.49C218.7,450.56,218.4,451,217.82,451
		L217.82,451z"/>
	<path id="XMLID_126_" class="st3" d="M209.77,450.12c-0.44,0-0.73-0.29-0.88-0.73c-8.78-84.41-16.38-319.93-17.85-366.15
		c0-0.44,0.29-0.88,0.88-0.88c0.44,0,0.88,0.29,0.88,0.88c1.46,46.37,9.07,281.75,17.85,366.01
		C210.65,449.68,210.36,450.12,209.77,450.12L209.77,450.12z"/>
	<path id="XMLID_127_" class="st3" d="M185.34,446.32c-0.44,0-0.73-0.29-0.88-0.73c-9.07-76.51-25.75-218.84-21.94-355.91
		c0-0.44,0.29-0.88,0.88-0.88c0.44,0,0.88,0.44,0.88,0.88c-3.8,136.92,13.02,279.26,21.94,355.77
		C186.22,445.88,185.93,446.32,185.34,446.32L185.34,446.32z"/>
	<path id="XMLID_131_" class="st3" d="M145.26,432.57c-0.44,0-0.73-0.29-0.88-0.59c-35.99-156.53-31.16-286.28-28.82-322.27
		c0-0.44,0.44-0.73,0.88-0.73c0.44,0,0.88,0.44,0.73,0.88c-2.34,35.99-7.31,165.6,28.82,321.83c0.15,0.44-0.15,0.88-0.59,1.02
		L145.26,432.57z"/>
	<path id="XMLID_132_" class="st3" d="M124.49,412.82c-0.29,0-0.59-0.15-0.73-0.44c-10.53-15.51-15.95-36.57-22.97-63.34l-1.02-4.1
		c-18.14-69.19-18.58-126.39-13.75-190.9c0-0.44,0.44-0.88,0.88-0.73c0.44,0,0.88,0.44,0.73,0.88
		c-4.83,64.37-4.24,121.42,13.75,190.32l1.02,4.1c6.29,24.28,11.41,44.03,20.19,58.81c-32.77-160.04-29.4-249.27-26.33-280.43
		c0-0.44,0.44-0.73,0.88-0.73c0.44,0,0.73,0.44,0.73,0.88c-3.07,31.31-6.44,121.71,27.21,284.53c0.15,0.44-0.15,0.73-0.44,0.88
		L124.49,412.82z"/>
	<path id="XMLID_133_" class="st3" d="M135.17,425.11c-0.44,0-0.73-0.29-0.88-0.73c-35.11-157.4-31.31-274.58-29.26-306.61
		c0-0.44,0.44-0.88,0.88-0.73c0.44,0,0.88,0.44,0.73,0.88c-2.05,32.04-5.85,148.92,29.26,306.18c0.15,0.44-0.15,0.88-0.59,1.02
		L135.17,425.11z"/>
	<path id="XMLID_134_" class="st3" d="M177.74,444.71c-0.44,0-0.73-0.29-0.88-0.73c-17.99-103.28-27.21-273.99-23.11-351.82
		c0-0.44,0.44-0.88,0.88-0.73c0.44,0,0.88,0.44,0.73,0.88c-4.1,77.82,4.97,248.25,22.97,351.38
		C178.61,444.12,178.32,444.56,177.74,444.71L177.74,444.71z"/>
	<path id="XMLID_139_" class="st3" d="M169.4,442.51c-0.44,0-0.73-0.29-0.88-0.73c-20.77-100.94-28.09-285.11-24.14-346.4
		c0-0.44,0.44-0.88,0.88-0.73c0.44,0,0.88,0.44,0.73,0.88c-3.95,61.29,3.51,245.17,24.14,345.97c0.15,0.44-0.15,0.88-0.59,1.02
		H169.4z"/>
	<path id="XMLID_140_" class="st3" d="M161.94,440.17c-0.44,0-0.73-0.29-0.88-0.73C129.46,261.12,132.97,125.07,134,99.62
		c0-0.44,0.44-0.88,0.88-0.88s0.88,0.44,0.88,0.88c-1.02,25.45-4.68,161.35,26.92,339.53C162.82,439.59,162.38,440.03,161.94,440.17
		L161.94,440.17z"/>
	<path id="XMLID_141_" class="st3" d="M154.04,437.1c-0.44,0-0.73-0.29-0.88-0.73c-33.06-148.19-29.7-302.67-28.67-332.07
		c0-0.44,0.44-0.88,0.88-0.88c0.44,0,0.88,0.44,0.88,0.88c-1.02,29.4-4.24,183.59,28.67,331.63c0.15,0.44-0.15,0.88-0.59,1.02
		L154.04,437.1z"/>
	<path id="XMLID_142_" class="st3" d="M267.26,452.32c-0.44,0-0.88-0.44-0.88-0.88c-0.29-78.12-3.36-301.49-4.53-373.61
		c0-0.44,0.29-0.88,0.88-0.88l0,0c0.44,0,0.88,0.44,0.88,0.88c1.02,72.12,4.24,295.5,4.53,373.61
		C268.14,451.88,267.85,452.32,267.26,452.32z"/>
	<path id="XMLID_144_" class="st3" d="M257.9,452.61c-0.44,0-0.88-0.44-0.88-0.88c-0.29-65.1-4.68-323.15-5.56-374.2
		c0-0.29,0.15-0.44,0.29-0.59c0.15-0.15,0.44-0.29,0.59-0.29h0.44c0.44,0,0.88,0.44,0.88,0.88c0,0.29-0.15,0.59-0.44,0.73
		c0.88,52.81,5.27,308.66,5.56,373.47C258.63,452.17,258.34,452.61,257.9,452.61z"/>
	<path id="XMLID_145_" class="st3" d="M353.57,435.49L353.57,435.49c-0.59-0.15-0.88-0.59-0.88-1.02
		c29.55-170.42,20.63-299.89,17.12-335.43c0-0.44,0.29-0.88,0.73-0.88s0.88,0.29,0.88,0.73c3.51,35.69,12.43,165.3-17.12,336.02
		C354.45,435.2,354.01,435.49,353.57,435.49z"/>
	<path id="XMLID_147_" class="st3" d="M345.53,438.71h-0.15c-0.44-0.15-0.73-0.59-0.73-1.02c19.46-100.94,21.07-279.11,16.38-342.45
		c0-0.44,0.29-0.88,0.73-0.88s0.88,0.29,0.88,0.73c4.68,63.34,3.22,241.81-16.38,342.89C346.26,438.42,345.97,438.71,345.53,438.71z
		"/>
	<path id="XMLID_148_" class="st3" d="M360.01,432.42h-0.15c-0.44-0.15-0.73-0.59-0.59-1.02c34.23-143.36,24.87-286.57,21.21-327.09
		c0-0.44,0.29-0.88,0.73-0.88s0.88,0.29,0.88,0.73c3.66,40.52,12.87,184.03-21.36,327.53C360.74,432.27,360.45,432.42,360.01,432.42
		z"/>
	<path id="XMLID_149_" class="st3" d="M380.34,414.43h-0.15c-0.44-0.15-0.73-0.59-0.59-1.02c33.21-145.85,25.16-254.54,20.19-294.62
		c0-0.44,0.29-0.88,0.73-0.88s0.88,0.29,0.88,0.73c4.97,40.08,13.17,149.21-20.19,295.2C381.07,414.13,380.78,414.43,380.34,414.43z
		"/>
	<path id="XMLID_150_" class="st3" d="M370.4,425.55h-0.15c-0.44-0.15-0.73-0.59-0.59-1.02c34.96-152.28,24.72-278.67,20.77-313.78
		c0-0.44,0.29-0.88,0.73-0.88s0.88,0.29,0.88,0.73c3.95,35.25,14.19,161.79-20.77,314.37C371.13,425.25,370.83,425.55,370.4,425.55z
		"/>
	<path id="XMLID_152_" class="st3" d="M337.48,441.34h-0.15c-0.44-0.15-0.73-0.59-0.73-1.02c18.29-96.11,19.31-264.78,14.34-348.6
		c0-0.44,0.29-0.88,0.73-0.88s0.88,0.29,0.88,0.73c5.12,83.82,3.95,252.78-14.34,349.04C338.21,441.05,337.92,441.34,337.48,441.34z
		"/>
	<path id="XMLID_153_" class="st3" d="M330.46,443.25L330.46,443.25c-0.59,0-0.88-0.44-0.88-1.02
		c3.36-25.6,19.75-163.25,12.14-353.28c0-0.44,0.29-0.88,0.88-0.88c0.44,0,0.88,0.29,0.88,0.88
		c7.61,190.17-8.78,327.97-12.14,353.57C331.19,442.95,330.9,443.25,330.46,443.25z"/>
	<path id="XMLID_154_" class="st3" d="M321.39,445.44L321.39,445.44c-0.59,0-0.88-0.44-0.88-0.88
		c19.75-185.78,14.34-285.4,10.39-358.25c0-0.44,0.29-0.88,0.73-0.88s0.88,0.29,0.88,0.73c3.95,72.85,9.36,172.62-10.39,358.4
		C322.12,445.15,321.68,445.44,321.39,445.44z"/>
	<path id="XMLID_155_" class="st3" d="M273.85,451.88L273.85,451.88c-0.59,0-0.88-0.44-0.88-0.88c6.44-96.11,0-327.39-1.32-372.74
		c0-0.44,0.29-0.88,0.88-0.88c0.44,0,0.88,0.29,0.88,0.88c1.32,45.35,7.61,276.77,1.32,372.88
		C274.72,451.58,274.29,451.88,273.85,451.88z"/>
	<path id="XMLID_156_" class="st3" d="M281.75,451.29L281.75,451.29c-0.44,0-0.88-0.44-0.88-0.88
		c2.93-65.39,5.56-182.42,1.32-369.52v-1.9c0-0.44,0.29-0.88,0.88-0.88c0.59,0,0.88,0.29,0.88,0.88v1.9
		c4.24,187.1,1.61,304.27-1.32,369.66C282.48,450.85,282.19,451.29,281.75,451.29z"/>
	<path id="XMLID_159_" class="st3" d="M394.09,386.34h-0.29c-0.44-0.15-0.73-0.59-0.59-1.02c27.06-137.22,22.09-217.38,16.68-252.93
		c0-0.44,0.15-0.73,0.59-0.88c0.44-0.15,0.88,0,1.02,0.44c3.36,6.29,5.27,13.02,5.85,20.19l0.73,9.65
		c4.39,56.32,8.19,104.89-11.7,183.44c-3.95,15.8-7.46,28.82-11.56,40.67C394.68,386.05,394.39,386.34,394.09,386.34z M412.38,137.8
		c4.83,36.72,8.05,111.47-14.77,233.76c2.34-8.05,4.68-16.97,7.17-26.92c19.89-78.26,16.09-126.68,11.7-182.86l-0.73-9.65
		C415.31,147.16,414.13,142.34,412.38,137.8z"/>
	<path id="XMLID_160_" class="st3" d="M313.78,446.9L313.78,446.9c-0.59,0-0.88-0.44-0.88-0.88
		c18.58-175.69,10.83-332.07,8.92-361.62c0-0.44,0.29-0.88,0.73-0.88s0.88,0.29,0.88,0.73c1.76,29.55,9.65,186.08-9.07,361.91
		C314.66,446.61,314.22,446.9,313.78,446.9z"/>
	<path id="XMLID_161_" class="st3" d="M289.79,450.41L289.79,450.41c-0.59,0-0.88-0.44-0.88-0.88
		c7.02-116.74,7.61-238.45,1.9-361.62c-0.15-3.36-0.29-6-0.44-8.19c0-0.44,0.29-0.88,0.88-0.88c0.44,0,0.88,0.29,0.88,0.88
		c0.15,2.05,0.15,4.83,0.44,8.19c5.71,123.32,4.97,245.03-1.9,361.91C290.67,450.12,290.23,450.41,289.79,450.41z"/>
	<path id="XMLID_162_" class="st3" d="M305.74,448.37L305.74,448.37c-0.59,0-0.88-0.44-0.88-0.88
		c15.95-193.97,8.78-337.92,7.17-364.84c0-0.44,0.29-0.88,0.73-0.88s0.88,0.29,0.88,0.73c1.61,26.92,8.78,171.01-7.17,365.13
		C306.47,447.93,306.18,448.37,305.74,448.37z"/>
	<path id="XMLID_163_" class="st3" d="M298.13,449.39L298.13,449.39c-0.44,0-0.88-0.44-0.88-0.88
		c1.9-40.08,11.41-246.35,4.97-367.47c0-0.44,0.29-0.88,0.73-0.88s0.88,0.29,0.88,0.73c6.58,121.27-2.93,327.53-4.97,367.62
		C298.86,449.1,298.57,449.39,298.13,449.39z"/>
	
		<linearGradient id="XMLID_00000072992996945979864930000001541670888034666416_" gradientUnits="userSpaceOnUse" x1="-165.7577" y1="555.8017" x2="-164.2948" y2="555.8017" gradientTransform="matrix(-73.1467 -59.295 59.295 -73.1467 -44669.8711 30910.5508)">
		<stop  offset="0" style="stop-color:#DEDEDE"/>
		<stop  offset="5.617980e-03" style="stop-color:#DEDEDE"/>
		<stop  offset="0.1616" style="stop-color:#D2D1D1"/>
		<stop  offset="1" style="stop-color:#918F8F"/>
	</linearGradient>
	<path id="XMLID_164_" style="fill:url(#XMLID_00000072992996945979864930000001541670888034666416_);" d="M446.17,100.06
		l-0.29-7.02c-35.55-43.59-87.63-73.29-154.33-80.6C329.29,20.04,401.12,41.84,446.17,100.06z"/>
	
		<linearGradient id="XMLID_00000039097603514765975840000012367947971440613518_" gradientUnits="userSpaceOnUse" x1="-163.0833" y1="554.1613" x2="-161.6205" y2="554.1613" gradientTransform="matrix(128.6339 0 0 128.6339 21069.4277 -71222.8438)">
		<stop  offset="0" style="stop-color:#DEDEDE"/>
		<stop  offset="5.617980e-03" style="stop-color:#DEDEDE"/>
		<stop  offset="0.1834" style="stop-color:#9B999A"/>
		<stop  offset="0.3652" style="stop-color:#5A5758"/>
		<stop  offset="1" style="stop-color:#DEDEDE"/>
	</linearGradient>
	<path id="XMLID_165_" style="fill:url(#XMLID_00000039097603514765975840000012367947971440613518_);" d="M291.4,12.43
		c-10.53-1.17-21.5-1.76-32.77-1.76c-73.14,0-136.92,23.41-181.54,68.46l-14.92,27.21C71.68,90.4,118.2,27.21,256.29,29.7
		c151.55,2.78,190.32,81.77,190.32,81.77l-0.59-11.56C401.12,41.84,329.29,20.04,291.4,12.43z"/>
	
		<linearGradient id="XMLID_00000152229583774451113410000011767604998223381638_" gradientUnits="userSpaceOnUse" x1="-165.3854" y1="558.4487" x2="-163.9225" y2="558.4487" gradientTransform="matrix(2.516614e-09 -56.0536 56.0536 2.516614e-09 -30845.041 -8917.5605)">
		<stop  offset="0" style="stop-color:#A7A6A6"/>
		<stop  offset="5.617980e-03" style="stop-color:#A7A6A6"/>
		<stop  offset="0.225" style="stop-color:#9A9999"/>
		<stop  offset="0.7013" style="stop-color:#838182"/>
		<stop  offset="1" style="stop-color:#7B7979"/>
	</linearGradient>
	<path id="XMLID_166_" style="fill:url(#XMLID_00000152229583774451113410000011767604998223381638_);" d="M501.17,261.27
		c0-64.8-19.16-123.9-55.44-168.37c0,0,47.4,65.68,49.88,149.65c0.88,29.55-4.24,58.95-12.87,87.19
		c-10.24,33.79-29.7,75.92-67.88,114.69C467.38,402.14,501.17,337.77,501.17,261.27z"/>
	<path id="XMLID_167_" class="st7" d="M495.62,242.54c-2.49-83.97-49.88-149.65-49.88-149.65s50.03,84.26,47.84,187.98
		C495.32,268.29,496.05,255.41,495.62,242.54z"/>
	<path id="XMLID_168_" class="st7" d="M464.9,133.27c-10.09-25.16-19.02-40.23-19.02-40.23l0.88,18.58l23.11,58.22
		c0,0,0-3.51,0-9.22C469.72,156.23,466.36,145.7,464.9,133.27z"/>
	
		<linearGradient id="XMLID_00000174574673626959094480000010150644202667934356_" gradientUnits="userSpaceOnUse" x1="-164.5339" y1="555.4623" x2="-163.0711" y2="555.4623" gradientTransform="matrix(8.837211e-09 -196.8348 196.8348 8.837211e-09 -108877.5781 -31946.4141)">
		<stop  offset="0" style="stop-color:#A7A6A6"/>
		<stop  offset="5.617980e-03" style="stop-color:#A7A6A6"/>
		<stop  offset="0.1011" style="stop-color:#9A9999"/>
		<stop  offset="0.3083" style="stop-color:#838182"/>
		<stop  offset="0.4382" style="stop-color:#7B7979"/>
		<stop  offset="0.7224" style="stop-color:#797777"/>
		<stop  offset="0.8339" style="stop-color:#727070"/>
		<stop  offset="0.915" style="stop-color:#666464"/>
		<stop  offset="0.981" style="stop-color:#555353"/>
		<stop  offset="1" style="stop-color:#4F4C4D"/>
	</linearGradient>
	<path id="XMLID_169_" style="fill:url(#XMLID_00000174574673626959094480000010150644202667934356_);" d="M464.9,133.27
		c1.61,12.43,4.97,22.97,4.97,27.36c0,0,13.17,23.11,13.17,41.55s4.97,32.77,4.97,57.2c0,24.58,4.24,75.34-52.66,157.11
		c-5.27,7.61-10.68,15.65-15.65,23.11c35.11-37.45,53.39-77.39,63.2-109.86c4.83-15.95,8.63-32.18,10.83-48.71
		C494.88,221.04,478.65,167.64,464.9,133.27z"/>
	<path id="XMLID_170_" class="st7" d="M414.43,444.85c-26.04,16.24-89.67,50.91-159.31,50.91c-74.9,0-176.71-29.99-215.63-137.65
		C25.16,318.17,19.6,290.52,19.6,244.44c0-65.24,27.65-128.88,57.49-165.01l-0.44,0.44c-3.36,3.51-28.53,31.01-46.08,80.75
		C6.88,227.47-2.34,330.75,81.04,432.57c44.03,41.84,105.91,66.41,177.44,66.41C317.44,498.69,372,478.94,414.43,444.85z"/>
	<path id="XMLID_171_" class="st9" d="M30.72,160.33c17.55-49.59,42.86-77.24,46.08-80.75c-41.55,42.13-66.27,103.28-66.27,181.69
		c0,69.34,26.33,128.88,70.66,170.86C-2.19,330.31,7.02,227.18,30.72,160.33z"/>
	
		<linearGradient id="XMLID_00000003076029628383042500000008560207891987553191_" gradientUnits="userSpaceOnUse" x1="-202.8271" y1="469.0697" x2="-201.3642" y2="469.0697" gradientTransform="matrix(-1.2959 0.6472 -0.6472 -1.2959 92.7309 1116.0841)">
		<stop  offset="0" style="stop-color:#A7A6A6"/>
		<stop  offset="5.617980e-03" style="stop-color:#A7A6A6"/>
		<stop  offset="0.1011" style="stop-color:#9A9999"/>
		<stop  offset="0.3083" style="stop-color:#838182"/>
		<stop  offset="0.4382" style="stop-color:#7B7979"/>
		<stop  offset="0.7224" style="stop-color:#797777"/>
		<stop  offset="0.8339" style="stop-color:#727070"/>
		<stop  offset="0.915" style="stop-color:#666464"/>
		<stop  offset="0.981" style="stop-color:#555353"/>
		<stop  offset="1" style="stop-color:#4F4C4D"/>
	</linearGradient>
	<path id="XMLID_172_" style="fill:url(#XMLID_00000003076029628383042500000008560207891987553191_);" d="M32.77,337.92
		c2.05,6.44,4.24,13.02,6.73,20.04c7.61,21.21,17.85,39.5,29.7,55l4.53,1.76C55.88,386.93,40.52,354.74,32.77,337.92z"/>
	
		<linearGradient id="XMLID_00000054957936201891656240000017905686194095613887_" gradientUnits="userSpaceOnUse" x1="-163.8857" y1="553.7455" x2="-162.4228" y2="553.7455" gradientTransform="matrix(26.7304 187.1128 -187.1128 26.7304 108035.4531 15993.5527)">
		<stop  offset="0" style="stop-color:#A7A6A6"/>
		<stop  offset="5.617980e-03" style="stop-color:#A7A6A6"/>
		<stop  offset="0.1011" style="stop-color:#9A9999"/>
		<stop  offset="0.3083" style="stop-color:#838182"/>
		<stop  offset="0.4382" style="stop-color:#7B7979"/>
		<stop  offset="0.7224" style="stop-color:#797777"/>
		<stop  offset="0.8339" style="stop-color:#727070"/>
		<stop  offset="0.915" style="stop-color:#666464"/>
		<stop  offset="0.981" style="stop-color:#555353"/>
		<stop  offset="1" style="stop-color:#4F4C4D"/>
	</linearGradient>
	<path id="XMLID_173_" style="fill:url(#XMLID_00000054957936201891656240000017905686194095613887_);" d="M86.45,426.42
		c-29.55-45.93-59.68-91.72-59.68-175.25s35.4-144.82,35.4-144.82l14.92-27.21C47.1,115.27,19.6,178.91,19.6,244.15
		c0,38.03,3.8,63.49,13.17,93.62c7.75,16.82,23.26,49.01,40.96,76.8l-4.53-1.76c3.36,4.39,6.73,8.48,10.39,12.43L86.45,426.42z"/>
	
		<linearGradient id="XMLID_00000071555936149882022400000012084825995921267365_" gradientUnits="userSpaceOnUse" x1="-126.9061" y1="536.3527" x2="-125.4432" y2="536.3527" gradientTransform="matrix(3.5491 4.6337 -4.6337 3.5491 3333.043 -865.9296)">
		<stop  offset="0" style="stop-color:#231F20"/>
		<stop  offset="5.617980e-03" style="stop-color:#231F20"/>
		<stop  offset="0.0778" style="stop-color:#373334"/>
		<stop  offset="0.2339" style="stop-color:#5C595A"/>
		<stop  offset="0.3596" style="stop-color:#737071"/>
		<stop  offset="0.4382" style="stop-color:#7B7979"/>
		<stop  offset="0.7224" style="stop-color:#797777"/>
		<stop  offset="0.8339" style="stop-color:#727070"/>
		<stop  offset="0.915" style="stop-color:#666464"/>
		<stop  offset="0.981" style="stop-color:#555353"/>
		<stop  offset="1" style="stop-color:#4F4C4D"/>
	</linearGradient>
	<path id="XMLID_174_" style="fill:url(#XMLID_00000071555936149882022400000012084825995921267365_);" d="M414.43,444.85
		c0.15-0.15,0.29-0.29,0.44-0.29c1.61-1.61,3.22-3.22,4.68-4.97c1.32-2.05,2.78-4.1,4.24-6.29c-14.92,13.02-38.91,27.21-51.64,34.23
		C390.29,459.19,404.92,450.71,414.43,444.85z"/>
	
		<linearGradient id="XMLID_00000137112121538361708150000001133666687943573919_" gradientUnits="userSpaceOnUse" x1="-164.8295" y1="555.9041" x2="-163.3667" y2="555.9041" gradientTransform="matrix(13.122 -111.7793 111.7793 13.122 -59715.9492 -25251.0371)">
		<stop  offset="0" style="stop-color:#A7A6A6"/>
		<stop  offset="5.617980e-03" style="stop-color:#A7A6A6"/>
		<stop  offset="0.1011" style="stop-color:#9A9999"/>
		<stop  offset="0.3083" style="stop-color:#838182"/>
		<stop  offset="0.4382" style="stop-color:#7B7979"/>
		<stop  offset="0.7224" style="stop-color:#797777"/>
		<stop  offset="0.8339" style="stop-color:#727070"/>
		<stop  offset="0.915" style="stop-color:#666464"/>
		<stop  offset="0.981" style="stop-color:#555353"/>
		<stop  offset="1" style="stop-color:#4F4C4D"/>
	</linearGradient>
	<path id="XMLID_175_" style="fill:url(#XMLID_00000137112121538361708150000001133666687943573919_);" d="M394.53,450.41
		c-0.15,0.15-0.29,0.15-0.44,0.29c-24.58,16.09-73.87,34.52-145.41,34.52c-76.21,0-125.95-26.33-141.17-39.2
		c-7.31-6.29-12.87-8.48-16.53-9.22c47.84,44.32,112.35,58.66,164.13,58.66c44.03,0,85.72-13.9,117.03-28.23
		c12.58-7.02,36.72-21.07,51.64-34.23c3.8-5.56,7.61-11.26,11.41-16.82c0.29-0.44,0.59-0.88,1.02-1.46l3.8-13.9
		C440.03,401.26,416.33,435.93,394.53,450.41z"/>
	
		<linearGradient id="XMLID_00000159437336328880833390000011161365629726854054_" gradientUnits="userSpaceOnUse" x1="-154.8246" y1="553.0132" x2="-153.3617" y2="553.0132" gradientTransform="matrix(23.7521 11.3103 -11.3103 23.7521 10384.8525 -11043.5859)">
		<stop  offset="0" style="stop-color:#393637"/>
		<stop  offset="5.617980e-03" style="stop-color:#393637"/>
		<stop  offset="0.1376" style="stop-color:#5B5959"/>
		<stop  offset="0.2536" style="stop-color:#737071"/>
		<stop  offset="0.3258" style="stop-color:#7B7979"/>
		<stop  offset="0.4102" style="stop-color:#747272"/>
		<stop  offset="0.7823" style="stop-color:#595657"/>
		<stop  offset="1" style="stop-color:#4F4C4D"/>
	</linearGradient>
	<path id="XMLID_176_" style="fill:url(#XMLID_00000159437336328880833390000011161365629726854054_);" d="M487.86,274.72
		c-17.85,20.48-26.04,49.01-34.23,75.63c-8.78,28.38-8.78,42.13-13.75,50.91l-3.8,13.9C482.3,348.31,487.57,302.37,487.86,274.72z"
		/>
	
		<linearGradient id="XMLID_00000008146918437595143350000011103978080971045005_" gradientUnits="userSpaceOnUse" x1="-183.6561" y1="548.8202" x2="-182.1933" y2="548.8202" gradientTransform="matrix(-11.8252 1.9438 -1.9438 -11.8252 -618.1266 7037.4839)">
		<stop  offset="0" style="stop-color:#393637"/>
		<stop  offset="5.617980e-03" style="stop-color:#393637"/>
		<stop  offset="0.1156" style="stop-color:#423F40"/>
		<stop  offset="0.296" style="stop-color:#5B5858"/>
		<stop  offset="0.5243" style="stop-color:#828080"/>
		<stop  offset="0.7887" style="stop-color:#B8B7B7"/>
		<stop  offset="1" style="stop-color:#E9E8E8"/>
	</linearGradient>
	<path id="XMLID_177_" style="fill:url(#XMLID_00000008146918437595143350000011103978080971045005_);" d="M480.84,229.67
		c3.07,0.73-1.46-8.34,2.34-19.46c-0.15-2.63-0.29-5.27-0.29-8.05c0-18.43-13.17-41.55-13.17-41.55c0,5.71,0,9.22,0,9.22
		l-5.41-13.75c1.17,6,2.78,13.9,4.39,23.99C472.65,204.51,475.87,228.5,480.84,229.67z"/>
	<path id="XMLID_178_" class="st7" d="M475.87,220.01L475.87,220.01c-2.49-9.51-4.68-24.72-7.17-40.08
		c-1.61-10.09-3.22-17.99-4.39-23.99l-9.07-22.82c4.68,19.02,10.09,37.89,13.46,56.47C473.09,215.04,475.87,220.01,475.87,220.01z"
		/>
	<path id="XMLID_179_" class="st7" d="M381.81,59.83c24.14,10.83,41.11,24.72,53.54,40.23c10.24,12.73,19.02,36.13,25.45,55.3
		c-1.9-7.31-3.8-14.63-5.71-22.09l-8.48-21.5c0,0-38.77-79.14-190.32-81.77c-49.15-0.88-87.92,8.63-117.47,21.21
		c26.04-7.31,71.09-18.14,106.93-18.14C291.84,32.77,331.63,37.3,381.81,59.83z"/>
	
		<linearGradient id="XMLID_00000170972726340911052140000011165955024476714403_" gradientUnits="userSpaceOnUse" x1="-168.4961" y1="553.3286" x2="-167.0333" y2="553.3286" gradientTransform="matrix(-29.7373 9.1801 -9.1801 -29.7373 237.7081 18067.1855)">
		<stop  offset="0" style="stop-color:#918F8F"/>
		<stop  offset="5.617980e-03" style="stop-color:#918F8F"/>
		<stop  offset="1" style="stop-color:#918F8F"/>
	</linearGradient>
	<path id="XMLID_180_" style="fill:url(#XMLID_00000170972726340911052140000011165955024476714403_);" d="M182.27,49.44l0.15-2.78
		C118.64,59.68,82.36,89.23,74.61,111.18c0,0,1.17-0.59,2.78-0.73c1.9-2.63,4.68-6.29,7.75-10.53
		C91.28,91.14,121.86,60.85,182.27,49.44z"/>
	
		<linearGradient id="XMLID_00000135661032732525409770000000015950893265550467_" gradientUnits="userSpaceOnUse" x1="-163.551" y1="554.2872" x2="-162.0874" y2="554.2872" gradientTransform="matrix(252.5768 0 0 252.5768 41386.4258 -139883.4844)">
		<stop  offset="0" style="stop-color:#FFFFFF"/>
		<stop  offset="5.617980e-03" style="stop-color:#FFFFFF"/>
		<stop  offset="0.0605" style="stop-color:#E6E6E6"/>
		<stop  offset="0.1613" style="stop-color:#BEBDBD"/>
		<stop  offset="0.2685" style="stop-color:#9C9A9A"/>
		<stop  offset="0.3814" style="stop-color:#807E7E"/>
		<stop  offset="0.5019" style="stop-color:#6A6868"/>
		<stop  offset="0.6336" style="stop-color:#5B5859"/>
		<stop  offset="0.7848" style="stop-color:#524F50"/>
		<stop  offset="1" style="stop-color:#4F4C4D"/>
	</linearGradient>
	<path id="XMLID_181_" style="fill:url(#XMLID_00000135661032732525409770000000015950893265550467_);" d="M446.46,138.39
		c-1.76-4.83-8.63-26.62-21.5-41.55c-12.87-15.07-64.8-56.91-172.47-56.91c-26.19,0-49.59,2.49-70.07,6.73l-0.15,2.78
		C122,60.85,91.43,91.28,84.99,99.91c-3.07,4.24-5.71,7.9-7.75,10.53c0.88,0,1.9,0.15,3.07,0.59c3.36,1.32,2.93,1.46,5.56,2.63
		c2.63,1.17,3.36,2.05,10.97-6.29c7.46-8.34,48.71-43.3,155.94-43.3c65.54,0,125.95,12.73,158.57,43.59
		c6.29,8.19,16.38,16.68,23.11,85.58c-0.44-10.53-1.02-18.72-1.46-22.82c0-0.15-2.78-15.21-2.78-26.33c0-3.66,0.44-6.14,3.36-4.68
		c3.07,1.46,4.83,0.44,7.31,1.61c2.19,1.02,6.29,2.05,6-1.02C446.76,139.56,446.61,138.97,446.46,138.39z"/>
	
		<linearGradient id="XMLID_00000010278068436103632080000011883345969618721213_" gradientUnits="userSpaceOnUse" x1="-66.6387" y1="533.8055" x2="-65.1759" y2="533.8055" gradientTransform="matrix(2.0674 1.3168 -1.3168 2.0674 1280.755 -636.9499)">
		<stop  offset="0" style="stop-color:#BDBBBC"/>
		<stop  offset="5.617980e-03" style="stop-color:#BDBBBC"/>
		<stop  offset="0.1642" style="stop-color:#C5C5C5"/>
		<stop  offset="0.4233" style="stop-color:#DEDDDD"/>
		<stop  offset="0.5225" style="stop-color:#E9E8E8"/>
		<stop  offset="1" style="stop-color:#918F8F"/>
	</linearGradient>
	<path id="XMLID_182_" style="fill:url(#XMLID_00000010278068436103632080000011883345969618721213_);" d="M440.17,371.13
		c-0.15,0.29-2.93,4.24-6.44,11.56C435.93,379.47,438.13,375.52,440.17,371.13z"/>
	
		<linearGradient id="XMLID_00000150097865935079971490000001825723864019698109_" gradientUnits="userSpaceOnUse" x1="-164.4793" y1="551.8584" x2="-163.0164" y2="551.8584" gradientTransform="matrix(-37.9097 90.7238 -90.7238 -37.9097 44300.7852 36102.707)">
		<stop  offset="0" style="stop-color:#2E2B2C"/>
		<stop  offset="5.617980e-03" style="stop-color:#2E2B2C"/>
		<stop  offset="0.5225" style="stop-color:#918F8F"/>
		<stop  offset="1" style="stop-color:#393637"/>
	</linearGradient>
	<path id="XMLID_184_" style="fill:url(#XMLID_00000150097865935079971490000001825723864019698109_);" d="M487.86,259.36
		c0-20.77-3.51-34.23-4.68-49.15c-3.8,11.12,0.73,20.19-2.34,19.46c-1.9-0.44-3.51-4.1-4.97-9.65c0,0-2.78-4.83-7.17-29.55
		c0.44,12.87,1.02,37.6-0.15,60.42c-1.9,38.03-14.19,90.55-28.38,120.25l0,0l0,0c-2.05,4.39-4.24,8.34-6.44,11.56
		c-2.78,5.85-4.68,23.55-12.73,42.72c10.97-12.58,18.87-24.28,18.87-24.28c4.97-8.78,4.97-22.53,13.75-50.91
		c8.19-26.48,16.38-55.15,34.23-75.63C488.01,268.73,487.86,263.75,487.86,259.36z"/>
	
		<linearGradient id="XMLID_00000070086793245883111170000006990706131738076823_" gradientUnits="userSpaceOnUse" x1="-163.6256" y1="551.5947" x2="-162.1628" y2="551.5947" gradientTransform="matrix(1.2958 85.8649 -85.8649 1.2958 48022.3984 13533.0137)">
		<stop  offset="0" style="stop-color:#393637"/>
		<stop  offset="5.617980e-03" style="stop-color:#393637"/>
		<stop  offset="0.1013" style="stop-color:#423F40"/>
		<stop  offset="0.2582" style="stop-color:#5B5858"/>
		<stop  offset="0.4556" style="stop-color:#828080"/>
		<stop  offset="0.5225" style="stop-color:#918F8F"/>
		<stop  offset="1" style="stop-color:#393637"/>
	</linearGradient>
	<path id="XMLID_185_" style="fill:url(#XMLID_00000070086793245883111170000006990706131738076823_);" d="M458.75,168.08
		c-4.1-18.87-9.36-25.75-12-28.23c0.29,3.07-3.8,2.19-6,1.02c-2.49-1.17-4.24-0.15-7.31-1.61c-3.07-1.46-3.36,0.88-3.36,4.68
		c0,11.12,2.78,26.19,2.78,26.33l0,0c0,0,4.24-8.05,7.17,10.24c2.05,13.02,4.68,21.94,4.83,31.74c5.71,5.56,17.7,20.48,16.82,45.64
		c-0.59,17.7-2.93,36.43-4.97,49.88c1.46-6.29,2.93-12.87,4.39-19.46C468.7,252.64,464.46,194.71,458.75,168.08z"/>
	
		<linearGradient id="XMLID_00000012445906787298463420000009835451125731403430_" gradientUnits="userSpaceOnUse" x1="-164.0403" y1="550.3539" x2="-162.5774" y2="550.3539" gradientTransform="matrix(-13.2844 59.6162 -59.6162 -13.2844 31090.0801 17355.0898)">
		<stop  offset="0" style="stop-color:#BDBBBC"/>
		<stop  offset="5.617980e-03" style="stop-color:#BDBBBC"/>
		<stop  offset="0.1642" style="stop-color:#C5C5C5"/>
		<stop  offset="0.4233" style="stop-color:#DEDDDD"/>
		<stop  offset="0.5225" style="stop-color:#E9E8E8"/>
		<stop  offset="1" style="stop-color:#918F8F"/>
	</linearGradient>
	<path id="XMLID_187_" style="fill:url(#XMLID_00000012445906787298463420000009835451125731403430_);" d="M463.14,197.92
		c2.78,28.53,3.36,65.1-2.05,90.4c-1.46,6.58-2.78,13.02-4.39,19.46c-1.76,11.56-3.22,19.31-3.22,19.31s1.46-7.75,3.22-19.31
		c-6.44,27.79-13.6,52.96-22.82,74.9c3.51-7.46,6.14-11.26,6.44-11.56c14.19-29.7,26.48-82.36,28.38-120.25
		c0.59-10.53,0.73-21.5,0.73-31.45L463.14,197.92z"/>
	<path id="XMLID_188_" class="st22" d="M406.53,423.5c-3.36,7.02-11.12,17.41-29.11,27.94c-31.01,17.99-63.05,28.82-124.93,28.82
		S104.59,465.33,77.53,396s-37.01-87.04-37.01-176.27c0-49.74,10.24-93.48,37.3-125.07l21.8-22.24
		c-23.99,16.38-35.69,31.74-37.3,33.94l-0.15,0.29c0,0-35.4,61.29-35.4,144.82s30.28,129.46,59.68,175.25l-6.88-1.02
		c3.66,4.1,7.46,7.9,11.41,11.56c3.8,0.73,9.22,2.93,16.53,9.22c15.21,12.87,64.95,39.2,141.17,39.2
		c71.39,0,120.83-18.58,145.41-34.52c9.36-6.14,19.02-15.95,27.06-25.31c3.36-8.19,5.71-16.09,7.46-22.82
		C412.96,422.47,406.53,423.5,406.53,423.5z"/>
	
		<linearGradient id="XMLID_00000137107143256488718100000010836195518759137177_" gradientUnits="userSpaceOnUse" x1="-163.7112" y1="556.7787" x2="-162.2483" y2="556.7787" gradientTransform="matrix(48.2509 -80.4178 80.4178 48.2509 -36476.6797 -39614.5586)">
		<stop  offset="0" style="stop-color:#3E3B3B"/>
		<stop  offset="5.617980e-03" style="stop-color:#3E3B3B"/>
		<stop  offset="0.0655" style="stop-color:#535051"/>
		<stop  offset="0.2572" style="stop-color:#939191"/>
		<stop  offset="0.4188" style="stop-color:#C1C0C0"/>
		<stop  offset="0.542" style="stop-color:#DEDDDD"/>
		<stop  offset="0.6124" style="stop-color:#E9E8E8"/>
		<stop  offset="0.6625" style="stop-color:#DDDCDC"/>
		<stop  offset="0.7532" style="stop-color:#BEBCBD"/>
		<stop  offset="0.8741" style="stop-color:#8B8989"/>
		<stop  offset="1" style="stop-color:#4F4C4D"/>
	</linearGradient>
	<path id="XMLID_189_" style="fill:url(#XMLID_00000137107143256488718100000010836195518759137177_);" d="M439.73,338.07
		c0,0-1.02,3.22-18.87,30.87c-9.36,14.63-14.34,18.14-16.82,18.14c-5.41,15.8-12,29.55-21.94,40.23c1.61,2.63,4.83,5.56,10.53,5.56
		c5.41,0,9.36-2.63,13.9-9.36c4.24-6.29,9.07-16.24,15.95-31.01C436.52,362.35,439.73,338.07,439.73,338.07z"/>
	
		<linearGradient id="XMLID_00000038380247540029798000000010944578120528199356_" gradientUnits="userSpaceOnUse" x1="-164.3418" y1="551.7217" x2="-162.879" y2="551.7217" gradientTransform="matrix(-27.7032 87.9698 -87.9698 -27.7032 44441.1797 29977.7344)">
		<stop  offset="0" style="stop-color:#3E3B3B"/>
		<stop  offset="5.617980e-03" style="stop-color:#3E3B3B"/>
		<stop  offset="0.0395" style="stop-color:#626060"/>
		<stop  offset="0.0837" style="stop-color:#8B898A"/>
		<stop  offset="0.1289" style="stop-color:#ADACAC"/>
		<stop  offset="0.1747" style="stop-color:#C7C6C6"/>
		<stop  offset="0.2213" style="stop-color:#DAD9D9"/>
		<stop  offset="0.2692" style="stop-color:#E5E4E5"/>
		<stop  offset="0.3202" style="stop-color:#E9E8E8"/>
		<stop  offset="0.7753" style="stop-color:#E9E8E8"/>
		<stop  offset="0.902" style="stop-color:#D9D8D8"/>
		<stop  offset="1" style="stop-color:#D3D2D2"/>
	</linearGradient>
	<path id="XMLID_190_" style="fill:url(#XMLID_00000038380247540029798000000010944578120528199356_);" d="M415.16,347.28
		c-3.66,14.19-7.02,27.65-11.26,39.94c2.63,0,7.46-3.51,16.82-18.14c17.7-27.79,18.87-30.87,18.87-30.87s-3.22,24.14-17.26,54.42
		c-6.88,14.77-11.56,24.58-15.95,31.01c0,0,6.44-1.02,21.94-20.92c2.34-9.22,3.66-16.53,5.27-19.89
		c9.22-21.94,16.38-47.1,22.82-74.9c2.05-13.46,4.39-32.18,4.97-49.88c0.88-25.16-11.12-40.08-16.82-45.64
		c0,3.8-0.29,7.9-1.17,12.43c-3.36,15.95-7.61,30.57-9.65,48.57c-2.19,17.99-5.85,29.11-5.85,29.11l-3.36,0.44
		C422.33,316.71,419.25,331.48,415.16,347.28z"/>
	
		<linearGradient id="XMLID_00000005261005313514876660000001924152409525419653_" gradientUnits="userSpaceOnUse" x1="-162.8016" y1="555.2344" x2="-161.3388" y2="555.2344" gradientTransform="matrix(91.3741 4.8603 -4.8603 91.3741 17624.5137 -49539.9023)">
		<stop  offset="0" style="stop-color:#3E3B3B"/>
		<stop  offset="5.617980e-03" style="stop-color:#3E3B3B"/>
		<stop  offset="0.1038" style="stop-color:#535051"/>
		<stop  offset="0.418" style="stop-color:#939191"/>
		<stop  offset="0.6828" style="stop-color:#C1C0C0"/>
		<stop  offset="0.8847" style="stop-color:#DEDDDD"/>
		<stop  offset="1" style="stop-color:#E9E8E8"/>
	</linearGradient>
	<path id="XMLID_191_" style="fill:url(#XMLID_00000005261005313514876660000001924152409525419653_);" d="M116.3,441.93
		c-21.21-14.34-43.45-59.98-48.86-80.75c-2.63-10.09-7.75-18.72-12.29-25.01c5.56,17.12,13.02,35.11,22.53,59.68
		c27.06,69.34,113.08,84.26,174.96,84.26c49.44,0,79.87-6.88,105.91-18.87c-21.07,6.58-60.12,16.38-104.89,16.38
		C186.37,477.62,137.51,456.41,116.3,441.93z"/>
	
		<linearGradient id="XMLID_00000020380841505240904220000015078943716144079771_" gradientUnits="userSpaceOnUse" x1="-163.6092" y1="554.2968" x2="-162.1472" y2="554.2968" gradientTransform="matrix(278.4541 0 0 278.4541 45619.8242 -154220.1094)">
		<stop  offset="0" style="stop-color:#2E2B2C"/>
		<stop  offset="5.617980e-03" style="stop-color:#2E2B2C"/>
		<stop  offset="0.0446" style="stop-color:#2F2B2C"/>
		<stop  offset="1" style="stop-color:#393637"/>
	</linearGradient>
	<path id="XMLID_192_" style="fill:url(#XMLID_00000020380841505240904220000015078943716144079771_);" d="M468.85,190.46
		c0-0.29-0.15-0.59-0.15-0.73c-2.05-11.41-4.83-22.82-7.75-34.38c-6.44-19.16-15.21-42.57-25.45-55.3
		c-12.43-15.51-29.4-29.4-53.54-40.23c-50.18-22.53-89.97-27.06-135.9-27.06c-35.84,0-80.9,10.97-106.93,18.14
		c-15.51,6.58-28.53,14.04-39.06,21.36L78.26,94.5c-0.15,0.15-0.29,0.44-0.59,0.73c-4.39,7.9-11.12,20.48-15.51,32.04
		c6.44-12.58,12.43-16.09,12.43-16.09c10.39-29.11,70.22-71.24,177.88-71.24s159.6,41.98,172.47,56.91
		c12.87,14.92,19.75,36.72,21.5,41.55c0.29,0.59,0.29,1.02,0.29,1.46c2.78,2.34,8.05,9.22,12,28.23c1.61,7.75,3.22,18.14,4.39,29.84
		l6.14,21.5C469.28,207.73,468.99,197.34,468.85,190.46z"/>
	
		<linearGradient id="XMLID_00000080905960373884170270000004805706300387516811_" gradientUnits="userSpaceOnUse" x1="-166.4947" y1="553.6474" x2="-165.0318" y2="553.6474" gradientTransform="matrix(-58.8098 25.5167 -25.5167 -58.8098 4568.8774 36831.5156)">
		<stop  offset="0" style="stop-color:#DEDEDE"/>
		<stop  offset="5.617980e-03" style="stop-color:#DEDEDE"/>
		<stop  offset="0.1616" style="stop-color:#D2D1D1"/>
		<stop  offset="1" style="stop-color:#918F8F"/>
	</linearGradient>
	<path id="XMLID_193_" style="fill:url(#XMLID_00000080905960373884170270000004805706300387516811_);" d="M99.77,72.27
		c10.53-7.31,23.55-14.77,39.06-21.36c29.55-12.58,68.32-22.09,117.47-21.21C118.2,27.21,71.68,90.4,62.17,106.35l0.15-0.29
		C64.07,104.01,75.78,88.65,99.77,72.27z"/>
	
		<linearGradient id="XMLID_00000168804567350330811710000013082832889571797120_" gradientUnits="userSpaceOnUse" x1="-165.3158" y1="553.5385" x2="-163.8529" y2="553.5385" gradientTransform="matrix(-139.484 0 0 -139.484 -22760.1504 77642.2109)">
		<stop  offset="0" style="stop-color:#4B4848"/>
		<stop  offset="0.0285" style="stop-color:#444141"/>
		<stop  offset="0.073" style="stop-color:#3E3B3B"/>
		<stop  offset="0.191" style="stop-color:#5F5C5D"/>
		<stop  offset="0.3873" style="stop-color:#908E8E"/>
		<stop  offset="0.5727" style="stop-color:#B6B5B5"/>
		<stop  offset="0.7422" style="stop-color:#D2D1D1"/>
		<stop  offset="0.89" style="stop-color:#E3E2E2"/>
		<stop  offset="1" style="stop-color:#E9E8E8"/>
	</linearGradient>
	<path id="XMLID_194_" style="fill:url(#XMLID_00000168804567350330811710000013082832889571797120_);" d="M381.95,427.45
		c-1.32,1.32-2.63,2.63-3.95,3.95c-26.62,24.14-93.77,30.43-125.51,30.43c-23.26,0-45.35-2.05-66.12-6
		c-68.02-7.31-77.53-46.08-80.02-52.96c-2.63-7.31-3.95-3.95-5.41-5.41c-1.46-1.46-1.17-0.73-7.02-4.83
		c-5.85-4.1-3.95-1.76-8.05-4.39c-4.1-2.49-3.51,0-2.34,5.27c0.73,3.07,6.14,14.77,10.39,23.7c7.02,10.53,14.63,19.6,22.24,24.72
		c21.21,14.48,70.07,35.69,137.51,35.69c44.76,0,83.68-9.8,104.89-16.38c6.44-2.93,12.73-6.29,18.87-9.8
		c1.02-0.59,1.9-1.17,2.93-1.76c4.1-6.29,7.46-12.58,9.51-16.97C385.76,431.84,383.41,429.49,381.95,427.45z"/>
	
		<linearGradient id="XMLID_00000103235780344463170540000006244568497557171590_" gradientUnits="userSpaceOnUse" x1="-152.3229" y1="560.0811" x2="-150.8601" y2="560.0811" gradientTransform="matrix(17.9281 0 0 17.9281 3111.2036 -9604.6738)">
		<stop  offset="0" style="stop-color:#3E3B3B"/>
		<stop  offset="5.617980e-03" style="stop-color:#3E3B3B"/>
		<stop  offset="0.0166" style="stop-color:#454243"/>
		<stop  offset="0.0795" style="stop-color:#6B6969"/>
		<stop  offset="0.1491" style="stop-color:#8D8B8C"/>
		<stop  offset="0.2247" style="stop-color:#AAA8A9"/>
		<stop  offset="0.3084" style="stop-color:#C1C0C0"/>
		<stop  offset="0.4036" style="stop-color:#D3D2D2"/>
		<stop  offset="0.5173" style="stop-color:#DFDFDF"/>
		<stop  offset="0.6676" style="stop-color:#E6E6E6"/>
		<stop  offset="1" style="stop-color:#E9E8E8"/>
	</linearGradient>
	<path id="XMLID_195_" style="fill:url(#XMLID_00000103235780344463170540000006244568497557171590_);" d="M406.53,423.5
		c-4.53,6.73-8.63,9.36-13.9,9.36c-1.02,0-1.9-0.15-2.78-0.29c-2.19,4.39-5.56,10.83-9.51,16.97
		C396.29,439.73,403.46,430.08,406.53,423.5z"/>
	
		<linearGradient id="XMLID_00000135675114854545943640000012056376470591580854_" gradientUnits="userSpaceOnUse" x1="-164.4522" y1="552.9664" x2="-162.9894" y2="552.9664" gradientTransform="matrix(-26.4479 80.1357 -80.1357 -26.4479 40051.0586 27905.6621)">
		<stop  offset="0" style="stop-color:#393637"/>
		<stop  offset="0.1388" style="stop-color:#403C3D"/>
		<stop  offset="0.3301" style="stop-color:#514E4F"/>
		<stop  offset="0.552" style="stop-color:#6E6B6C"/>
		<stop  offset="0.7949" style="stop-color:#959494"/>
		<stop  offset="1" style="stop-color:#BDBBBC"/>
	</linearGradient>
	<path id="XMLID_196_" style="fill:url(#XMLID_00000135675114854545943640000012056376470591580854_);" d="M88.94,114.4
		c-1.17,0.29-1.9-0.15-3.07-0.73c-2.63-1.32-2.19-1.32-5.56-2.63c-3.36-1.32-5.85,0.15-5.85,0.15s-15.07,8.34-22.53,47.69
		s-6,57.34-2.05,75.92c3.95,18.43,8.19-9.65,11.85-20.63c3.07-9.07,9.51-16.24,12.58-12.43c0.29-10.83,0.73-21.8,1.46-32.91
		C74.17,147.75,83.82,124.64,88.94,114.4z"/>
	<path id="XMLID_197_" class="st22" d="M434.32,193.24c-6.73-68.9-16.82-77.39-23.11-85.58c-32.48-30.87-92.89-43.59-158.57-43.59
		c-107.23,0-148.33,35.11-155.94,43.3c-4.24,4.83-6.44,6.58-7.9,6.88c-5.12,10.39-14.77,33.35-13.17,54.27
		c0.29-4.97,0.59-10.09,1.02-15.21c5.12-67.88,117.17-85.72,175.84-85.72c17.85,0,63.78,1.46,105.18,15.51
		c53.69,18.14,66.85,47.1,68.46,68.02l0.73,9.65c3.51,43.89,6.73,85.72-2.49,141.9l3.36-0.44c0,0,6.88-70.8,6.88-88.94
		C434.76,206.26,434.61,199.39,434.32,193.24z"/>
	<path id="XMLID_198_" class="st31" d="M92.01,351.67l-1.17-4.24c-1.17-4.53-2.34-9.07-3.36-13.46
		c-9.8-19.75-20.48-36.72-22.38-63.05c-1.76-24.14,0.59-52.08,2.34-67.15c-2.19,2.49-4.24,6.29-5.71,10.39
		c-3.8,10.97-7.9,39.2-11.85,20.63c-3.95-18.43-5.56-36.57,2.05-75.92c2.78-14.34,6.44-24.43,10.09-31.6
		c4.39-11.56,11.12-24.14,15.51-32.04c-26.62,31.6-36.72,75.04-36.72,124.49c0,57.64,4.1,85.43,14.34,116.59
		c4.53,6.29,9.65,14.92,12.29,25.01c2.19,8.05,6.73,20.04,13.02,32.33c-4.39-12-10.83-30.87-12.29-40.08
		c-2.19-14.04-2.93-19.46,0.44-17.41s4.83,0.88,7.46,5.56c2.63,4.68,4.1,6.14,6,8.05c2.05,2.05,4.53,4.68,5.85,6
		c1.32,1.32,3.07,2.49,6.14,13.17c2.63,9.36,8.92,29.11,13.75,33.06C101.52,387.95,97.13,371.13,92.01,351.67z"/>
	
		<linearGradient id="XMLID_00000114753376795772705330000009159381979922027709_" gradientUnits="userSpaceOnUse" x1="-163.3431" y1="552.4102" x2="-161.8802" y2="552.4102" gradientTransform="matrix(-14.0944 68.3657 -68.3657 -14.0944 35556.1094 19285.4258)">
		<stop  offset="0" style="stop-color:#5C595A"/>
		<stop  offset="5.617980e-03" style="stop-color:#5C595A"/>
		<stop  offset="0.0805" style="stop-color:#5A5758"/>
		<stop  offset="0.1074" style="stop-color:#535151"/>
		<stop  offset="0.1266" style="stop-color:#484545"/>
		<stop  offset="0.1404" style="stop-color:#393637"/>
		<stop  offset="0.3144" style="stop-color:#3D393A"/>
		<stop  offset="0.4554" style="stop-color:#474344"/>
		<stop  offset="0.5849" style="stop-color:#575455"/>
		<stop  offset="0.7074" style="stop-color:#6F6C6D"/>
		<stop  offset="0.8252" style="stop-color:#8D8B8C"/>
		<stop  offset="0.9377" style="stop-color:#B2B1B1"/>
		<stop  offset="0.9663" style="stop-color:#BDBBBC"/>
		<stop  offset="1" style="stop-color:#BDBBBC"/>
	</linearGradient>
	<path id="XMLID_199_" style="fill:url(#XMLID_00000114753376795772705330000009159381979922027709_);" d="M93.92,368.93
		c-3.07-10.68-4.83-11.85-6.14-13.17c-1.32-1.32-3.95-4.1-5.85-6c-2.05-2.05-3.36-3.36-6-8.05c-2.63-4.68-4.1-3.51-7.46-5.56
		c-3.36-2.05-2.63,3.22-0.44,17.41c1.46,9.22,8.05,28.23,12.29,40.08c3.95,8.05,8.63,16.24,13.6,23.7
		c-4.24-8.92-9.65-20.48-10.39-23.7c-1.32-5.27-1.76-7.75,2.34-5.27c4.1,2.49,2.19,0.29,8.05,4.39c5.85,4.1,5.56,3.51,7.02,4.83
		c0.88,0.88,1.76-0.15,3.07,1.02l0.15-1.76C100.06,389.27,95.96,375.95,93.92,368.93z"/>
	
		<linearGradient id="XMLID_00000053528842232100975720000006940833891890680472_" gradientUnits="userSpaceOnUse" x1="-158.391" y1="582.9951" x2="-156.9281" y2="582.9951" gradientTransform="matrix(4.3851 -3.6537 3.6537 4.3851 -1307.4657 -2694.5249)">
		<stop  offset="0" style="stop-color:#5C595A"/>
		<stop  offset="5.617980e-03" style="stop-color:#5C595A"/>
		<stop  offset="0.0805" style="stop-color:#5A5758"/>
		<stop  offset="0.1074" style="stop-color:#535151"/>
		<stop  offset="0.1266" style="stop-color:#484545"/>
		<stop  offset="0.1404" style="stop-color:#393637"/>
		<stop  offset="0.3144" style="stop-color:#3D393A"/>
		<stop  offset="0.4554" style="stop-color:#474344"/>
		<stop  offset="0.5849" style="stop-color:#575455"/>
		<stop  offset="0.7074" style="stop-color:#6F6C6D"/>
		<stop  offset="0.8252" style="stop-color:#8D8B8C"/>
		<stop  offset="0.9377" style="stop-color:#B2B1B1"/>
		<stop  offset="0.9663" style="stop-color:#BDBBBC"/>
		<stop  offset="1" style="stop-color:#BDBBBC"/>
	</linearGradient>
	<path id="XMLID_200_" style="fill:url(#XMLID_00000053528842232100975720000006940833891890680472_);" d="M172.18,452.75
		c-36.72-8.92-53.39-25.6-64.37-50.76c-1.17-0.88-2.34-2.78-3.66-5.12l-0.15,1.76c0.59,0.59,1.32,1.9,2.34,4.24
		c2.49,6.73,12,45.64,80.02,52.96C181.54,454.8,176.71,453.92,172.18,452.75z"/>
	<path id="XMLID_201_" class="st34" d="M107.81,402.58l-0.15-0.15c-11.12-24.87-20.48-54.71-27.36-86.16
		c-7.02-32.77-10.68-65.83-10.68-95.52c0-38.62,3.8-57.64,7.02-66.71l0.29-0.15l0.15,0.29c-3.22,9.07-7.02,28.09-7.02,66.56
		c0,58.66,14.92,129.9,38.03,181.54L107.81,402.58L107.81,402.58z"/>
	<path id="XMLID_204_" class="st35" d="M252.49,452.02c-27.94,0-54.13-2.93-78.12-8.78c-51.64-12.58-59.25-41.55-73-94.06
		l-1.17-4.24C82.07,275.89,81.63,218.7,86.45,154.19c1.02-14.34,8.05-27.06,20.77-37.89c10.97-9.36,26.04-17.26,44.91-23.55
		c34.08-11.26,74.17-15.36,100.35-15.36c17.41,0,62.03,1.46,102.11,15.07c17.99,6.14,32.18,13.75,42.57,22.82
		c11.85,10.39,18.29,22.82,19.46,36.72c0.29,3.22,0.44,6.44,0.73,9.65c4.39,56.17,8.19,104.74-11.7,183.15
		c-8.48,33.5-15.8,62.46-34.23,79.14C348.89,444.56,288.04,452.02,252.49,452.02z M252.64,77.82c-26.19,0-66.27,4.1-100.21,15.36
		c-40.81,13.6-63.49,34.67-65.39,61c-4.83,64.51-4.24,121.56,13.75,190.61l1.17,4.24c13.6,52.37,21.21,81.19,72.56,93.77
		c23.84,5.85,50.18,8.78,77.97,8.78c35.4,0,96.11-7.46,118.64-27.79c18.29-16.68,25.6-45.49,34.08-78.99
		c19.89-78.26,16.09-126.83,11.7-183c-0.29-3.22-0.44-6.44-0.73-9.65c-2.05-26.04-22.67-46.08-61.59-59.25
		C314.66,79.29,270.04,77.82,252.64,77.82z"/>
	<path id="XMLID_205_" class="st34" d="M419.69,128.15c-3.22-6.14-7.75-12.43-14.34-18.43c1.02,1.76,2.05,3.51,2.93,5.41
		C413.11,119.66,416.77,124.05,419.69,128.15z"/>
	
		<linearGradient id="XMLID_00000021838378934834045570000004784729065444356285_" gradientUnits="userSpaceOnUse" x1="-160.4562" y1="555.0005" x2="-158.9933" y2="555.0005" gradientTransform="matrix(46.01 4.5355 -4.5355 46.01 10123.4922 -24544.707)">
		<stop  offset="0" style="stop-color:#E9E8E8"/>
		<stop  offset="5.617980e-03" style="stop-color:#E9E8E8"/>
		<stop  offset="0.2933" style="stop-color:#BFBEBF"/>
		<stop  offset="0.5994" style="stop-color:#9A9999"/>
		<stop  offset="0.8459" style="stop-color:#838182"/>
		<stop  offset="1" style="stop-color:#7B7979"/>
	</linearGradient>
	<path id="XMLID_206_" style="fill:url(#XMLID_00000021838378934834045570000004784729065444356285_);" d="M395.56,380.93
		c-5.85,18.14-13.02,32.77-24.28,43.01c-22.97,20.77-85.58,27.94-118.78,27.94c-32.91,0-59.25-4.24-78.12-8.78
		c-52.96-12.87-59.39-42.57-73.87-98.16c-19.02-72.7-18.14-131.51-13.75-190.61c4.53-61.15,114.98-76.51,165.89-76.51
		c28.09,0,66.12,3.51,98.45,13.9c-20.19-7.9-51.35-15.8-95.67-15.8c-67.29,0-105.91,11.7-130.19,23.7
		c-13.46,6.58-27.5,14.63-34.96,28.38c-10.53,19.31-13.75,49.01-13.75,77.39c0,38.33,6.58,85.43,6.58,85.43
		c7.31,36.28,13.17,65.39,22.24,90.4c9.07,25.01,14.92,50.32,52.37,61.15s55.73,13.46,100.79,13.46
		c40.67,0,87.33-10.83,110.88-26.19c2.63-1.76,4.97-3.66,7.02-5.85c-4.24,3.66-7.17,4.39-7.17,4.39s2.93-0.73,7.17-4.39
		c2.63-2.78,4.83-6,6.88-9.51C387.51,406.53,392.63,395.41,395.56,380.93z"/>
	<path id="XMLID_207_" class="st9" d="M367.76,89.53c18.14,6.88,31.16,16.24,40.67,25.45c-0.88-1.76-1.9-3.66-2.93-5.41
		c-10.39-9.8-25.6-19.02-47.54-26.48c-41.4-14.04-87.33-15.51-105.18-15.51c-38.03,0-98.74,7.61-137.95,31.45
		c54.13-23.41,105.03-28.53,126.54-28.53C274.58,70.66,319.49,71.39,367.76,89.53z"/>
	<path id="XMLID_208_" class="st31" d="M427.15,160.91l-0.73-9.65c-0.59-7.02-2.49-15.07-6.73-23.26
		c-2.93-4.1-6.58-8.48-11.26-13.02c10.97,21.65,12,46.52,14.19,64.66c2.78,23.41,5.41,64.95,2.78,89.09
		c-2.78,24.14-10.97,59.98-24.14,107.08c-8.05,28.82-18.29,41.84-24.87,47.54c-2.05,2.19-4.24,4.1-7.02,5.85
		c-23.41,15.21-70.07,26.19-110.88,26.19c-45.06,0-63.34-2.78-100.79-13.46c-37.45-10.83-43.3-36.13-52.37-61.15
		c-9.07-25.01-14.92-53.98-22.24-90.4c0,0-6.58-47.1-6.58-85.43c0-7.9,0.29-15.8,0.88-23.7l-1.76-10.39
		c-3.51,58.51-1.46,112.2,15.21,176.27l1.17,4.24c5.12,19.75,9.51,36.57,15.8,50.76c10.97,24.87,27.65,41.55,64.22,50.47
		c24.72,6,51.79,9.07,80.46,9.07c31.74,0,98.89-6.44,125.51-30.43c1.32-1.32,2.63-2.63,3.95-3.95
		c9.95-10.68,16.68-24.43,21.94-40.23c4.24-12.29,7.61-25.6,11.26-39.94c4.1-15.8,7.02-30.57,9.36-44.47
		C433.88,246.78,430.67,204.8,427.15,160.91z"/>
	
		<linearGradient id="XMLID_00000062902195911210827730000011599001577470609835_" gradientUnits="userSpaceOnUse" x1="-163.5298" y1="554.4598" x2="-162.0664" y2="554.4598" gradientTransform="matrix(239.7912 0 0 239.7912 39288.4883 -132707.5156)">
		<stop  offset="0" style="stop-color:#918F8F"/>
		<stop  offset="5.617980e-03" style="stop-color:#918F8F"/>
		<stop  offset="0.2933" style="stop-color:#676565"/>
		<stop  offset="0.5994" style="stop-color:#423F40"/>
		<stop  offset="0.8459" style="stop-color:#2B2829"/>
		<stop  offset="1" style="stop-color:#231F20"/>
	</linearGradient>
	<path id="XMLID_209_" style="fill:url(#XMLID_00000062902195911210827730000011599001577470609835_);" d="M90.26,127.85
		c7.46-13.6,21.5-21.65,34.96-28.38c24.28-12,62.76-23.7,130.19-23.7c44.32,0,75.48,7.75,95.67,15.8
		c34.82,11.12,63.05,29.99,65.39,60.56c4.53,59.1,10.09,109.86-10.97,192.8c-3.36,13.17-6.44,25.16-9.95,35.99
		c-2.93,14.48-8.05,25.75-12.43,33.06c-2.05,3.51-4.24,6.73-6.88,9.51c6.73-5.85,16.97-18.87,24.87-47.54
		c13.17-47.1,21.36-83.09,24.14-107.08c2.78-24.14,0-65.68-2.78-89.09c-2.19-18.14-3.22-43.01-14.19-64.66
		c-9.36-9.22-22.53-18.72-40.67-25.45c-48.42-18.29-93.33-19.02-126.54-19.02c-21.5,0-72.41,5.12-126.54,28.53
		c-21.21,12.87-36.13,30.57-37.89,54.27c0,0.15,0,0.29,0,0.44c-0.44,5.85-0.88,11.56-1.17,17.26l1.76,10.39
		C78.85,161.21,82.65,141.75,90.26,127.85z"/>
	<path id="XMLID_212_" class="st34" d="M252.49,461.97c-28.67,0-55.73-3.07-80.46-9.07c-57.49-14.04-66.12-46.81-80.31-101.23
		l-1.17-4.24c-18.43-70.51-18.87-128.44-14.04-193.97c5.12-68.02,117.32-86.02,176.13-86.02c17.85,0,63.78,1.46,105.33,15.65
		c53.83,18.29,67,47.25,68.61,68.32l0.73,9.65c4.24,54.71,8.34,106.5-12,186.37c-8.92,35.11-16.53,65.39-37.3,84.11
		C351.52,455.68,284.38,461.97,252.49,461.97z M76.8,153.45h0.29c-4.83,65.39-4.39,123.47,14.04,193.83l1.17,4.24
		c14.19,54.27,22.67,87.04,79.87,100.94c24.72,6,51.64,9.07,80.31,9.07c31.74,0,98.74-6.29,125.37-30.43
		c20.48-18.58,28.23-48.86,37.16-83.82c20.33-79.87,16.24-131.66,12-186.22l-0.73-9.65c-1.61-20.92-14.77-49.74-68.32-67.88
		c-41.4-14.04-87.33-15.51-105.18-15.51c-58.51,0-170.57,17.85-175.54,85.58L76.8,153.45z"/>
	<polygon id="XMLID_213_" class="st38" points="388.97,143.21 448.07,113.23 429.93,172.62 453.05,114.69 470.16,168.37 
		456.56,113.96 488.89,124.34 458.02,110.45 474.7,100.5 455.53,106.93 464.75,86.31 451.29,104.74 431.4,68.46 444.85,102.99 
		430.23,92.01 443.1,104.74 402.58,93.04 441.34,106.5 419.99,110.15 439.59,110.15 424.23,113.66 440.91,111.91 	"/>
	<polygon id="XMLID_214_" class="st39" points="179.79,282.92 179.79,258.49 158.87,258.49 159.01,196.9 186.37,196.9 
		186.22,172.18 129.32,172.18 134.44,361.33 159.45,361.33 158.87,282.92 	"/>
	<polygon id="XMLID_215_" class="st39" points="196.02,172.18 199.24,361.33 225.13,361.33 225.57,172.18 	"/>
	<polygon id="XMLID_216_" class="st39" points="361.91,361.33 367.18,196.02 387.51,196.02 387.36,172.18 317.15,172.18 
		317.15,196.02 337.48,196.02 336.9,361.33 	"/>
	<path id="XMLID_219_" class="st39" d="M264.48,259.66l0.29-64.22h14.48c6.58,14.34,10.68,33.21,14.04,64.22H264.48z M241.52,361.33
		H244h18.58h2.78l0.29-78.26h28.67c2.19,13.75,2.78,56.47,2.93,78.26h2.34h18.72h2.05c2.19-96.55-4.68-151.11-23.41-189.15h-57.78
		L241.52,361.33z"/>
	
		<radialGradient id="XMLID_00000183962794629966073060000002538490977696846469_" cx="-162.0583" cy="553.512" r="1.4633" gradientTransform="matrix(88.4684 0 0 -64.6448 14598.666 36045.0547)" gradientUnits="userSpaceOnUse">
		<stop  offset="0" style="stop-color:#D3D1D2"/>
		<stop  offset="0.5" style="stop-color:#C9C7C8"/>
		<stop  offset="1" style="stop-color:#8D8B8C"/>
	</radialGradient>
	<polygon id="XMLID_220_" style="fill:url(#XMLID_00000183962794629966073060000002538490977696846469_);" points="182.86,254.98 
		161.94,254.98 161.94,193.54 189.44,193.54 189.29,168.81 132.24,168.81 137.36,357.96 162.38,357.96 161.94,279.55 182.86,279.55 
			"/>
	
		<radialGradient id="XMLID_00000037651616642605342670000003666040472853934212_" cx="-162.0583" cy="553.512" r="1.4634" gradientTransform="matrix(88.4684 0 0 -64.6448 14598.666 36045.0547)" gradientUnits="userSpaceOnUse">
		<stop  offset="0" style="stop-color:#D3D1D2"/>
		<stop  offset="0.5" style="stop-color:#C9C7C8"/>
		<stop  offset="1" style="stop-color:#8D8B8C"/>
	</radialGradient>
	<polygon id="XMLID_221_" style="fill:url(#XMLID_00000037651616642605342670000003666040472853934212_);" points="228.79,168.81 
		199.24,168.81 202.31,357.96 228.21,357.96 	"/>
	
		<radialGradient id="XMLID_00000130645335757293972210000001689845318142192514_" cx="-162.0582" cy="553.512" r="1.4628" gradientTransform="matrix(88.4672 0 0 -64.644 14598.4697 36044.6133)" gradientUnits="userSpaceOnUse">
		<stop  offset="0" style="stop-color:#D3D1D2"/>
		<stop  offset="0.5" style="stop-color:#C9C7C8"/>
		<stop  offset="1" style="stop-color:#8D8B8C"/>
	</radialGradient>
	<polygon id="XMLID_222_" style="fill:url(#XMLID_00000130645335757293972210000001689845318142192514_);" points="340.41,357.96 
		365.42,357.96 370.83,192.66 391.02,192.66 390.88,168.81 320.51,168.81 320.51,192.66 340.99,192.66 	"/>
	
		<radialGradient id="XMLID_00000116924329346195154200000017764923603621315478_" cx="-162.0582" cy="553.5119" r="1.4634" gradientTransform="matrix(88.4659 0 0 -64.643 14598.2559 36044.0547)" gradientUnits="userSpaceOnUse">
		<stop  offset="0" style="stop-color:#D3D1D2"/>
		<stop  offset="0.5" style="stop-color:#C9C7C8"/>
		<stop  offset="1" style="stop-color:#8D8B8C"/>
	</radialGradient>
	<path id="XMLID_225_" style="fill:url(#XMLID_00000116924329346195154200000017764923603621315478_);" d="M267.85,256.29
		l0.29-64.22h14.48c6.58,14.34,10.83,33.21,14.04,64.22L267.85,256.29L267.85,256.29z M244.74,357.96h2.49h18.72h2.78l0.29-78.26
		h28.67c2.19,13.75,2.78,56.47,2.93,78.26h2.34h18.72h2.05c2.19-96.55-4.68-151.11-23.41-189.15H242.4L244.74,357.96z"/>
</g>
</svg>
