<svg xmlns="http://www.w3.org/2000/svg" xml:space="preserve" id="Layer_1" x="0" y="0" viewBox="0 0 512 512"><style>.st3{fill:#6d0115}.st7{fill:#e9e8e8}.st9{fill:#bdbbbc}.st22{fill:#2e2b2c}.st31{fill:#a7a6a6}.st34{fill:#231f20}.st39{fill:#1a1a1a}</style><g id="XMLID_107_"><linearGradient id="XMLID_00000103968656355868772310000007730743317863072416_" x1="-176.502" x2="-175.039" y1="548.659" y2="548.659" gradientTransform="translate(-1513.402 5201.935)scale(-8.9942)" gradientUnits="userSpaceOnUse"><stop offset="0" style="stop-color:#e9e8e8"/><stop offset=".006" style="stop-color:#e9e8e8"/><stop offset=".293" style="stop-color:#bfbebf"/><stop offset=".599" style="stop-color:#9a9999"/><stop offset=".846" style="stop-color:#838182"/><stop offset="1" style="stop-color:#7b7979"/></linearGradient><path id="XMLID_109_" d="M65.24 270.77c1.9 26.33 12.58 43.3 22.38 63.05-11.12-47.1-14.19-89.23-13.17-132.24-1.61-2.05-4.24-.88-6.88 2.05-1.74 15.07-4.08 43.01-2.33 67.14" style="fill:url(#XMLID_00000103968656355868772310000007730743317863072416_)"/><radialGradient id="XMLID_00000062189743666292451200000014163568747373381308_" cx="-162.611" cy="554.684" r="1.463" gradientTransform="translate(20032.309 -67206.336)scale(121.6386)" gradientUnits="userSpaceOnUse"><stop offset="0" style="stop-color:#e60a47"/><stop offset="1" style="stop-color:#7c0626"/></radialGradient><path id="XMLID_113_" d="M174.52 443.1c18.87 4.53 45.2 8.78 78.12 8.78 33.21 0 95.82-7.02 118.78-27.94 17.99-16.38 25.31-44.03 34.23-79.14 21.07-82.94 15.51-133.56 10.97-192.8-4.53-59.1-105.47-74.46-163.84-74.46-50.91 0-161.35 15.36-165.89 76.51-4.39 59.1-5.27 118.05 13.75 190.61 14.49 55.87 20.92 85.57 73.88 98.44" style="fill:url(#XMLID_00000062189743666292451200000014163568747373381308_)"/><linearGradient id="XMLID_00000076574431095953978060000002708081180853665951_" x1="-164.098" x2="-162.635" y1="553.792" y2="553.792" gradientTransform="rotate(90 68689.361 126429.092)scale(351.8691)" gradientUnits="userSpaceOnUse"><stop offset="0" style="stop-color:#656363"/><stop offset=".006" style="stop-color:#656363"/><stop offset=".5" style="stop-color:#a7a6a6"/><stop offset="1" style="stop-color:#656363"/></linearGradient><path id="XMLID_117_" d="M256 0C114.54 0 0 114.54 0 256c0 141.31 114.54 256 256 256 141.31 0 256-114.54 256-256S397.31 0 256 0m2.63 498.69c-143.36 0-248.1-98.89-248.1-237.42 0-162.67 106.2-250.73 248.1-250.73 155.21 0 242.54 112.2 242.54 250.73S390.14 498.69 258.63 498.69" style="fill:url(#XMLID_00000076574431095953978060000002708081180853665951_)"/><path id="XMLID_118_" d="M202.31 449.24c-.44 0-.73-.29-.88-.73-10.09-80.6-23.26-286.57-19.31-363.67 0-.44.44-.88.88-.73.44 0 .88.44.73.88-3.95 76.95 9.22 282.77 19.31 363.37.15.3-.14.74-.73.88" class="st3"/><path id="XMLID_119_" d="M233.18 452.17c-.44 0-.88-.29-.88-.88-1.61-47.25-9.36-287.01-10.83-372.15 0-.44.29-.88.88-.88.44 0 .88.29.88.88 1.46 85.28 9.36 325.05 10.83 372.15 0 .44-.44.88-.88.88" class="st3"/><path id="XMLID_120_" d="M224.99 451.58c-.44 0-.88-.29-.88-.88-1.9-46.67-11.26-284.23-13.17-370.54 0-.44.29-.88.88-.88.44 0 .88.29.88.88 1.9 86.31 11.26 323.88 13.17 370.54-.15.59-.44.88-.88.88" class="st3"/><path id="XMLID_121_" d="M249.56 452.61c-.44 0-.88-.44-.88-.88 0-2.78-5.41-283.06-8.19-373.91 0-.44.29-.88.88-.88.44 0 .88.29.88.88 2.78 90.99 8.19 371.13 8.19 373.91 0 .59-.29.88-.88.88" class="st3"/><path id="XMLID_122_" d="M242.4 452.46c-.44 0-.88-.29-.88-.88-1.61-46.81-9.51-284.96-9.22-373.47 0-.44.44-.88.88-.88.44.15.88.44.88.88-.29 88.5 7.61 326.51 9.22 373.32-.01.74-.45 1.03-.88 1.03" class="st3"/><path id="XMLID_123_" d="M193.54 447.78c-.44 0-.73-.29-.88-.73-2.19-21.36-13.02-130.63-15.95-182.27-2.78-48.86-5.85-140.14-4.68-177.74 0-.44.44-.88.88-.88s.88.44.88.88c-1.17 37.6 1.9 128.73 4.68 177.59 2.93 51.64 13.75 160.77 15.95 182.13-.01.58-.45 1.02-.88 1.02" class="st3"/><path id="XMLID_125_" d="M217.82 451c-.44 0-.73-.29-.88-.73-8.63-84.85-15.21-321.97-16.38-368.64 0-.44.29-.88.88-.88.44 0 .88.29.88.88 1.17 46.67 7.9 283.65 16.38 368.49 0 .44-.3.88-.88.88" class="st3"/><path id="XMLID_126_" d="M209.77 450.12c-.44 0-.73-.29-.88-.73-8.78-84.41-16.38-319.93-17.85-366.15 0-.44.29-.88.88-.88.44 0 .88.29.88.88 1.46 46.37 9.07 281.75 17.85 366.01 0 .43-.29.87-.88.87" class="st3"/><path id="XMLID_127_" d="M185.34 446.32c-.44 0-.73-.29-.88-.73-9.07-76.51-25.75-218.84-21.94-355.91 0-.44.29-.88.88-.88.44 0 .88.44.88.88-3.8 136.92 13.02 279.26 21.94 355.77 0 .43-.29.87-.88.87" class="st3"/><path id="XMLID_131_" d="M145.26 432.57c-.44 0-.73-.29-.88-.59-35.99-156.53-31.16-286.28-28.82-322.27 0-.44.44-.73.88-.73s.88.44.73.88c-2.34 35.99-7.31 165.6 28.82 321.83.15.44-.15.88-.59 1.02z" class="st3"/><path id="XMLID_132_" d="M124.49 412.82c-.29 0-.59-.15-.73-.44-10.53-15.51-15.95-36.57-22.97-63.34l-1.02-4.1c-18.14-69.19-18.58-126.39-13.75-190.9 0-.44.44-.88.88-.73.44 0 .88.44.73.88-4.83 64.37-4.24 121.42 13.75 190.32l1.02 4.1c6.29 24.28 11.41 44.03 20.19 58.81-32.77-160.04-29.4-249.27-26.33-280.43 0-.44.44-.73.88-.73s.73.44.73.88c-3.07 31.31-6.44 121.71 27.21 284.53.15.44-.15.73-.44.88z" class="st3"/><path id="XMLID_133_" d="M135.17 425.11c-.44 0-.73-.29-.88-.73-35.11-157.4-31.31-274.58-29.26-306.61 0-.44.44-.88.88-.73.44 0 .88.44.73.88-2.05 32.04-5.85 148.92 29.26 306.18.15.44-.15.88-.59 1.02z" class="st3"/><path id="XMLID_134_" d="M177.74 444.71c-.44 0-.73-.29-.88-.73-17.99-103.28-27.21-273.99-23.11-351.82 0-.44.44-.88.88-.73.44 0 .88.44.73.88-4.1 77.82 4.97 248.25 22.97 351.38.28.43-.01.87-.59 1.02" class="st3"/><path id="XMLID_139_" d="M169.4 442.51c-.44 0-.73-.29-.88-.73-20.77-100.94-28.09-285.11-24.14-346.4 0-.44.44-.88.88-.73.44 0 .88.44.73.88-3.95 61.29 3.51 245.17 24.14 345.97.15.44-.15.88-.59 1.02h-.14z" class="st3"/><path id="XMLID_140_" d="M161.94 440.17c-.44 0-.73-.29-.88-.73-31.6-178.32-28.09-314.37-27.06-339.82 0-.44.44-.88.88-.88s.88.44.88.88c-1.02 25.45-4.68 161.35 26.92 339.53.14.44-.3.88-.74 1.02" class="st3"/><path id="XMLID_141_" d="M154.04 437.1c-.44 0-.73-.29-.88-.73-33.06-148.19-29.7-302.67-28.67-332.07 0-.44.44-.88.88-.88s.88.44.88.88c-1.02 29.4-4.24 183.59 28.67 331.63.15.44-.15.88-.59 1.02z" class="st3"/><path id="XMLID_142_" d="M267.26 452.32c-.44 0-.88-.44-.88-.88-.29-78.12-3.36-301.49-4.53-373.61 0-.44.29-.88.88-.88.44 0 .88.44.88.88 1.02 72.12 4.24 295.5 4.53 373.61 0 .44-.29.88-.88.88" class="st3"/><path id="XMLID_144_" d="M257.9 452.61c-.44 0-.88-.44-.88-.88-.29-65.1-4.68-323.15-5.56-374.2 0-.29.15-.44.29-.59.15-.15.44-.29.59-.29h.44c.44 0 .88.44.88.88 0 .29-.15.59-.44.73.88 52.81 5.27 308.66 5.56 373.47-.15.44-.44.88-.88.88" class="st3"/><path id="XMLID_145_" d="M353.57 435.49c-.59-.15-.88-.59-.88-1.02 29.55-170.42 20.63-299.89 17.12-335.43 0-.44.29-.88.73-.88s.88.29.88.73c3.51 35.69 12.43 165.3-17.12 336.02.15.29-.29.58-.73.58" class="st3"/><path id="XMLID_147_" d="M345.53 438.71h-.15c-.44-.15-.73-.59-.73-1.02 19.46-100.94 21.07-279.11 16.38-342.45 0-.44.29-.88.73-.88s.88.29.88.73c4.68 63.34 3.22 241.81-16.38 342.89 0 .44-.29.73-.73.73" class="st3"/><path id="XMLID_148_" d="M360.01 432.42h-.15c-.44-.15-.73-.59-.59-1.02 34.23-143.36 24.87-286.57 21.21-327.09 0-.44.29-.88.73-.88s.88.29.88.73c3.66 40.52 12.87 184.03-21.36 327.53.01.58-.28.73-.72.73" class="st3"/><path id="XMLID_149_" d="M380.34 414.43h-.15c-.44-.15-.73-.59-.59-1.02 33.21-145.85 25.16-254.54 20.19-294.62 0-.44.29-.88.73-.88s.88.29.88.73c4.97 40.08 13.17 149.21-20.19 295.2-.14.29-.43.59-.87.59" class="st3"/><path id="XMLID_150_" d="M370.4 425.55h-.15c-.44-.15-.73-.59-.59-1.02 34.96-152.28 24.72-278.67 20.77-313.78 0-.44.29-.88.73-.88s.88.29.88.73c3.95 35.25 14.19 161.79-20.77 314.37-.14.28-.44.58-.87.58" class="st3"/><path id="XMLID_152_" d="M337.48 441.34h-.15c-.44-.15-.73-.59-.73-1.02 18.29-96.11 19.31-264.78 14.34-348.6 0-.44.29-.88.73-.88s.88.29.88.73c5.12 83.82 3.95 252.78-14.34 349.04 0 .44-.29.73-.73.73" class="st3"/><path id="XMLID_153_" d="M330.46 443.25c-.59 0-.88-.44-.88-1.02 3.36-25.6 19.75-163.25 12.14-353.28 0-.44.29-.88.88-.88.44 0 .88.29.88.88 7.61 190.17-8.78 327.97-12.14 353.57-.15.43-.44.73-.88.73" class="st3"/><path id="XMLID_154_" d="M321.39 445.44c-.59 0-.88-.44-.88-.88 19.75-185.78 14.34-285.4 10.39-358.25 0-.44.29-.88.73-.88s.88.29.88.73c3.95 72.85 9.36 172.62-10.39 358.4 0 .59-.44.88-.73.88" class="st3"/><path id="XMLID_155_" d="M273.85 451.88c-.59 0-.88-.44-.88-.88 6.44-96.11 0-327.39-1.32-372.74 0-.44.29-.88.88-.88.44 0 .88.29.88.88 1.32 45.35 7.61 276.77 1.32 372.88-.01.44-.44.74-.88.74" class="st3"/><path id="XMLID_156_" d="M281.75 451.29c-.44 0-.88-.44-.88-.88 2.93-65.39 5.56-182.42 1.32-369.52v-1.9c0-.44.29-.88.88-.88s.88.29.88.88v1.9c4.24 187.1 1.61 304.27-1.32 369.66-.15.3-.44.74-.88.74" class="st3"/><path id="XMLID_159_" d="M394.09 386.34h-.29c-.44-.15-.73-.59-.59-1.02 27.06-137.22 22.09-217.38 16.68-252.93 0-.44.15-.73.59-.88s.88 0 1.02.44c3.36 6.29 5.27 13.02 5.85 20.19l.73 9.65c4.39 56.32 8.19 104.89-11.7 183.44-3.95 15.8-7.46 28.82-11.56 40.67-.14.15-.43.44-.73.44m18.29-248.54c4.83 36.72 8.05 111.47-14.77 233.76 2.34-8.05 4.68-16.97 7.17-26.92 19.89-78.26 16.09-126.68 11.7-182.86l-.73-9.65c-.44-4.97-1.62-9.79-3.37-14.33" class="st3"/><path id="XMLID_160_" d="M313.78 446.9c-.59 0-.88-.44-.88-.88 18.58-175.69 10.83-332.07 8.92-361.62 0-.44.29-.88.73-.88s.88.29.88.73c1.76 29.55 9.65 186.08-9.07 361.91.3.45-.14.74-.58.74" class="st3"/><path id="XMLID_161_" d="M289.79 450.41c-.59 0-.88-.44-.88-.88 7.02-116.74 7.61-238.45 1.9-361.62-.15-3.36-.29-6-.44-8.19 0-.44.29-.88.88-.88.44 0 .88.29.88.88.15 2.05.15 4.83.44 8.19 5.71 123.32 4.97 245.03-1.9 361.91 0 .3-.44.59-.88.59" class="st3"/><path id="XMLID_162_" d="M305.74 448.37c-.59 0-.88-.44-.88-.88 15.95-193.97 8.78-337.92 7.17-364.84 0-.44.29-.88.73-.88s.88.29.88.73c1.61 26.92 8.78 171.01-7.17 365.13 0 .3-.29.74-.73.74" class="st3"/><path id="XMLID_163_" d="M298.13 449.39c-.44 0-.88-.44-.88-.88 1.9-40.08 11.41-246.35 4.97-367.47 0-.44.29-.88.73-.88s.88.29.88.73c6.58 121.27-2.93 327.53-4.97 367.62 0 .59-.29.88-.73.88" class="st3"/><linearGradient id="XMLID_00000072992996945979864930000001541670888034666416_" x1="-165.758" x2="-164.295" y1="555.802" y2="555.802" gradientTransform="rotate(219.03 -16857.487 23370.92)scale(94.1612)" gradientUnits="userSpaceOnUse"><stop offset="0" style="stop-color:#dedede"/><stop offset=".006" style="stop-color:#dedede"/><stop offset=".162" style="stop-color:#d2d1d1"/><stop offset="1" style="stop-color:#918f8f"/></linearGradient><path id="XMLID_164_" d="m446.17 100.06-.29-7.02c-35.55-43.59-87.63-73.29-154.33-80.6 37.74 7.6 109.57 29.4 154.62 87.62" style="fill:url(#XMLID_00000072992996945979864930000001541670888034666416_)"/><linearGradient id="XMLID_00000039097603514765975840000012367947971440613518_" x1="-163.083" x2="-161.62" y1="554.161" y2="554.161" gradientTransform="translate(21069.428 -71222.844)scale(128.6339)" gradientUnits="userSpaceOnUse"><stop offset="0" style="stop-color:#dedede"/><stop offset=".006" style="stop-color:#dedede"/><stop offset=".183" style="stop-color:#9b999a"/><stop offset=".365" style="stop-color:#5a5758"/><stop offset="1" style="stop-color:#dedede"/></linearGradient><path id="XMLID_165_" d="M291.4 12.43c-10.53-1.17-21.5-1.76-32.77-1.76-73.14 0-136.92 23.41-181.54 68.46l-14.92 27.21C71.68 90.4 118.2 27.21 256.29 29.7c151.55 2.78 190.32 81.77 190.32 81.77l-.59-11.56c-44.9-58.07-116.73-79.87-154.62-87.48" style="fill:url(#XMLID_00000039097603514765975840000012367947971440613518_)"/><linearGradient id="XMLID_00000152229583774451113410000011767604998223381638_" x1="-165.385" x2="-163.923" y1="558.449" y2="558.449" gradientTransform="rotate(-90 -19881.3 10963.74)scale(56.0536)" gradientUnits="userSpaceOnUse"><stop offset="0" style="stop-color:#a7a6a6"/><stop offset=".006" style="stop-color:#a7a6a6"/><stop offset=".225" style="stop-color:#9a9999"/><stop offset=".701" style="stop-color:#838182"/><stop offset="1" style="stop-color:#7b7979"/></linearGradient><path id="XMLID_166_" d="M501.17 261.27c0-64.8-19.16-123.9-55.44-168.37 0 0 47.4 65.68 49.88 149.65.88 29.55-4.24 58.95-12.87 87.19-10.24 33.79-29.7 75.92-67.88 114.69 52.52-42.29 86.31-106.66 86.31-183.16" style="fill:url(#XMLID_00000152229583774451113410000011767604998223381638_)"/><path id="XMLID_167_" d="M495.62 242.54c-2.49-83.97-49.88-149.65-49.88-149.65s50.03 84.26 47.84 187.98c1.74-12.58 2.47-25.46 2.04-38.33" class="st7"/><path id="XMLID_168_" d="M464.9 133.27c-10.09-25.16-19.02-40.23-19.02-40.23l.88 18.58 23.11 58.22v-9.22c-.15-4.39-3.51-14.92-4.97-27.35" class="st7"/><linearGradient id="XMLID_00000174574673626959094480000010150644202667934356_" x1="-164.534" x2="-163.071" y1="555.462" y2="555.462" gradientTransform="rotate(-90 -70411.996 38465.582)scale(196.8348)" gradientUnits="userSpaceOnUse"><stop offset="0" style="stop-color:#a7a6a6"/><stop offset=".006" style="stop-color:#a7a6a6"/><stop offset=".101" style="stop-color:#9a9999"/><stop offset=".308" style="stop-color:#838182"/><stop offset=".438" style="stop-color:#7b7979"/><stop offset=".722" style="stop-color:#797777"/><stop offset=".834" style="stop-color:#727070"/><stop offset=".915" style="stop-color:#666464"/><stop offset=".981" style="stop-color:#555353"/><stop offset="1" style="stop-color:#4f4c4d"/></linearGradient><path id="XMLID_169_" d="M464.9 133.27c1.61 12.43 4.97 22.97 4.97 27.36 0 0 13.17 23.11 13.17 41.55s4.97 32.77 4.97 57.2c0 24.58 4.24 75.34-52.66 157.11-5.27 7.61-10.68 15.65-15.65 23.11 35.11-37.45 53.39-77.39 63.2-109.86 4.83-15.95 8.63-32.18 10.83-48.71 1.15-59.99-15.08-113.39-28.83-147.76" style="fill:url(#XMLID_00000174574673626959094480000010150644202667934356_)"/><path id="XMLID_170_" d="M414.43 444.85c-26.04 16.24-89.67 50.91-159.31 50.91-74.9 0-176.71-29.99-215.63-137.65-14.33-39.94-19.89-67.59-19.89-113.67 0-65.24 27.65-128.88 57.49-165.01l-.44.44c-3.36 3.51-28.53 31.01-46.08 80.75C6.88 227.47-2.34 330.75 81.04 432.57c44.03 41.84 105.91 66.41 177.44 66.41 58.96-.29 113.52-20.04 155.95-54.13" class="st7"/><path id="XMLID_171_" d="M30.72 160.33c17.55-49.59 42.86-77.24 46.08-80.75-41.55 42.13-66.27 103.28-66.27 181.69 0 69.34 26.33 128.88 70.66 170.86-83.38-101.82-74.17-204.95-50.47-271.8" class="st9"/><linearGradient id="XMLID_00000003076029628383042500000008560207891987553191_" x1="-202.827" x2="-201.364" y1="469.07" y2="469.07" gradientTransform="rotate(153.461 -85.234 568.976)scale(1.4485)" gradientUnits="userSpaceOnUse"><stop offset="0" style="stop-color:#a7a6a6"/><stop offset=".006" style="stop-color:#a7a6a6"/><stop offset=".101" style="stop-color:#9a9999"/><stop offset=".308" style="stop-color:#838182"/><stop offset=".438" style="stop-color:#7b7979"/><stop offset=".722" style="stop-color:#797777"/><stop offset=".834" style="stop-color:#727070"/><stop offset=".915" style="stop-color:#666464"/><stop offset=".981" style="stop-color:#555353"/><stop offset="1" style="stop-color:#4f4c4d"/></linearGradient><path id="XMLID_172_" d="M32.77 337.92c2.05 6.44 4.24 13.02 6.73 20.04 7.61 21.21 17.85 39.5 29.7 55l4.53 1.76c-17.85-27.79-33.21-59.98-40.96-76.8" style="fill:url(#XMLID_00000003076029628383042500000008560207891987553191_)"/><linearGradient id="XMLID_00000054957936201891656240000017905686194095613887_" x1="-163.886" x2="-162.423" y1="553.745" y2="553.745" gradientTransform="rotate(81.87 44797.366 70279.738)scale(189.0125)" gradientUnits="userSpaceOnUse"><stop offset="0" style="stop-color:#a7a6a6"/><stop offset=".006" style="stop-color:#a7a6a6"/><stop offset=".101" style="stop-color:#9a9999"/><stop offset=".308" style="stop-color:#838182"/><stop offset=".438" style="stop-color:#7b7979"/><stop offset=".722" style="stop-color:#797777"/><stop offset=".834" style="stop-color:#727070"/><stop offset=".915" style="stop-color:#666464"/><stop offset=".981" style="stop-color:#555353"/><stop offset="1" style="stop-color:#4f4c4d"/></linearGradient><path id="XMLID_173_" d="M86.45 426.42C56.9 380.49 26.77 334.7 26.77 251.17s35.4-144.82 35.4-144.82l14.92-27.21C47.1 115.27 19.6 178.91 19.6 244.15c0 38.03 3.8 63.49 13.17 93.62 7.75 16.82 23.26 49.01 40.96 76.8l-4.53-1.76c3.36 4.39 6.73 8.48 10.39 12.43z" style="fill:url(#XMLID_00000054957936201891656240000017905686194095613887_)"/><linearGradient id="XMLID_00000071555936149882022400000012084825995921267365_" x1="-126.906" x2="-125.443" y1="536.353" y2="536.353" gradientTransform="rotate(52.55 2543.516 2942.668)scale(5.8367)" gradientUnits="userSpaceOnUse"><stop offset="0" style="stop-color:#231f20"/><stop offset=".006" style="stop-color:#231f20"/><stop offset=".078" style="stop-color:#373334"/><stop offset=".234" style="stop-color:#5c595a"/><stop offset=".36" style="stop-color:#737071"/><stop offset=".438" style="stop-color:#7b7979"/><stop offset=".722" style="stop-color:#797777"/><stop offset=".834" style="stop-color:#727070"/><stop offset=".915" style="stop-color:#666464"/><stop offset=".981" style="stop-color:#555353"/><stop offset="1" style="stop-color:#4f4c4d"/></linearGradient><path id="XMLID_174_" d="M414.43 444.85c.15-.15.29-.29.44-.29 1.61-1.61 3.22-3.22 4.68-4.97 1.32-2.05 2.78-4.1 4.24-6.29-14.92 13.02-38.91 27.21-51.64 34.23 18.14-8.34 32.77-16.82 42.28-22.68" style="fill:url(#XMLID_00000071555936149882022400000012084825995921267365_)"/><linearGradient id="XMLID_00000137112121538361708150000001133666687943573919_" x1="-164.829" x2="-163.367" y1="555.904" y2="555.904" gradientTransform="rotate(-83.305 -44052.326 20942.575)scale(112.5469)" gradientUnits="userSpaceOnUse"><stop offset="0" style="stop-color:#a7a6a6"/><stop offset=".006" style="stop-color:#a7a6a6"/><stop offset=".101" style="stop-color:#9a9999"/><stop offset=".308" style="stop-color:#838182"/><stop offset=".438" style="stop-color:#7b7979"/><stop offset=".722" style="stop-color:#797777"/><stop offset=".834" style="stop-color:#727070"/><stop offset=".915" style="stop-color:#666464"/><stop offset=".981" style="stop-color:#555353"/><stop offset="1" style="stop-color:#4f4c4d"/></linearGradient><path id="XMLID_175_" d="M394.53 450.41c-.15.15-.29.15-.44.29-24.58 16.09-73.87 34.52-145.41 34.52-76.21 0-125.95-26.33-141.17-39.2-7.31-6.29-12.87-8.48-16.53-9.22 47.84 44.32 112.35 58.66 164.13 58.66 44.03 0 85.72-13.9 117.03-28.23 12.58-7.02 36.72-21.07 51.64-34.23 3.8-5.56 7.61-11.26 11.41-16.82.29-.44.59-.88 1.02-1.46l3.8-13.9c.02.44-23.68 35.11-45.48 49.59" style="fill:url(#XMLID_00000137112121538361708150000001133666687943573919_)"/><linearGradient id="XMLID_00000159437336328880833390000011161365629726854054_" x1="-154.825" x2="-153.362" y1="553.013" y2="553.013" gradientTransform="rotate(25.463 29631.99 17459.988)scale(26.3075)" gradientUnits="userSpaceOnUse"><stop offset="0" style="stop-color:#393637"/><stop offset=".006" style="stop-color:#393637"/><stop offset=".138" style="stop-color:#5b5959"/><stop offset=".254" style="stop-color:#737071"/><stop offset=".326" style="stop-color:#7b7979"/><stop offset=".41" style="stop-color:#747272"/><stop offset=".782" style="stop-color:#595657"/><stop offset="1" style="stop-color:#4f4c4d"/></linearGradient><path id="XMLID_176_" d="M487.86 274.72c-17.85 20.48-26.04 49.01-34.23 75.63-8.78 28.38-8.78 42.13-13.75 50.91l-3.8 13.9c46.22-66.85 51.49-112.79 51.78-140.44" style="fill:url(#XMLID_00000159437336328880833390000011161365629726854054_)"/><linearGradient id="XMLID_00000008146918437595143350000011103978080971045005_" x1="-183.656" x2="-182.193" y1="548.82" y2="548.82" gradientTransform="rotate(170.665 -596.337 3493.51)scale(11.9839)" gradientUnits="userSpaceOnUse"><stop offset="0" style="stop-color:#393637"/><stop offset=".006" style="stop-color:#393637"/><stop offset=".116" style="stop-color:#423f40"/><stop offset=".296" style="stop-color:#5b5858"/><stop offset=".524" style="stop-color:#828080"/><stop offset=".789" style="stop-color:#b8b7b7"/><stop offset="1" style="stop-color:#e9e8e8"/></linearGradient><path id="XMLID_177_" d="M480.84 229.67c3.07.73-1.46-8.34 2.34-19.46-.15-2.63-.29-5.27-.29-8.05 0-18.43-13.17-41.55-13.17-41.55v9.22l-5.41-13.75c1.17 6 2.78 13.9 4.39 23.99 3.95 24.44 7.17 48.43 12.14 49.6" style="fill:url(#XMLID_00000008146918437595143350000011103978080971045005_)"/><path id="XMLID_178_" d="M475.87 220.01c-2.49-9.51-4.68-24.72-7.17-40.08-1.61-10.09-3.22-17.99-4.39-23.99l-9.07-22.82c4.68 19.02 10.09 37.89 13.46 56.47 4.39 25.45 7.17 30.42 7.17 30.42" class="st7"/><path id="XMLID_179_" d="M381.81 59.83c24.14 10.83 41.11 24.72 53.54 40.23 10.24 12.73 19.02 36.13 25.45 55.3-1.9-7.31-3.8-14.63-5.71-22.09l-8.48-21.5S407.84 32.63 256.29 30c-49.15-.88-87.92 8.63-117.47 21.21 26.04-7.31 71.09-18.14 106.93-18.14 46.09-.3 85.88 4.23 136.06 26.76" class="st7"/><linearGradient id="XMLID_00000170972726340911052140000011165955024476714403_" x1="-168.496" x2="-167.033" y1="553.329" y2="553.329" gradientTransform="rotate(162.844 -1243.785 9051.52)scale(31.122)" gradientUnits="userSpaceOnUse"><stop offset="0" style="stop-color:#918f8f"/><stop offset=".006" style="stop-color:#918f8f"/><stop offset="1" style="stop-color:#918f8f"/></linearGradient><path id="XMLID_180_" d="m182.27 49.44.15-2.78C118.64 59.68 82.36 89.23 74.61 111.18c0 0 1.17-.59 2.78-.73 1.9-2.63 4.68-6.29 7.75-10.53 6.14-8.78 36.72-39.07 97.13-50.48" style="fill:url(#XMLID_00000170972726340911052140000011165955024476714403_)"/><linearGradient id="XMLID_00000135661032732525409770000000015950893265550467_" x1="-163.551" x2="-162.087" y1="554.287" y2="554.287" gradientTransform="translate(41386.426 -139883.484)scale(252.5768)" gradientUnits="userSpaceOnUse"><stop offset="0" style="stop-color:#fff"/><stop offset=".006" style="stop-color:#fff"/><stop offset=".06" style="stop-color:#e6e6e6"/><stop offset=".161" style="stop-color:#bebdbd"/><stop offset=".269" style="stop-color:#9c9a9a"/><stop offset=".381" style="stop-color:#807e7e"/><stop offset=".502" style="stop-color:#6a6868"/><stop offset=".634" style="stop-color:#5b5859"/><stop offset=".785" style="stop-color:#524f50"/><stop offset="1" style="stop-color:#4f4c4d"/></linearGradient><path id="XMLID_181_" d="M446.46 138.39c-1.76-4.83-8.63-26.62-21.5-41.55-12.87-15.07-64.8-56.91-172.47-56.91-26.19 0-49.59 2.49-70.07 6.73l-.15 2.78C122 60.85 91.43 91.28 84.99 99.91c-3.07 4.24-5.71 7.9-7.75 10.53.88 0 1.9.15 3.07.59 3.36 1.32 2.93 1.46 5.56 2.63s3.36 2.05 10.97-6.29c7.46-8.34 48.71-43.3 155.94-43.3 65.54 0 125.95 12.73 158.57 43.59 6.29 8.19 16.38 16.68 23.11 85.58-.44-10.53-1.02-18.72-1.46-22.82 0-.15-2.78-15.21-2.78-26.33 0-3.66.44-6.14 3.36-4.68 3.07 1.46 4.83.44 7.31 1.61 2.19 1.02 6.29 2.05 6-1.02-.13-.44-.28-1.03-.43-1.61" style="fill:url(#XMLID_00000135661032732525409770000000015950893265550467_)"/><linearGradient id="XMLID_00000010278068436103632080000011883345969618721213_" x1="-66.639" x2="-65.176" y1="533.806" y2="533.806" gradientTransform="rotate(32.494 1733.21 1878.953)scale(2.4511)" gradientUnits="userSpaceOnUse"><stop offset="0" style="stop-color:#bdbbbc"/><stop offset=".006" style="stop-color:#bdbbbc"/><stop offset=".164" style="stop-color:#c5c5c5"/><stop offset=".423" style="stop-color:#dedddd"/><stop offset=".522" style="stop-color:#e9e8e8"/><stop offset="1" style="stop-color:#918f8f"/></linearGradient><path id="XMLID_182_" d="M440.17 371.13c-.15.29-2.93 4.24-6.44 11.56 2.2-3.22 4.4-7.17 6.44-11.56" style="fill:url(#XMLID_00000010278068436103632080000011883345969618721213_)"/><linearGradient id="XMLID_00000150097865935079971490000001825723864019698109_" x1="-164.479" x2="-163.016" y1="551.858" y2="551.858" gradientTransform="rotate(112.678 10129.385 32802.05)scale(98.3258)" gradientUnits="userSpaceOnUse"><stop offset="0" style="stop-color:#2e2b2c"/><stop offset=".006" style="stop-color:#2e2b2c"/><stop offset=".522" style="stop-color:#918f8f"/><stop offset="1" style="stop-color:#393637"/></linearGradient><path id="XMLID_184_" d="M487.86 259.36c0-20.77-3.51-34.23-4.68-49.15-3.8 11.12.73 20.19-2.34 19.46-1.9-.44-3.51-4.1-4.97-9.65 0 0-2.78-4.83-7.17-29.55.44 12.87 1.02 37.6-.15 60.42-1.9 38.03-14.19 90.55-28.38 120.25-2.05 4.39-4.24 8.34-6.44 11.56-2.78 5.85-4.68 23.55-12.73 42.72 10.97-12.58 18.87-24.28 18.87-24.28 4.97-8.78 4.97-22.53 13.75-50.91 8.19-26.48 16.38-55.15 34.23-75.63.16-5.87.01-10.85.01-15.24" style="fill:url(#XMLID_00000150097865935079971490000001825723864019698109_)"/><linearGradient id="XMLID_00000070086793245883111170000006990706131738076823_" x1="-163.626" x2="-162.163" y1="551.595" y2="551.595" gradientTransform="rotate(89.135 17141.808 31142.797)scale(85.8747)" gradientUnits="userSpaceOnUse"><stop offset="0" style="stop-color:#393637"/><stop offset=".006" style="stop-color:#393637"/><stop offset=".101" style="stop-color:#423f40"/><stop offset=".258" style="stop-color:#5b5858"/><stop offset=".456" style="stop-color:#828080"/><stop offset=".522" style="stop-color:#918f8f"/><stop offset="1" style="stop-color:#393637"/></linearGradient><path id="XMLID_185_" d="M458.75 168.08c-4.1-18.87-9.36-25.75-12-28.23.29 3.07-3.8 2.19-6 1.02-2.49-1.17-4.24-.15-7.31-1.61s-3.36.88-3.36 4.68c0 11.12 2.78 26.19 2.78 26.33 0 0 4.24-8.05 7.17 10.24 2.05 13.02 4.68 21.94 4.83 31.74 5.71 5.56 17.7 20.48 16.82 45.64-.59 17.7-2.93 36.43-4.97 49.88 1.46-6.29 2.93-12.87 4.39-19.46 7.6-35.67 3.36-93.6-2.35-120.23" style="fill:url(#XMLID_00000070086793245883111170000006990706131738076823_)"/><linearGradient id="XMLID_00000012445906787298463420000009835451125731403430_" x1="-164.04" x2="-162.577" y1="550.354" y2="550.354" gradientTransform="rotate(102.562 8588.302 21139.914)scale(61.0784)" gradientUnits="userSpaceOnUse"><stop offset="0" style="stop-color:#bdbbbc"/><stop offset=".006" style="stop-color:#bdbbbc"/><stop offset=".164" style="stop-color:#c5c5c5"/><stop offset=".423" style="stop-color:#dedddd"/><stop offset=".522" style="stop-color:#e9e8e8"/><stop offset="1" style="stop-color:#918f8f"/></linearGradient><path id="XMLID_187_" d="M463.14 197.92c2.78 28.53 3.36 65.1-2.05 90.4-1.46 6.58-2.78 13.02-4.39 19.46-1.76 11.56-3.22 19.31-3.22 19.31s1.46-7.75 3.22-19.31c-6.44 27.79-13.6 52.96-22.82 74.9 3.51-7.46 6.14-11.26 6.44-11.56 14.19-29.7 26.48-82.36 28.38-120.25.59-10.53.73-21.5.73-31.45z" style="fill:url(#XMLID_00000012445906787298463420000009835451125731403430_)"/><path id="XMLID_188_" d="M406.53 423.5c-3.36 7.02-11.12 17.41-29.11 27.94-31.01 17.99-63.05 28.82-124.93 28.82S104.59 465.33 77.53 396s-37.01-87.04-37.01-176.27c0-49.74 10.24-93.48 37.3-125.07l21.8-22.24c-23.99 16.38-35.69 31.74-37.3 33.94l-.15.29s-35.4 61.29-35.4 144.82 30.28 129.46 59.68 175.25l-6.88-1.02c3.66 4.1 7.46 7.9 11.41 11.56 3.8.73 9.22 2.93 16.53 9.22 15.21 12.87 64.95 39.2 141.17 39.2 71.39 0 120.83-18.58 145.41-34.52 9.36-6.14 19.02-15.95 27.06-25.31 3.36-8.19 5.71-16.09 7.46-22.82-15.65 19.44-22.08 20.47-22.08 20.47" class="st22"/><linearGradient id="XMLID_00000137107143256488718100000010836195518759137177_" x1="-163.711" x2="-162.248" y1="556.779" y2="556.779" gradientTransform="rotate(-59.036 -53221.848 12405.177)scale(93.7826)" gradientUnits="userSpaceOnUse"><stop offset="0" style="stop-color:#3e3b3b"/><stop offset=".006" style="stop-color:#3e3b3b"/><stop offset=".066" style="stop-color:#535051"/><stop offset=".257" style="stop-color:#939191"/><stop offset=".419" style="stop-color:#c1c0c0"/><stop offset=".542" style="stop-color:#dedddd"/><stop offset=".612" style="stop-color:#e9e8e8"/><stop offset=".662" style="stop-color:#dddcdc"/><stop offset=".753" style="stop-color:#bebcbd"/><stop offset=".874" style="stop-color:#8b8989"/><stop offset="1" style="stop-color:#4f4c4d"/></linearGradient><path id="XMLID_189_" d="M439.73 338.07s-1.02 3.22-18.87 30.87c-9.36 14.63-14.34 18.14-16.82 18.14-5.41 15.8-12 29.55-21.94 40.23 1.61 2.63 4.83 5.56 10.53 5.56 5.41 0 9.36-2.63 13.9-9.36 4.24-6.29 9.07-16.24 15.95-31.01 14.04-30.15 17.25-54.43 17.25-54.43" style="fill:url(#XMLID_00000137107143256488718100000010836195518759137177_)"/><linearGradient id="XMLID_00000038380247540029798000000010944578120528199356_" x1="-164.342" x2="-162.879" y1="551.722" y2="551.722" gradientTransform="rotate(107.48 11226.297 31287.61)scale(92.2288)" gradientUnits="userSpaceOnUse"><stop offset="0" style="stop-color:#3e3b3b"/><stop offset=".006" style="stop-color:#3e3b3b"/><stop offset=".04" style="stop-color:#626060"/><stop offset=".084" style="stop-color:#8b898a"/><stop offset=".129" style="stop-color:#adacac"/><stop offset=".175" style="stop-color:#c7c6c6"/><stop offset=".221" style="stop-color:#dad9d9"/><stop offset=".269" style="stop-color:#e5e4e5"/><stop offset=".32" style="stop-color:#e9e8e8"/><stop offset=".775" style="stop-color:#e9e8e8"/><stop offset=".902" style="stop-color:#d9d8d8"/><stop offset="1" style="stop-color:#d3d2d2"/></linearGradient><path id="XMLID_190_" d="M415.16 347.28c-3.66 14.19-7.02 27.65-11.26 39.94 2.63 0 7.46-3.51 16.82-18.14 17.7-27.79 18.87-30.87 18.87-30.87s-3.22 24.14-17.26 54.42c-6.88 14.77-11.56 24.58-15.95 31.01 0 0 6.44-1.02 21.94-20.92 2.34-9.22 3.66-16.53 5.27-19.89 9.22-21.94 16.38-47.1 22.82-74.9 2.05-13.46 4.39-32.18 4.97-49.88.88-25.16-11.12-40.08-16.82-45.64 0 3.8-.29 7.9-1.17 12.43-3.36 15.95-7.61 30.57-9.65 48.57-2.19 17.99-5.85 29.11-5.85 29.11l-3.36.44c-2.2 13.75-5.28 28.52-9.37 44.32" style="fill:url(#XMLID_00000038380247540029798000000010944578120528199356_)"/><linearGradient id="XMLID_00000005261005313514876660000001924152409525419653_" x1="-162.802" x2="-161.339" y1="555.234" y2="555.234" gradientTransform="rotate(3.045 940825.415 306806.776)scale(91.5033)" gradientUnits="userSpaceOnUse"><stop offset="0" style="stop-color:#3e3b3b"/><stop offset=".006" style="stop-color:#3e3b3b"/><stop offset=".104" style="stop-color:#535051"/><stop offset=".418" style="stop-color:#939191"/><stop offset=".683" style="stop-color:#c1c0c0"/><stop offset=".885" style="stop-color:#dedddd"/><stop offset="1" style="stop-color:#e9e8e8"/></linearGradient><path id="XMLID_191_" d="M116.3 441.93c-21.21-14.34-43.45-59.98-48.86-80.75-2.63-10.09-7.75-18.72-12.29-25.01 5.56 17.12 13.02 35.11 22.53 59.68 27.06 69.34 113.08 84.26 174.96 84.26 49.44 0 79.87-6.88 105.91-18.87-21.07 6.58-60.12 16.38-104.89 16.38-67.29 0-116.15-21.21-137.36-35.69" style="fill:url(#XMLID_00000005261005313514876660000001924152409525419653_)"/><linearGradient id="XMLID_00000020380841505240904220000015078943716144079771_" x1="-163.609" x2="-162.147" y1="554.297" y2="554.297" gradientTransform="translate(45619.824 -154220.11)scale(278.4541)" gradientUnits="userSpaceOnUse"><stop offset="0" style="stop-color:#2e2b2c"/><stop offset=".006" style="stop-color:#2e2b2c"/><stop offset=".045" style="stop-color:#2f2b2c"/><stop offset="1" style="stop-color:#393637"/></linearGradient><path id="XMLID_192_" d="M468.85 190.46c0-.29-.15-.59-.15-.73-2.05-11.41-4.83-22.82-7.75-34.38-6.44-19.16-15.21-42.57-25.45-55.3-12.43-15.51-29.4-29.4-53.54-40.23-50.18-22.53-89.97-27.06-135.9-27.06-35.84 0-80.9 10.97-106.93 18.14-15.51 6.58-28.53 14.04-39.06 21.36L78.26 94.5c-.15.15-.29.44-.59.73-4.39 7.9-11.12 20.48-15.51 32.04 6.44-12.58 12.43-16.09 12.43-16.09 10.39-29.11 70.22-71.24 177.88-71.24s159.6 41.98 172.47 56.91c12.87 14.92 19.75 36.72 21.5 41.55.29.59.29 1.02.29 1.46 2.78 2.34 8.05 9.22 12 28.23 1.61 7.75 3.22 18.14 4.39 29.84l6.14 21.5c.02-11.7-.27-22.09-.41-28.97" style="fill:url(#XMLID_00000020380841505240904220000015078943716144079771_)"/><linearGradient id="XMLID_00000080905960373884170270000004805706300387516811_" x1="-166.495" x2="-165.032" y1="553.647" y2="553.647" gradientTransform="rotate(156.545 -1538.552 18889.992)scale(64.1069)" gradientUnits="userSpaceOnUse"><stop offset="0" style="stop-color:#dedede"/><stop offset=".006" style="stop-color:#dedede"/><stop offset=".162" style="stop-color:#d2d1d1"/><stop offset="1" style="stop-color:#918f8f"/></linearGradient><path id="XMLID_193_" d="M99.77 72.27c10.53-7.31 23.55-14.77 39.06-21.36 29.55-12.58 68.32-22.09 117.47-21.21-138.1-2.49-184.62 60.7-194.13 76.65l.15-.29c1.75-2.05 13.46-17.41 37.45-33.79" style="fill:url(#XMLID_00000080905960373884170270000004805706300387516811_)"/><linearGradient id="XMLID_00000168804567350330811710000013082832889571797120_" x1="-165.316" x2="-163.853" y1="553.538" y2="553.538" gradientTransform="translate(-22760.15 77642.21)scale(-139.484)" gradientUnits="userSpaceOnUse"><stop offset="0" style="stop-color:#4b4848"/><stop offset=".029" style="stop-color:#444141"/><stop offset=".073" style="stop-color:#3e3b3b"/><stop offset=".191" style="stop-color:#5f5c5d"/><stop offset=".387" style="stop-color:#908e8e"/><stop offset=".573" style="stop-color:#b6b5b5"/><stop offset=".742" style="stop-color:#d2d1d1"/><stop offset=".89" style="stop-color:#e3e2e2"/><stop offset="1" style="stop-color:#e9e8e8"/></linearGradient><path id="XMLID_194_" d="M381.95 427.45 378 431.4c-26.62 24.14-93.77 30.43-125.51 30.43-23.26 0-45.35-2.05-66.12-6-68.02-7.31-77.53-46.08-80.02-52.96-2.63-7.31-3.95-3.95-5.41-5.41s-1.17-.73-7.02-4.83-3.95-1.76-8.05-4.39c-4.1-2.49-3.51 0-2.34 5.27.73 3.07 6.14 14.77 10.39 23.7 7.02 10.53 14.63 19.6 22.24 24.72 21.21 14.48 70.07 35.69 137.51 35.69 44.76 0 83.68-9.8 104.89-16.38 6.44-2.93 12.73-6.29 18.87-9.8 1.02-.59 1.9-1.17 2.93-1.76 4.1-6.29 7.46-12.58 9.51-16.97-4.11-.87-6.46-3.22-7.92-5.26" style="fill:url(#XMLID_00000168804567350330811710000013082832889571797120_)"/><linearGradient id="XMLID_00000103235780344463170540000006244568497557171590_" x1="-152.323" x2="-150.86" y1="560.081" y2="560.081" gradientTransform="translate(3111.204 -9604.674)scale(17.9281)" gradientUnits="userSpaceOnUse"><stop offset="0" style="stop-color:#3e3b3b"/><stop offset=".006" style="stop-color:#3e3b3b"/><stop offset=".017" style="stop-color:#454243"/><stop offset=".08" style="stop-color:#6b6969"/><stop offset=".149" style="stop-color:#8d8b8c"/><stop offset=".225" style="stop-color:#aaa8a9"/><stop offset=".308" style="stop-color:#c1c0c0"/><stop offset=".404" style="stop-color:#d3d2d2"/><stop offset=".517" style="stop-color:#dfdfdf"/><stop offset=".668" style="stop-color:#e6e6e6"/><stop offset="1" style="stop-color:#e9e8e8"/></linearGradient><path id="XMLID_195_" d="M406.53 423.5c-4.53 6.73-8.63 9.36-13.9 9.36-1.02 0-1.9-.15-2.78-.29-2.19 4.39-5.56 10.83-9.51 16.97 15.95-9.81 23.12-19.46 26.19-26.04" style="fill:url(#XMLID_00000103235780344463170540000006244568497557171590_)"/><linearGradient id="XMLID_00000135675114854545943640000012056376470591580854_" x1="-164.452" x2="-162.989" y1="552.966" y2="552.966" gradientTransform="rotate(108.265 9937.402 28431.619)scale(84.3873)" gradientUnits="userSpaceOnUse"><stop offset="0" style="stop-color:#393637"/><stop offset=".139" style="stop-color:#403c3d"/><stop offset=".33" style="stop-color:#514e4f"/><stop offset=".552" style="stop-color:#6e6b6c"/><stop offset=".795" style="stop-color:#959494"/><stop offset="1" style="stop-color:#bdbbbc"/></linearGradient><path id="XMLID_196_" d="M88.94 114.4c-1.17.29-1.9-.15-3.07-.73-2.63-1.32-2.19-1.32-5.56-2.63-3.36-1.32-5.85.15-5.85.15s-15.07 8.34-22.53 47.69-6 57.34-2.05 75.92c3.95 18.43 8.19-9.65 11.85-20.63 3.07-9.07 9.51-16.24 12.58-12.43.29-10.83.73-21.8 1.46-32.91-1.6-21.08 8.05-44.19 13.17-54.43" style="fill:url(#XMLID_00000135675114854545943640000012056376470591580854_)"/><path id="XMLID_197_" d="M434.32 193.24c-6.73-68.9-16.82-77.39-23.11-85.58-32.48-30.87-92.89-43.59-158.57-43.59-107.23 0-148.33 35.11-155.94 43.3-4.24 4.83-6.44 6.58-7.9 6.88-5.12 10.39-14.77 33.35-13.17 54.27.29-4.97.59-10.09 1.02-15.21 5.12-67.88 117.17-85.72 175.84-85.72 17.85 0 63.78 1.46 105.18 15.51 53.69 18.14 66.85 47.1 68.46 68.02l.73 9.65c3.51 43.89 6.73 85.72-2.49 141.9l3.36-.44s6.88-70.8 6.88-88.94c.15-7.03 0-13.9-.29-20.05" class="st22"/><path id="XMLID_198_" d="m92.01 351.67-1.17-4.24c-1.17-4.53-2.34-9.07-3.36-13.46-9.8-19.75-20.48-36.72-22.38-63.05-1.76-24.14.59-52.08 2.34-67.15-2.19 2.49-4.24 6.29-5.71 10.39-3.8 10.97-7.9 39.2-11.85 20.63-3.95-18.43-5.56-36.57 2.05-75.92 2.78-14.34 6.44-24.43 10.09-31.6 4.39-11.56 11.12-24.14 15.51-32.04-26.62 31.6-36.72 75.04-36.72 124.49 0 57.64 4.1 85.43 14.34 116.59 4.53 6.29 9.65 14.92 12.29 25.01 2.19 8.05 6.73 20.04 13.02 32.33-4.39-12-10.83-30.87-12.29-40.08-2.19-14.04-2.93-19.46.44-17.41s4.83.88 7.46 5.56 4.1 6.14 6 8.05c2.05 2.05 4.53 4.68 5.85 6s3.07 2.49 6.14 13.17c2.63 9.36 8.92 29.11 13.75 33.06-6.29-14.05-10.68-30.87-15.8-50.33" class="st31"/><linearGradient id="XMLID_00000114753376795772705330000009159381979922027709_" x1="-163.343" x2="-161.88" y1="552.41" y2="552.41" gradientTransform="rotate(101.649 9920.513 24129.487)scale(69.8034)" gradientUnits="userSpaceOnUse"><stop offset="0" style="stop-color:#5c595a"/><stop offset=".006" style="stop-color:#5c595a"/><stop offset=".081" style="stop-color:#5a5758"/><stop offset=".107" style="stop-color:#535151"/><stop offset=".127" style="stop-color:#484545"/><stop offset=".14" style="stop-color:#393637"/><stop offset=".314" style="stop-color:#3d393a"/><stop offset=".455" style="stop-color:#474344"/><stop offset=".585" style="stop-color:#575455"/><stop offset=".707" style="stop-color:#6f6c6d"/><stop offset=".825" style="stop-color:#8d8b8c"/><stop offset=".938" style="stop-color:#b2b1b1"/><stop offset=".966" style="stop-color:#bdbbbc"/><stop offset="1" style="stop-color:#bdbbbc"/></linearGradient><path id="XMLID_199_" d="M93.92 368.93c-3.07-10.68-4.83-11.85-6.14-13.17-1.32-1.32-3.95-4.1-5.85-6-2.05-2.05-3.36-3.36-6-8.05-2.63-4.68-4.1-3.51-7.46-5.56s-2.63 3.22-.44 17.41c1.46 9.22 8.05 28.23 12.29 40.08 3.95 8.05 8.63 16.24 13.6 23.7-4.24-8.92-9.65-20.48-10.39-23.7-1.32-5.27-1.76-7.75 2.34-5.27 4.1 2.49 2.19.29 8.05 4.39 5.85 4.1 5.56 3.51 7.02 4.83.88.88 1.76-.15 3.07 1.02l.15-1.76c-4.1-7.58-8.2-20.9-10.24-27.92" style="fill:url(#XMLID_00000114753376795772705330000009159381979922027709_)"/><linearGradient id="XMLID_00000053528842232100975720000006940833891890680472_" x1="-158.391" x2="-156.928" y1="582.995" y2="582.995" gradientTransform="rotate(-39.801 -4375.37 458.59)scale(5.7078)" gradientUnits="userSpaceOnUse"><stop offset="0" style="stop-color:#5c595a"/><stop offset=".006" style="stop-color:#5c595a"/><stop offset=".081" style="stop-color:#5a5758"/><stop offset=".107" style="stop-color:#535151"/><stop offset=".127" style="stop-color:#484545"/><stop offset=".14" style="stop-color:#393637"/><stop offset=".314" style="stop-color:#3d393a"/><stop offset=".455" style="stop-color:#474344"/><stop offset=".585" style="stop-color:#575455"/><stop offset=".707" style="stop-color:#6f6c6d"/><stop offset=".825" style="stop-color:#8d8b8c"/><stop offset=".938" style="stop-color:#b2b1b1"/><stop offset=".966" style="stop-color:#bdbbbc"/><stop offset="1" style="stop-color:#bdbbbc"/></linearGradient><path id="XMLID_200_" d="M172.18 452.75c-36.72-8.92-53.39-25.6-64.37-50.76-1.17-.88-2.34-2.78-3.66-5.12l-.15 1.76c.59.59 1.32 1.9 2.34 4.24 2.49 6.73 12 45.64 80.02 52.96-4.82-1.03-9.65-1.91-14.18-3.08" style="fill:url(#XMLID_00000053528842232100975720000006940833891890680472_)"/><path id="XMLID_201_" d="m107.81 402.58-.15-.15c-11.12-24.87-20.48-54.71-27.36-86.16-7.02-32.77-10.68-65.83-10.68-95.52 0-38.62 3.8-57.64 7.02-66.71l.29-.15.15.29c-3.22 9.07-7.02 28.09-7.02 66.56 0 58.66 14.92 129.9 38.03 181.54z" class="st34"/><path id="XMLID_204_" d="M252.49 452.02c-27.94 0-54.13-2.93-78.12-8.78-51.64-12.58-59.25-41.55-73-94.06l-1.17-4.24C82.07 275.89 81.63 218.7 86.45 154.19c1.02-14.34 8.05-27.06 20.77-37.89 10.97-9.36 26.04-17.26 44.91-23.55 34.08-11.26 74.17-15.36 100.35-15.36 17.41 0 62.03 1.46 102.11 15.07 17.99 6.14 32.18 13.75 42.57 22.82 11.85 10.39 18.29 22.82 19.46 36.72.29 3.22.44 6.44.73 9.65 4.39 56.17 8.19 104.74-11.7 183.15-8.48 33.5-15.8 62.46-34.23 79.14-22.53 20.62-83.38 28.08-118.93 28.08m.15-374.2c-26.19 0-66.27 4.1-100.21 15.36-40.81 13.6-63.49 34.67-65.39 61-4.83 64.51-4.24 121.56 13.75 190.61l1.17 4.24c13.6 52.37 21.21 81.19 72.56 93.77 23.84 5.85 50.18 8.78 77.97 8.78 35.4 0 96.11-7.46 118.64-27.79 18.29-16.68 25.6-45.49 34.08-78.99 19.89-78.26 16.09-126.83 11.7-183-.29-3.22-.44-6.44-.73-9.65-2.05-26.04-22.67-46.08-61.59-59.25-39.93-13.61-84.55-15.08-101.95-15.08" style="fill:#891731"/><path id="XMLID_205_" d="M419.69 128.15c-3.22-6.14-7.75-12.43-14.34-18.43 1.02 1.76 2.05 3.51 2.93 5.41 4.83 4.53 8.49 8.92 11.41 13.02" class="st34"/><linearGradient id="XMLID_00000021838378934834045570000004784729065444356285_" x1="-160.456" x2="-158.993" y1="555" y2="555" gradientTransform="rotate(5.63 254656.891 90673.447)scale(46.233)" gradientUnits="userSpaceOnUse"><stop offset="0" style="stop-color:#e9e8e8"/><stop offset=".006" style="stop-color:#e9e8e8"/><stop offset=".293" style="stop-color:#bfbebf"/><stop offset=".599" style="stop-color:#9a9999"/><stop offset=".846" style="stop-color:#838182"/><stop offset="1" style="stop-color:#7b7979"/></linearGradient><path id="XMLID_206_" d="M395.56 380.93c-5.85 18.14-13.02 32.77-24.28 43.01-22.97 20.77-85.58 27.94-118.78 27.94-32.91 0-59.25-4.24-78.12-8.78-52.96-12.87-59.39-42.57-73.87-98.16-19.02-72.7-18.14-131.51-13.75-190.61 4.53-61.15 114.98-76.51 165.89-76.51 28.09 0 66.12 3.51 98.45 13.9-20.19-7.9-51.35-15.8-95.67-15.8-67.29 0-105.91 11.7-130.19 23.7-13.46 6.58-27.5 14.63-34.96 28.38-10.53 19.31-13.75 49.01-13.75 77.39 0 38.33 6.58 85.43 6.58 85.43 7.31 36.28 13.17 65.39 22.24 90.4s14.92 50.32 52.37 61.15 55.73 13.46 100.79 13.46c40.67 0 87.33-10.83 110.88-26.19 2.63-1.76 4.97-3.66 7.02-5.85-4.24 3.66-7.17 4.39-7.17 4.39s2.93-.73 7.17-4.39c2.63-2.78 4.83-6 6.88-9.51 4.22-7.75 9.34-18.87 12.27-33.35" style="fill:url(#XMLID_00000021838378934834045570000004784729065444356285_)"/><path id="XMLID_207_" d="M367.76 89.53c18.14 6.88 31.16 16.24 40.67 25.45-.88-1.76-1.9-3.66-2.93-5.41-10.39-9.8-25.6-19.02-47.54-26.48-41.4-14.04-87.33-15.51-105.18-15.51-38.03 0-98.74 7.61-137.95 31.45C168.96 75.62 219.86 70.5 241.37 70.5c33.21.16 78.12.89 126.39 19.03" class="st9"/><path id="XMLID_208_" d="m427.15 160.91-.73-9.65a61.8 61.8 0 0 0-6.73-23.26c-2.93-4.1-6.58-8.48-11.26-13.02 10.97 21.65 12 46.52 14.19 64.66 2.78 23.41 5.41 64.95 2.78 89.09-2.78 24.14-10.97 59.98-24.14 107.08-8.05 28.82-18.29 41.84-24.87 47.54-2.05 2.19-4.24 4.1-7.02 5.85-23.41 15.21-70.07 26.19-110.88 26.19-45.06 0-63.34-2.78-100.79-13.46-37.45-10.83-43.3-36.13-52.37-61.15-9.07-25.01-14.92-53.98-22.24-90.4 0 0-6.58-47.1-6.58-85.43 0-7.9.29-15.8.88-23.7l-1.76-10.39c-3.51 58.51-1.46 112.2 15.21 176.27l1.17 4.24c5.12 19.75 9.51 36.57 15.8 50.76 10.97 24.87 27.65 41.55 64.22 50.47 24.72 6 51.79 9.07 80.46 9.07 31.74 0 98.89-6.44 125.51-30.43l3.95-3.95c9.95-10.68 16.68-24.43 21.94-40.23 4.24-12.29 7.61-25.6 11.26-39.94 4.1-15.8 7.02-30.57 9.36-44.47 9.37-55.87 6.16-97.85 2.64-141.74" class="st31"/><linearGradient id="XMLID_00000062902195911210827730000011599001577470609835_" x1="-163.53" x2="-162.066" y1="554.46" y2="554.46" gradientTransform="translate(39288.488 -132707.516)scale(239.7912)" gradientUnits="userSpaceOnUse"><stop offset="0" style="stop-color:#918f8f"/><stop offset=".006" style="stop-color:#918f8f"/><stop offset=".293" style="stop-color:#676565"/><stop offset=".599" style="stop-color:#423f40"/><stop offset=".846" style="stop-color:#2b2829"/><stop offset="1" style="stop-color:#231f20"/></linearGradient><path id="XMLID_209_" d="M90.26 127.85c7.46-13.6 21.5-21.65 34.96-28.38 24.28-12 62.76-23.7 130.19-23.7 44.32 0 75.48 7.75 95.67 15.8 34.82 11.12 63.05 29.99 65.39 60.56 4.53 59.1 10.09 109.86-10.97 192.8-3.36 13.17-6.44 25.16-9.95 35.99-2.93 14.48-8.05 25.75-12.43 33.06-2.05 3.51-4.24 6.73-6.88 9.51 6.73-5.85 16.97-18.87 24.87-47.54 13.17-47.1 21.36-83.09 24.14-107.08 2.78-24.14 0-65.68-2.78-89.09-2.19-18.14-3.22-43.01-14.19-64.66-9.36-9.22-22.53-18.72-40.67-25.45-48.42-18.29-93.33-19.02-126.54-19.02-21.5 0-72.41 5.12-126.54 28.53-21.21 12.87-36.13 30.57-37.89 54.27v.44c-.44 5.85-.88 11.56-1.17 17.26l1.76 10.39c1.62-20.33 5.42-39.79 13.03-53.69" style="fill:url(#XMLID_00000062902195911210827730000011599001577470609835_)"/><path id="XMLID_212_" d="M252.49 461.97c-28.67 0-55.73-3.07-80.46-9.07-57.49-14.04-66.12-46.81-80.31-101.23l-1.17-4.24c-18.43-70.51-18.87-128.44-14.04-193.97 5.12-68.02 117.32-86.02 176.13-86.02 17.85 0 63.78 1.46 105.33 15.65 53.83 18.29 67 47.25 68.61 68.32l.73 9.65c4.24 54.71 8.34 106.5-12 186.37-8.92 35.11-16.53 65.39-37.3 84.11-26.49 24.14-93.63 30.43-125.52 30.43M76.8 153.45h.29c-4.83 65.39-4.39 123.47 14.04 193.83l1.17 4.24c14.19 54.27 22.67 87.04 79.87 100.94 24.72 6 51.64 9.07 80.31 9.07 31.74 0 98.74-6.29 125.37-30.43 20.48-18.58 28.23-48.86 37.16-83.82 20.33-79.87 16.24-131.66 12-186.22l-.73-9.65c-1.61-20.92-14.77-49.74-68.32-67.88-41.4-14.04-87.33-15.51-105.18-15.51-58.51 0-170.57 17.85-175.54 85.58z" class="st34"/><path id="XMLID_213_" d="m388.97 143.21 59.1-29.98-18.14 59.39 23.12-57.93 17.11 53.68-13.6-54.41 32.33 10.38-30.87-13.89 16.68-9.95-19.17 6.43 9.22-20.62-13.46 18.43-19.89-36.28 13.45 34.53-14.62-10.98 12.87 12.73-40.52-11.7 38.76 13.46-21.35 3.65h19.6l-15.36 3.51 16.68-1.75z" style="fill:#fff"/><path id="XMLID_214_" d="M179.79 282.92v-24.43h-20.92l.14-61.59h27.36l-.15-24.72h-56.9l5.12 189.15h25.01l-.58-78.41z" class="st39"/><path id="XMLID_215_" d="m196.02 172.18 3.22 189.15h25.89l.44-189.15z" class="st39"/><path id="XMLID_216_" d="m361.91 361.33 5.27-165.31h20.33l-.15-23.84h-70.21v23.84h20.33l-.58 165.31z" class="st39"/><path id="XMLID_219_" d="m264.48 259.66.29-64.22h14.48c6.58 14.34 10.68 33.21 14.04 64.22zm-22.96 101.67h23.84l.29-78.26h28.67c2.19 13.75 2.78 56.47 2.93 78.26h23.11c2.19-96.55-4.68-151.11-23.41-189.15h-57.78z" class="st39"/><radialGradient id="XMLID_00000183962794629966073060000002538490977696846469_" cx="-162.058" cy="553.512" r="1.463" gradientTransform="matrix(88.4684 0 0 -64.6448 14598.666 36045.055)" gradientUnits="userSpaceOnUse"><stop offset="0" style="stop-color:#d3d1d2"/><stop offset=".5" style="stop-color:#c9c7c8"/><stop offset="1" style="stop-color:#8d8b8c"/></radialGradient><path id="XMLID_220_" d="M182.86 254.98h-20.92v-61.44h27.5l-.15-24.73h-57.05l5.12 189.15h25.02l-.44-78.41h20.92z" style="fill:url(#XMLID_00000183962794629966073060000002538490977696846469_)"/><radialGradient id="XMLID_00000037651616642605342670000003666040472853934212_" cx="-162.058" cy="553.512" r="1.463" gradientTransform="matrix(88.4684 0 0 -64.6448 14598.666 36045.055)" gradientUnits="userSpaceOnUse"><stop offset="0" style="stop-color:#d3d1d2"/><stop offset=".5" style="stop-color:#c9c7c8"/><stop offset="1" style="stop-color:#8d8b8c"/></radialGradient><path id="XMLID_221_" d="M228.79 168.81h-29.55l3.07 189.15h25.9z" style="fill:url(#XMLID_00000037651616642605342670000003666040472853934212_)"/><radialGradient id="XMLID_00000130645335757293972210000001689845318142192514_" cx="-162.058" cy="553.512" r="1.463" gradientTransform="matrix(88.4672 0 0 -64.644 14598.47 36044.613)" gradientUnits="userSpaceOnUse"><stop offset="0" style="stop-color:#d3d1d2"/><stop offset=".5" style="stop-color:#c9c7c8"/><stop offset="1" style="stop-color:#8d8b8c"/></radialGradient><path id="XMLID_222_" d="M340.41 357.96h25.01l5.41-165.3h20.19l-.14-23.85h-70.37v23.85h20.48z" style="fill:url(#XMLID_00000130645335757293972210000001689845318142192514_)"/><radialGradient id="XMLID_00000116924329346195154200000017764923603621315478_" cx="-162.058" cy="553.512" r="1.463" gradientTransform="matrix(88.4659 0 0 -64.643 14598.256 36044.055)" gradientUnits="userSpaceOnUse"><stop offset="0" style="stop-color:#d3d1d2"/><stop offset=".5" style="stop-color:#c9c7c8"/><stop offset="1" style="stop-color:#8d8b8c"/></radialGradient><path id="XMLID_225_" d="m267.85 256.29.29-64.22h14.48c6.58 14.34 10.83 33.21 14.04 64.22zm-23.11 101.67h23.99l.29-78.26h28.67c2.19 13.75 2.78 56.47 2.93 78.26h23.11c2.19-96.55-4.68-151.11-23.41-189.15H242.4z" style="fill:url(#XMLID_00000116924329346195154200000017764923603621315478_)"/></g></svg>