<svg width="48" height="48" viewBox="0 0 48 48" fill="none" xmlns="http://www.w3.org/2000/svg">
<path d="M46.5 24.5C46.5 24.3367 46.4935 24.1715 46.4804 24.0064L46.4798 23.9986L46.479 23.9908L46.4701 23.9105L46.4688 23.8919L46.4683 23.8844L46.4675 23.8769C46.174 20.9311 43.9446 16.8555 40.1372 13.5294C36.3108 10.1867 30.8428 7.55556 24 7.55556C16.7478 7.55556 11.1294 10.3246 7.32387 13.8157C3.54103 17.2861 1.5 21.5211 1.5 24.5M46.5 24.5C46.5 27.5958 44.3027 31.8317 40.4506 35.2698C36.575 38.7287 30.9593 41.4444 24 41.4444C17.0407 41.4444 11.425 38.7282 7.54943 35.269C3.69733 31.8307 1.5 27.5948 1.5 24.5M46.5 24.5C46.5 24.2283 46.4878 23.9558 46.4641 23.6805M46.5 24.5C46.5 28.2038 44.2354 32.7035 40.2485 36.2945C36.2755 39.8731 30.642 42.5 24 42.5C17.358 42.5 11.7245 39.8731 7.7515 36.2945C3.76465 32.7035 1.5 28.2038 1.5 24.5M1.5 24.5C1.5 20.7083 3.71844 16.2091 7.67548 12.6429C11.6202 9.08783 17.2529 6.5 24 6.5C30.3782 6.5 35.8278 8.96136 39.7704 12.3461C43.7248 15.7409 46.1205 20.0252 46.4582 23.6258L46.8137 23.5925L46.8209 23.6102L46.4617 23.6538C46.4605 23.6442 46.46 23.637 46.4598 23.6346M46.4641 23.6805L46.4597 23.6338C46.4596 23.6308 46.4596 23.6324 46.4598 23.6346M46.4641 23.6805L46.4637 23.6806C46.4623 23.6694 46.4615 23.6597 46.4609 23.6528L46.4606 23.6484L46.4598 23.6346M46.4641 23.6805L46.4598 23.6346M46.5474 23.6704L46.8313 23.6359L46.8353 23.6455L46.5474 23.6704Z" stroke="black"/>
<path d="M36.6886 18.0041C36.5973 18.0041 36.5506 18.0265 36.508 18.1958C36.3669 18.7404 34.6471 23.9212 34.3275 24.9268C34.2737 25.0797 34.2077 25.0593 34.1996 24.8839C34.1671 24.2863 33.9104 23.601 33.5056 23.2705C33.1981 23.0197 32.8958 22.9727 32.5832 23.0564C32.0181 23.2093 31.5138 23.809 31.0704 24.4862C30.4017 25.506 29.8264 26.8298 29.0826 27.8047C28.6768 28.3371 28.1207 28.8021 27.7493 28.1087C27.4125 27.4804 27.45 26.0873 27.9655 25.0104C28.0203 24.8962 28.0852 24.99 28.0751 25.092C28.0264 25.5795 28.0862 26.0649 28.2699 26.4055C28.4951 26.8094 28.8168 26.8563 29.0918 26.5871C29.4165 26.2648 29.6082 25.6386 29.663 24.9288C29.7493 23.8294 29.3282 22.8585 28.8005 22.781C28.3724 22.7198 27.9614 23.0197 27.5616 23.6846C27.3617 24.0191 27.2471 24.2659 27.0736 24.7615C27.031 24.8819 26.966 24.8941 26.9681 24.7146C26.9883 23.3052 26.6982 22.5138 26.1188 22.4873C25.6693 22.4669 25.1883 22.9585 24.8139 23.5561C24.404 24.219 24.0448 25.096 23.6602 25.9221C23.6125 26.0241 23.5699 26.02 23.5567 25.8242C23.5456 24.89 23.4289 23.9865 23.2138 23.344C23.1377 23.1196 22.9784 23.0095 22.8434 23.1604C22.7815 23.2277 22.5654 23.4276 22.4081 23.6825C22.331 23.811 22.2996 23.9987 22.3341 24.2394C22.541 25.6325 22.4964 27.2173 22.2143 28.5553C21.9556 29.7812 21.4533 30.8887 20.8638 31.262C20.4752 31.5108 20.0703 31.3885 19.8207 30.697C19.4778 29.7404 19.6158 28.0781 20.1282 26.6972C20.5807 25.4815 21.2331 24.7105 21.8856 24.2108C21.9627 24.1517 21.9779 24.0517 21.9566 23.9212C21.9211 23.707 21.8643 23.4133 21.8419 23.2787C21.7821 22.9585 21.6147 22.9075 21.4097 22.9523C20.9358 23.0625 20.5087 23.3888 20.0866 23.8437C18.9816 25.0328 18.4276 27.3356 18.1851 28.5676C18.0684 29.1611 17.9679 29.5283 17.8391 29.8567C17.6656 30.2972 17.4464 30.697 17.0456 31.4048C17.0101 31.468 16.9827 31.6026 17.0131 31.7291C17.0547 31.8984 17.2627 32.4899 17.3206 32.5409C17.3855 32.6041 17.4616 32.5164 17.491 32.4715C17.7711 32.0901 18.1059 31.4864 18.2703 31.0764C18.3271 30.9357 18.386 30.9948 18.4164 31.209C18.5696 32.3043 18.9694 33.2017 19.5234 33.575C20.5371 34.2624 21.5883 33.267 22.3817 31.5353C22.886 30.4359 23.0677 29.7261 23.2615 29.2468C23.5882 28.4309 24.2345 26.6054 25.0047 25.4346C25.2867 25.0002 25.6216 24.6718 25.788 24.89C25.9229 25.0655 25.9666 25.4754 25.7505 26.2648C24.9661 29.1469 23.8114 32.5286 23.5993 33.3506C23.5608 33.4914 23.5933 33.6056 23.6683 33.6056C24.0793 33.6015 24.4862 33.6036 24.8586 33.6036C24.9205 33.5974 24.9489 33.5403 24.9793 33.4506C25.581 31.5578 26.1482 29.7526 26.755 27.8884C26.7895 27.7803 26.8199 27.8639 26.8219 27.9128C26.8341 28.3473 26.8879 28.9388 27.0147 29.3263C27.244 30.0443 27.5698 30.3523 27.931 30.3584C28.2171 30.3645 28.3632 30.2768 28.6717 30.0464C28.9243 29.8567 29.1273 29.6119 29.2815 29.3875C29.3718 29.2611 29.388 29.4732 29.386 29.5058C29.247 31.0091 29.4195 32.7918 30.1622 33.5301C31.0521 34.4113 32.0302 33.1711 32.5934 32.0534C32.6482 31.9453 32.707 31.9575 32.7131 32.188C32.7243 32.6143 32.8217 33.1222 32.9972 33.4791C33.468 34.4296 34.4208 34.0523 35.3746 32.5674C35.9875 31.6169 36.6287 30.2728 37.2081 28.8491C37.2304 28.794 37.2456 28.7063 37.202 28.6145C37.1137 28.4309 36.9859 28.2168 36.8986 28.0536C36.8591 27.9863 36.8002 28.0046 36.7667 28.0577C36.1731 29.1917 35.6384 30.4869 34.8652 31.5578C34.6055 31.9229 34.1895 32.2186 34.0028 31.7107C33.9297 31.5129 33.9388 31.2396 34.0109 30.8826C34.2361 29.7547 37.8027 18.8383 37.9874 18.1938C38.0198 18.0816 37.9874 18 37.9163 18C37.549 18 37.0681 18.002 36.6856 18.002M31.0338 31.417C30.8502 31.2253 30.771 30.7093 30.7751 30.2952C30.7842 29.1183 31.043 27.9128 31.5229 26.7258C32.1084 25.2796 32.7547 24.527 33.1799 24.939C33.6192 25.3592 33.4782 26.3831 33.2823 27.1847C33.2681 27.2479 33.2671 27.2989 33.2742 27.3519C33.2813 27.4356 33.3351 27.5151 33.3879 27.5539C33.4072 27.5681 33.4173 27.5947 33.396 27.6824C33.2448 28.3351 33.1048 28.7144 32.915 29.2794C32.7405 29.8036 32.5437 30.2136 32.3042 30.6073C32.0262 31.0682 31.666 31.5618 31.3261 31.5618C31.2276 31.5618 31.1282 31.519 31.0338 31.417Z" fill="black"/>
<path d="M18.1304 13C17.7948 13 17.4592 13.0251 17.1196 13.0772C14.9622 13.4287 12.9096 15.779 12.9046 19.3421C12.9046 21.1516 13.5678 22.6154 14.5976 22.5517C15.8082 22.4725 16.802 20.5973 17.3223 18.2336C17.5191 17.3375 17.1535 16.9648 16.9797 17.4804C16.6691 18.4112 16.2316 19.1316 15.7582 19.5796C15.1889 20.1203 14.5796 19.9736 14.3958 19.0775C14.1362 17.8164 14.6755 15.9296 15.907 15.0393C17.6849 13.7667 19.5457 14.6087 21.3355 15.2595C21.3615 15.2595 21.4564 15.3619 21.3715 15.4468C21.0519 15.7848 20.7362 16.059 20.2448 16.8778C19.8913 17.4611 19.4308 18.2374 19.0732 19.0852C18.7197 19.9195 18.468 20.6649 18.1364 21.4876C18.0894 21.6074 18.0335 21.6016 18.0335 21.6016C17.2235 21.8661 16.4304 22.0419 15.7043 23.0191C15.5545 23.2199 15.4885 23.5752 15.5804 23.8475C15.6623 24.0889 15.8491 24.1141 15.978 23.9325C16.4294 23.2798 16.8939 22.9727 17.4262 22.9457C17.4492 22.9476 17.4602 22.9573 17.4672 22.9824C17.4732 22.9978 17.4672 23.0306 17.4592 23.0558C16.6611 25.1955 16.4614 25.6783 15.8621 27.0051C15.5545 27.6868 15.2528 28.2623 14.9152 28.8609C13.5529 31.3078 12.0876 31.2672 11.5622 29.7319C11.2486 28.8107 11.2896 27.8451 11.4963 27.0417C11.749 26.0588 12.2614 25.3404 12.6869 24.9194C12.8447 24.7629 12.8907 24.3728 12.7318 24.0175C12.632 23.7838 12.3873 23.7433 12.2055 23.807C11.6471 24.0078 10.9879 24.8228 10.5984 25.8038C10.1599 26.9066 9.94019 28.243 10.0141 29.7435C10.1459 32.453 11.2996 34.0172 12.608 33.9999C13.6497 33.9825 14.6316 33.3741 15.8122 31.0567C16.9138 28.8938 17.9156 25.6667 18.8545 22.6734C18.8835 22.5768 18.9044 22.5247 19.0473 22.4918C19.6356 22.3509 20.5055 22.1867 21.0629 22.1249C21.1877 22.1114 21.2127 22.1153 21.2616 22.235C21.4074 22.5884 21.6252 22.8897 21.8 23.0712C21.8849 23.162 21.9258 23.2045 21.9927 23.2083C22.0756 23.2122 22.1396 23.1253 22.1805 23.0345C22.2394 22.909 22.2564 22.7468 22.2245 22.6405C22.1915 22.5305 21.802 22.1133 21.79 21.9453C21.781 21.8391 21.8409 21.814 21.8409 21.814C22.1266 21.6402 22.4242 21.2848 22.604 20.6166C22.7808 19.96 22.8098 19.0813 22.4851 18.5947C22.2015 18.1679 21.772 18.2355 21.4294 18.8284C21.0948 19.4058 20.9829 20.2459 21.0289 20.9816C21.0369 21.1091 21.0349 21.1535 20.943 21.167C20.4276 21.2462 19.9312 21.2733 19.3789 21.3293C19.3419 21.3351 19.3309 21.2868 19.3519 21.2366C19.9871 19.1007 20.937 17.5808 21.9857 16.0841C22.0547 15.9837 22.0337 15.7925 22.0307 15.6322C23.9264 16.4279 25.7572 17.911 27.7249 17.8782C28.5379 17.8647 29.316 17.6272 30.0591 16.8373C30.7133 16.1459 30.98 15.5086 30.9989 14.8462C31.0149 14.3866 30.8501 14.0989 30.6154 14.1954C28.6288 15.078 26.734 15.0683 24.7564 14.6068C22.5141 14.0815 20.3617 13 18.1304 13C18.1304 13 18.1314 13 18.1254 13H18.1304ZM21.5533 20.6978C21.5243 20.2922 21.5932 19.7476 21.8169 19.3633C21.9288 19.1702 22.0816 19.1258 22.1755 19.2803C22.2804 19.4541 22.2305 19.8847 22.1246 20.1841C22.0097 20.5143 21.813 20.7982 21.6342 20.8677C21.6282 20.8696 21.6242 20.8716 21.6192 20.8716C21.5912 20.8696 21.5662 20.8291 21.5533 20.6978Z" fill="black"/>
</svg>
