<svg xmlns="http://www.w3.org/2000/svg" width="48" height="48" fill="none" viewBox="0 0 48 48"><g clip-path="url(#a)"><path fill="#000" fill-rule="evenodd" d="M41.929 29.916c-.312 2.273-.53 5.247-2.15 7.009-.57.623-4.987 3.214-4.777 1.215.81-6.24 1.256-12.499 1.643-18.78.112-2.636.262-5.276.296-7.912.041-.447-.236-1.546.457-1.575 1.313.386 2.753.772 3.62 1.935 1.634 2.2 1.443 5.505 1.473 8.11.041 3.327-.112 6.702-.562 9.998M33.273 9.82c-.9 3.296-1.935 7.665-2.86 10.973-.74 2.647-1.587 6.06-4.793 6.397-.48.049-.986.094-1.5.101a17 17 0 0 1-1.5-.101c-3.207-.338-4.054-3.75-4.793-6.398-.926-3.307-1.961-7.676-2.861-10.972-.154-.566.079-.439 1.241-.596 2.085-.281 5.194-.326 7.913-.3 2.715-.026 5.827.019 7.912.3 1.163.157 1.395.03 1.242.596M29.85 39.374c-.259.045-1.129.041-2.089.063-1.215.03-2.426.034-3.641.034-1.212 0-2.427-.003-3.642-.033-.96-.023-1.83-.02-2.088-.064-.259-.045-.525-.064-.447-.353.08-.292 1.245-4.08 1.245-4.08.765-2.52.818-2.685 2.783-3.075.652-.127 1.399-.21 2.149-.217.753.007 1.496.09 2.148.217 1.965.39 2.022.555 2.787 3.075 0 0 1.166 3.788 1.241 4.08.079.289-.187.308-.446.353M8.46 36.925c-1.624-1.762-1.838-4.736-2.149-7.009-.45-3.296-.604-6.671-.566-9.997.03-2.607-.158-5.91 1.477-8.112.866-1.162 2.306-1.548 3.619-1.934.694.03.416 1.128.458 1.575.033 2.636.183 5.276.296 7.912.382 6.281.832 12.54 1.642 18.78.21 1.999-4.207-.593-4.777-1.215m36.705-19.819c-.146-2.46-.507-5.145-2.314-6.967-1.65-1.658-4.031-2.123-6.244-2.423-4.17-.559-8.28-.712-12.487-.716-4.208.004-8.318.157-12.488.716-2.212.3-4.594.765-6.244 2.427-1.807 1.818-2.167 4.503-2.313 6.963-.169 2.85-.023 5.696.15 8.543.176 2.801.487 5.628 1.166 8.359.315 1.263.742 2.534 1.47 3.622.701 1.042 1.71 1.785 2.839 2.302 2.4 1.107 5.167 1.2 7.759 1.362 2.542.157 5.1.255 7.66.266 2.562-.011 5.12-.109 7.662-.266 2.591-.161 5.359-.259 7.759-1.361 1.129-.522 2.137-1.26 2.839-2.307.727-1.087 1.154-2.358 1.47-3.622.678-2.726.99-5.554 1.166-8.359.172-2.843.319-5.689.15-8.539" clip-rule="evenodd"/></g><defs><clipPath id="a"><path fill="#fff" d="M0 0h48v48H0z"/></clipPath></defs></svg>