<svg xmlns="http://www.w3.org/2000/svg" xml:space="preserve" viewBox="0 0 512 512"><path d="m218.22 229.88-10.65 23.53-10.66-23.53h-36.39v50.65h28.78v-25.74l10.66 25.74h15.22l10.65-25.74v25.74h28.65v-50.65zm100.05 0-10.65 23.53-10.52-23.53h-36.4v50.65h28.65v-25.74L300 280.53h15.23l10.79-25.74v25.74h28.64v-50.65zm-273.57 0v18.55H30.44v-18.55H0v50.65h30.44V261.3H44.7v19.23h30.44v-50.65zm381.51 12.18v-12.18h-65.18v50.65h65.18v-12.18h-34.88v-7.61h34.88v-11.07h-34.88v-7.61zm-315.23-12.18v33.9c0 4.43 2.91 5.4 6.78 5.4s6.78-1.11 6.78-5.54v-33.9h30.3v34.04c0 15.08-10.93 18.27-37.09 18.27-26.15 0-37.22-3.18-37.22-18.27v-34.04h30.44v.14zm360.06 23.11c5.67 0 8.44-2.08 8.44-6.23 0-5.26-3.46-6.64-8.44-6.64h-8.86v12.87zm8.58 27.54-17.44-18.27v18.13h-30.44v-50.65h48.85c10.24 0 27.26-.28 26.29 16.61-.42 7.89-8.72 13.7-15.22 15.08L512 280.39h-32.38z"/></svg>