<?xml version="1.0" encoding="utf-8"?>
<!-- Generator: Adobe Illustrator 26.5.0, SVG Export Plug-In . SVG Version: 6.00 Build 0)  -->
<svg version="1.1" id="Layer_1" xmlns="http://www.w3.org/2000/svg" xmlns:xlink="http://www.w3.org/1999/xlink" x="0px" y="0px"
	 viewBox="0 0 512 512" style="enable-background:new 0 0 512 512;" xml:space="preserve">
<g id="g3">
	<polygon id="polygon5" points="218.22,229.88 207.57,253.41 196.91,229.88 160.52,229.88 160.52,280.53 189.3,280.53 189.3,254.79 
		199.96,280.53 215.18,280.53 225.83,254.79 225.83,280.53 254.48,280.53 254.48,229.88 	"/>
	<polygon id="polygon7" points="318.27,229.88 307.62,253.41 297.1,229.88 260.7,229.88 260.7,280.53 289.35,280.53 289.35,254.79 
		300,280.53 315.23,280.53 326.02,254.79 326.02,280.53 354.66,280.53 354.66,229.88 	"/>
	<polygon id="polygon9" points="44.7,229.88 44.7,248.43 30.44,248.43 30.44,229.88 0,229.88 0,280.53 30.44,280.53 30.44,261.3 
		44.7,261.3 44.7,280.53 75.14,280.53 75.14,229.88 	"/>
	<polygon id="polygon11" points="426.21,242.06 426.21,229.88 361.03,229.88 361.03,280.53 426.21,280.53 426.21,268.35 
		391.33,268.35 391.33,260.74 426.21,260.74 426.21,249.67 391.33,249.67 391.33,242.06 	"/>
	<path id="path13" d="M110.98,229.88v33.9c0,4.43,2.91,5.4,6.78,5.4c3.87,0,6.78-1.11,6.78-5.54v-33.9h30.3v34.04
		c0,15.08-10.93,18.27-37.09,18.27c-26.15,0-37.22-3.18-37.22-18.27v-34.04h30.44V229.88z"/>
	<path id="path15" d="M471.04,252.99c5.67,0,8.44-2.08,8.44-6.23c0-5.26-3.46-6.64-8.44-6.64h-8.86v12.87H471.04z M479.62,280.53
		l-17.44-18.27v18.13h-30.44v-50.65h48.85c10.24,0,27.26-0.28,26.29,16.61c-0.42,7.89-8.72,13.7-15.22,15.08L512,280.39h-32.38
		V280.53z"/>
</g>
</svg>
