<svg xmlns="http://www.w3.org/2000/svg" xmlns:xlink="http://www.w3.org/1999/xlink" xml:space="preserve" id="Layer_1" x="0" y="0" viewBox="0 0 512 512"><style>.st0{fill:#002d73}.st60{fill:none}</style><g id="XMLID_1_"><g id="XMLID_2_"><path id="XMLID_96_" d="M49.64 341.19v28.3h-32v-28.3H0v74.1h17.64v-29.73h32v29.73h17.63v-74.1h-.85z" class="st0"/><path id="XMLID_95_" d="m131.98 341.19-18.49 29.3L95 341.19H74.24l30.44 48.5v25.6h17.63v-25.6l30.44-48.5h-1.57z" class="st0"/><path id="XMLID_94_" d="M209.49 341.19v54.33c0 1.99-1.56 3.7-3.7 3.7h-28.3v-58.03h-17.64v74.1h52.05c4.69 0 8.39-1.42 11.09-4.12s4.12-6.4 4.12-11.09v-59.02h-17.63v.13z" class="st0"/><path id="XMLID_93_" d="M295.68 341.19h-52.2v74.1h17.64v-58.03h28.3c2.28 0 3.7 1.85 3.7 3.7v54.33h17.64v-58.88c0-4.69-1.42-8.39-4.12-11.09-2.71-2.71-6.41-4.13-10.96-4.13" class="st0"/><path id="XMLID_3_" d="M379.16 341.19h-52.05v74.1h52.2c4.55 0 8.39-1.42 11.09-4.12s4.12-6.4 4.12-11.09v-43.8c0-4.69-1.42-8.39-4.12-11.09-2.84-2.58-6.54-4-11.24-4m-2.41 19.91v34.28c0 1.99-1.42 3.84-3.7 3.84h-28.3v-41.96h28.16c2.27 0 3.84 1.57 3.84 3.84" class="st0"/><path id="XMLID_4_" d="M425.1 341.19c-4.69 0-8.39 1.42-11.09 4.12s-4.12 6.4-4.12 11.09v58.88h17.64v-22.9h32v22.9h17.64v-74.1H425.1zm34.42 16.07v19.06h-32v-15.36c0-1.85 1.42-3.7 3.7-3.7z" class="st0"/><path id="XMLID_88_" d="M494.36 341.19H512v74.1h-17.64z" class="st0"/></g><g id="XMLID_5_"><g id="XMLID_6_"><radialGradient id="SVGID_1_" cx="306.403" cy="354.714" r="194.804" gradientTransform="matrix(.9753 0 0 -.9753 -29.157 480.642)" gradientUnits="userSpaceOnUse"><stop offset="0" style="stop-color:#8b9394"/><stop offset="1" style="stop-color:#727a79"/></radialGradient><path d="M236.52 189.3c3.98 0 8.39-.57 12.94-1.42 16.5-3.56 32.43-9.24 47.22-15.08 39.96-15.22 59.59-30.29 64.57-34.42 1-.71 1.56-1.28 1.99-1.71 1-1 2.13-2.28 2.13-4.27 0-3.7-4.27-4.84-6.83-5.55-.28-.14-.57-.14-.85-.28-29.58-8.82-63.72-13.51-98.84-13.51h-2.13c-5.26.14-10.1 1.28-13.94 3.13-12.37 6.12-18.35 20.48-21.9 29.01-.43.85-.71 1.71-1 2.42-6.54 15.22-7.54 26.6-2.99 33.56 3.7 5.42 10.24 8.12 19.63 8.12m-13.94-40.54c.28-.71.71-1.56 1-2.42 3.41-8.11 9.1-21.76 20.48-27.45 3.41-1.71 7.96-2.7 12.66-2.84h1.99c34.84 0 68.84 4.69 97.99 13.37.28.14.57.14.85.28 1.71.43 4.69 1.28 4.69 2.7 0 .71-.28 1.42-1.28 2.28-.28.28-.85.71-1.71 1.42-4.98 4.12-24.32 19.06-63.86 33.99-14.65 5.69-30.58 11.52-46.79 14.93-4.41.85-8.68 1.42-12.37 1.42-8.39 0-14.22-2.28-17.21-6.83-3.7-6.1-2.56-16.48 3.56-30.85" style="fill:url(#SVGID_1_)"/><radialGradient id="SVGID_00000168813168431641889830000004615590517874974336_" cx="301.258" cy="394.972" r="241.679" gradientTransform="matrix(.9765 0 0 -.9777 -35.3 484.034)" gradientUnits="userSpaceOnUse"><stop offset="0" style="stop-color:#969d9d"/><stop offset=".614" style="stop-color:#7a8182"/><stop offset="1" style="stop-color:#4b5050"/></radialGradient><path d="M258.28 96.71c-111.22 0-201.67 46.51-201.67 103.68s90.45 103.68 201.67 103.68 201.67-46.51 201.67-103.68S369.49 96.71 258.28 96.71m0 204.37c-109.37 0-198.4-45.08-198.4-100.55s89.03-100.55 198.4-100.55 198.54 45.08 198.54 100.55c0 55.33-89.03 100.55-198.54 100.55" style="fill:url(#SVGID_00000168813168431641889830000004615590517874974336_)"/><radialGradient id="SVGID_00000123417475272689403940000011882122173746987163_" cx="217.738" cy="362.999" r="199.75" gradientTransform="matrix(.9753 0 0 -.9753 -29.157 480.642)" gradientUnits="userSpaceOnUse"><stop offset="0" style="stop-color:#969d9d"/><stop offset=".46" style="stop-color:#828b8a"/><stop offset="1" style="stop-color:#c2c9c8"/></radialGradient><path d="M194.7 126.01c1.28-2.13.71-3.84-.14-4.84-1.28-1.56-4.69-1.71-9.81-.71-67.7 13.8-111.5 45.23-111.5 80.07 0 19.2 13.37 37.55 38.68 53.05 1.85 1 3.41 1.56 4.98 1.56 2.42-.14 3.56-1.56 4.55-3.13.43-.57.85-1.56 1.28-2.56l.43-.71c22.04-50.92 46.08-92.44 69.69-120.18.99-1.13 1.42-1.84 1.84-2.55m-2.42-1.57c-.43.71-.85 1.28-1.56 2.13-23.75 27.88-48.07 69.69-70.12 120.75l-.28.71c-.43 1-.85 1.85-1.14 2.42-.71 1.14-1.28 1.71-2.13 1.71-1 0-1.99-.43-3.41-1.14-24.32-14.93-37.26-32.43-37.26-50.63 0-33.42 42.81-63.72 109.08-77.23 1.85-.43 3.56-.57 4.84-.57 1.71 0 2.13.43 2.28.43.13.29.13.86-.3 1.42" style="fill:url(#SVGID_00000123417475272689403940000011882122173746987163_)"/><radialGradient id="SVGID_00000104683388020136201410000009828111382503892395_" cx="303.917" cy="267.708" r="111.128" gradientTransform="matrix(.9753 0 0 -.9753 -29.157 480.642)" gradientUnits="userSpaceOnUse"><stop offset="0" style="stop-color:#969d9d"/><stop offset=".614" style="stop-color:#828b8a"/><stop offset="1" style="stop-color:#727a79"/></radialGradient><path d="M280.75 211.34c-3.98 0-8.39.57-12.94 1.42-17.21 3.7-33.71 9.81-46.93 14.93l-.28.14c-40.11 15.22-59.73 30.29-64.71 34.56-.28.28-.57.57-.85.71-.43.28-.71.57-1 .85-.85.85-1.99 2.28-1.99 4.27 0 3.7 4.69 5.12 7.25 5.83l.43.14c29.44 8.68 63.57 13.37 98.84 13.37h1.98c4.98-.14 10.1-1.28 13.94-3.13 12.52-6.26 18.35-20.62 21.9-29.16.28-.85.57-1.56.85-2.13 6.54-15.22 7.54-26.6 2.99-33.56-3.55-5.54-10.1-8.24-19.48-8.24m13.79 40.54c-.28.71-.57 1.42-1 2.28-3.41 8.25-9.1 22.04-20.62 27.73-4.98 2.42-9.39 2.84-14.79 2.84-34.84 0-68.69-4.55-97.99-13.23l-.57-.14c-1.56-.43-5.12-1.56-5.12-2.99 0-.71.28-1.28 1.14-2.13.28-.28.57-.43.85-.71s.57-.43.85-.71c4.98-4.12 24.18-18.92 63.86-34.13l.28-.14c13.08-4.98 29.44-11.24 46.51-14.79 4.41-.85 8.68-1.42 12.37-1.42 8.39 0 14.22 2.28 17.21 6.83 4.42 6.1 3.28 16.34-2.98 30.71" style="fill:url(#SVGID_00000104683388020136201410000009828111382503892395_)"/><radialGradient id="SVGID_00000140731321499856953130000013600144668229890462_" cx="441.471" cy="317.421" r="159.93" gradientTransform="matrix(.9753 0 0 -.9753 -29.157 480.642)" gradientUnits="userSpaceOnUse"><stop offset="0" style="stop-color:#969d9d"/><stop offset=".614" style="stop-color:#828b8a"/><stop offset="1" style="stop-color:#727a79"/></radialGradient><path d="M405.19 147.34c-1.71-1.14-3.13-1.56-4.41-1.56h-.57c-1.99.14-3.56 1.14-4.41 2.99-.71 1-1.42 2.56-1.71 3.27-12.23 28.73-37.69 82.63-69.69 120.18-.85 1-1.42 1.71-1.85 2.56-1 1.85-1 3.56.14 4.84.85.85 2.13 1.28 4.12 1.28 1.42 0 2.99-.14 5.12-.57 67.7-13.8 111.36-45.23 111.36-80.07.02-19.21-13.21-37.56-38.1-52.92m-73.95 130.28c-1.85.43-3.41.57-4.55.57-1.56 0-1.85-.28-1.99-.43-.43-.43 0-1.14.14-1.56.28-.57.71-1.14 1.56-2.13 32.28-37.97 57.74-92.02 70.12-120.89.57-1.28 1.14-2.28 1.56-3.13.57-1.14 1.14-1.56 2.28-1.56h.28c.71 0 1.71.43 2.84 1.14 24.04 14.79 36.69 32.28 36.69 50.63.29 33.55-42.66 63.85-108.93 77.36" style="fill:url(#SVGID_00000140731321499856953130000013600144668229890462_)"/></g><g id="XMLID_7_"><defs><path id="SVGID_00000081618349233842837440000014211579280442828220_" d="M258.28 302.51c110.36 0 199.96-45.65 199.96-101.97S368.78 98.42 258.28 98.42c-110.36 0-199.96 45.65-199.96 102.12.13 56.31 89.59 101.97 199.96 101.97m37.68-50.07c-3.27 7.68-9.1 24.18-22.19 30.72-3.98 1.99-8.96 2.84-13.37 2.99-1 .14-1.71 0-1.99 0-36.12 0-69.97-4.84-98.42-13.23-2.13-.57-6.68-1.71-6.68-4.55 0-1.28.71-2.28 1.56-3.27.43-.43 1-.85 1.85-1.56 6.54-5.55 26.74-20.05 64.28-34.28 13.23-4.98 29.72-11.38 47.08-14.93 10.11-2.28 47.8-7.97 27.88 38.11m100.98-102.82c.71-1.28 1.71-2.28 3.27-2.42 1-.14 2.13.14 4.12 1.28 23.47 14.51 37.4 32.43 37.4 51.91 0 35.27-45.37 65.42-110.22 78.65-4.12.85-6.97.85-7.82-.28-.57-.71-.85-1.85 0-3.13.43-.71.85-1.42 1.71-2.42 35.41-41.53 62.29-102.83 69.97-120.6.43-1 1.15-2.28 1.57-2.99M221.3 148.2c3.27-7.68 9.1-24.18 22.19-30.72 3.98-1.99 8.96-2.84 13.37-2.99h1.99c36.27 0 69.97 4.98 98.42 13.37 2.13.57 6.68 1.42 6.68 4.41 0 1.28-.71 2.28-1.71 3.27-.43.43-1 1-1.85 1.56-6.68 5.55-26.6 19.91-64.28 34.28-13.23 5.12-29.87 11.38-47.08 15.08-9.95 2.13-47.64 7.82-27.73-38.26m-36.13-26.46c4.27-.85 7.4-.85 8.39.28.57.71.85 1.71 0 3.13-.43.71-.85 1.42-1.71 2.42-35.41 41.53-62.29 102.83-69.83 120.46-.57 1.28-1.14 2.42-1.56 3.27-.85 1.28-1.71 2.28-3.41 2.42-.85 0-2.13-.28-4.12-1.42-23.47-14.36-37.97-32.43-37.97-51.91-.15-35.13 45.36-65.42 110.21-78.65"/></defs><clipPath id="SVGID_00000179636777139510786970000001999570138814656128_"><use xlink:href="#SVGID_00000081618349233842837440000014211579280442828220_" style="overflow:visible"/></clipPath><g id="XMLID_14_" style="clip-path:url(#SVGID_00000179636777139510786970000001999570138814656128_)"><g id="XMLID_15_"><defs><path id="SVGID_00000092454318156883769200000007853053112643412101_" d="M258.28 300.37c-109.08 0-197.83-44.8-197.83-99.98s88.75-99.98 197.83-99.98 197.83 44.8 197.83 99.98-88.75 99.98-197.83 99.98m22.47-89.6c-3.98 0-8.53.57-13.08 1.42-17.35 3.7-33.71 9.96-46.93 14.93l-.28.14c-40.25 15.36-59.88 30.44-64.85 34.7l-.85.71c-.43.28-.71.71-1 .85-1 .85-2.28 2.42-2.28 4.69 0 4.12 4.98 5.55 7.68 6.4l.43.14c29.58 8.68 63.72 13.37 98.99 13.37h2.14c4.84-.14 10.1-1.28 14.08-3.13 12.66-6.4 18.63-20.91 22.33-29.58l.85-2.13c6.68-15.5 7.68-26.88 2.99-34.13-3.87-5.53-10.69-8.38-20.22-8.38m120.03-65.56h-.71c-1.99.14-3.7 1.28-4.84 3.41-.57.85-1.28 2.42-1.71 3.13-12.37 28.73-37.69 82.49-69.55 120.04-.85 1-1.42 1.71-1.99 2.7-1.42 2.28-.71 4.41.28 5.55.85 1 2.42 1.56 4.55 1.56 1.42 0 3.13-.14 5.26-.57C400.05 267.09 444 235.52 444 200.39c0-19.63-13.23-38.12-38.4-53.62-1.97-1.13-3.4-1.56-4.82-1.56m-210.49-26.03c-1.56 0-3.41.28-5.55.71-67.98 13.8-111.93 45.51-111.93 80.64 0 19.48 13.51 37.97 38.97 53.62 1.85 1.14 3.56 1.71 5.26 1.71 2.84-.14 4.27-1.85 5.12-3.27.43-.71.85-1.71 1.42-2.7l.28-.71c22.04-50.92 46.08-92.44 69.55-120.04 1-1.14 1.42-1.85 1.85-2.7 1.42-2.42.85-4.41-.28-5.55-.85-1.28-2.41-1.71-4.69-1.71m66.56-6.68c-5.26.14-10.38 1.42-14.22 3.27-12.66 6.26-18.63 20.62-22.19 29.3l-1 2.42c-6.68 15.5-7.68 26.88-2.99 34.13 3.7 5.55 10.38 8.39 20.05 8.39 3.98 0 8.53-.57 13.08-1.42 16.5-3.56 32.57-9.39 47.36-15.08 39.96-15.22 59.73-30.29 64.85-34.56 1-.71 1.56-1.28 1.99-1.85 1-1 2.13-2.42 2.13-4.55 0-4.12-4.69-5.4-7.25-6.12l-.85-.28c-29.58-8.82-63.86-13.51-98.99-13.51h-1.99v-.14z"/></defs><clipPath id="SVGID_00000019646588192960234490000013503144622980689325_"><use xlink:href="#SVGID_00000092454318156883769200000007853053112643412101_" style="overflow:visible"/></clipPath><g id="XMLID_17_" style="clip-path:url(#SVGID_00000019646588192960234490000013503144622980689325_)"><defs><path id="SVGID_00000047782356184273160960000015736158412147563159_" d="M258.28 300.37c-108.94 0-197.69-44.8-197.69-99.84s88.6-99.84 197.69-99.84c108.94 0 197.69 44.8 197.69 99.84s-88.75 99.84-197.69 99.84m22.32-89.6c-3.98 0-8.53.57-13.08 1.42-17.21 3.7-33.71 9.81-46.93 14.93l-.28.14c-40.25 15.36-59.73 30.44-64.85 34.56l-.85.85c-.43.28-.71.71-1 .85-1 .85-2.28 2.42-2.28 4.69 0 4.12 4.98 5.55 7.68 6.4l.43.14c29.44 8.68 63.72 13.37 98.84 13.37h2.14c4.84-.14 10.1-1.28 14.08-3.13 12.66-6.4 18.63-20.76 22.19-29.44l.85-2.13c6.68-15.36 7.68-26.88 2.99-34.13-3.43-5.67-10.25-8.52-19.93-8.52m120.04-65.56h-.71c-1.99.14-3.7 1.28-4.84 3.41-.57.85-1.28 2.42-1.71 3.13-12.23 28.73-37.55 82.49-69.55 119.89-.85 1-1.42 1.71-1.99 2.7-1.42 2.28-.71 4.41.28 5.55.85 1 2.42 1.56 4.55 1.56 1.42 0 3.13-.14 5.26-.57 67.84-13.8 111.79-45.51 111.79-80.64 0-19.63-13.23-38.12-38.4-53.48-1.84-.98-3.4-1.55-4.68-1.55m-210.35-26.03c-1.56 0-3.41.28-5.55.71-67.98 13.8-111.79 45.37-111.79 80.5 0 19.34 13.37 37.97 38.83 53.48 1.85 1.14 3.56 1.71 5.12 1.71 2.84-.14 4.27-1.85 5.12-3.27.43-.71.85-1.71 1.42-2.7l.28-.71c21.9-50.92 45.94-92.3 69.55-119.89 1-1.14 1.42-1.85 1.85-2.7 1.42-2.42.85-4.41-.28-5.55-.56-1.01-2.13-1.58-4.55-1.58m66.56-6.54c-5.26.14-10.24 1.28-14.08 3.27-12.66 6.26-18.63 20.62-22.19 29.3l-1 2.42c-6.68 15.5-7.68 26.88-2.99 34.13 3.7 5.55 10.38 8.39 20.05 8.39 3.98 0 8.53-.57 13.08-1.42 16.5-3.56 32.43-9.24 47.36-15.08 39.96-15.22 59.59-30.29 64.71-34.56 1-.71 1.56-1.28 1.99-1.85 1-.85 2.13-2.42 2.13-4.55 0-4.12-4.69-5.4-7.25-6.12l-.85-.28c-29.58-8.82-63.72-13.51-98.99-13.51z"/></defs><clipPath id="SVGID_00000009571034603052388490000007456370074137384092_"><use xlink:href="#SVGID_00000047782356184273160960000015736158412147563159_" style="overflow:visible"/></clipPath><g id="XMLID_19_" style="clip-path:url(#SVGID_00000009571034603052388490000007456370074137384092_)"><g id="XMLID_20_"><g id="XMLID_21_"><g id="XMLID_22_"><path id="XMLID_23_" d="M258.28 302.36c110.22 0 199.68-45.65 199.68-101.97S368.64 98.42 258.28 98.42c-110.22 0-199.68 45.65-199.68 101.97s89.45 101.97 199.68 101.97m37.54-49.92c-3.27 7.68-8.96 24.04-22.19 30.58-3.98 1.99-8.96 2.84-13.37 2.99-1 .14-1.71 0-1.99 0-36.84 0-71.11-5.12-99.84-13.8-.28-.14-.85-.43-.85-.43-2.84-.85-4.27-2.13-4.27-3.7 0-1.28.71-2.28 1.56-3.27.43-.43 1-.85 1.85-1.56 6.54-5.55 26.6-20.05 64.14-34.28 13.23-4.98 29.72-11.38 46.93-14.93 10.4-1.99 47.94-7.68 28.03 38.4M396.8 149.62c.71-1.28 1.71-2.28 3.27-2.42 1-.14 2.13.14 4.12 1.28 23.47 14.36 37.4 32.28 37.4 51.77 0 35.13-45.37 65.42-110.08 78.65-4.12.85-6.97.85-7.82-.28-.57-.71-.85-1.85 0-3.13.43-.71.85-1.42 1.71-2.28 35.27-41.53 62.29-102.68 69.83-120.46.43-1.14 1.14-2.28 1.57-3.13m-175.5-1.28c3.27-7.68 8.96-24.04 22.19-30.72 3.98-1.99 8.96-2.84 13.37-2.99h1.99c36.84 0 71.11 5.12 99.84 13.94.28 0 .85.28 1.14.28 2.7.85 3.98 2.13 4.12 3.56 0 1.28-.71 2.28-1.71 3.27-.43.43-1 1-1.85 1.56-6.68 5.55-26.6 19.91-64.14 34.28-13.23 5.12-29.72 11.38-46.93 14.93-10.24 2.14-47.79 7.83-28.02-38.11m-35.98-26.46c4.27-.85 7.4-.85 8.39.28.57.71.85 1.71 0 3.13-.43.71-.85 1.42-1.71 2.42-35.27 41.53-62.15 102.68-69.83 120.32-.57 1.28-1.14 2.42-1.56 3.27-.85 1.28-1.71 2.28-3.41 2.28-.85 0-2.13-.28-4.12-1.42-23.32-14.36-37.83-32.28-37.83-51.77-.16-35.13 45.21-65.42 110.07-78.51" style="fill:#fff"/></g></g></g></g><defs><path id="SVGID_00000029755079202899802990000016609143221324669825_" d="M258.28 300.37c-108.94 0-197.69-44.8-197.69-99.84s88.6-99.84 197.69-99.84c108.94 0 197.69 44.8 197.69 99.84s-88.75 99.84-197.69 99.84m22.32-89.6c-3.98 0-8.53.57-13.08 1.42-17.21 3.7-33.71 9.81-46.93 14.93l-.28.14c-40.25 15.36-59.73 30.44-64.85 34.56l-.85.85c-.43.28-.71.71-1 .85-1 .85-2.28 2.42-2.28 4.69 0 4.12 4.98 5.55 7.68 6.4l.43.14c29.44 8.68 63.72 13.37 98.84 13.37h2.14c4.84-.14 10.1-1.28 14.08-3.13 12.66-6.4 18.63-20.76 22.19-29.44l.85-2.13c6.68-15.36 7.68-26.88 2.99-34.13-3.43-5.67-10.25-8.52-19.93-8.52m120.04-65.56h-.71c-1.99.14-3.7 1.28-4.84 3.41-.57.85-1.28 2.42-1.71 3.13-12.23 28.73-37.55 82.49-69.55 119.89-.85 1-1.42 1.71-1.99 2.7-1.42 2.28-.71 4.41.28 5.55.85 1 2.42 1.56 4.55 1.56 1.42 0 3.13-.14 5.26-.57 67.84-13.8 111.79-45.51 111.79-80.64 0-19.63-13.23-38.12-38.4-53.48-1.84-.98-3.4-1.55-4.68-1.55m-210.35-26.03c-1.56 0-3.41.28-5.55.71-67.98 13.8-111.79 45.37-111.79 80.5 0 19.34 13.37 37.97 38.83 53.48 1.85 1.14 3.56 1.71 5.12 1.71 2.84-.14 4.27-1.85 5.12-3.27.43-.71.85-1.71 1.42-2.7l.28-.71c21.9-50.92 45.94-92.3 69.55-119.89 1-1.14 1.42-1.85 1.85-2.7 1.42-2.42.85-4.41-.28-5.55-.56-1.01-2.13-1.58-4.55-1.58m66.56-6.54c-5.26.14-10.24 1.28-14.08 3.27-12.66 6.26-18.63 20.62-22.19 29.3l-1 2.42c-6.68 15.5-7.68 26.88-2.99 34.13 3.7 5.55 10.38 8.39 20.05 8.39 3.98 0 8.53-.57 13.08-1.42 16.5-3.56 32.43-9.24 47.36-15.08 39.96-15.22 59.59-30.29 64.71-34.56 1-.71 1.56-1.28 1.99-1.85 1-.85 2.13-2.42 2.13-4.55 0-4.12-4.69-5.4-7.25-6.12l-.85-.28c-29.58-8.82-63.72-13.51-98.99-13.51z"/></defs><clipPath id="SVGID_00000018215469316289973990000014090177277520751037_"><use xlink:href="#SVGID_00000029755079202899802990000016609143221324669825_" style="overflow:visible"/></clipPath><g id="XMLID_24_" style="clip-path:url(#SVGID_00000018215469316289973990000014090177277520751037_)"><g id="XMLID_25_"><g id="XMLID_26_"><g id="XMLID_27_"><linearGradient id="XMLID_00000009561630323950981900000017361529570902259592_" x1="253.375" x2="263.254" y1="407.125" y2="218.612" gradientTransform="matrix(1 0 0 -1 0 514)" gradientUnits="userSpaceOnUse"><stop offset="0" style="stop-color:#fff"/><stop offset=".4" style="stop-color:#fff"/><stop offset=".571" style="stop-color:#a4aaaa"/><stop offset=".626" style="stop-color:#8f9697"/><stop offset=".663" style="stop-color:#878f90"/><stop offset=".75" style="stop-color:#969d9d"/><stop offset=".81" style="stop-color:#fff"/></linearGradient><path id="XMLID_28_" d="M258.28 302.36c110.22 0 199.68-45.65 199.68-101.97S368.64 98.42 258.28 98.42c-110.22 0-199.68 45.65-199.68 101.97s89.45 101.97 199.68 101.97m37.54-49.92c-3.27 7.68-8.96 24.04-22.19 30.58-3.98 1.99-8.96 2.84-13.37 2.99-1 .14-1.71 0-1.99 0-36.84 0-71.11-5.12-99.84-13.8-.28-.14-.85-.43-.85-.43-2.84-.85-4.27-2.13-4.27-3.7 0-1.28.71-2.28 1.56-3.27.43-.43 1-.85 1.85-1.56 6.54-5.55 26.6-20.05 64.14-34.28 13.23-4.98 29.72-11.38 46.93-14.93 10.4-1.99 47.94-7.68 28.03 38.4M396.8 149.62c.71-1.28 1.71-2.28 3.27-2.42 1-.14 2.13.14 4.12 1.28 23.47 14.36 37.4 32.28 37.4 51.77 0 35.13-45.37 65.42-110.08 78.65-4.12.85-6.97.85-7.82-.28-.57-.71-.85-1.85 0-3.13.43-.71.85-1.42 1.71-2.28 35.27-41.53 62.29-102.68 69.83-120.46.43-1.14 1.14-2.28 1.57-3.13m-175.5-1.28c3.27-7.68 8.96-24.04 22.19-30.72 3.98-1.99 8.96-2.84 13.37-2.99h1.99c36.84 0 71.11 5.12 99.84 13.94.28 0 .85.28 1.14.28 2.7.85 3.98 2.13 4.12 3.56 0 1.28-.71 2.28-1.71 3.27-.43.43-1 1-1.85 1.56-6.68 5.55-26.6 19.91-64.14 34.28-13.23 5.12-29.72 11.38-46.93 14.93-10.24 2.14-47.79 7.83-28.02-38.11m-35.98-26.46c4.27-.85 7.4-.85 8.39.28.57.71.85 1.71 0 3.13-.43.71-.85 1.42-1.71 2.42-35.27 41.53-62.15 102.68-69.83 120.32-.57 1.28-1.14 2.42-1.56 3.27-.85 1.28-1.71 2.28-3.41 2.28-.85 0-2.13-.28-4.12-1.42-23.32-14.36-37.83-32.28-37.83-51.77-.16-35.13 45.21-65.42 110.07-78.51" style="fill:url(#XMLID_00000009561630323950981900000017361529570902259592_)"/></g></g></g></g><defs><path id="SVGID_00000139993596607130242000000007662829871536382622_" d="M258.28 300.37c-108.94 0-197.69-44.8-197.69-99.84s88.6-99.84 197.69-99.84c108.94 0 197.69 44.8 197.69 99.84s-88.75 99.84-197.69 99.84m22.32-89.6c-3.98 0-8.53.57-13.08 1.42-17.21 3.7-33.71 9.81-46.93 14.93l-.28.14c-40.25 15.36-59.73 30.44-64.85 34.56l-.85.85c-.43.28-.71.71-1 .85-1 .85-2.28 2.42-2.28 4.69 0 4.12 4.98 5.55 7.68 6.4l.43.14c29.44 8.68 63.72 13.37 98.84 13.37h2.14c4.84-.14 10.1-1.28 14.08-3.13 12.66-6.4 18.63-20.76 22.19-29.44l.85-2.13c6.68-15.36 7.68-26.88 2.99-34.13-3.43-5.67-10.25-8.52-19.93-8.52m120.04-65.56h-.71c-1.99.14-3.7 1.28-4.84 3.41-.57.85-1.28 2.42-1.71 3.13-12.23 28.73-37.55 82.49-69.55 119.89-.85 1-1.42 1.71-1.99 2.7-1.42 2.28-.71 4.41.28 5.55.85 1 2.42 1.56 4.55 1.56 1.42 0 3.13-.14 5.26-.57 67.84-13.8 111.79-45.51 111.79-80.64 0-19.63-13.23-38.12-38.4-53.48-1.84-.98-3.4-1.55-4.68-1.55m-210.35-26.03c-1.56 0-3.41.28-5.55.71-67.98 13.8-111.79 45.37-111.79 80.5 0 19.34 13.37 37.97 38.83 53.48 1.85 1.14 3.56 1.71 5.12 1.71 2.84-.14 4.27-1.85 5.12-3.27.43-.71.85-1.71 1.42-2.7l.28-.71c21.9-50.92 45.94-92.3 69.55-119.89 1-1.14 1.42-1.85 1.85-2.7 1.42-2.42.85-4.41-.28-5.55-.56-1.01-2.13-1.58-4.55-1.58m66.56-6.54c-5.26.14-10.24 1.28-14.08 3.27-12.66 6.26-18.63 20.62-22.19 29.3l-1 2.42c-6.68 15.5-7.68 26.88-2.99 34.13 3.7 5.55 10.38 8.39 20.05 8.39 3.98 0 8.53-.57 13.08-1.42 16.5-3.56 32.43-9.24 47.36-15.08 39.96-15.22 59.59-30.29 64.71-34.56 1-.71 1.56-1.28 1.99-1.85 1-.85 2.13-2.42 2.13-4.55 0-4.12-4.69-5.4-7.25-6.12l-.85-.28c-29.58-8.82-63.72-13.51-98.99-13.51z"/></defs><clipPath id="SVGID_00000065794954420628904960000014340475092331602058_"><use xlink:href="#SVGID_00000139993596607130242000000007662829871536382622_" style="overflow:visible"/></clipPath><path id="XMLID_29_" d="M258.28 302.36c110.22 0 199.68-45.65 199.68-101.97S368.64 98.42 258.28 98.42c-110.22 0-199.68 45.65-199.68 101.97s89.45 101.97 199.68 101.97m37.54-49.92c-3.27 7.68-8.96 24.04-22.19 30.58-3.98 1.99-8.96 2.84-13.37 2.99-1 .14-1.71 0-1.99 0-36.12 0-69.83-4.84-98.28-13.23-2.13-.57-6.68-1.71-6.68-4.55 0-1.28.71-2.28 1.56-3.27.43-.43 1-.85 1.85-1.56 6.54-5.55 26.6-19.91 64.14-34.28 13.23-4.98 29.72-11.38 46.93-14.93 10.4-2.14 47.94-7.83 28.03 38.25M396.8 149.62c.71-1.28 1.56-2.28 3.27-2.42 1-.14 2.13.14 4.12 1.28 23.47 14.36 37.4 32.28 37.4 51.77 0 35.13-45.37 65.42-110.08 78.65-4.12.85-6.97.85-7.82-.28-.57-.71-.85-1.85 0-3.13.43-.71.85-1.42 1.71-2.28 35.27-41.53 62.29-102.68 69.83-120.46.43-1.14 1.14-2.28 1.57-3.13m-175.5-1.28c3.27-7.68 8.96-24.04 22.19-30.72 3.98-1.99 8.96-2.84 13.37-2.99h1.99c36.27 0 69.97 4.98 98.42 13.37 2.13.57 6.68 1.42 6.68 4.41 0 1.28-.71 2.28-1.71 3.27-.43.43-1 1-1.85 1.56-6.68 5.55-26.6 19.91-64.14 34.28-13.23 5.12-29.72 11.38-46.93 14.93-10.24 2.14-47.79 7.83-28.02-38.11m-35.98-26.46c4.27-.85 7.4-.85 8.39.28.57.71.85 1.71 0 3.13-.43.71-.85 1.42-1.71 2.42-35.27 41.53-62.15 102.68-69.83 120.32-.57 1.28-1.14 2.42-1.56 3.27-.85 1.28-1.71 2.28-3.41 2.42-.85 0-2.13-.14-4.12-1.42-23.47-14.36-37.83-32.28-37.83-51.77-.16-35.27 45.21-65.56 110.07-78.65" style="clip-path:url(#SVGID_00000065794954420628904960000014340475092331602058_);fill:none"/></g></g><g id="XMLID_32_"><defs><path id="SVGID_00000097459380101887719970000009667950473377462456_" d="M-98.13-98.13h1.42l-1.42 1.42z"/></defs><defs><path id="SVGID_00000176724058078545879990000012740986327391875775_" d="M-100.98-100.98h-1.42l1.42-1.42z"/></defs><clipPath id="SVGID_00000147215679835749854980000013750002307852381609_"><use xlink:href="#SVGID_00000097459380101887719970000009667950473377462456_" style="overflow:visible"/></clipPath><clipPath id="SVGID_00000174580945480220742210000007554775470192806021_" style="clip-path:url(#SVGID_00000147215679835749854980000013750002307852381609_)"><use xlink:href="#SVGID_00000176724058078545879990000012740986327391875775_" style="overflow:visible"/></clipPath><linearGradient id="XMLID_00000106119979111275834100000016129169152887297675_" x1="295.906" x2="314.2" y1="221.862" y2="293.376" gradientTransform="matrix(1 0 0 -1 0 514)" gradientUnits="userSpaceOnUse"><stop offset="0" style="stop-color:#fff"/><stop offset=".626" style="stop-color:#fff"/><stop offset=".733" style="stop-color:#aeaeae"/><stop offset=".864" style="stop-color:#515151"/><stop offset=".956" style="stop-color:#171717"/><stop offset="1" style="stop-color:#000"/></linearGradient><path id="XMLID_51_" d="M317.16 273.64c17.49-21.19 37.55-58.17 44.09-70.83l-51.48 17.35c.28 14.22-2.7 45.51-31 67.27 0 0-10.1 3.41-28.73 3.41l-4.84 7.54c12.52 1 47.93 2.42 98.56-8.68l4.55-10.38c-13.95 5.41-48.22 15.22-31.15-5.68" style="clip-path:url(#SVGID_00000174580945480220742210000007554775470192806021_);fill:url(#XMLID_00000106119979111275834100000016129169152887297675_)"/></g><linearGradient id="XMLID_00000077294618210851535520000015160597430475638410_" x1="295.906" x2="314.2" y1="221.862" y2="293.376" gradientTransform="matrix(1 0 0 -1 0 514)" gradientUnits="userSpaceOnUse"><stop offset="0" style="stop-color:#fff"/><stop offset=".626" style="stop-color:#fff"/><stop offset=".677" style="stop-color:#f1f2f2"/><stop offset=".895" style="stop-color:#b7bdbe"/><stop offset="1" style="stop-color:#a0a8aa"/></linearGradient><path id="XMLID_52_" d="M317.16 273.64c17.49-21.19 37.55-58.17 44.09-70.83l-51.48 17.35c.28 14.22-2.7 45.51-31 67.27 0 0-10.1 3.41-28.73 3.41l-4.84 7.54c12.52 1 47.93 2.42 98.56-8.68l4.55-10.38c-13.95 5.41-48.22 15.22-31.15-5.68" style="fill:url(#XMLID_00000077294618210851535520000015160597430475638410_)"/><linearGradient id="XMLID_00000162315712647430276690000009648258899642313648_" x1="239.166" x2="202.361" y1="320.393" y2="385.979" gradientTransform="matrix(1 0 0 -1 0 514)" gradientUnits="userSpaceOnUse"><stop offset="0" style="stop-color:#e5eeed"/><stop offset=".278" style="stop-color:#cfd7d7"/><stop offset=".552" style="stop-color:#b6bcbd"/><stop offset="1" style="stop-color:#a0a8aa"/></linearGradient><path id="XMLID_50_" d="M252.87 185.6c-1.14.28-2.42.57-3.56.85-5.55 1.14-18.77 3.27-27.02-1.99-7.11-4.55-10.24-14.79-1-36.27 3.13-7.11 8.39-22.19 19.91-29.44l-12.66-10.67c-.85.43-1.56 1-2.13 1.56-5.55 7.11-10.38 14.93-14.79 22.76-4.12 7.54-7.82 15.22-10.95 23.18-2.42 6.26-5.97 15.79-6.83 24.75-1 10.1 1.42 19.48 12.37 22.76.71.28 1.56.43 2.56.71 6.4 1.56 18.63 2.84 46.36-4.69z" style="fill:url(#XMLID_00000162315712647430276690000009648258899642313648_)"/><linearGradient id="XMLID_00000028284248602714208130000013543119057527211930_" x1="271.225" x2="302.288" y1="381.598" y2="337.055" gradientTransform="matrix(1 0 0 -1 0 514)" gradientUnits="userSpaceOnUse"><stop offset="0" style="stop-color:#e5eeed"/><stop offset=".278" style="stop-color:#cfd7d7"/><stop offset=".552" style="stop-color:#b6bcbd"/><stop offset="1" style="stop-color:#a0a8aa"/></linearGradient><path id="XMLID_49_" d="m383.72 130.13-19.77 2.13v.14c0 1.28-.71 2.28-1.71 3.27-.43.43-1 1-1.85 1.56-6.68 5.55-26.6 19.91-64.28 34.28-9.1 3.56-19.77 7.54-31.29 10.95-3.98 1.14-8.11 2.28-12.23 3.27-1.14.28-2.42.57-3.56.85-5.12 1.14-17.07 2.99-25.32-1l-17.07 17.78c.71.14 1.42.43 2.28.57 6.4 1.56 18.63 2.84 46.36-4.69 12.52-3.41 28.3-8.53 48.07-16.36 33.85-13.23 73.39-35.84 80.36-51.77.01-.27.15-.69.01-.98" style="fill:url(#XMLID_00000028284248602714208130000013543119057527211930_)"/><linearGradient id="XMLID_00000090293481637838440130000005709162143170440895_" x1="143.787" x2="143.787" y1="277.245" y2="378.832" gradientTransform="matrix(1 0 0 -1 0 514)" gradientUnits="userSpaceOnUse"><stop offset="0" style="stop-color:#fff"/><stop offset=".063" style="stop-color:#f6f7f7"/><stop offset=".164" style="stop-color:#dfe1e1"/><stop offset=".289" style="stop-color:#b9bcbc"/><stop offset=".434" style="stop-color:#858a8a"/><stop offset=".528" style="stop-color:#5f6666"/><stop offset=".773" style="stop-color:#4b5050"/><stop offset="1" style="stop-color:#404444"/></linearGradient><path id="XMLID_48_" d="M116.91 253.72c-.85 0-2.13-.28-4.12-1.42-23.47-14.36-37.97-32.43-37.97-51.91 0-35.13 45.51-65.42 110.36-78.65 4.27-.85 7.4-.85 8.39.28.14.14.28.28.28.43l28.16-14.22c-.14-.57-.85-.71-1.85-.71-37.69 3.7-72.25 13.08-99.84 27.02-35.41 17.92-54.76 41.24-54.76 65.71s19.48 47.79 54.76 65.71c1.56.85 3.13 1.56 4.69 2.28 1 .43 1.99.43 2.7.14l-9.67-15.36c-.14.56-.56.56-1.13.7" style="fill:url(#XMLID_00000090293481637838440130000005709162143170440895_)"/><linearGradient id="XMLID_00000127024730504084550370000008819298509336386999_" x1="315.69" x2="203.431" y1="255.704" y2="284.421" gradientTransform="matrix(1 0 0 -1 0 514)" gradientUnits="userSpaceOnUse"><stop offset="0" style="stop-color:#8b9394"/><stop offset=".176" style="stop-color:#7a8182"/><stop offset=".34" style="stop-color:#646a6b"/><stop offset=".57" style="stop-color:#404444"/><stop offset="1" style="stop-color:#333737"/></linearGradient><path id="XMLID_47_" d="M310.47 197.55c-7.82-2.42-26.88-7.25-97 20.2-33.85 13.23-73.39 35.84-80.36 51.77-.28.57-.28 1.14 0 1.56l20.05-2.28v-.57c0-1.28.71-2.28 1.56-3.27.43-.43 1-.85 1.85-1.56 6.54-5.55 26.74-20.05 64.28-34.28 13.23-4.98 29.72-11.38 47.08-14.93 10.24-2.13 47.79-7.82 27.88 38.26-3.27 7.54-8.96 23.61-21.62 30.44l14.08 9.81c.85-.43 1.56-1 1.99-1.56 5.55-7.11 10.38-14.93 14.79-22.76 4.12-7.54 7.82-15.22 10.95-23.18 2.42-6.26 5.97-15.79 6.83-24.75 1.01-10.1-1.27-19.49-12.36-22.9" style="fill:url(#XMLID_00000127024730504084550370000008819298509336386999_)"/><linearGradient id="XMLID_00000179632164363906391850000013276390034321874613_" x1="133.404" x2="288.569" y1="232.116" y2="232.116" gradientTransform="matrix(1 0 0 -1 0 514)" gradientUnits="userSpaceOnUse"><stop offset="0" style="stop-color:#fff"/><stop offset=".933" style="stop-color:#fff"/><stop offset="1" style="stop-color:#fff"/></linearGradient><path id="XMLID_46_" d="M273.78 283.16c-3.98 1.99-8.96 2.84-13.37 2.99-1 .14-1.71 0-1.99 0-36.84 0-71.25-5.12-99.98-13.8-.28-.14-.85-.43-.85-.43-2.56-.85-3.84-1.85-4.12-3.13l-20.05 2.28c.43.85 1.42 1.56 2.84 2.13 34.56 14.08 77.23 21.76 122.31 21.76 7.11 0 14.22-.14 21.33-.57 3.98-.28 6.68-.85 8.68-1.85l-14.08-9.81c-.44.15-.58.29-.72.43" style="fill:url(#XMLID_00000179632164363906391850000013276390034321874613_)"/><linearGradient id="XMLID_00000122699956395726272900000005611146983698017429_" x1="391.974" x2="311.625" y1="363.278" y2="238.944" gradientTransform="matrix(1 0 0 -1 0 514)" gradientUnits="userSpaceOnUse"><stop offset="0" style="stop-color:#abb3b3"/><stop offset=".38" style="stop-color:#727a79"/><stop offset=".417" style="stop-color:#575d5c"/><stop offset=".45" style="stop-color:#464a4a"/><stop offset=".472" style="stop-color:#404444"/><stop offset="1" style="stop-color:#333737"/></linearGradient><path id="XMLID_45_" d="M323.7 275.63c.43-.71.85-1.42 1.71-2.42 35.41-41.53 62.29-102.83 69.97-120.6.57-1.14 1.14-2.42 1.71-3.13.57-1 1.28-1.85 2.28-2.28l-10.24-15.22c-.57.28-1.14.71-1.28 1.28-21.19 45.37-43.8 86.76-71.82 127.86-6.83 9.96-14.08 19.63-20.76 29.87-.57.85-.57 1.42-.14 1.71l28.44-14.22c-.58-.58-.58-1.57.13-2.85" style="fill:url(#XMLID_00000122699956395726272900000005611146983698017429_)"/><linearGradient id="XMLID_00000140695232570826725770000015128611881706406582_" x1="364.881" x2="243.67" y1="388.013" y2="404.349" gradientTransform="matrix(1 0 0 -1 0 514)" gradientUnits="userSpaceOnUse"><stop offset="0" style="stop-color:#4b5050"/><stop offset=".108" style="stop-color:#434747"/><stop offset=".385" style="stop-color:#323534"/><stop offset=".676" style="stop-color:#282a2a"/><stop offset="1" style="stop-color:#252726"/></linearGradient><path id="XMLID_44_" d="M243.48 117.48c3.98-1.99 8.96-2.84 13.37-2.99h1.99c36.84 0 71.11 5.12 99.98 13.94.28 0 .85.28 1.14.28 2.56.85 3.84 1.99 3.98 3.41l19.77-2.13c-.28-1-1.42-1.85-2.99-2.56-34.56-14.08-77.23-21.76-122.31-21.76-7.11 0-14.22.14-21.33.57-3.84.28-6.68.85-8.68 1.85l12.66 10.67c.86-.43 1.71-.86 2.42-1.28" style="fill:url(#XMLID_00000140695232570826725770000015128611881706406582_)"/><linearGradient id="XMLID_00000034087106034732089660000011704198794401740218_" x1="402.8" x2="441.205" y1="383.325" y2="319.492" gradientTransform="matrix(1 0 0 -1 0 514)" gradientUnits="userSpaceOnUse"><stop offset="0" style="stop-color:#252726"/><stop offset=".068" style="stop-color:#2b2e2d"/><stop offset=".325" style="stop-color:#404444"/><stop offset=".432" style="stop-color:#4a4f4f"/><stop offset=".693" style="stop-color:#5f6666"/><stop offset=".743" style="stop-color:#666d6d"/><stop offset=".817" style="stop-color:#798181"/><stop offset=".871" style="stop-color:#8b9394"/><stop offset="1" style="stop-color:#a0a8aa"/></linearGradient><path id="XMLID_43_" d="M451.27 200.39c0-24.46-19.48-47.79-54.76-65.71-1.56-.85-3.13-1.56-4.69-2.28-1-.43-1.99-.43-2.7-.14l10.24 15.22c.28-.14.57-.14 1-.14 1-.14 2.13.14 4.12 1.28 23.47 14.51 37.4 32.43 37.4 51.91v1.99h9.53c-.14-.71-.14-1.42-.14-2.13" style="fill:url(#XMLID_00000034087106034732089660000011704198794401740218_)"/><linearGradient id="XMLID_00000114060687973815183550000010244169519745745026_" x1="326.95" x2="446.854" y1="222.359" y2="297.265" gradientTransform="matrix(1 0 0 -1 0 514)" gradientUnits="userSpaceOnUse"><stop offset="0" style="stop-color:#fff"/><stop offset=".767" style="stop-color:#fff"/><stop offset=".834" style="stop-color:#e8ebeb"/><stop offset=".902" style="stop-color:#ccd4d3"/><stop offset=".96" style="stop-color:#afb7b8"/><stop offset="1" style="stop-color:#a0a8aa"/></linearGradient><path id="XMLID_42_" d="M441.74 202.24c-1.71 34.28-46.51 63.86-110.22 76.8-4.12.85-6.97.85-7.82-.28-.14-.14-.14-.14-.14-.28l-28.44 14.22c.28.28.85.43 1.71.43 37.69-3.7 72.25-13.08 99.84-27.02 34.42-17.49 53.76-40.11 54.76-63.86z" style="fill:url(#XMLID_00000114060687973815183550000010244169519745745026_)"/><g id="XMLID_33_"><defs><path id="SVGID_00000001634648285147446300000006857960550546598275_" d="M-98.13-98.13h1.42l-1.42 1.42z"/></defs><defs><path id="SVGID_00000075163660725751603390000017812078114286524033_" d="M-100.98-100.98h-1.42l1.42-1.42z"/></defs><clipPath id="SVGID_00000005962522045037291790000004709862879319240607_"><use xlink:href="#SVGID_00000001634648285147446300000006857960550546598275_" style="overflow:visible"/></clipPath><clipPath id="SVGID_00000086665218634275763980000002430492263033846422_" style="clip-path:url(#SVGID_00000005962522045037291790000004709862879319240607_)"><use xlink:href="#SVGID_00000075163660725751603390000017812078114286524033_" style="overflow:visible"/></clipPath><linearGradient id="XMLID_00000013875842463771262360000015436869071764394633_" x1="370.527" x2="371.213" y1="384.997" y2="379.082" gradientTransform="matrix(1 0 0 -1 0 514)" gradientUnits="userSpaceOnUse"><stop offset="0" style="stop-color:#000"/><stop offset=".052" style="stop-color:#3b3b3b"/><stop offset=".104" style="stop-color:#6f6f6f"/><stop offset=".157" style="stop-color:#9b9b9b"/><stop offset=".21" style="stop-color:#bfbfbf"/><stop offset=".264" style="stop-color:#dbdbdb"/><stop offset=".317" style="stop-color:#efefef"/><stop offset=".37" style="stop-color:#fbfbfb"/><stop offset=".423" style="stop-color:#fff"/><stop offset=".577" style="stop-color:#fff"/><stop offset=".613" style="stop-color:#f7f7f7"/><stop offset=".67" style="stop-color:#e0e0e0"/><stop offset=".74" style="stop-color:#bcbcbc"/><stop offset=".821" style="stop-color:#888"/><stop offset=".911" style="stop-color:#484848"/><stop offset="1" style="stop-color:#000"/></linearGradient><path id="XMLID_40_" d="M383.72 130.13c-.28-1-1.42-1.85-2.99-2.56-4.69-1.85-9.53-3.7-14.36-5.4l-8.53 5.97c.28.14.71.14 1 .28.28 0 .85.28 1.14.28 2.56.85 3.84 1.99 3.98 3.41v.14c0 1.28-.71 2.28-1.71 3.27-.43.43-1 1-1.85 1.56-.57.43-1.14.85-1.85 1.42l16.92 2.99c3.84-3.7 6.54-7.11 7.96-10.38.29-.27.43-.69.29-.98" style="clip-path:url(#SVGID_00000086665218634275763980000002430492263033846422_);fill:url(#XMLID_00000013875842463771262360000015436869071764394633_)"/></g><linearGradient id="XMLID_00000057846832920212605480000008088028498567249312_" x1="370.527" x2="371.213" y1="384.997" y2="379.082" gradientTransform="matrix(1 0 0 -1 0 514)" gradientUnits="userSpaceOnUse"><stop offset="0" style="stop-color:#4b5050"/><stop offset=".084" style="stop-color:#6d7373"/><stop offset=".168" style="stop-color:#888f8f"/><stop offset=".253" style="stop-color:#9ca3a3"/><stop offset=".338" style="stop-color:#a7afaf"/><stop offset=".423" style="stop-color:#abb3b3"/><stop offset=".577" style="stop-color:#abb3b3"/><stop offset=".919" style="stop-color:#a3abac"/><stop offset="1" style="stop-color:#a0a8aa"/></linearGradient><path id="XMLID_41_" d="M383.72 130.13c-.28-1-1.42-1.85-2.99-2.56-4.69-1.85-9.53-3.7-14.36-5.4l-8.53 5.97c.28.14.71.14 1 .28.28 0 .85.28 1.14.28 2.56.85 3.84 1.99 3.98 3.41v.14c0 1.28-.71 2.28-1.71 3.27-.43.43-1 1-1.85 1.56-.57.43-1.14.85-1.85 1.42l16.92 2.99c3.84-3.7 6.54-7.11 7.96-10.38.29-.27.43-.69.29-.98" style="fill:url(#XMLID_00000057846832920212605480000008088028498567249312_)"/><g id="XMLID_34_"><defs><path id="SVGID_00000107576094874317605980000009052251528029377700_" d="M-98.13-98.13h1.42l-1.42 1.42z"/></defs><defs><path id="SVGID_00000176736121282190684030000011990608580933315729_" d="M-100.98-100.98h-1.42l1.42-1.42z"/></defs><clipPath id="SVGID_00000065033028208433682450000002434098591176963510_"><use xlink:href="#SVGID_00000107576094874317605980000009052251528029377700_" style="overflow:visible"/></clipPath><clipPath id="SVGID_00000002345324774668025650000007009980650285985978_" style="clip-path:url(#SVGID_00000065033028208433682450000002434098591176963510_)"><use xlink:href="#SVGID_00000176736121282190684030000011990608580933315729_" style="overflow:visible"/></clipPath><linearGradient id="XMLID_00000075144848653626419250000009670302259267373708_" x1="145.916" x2="147.195" y1="249.566" y2="238.122" gradientTransform="matrix(1 0 0 -1 0 514)" gradientUnits="userSpaceOnUse"><stop offset="0" style="stop-color:#000"/><stop offset=".055" style="stop-color:#000"/><stop offset=".152" style="stop-color:#565656"/><stop offset=".241" style="stop-color:#9f9f9f"/><stop offset=".314" style="stop-color:#d3d3d3"/><stop offset=".369" style="stop-color:#f3f3f3"/><stop offset=".399" style="stop-color:#fff"/><stop offset=".497" style="stop-color:#fff"/><stop offset=".525" style="stop-color:#eee"/><stop offset=".582" style="stop-color:#c3c3c3"/><stop offset=".66" style="stop-color:#7d7d7d"/><stop offset=".757" style="stop-color:#1e1e1e"/><stop offset=".785" style="stop-color:#000"/><stop offset="1" style="stop-color:#000"/></linearGradient><path id="XMLID_38_" d="M158.44 272.36c-1.71-.71-4.55-1.42-4.98-3.56v-.57c0-1.28.71-2.28 1.56-3.27.43-.43 1-.85 1.85-1.56q.855-.855 2.13-1.71l-16.36-3.84c-4.41 4.12-7.68 7.96-9.24 11.66-.28.57-.28 1.14 0 1.56.43.85 1.42 1.56 2.84 2.13 4.27 1.71 8.82 3.41 13.37 4.98l10.38-5.55c-.7.01-1.13-.13-1.55-.27" style="clip-path:url(#SVGID_00000002345324774668025650000007009980650285985978_);fill:url(#XMLID_00000075144848653626419250000009670302259267373708_)"/></g><linearGradient id="XMLID_00000016770386424231945510000010735388481303676544_" x1="145.916" x2="147.195" y1="249.566" y2="238.122" gradientTransform="matrix(1 0 0 -1 0 514)" gradientUnits="userSpaceOnUse"><stop offset="0" style="stop-color:#333737"/><stop offset=".016" style="stop-color:#494e4e"/><stop offset=".041" style="stop-color:#676e6d"/><stop offset=".055" style="stop-color:#727a79"/><stop offset=".218" style="stop-color:#808888"/><stop offset=".399" style="stop-color:#8b9394"/><stop offset=".476" style="stop-color:#9ba3a4"/><stop offset=".497" style="stop-color:#a0a8aa"/><stop offset=".785" style="stop-color:#abb3b3"/><stop offset=".854" style="stop-color:#c2c8c8"/><stop offset=".997" style="stop-color:#fdfefe"/><stop offset="1" style="stop-color:#fff"/></linearGradient><path id="XMLID_39_" d="M158.44 272.36c-1.71-.71-4.55-1.42-4.98-3.56v-.57c0-1.28.71-2.28 1.56-3.27.43-.43 1-.85 1.85-1.56q.855-.855 2.13-1.71l-16.36-3.84c-4.41 4.12-7.68 7.96-9.24 11.66-.28.57-.28 1.14 0 1.56.43.85 1.42 1.56 2.84 2.13 4.27 1.71 8.82 3.41 13.37 4.98l10.38-5.55c-.7.01-1.13-.13-1.55-.27" style="fill:url(#XMLID_00000016770386424231945510000010735388481303676544_)"/><g id="XMLID_97_"><defs><path id="SVGID_00000049182895853324570500000017833698621846394275_" d="M-98.13-98.13h1.42l-1.42 1.42z"/></defs><defs><path id="SVGID_00000005249646100380270190000003212080223758222236_" d="M-100.98-100.98h-1.42l1.42-1.42z"/></defs><clipPath id="SVGID_00000045594872308929027900000009724050120728301964_"><use xlink:href="#SVGID_00000049182895853324570500000017833698621846394275_" style="overflow:visible"/></clipPath><clipPath id="SVGID_00000059994773114145620720000008837575736837471894_" style="clip-path:url(#SVGID_00000045594872308929027900000009724050120728301964_)"><use xlink:href="#SVGID_00000005249646100380270190000003212080223758222236_" style="overflow:visible"/></clipPath><linearGradient id="XMLID_00000057837787859797558580000002354585414787268507_" x1="391.741" x2="399.718" y1="368.928" y2="373.928" gradientTransform="matrix(1 0 0 -1 0 514)" gradientUnits="userSpaceOnUse"><stop offset="0" style="stop-color:#000"/><stop offset=".042" style="stop-color:#1e1e1e"/><stop offset=".181" style="stop-color:#7d7d7d"/><stop offset=".295" style="stop-color:#c3c3c3"/><stop offset=".376" style="stop-color:#eee"/><stop offset=".417" style="stop-color:#fff"/><stop offset=".521" style="stop-color:#fff"/><stop offset=".57" style="stop-color:#fafafa"/><stop offset=".629" style="stop-color:#ebebeb"/><stop offset=".694" style="stop-color:#d2d2d2"/><stop offset=".762" style="stop-color:#b0b0b0"/><stop offset=".834" style="stop-color:#848484"/><stop offset=".908" style="stop-color:#4e4e4e"/><stop offset=".983" style="stop-color:#0f0f0f"/><stop offset="1" style="stop-color:#000"/></linearGradient><path id="XMLID_99_" d="M396.52 134.68c-1.56-.85-3.13-1.56-4.69-2.28-1-.43-1.99-.43-2.7-.14-.57.28-1.14.71-1.28 1.28-1.71 3.7-3.41 7.25-5.12 10.81l12.09 10.24c.28-.57.57-1.14.71-1.71.57-1.14 1.14-2.42 1.71-3.13.57-1 1.28-1.85 2.28-2.28.28-.14.57-.14 1-.14 1-.14 2.13.14 4.12 1.28.71.43 1.56 1 2.28 1.42l1-9.1c-3.87-2.26-7.56-4.25-11.4-6.25" style="clip-path:url(#SVGID_00000059994773114145620720000008837575736837471894_);fill:url(#XMLID_00000057837787859797558580000002354585414787268507_)"/></g><linearGradient id="XMLID_00000091002394520213012830000013708802601232626094_" x1="391.741" x2="399.718" y1="368.928" y2="373.928" gradientTransform="matrix(1 0 0 -1 0 514)" gradientUnits="userSpaceOnUse"><stop offset="0" style="stop-color:#abb3b3"/><stop offset=".417" style="stop-color:#a0a8aa"/><stop offset=".521" style="stop-color:#a0a8aa"/><stop offset=".593" style="stop-color:#9ba3a5"/><stop offset=".68" style="stop-color:#8d9496"/><stop offset=".775" style="stop-color:#777d7d"/><stop offset=".875" style="stop-color:#575b5b"/><stop offset=".979" style="stop-color:#2e3030"/><stop offset="1" style="stop-color:#252726"/></linearGradient><path id="XMLID_30_" d="M396.52 134.68c-1.56-.85-3.13-1.56-4.69-2.28-1-.43-1.99-.43-2.7-.14-.57.28-1.14.71-1.28 1.28-1.71 3.7-3.41 7.25-5.12 10.81l12.09 10.24c.28-.57.57-1.14.71-1.71.57-1.14 1.14-2.42 1.71-3.13.57-1 1.28-1.85 2.28-2.28.28-.14.57-.14 1-.14 1-.14 2.13.14 4.12 1.28.71.43 1.56 1 2.28 1.42l1-9.1c-3.87-2.26-7.56-4.25-11.4-6.25" style="fill:url(#XMLID_00000091002394520213012830000013708802601232626094_)"/><g id="XMLID_101_"><defs><path id="SVGID_00000183955781419135973910000010037096947544139139_" d="M-98.13-98.13h1.42l-1.42 1.42z"/></defs><defs><path id="SVGID_00000054246376838672747870000000924982247627423121_" d="M-100.98-100.98h-1.42l1.42-1.42z"/></defs><clipPath id="SVGID_00000093860732928928998260000003726429056390429085_"><use xlink:href="#SVGID_00000183955781419135973910000010037096947544139139_" style="overflow:visible"/></clipPath><clipPath id="SVGID_00000085967865825168955960000004348111393680083840_" style="clip-path:url(#SVGID_00000093860732928928998260000003726429056390429085_)"><use xlink:href="#SVGID_00000054246376838672747870000000924982247627423121_" style="overflow:visible"/></clipPath><linearGradient id="XMLID_00000183232110436549301240000005631858782104258213_" x1="241.511" x2="229.304" y1="404.332" y2="391.266" gradientTransform="matrix(1 0 0 -1 0 514)" gradientUnits="userSpaceOnUse"><stop offset="0" style="stop-color:#000"/><stop offset=".032" style="stop-color:#1e1e1e"/><stop offset=".111" style="stop-color:#616161"/><stop offset=".186" style="stop-color:#999"/><stop offset=".254" style="stop-color:#c5c5c5"/><stop offset=".316" style="stop-color:#e5e5e5"/><stop offset=".367" style="stop-color:#f8f8f8"/><stop offset=".403" style="stop-color:#fff"/><stop offset=".457" style="stop-color:#f1f1f1"/><stop offset=".561" style="stop-color:#ccc"/><stop offset=".703" style="stop-color:#909090"/><stop offset=".875" style="stop-color:#3f3f3f"/><stop offset="1" style="stop-color:#000"/></linearGradient><path id="XMLID_103_" d="M237.08 106.38c-3.84.28-6.68.85-8.68 1.85-.85.43-1.56 1-2.13 1.56-2.42 3.13-4.69 6.26-6.83 9.53l12.09 8.53c2.56-3.41 5.69-6.68 9.39-8.96.71-.43 1.56-.85 2.42-1.28 2.56-1.28 5.4-1.99 8.25-2.56v-9.24c-4.69 0-9.53.29-14.51.57" style="clip-path:url(#SVGID_00000085967865825168955960000004348111393680083840_);fill:url(#XMLID_00000183232110436549301240000005631858782104258213_)"/></g><linearGradient id="XMLID_00000006667705978716068510000004491331661105899657_" x1="241.511" x2="229.304" y1="404.332" y2="391.266" gradientTransform="matrix(1 0 0 -1 0 514)" gradientUnits="userSpaceOnUse"><stop offset="0" style="stop-color:#252726"/><stop offset=".023" style="stop-color:#2d302f"/><stop offset=".142" style="stop-color:#565b5b"/><stop offset=".249" style="stop-color:#73797a"/><stop offset=".34" style="stop-color:#858c8d"/><stop offset=".403" style="stop-color:#8b9394"/><stop offset=".812" style="stop-color:#98a0a2"/><stop offset="1" style="stop-color:#a0a8aa"/></linearGradient><path id="XMLID_31_" d="M237.08 106.38c-3.84.28-6.68.85-8.68 1.85-.85.43-1.56 1-2.13 1.56-2.42 3.13-4.69 6.26-6.83 9.53l12.09 8.53c2.56-3.41 5.69-6.68 9.39-8.96.71-.43 1.56-.85 2.42-1.28 2.56-1.28 5.4-1.99 8.25-2.56v-9.24c-4.69 0-9.53.29-14.51.57" style="fill:url(#XMLID_00000006667705978716068510000004491331661105899657_)"/><g id="XMLID_105_"><defs><path id="SVGID_00000011025365570713064960000015449301329567889323_" d="M-98.13-98.13h1.42l-1.42 1.42z"/></defs><defs><path id="SVGID_00000085972475251094392000000016302904721670280836_" d="M-100.98-100.98h-1.42l1.42-1.42z"/></defs><clipPath id="SVGID_00000005966898591965141720000017505803649653632437_"><use xlink:href="#SVGID_00000011025365570713064960000015449301329567889323_" style="overflow:visible"/></clipPath><clipPath id="SVGID_00000181795307355218989670000005489254507905283237_" style="clip-path:url(#SVGID_00000005966898591965141720000017505803649653632437_)"><use xlink:href="#SVGID_00000085972475251094392000000016302904721670280836_" style="overflow:visible"/></clipPath><linearGradient id="XMLID_00000109710684295392614870000018442994851990871994_" x1="284.594" x2="259.578" y1="253.453" y2="219.193" gradientTransform="matrix(1 0 0 -1 0 514)" gradientUnits="userSpaceOnUse"><stop offset="0" style="stop-color:#000"/><stop offset=".515" style="stop-color:#fff"/><stop offset=".574" style="stop-color:#fbfbfb"/><stop offset=".635" style="stop-color:#efefef"/><stop offset=".696" style="stop-color:#dadada"/><stop offset=".758" style="stop-color:#bebebe"/><stop offset=".82" style="stop-color:#999"/><stop offset=".883" style="stop-color:#6b6b6b"/><stop offset=".944" style="stop-color:#373737"/><stop offset="1" style="stop-color:#000"/></linearGradient><path id="XMLID_107_" d="M274.2 282.88c-.14.14-.28.14-.57.28-3.98 1.99-8.96 2.84-13.37 2.99-1 .14-1.71 0-1.99 0-6.83 0-13.65-.28-20.2-.57l-1.71 8.96c7.25.43 14.65.57 22.04.57 7.11 0 14.22-.14 21.33-.57 3.98-.28 6.68-.85 8.68-1.85.85-.43 1.56-1 1.99-1.56 5.55-7.11 10.38-14.93 14.79-22.76.43-.71.71-1.42 1.14-2.13l-12.94-7.54c-3.54 7.97-9.23 18.92-19.19 24.18" style="clip-path:url(#SVGID_00000181795307355218989670000005489254507905283237_);fill:url(#XMLID_00000109710684295392614870000018442994851990871994_)"/></g><linearGradient id="XMLID_00000163771035228052984800000006460529315171060897_" x1="284.594" x2="259.578" y1="253.453" y2="219.193" gradientTransform="matrix(1 0 0 -1 0 514)" gradientUnits="userSpaceOnUse"><stop offset="0" style="stop-color:#828b8a"/><stop offset=".515" style="stop-color:#f4fafc"/><stop offset=".808" style="stop-color:#f8fcfd"/><stop offset="1" style="stop-color:#fff"/></linearGradient><path id="XMLID_36_" d="M274.2 282.88c-.14.14-.28.14-.57.28-3.98 1.99-8.96 2.84-13.37 2.99-1 .14-1.71 0-1.99 0-6.83 0-13.65-.28-20.2-.57l-1.71 8.96c7.25.43 14.65.57 22.04.57 7.11 0 14.22-.14 21.33-.57 3.98-.28 6.68-.85 8.68-1.85.85-.43 1.56-1 1.99-1.56 5.55-7.11 10.38-14.93 14.79-22.76.43-.71.71-1.42 1.14-2.13l-12.94-7.54c-3.54 7.97-9.23 18.92-19.19 24.18" style="fill:url(#XMLID_00000163771035228052984800000006460529315171060897_)"/><linearGradient id="XMLID_00000058587217967457833840000014550846936639757471_" x1="138.853" x2="186.446" y1="258.685" y2="371.041" gradientTransform="matrix(1 0 0 -1 0 514)" gradientUnits="userSpaceOnUse"><stop offset="0" style="stop-color:#697070"/><stop offset=".528" style="stop-color:#828b8a"/><stop offset="1" style="stop-color:#b2bcbc"/></linearGradient><path id="XMLID_100_" d="M193.85 122.45c.28.71.28 1.56-.28 2.7-.43.71-.85 1.42-1.71 2.42-35.41 41.53-62.29 102.83-69.83 120.46-.57 1.28-1.14 2.42-1.56 3.27-.57.85-1.14 1.56-2.13 1.99l9.67 15.36c.57-.28 1.14-.71 1.28-1.28 21.19-45.37 43.8-86.76 71.82-127.86 6.83-9.96 14.08-19.63 20.76-29.87.43-.57.43-1.14.28-1.42z" style="fill:url(#XMLID_00000058587217967457833840000014550846936639757471_)"/><g id="XMLID_112_"><defs><path id="SVGID_00000175322891952919604990000011991155588662534533_" d="M-98.13-98.13h1.42l-1.42 1.42z"/></defs><defs><path id="SVGID_00000033344297207758957650000015668154972581621651_" d="M-100.98-100.98h-1.42l1.42-1.42z"/></defs><clipPath id="SVGID_00000069364361704077986880000006836513660644783499_"><use xlink:href="#SVGID_00000175322891952919604990000011991155588662534533_" style="overflow:visible"/></clipPath><clipPath id="SVGID_00000116955884304546100100000000521197885854343864_" style="clip-path:url(#SVGID_00000069364361704077986880000006836513660644783499_)"><use xlink:href="#SVGID_00000033344297207758957650000015668154972581621651_" style="overflow:visible"/></clipPath><linearGradient id="XMLID_00000033353992571535822280000016749628662834878107_" x1="126.418" x2="112.458" y1="261.888" y2="251.6" gradientTransform="matrix(1 0 0 -1 0 514)" gradientUnits="userSpaceOnUse"><stop offset="0" style="stop-color:#000"/><stop offset=".098" style="stop-color:#4a4a4a"/><stop offset=".194" style="stop-color:#8a8a8a"/><stop offset=".28" style="stop-color:#bdbdbd"/><stop offset=".355" style="stop-color:#e1e1e1"/><stop offset=".415" style="stop-color:#f7f7f7"/><stop offset=".454" style="stop-color:#fff"/><stop offset=".635" style="stop-color:#fff"/><stop offset=".644" style="stop-color:#fff"/><stop offset=".694" style="stop-color:#fbfbfb"/><stop offset=".74" style="stop-color:#f0f0f0"/><stop offset=".783" style="stop-color:#dedede"/><stop offset=".826" style="stop-color:#c4c4c4"/><stop offset=".868" style="stop-color:#a2a2a2"/><stop offset=".909" style="stop-color:#797979"/><stop offset=".949" style="stop-color:#494949"/><stop offset=".988" style="stop-color:#121212"/><stop offset="1" style="stop-color:#000"/></linearGradient><path id="XMLID_113_" d="M124.16 243.06c-.85 1.99-1.56 3.56-2.13 4.98-.57 1.28-1.14 2.42-1.56 3.27-.57.85-1.14 1.56-2.13 1.99-.43.14-.85.28-1.28.28-.85 0-2.13-.28-4.12-1.42-1.85-1.14-3.7-2.28-5.55-3.56l.85 10.67c3.84 2.42 7.96 4.69 12.23 6.83 1.56.85 3.13 1.56 4.69 2.28 1 .43 1.99.43 2.7.14.57-.28 1.14-.71 1.28-1.28 2.56-5.4 5.12-10.81 7.68-16.07z" style="clip-path:url(#SVGID_00000116955884304546100100000000521197885854343864_);fill:url(#XMLID_00000033353992571535822280000016749628662834878107_)"/></g><linearGradient id="XMLID_00000144305083019898555560000015273153852135518893_" x1="126.418" x2="112.458" y1="261.888" y2="251.6" gradientTransform="matrix(1 0 0 -1 0 514)" gradientUnits="userSpaceOnUse"><stop offset="0" style="stop-color:#697070"/><stop offset=".076" style="stop-color:#8b9191"/><stop offset=".2" style="stop-color:#bdc0c0"/><stop offset=".309" style="stop-color:#e1e2e2"/><stop offset=".397" style="stop-color:#f7f7f7"/><stop offset=".454" style="stop-color:#fff"/><stop offset=".635" style="stop-color:#fff"/><stop offset=".644" style="stop-color:#fff"/><stop offset=".982" style="stop-color:#fff"/><stop offset="1" style="stop-color:#fff"/></linearGradient><path id="XMLID_104_" d="M124.16 243.06c-.85 1.99-1.56 3.56-2.13 4.98-.57 1.28-1.14 2.42-1.56 3.27-.57.85-1.14 1.56-2.13 1.99-.43.14-.85.28-1.28.28-.85 0-2.13-.28-4.12-1.42-1.85-1.14-3.7-2.28-5.55-3.56l.85 10.67c3.84 2.42 7.96 4.69 12.23 6.83 1.56.85 3.13 1.56 4.69 2.28 1 .43 1.99.43 2.7.14.57-.28 1.14-.71 1.28-1.28 2.56-5.4 5.12-10.81 7.68-16.07z" style="fill:url(#XMLID_00000144305083019898555560000015273153852135518893_)"/><g id="XMLID_118_"><defs><path id="SVGID_00000012466278954591636030000013133796480791109272_" d="M-98.13-98.13h1.42l-1.42 1.42z"/></defs><defs><path id="SVGID_00000116953101689250585650000000532140987190976188_" d="M-100.98-100.98h-1.42l1.42-1.42z"/></defs><clipPath id="SVGID_00000054254991055173827650000007571683341551812542_"><use xlink:href="#SVGID_00000012466278954591636030000013133796480791109272_" style="overflow:visible"/></clipPath><clipPath id="SVGID_00000012438241621394613760000002364609774729633445_" style="clip-path:url(#SVGID_00000054254991055173827650000007571683341551812542_)"><use xlink:href="#SVGID_00000116953101689250585650000000532140987190976188_" style="overflow:visible"/></clipPath><linearGradient id="XMLID_00000166666302833933316470000010904087812953942674_" x1="200.879" x2="205.422" y1="400.372" y2="391.447" gradientTransform="matrix(1 0 0 -1 0 514)" gradientUnits="userSpaceOnUse"><stop offset="0" style="stop-color:#545454"/><stop offset=".07" style="stop-color:#585858"/><stop offset=".143" style="stop-color:#656565"/><stop offset=".216" style="stop-color:#797979"/><stop offset=".29" style="stop-color:#969696"/><stop offset=".365" style="stop-color:#bbb"/><stop offset=".439" style="stop-color:#e8e8e8"/><stop offset=".472" style="stop-color:#fff"/><stop offset=".571" style="stop-color:#fff"/><stop offset=".611" style="stop-color:#dbdbdb"/><stop offset=".721" style="stop-color:#7e7e7e"/><stop offset=".811" style="stop-color:#3a3a3a"/><stop offset=".875" style="stop-color:#101010"/><stop offset=".908" style="stop-color:#000"/></linearGradient><path id="XMLID_120_" d="M222.01 108.37c-.14-.57-.85-.71-1.85-.71a421 421 0 0 0-31.57 4.55l-6.97 10.38c1.14-.28 2.42-.57 3.56-.71 4.27-.85 7.4-.85 8.39.28.14.14.28.28.28.43.28.71.28 1.56-.28 2.7-.43.71-.85 1.42-1.71 2.42-.28.28-.43.43-.57.71h17.64c4.41-6.12 8.68-12.23 12.8-18.49.42-.7.42-1.27.28-1.56" style="clip-path:url(#SVGID_00000012438241621394613760000002364609774729633445_);fill:url(#XMLID_00000166666302833933316470000010904087812953942674_)"/></g><linearGradient id="XMLID_00000134214887854766054020000012320224904554280356_" x1="200.879" x2="205.422" y1="400.372" y2="391.447" gradientTransform="matrix(1 0 0 -1 0 514)" gradientUnits="userSpaceOnUse"><stop offset="0" style="stop-color:#404444"/><stop offset=".161" style="stop-color:#444848"/><stop offset=".326" style="stop-color:#4f5454"/><stop offset=".472" style="stop-color:#5f6666"/><stop offset=".522" style="stop-color:#737b7a"/><stop offset=".571" style="stop-color:#828b8a"/><stop offset=".779" style="stop-color:#a3acac"/><stop offset=".908" style="stop-color:#b2bcbc"/></linearGradient><path id="XMLID_108_" d="M222.01 108.37c-.14-.57-.85-.71-1.85-.71a421 421 0 0 0-31.57 4.55l-6.97 10.38c1.14-.28 2.42-.57 3.56-.71 4.27-.85 7.4-.85 8.39.28.14.14.28.28.28.43.28.71.28 1.56-.28 2.7-.43.71-.85 1.42-1.71 2.42-.28.28-.43.43-.57.71h17.64c4.41-6.12 8.68-12.23 12.8-18.49.42-.7.42-1.27.28-1.56" style="fill:url(#XMLID_00000134214887854766054020000012320224904554280356_)"/><linearGradient id="SVGID_00000066482230930307099620000014331599181608554413_" x1="251.424" x2="265.774" y1="407.808" y2="210.517" gradientTransform="matrix(1 0 0 -1 0 514)" gradientUnits="userSpaceOnUse"><stop offset="0" style="stop-color:#fff"/><stop offset=".075" style="stop-color:#f8fafa"/><stop offset=".183" style="stop-color:#e6eced"/><stop offset=".264" style="stop-color:#d3dee0"/><stop offset=".295" style="stop-color:#c9d4d6"/><stop offset=".347" style="stop-color:#afb9ba"/><stop offset=".416" style="stop-color:#858d8e"/><stop offset=".497" style="stop-color:#4b5050"/><stop offset=".687" style="stop-color:#3e4344"/><stop offset=".734" style="stop-color:#2f3435"/><stop offset=".816" style="stop-color:#0d1112"/><stop offset="1" style="stop-color:#0d1112"/></linearGradient><path d="M258.28 98.42c-110.36 0-199.96 45.65-199.96 101.97s89.46 102.12 199.96 102.12c110.36 0 199.96-45.65 199.96-102.12 0-56.32-89.46-101.97-199.96-101.97m138.38 168.25c-36.84 18.77-85.9 29.16-138.24 29.16s-101.4-10.38-138.24-29.16c-35.41-18.06-54.9-41.53-54.9-66.13s19.48-48.07 54.9-66.13c36.84-18.77 85.9-29.16 138.24-29.16s101.4 10.38 138.24 29.16c35.41 18.06 54.9 41.53 54.9 66.13s-19.49 48.06-54.9 66.13" style="fill:url(#SVGID_00000066482230930307099620000014331599181608554413_)"/><g id="XMLID_125_"><defs><path id="SVGID_00000075134490240174811830000007976179744091676084_" d="M-98.13-98.13h1.42l-1.42 1.42z"/></defs><defs><path id="SVGID_00000025424653962778528470000008288714684519045803_" d="M-100.98-100.98h-1.42l1.42-1.42z"/></defs><clipPath id="SVGID_00000083776958806723993210000016422691173373736578_"><use xlink:href="#SVGID_00000075134490240174811830000007976179744091676084_" style="overflow:visible"/></clipPath><clipPath id="SVGID_00000062889040141751586370000017267996653028703887_" style="clip-path:url(#SVGID_00000083776958806723993210000016422691173373736578_)"><use xlink:href="#SVGID_00000025424653962778528470000008288714684519045803_" style="overflow:visible"/></clipPath><linearGradient id="XMLID_00000101817244059834680500000009696768493460430523_" x1="207.346" x2="244.255" y1="345.305" y2="312.072" gradientTransform="matrix(1 0 0 -1 0 514)" gradientUnits="userSpaceOnUse"><stop offset=".07" style="stop-color:#000"/><stop offset=".097" style="stop-color:#252525"/><stop offset=".139" style="stop-color:#585858"/><stop offset=".183" style="stop-color:#848484"/><stop offset=".228" style="stop-color:#aaa"/><stop offset=".274" style="stop-color:#c9c9c9"/><stop offset=".323" style="stop-color:#e1e1e1"/><stop offset=".374" style="stop-color:#f2f2f2"/><stop offset=".43" style="stop-color:#fcfcfc"/><stop offset=".5" style="stop-color:#fff"/><stop offset=".571" style="stop-color:#fcfcfc"/><stop offset=".628" style="stop-color:#f2f2f2"/><stop offset=".681" style="stop-color:#e1e1e1"/><stop offset=".73" style="stop-color:#c9c9c9"/><stop offset=".778" style="stop-color:#aaa"/><stop offset=".824" style="stop-color:#848484"/><stop offset=".868" style="stop-color:#585858"/><stop offset=".911" style="stop-color:#252525"/><stop offset=".939" style="stop-color:#000"/></linearGradient><path id="XMLID_126_" d="M252.87 185.6c-1.14.28-2.42.57-3.56.85-5.55 1.14-18.77 3.27-27.02-1.99-4.84-3.13-7.82-8.96-6.26-19.06l-20.76 7.54c-.57 2.56-1 5.12-1.28 7.68-1 10.1 1.42 19.48 12.37 22.76.71.28 1.56.43 2.56.71 6.4 1.56 18.77 2.84 46.36-4.69 2.84-.71 5.97-1.71 9.1-2.56l.71-14.22c-3.97.99-8.09 2.13-12.22 2.98" style="clip-path:url(#SVGID_00000062889040141751586370000017267996653028703887_);fill:url(#XMLID_00000101817244059834680500000009696768493460430523_)"/></g><linearGradient id="XMLID_00000181769496324704195660000016697909080151525777_" x1="207.346" x2="244.255" y1="345.305" y2="312.072" gradientTransform="matrix(1 0 0 -1 0 514)" gradientUnits="userSpaceOnUse"><stop offset=".07" style="stop-color:#b6bcbd"/><stop offset=".121" style="stop-color:#c9cece"/><stop offset=".202" style="stop-color:#e1e3e4"/><stop offset=".288" style="stop-color:#f2f3f3"/><stop offset=".383" style="stop-color:#fcfcfc"/><stop offset=".5" style="stop-color:#fff"/><stop offset=".613" style="stop-color:#fcfcfc"/><stop offset=".704" style="stop-color:#f2f3f3"/><stop offset=".786" style="stop-color:#e1e4e4"/><stop offset=".864" style="stop-color:#c9cece"/><stop offset=".939" style="stop-color:#abb3b3"/></linearGradient><path id="XMLID_109_" d="M252.87 185.6c-1.14.28-2.42.57-3.56.85-5.55 1.14-18.77 3.27-27.02-1.99-4.84-3.13-7.82-8.96-6.26-19.06l-20.76 7.54c-.57 2.56-1 5.12-1.28 7.68-1 10.1 1.42 19.48 12.37 22.76.71.28 1.56.43 2.56.71 6.4 1.56 18.77 2.84 46.36-4.69 2.84-.71 5.97-1.71 9.1-2.56l.71-14.22c-3.97.99-8.09 2.13-12.22 2.98" style="fill:url(#XMLID_00000181769496324704195660000016697909080151525777_)"/><g id="XMLID_129_"><defs><path id="SVGID_00000049904860841767272110000002072536056609444799_" d="M-98.13-98.13h1.42l-1.42 1.42z"/></defs><defs><path id="SVGID_00000116935971829193573460000001561930101837496719_" d="M-100.98-100.98h-1.42l1.42-1.42z"/></defs><clipPath id="SVGID_00000160162259295625710640000001867169395024707756_"><use xlink:href="#SVGID_00000049904860841767272110000002072536056609444799_" style="overflow:visible"/></clipPath><clipPath id="SVGID_00000163759176956190492030000009846375580348192140_" style="clip-path:url(#SVGID_00000160162259295625710640000001867169395024707756_)"><use xlink:href="#SVGID_00000116935971829193573460000001561930101837496719_" style="overflow:visible"/></clipPath><linearGradient id="XMLID_00000145045259393213677020000016510755245907241144_" x1="299.804" x2="265.796" y1="274.343" y2="317.876" gradientTransform="matrix(1 0 0 -1 0 514)" gradientUnits="userSpaceOnUse"><stop offset="0" style="stop-color:#000"/><stop offset=".123" style="stop-color:#fff"/><stop offset=".442" style="stop-color:#fff"/><stop offset=".712" style="stop-color:#fff"/><stop offset="1" style="stop-color:#000"/></linearGradient><path id="XMLID_134_" d="M322.84 220.44c1-10.1-1.42-19.48-12.37-22.76-6.83-2.13-22.33-6.12-73.24 11.52l1.56 13.51c9.1-3.13 19.06-6.26 29.3-8.39 9.67-1.99 43.52-7.25 30.72 30.86l18.77-3.84c2.14-6.1 4.55-13.64 5.26-20.9" style="clip-path:url(#SVGID_00000163759176956190492030000009846375580348192140_);fill:url(#XMLID_00000145045259393213677020000016510755245907241144_)"/></g><linearGradient id="XMLID_00000023268623040917437740000015772174719336967046_" x1="299.804" x2="265.796" y1="274.343" y2="317.876" gradientTransform="matrix(1 0 0 -1 0 514)" gradientUnits="userSpaceOnUse"><stop offset="0" style="stop-color:#828b8a"/><stop offset=".123" style="stop-color:#7a8182"/><stop offset=".174" style="stop-color:#6b7272"/><stop offset=".276" style="stop-color:#545959"/><stop offset=".368" style="stop-color:#454949"/><stop offset=".442" style="stop-color:#404444"/><stop offset=".712" style="stop-color:#404444"/><stop offset="1" style="stop-color:#333737"/></linearGradient><path id="XMLID_122_" d="M322.84 220.44c1-10.1-1.42-19.48-12.37-22.76-6.83-2.13-22.33-6.12-73.24 11.52l1.56 13.51c9.1-3.13 19.06-6.26 29.3-8.39 9.67-1.99 43.52-7.25 30.72 30.86l18.77-3.84c2.14-6.1 4.55-13.64 5.26-20.9" style="fill:url(#XMLID_00000023268623040917437740000015772174719336967046_)"/><g id="XMLID_136_"><defs><path id="SVGID_00000072976529684490316530000002516718013410998701_" d="M-98.13-98.13h1.42l-1.42 1.42z"/></defs><defs><path id="SVGID_00000114036017706037303740000003996446992887871657_" d="M-100.98-100.98h-1.42l1.42-1.42z"/></defs><clipPath id="SVGID_00000134237222652483917590000007697038655386920842_"><use xlink:href="#SVGID_00000072976529684490316530000002516718013410998701_" style="overflow:visible"/></clipPath><clipPath id="SVGID_00000055707972846821893640000003682077425515015820_" style="clip-path:url(#SVGID_00000134237222652483917590000007697038655386920842_)"><use xlink:href="#SVGID_00000114036017706037303740000003996446992887871657_" style="overflow:visible"/></clipPath><linearGradient id="XMLID_00000025433450181990992810000017661364573877085827_" x1="305.112" x2="311.309" y1="306.625" y2="298.106" gradientTransform="matrix(1 0 0 -1 0 514)" gradientUnits="userSpaceOnUse"><stop offset="0" style="stop-color:#000"/><stop offset=".066" style="stop-color:#101010"/><stop offset=".156" style="stop-color:#1d1d1d"/><stop offset=".273" style="stop-color:#242424"/><stop offset=".515" style="stop-color:#262626"/><stop offset=".725" style="stop-color:#242424"/><stop offset=".843" style="stop-color:#1c1c1c"/><stop offset=".938" style="stop-color:#0e0e0e"/><stop offset="1" style="stop-color:#000"/></linearGradient><path id="XMLID_142_" d="m315.31 199.68-21.48 15.79c3.13 1.71 5.69 4.27 6.97 8.25l21.19-15.79c-1.28-3.13-3.41-6.12-6.68-8.25" style="clip-path:url(#SVGID_00000055707972846821893640000003682077425515015820_);fill:url(#XMLID_00000025433450181990992810000017661364573877085827_)"/></g><linearGradient id="XMLID_00000143599053228268272170000003848288757447851943_" x1="305.112" x2="311.309" y1="306.625" y2="298.106" gradientTransform="matrix(1 0 0 -1 0 514)" gradientUnits="userSpaceOnUse"><stop offset="0" style="stop-color:#3e4344"/><stop offset=".017" style="stop-color:#555a5a"/><stop offset=".051" style="stop-color:#7d8081"/><stop offset=".088" style="stop-color:#a0a3a3"/><stop offset=".128" style="stop-color:#bebfc0"/><stop offset=".172" style="stop-color:#d6d7d7"/><stop offset=".222" style="stop-color:#e8e9e9"/><stop offset=".28" style="stop-color:#f5f6f6"/><stop offset=".357" style="stop-color:#fdfdfd"/><stop offset=".515" style="stop-color:#fff"/><stop offset=".654" style="stop-color:#fdfdfd"/><stop offset=".732" style="stop-color:#f4f5f5"/><stop offset=".795" style="stop-color:#e7e8e8"/><stop offset=".85" style="stop-color:#d3d5d5"/><stop offset=".9" style="stop-color:#b9bdbd"/><stop offset=".946" style="stop-color:#9a9f9f"/><stop offset=".989" style="stop-color:#757c7c"/><stop offset="1" style="stop-color:#6a7171"/></linearGradient><path id="XMLID_124_" d="m315.31 199.68-21.48 15.79c3.13 1.71 5.69 4.27 6.97 8.25l21.19-15.79c-1.28-3.13-3.41-6.12-6.68-8.25" style="fill:url(#XMLID_00000143599053228268272170000003848288757447851943_)"/><g id="XMLID_144_"><defs><path id="SVGID_00000030467203205817881000000015741459272602424491_" d="M-98.13-98.13h1.42l-1.42 1.42z"/></defs><defs><path id="SVGID_00000069390587978975693260000014779566374215701136_" d="M-100.98-100.98h-1.42l1.42-1.42z"/></defs><clipPath id="SVGID_00000126293709352414520550000002933949798544206209_"><use xlink:href="#SVGID_00000030467203205817881000000015741459272602424491_" style="overflow:visible"/></clipPath><clipPath id="SVGID_00000031909969415894667940000007348365866355353737_" style="clip-path:url(#SVGID_00000126293709352414520550000002933949798544206209_)"><use xlink:href="#SVGID_00000069390587978975693260000014779566374215701136_" style="overflow:visible"/></clipPath><linearGradient id="XMLID_00000142891629422675726060000016570611466210252185_" x1="312.721" x2="316.42" y1="233.667" y2="226.094" gradientTransform="matrix(1 0 0 -1 0 514)" gradientUnits="userSpaceOnUse"><stop offset="0" style="stop-color:#333"/><stop offset=".079" style="stop-color:#6f6f6f"/><stop offset=".156" style="stop-color:#a2a2a2"/><stop offset=".229" style="stop-color:#cacaca"/><stop offset=".294" style="stop-color:#e7e7e7"/><stop offset=".351" style="stop-color:#f9f9f9"/><stop offset=".393" style="stop-color:#fff"/><stop offset=".439" style="stop-color:#fbfbfb"/><stop offset=".485" style="stop-color:#efefef"/><stop offset=".531" style="stop-color:#dbdbdb"/><stop offset=".578" style="stop-color:#bfbfbf"/><stop offset=".624" style="stop-color:#9b9b9b"/><stop offset=".67" style="stop-color:#6e6e6e"/><stop offset=".716" style="stop-color:#3b3b3b"/><stop offset=".761" style="stop-color:#000"/></linearGradient><path id="XMLID_146_" d="M331.52 279.04c-4.12.85-6.97.85-7.82-.28-.14-.14-.14-.14-.14-.28-.43-.71-.57-1.71.14-2.99.43-.71.85-1.42 1.71-2.42 1.28-1.56 2.7-3.13 3.98-4.84l-16.92-2.28c-5.83 8.25-11.8 16.36-17.21 24.75-.57.85-.57 1.42-.14 1.71.28.28.85.43 1.71.43 13.23-1.28 26.03-3.41 38.4-5.97v-8.82c-1.29.56-2.43.85-3.71.99" style="clip-path:url(#SVGID_00000031909969415894667940000007348365866355353737_);fill:url(#XMLID_00000142891629422675726060000016570611466210252185_)"/></g><linearGradient id="XMLID_00000019654036924742981500000008823616203978310064_" x1="312.721" x2="316.42" y1="233.667" y2="226.094" gradientTransform="matrix(1 0 0 -1 0 514)" gradientUnits="userSpaceOnUse"><stop offset="0" style="stop-color:#333737"/><stop offset=".057" style="stop-color:#5a5f5e"/><stop offset=".139" style="stop-color:#8b9191"/><stop offset=".217" style="stop-color:#b2bab9"/><stop offset=".287" style="stop-color:#ced6d5"/><stop offset=".348" style="stop-color:#dfe8e7"/><stop offset=".393" style="stop-color:#e5eeed"/><stop offset=".537" style="stop-color:#e9f1f0"/><stop offset=".681" style="stop-color:#f5f8f8"/><stop offset=".761" style="stop-color:#fff"/></linearGradient><path id="XMLID_128_" d="M331.52 279.04c-4.12.85-6.97.85-7.82-.28-.14-.14-.14-.14-.14-.28-.43-.71-.57-1.71.14-2.99.43-.71.85-1.42 1.71-2.42 1.28-1.56 2.7-3.13 3.98-4.84l-16.92-2.28c-5.83 8.25-11.8 16.36-17.21 24.75-.57.85-.57 1.42-.14 1.71.28.28.85.43 1.71.43 13.23-1.28 26.03-3.41 38.4-5.97v-8.82c-1.29.56-2.43.85-3.71.99" style="fill:url(#XMLID_00000019654036924742981500000008823616203978310064_)"/><path id="XMLID_135_" d="M185.17 121.74c-64.85 13.08-110.36 43.52-110.36 78.65 0 19.48 14.51 37.4 37.97 51.91 1.99 1.14 3.27 1.42 4.12 1.42 1.71-.14 2.56-1.14 3.41-2.42.43-.71 1-1.99 1.56-3.27 7.68-17.64 34.56-78.93 69.83-120.46.85-1 1.28-1.71 1.71-2.42.85-1.42.57-2.42 0-3.13-.84-1.13-3.97-1.13-8.24-.28" class="st60"/><path id="XMLID_143_" d="M359.96 128.71c-.14-.14-.85-.28-1.14-.28-28.73-8.82-63-13.94-99.98-13.94h-1.99c-4.41.14-9.39 1-13.37 2.99-13.23 6.54-18.92 23.04-22.19 30.72-19.91 46.08 17.78 40.39 27.88 38.26 17.21-3.7 33.85-9.81 47.08-14.93 37.55-14.36 57.6-28.73 64.28-34.28.85-.57 1.42-1.14 1.85-1.56 1-1 1.71-1.99 1.71-3.27-.14-1.58-1.42-2.86-4.13-3.71" class="st60"/><linearGradient id="XMLID_00000115514936748648169960000000284550734482677156_" x1="286.053" x2="295.93" y1="336.631" y2="412.512" gradientTransform="matrix(1 0 0 -1 0 514)" gradientUnits="userSpaceOnUse"><stop offset="0" style="stop-color:#fff"/><stop offset=".248" style="stop-color:#f2f6f6"/><stop offset=".572" style="stop-color:#e8f0ef"/><stop offset="1" style="stop-color:#e5eeed"/></linearGradient><path id="XMLID_147_" d="M219.88 205.8c-7.4 0-11.52-1.28-13.65-1.99-9.67-2.99-14.08-10.81-12.8-23.32.85-8.39 3.98-17.21 6.83-24.89 2.99-7.68 6.54-15.22 10.95-23.32 5.26-9.39 9.96-16.64 14.79-22.9 1.85-2.28 5.26-3.27 11.09-3.7 7.11-.43 14.36-.57 21.33-.57 45.23 0 87.61 7.54 122.6 21.9 1 .43 4.27 1.99 3.13 4.55-6.97 16.07-46.79 38.83-80.64 52.05-37.55 14.65-65.57 22.19-83.63 22.19m38.54-99.42c-6.97 0-14.08.14-21.19.57-5.55.28-8.68 1.28-10.24 3.27-4.84 6.12-9.39 13.37-14.65 22.76-4.41 7.96-7.96 15.5-10.95 23.18-1.85 4.98-5.83 15.22-6.83 24.6-1.14 11.95 2.84 19.34 11.95 22.19 2.13.71 6.26 1.85 13.37 1.85 17.78 0 45.8-7.4 83.2-22.19 33.71-13.08 73.1-35.56 79.93-51.34.28-.71.28-1.71-2.56-2.99-34.71-14.5-76.95-21.9-122.03-21.9" style="fill:url(#XMLID_00000115514936748648169960000000284550734482677156_)"/><linearGradient id="XMLID_00000183249072691688196050000012910872562631528884_" x1="221.711" x2="135.772" y1="403.816" y2="264.557" gradientTransform="matrix(1 0 0 -1 0 514)" gradientUnits="userSpaceOnUse"><stop offset="0" style="stop-color:#fff"/><stop offset=".134" style="stop-color:#fcfcfc"/><stop offset=".231" style="stop-color:#f3f4f4"/><stop offset=".316" style="stop-color:#e3e5e5"/><stop offset=".395" style="stop-color:#cdd0d0"/><stop offset=".468" style="stop-color:#b0b5b5"/><stop offset=".521" style="stop-color:#969d9d"/><stop offset="1" style="stop-color:#8b9394"/></linearGradient><path id="XMLID_151_" d="M209.21 126.86c-2.84 3.98-5.83 8.25-8.68 12.37-25.32 37.26-47.36 76.09-69.12 122.03l1 .43c21.62-45.8 43.66-84.76 68.98-121.88 2.84-4.12 5.83-8.39 8.68-12.37 2.84-3.98 5.83-8.11 8.53-12.23l-1.28-.14c-2.56 3.97-5.41 7.95-8.11 11.79" style="fill:url(#XMLID_00000183249072691688196050000012910872562631528884_)"/><linearGradient id="XMLID_00000016071455342124292690000005015639500984325811_" x1="386.063" x2="301.345" y1="372.344" y2="228.669" gradientTransform="matrix(1 0 0 -1 0 514)" gradientUnits="userSpaceOnUse"><stop offset="0" style="stop-color:#d7e0e0"/><stop offset=".043" style="stop-color:#c5cdce"/><stop offset=".101" style="stop-color:#b4bcbe"/><stop offset=".173" style="stop-color:#a9b1b2"/><stop offset=".273" style="stop-color:#a2aaac"/><stop offset=".552" style="stop-color:#a0a8aa"/><stop offset=".937" style="stop-color:#a0a8aa"/><stop offset="1" style="stop-color:#a0a8aa"/></linearGradient><path id="XMLID_152_" d="M307.63 274.06c2.84-4.12 5.83-8.25 8.68-12.37 25.03-36.84 46.93-75.38 68.55-120.75l-1.28-.14c-21.48 45.23-43.24 83.63-68.27 120.32-2.84 4.12-5.83 8.39-8.68 12.37-2.56 3.7-5.26 7.4-7.82 11.09h1.42c2.56-3.55 4.98-7.1 7.4-10.52" style="fill:url(#XMLID_00000016071455342124292690000005015639500984325811_)"/><linearGradient id="XMLID_00000105419175991892522060000009994009412104593087_" x1="132.456" x2="315.477" y1="268.524" y2="268.524" gradientTransform="matrix(1 0 0 -1 0 514)" gradientUnits="userSpaceOnUse"><stop offset="0" style="stop-color:#8b9394"/><stop offset=".239" style="stop-color:#8b9394"/><stop offset=".358" style="stop-color:#858c8d"/><stop offset=".526" style="stop-color:#737a7b"/><stop offset=".595" style="stop-color:#6a7171"/><stop offset="1" style="stop-color:#a0a8aa"/></linearGradient><path id="XMLID_153_" d="M258.42 295.82c-45.23 0-87.61-7.54-122.6-21.9-1-.43-4.27-1.99-3.13-4.55 6.97-16.07 46.79-38.83 80.64-52.05 37.55-14.79 65.56-22.19 83.63-22.19 7.4 0 11.52 1.28 13.65 1.99 9.67 2.99 14.08 10.81 12.8 23.47-.85 8.39-3.98 17.35-6.83 24.89s-6.54 15.36-10.95 23.18c-5.26 9.39-9.96 16.64-14.79 22.9-1.85 2.28-5.26 3.27-11.09 3.7-7.11.28-14.22.56-21.33.56m38.54-99.41c-17.78 0-45.8 7.4-83.2 22.04-33.71 13.08-73.1 35.56-79.93 51.34-.28.71-.28 1.71 2.56 2.99 34.7 14.22 76.94 21.76 122.17 21.76 7.11 0 14.22-.14 21.19-.57 5.55-.28 8.68-1.28 10.24-3.27 4.84-6.12 9.39-13.37 14.65-22.76 4.41-7.82 8.11-15.64 10.95-23.04 2.84-7.54 5.97-16.21 6.68-24.6 1.14-11.95-2.84-19.34-11.95-22.19-2.12-.56-6.25-1.7-13.36-1.7" style="fill:url(#XMLID_00000105419175991892522060000009994009412104593087_)"/><linearGradient id="XMLID_00000173119111541748517030000006592257621590807225_" x1="155.678" x2="103.914" y1="392.666" y2="265.76" gradientTransform="matrix(1 0 0 -1 0 514)" gradientUnits="userSpaceOnUse"><stop offset="0" style="stop-color:#fff"/><stop offset=".238" style="stop-color:#f8fafa"/><stop offset=".575" style="stop-color:#e6ebeb"/><stop offset=".779" style="stop-color:#d7e0e0"/><stop offset="1" style="stop-color:#8b9394"/></linearGradient><path id="XMLID_156_" d="M222.58 107.95c-.28-.43-.85-1-2.13-1h-.14c-37.97 3.84-72.53 13.23-99.98 27.16-35.56 18.06-55.18 41.53-55.18 66.28s19.63 48.21 55.18 66.28c1.56.85 3.13 1.56 4.69 2.28.57.28 1.28.43 1.85.43 1.28 0 2.42-.71 2.99-1.85 1-1.99 1.85-3.98 2.84-5.97l-1-.43c-1 1.99-1.85 3.98-2.84 5.97-.43 1-1.85 1.42-3.27.71-1.56-.71-3.13-1.56-4.69-2.28-35.13-17.78-54.47-40.96-54.47-65.28 0-24.18 19.34-47.36 54.47-65.28 27.31-13.94 61.87-23.18 99.7-27.02.71 0 1 .14 1.14.28s0 .57-.28 1c-1.28 1.85-2.42 3.7-3.7 5.69l1.28.14c1.14-1.71 2.28-3.41 3.41-5.12.41-.86.27-1.57.13-1.99" style="fill:url(#XMLID_00000173119111541748517030000006592257621590807225_)"/><linearGradient id="XMLID_00000179618228417469448700000017755885053503691174_" x1="425.25" x2="350.908" y1="359.708" y2="219.822" gradientTransform="matrix(1 0 0 -1 0 514)" gradientUnits="userSpaceOnUse"><stop offset="0" style="stop-color:#d7e0e0"/><stop offset=".164" style="stop-color:#d1dad9"/><stop offset=".255" style="stop-color:#ccd4d3"/><stop offset="1" style="stop-color:#a0a8aa"/></linearGradient><path id="XMLID_157_" d="M396.8 134.26c-1.56-.85-3.13-1.56-4.69-2.28-1.99-.85-4.12-.28-4.84 1.42-1.14 2.56-2.28 4.98-3.56 7.4l1.28.14c1.14-2.28 2.28-4.69 3.41-7.11.28-.71 1-1.14 1.85-1.14.43 0 .85.14 1.42.28 1.56.71 3.13 1.56 4.69 2.28 35.13 17.78 54.47 40.96 54.47 65.28 0 24.18-19.34 47.36-54.47 65.28-27.31 13.8-61.58 23.18-99.13 27.02-.85.14-2.28 0-1.42-1.28 1.56-2.28 3.13-4.69 4.69-6.97h-1.42c-1.42 2.13-2.84 4.12-4.27 6.26-.71 1-.57 1.71-.28 2.13.57 1.14 2.13 1 3.13.85 37.69-3.84 71.96-13.23 99.27-27.02 35.56-18.06 55.18-41.53 55.18-66.28-.27-24.73-19.75-48.2-55.31-66.26" style="fill:url(#XMLID_00000179618228417469448700000017755885053503691174_)"/></g></g></g></g></svg>