<?xml version="1.0" encoding="utf-8"?>
<!-- Generator: Adobe Illustrator 28.0.0, SVG Export Plug-In . SVG Version: 6.00 Build 0)  -->
<svg version="1.1" id="Layer_1" xmlns="http://www.w3.org/2000/svg" xmlns:xlink="http://www.w3.org/1999/xlink" x="0px" y="0px"
	 viewBox="0 0 512 512" style="enable-background:new 0 0 512 512;" xml:space="preserve">
<g>
	<path d="M0,315.2h7.47v40.94H0V315.2z"/>
	<path d="M222.35,315.2h7.58v40.94h-7.58V315.2z"/>
	<path d="M145.16,356.14V315.2h30.92v5.42h-23.45v12.43h16.75v5.83h-16.75v17.25L145.16,356.14z"/>
	<path d="M436.52,356.14v-35.51h-14.1v-5.42h35.74v5.42h-14.17v35.51H436.52z"/>
	<path d="M368.1,315.2h7.88v40.94h-7.88V315.2z"/>
	<path d="M504.53,315.2H512v40.94h-7.47V315.2z"/>
	<path d="M311.5,356.14l-23.8-29.24v29.24h-7.01V315.2h5.72l23.8,28.94V315.2h7.1v40.94H311.5z"/>
	<path d="M89.16,356.14l-23.5-29.24v29.24h-7.47V315.2h5.7l23.91,28.94V315.2h7.05v40.94H89.16z"/>
	<path d="M255.91,158.49c-50.31,0-90.88,21.34-90.88,46.63c0,14.2,16.75,25.29,42.02,31.59l43.62-52.49h5.24l-37.93,76.48
		c-41.01-7.6-70.64-26.76-70.64-50.31c0-30.12,48.61-54.51,108.57-54.51c60.12,0,108.73,24.4,108.73,54.51
		c0,23.55-29.63,42.71-70.78,50.31l-37.95-76.48h5.81l43.67,52.49c24.81-6.29,41.56-17.39,41.56-31.59
		C346.95,179.83,306.26,158.49,255.91,158.49L255.91,158.49z"/>
</g>
</svg>
