<svg xmlns="http://www.w3.org/2000/svg" xml:space="preserve" viewBox="0 0 512 512"><path d="M0 315.2h7.47v40.94H0zm222.35 0h7.58v40.94h-7.58zm-77.19 40.94V315.2h30.92v5.42h-23.45v12.43h16.75v5.83h-16.75v17.25zm291.36 0v-35.51h-14.1v-5.42h35.74v5.42h-14.17v35.51zM368.1 315.2h7.88v40.94h-7.88zm136.43 0H512v40.94h-7.47zM311.5 356.14l-23.8-29.24v29.24h-7.01V315.2h5.72l23.8 28.94V315.2h7.1v40.94zm-222.34 0-23.5-29.24v29.24h-7.47V315.2h5.7l23.91 28.94V315.2h7.05v40.94zm166.75-197.65c-50.31 0-90.88 21.34-90.88 46.63 0 14.2 16.75 25.29 42.02 31.59l43.62-52.49h5.24l-37.93 76.48c-41.01-7.6-70.64-26.76-70.64-50.31 0-30.12 48.61-54.51 108.57-54.51 60.12 0 108.73 24.4 108.73 54.51 0 23.55-29.63 42.71-70.78 50.31l-37.95-76.48h5.81l43.67 52.49c24.81-6.29 41.56-17.39 41.56-31.59 0-25.29-40.69-46.63-91.04-46.63"/></svg>