<svg xmlns="http://www.w3.org/2000/svg" xml:space="preserve" id="Layer_1" x="0" y="0" viewBox="0 0 512 512"><style>.st0{fill:red}</style><g id="layer1" transform="translate(-273.484 -395.904)"><path id="polygon2395" d="M299.19 693.67v-83.54H273.6v83.54z" class="st0"/><path id="path2397" d="M511.07 693.67h2.22l2.07-.14 1.94-.14 1.8-.14 1.66-.28 1.66-.28 1.52-.41 1.52-.41 1.38-.55 1.38-.55 1.24-.55 1.11-.69 1.11-.69.97-.69.97-.69.83-.83.83-.83.69-.83.69-.97.55-.97.55-.97.55-.97.41-1.11.41-1.11.28-1.11.28-1.11.28-1.24.14-1.24.14-1.24.14-1.24v-61.54h-25.45v50.48c0 7.47-1.8 13.42-15.21 13.42h-14.25c-13.42 0-15.21-5.95-15.21-13.42v-50.48h-25.59v59.06c0 13.69 6.36 24.34 29.46 24.34h36.93z" class="st0"/><path id="path2399" d="M755.86 693.67h2.22l2.07-.14 1.94-.14 1.8-.14 1.8-.28 1.66-.28 1.52-.41 1.52-.41 1.38-.55 1.24-.55 1.24-.55 1.24-.69 1.11-.69.97-.69.97-.69.83-.83.83-.83.69-.83.69-.97.69-.97.55-.97.55-.97.41-1.11.41-1.11.41-1.11.28-1.11.28-1.24.14-1.24.14-1.24.14-1.24v-61.54h-25.86v50.48c0 7.47-1.8 13.42-15.21 13.42H730.4c-13.42 0-15.21-5.95-15.21-13.42v-50.48H689.6v59.06c0 13.69 6.36 24.34 29.46 24.34h36.79v.12z" class="st0"/><path id="path2401" d="M323.25 674.17v19.5h82.98c13.83 0 18.81-10.23 19.92-15.49s-.41-17.01-9.54-20.47l-62.24-23.37c-2.63-1.24-1.24-4.56 1.94-4.56h61.68v-19.5h-63.62c-13.42 0-24.76 4.98-27.66 13.97-2.63 8.16-2.21 21.02 10.1 25.31l56.01 20.75c3.6 1.38 2.63 4.01-.41 4.01h-69.15v-.15z" class="st0"/><path id="path2403" d="M662.09 674.17v19.5H582.7c-13.83 0-16.32-7.74-17.43-13.14-1.11-5.26.41-17.01 9.54-20.47l56.98-29.04c1.24-.55 1.24-1.38.14-1.38H567.5v-19.5h64.59c13.42 0 24.76.55 28.77 9.4 3.6 7.74 1.8 19.64-10.65 23.79l-53.66 27.38c-2.49 1.11-2.77 3.46.14 3.46z" class="st0"/></g></svg>