<svg xmlns="http://www.w3.org/2000/svg" xml:space="preserve" id="Layer_1" x="0" y="0" viewBox="0 0 512 512"><style>.st0{fill:#003a80}</style><g id="XMLID_1_"><path id="XMLID_2_" d="M510.53 237.74c-3.18-19.09-19.09-34.31-38.46-36.66-6.92-.97-15.36-1.38-24.07-1.38h-3.18c-8.85 0-16.74.42-24.07 1.38-19.51 2.35-34.86 17.57-38.04 36.66-.42 3.32-1.38 10.65-1.38 18.12 0 7.89.97 15.36 1.38 18.12 3.32 19.51 18.54 34.31 38.04 37.08 7.47.42 15.36 1.38 24.62 1.38h2.77c8.85 0 17.15-.97 24.07-1.38 19.51-2.77 35.28-17.57 38.46-37.08.42-2.77 1.38-10.24 1.38-18.12-.14-7.47-1.11-14.94-1.52-18.12m-42.75 31.54c-1.38 9.68-8.3 15.36-15.36 15.36h-12.03c-6.5 0-13.97-5.53-15.36-15.36-.42-4.15-.42-8.3-.42-13s0-11.07.42-15.36c.97-7.89 7.47-13.97 15.77-14.39 1.8-.42 3.18-.42 5.53-.42l6.09.42c8.3.42 14.39 6.5 15.36 14.39.42 4.15.42 10.65.42 14.8.13 5.12.13 9.27-.42 13.56" class="st0"/><path id="XMLID_5_" d="M280.33 255.72c0-6.09.42-12.04 1.8-18.12 3.18-19.09 18.54-34.31 38.04-36.66 6.92-.97 15.36-1.38 24.07-1.38 9.68 0 18.54.42 26.01 1.38 2.77.42 4.7 2.77 4.7 5.53v16.74c0 3.18-2.35 5.53-5.12 5.53 0 0-8.85-.42-13.42-.42-5.53 0-10.24 0-15.36.42-8.3.42-14.39 6.5-15.36 14.39-.42 4.15-.97 8.3-.97 12.59v.42c0 4.15.42 8.3.97 12.59.97 7.89 6.5 13.97 15.36 14.8 4.7.41 10.24.97 15.36.97 4.7 0 13.42-.42 13.42-.42 2.77 0 5.12 2.35 5.12 5.53v16.74c0 2.77-1.8 5.12-4.7 5.53-7.47 0-16.19.42-26.01.42-8.85 0-17.15-.97-24.07-1.38-19.51-2.77-34.86-17.57-38.04-37.08-1.38-5.53-1.8-11.62-1.8-17.57z" class="st0"/><path id="XMLID_4_" d="M267.88 283.11c3.18 0 5.53 2.77 5.53 5.53v16.74c0 3.18-2.35 5.53-5.53 5.53h-66.4c-12.04 0-21.86-9.68-21.86-21.86V223.2c0-12.04 9.68-21.86 21.86-21.86h66.4c3.18 0 5.53 2.35 5.53 5.12v16.32c0 3.32-2.35 5.53-5.53 5.53h-40.95c-3.18 0-5.53 1.8-5.53 5.12v10.24l34.86-.42c2.77 0 5.53 2.77 5.53 5.53v13.97c0 3.18-2.77 5.53-5.53 5.53H221.4v9.27c0 3.18 2.35 5.53 5.53 5.53h40.95z" class="st0"/><path id="XMLID_3_" d="M98.96 311.06c-9.68 0-18.12-6.5-20.89-15.36L55.39 208v-1.38c0-2.77 2.35-5.12 5.53-5.12h33.89c2.77 0 5.12 1.8 5.53 4.15l17.57 73.32c0 .97.97 1.8 2.35 1.8.97 0 1.8-.97 1.8-1.8l18.12-73.32c.42-2.35 2.77-4.15 5.12-4.15h19.09c3.18 0 5.53 2.35 5.53 5.12V208l-21.86 85.77c-2.35 9.68-10.24 17.15-21.3 17.15h-27.8z" class="st0"/><path id="XMLID_8_" d="M5.58 201.49h32.93c3.18 0 5.53 2.35 5.53 5.12v98.91c0 3.18-2.35 5.53-5.53 5.53H5.58c-2.77 0-5.53-2.35-5.53-5.53v-98.91c0-2.76 2.77-5.12 5.53-5.12" class="st0"/></g></svg>