<?xml version="1.0" encoding="utf-8"?>
<!-- Generator: Adobe Illustrator 26.5.0, SVG Export Plug-In . SVG Version: 6.00 Build 0)  -->
<svg version="1.1" id="Layer_1" xmlns="http://www.w3.org/2000/svg" xmlns:xlink="http://www.w3.org/1999/xlink" x="0px" y="0px"
	 viewBox="0 0 512 512" style="enable-background:new 0 0 512 512;" xml:space="preserve">
<style type="text/css">
	.st0{fill:#003A80;}
</style>
<g id="XMLID_1_">
	<path id="XMLID_2_" class="st0" d="M510.53,237.74c-3.18-19.09-19.09-34.31-38.46-36.66c-6.92-0.97-15.36-1.38-24.07-1.38h-3.18
		c-8.85,0-16.74,0.42-24.07,1.38c-19.51,2.35-34.86,17.57-38.04,36.66c-0.42,3.32-1.38,10.65-1.38,18.12
		c0,7.89,0.97,15.36,1.38,18.12c3.32,19.51,18.54,34.31,38.04,37.08c7.47,0.42,15.36,1.38,24.62,1.38h2.77
		c8.85,0,17.15-0.97,24.07-1.38c19.51-2.77,35.28-17.57,38.46-37.08c0.42-2.77,1.38-10.24,1.38-18.12
		C511.91,248.39,510.94,240.92,510.53,237.74z M467.78,269.28c-1.38,9.68-8.3,15.36-15.36,15.36h-5.53h-6.5
		c-6.5,0-13.97-5.53-15.36-15.36c-0.42-4.15-0.42-8.3-0.42-13s0-11.07,0.42-15.36c0.97-7.89,7.47-13.97,15.77-14.39
		c1.8-0.42,3.18-0.42,5.53-0.42l6.09,0.42c8.3,0.42,14.39,6.5,15.36,14.39c0.42,4.15,0.42,10.65,0.42,14.8
		C468.33,260.84,468.33,264.99,467.78,269.28z"/>
	<path id="XMLID_5_" class="st0" d="M280.33,255.72c0-6.09,0.42-12.04,1.8-18.12c3.18-19.09,18.54-34.31,38.04-36.66
		c6.92-0.97,15.36-1.38,24.07-1.38c9.68,0,18.54,0.42,26.01,1.38c2.77,0.42,4.7,2.77,4.7,5.53v16.74c0,3.18-2.35,5.53-5.12,5.53
		c0,0-8.85-0.42-13.42-0.42c-5.53,0-10.24,0-15.36,0.42c-8.3,0.42-14.39,6.5-15.36,14.39c-0.42,4.15-0.97,8.3-0.97,12.59v0.42
		c0,4.15,0.42,8.3,0.97,12.59c0.97,7.89,6.5,13.97,15.36,14.8c4.7,0.41,10.24,0.97,15.36,0.97c4.7,0,13.42-0.42,13.42-0.42
		c2.77,0,5.12,2.35,5.12,5.53v16.74c0,2.77-1.8,5.12-4.7,5.53c-7.47,0-16.19,0.42-26.01,0.42c-8.85,0-17.15-0.97-24.07-1.38
		c-19.51-2.77-34.86-17.57-38.04-37.08c-1.38-5.53-1.8-11.62-1.8-17.57C280.33,237.19,280.33,274.81,280.33,255.72L280.33,255.72z"
		/>
	<path id="XMLID_4_" class="st0" d="M267.88,283.11c3.18,0,5.53,2.77,5.53,5.53v16.74c0,3.18-2.35,5.53-5.53,5.53h-66.4
		c-12.04,0-21.86-9.68-21.86-21.86v-65.85c0-12.04,9.68-21.86,21.86-21.86h66.4c3.18,0,5.53,2.35,5.53,5.12v16.32
		c0,3.32-2.35,5.53-5.53,5.53h-40.95c-3.18,0-5.53,1.8-5.53,5.12v10.24l34.86-0.42c2.77,0,5.53,2.77,5.53,5.53v13.97
		c0,3.18-2.77,5.53-5.53,5.53H221.4v9.27c0,3.18,2.35,5.53,5.53,5.53H267.88L267.88,283.11z"/>
	<path id="XMLID_3_" class="st0" d="M98.96,311.06c-9.68,0-18.12-6.5-20.89-15.36L55.39,208c0-0.42,0-0.97,0-1.38
		c0-2.77,2.35-5.12,5.53-5.12h33.89c2.77,0,5.12,1.8,5.53,4.15l17.57,73.32c0,0.97,0.97,1.8,2.35,1.8c0.97,0,1.8-0.97,1.8-1.8
		l18.12-73.32c0.42-2.35,2.77-4.15,5.12-4.15h19.09c3.18,0,5.53,2.35,5.53,5.12c0,0.42,0,0.97,0,1.38l-21.86,85.77
		c-2.35,9.68-10.24,17.15-21.3,17.15H98.96V311.06z"/>
	<path id="XMLID_8_" class="st0" d="M5.58,201.49h32.93c3.18,0,5.53,2.35,5.53,5.12v98.91c0,3.18-2.35,5.53-5.53,5.53H5.58
		c-2.77,0-5.53-2.35-5.53-5.53v-98.91C0.05,203.85,2.82,201.49,5.58,201.49L5.58,201.49z"/>
</g>
</svg>
