<svg width="48" height="48" viewBox="0 0 48 48" fill="none" xmlns="http://www.w3.org/2000/svg">
<mask id="path-1-inside-1_153_357" fill="white">
<path d="M9.64 13V13.96V24.2913C9.64 24.7427 9.51767 24.9699 9.31375 25.15C9.10983 25.3301 8.75661 25.4781 8.2 25.4781C7.18462 25.4781 6.79375 24.8816 6.79375 24.2538V24.2425L6.74125 21.64H1V24.2913C1 25.3742 1.17241 27.057 2.2075 28.5569C3.24259 30.0567 5.19109 31.24 8.2 31.24C11.2238 31.24 13.1744 29.9758 14.2 28.4406C14.2277 28.3991 14.2485 28.3567 14.275 28.315C14.4859 28.7334 14.737 29.1187 15.0419 29.4587C16.1372 30.6806 17.7865 31.2389 19.735 31.24C21.5323 31.2578 23.066 30.5991 24.1544 29.6931C24.5073 29.3994 24.8158 29.0802 25.0788 28.7444C25.2357 28.9966 25.4053 29.2395 25.6019 29.4587C26.6972 30.6806 28.3465 31.2389 30.295 31.24C32.0348 31.2573 33.519 30.635 34.6 29.7738V34.12H40.36V31.0863C40.8304 31.1919 41.3482 31.24 41.905 31.24C43.1146 31.24 47.08 30.76 47.08 24.52C47.08 18.28 43.1146 17.8 41.905 17.8H40.36H34.6V19.3713C33.5042 18.285 31.9752 17.8 30.28 17.8C28.4171 17.8 26.7995 18.3541 25.6881 19.5119C25.3912 19.8212 25.1387 20.1696 24.9231 20.5488C24.7539 20.2475 24.5708 19.9618 24.3569 19.705C23.2509 18.3778 21.5829 17.8 19.72 17.8C18.0009 17.8 16.4963 18.2779 15.4 19.2606V13H9.64ZM11.56 14.92H13.48V24.2125C13.48 24.9705 13.3109 26.3162 12.6044 27.3738C11.8979 28.4313 10.7278 29.32 8.2 29.32C5.65819 29.32 4.48535 28.4778 3.78813 27.4675C3.0909 26.4572 2.92 25.1466 2.92 24.2913V23.56H4.85875L4.87375 24.2538C4.87375 25.8915 6.2701 27.3981 8.2 27.3981C9.10643 27.3981 9.95468 27.1467 10.585 26.59C11.2153 26.0333 11.56 25.1876 11.56 24.2913V14.92ZM19.72 19.72C21.2171 19.72 22.1891 20.1022 22.8831 20.935C23.5771 21.7678 24.04 23.208 24.04 25.48H18.28C18.28 26.44 18.5075 27.4 19.72 27.4C20.9277 27.4 21.16 26.44 21.16 26.44H24.04C24.04 26.7747 23.6854 27.5822 22.9244 28.2156C22.1634 28.8491 21.07 29.3338 19.7519 29.32H19.7463H19.7406C18.135 29.32 17.1374 28.918 16.4725 28.1763C15.8076 27.4345 15.4 26.2109 15.4 24.34C15.4 22.6776 15.8233 21.5605 16.5119 20.8431C17.2005 20.1258 18.2229 19.72 19.72 19.72ZM30.28 19.72C31.7771 19.72 32.7491 20.1022 33.4431 20.935C34.1371 21.7678 34.6 23.208 34.6 25.48H28.84C28.84 26.44 29.0675 27.4 30.28 27.4C31.4877 27.4 31.72 26.44 31.72 26.44H34.6C34.6 26.7747 34.2454 27.5822 33.4844 28.2156C32.7234 28.8491 31.63 29.3338 30.3119 29.32H30.3063H30.3006C28.695 29.32 27.6974 28.918 27.0325 28.1763C26.3676 27.4345 25.96 26.2109 25.96 24.34C25.96 22.6776 26.3833 21.5605 27.0719 20.8431C27.7605 20.1258 28.7829 19.72 30.28 19.72ZM36.52 19.72H38.44V20.8713C39.1408 19.9977 40.168 19.72 41.32 19.72H41.905C43.6906 19.72 44.7858 20.9494 45.0738 23.215C45.1026 23.3782 45.1223 23.5501 45.1319 23.7325C45.1319 23.7709 45.1413 23.8197 45.1413 23.8581C45.1509 24.0693 45.16 24.2896 45.16 24.52C45.16 24.7504 45.1509 24.9707 45.1413 25.1819C45.1317 25.4411 45.1028 25.6921 45.0644 25.9225C45.0452 26.0857 45.0163 26.2379 44.9875 26.3819V26.4025C44.5939 28.3033 43.5274 29.32 41.905 29.32H41.32C40.168 29.32 39.1408 29.0424 38.44 28.1688V32.2H36.52V19.72ZM19.72 21.64C18.7427 21.64 18.28 22.6 18.28 23.56H21.16C21.16 22.6 20.7078 21.64 19.72 21.64ZM30.28 21.64C29.3027 21.64 28.84 22.6 28.84 23.56H31.72C31.72 22.6 31.2678 21.64 30.28 21.64ZM40.36 21.64C39.8508 21.64 39.3624 21.9434 39.0024 22.4835C38.6423 23.0236 38.44 23.7562 38.44 24.52C38.44 25.2838 38.6423 26.0164 39.0024 26.5565C39.3624 27.0966 39.8508 27.4 40.36 27.4C40.8692 27.4 41.3576 27.0966 41.7176 26.5565C42.0777 26.0164 42.28 25.2838 42.28 24.52C42.28 23.7562 42.0777 23.0236 41.7176 22.4835C41.3576 21.9434 40.8692 21.64 40.36 21.64Z"/>
</mask>
<path d="M9.64 13V13.96V24.2913C9.64 24.7427 9.51767 24.9699 9.31375 25.15C9.10983 25.3301 8.75661 25.4781 8.2 25.4781C7.18462 25.4781 6.79375 24.8816 6.79375 24.2538V24.2425L6.74125 21.64H1V24.2913C1 25.3742 1.17241 27.057 2.2075 28.5569C3.24259 30.0567 5.19109 31.24 8.2 31.24C11.2238 31.24 13.1744 29.9758 14.2 28.4406C14.2277 28.3991 14.2485 28.3567 14.275 28.315C14.4859 28.7334 14.737 29.1187 15.0419 29.4587C16.1372 30.6806 17.7865 31.2389 19.735 31.24C21.5323 31.2578 23.066 30.5991 24.1544 29.6931C24.5073 29.3994 24.8158 29.0802 25.0788 28.7444C25.2357 28.9966 25.4053 29.2395 25.6019 29.4587C26.6972 30.6806 28.3465 31.2389 30.295 31.24C32.0348 31.2573 33.519 30.635 34.6 29.7738V34.12H40.36V31.0863C40.8304 31.1919 41.3482 31.24 41.905 31.24C43.1146 31.24 47.08 30.76 47.08 24.52C47.08 18.28 43.1146 17.8 41.905 17.8H40.36H34.6V19.3713C33.5042 18.285 31.9752 17.8 30.28 17.8C28.4171 17.8 26.7995 18.3541 25.6881 19.5119C25.3912 19.8212 25.1387 20.1696 24.9231 20.5488C24.7539 20.2475 24.5708 19.9618 24.3569 19.705C23.2509 18.3778 21.5829 17.8 19.72 17.8C18.0009 17.8 16.4963 18.2779 15.4 19.2606V13H9.64ZM11.56 14.92H13.48V24.2125C13.48 24.9705 13.3109 26.3162 12.6044 27.3738C11.8979 28.4313 10.7278 29.32 8.2 29.32C5.65819 29.32 4.48535 28.4778 3.78813 27.4675C3.0909 26.4572 2.92 25.1466 2.92 24.2913V23.56H4.85875L4.87375 24.2538C4.87375 25.8915 6.2701 27.3981 8.2 27.3981C9.10643 27.3981 9.95468 27.1467 10.585 26.59C11.2153 26.0333 11.56 25.1876 11.56 24.2913V14.92ZM19.72 19.72C21.2171 19.72 22.1891 20.1022 22.8831 20.935C23.5771 21.7678 24.04 23.208 24.04 25.48H18.28C18.28 26.44 18.5075 27.4 19.72 27.4C20.9277 27.4 21.16 26.44 21.16 26.44H24.04C24.04 26.7747 23.6854 27.5822 22.9244 28.2156C22.1634 28.8491 21.07 29.3338 19.7519 29.32H19.7463H19.7406C18.135 29.32 17.1374 28.918 16.4725 28.1763C15.8076 27.4345 15.4 26.2109 15.4 24.34C15.4 22.6776 15.8233 21.5605 16.5119 20.8431C17.2005 20.1258 18.2229 19.72 19.72 19.72ZM30.28 19.72C31.7771 19.72 32.7491 20.1022 33.4431 20.935C34.1371 21.7678 34.6 23.208 34.6 25.48H28.84C28.84 26.44 29.0675 27.4 30.28 27.4C31.4877 27.4 31.72 26.44 31.72 26.44H34.6C34.6 26.7747 34.2454 27.5822 33.4844 28.2156C32.7234 28.8491 31.63 29.3338 30.3119 29.32H30.3063H30.3006C28.695 29.32 27.6974 28.918 27.0325 28.1763C26.3676 27.4345 25.96 26.2109 25.96 24.34C25.96 22.6776 26.3833 21.5605 27.0719 20.8431C27.7605 20.1258 28.7829 19.72 30.28 19.72ZM36.52 19.72H38.44V20.8713C39.1408 19.9977 40.168 19.72 41.32 19.72H41.905C43.6906 19.72 44.7858 20.9494 45.0738 23.215C45.1026 23.3782 45.1223 23.5501 45.1319 23.7325C45.1319 23.7709 45.1413 23.8197 45.1413 23.8581C45.1509 24.0693 45.16 24.2896 45.16 24.52C45.16 24.7504 45.1509 24.9707 45.1413 25.1819C45.1317 25.4411 45.1028 25.6921 45.0644 25.9225C45.0452 26.0857 45.0163 26.2379 44.9875 26.3819V26.4025C44.5939 28.3033 43.5274 29.32 41.905 29.32H41.32C40.168 29.32 39.1408 29.0424 38.44 28.1688V32.2H36.52V19.72ZM19.72 21.64C18.7427 21.64 18.28 22.6 18.28 23.56H21.16C21.16 22.6 20.7078 21.64 19.72 21.64ZM30.28 21.64C29.3027 21.64 28.84 22.6 28.84 23.56H31.72C31.72 22.6 31.2678 21.64 30.28 21.64ZM40.36 21.64C39.8508 21.64 39.3624 21.9434 39.0024 22.4835C38.6423 23.0236 38.44 23.7562 38.44 24.52C38.44 25.2838 38.6423 26.0164 39.0024 26.5565C39.3624 27.0966 39.8508 27.4 40.36 27.4C40.8692 27.4 41.3576 27.0966 41.7176 26.5565C42.0777 26.0164 42.28 25.2838 42.28 24.52C42.28 23.7562 42.0777 23.0236 41.7176 22.4835C41.3576 21.9434 40.8692 21.64 40.36 21.64Z" stroke="black" stroke-width="2" mask="url(#path-1-inside-1_153_357)"/>
</svg>
