<svg xmlns="http://www.w3.org/2000/svg" xml:space="preserve" viewBox="0 0 512 512"><path d="M297.03 302.41c0 .97.31 1.54.87 1.54.46-.05.87-.26 1.23-.51L458.7 199.87a15.4 15.4 0 0 1 9.21-2.76h35.07c5.38 0 9.01 3.58 9.01 8.96v66.96c0 8.09-1.79 12.8-8.96 17.1l-42.54 25.6c-.42.29-.92.47-1.43.51-.51 0-1.02-.41-1.02-1.89v-78.12c0-.92-.26-1.54-.87-1.54-.45.05-.88.23-1.23.51l-116.62 75.77c-2.66 1.79-5.79 2.76-8.96 2.71h-77.3c-5.43 0-9.01-3.58-9.01-9.01v-96.5c0-.72-.31-1.38-.92-1.38-.45.06-.87.23-1.23.51l-76.95 46.18c-.77.51-.97.87-.97 1.23 0 .31.15.61.67 1.18l54.98 54.93c.72.72 1.23 1.28 1.23 1.89 0 .51-.82.92-1.79.92H169.4c-3.89 0-6.91-.56-9.01-2.66l-33.33-33.28c-.26-.31-.63-.49-1.02-.51-.36.02-.71.12-1.02.31l-55.7 33.48c-3.38 2.05-5.68 2.61-9.01 2.61H9.06c-5.48.04-9.06-3.59-9.06-8.97v-65.68c0-8.14 1.79-12.8 9.01-17.1l42.8-25.7c.34-.22.73-.34 1.13-.36.67 0 1.02.67 1.02 2.15v87.95c0 .92.2 1.33.87 1.33.46-.05.87-.26 1.28-.51l144.57-86.98c2.77-1.89 6.14-2.82 9.52-2.66h77.82c5.38 0 9.01 3.58 9.01 8.96l-.05 96.4z" style="fill:#131e29"/></svg>