<?xml version="1.0" encoding="utf-8"?>
<!-- Generator: Adobe Illustrator 27.0.0, SVG Export Plug-In . SVG Version: 6.00 Build 0)  -->
<svg version="1.1" id="Ñëîé_1" xmlns="http://www.w3.org/2000/svg" xmlns:xlink="http://www.w3.org/1999/xlink" x="0px" y="0px"
	 viewBox="0 0 512 512" style="enable-background:new 0 0 512 512;" xml:space="preserve">
<style type="text/css">
	.st0{fill:#0060A9;}
</style>
<g id="XMLID_1_">
	<path class="st0" d="M22.42,166.05c0-49.68,100.6-89.95,224.86-89.95c124.13,0,224.86,40.27,224.86,89.95S371.55,256,247.28,256
		C123.16,256,22.42,215.73,22.42,166.05L22.42,166.05z M297.51,173.94c0-0.28-0.28-0.55-0.55-0.55c-6.23-0.97-12.73-1.66-19.51-2.21
		c-0.42,0-0.69-0.42-0.42-1.25c20.76-21.86,28.64-49.68,18.13-71.4c0-0.42,0.42-0.69,0.83-0.69
		c71.54,8.72,123.71,35.98,123.71,68.36c0,39.3-77.22,71.26-172.42,71.26S74.86,205.63,74.86,166.19
		c0-34.04,57.98-62.55,135.47-69.6c0.42,0,0.69,0.28,0.69,0.83l-16.88,92.58c-0.14,0.69-0.14,1.38-0.14,2.08
		c0,6.23,4.98,11.21,11.21,11.21h0.55c14.94-0.83,31.14-5.4,46.36-14.25c4.43-2.49,8.58-5.26,12.45-8.3
		c0.28-0.14,0.55-0.28,0.83-0.14c5.12,3.32,8.03,7.33,8.03,11.62c0,5.81-5.4,10.93-14.25,14.94c-10.24,4.57-25.32,7.47-41.93,7.47
		c-14.11,0-27.12-2.08-37.09-5.54c-0.42-0.14-0.83,0.14-0.83,0.55l-1.38,7.89c0,0.42,0.14,0.69,0.55,0.83
		c20.34,4.7,43.87,7.47,68.77,7.47c31,0,56.18-10.1,56.18-22.42c0-4.84-3.87-9.27-10.24-13.01c-5.67-2.77-9.27-6.37-8.3-8.86
		c0.97-2.49,6.37-2.91,12.73-1.25c0.42,0,0.69-0.14,0.83-0.83L297.51,173.94L297.51,173.94z M247.28,117.21c0,0.55,0,0.97,0,1.38
		c0.83,16.47-9.41,38.61-28.09,57.29c-3.87,3.87-7.75,7.33-11.76,10.38c-0.14,0.14-0.42,0.14-0.55,0.14
		c-0.42-0.14-0.69-0.42-0.55-0.97l18.27-100.6c0-0.42-0.28-0.69-0.69-0.69c-100.74,4.7-178.92,39.58-178.92,81.92
		c0,45.53,90.64,82.47,202.31,82.47c111.81,0,202.31-36.95,202.31-82.47s-90.64-82.47-202.31-82.47c-3.6,0-7.06,0-10.66,0.14
		c-0.42,0-0.69,0.28-0.69,0.55l-2.08,11.76c0,0.28,0.14,0.55,0.42,0.83C241.89,100.32,247.28,108.21,247.28,117.21L247.28,117.21z"
		/>
	<polygon id="XMLID_7_" class="st0" points="37.78,300.97 37.78,411.12 98.94,411.12 98.94,435.89 0,435.89 0,300.97 	"/>
	<path class="st0" d="M185.57,381.23l-17.71-49.12l-17.57,49.12H185.57L185.57,381.23z M191.93,300.97l51.34,134.78h-39.3
		l-11.35-31.83h-49.4l-11.35,31.83h-31.55l50.78-134.78H191.93L191.93,300.97z"/>
	<path class="st0" d="M284.92,410.98h16.88c10.1,0,23.52-1.8,32.24-13.42c8.72-11.62,8.99-25.18,8.99-30.72
		c0-7.06-0.97-21.45-11.07-31.41c-9.41-8.99-21.59-9.82-30.86-9.82h-16.19V410.98L284.92,410.98z M247.28,300.97h55.21
		c16.05,0,40.27,1.52,58.81,17.44c15.08,12.73,22.14,33.63,22.14,49.68c0,11.76-3.74,35.98-24.49,52.31
		c-16.47,13.01-35.01,15.36-52.45,15.36h-59.23V300.97L247.28,300.97z"/>
	<path class="st0" d="M454.43,381.09l-17.57-49.12l-17.71,49.12H454.43L454.43,381.09z M460.66,300.97L512,435.75h-39.3
		l-11.35-31.83h-49.4l-11.35,31.83h-31.55l50.78-134.78H460.66L460.66,300.97z"/>
</g>
</svg>
