<svg xmlns="http://www.w3.org/2000/svg" xml:space="preserve" id="Ñëîé_1" x="0" y="0" viewBox="0 0 512 512"><style>.st0{fill:#0060a9}</style><g id="XMLID_1_"><path d="M22.42 166.05c0-49.68 100.6-89.95 224.86-89.95 124.13 0 224.86 40.27 224.86 89.95S371.55 256 247.28 256c-124.12 0-224.86-40.27-224.86-89.95m275.09 7.89c0-.28-.28-.55-.55-.55-6.23-.97-12.73-1.66-19.51-2.21-.42 0-.69-.42-.42-1.25 20.76-21.86 28.64-49.68 18.13-71.4 0-.42.42-.69.83-.69 71.54 8.72 123.71 35.98 123.71 68.36 0 39.3-77.22 71.26-172.42 71.26S74.86 205.63 74.86 166.19c0-34.04 57.98-62.55 135.47-69.6.42 0 .69.28.69.83L194.14 190c-.14.69-.14 1.38-.14 2.08 0 6.23 4.98 11.21 11.21 11.21h.55c14.94-.83 31.14-5.4 46.36-14.25a97 97 0 0 0 12.45-8.3c.28-.14.55-.28.83-.14 5.12 3.32 8.03 7.33 8.03 11.62 0 5.81-5.4 10.93-14.25 14.94-10.24 4.57-25.32 7.47-41.93 7.47-14.11 0-27.12-2.08-37.09-5.54-.42-.14-.83.14-.83.55l-1.38 7.89c0 .42.14.69.55.83 20.34 4.7 43.87 7.47 68.77 7.47 31 0 56.18-10.1 56.18-22.42 0-4.84-3.87-9.27-10.24-13.01-5.67-2.77-9.27-6.37-8.3-8.86s6.37-2.91 12.73-1.25c.42 0 .69-.14.83-.83zm-50.23-56.73v1.38c.83 16.47-9.41 38.61-28.09 57.29-3.87 3.87-7.75 7.33-11.76 10.38-.14.14-.42.14-.55.14-.42-.14-.69-.42-.55-.97l18.27-100.6c0-.42-.28-.69-.69-.69-100.74 4.7-178.92 39.58-178.92 81.92 0 45.53 90.64 82.47 202.31 82.47 111.81 0 202.31-36.95 202.31-82.47S358.97 83.59 247.3 83.59c-3.6 0-7.06 0-10.66.14-.42 0-.69.28-.69.55l-2.08 11.76c0 .28.14.55.42.83 7.6 3.45 12.99 11.34 12.99 20.34" class="st0"/><path id="XMLID_7_" d="M37.78 300.97v110.15h61.16v24.77H0V300.97z" class="st0"/><path d="m185.57 381.23-17.71-49.12-17.57 49.12zm6.36-80.26 51.34 134.78h-39.3l-11.35-31.83h-49.4l-11.35 31.83h-31.55l50.78-134.78zm92.99 110.01h16.88c10.1 0 23.52-1.8 32.24-13.42s8.99-25.18 8.99-30.72c0-7.06-.97-21.45-11.07-31.41-9.41-8.99-21.59-9.82-30.86-9.82h-16.19v85.37zm-37.64-110.01h55.21c16.05 0 40.27 1.52 58.81 17.44 15.08 12.73 22.14 33.63 22.14 49.68 0 11.76-3.74 35.98-24.49 52.31-16.47 13.01-35.01 15.36-52.45 15.36h-59.23V300.97zm207.15 80.12-17.57-49.12-17.71 49.12zm6.23-80.12L512 435.75h-39.3l-11.35-31.83h-49.4l-11.35 31.83h-31.55l50.78-134.78z" class="st0"/></g></svg>