<svg xmlns="http://www.w3.org/2000/svg" xml:space="preserve" viewBox="0 0 512 512"><path d="M244.98 504.33c-7.19-4.01-27.81-19.92-44.28-34.04-27.26-23.38-51.06-49.26-72.36-78.31-45.94-62.54-74.3-135.32-86.75-222.21-5.95-41.51-8.16-99.34-4.43-112.35 2.35-8.16 7.75-15.77 14.67-20.62 7.47-5.26 31.13-14.53 52.3-20.62 45.1-12.99 94.78-19.22 153.86-19.22 75.27 0 136.84 9.96 188.86 30.85 18.54 7.47 25.46 12.73 30.72 23.8l3.46 7.33-.14 31.96c-.28 88.69-20.2 175.03-56.73 244.62-9.27 17.71-31.27 52.02-42.2 65.86-20.2 25.46-43.45 49.81-66.55 69.73-15.63 13.42-38.74 30.99-45.11 34.18-7.89 4.02-17.16 3.75-25.32-.96m15.64-2.21c-1.25-.28-3.18-.28-4.43 0s-.28.55 2.21.55c2.35 0 3.32-.28 2.22-.55m-49.95-31.55c0-.28-.97-1.25-2.21-2.21-1.94-1.52-2.08-1.52-.42.42 1.66 2.21 2.63 2.76 2.63 1.79m-7.47-6.36c0-.28-1.52-1.8-3.46-3.46l-3.46-3.04 3.04 3.46c2.91 3.31 3.88 4.01 3.88 3.04m-17.58-16.75c-4.43-4.57-8.3-8.3-8.72-8.3-.28 0 3.04 3.74 7.47 8.3s8.3 8.3 8.72 8.3c.28.01-3.04-3.73-7.47-8.3m-18.81-19.23c-4.43-4.57-8.3-8.3-8.72-8.3-.28 0 3.04 3.74 7.47 8.3s8.3 8.3 8.72 8.3c.27 0-3.05-3.73-7.47-8.3m-11.35-12.59c0-.28-1.52-1.8-3.46-3.46l-3.46-3.04 3.04 3.46c2.91 3.32 3.88 4.15 3.88 3.04m-7.47-8.99c0-.28-1.25-1.52-2.77-2.91l-2.77-2.49 2.35 2.91c2.22 2.77 3.19 3.6 3.19 2.49m-4.98-6.37c0-.28-1.25-1.52-2.77-2.91l-2.77-2.49 2.35 2.91c2.22 2.77 3.19 3.6 3.19 2.49m-4.98-6.36c0-.28-.97-1.25-2.21-2.21-1.94-1.52-2.08-1.52-.42.42 1.52 2.2 2.63 2.76 2.63 1.79m-3.88-5.12c0-.28-.97-1.25-2.21-2.21-1.94-1.52-2.08-1.52-.42.42 1.66 2.21 2.63 2.9 2.63 1.79m-3.73-5.12c0-.28-.97-1.25-2.21-2.21-1.94-1.52-2.08-1.52-.42.42 1.66 2.21 2.63 2.9 2.63 1.79m-17.57-26.29c-.69-1.38-1.66-2.49-1.94-2.49s0 1.11.69 2.49 1.66 2.49 1.94 2.49c.41 0 .14-1.1-.69-2.49m-3.74-6.5c-.69-1.38-1.66-2.49-1.94-2.49s0 1.11.69 2.49 1.66 2.49 1.94 2.49c.42.14 0-.97-.69-2.49m-3.74-6.37c-.69-1.38-1.66-2.49-1.94-2.49s0 1.11.69 2.49 1.66 2.49 1.94 2.49c.42.14.01-1.1-.69-2.49m-11.62-22.27c-3.6-7.33-6.78-13.14-6.92-12.87-.55.55 12.04 26.29 12.87 26.29.42 0-2.35-6.09-5.95-13.42M82.96 299c-1.52-2.63-1.8-1.8-.69 1.38.42 1.11 1.11 1.8 1.38 1.52.42-.27 0-1.65-.69-2.9M203.47 77.9c-.97-.42-1.94-.28-2.35.14-.42.42.28.69 1.66.69s1.66-.41.69-.83M45.6 53.83c.42-1.11.28-1.66-.55-1.25-.69.42-1.25 1.38-1.25 1.94.14 1.94.97 1.52 1.8-.69m427.26.83c0-.69-1.11-2.49-2.63-4.15l-2.63-3.04 2.21 4.15c2.36 4.42 3.05 4.98 3.05 3.04M175.8 35.84c-.97-.42-1.94-.28-2.35.14-.42.42.28.69 1.66.69 1.38-.14 1.66-.41.69-.83m54.38-1.66c1.25-1.38 1.94-2.49 1.66-2.49s-1.66 1.11-2.91 2.49-1.94 2.49-1.66 2.49 1.66-1.1 2.91-2.49m-31.83-.97c-.97-.42-1.94-.28-2.35.14-.42.42.28.69 1.66.69 1.38-.14 1.8-.41.69-.83M348.89 9c-.97-.42-1.94-.28-2.35.14-.42.42.28.69 1.66.69 1.38-.14 1.66-.42.69-.83m-10.1-1.25c-.97-.42-1.94-.28-2.35.14-.42.42.28.69 1.66.69 1.52-.13 1.8-.55.69-.83m-9.82-1.38c-.83-.42-2.21-.42-3.18 0-.83.42-.14.69 1.52.69s2.49-.27 1.66-.69M204.72 5.13c-.97-.42-1.94-.28-2.35.14-.42.42.28.69 1.66.69 1.38-.14 1.66-.42.69-.83m109.72 0c-1.25-.28-2.91-.28-3.74 0-.83.42.14.55 2.21.55s2.77-.28 1.53-.55m-85.92-1.39c-2.21-.28-5.67-.28-7.47 0-1.94.28 0 .55 4.15.55 4.01.01 5.67-.13 3.32-.55m66.55 0c-2.21-.28-5.67-.28-7.47 0-1.94.28 0 .55 4.15.55 4.01.01 5.53-.13 3.32-.55" style="fill:#f7de9f" transform="translate(-2.312 3.854)"/><path d="M246.5 504.88c-22.41-12.04-74.85-59.5-102.25-92.56C74.94 328.06 40.34 226.5 35.64 92.98c-1.11-33.07.97-41.65 13.28-52.85C64.7 25.74 126.68 7.75 181.89 1.67 284.41-9.68 382.79.98 453.07 31c19.65 8.44 27.26 19.51 28.36 41.37.69 14.39-1.52 57.28-4.15 80.39-16.19 142.1-74.44 249.6-181.11 333.73-22.41 17.71-27.67 20.75-36.25 21.31-5.81.27-8.44-.29-13.42-2.92m29.06-9.54c40.54-28.09 82.32-69.6 112.63-111.8 39.99-55.9 66.41-122.17 79.56-199.93 7.75-45.52 11.07-111.24 6.36-127.15-2.77-9.27-11.21-16.05-29.61-23.38C390.95 11.63 317.48.56 242.77 2.64c-68.07 1.94-123 11.76-170.05 30.44-13.42 5.4-16.88 7.33-22.69 13.01-6.78 6.5-6.92 6.92-8.44 16.88-1.8 11.9-.14 57.7 3.18 87.44C61.1 295 120.45 402.92 230.45 487.32c17.3 13.28 21.58 15.63 28.36 15.63 4.85 0 7.06-.97 16.75-7.61m-29.75 1.1c-5.81-3.6-22.28-16.33-35.14-27.12C142.46 411.91 95.41 341.9 68.29 257.63c-10.38-32.38-18.26-70.43-22.55-109.86-2.08-19.09-4.57-73.75-3.6-79.83 1.52-9.69 1.52-9.69 4.43-8.16 4.01 2.21 5.81-.42 3.18-4.57-1.66-2.49-1.8-3.87-.69-5.81 6.92-13 69.74-33.07 126.05-40.12 27.26-3.46 48.56-4.57 83.57-4.57 67.52 0 118.44 7.19 167.28 23.52 22 7.47 35.42 13.28 38.88 17.3 2.21 2.49 2.21 2.77.14 6.36-2.77 4.7-1.8 6.36 3.6 6.36 4.57 0 4.43-.14 6.09 9.96.97 6.23-1.52 61.99-3.74 81.91-10.24 92.29-39.02 171.01-86.34 235.9-27.81 38.33-70.7 80.53-108.47 106.95l-8.99 6.36-2.08-2.91c-1.66-2.49-2.77-2.77-7.19-2.21-2.77.42-5.67 1.52-6.5 2.63-1.12 1.96-1.81 1.82-5.55-.4m-26.98-158.97c2.21-2.21 2.63-5.67.69-5.67-.69 0-1.25.55-1.25 1.25s-1.38 1.66-3.18 2.08c-3.18.83-3.87 1.94-2.35 3.46 1.52 1.51 4.01.95 6.09-1.12m-33.21-16.61c0-.28-.55-.55-1.25-.55s-1.25.55-1.25 1.38c0 .69.55.97 1.25.55.7-.41 1.25-1.1 1.25-1.38m87.59-10.79c-2.08-3.46-4.01-6.36-4.29-6.36s1.11 3.04 2.91 6.78 3.74 6.64 4.29 6.36-.7-3.32-2.91-6.78m20.89-21.72c.42-.69-.42-1.11-2.08-.97-2.21.28-3.04-.55-3.74-3.46-.83-3.6-.83-3.6-.97-.55-.13 4.84 4.71 8.44 6.79 4.98m-28.37-19.65c5.67-1.11 7.61-2.91 7.61-7.06 0-3.74-3.6-10.1-3.74-6.36 0 1.11-2.49 4.43-5.53 7.47s-5.81 6.64-6.23 8.02c-.55 2.21-.42 2.35 1.52.69 1.12-1.1 4.02-2.34 6.37-2.76m40.27-2.07c-8.3-1.11-11.21-2.49-15.5-7.75-5.4-6.5-3.87-13.97 3.46-17.3l4.01-1.8h-4.43c-13.14-.14-13.42 18.4-.28 25.32 3.32 1.8 7.06 2.49 12.31 2.49l7.47-.14zm35-12.18c0-1.38-.42-1.8-.69-.97-.42.83-1.66 1.66-3.04 1.66s-2.35.42-2.35.97 1.38.97 3.18.97c2.21 0 3.04-.69 2.9-2.63m-133.52-7.33c2.08-3.32 5.12-6.36 6.78-6.78 3.46-.97 11.9 1.52 16.74 4.98 4.98 3.46 11.35 4.29 13.42 1.66.97-1.11 3.18-2.08 4.98-2.08 3.18 0 3.18-.14.83-1.94-1.52-1.11-5.26-1.94-10.1-1.94-9.27 0-13.28-1.94-15.77-7.47l-1.94-4.15-2.35 2.63c-3.32 3.74-7.33 2.91-8.16-1.94l-.69-3.87-3.87 5.81c-5.53 8.16-8.02 13.42-8.02 17.02.13 6.79 3.04 6.09 8.15-1.93m75.69-14.94c1.25-.28-.14-8.72-2.21-12.73-1.94-3.74-3.46-5.12-6.64-5.81-12.31-2.49-15.36-6.23-14.25-17.71.83-8.72.83-8.99-5.95-13.97-2.63-1.94-5.4-4.98-6.23-6.64-1.8-4.01-3.6-3.87-12.18.97-10.1 5.67-11.07 7.61-6.5 13.56 2.08 2.63 4.01 7.19 4.57 10.24.42 3.04 1.52 5.4 2.49 5.4 2.35 0 4.43 5.81 4.43 11.9 0 4.57.83 6.36 5.53 11.76l5.53 6.36 15.5-1.52c8.57-.98 15.63-1.68 15.91-1.81m27.12-9.69c-1.66-4.57-4.84-15.08-6.92-23.38-2.21-8.72-6.23-19.92-9.55-26.7-5.4-11.21-7.06-13.14-8.44-10.79-.83 1.38 5.81 17.85 10.52 26.29 1.94 3.6 5.12 12.45 6.92 19.92 1.94 7.75 4.7 15.5 6.5 18.26 1.8 2.63 3.46 4.84 3.6 4.84.27-.14-.83-3.87-2.63-8.44m-29.61-66.14c-6.5-5.4-3.18-9.41 4.7-5.67 2.49 1.11 3.18 2.21 2.77 4.57-.42 1.94-.14 2.63.69 1.8 2.21-2.35.42-5.95-4.15-8.3-8.16-4.15-12.45.69-5.95 6.92 2.21 2.08 4.29 3.74 4.7 3.6.28-.01-.96-1.39-2.76-2.92m52.3-7.88c.97-2.49 1.8-5.81 1.8-7.33 0-3.87-4.15-10.65-7.75-12.59l-2.91-1.52 2.63 3.04c5.81 6.64 6.92 12.45 3.6 19.09-1.25 2.35-1.38 3.74-.55 3.74s2.21-1.94 3.18-4.43m-92.01-30.03c-5.53-3.46-5.12-8.16.97-12.45 3.46-2.35 5.67-2.91 10.93-2.63 4.43.28 6.64-.14 6.64-1.11 0-.83 2.63-2.35 5.95-3.46l5.95-1.94-7.47.69c-11.48.97-19.65 3.74-25.04 8.44-4.15 3.6-4.7 4.84-4.01 7.61.42 1.94 2.35 4.29 4.29 5.26 5.25 2.91 6.63 2.5 1.79-.41M76.32 86.76c-.42-25.04-.42-25.18 2.35-26.43 4.15-1.94 3.46-3.32-.97-1.8l-3.74 1.38v26.01c0 17.99.42 26.01 1.38 26.01.98.15 1.26-7.46.98-25.17m206.85 24.21c1.25-.83 1.11-1.25-.69-1.66-1.25-.28-3.04.14-3.87 1.11-1.25 1.38-1.11 1.66.69 1.66 1.24 0 3.04-.55 3.87-1.11m155.52-51.19c1.94.69 2.91.83 2.21.14s-2.49-1.66-4.01-2.08l-2.77-.83.28 26.57.28 26.57.42-25.87.42-25.87zM98.46 97.69c.83-.83.14-.97-1.94-.28-4.84 1.52-11.35 4.29-11.35 4.98.14.83 11.9-3.32 13.29-4.7m12.03-24.49c5.4-23.52 5.53-24.21 9.27-25.87l3.74-1.66h-3.32c-1.8 0-3.87.69-4.57 1.52-1.25 1.52-12.87 50.64-12.73 53.68.28 3.32 2.36-4.43 7.61-27.67M415.3 95.89c-1.52-2.63-1.8-1.8-.69 1.38.42 1.11 1.11 1.8 1.38 1.52s0-1.65-.69-2.9m-17.15-48.7c1.66.28 2.77.14 2.35-.55-.42-.55-2.08-1.11-3.74-1.11h-3.04L394 71.4l.28 25.87.42-25.32.42-25.32zM127.24 89.8c-.42-2.63-1.11-4.43-1.52-4.01-.28.42-.28 2.77.28 5.26.42 2.63 1.11 4.43 1.52 4.01.27-.41.13-2.77-.28-5.26m16.18-22.69c.28-24.63.28-24.77 3.04-25.18 1.52-.28 2.77-.97 2.77-1.8s-1.25-.97-2.77-.55-3.18.83-3.74.83-.97 11.9-.97 26.43.28 26.01.69 25.74c.43-.43.85-11.77.98-25.47m237.57-24.35c3.18-.55 3.04-.55-.69-.69l-4.01-.14.28 25.87.28 25.87.42-25.18.42-25.18zM156.84 78.18c-1.8-5.26-3.46-9.27-3.6-8.99-.28.28.83 5.12 2.49 10.65 1.52 5.67 3.18 9.69 3.6 8.99.42-.55-.69-5.39-2.49-10.65m202.7-5.4c-.28-3.32-.42-.55-.42 6.09s.28 9.41.42 6.09c.28-3.46.28-8.86 0-12.18m-187.75 1.39c0-7.47-.14-13.42-.42-13.14-1.11 1.25-1.66 26.7-.69 26.7.69 0 1.11-6.09 1.11-13.56m17.57-13.84V35.57l5.67-.83c3.04-.42 7.61-.69 10.1-.28 2.49.28 3.87 0 3.32-.55s-5.53-.97-10.93-.69l-9.96.42-.28 26.57c-.28 17.85.14 26.29.97 25.74.69-.57 1.11-10.12 1.11-25.62m151.5-23.8 3.46-.14-3.18-.97c-1.66-.55-3.6-.69-4.01-.42-.55.28-.83 12.18-.69 26.29l.28 25.74.42-25.18.42-25.18zm80.25 17.16c3.32.69 3.32.69-.42-.97l-3.74-1.8-.69 15.5c-.28 8.58-.28 16.33 0 17.43.28 1.11.83-5.53.97-14.53l.42-16.46zM229.07 78.73c-3.87-4.7-5.12-10.38-4.98-22.55.14-10.38 3.04-19.79 7.06-22.69 1.52-1.11 4.98-1.94 7.75-1.94 4.15 0 4.7-.28 2.77-1.38-3.18-1.8-8.3-.28-12.45 3.74-8.86 8.58-9.69 36.53-1.52 45.66 4.14 4.42 5.24 3.87 1.37-.84m44.27-47.04c5.4.28 9.27 0 8.44-.55s-5.53-.97-10.52-.97h-9.13l.28 26.57.28 26.57.42-26.01.42-26.01zM281.51 75c-1.11-3.6-2.35-6.23-2.77-5.95-.28.42.28 3.6 1.52 7.19 1.11 3.6 2.35 6.23 2.77 5.95.41-.41-.28-3.59-1.52-7.19m-74.44 1.8c2.91-2.77 3.18-10.52.42-13.97-1.94-2.35-1.94-2.35-.69.28 3.32 6.92.14 14.39-6.09 14.53-1.8 0-4.15.69-5.12 1.38-1.38.97-.55 1.25 3.6.69 3.04-.42 6.5-1.67 7.88-2.91m94.36-.83c-2.77-5.53-3.74-23.38-1.66-30.99 2.21-7.89 7.61-12.45 13.84-11.9 2.63.28 4.43 0 4.15-.55s-2.91-.97-5.67-.97c-6.23 0-11.48 4.84-13.56 12.18-2.21 8.3-1.66 24.63 1.11 30.85 1.38 3.04 2.77 5.4 3.18 5.4.41.13-.28-1.81-1.39-4.02m-178.76 1.8c1.38-.83 1.25-2.21-.28-7.33l-1.94-6.23.69 5.81c.69 5.26.42 5.95-2.21 7.19-2.63 1.25-2.63 1.38-.42 1.52 1.39 0 3.33-.41 4.16-.96m197.03-1.39c.69-1.38 1.25-3.18 1.25-4.15s-.69-.28-1.66 1.52c-1.25 2.63-2.49 3.18-6.23 3.04-2.49-.14-4.29.42-3.87.97 1.37 2.22 9.26 1.11 10.51-1.38m-74.86-3.87c1.52-3.18 2.21-7.61 2.21-15.36 0-13.7-2.49-19.65-8.3-20.2-2.35-.28-4.57.42-5.4 1.52-1.38 1.66-1.11 1.66 2.35.42 3.6-1.38 4.15-1.25 6.23 1.38 4.57 5.67 4.98 26.29.55 33.07-1.66 2.49-2.91 3.18-5.67 2.77-1.94-.28-3.32 0-2.91.55.42.55 2.49.97 4.7.69 3.2-.41 4.58-1.38 6.24-4.84m-73.47-34.59c.55-.55 2.21-1.25 3.6-1.66 1.66-.42 1.25-.69-1.38-.83l-3.87-.14-3.87 13.7c-2.21 7.61-3.87 14.53-3.87 15.63s1.94-4.29 4.29-11.9c2.2-7.47 4.55-14.25 5.1-14.8m150.12 21.44 6.5-.42-7.19-.28c-7.06-.28-7.19-.14-7.06 3.32.14 2.91.28 3.04.69.69.42-2.48 1.53-2.89 7.06-3.31m-107.64.42c-.42-.69-1.38-1.38-2.21-1.38s-.69.69.28 1.94c1.79 2.07 3.31 1.65 1.93-.56m146.11-10.52V38.89l3.46.83c2.49.55 2.91.42 1.52-.42-.97-.69-2.91-1.25-4.01-1.38-1.94 0-2.21 1.25-2.21 10.24V58.4l-6.64-.55c-5.12-.42-5.67-.28-2.21.42 10.36 2.34 10.09 2.62 10.09-9.01m-154.14 4.15c3.6-2.91 3.87-9.69.55-12.73-2.08-1.94-2.21-1.94-.69 0 2.08 2.77 1.38 10.1-1.11 11.35-.97.55-3.87 1.52-6.23 2.21l-4.43 1.25 4.57.14c2.64.14 5.55-.69 7.34-2.22m76.38-1.38c3.04-3.04 3.32-9.27.55-12.04-2.91-2.91-3.46-2.49-1.25.83 4.43 6.36 1.66 11.07-7.19 12.59l-5.26.83 5.4.14c3.74.14 5.95-.55 7.75-2.35m37.08-8.58c-.42-.42-.69.28-.69 1.66 0 1.52.42 1.8.69.83.55-.97.42-2.07 0-2.49" style="fill:#f9ce5c" transform="translate(-2.312 3.854)"/><path d="M247.75 505.16c-15.08-7.33-54.51-40.54-80.94-68.07C95 361.96 54.87 272.99 40.21 156.22c-1.94-15.5-4.98-62.26-4.98-76.79 0-23.66 7.33-38.19 23.52-45.94 17.3-8.44 52.02-19.23 78.59-24.63C183.69-.55 248.72-4.7 297.83-1.52c55.07 3.74 96.44 11.48 136.42 25.46 28.5 10.1 37.08 15.77 43.45 29.47 3.18 6.92 3.32 7.19 3.04 35.14-.97 114.56-30.72 215.7-87.17 296.09-26.57 37.77-64.06 76.38-104.6 107.37-21.71 16.33-29.46 18.96-41.22 13.15m27.25-8.99c29.61-20.06 76.1-63.92 99.34-93.53 24.9-31.68 51.33-77.48 64.61-111.8 20.34-52.72 31.82-106.68 36.39-171.84 1.52-21.72 1.66-51.89.14-58.39-.69-3.18-.69-4.84.28-5.26 1.8-.69-2.35-7.33-4.57-7.33-.83 0-3.04-1.52-4.7-3.32-11.76-12.87-72.5-30.99-127.85-38.05C298.39 1.53 230.87.84 190.6 5.26 128.9 12.04 63.04 30.72 49.62 45.39c-1.94 2.21-4.01 3.74-4.57 3.32-6.5-4.15-6.36 56.59.14 109.3 14.39 115.53 55.62 204.91 129.09 279.9 25.87 26.43 57.42 52.99 74.3 62.68 9.13 5.12 13.28 4.43 26.42-4.42m-23.65-6.37c-2.91-1.66-10.93-7.61-18.13-13.01-7.06-5.53-13.7-9.96-14.53-9.96-.97 0-3.46-1.66-5.67-3.74l-4.15-3.74 4.7 3.46c6.36 4.57 5.95 3.32-.55-1.94-2.91-2.35-4.84-3.6-4.29-2.77 2.08 3.46-1.52 1.11-6.23-3.87-2.77-2.91-3.6-4.29-1.8-2.91 1.66 1.38-6.23-7.19-17.57-19.23-20.06-21.03-39.29-44.28-51.89-62.54-7.19-10.52-9.13-12.73-7.06-8.3l1.52 3.18-2.63-3.18c-1.38-1.8-2.35-3.87-1.94-4.84.28-.97 0-1.38-.55-.97-1.25.83-5.4-6.23-4.29-7.33.28-.42-2.21-5.81-5.53-12.18-8.99-16.88-15.91-31.82-23.94-51.61-3.87-9.69-7.47-17.16-7.89-16.74s-.42-.55-.14-2.21c.42-1.94.28-2.49-.42-1.38-1.52 2.21-5.81-10.24-4.7-13.97.69-2.35.55-2.63-.55-.97-1.11 1.52-1.25.97-.69-2.49.55-3.6.42-4.01-.69-2.49-1.25 1.66-1.38 1.52-.69-.42.42-1.25-.69-7.89-2.35-14.67-8.16-32.93-16.6-91.59-17.02-117.74 0-4.01-.42-4.98-1.11-3.32-.83 2.35-.97 2.21-1.8-.69-.42-1.66-.83-6.09-.83-9.82 0-10.1-2.49-8.86-4.15 2.21-.28 1.8-.55-5.4-.69-15.91-.14-10.52.28-19.79.83-20.48s2.63-1.25 4.7-1.25c4.57 0 5.4-2.77 2.77-8.3-1.8-3.6-1.66-4.01 1.52-7.19C56.1 43.17 68 36.94 74.37 35.28c3.04-.83 3.04-.83-.28 1.11-1.94 1.11-3.46 2.63-3.46 3.18 0 1.52 0 1.52 6.23-.69 6.36-2.35 8.02-2.35 6.78-.55-.55.97 0 1.11 1.52.69 26.98-8.72 50.09-14.39 74.44-18.68 11.48-1.94 19.65-3.87 18.13-4.29-1.38-.42.28-.42 3.74-.14 4.84.55 5.81.28 4.43-.83s-.28-1.25 4.98-.83c3.74.28 19.09.14 33.9-.42 49.95-2.08 70.84-2.49 69.32-1.52-.83.55 6.78 1.66 17.02 2.63 22.69 1.94 57.42 6.92 76.1 11.07 7.61 1.66 15.36 2.77 17.02 2.35 2.49-.55 2.63-.42 1.11.83s-1.38 1.38.83.69c3.18-.97 9.41.42 8.58 1.94-.28.55.55.69 2.08.28 1.94-.55 2.49-.28 1.66.83-.69 1.25-.28 1.38 1.8.69 1.8-.55 2.49-.42 2.08.42-.42.69 2.08 2.21 5.81 3.46 12.45 4.15 26.7 10.93 30.16 14.39 7.47 7.19 7.75 8.72 7.47 36.94-.28 22-2.63 61.02-4.84 76.93-.69 4.98-.28 4.15 3.46-7.61 1.38-4.57 3.04-8.99 3.74-9.69.55-.83 1.66-4.57 2.35-8.3 1.11-6.5 1.11-6.36.55 2.63-4.43 63.78-26.01 139.74-55.21 193.29-24.77 45.66-60.6 90.76-95.75 120.93l-8.16 6.92 5.67-6.36c3.18-3.46 6.64-8.44 7.75-10.93s3.87-6.92 6.09-9.55l4.15-4.98-4.29 3.87c-2.35 2.21-8.02 7.33-12.45 11.48-9.82 8.99-35.14 29.75-46.63 38.05-10.67 7.48-14.26 8.31-20.9 4.29m-31.83-151.64c5.26-5.4 2.08-9.27-4.01-4.84-2.21 1.66-4.29 3.04-4.57 3.18-.97.55 2.77 4.15 4.43 4.15.83.14 2.77-1.11 4.15-2.49m-33.07-19.23c.14-2.08-.28-3.74-.69-3.74-1.66 0-4.15 6.23-3.32 8.44 1.11 3.18 3.74.14 4.01-4.7m91.88-.69c2.35-1.11 2.49-1.66 1.11-2.63-.97-.55-2.91-3.04-4.43-5.53-3.32-5.53-7.89-10.65-8.72-9.69-.42.42 1.11 3.6 3.46 7.19 3.32 5.4 4.01 7.33 3.46 11.48-.69 5.53.55 8.3 1.66 3.6.27-1.66 1.8-3.59 3.46-4.42m66.55-2.08c0-.83-.55-2.35-1.11-3.32-1.38-2.21-3.18.42-2.21 3.04.96 2.22 3.32 2.49 3.32.28m-50.09-27.95c0-.55-1.11-1.66-2.49-2.49-1.38-.69-2.49-2.21-2.49-3.18s-.55-1.94-1.25-1.94c-2.21 0-1.38 7.47.83 8.72 2.22 1.38 5.4.69 5.4-1.11M196 270.5l.69-7.06-1.94 4.43c-1.11 2.49-2.21 7.33-2.35 10.79-.42 6.23-.42 6.36 1.25 2.49.83-1.93 1.94-6.77 2.35-10.65m65.86 8.03c.28-2.21 1.25-2.49 6.5-2.49 7.06.14 10.79-2.49 12.04-8.44.55-2.91.14-4.43-1.8-6.64-1.38-1.52-4.84-7.33-7.47-12.73-5.53-11.21-5.26-11.76 4.98-10.65 3.46.28 6.23.28 6.23-.28 0-1.66 6.36-3.87 11.35-3.87 3.6 0 5.4.69 6.5 2.49.83 1.38 2.35 2.49 3.46 2.49 1.52 0 1.38-.28-.28-1.38-3.87-2.35-2.35-3.87 1.8-1.66 3.04 1.66 3.6 2.35 2.21 3.18-1.25.83-.97 1.11 1.38 1.11 3.18 0 3.18 0-.97-3.87-3.18-2.91-5.26-3.74-9.13-3.74-2.77 0-6.23-.55-7.47-1.38-3.04-1.66-3.32-5.67-.42-4.57 1.11.42 3.46 1.11 5.4 1.52l3.32.69-3.18-2.77c-1.66-1.52-4.7-3.32-6.64-4.01-4.15-1.52-4.57-4.57-.69-5.95 2.63-.97 2.49-1.11-.97-1.8-2.35-.55-4.43-2.21-5.81-4.84-1.94-3.46-2.63-3.87-5.95-3.18-4.29.97-9.96-1.94-9.96-5.12 0-1.11 1.25-3.04 2.63-4.57l2.63-2.63-2.49-7.89c-2.35-7.47-2.77-8.02-9.41-11.21-10.24-5.12-10.65-9.27-1.38-15.77 5.67-3.87 10.1-4.01 16.74-.55 5.4 2.77 8.58 8.44 8.58 15.08 0 2.49 2.21 6.78 6.78 13.14 7.06 9.82 9.96 17.16 9.27 23.66-.28 3.04-1.11 3.87-4.15 4.29-3.32.55-3.04.69 1.94 1.25 4.7.55 5.95 1.38 7.61 4.57 2.63 5.26 8.72 13.14 8.72 11.21 0-.83-1.11-4.57-2.63-8.3-1.38-3.74-4.57-14.25-6.92-23.38-2.49-9.55-6.5-21.17-9.55-27.4-2.91-5.95-5.53-11.21-5.67-11.76-.28-.55.69-.97 2.21-.97 4.15 0 11.21 7.33 16.6 17.3 5.26 9.82 9.55 13.7 14.11 13.14 2.35-.28 2.77-1.11 2.49-5.67-.28-6.09-4.29-15.08-8.02-17.43-3.6-2.35-3.04-3.46 1.8-3.46 4.29 0 6.78-1.66 4.57-3.18-.69-.42-5.4-1.8-10.52-3.18s-15.08-5.12-22-8.3c-7.75-3.6-13.56-5.67-15.08-5.12-1.25.42-5.4 3.46-9.13 6.78-10.24 9.13-18.4 14.8-27.4 19.23-15.08 7.33-18.13 12.31-21.86 35.97-1.11 7.33-2.49 13.7-3.04 14.11-2.35 1.66-14.25 18.54-15.91 22.69-2.21 5.4-2.35 8.16-.42 12.45 1.8 4.01 6.5 4.29 8.99.55 2.91-4.29 5.81-2.21 4.98 3.32-.42 2.91-.28 4.57.69 4.57 2.21 0 6.5-4.84 8.44-9.69 2.35-5.81 4.7-6.5 10.52-3.18 6.09 3.46 13.01 3.6 17.3.14 1.8-1.38 3.6-2.21 4.15-1.94 1.38.83 3.04-1.94 3.04-5.12 0-3.46 3.87-4.01 5.53-.83.97 1.94.97 3.32-.14 5.12-2.21 3.6-.14 4.84 4.01 2.49l3.6-2.08.55 4.7c.42 4.15-.14 5.26-5.4 10.65-6.64 6.5-8.44 11.21-6.23 16.05 1.12 3.05 3.89 2.91 4.44-.96m-48.7-26.71c0-3.74 2.08-8.16 3.87-8.16s1.52 8.16-.28 9.96c-2.35 2.35-3.59 1.8-3.59-1.8m17.02-16.74c-1.11-1.11-2.63-3.46-3.18-5.12-1.66-4.43-4.57-4.98-8.16-1.66-3.74 3.6-5.12 2.63-3.32-2.21.69-1.94 1.94-8.99 2.77-15.63 2.35-18.82 7.75-22 12.04-6.92 1.11 3.74 2.77 7.75 3.74 8.72s1.8 4.15 1.8 6.92c0 4.15.97 6.23 4.98 11.07 2.77 3.18 4.98 6.09 4.98 6.5 0 .28-3.04.55-6.78.55-4.72 0-7.49-.7-8.87-2.22m50.08-80.25c-3.04-2.49-3.46-3.46-1.94-4.29 3.46-2.35 11.21 2.77 8.72 5.81-1.93 2.22-2.35 2.22-6.78-1.52m37.22 112.07c1.25-1.25-.28-1.52-7.61-1.52-13.7 0-20.2-4.57-20.2-14.11 0-10.52 13.14-13.42 16.46-3.6.69 2.08 1.8 3.74 2.49 3.74s.69-.97-.14-2.49c-2.08-4.01-1.52-5.12 2.77-5.4 3.04-.14 2.35-.42-2.63-1.25-3.74-.55-7.75-1.66-8.99-2.35-5.12-2.77-13.7-.97-17.16 3.74-4.43 5.81.69 17.99 9.69 22.83 4.84 2.63 7.06 3.04 14.67 2.63 5.12-.42 9.82-1.39 10.65-2.22m25.46-8.16c-.55-.83-.97-2.63-.97-4.01-.14-1.38-.97-2.91-1.94-3.18-1.11-.42-1.38 0-.83.83s-.14 1.38-1.52 1.38-2.77.83-3.18 1.94c-.55 1.38.14 1.94 2.91 1.94 2.08 0 4.01.55 4.43 1.25.42.69 1.11 1.25 1.38 1.25.27.12.13-.57-.28-1.4m-5.12-32.51c.97-2.49-.42-12.04-1.8-12.04-1.94 0-3.46 11.35-1.66 13.14 1.39 1.53 2.63 1.11 3.46-1.1m-129.64-7.06c2.77-4.29 4.98-8.44 4.98-9.27s-1.38 1.11-3.04 4.15-4.29 7.19-5.67 9.27-2.35 3.74-1.94 3.74 2.9-3.6 5.67-7.89m133.51-28.23c-.83-5.4-2.77-7.33-4.43-4.7-1.8 3.04-1.25 9.96 1.11 12.31 2.08 2.21 2.21 2.21 3.18-.28.56-1.38.56-4.7.14-7.33m-126.46 1.94c-.42-.42-.69.28-.69 1.66 0 1.52.42 1.8.69.83.42-.97.42-2.07 0-2.49m9.83-18.26c1.25-1.38 1.94-2.49 1.66-2.49s-1.66 1.11-2.91 2.49-1.94 2.49-1.66 2.49c.42.14 1.66-1.11 2.91-2.49m110.41-29.75c1.66-8.99-6.36-18.82-17.02-20.75-4.29-.83-4.29-.83 1.25 2.21 9.82 5.26 14.25 16.6 9.41 23.8-1.11 1.52-1.52 3.46-1.11 4.29 1.38 2.21 6.64-4.43 7.47-9.55m-75.27 6.78c1.25-1.38 1.94-2.49 1.66-2.49s-1.66 1.11-2.91 2.49-1.94 2.49-1.66 2.49c.42 0 1.66-1.11 2.91-2.49m8.16-7.06c.83-1.11 1.25-1.94.97-1.94s-1.38.83-2.21 1.94-1.25 1.94-.97 1.94c.41 0 1.38-.83 2.21-1.94m-21.86-24.35c-10.79-4.01-11.35-11.35-1.11-15.36 4.98-1.94 8.16-1.94 13.56.28 1.38.55 1.94.14 1.94-1.25 0-2.77 4.98-4.57 12.87-4.7 5.12-.14 5.81-.28 3.32-1.11-12.87-4.15-36.53 2.49-41.92 11.76l-2.35 4.01 4.57 4.29c3.6 3.32 5.67 4.29 9.27 4.15l4.7-.14zM76.46 86.62c0-21.31.28-25.46 1.94-26.01 1.66-.69 1.94 2.21 1.94 21.58 0 24.77-.42 23.66 8.72 20.34 6.09-2.21 7.47-2.35 7.47-.83 0 .55-4.29 2.63-9.41 4.57-5.26 1.94-9.27 3.74-8.99 4.01.28.28 4.7-1.11 9.96-3.04 8.44-3.04 9.55-3.87 9.96-7.06.55-3.87 0-3.87-8.99-.14-8.02 3.32-7.89 4.01-7.47-20.62.14-12.31.28-22.41.28-22.41-.14 0-1.94.69-4.01 1.38l-4.01 1.38v26.84c0 17.57.42 26.57 1.25 26.01.94-.4 1.36-10.5 1.36-26m208.09 24.35c1.25-.83.97-1.25-1.25-1.8-1.52-.42-3.18-.28-3.6.42-.42.55-2.63 1.38-5.12 1.66-3.46.42-3.18.55 1.94.69 3.47 0 7.06-.41 8.03-.97M435.5 84.41l-.42-25.04 3.46.83c4.15 1.11 2.49-1.11-1.8-2.49l-2.77-.83v26.29c0 14.39.42 26.29.97 26.29.42-.01.7-11.22.56-25.05m-24.35-.28c-4.29-10.65-8.02-19.09-8.3-18.82-.28.28 2.35 7.89 5.95 17.02 3.6 8.99 6.92 17.85 7.61 19.51s1.38 2.77 1.8 2.35c.41-.41-2.77-9.41-7.06-20.06m-300.1 10.38c1.25-8.02 1.66-8.86 5.4-9.82 1.8-.42 4.29-1.11 5.4-1.38 1.66-.55 2.35.83 3.46 6.36l1.38 7.06 3.87-1.38c4.43-1.52 4.7 1.38-3.04-29.19l-5.26-21.31-3.87.97c-3.6.97-4.01 1.66-5.95 10.93-1.25 5.4-4.01 17.99-6.23 27.95l-4.15 17.99 4.01-1.25c3.59-1.12 4.15-1.95 4.98-6.93m-4.02.27c-.42-1.11-.42-2.21-.14-2.63s.97.55 1.25 1.94c.83 3.05 0 3.6-1.11.69m.97-6.22c0-1.38.28-2.08.69-1.66.42.42.42 1.52.14 2.49-.55.97-.83.55-.83-.83m2.49-11.49c0-1.38.28-2.08.69-1.66.42.42.42 1.52.14 2.49-.55.97-.83.56-.83-.83m4.98-3.04c0-1.94.83-6.36 1.66-9.96l1.52-6.36 1.52 8.86c1.25 7.19 1.25 8.99-.14 9.82-3.03 2.07-4.69 1.24-4.56-2.36m-3.73-2.08c0-1.38.28-2.08.69-1.66s.42 1.52.14 2.49c-.42.97-.83.56-.83-.83m1.94-7.74c1.38-8.58 3.04-12.31 2.21-5.12-.42 3.46-1.25 7.19-1.94 8.3-.69 1.24-.83.14-.27-3.18m3.04-13.84c0-1.52.97-2.21 2.77-2.08 1.94 0 2.21.28.97.83-.97.42-2.35 1.38-2.77 2.08-.69.97-.97.55-.97-.83m279.63 21.58V47.19l3.46.55c2.63.42 3.04.28 1.52-.83-.97-.69-3.18-1.38-4.7-1.38h-2.77v25.6c0 16.19.42 25.6 1.25 25.6.68-.01 1.24-9.14 1.24-24.78M147.44 91.6c1.38 0 1.8-3.18 1.94-16.88.14-9.27.42-15.5.69-13.7.83 5.12 8.02 28.64 9.13 29.75.55.55 1.25-1.11 1.8-3.87.55-2.77 2.77-10.93 5.12-18.26l4.29-13.42-.69 16.74-.69 16.74 3.87-.55 3.87-.55.42-26.01.42-26.01h-4.01c-3.87 0-4.01.28-6.78 9.27-1.52 5.12-3.74 13.14-4.98 17.99l-2.21 8.72-4.57-14.67c-2.49-8.02-4.57-15.22-4.57-16.05 0-1.66-1.8-1.8-5.95-.69-2.77.83-2.77.83-2.77 26.98 0 23.38.28 26.15 1.94 25.46 1.1-.57 2.76-.99 3.73-.99m230.37-23.8-.42-25.04 3.18.83c1.8.42 3.18.28 3.18-.28 0-.69-1.66-1.38-3.74-1.66l-3.74-.55v26.01c0 14.25.42 26.01.97 26.01.43-.27.71-11.48.57-25.32m-18.27 3.05c-.28-3.74-.42-.69-.42 6.64s.14 10.38.42 6.64c.28-3.6.28-9.55 0-13.28m-154.96 13c6.78-1.8 10.24-6.36 10.93-14.53.55-6.09.14-7.33-2.49-10.1-3.04-3.04-3.04-3.18-.83-5.95 3.46-4.43 3.04-13.42-.83-17.43-2.91-2.91-3.87-3.18-13.42-2.77l-10.38.42-.28 26.29-.28 26.29 6.64-.55c3.47-.28 8.45-1.11 10.94-1.67m-10.24-14.66v-8.3h4.84c5.81 0 8.99 3.04 8.99 8.58 0 4.98-3.46 8.02-9.13 8.02h-4.57v-8.3zm.55-16.47c-.42-.97-.42-4.29-.28-7.33.42-4.98.69-5.67 3.74-5.95 5.4-.69 8.58 1.8 8.58 6.64s-1.52 6.5-7.19 7.61c-2.91.55-4.43.28-4.85-.97m143.76 8.72c0-24.49 0-25.04 2.49-24.35 1.38.42 2.49.28 2.49-.28 0-.97-4.15-2.49-6.64-2.63-.55 0-.97 11.76-.97 26.15 0 16.6.42 26.15 1.25 26.15s1.38-9.13 1.38-25.04m82.46-7.47c3.32.69 3.32.69-.42-1.11l-3.74-1.8-.42 14.8c-.28 13.28-.55 14.53-2.21 12.31s-1.8-2.08-.55 1.38c2.77 8.16 3.18 7.19 3.46-9.27l.42-16.88zM321.08 83.16c2.08-1.25 2.21-1.66.69-1.11-1.38.55-4.43 1.38-6.92 1.8-4.29.97-4.29.97-.69 1.11 2.08.14 5.12-.69 6.92-1.8m-76.79-1.8c4.98-3.18 7.61-8.99 8.58-19.51 1.94-21.72-7.75-36.8-20.06-30.85-6.36 3.04-9.96 11.07-10.65 23.66-1.25 22.97 8.71 35 22.13 26.7m-10.93-7.61c-5.12-5.26-5.26-27.12-.14-32.65 3.87-4.15 6.92-4.01 9.69.28 1.8 2.77 2.21 6.09 2.21 15.77 0 9.55-.55 13.01-2.21 15.77-2.5 4.02-6.23 4.29-9.55.83m56.31 7.61c0-.55-1.66-5.67-3.6-11.48l-3.6-10.38 2.91-1.94c6.78-4.43 6.5-19.09-.28-24.63-2.63-2.08-5.12-2.63-13.14-2.63h-9.82v52.3h3.18c3.04 0 3.18-.14 3.18-11.48V59.64h3.46c3.32 0 3.6.69 7.06 11.9 3.6 11.76 3.6 11.9 7.19 11.35 1.8-.28 3.46-.97 3.46-1.53m-5.4-.97c-.28-.55-2.08-5.67-3.87-11.48l-3.46-10.52h-4.98c-3.04 0-4.84-.55-4.84-1.66s2.35-1.66 6.92-1.8c3.87-.14 7.75-.83 8.58-1.66 4.7-3.87 3.04-13.84-2.63-16.46-3.74-1.66-11.35-1.94-12.31-.28-.42.69-.83 7.47-.97 15.36s-.55 13.84-.97 13.42-.97-7.89-1.38-16.6l-.69-15.91h8.86c10.24 0 13.56 1.8 15.63 8.3 1.94 6.09.55 11.48-3.87 15.08l-3.74 2.91 3.74 11.07c2.77 8.44 3.32 11.07 1.94 11.07-.57.13-1.68-.28-1.96-.84m-15.35-28.91c-.42-.97-.55-4.57-.28-8.02.42-5.95.55-6.23 4.43-6.64 8.16-.83 13.84 9.96 7.61 14.39-3.46 2.62-10.93 2.76-11.76.27m37.22 29.19c-4.84-4.15-6.92-10.52-6.92-22.28-.14-12.73 3.04-21.31 8.58-23.66 5.67-2.49 12.45-.14 15.5 5.12.83 1.38 1.38 1.8 1.52.83 0-.97-1.66-3.32-3.6-5.4-2.77-2.91-4.84-3.74-8.58-3.74-10.93 0-15.77 9.27-15.08 28.36.55 13.14 3.18 20.89 7.89 22.83 4.42 1.81 4.7 1.26.69-2.06M319 78.32c4.43-4.43 3.6-14.8-1.11-14.8-.97 0-1.66-.97-1.66-2.08 0-1.38.69-1.8 1.94-1.25 1.11.42 3.32.83 4.98.83 2.63 0 3.04.69 3.46 6.64l.42 6.64.28-8.02.28-8.02h-6.92c-6.5 0-6.92.14-6.92 3.04 0 2.49.69 3.18 3.46 3.46 3.04.42 3.46.83 3.04 4.29-.69 5.67-2.49 8.3-5.53 8.3-4.7 0-8.3-4.01-9.55-10.24-.69-3.87-1.11-4.7-1.25-2.35-.69 10.79 9.27 19.37 15.08 13.56m6.78-1.38c-.42-.42-1.11.28-1.52 1.52-.69 1.8-.55 1.94.69.69.83-.83 1.25-1.94.83-2.21m34.18-26.99c0-9.41 0-9.55 3.18-9.55 1.8 0 2.91-.55 2.49-1.25-.42-.69-2.21-1.25-3.87-1.25-3.04 0-3.04.28-3.04 10.24 0 7.33-.42 10.24-1.52 10.1-.83 0-4.29-.55-7.47-1.11-3.32-.55-5.95-.55-5.95 0s2.63 1.38 5.95 1.8 6.5.97 7.19 1.25c2.48.84 3.04-.96 3.04-10.23m-54.65-2.21c.42-2.63 1.94-5.95 3.18-7.33 1.38-1.38 1.94-2.49 1.25-2.49-2.21 0-5.26 6.23-5.81 11.76-.56 6.36.27 5.26 1.38-1.94m15.77-1.38c0-1.66-3.04-7.06-4.29-7.47-.97-.42-.83.83.42 3.74 1.66 3.45 3.87 5.66 3.87 3.73m4.98-1.94c0-.69-.83-.97-1.94-.55-.97.42-1.94.97-1.94 1.25s.83.55 1.94.55 1.94-.56 1.94-1.25M68.43 40.68c-.42-.42-1.38 0-2.21.83-1.25 1.25-1.11 1.38.69.69 1.25-.41 1.94-1.1 1.52-1.52" style="fill:#d8a016" transform="translate(-2.312 3.854)"/><path d="M255.36 506.96c-4.7-.69-7.89-2.21-14.67-7.19-23.11-16.88-42.2-32.51-59.36-48.7-6.5-6.23-21.03-21.03-26.01-26.84-20.75-23.66-37.91-47.87-58.94-83.15-4.7-7.75-10.24-19.37-17.99-36.94C53.35 247 40.2 189.3 36.33 118.88c-.69-13.7-.97-24.21-.97-39.85 0-12.87.14-14.39.69-17.71 1.11-6.36 3.46-12.45 6.09-16.6 3.32-5.12 12.45-12.31 19.79-15.77 10.38-4.84 35.56-12.45 58.25-17.57 6.23-1.38 18.26-3.87 22.41-4.57 1.25-.28 3.74-.69 5.67-.97 1.94-.28 4.43-.69 5.67-.97 1.25-.14 3.18-.55 4.43-.83s3.46-.69 4.98-.83 4.84-.69 7.19-.97 4.98-.69 5.81-.83c7.61-.97 10.1-1.25 15.08-1.8 25.6-2.77 59.5-4.15 83.98-3.18 10.79.42 35.14 1.8 37.08 2.08.55.14 2.91.28 5.4.42 2.35.14 6.36.55 8.72.83 2.35.28 6.36.69 8.58.97 10.93 1.25 20.48 2.49 24.49 3.18 1.52.28 5.4.83 8.58 1.38 34.59 5.53 63.09 13.7 84.4 23.8 9.27 4.43 12.87 6.92 17.3 11.76 5.26 5.67 8.3 11.62 9.96 18.96 1.38 6.36.83 45.66-1.11 70.7-2.63 34.18-6.92 62.95-14.25 92.98-7.89 32.51-18.4 62.26-33.76 95.19-5.26 11.21-6.64 13.84-10.93 21.31-2.35 4.01-4.29 7.33-4.43 7.47s-.55.97-1.11 1.8c-.55.83-1.11 1.66-1.38 2.08-.14.42-.97 1.66-1.66 2.91s-1.38 2.35-1.52 2.49c0 .14-.28.42-.28.42s-.83 1.11-1.52 2.35c-.69 1.25-1.94 3.04-2.63 4.01s-1.25 1.94-1.25 2.08-.14.42-.28.42c-.28.14-1.94 2.77-1.94 3.04 0 .14-.28.42-.42.42-.28.14-.42.28-.42.55s-.83 1.52-1.66 2.91c-.97 1.38-1.66 2.63-1.66 2.91 0 .14-.28.42-.42.55-.28.14-.42.42-.42.69s-.14.55-.28.55-.42.42-.69.83c-.28.42-.55.97-.69 1.25-1.11 1.38-2.35 3.18-4.57 6.5-2.21 3.18-4.57 6.5-7.75 10.93-28.23 38.19-57.83 66.83-104.19 101.14-6.78 4.98-9.96 6.78-13.84 7.75-3.27.92-7.14 1.2-9.49.92m8.02-2.91c3.87-.97 7.19-2.77 13.42-7.33C336.02 453 369.23 417.44 407 356.98c10.1-16.19 15.08-24.9 19.09-33.48 10.93-23.24 18.96-42.75 25.46-62.26 15.77-47.6 24.35-97.96 26.43-156.35.55-13.7.42-40.26-.14-43.58-1.52-8.99-6.92-17.57-14.94-23.52-2.91-2.21-13.14-7.47-19.79-10.1-19.64-8.17-41.92-14.12-71.11-19.24-17.16-3.04-39.43-5.81-61.02-7.47-2.21-.14-4.84-.42-5.81-.55-2.91-.28-16.74-1.11-24.63-1.52-15.08-.69-42.48-.28-61.71.83C168.61 2.77 113.68 12.87 75.9 25.88c-10.38 3.6-14.11 5.26-19.51 8.72-8.72 5.81-12.73 10.1-15.5 17.16-3.32 8.16-4.01 15.08-3.46 39.85.69 31.41 2.49 55.76 6.09 81.49 7.19 50.92 19.92 93.95 41.65 140.99 8.44 18.26 10.79 22.69 24.21 44.28 3.32 5.26 12.31 18.96 16.05 24.21 25.32 36.11 49.67 62.26 86.2 91.87 9.41 7.75 31.96 24.77 35.84 27.12 1.38.83 4.98 2.21 6.78 2.63 2.35.68 6.5.55 9.13-.15m-8.44-12.86c-1.94-.55-6.23-3.6-15.22-10.65-54.79-43.03-85.65-76.79-116.64-127.15-4.15-6.78-9.69-16.19-13.42-22.83-3.74-6.64-15.5-31.68-21.45-45.38-20.89-48.43-32.38-98.79-35.97-157.32-1.25-20.62-1.38-48.7-.42-54.65 1.11-6.5 3.32-12.18 6.23-16.46 3.18-4.84 8.99-9.55 14.53-11.76 11.35-4.7 36.94-12.18 58.94-17.02C169.71 19.53 205.4 15.1 245.39 14c11.07-.28 30.16-.28 34.04.14.69.14 3.32.28 5.95.28 24.77.97 58.11 4.57 81.91 8.86 29.47 5.26 51.89 11.9 71.12 21.03 3.04 1.38 6.5 3.18 7.89 3.74 10.65 4.98 15.5 12.73 17.02 27.26.83 7.06-1.11 42.34-3.6 67.1-7.06 70.29-21.31 121.62-48.01 173.5-10.79 21.03-28.09 49.67-41.09 68.21-22.41 31.96-44 54.24-87.72 90.21-.83.69-4.57 3.74-8.16 6.78-3.6 3.04-7.47 6.09-8.72 6.92-3.88 3.02-7.9 3.99-11.08 3.16M173.59 376.9c3.87-1.8 5.12-4.57 5.67-12.04.28-4.98 1.25-6.92 3.74-7.47l1.25-.28-.14-3.04c-.28-4.57-.14-11.21.14-12.18.14-.42 1.66-2.77 3.46-4.98 4.15-5.26 6.78-8.99 7.47-10.93.28-.83.83-3.6 1.25-6.09.69-5.12.42-4.43 6.09-13.84 1.66-2.77 4.15-7.47 5.67-10.38 1.52-3.18 3.04-5.81 3.74-6.5s1.52-1.66 1.8-2.08c.42-.42.83-.69.97-.69.69 0 2.49 2.08 3.18 3.46s.69 1.8.69 8.99c0 7.47 0 7.47.69 8.02.42.28 1.11.55 1.52.55.69 0 .69 0-.14-.97-1.25-1.38-1.52-3.32-1.38-8.72.14-4.29.14-4.84-.55-6.78-.42-1.11-.69-2.63-.55-3.18.14-.97.14-1.11 1.52-1.11 1.66-.14 2.35-.69 3.18-2.35.55-1.25.69-2.21.69-4.01 0-.83-.28-1.11-1.66-1.94-2.08-1.25-2.77-2.08-3.18-4.7-.42-3.04-.14-12.59.55-14.8.55-1.94.83-1.94 3.04-.42s8.86 4.43 12.18 5.26c4.01.97 9.55 1.11 11.21.28 1.52-.83 7.19-5.12 9.55-7.33 1.11-.97 2.77-2.49 3.87-3.18.97-.83 2.49-1.8 3.18-2.49.69-.55 1.52-1.11 1.94-1.11 1.11 0 4.15 1.25 5.12 2.08 1.94 1.66.97 3.32-3.6 6.36-3.6 2.35-7.47 6.64-9.27 10.24-.83 1.66-4.7 13.14-4.7 13.97 0 1.38.97 4.15 2.08 5.67 3.74 5.4 5.53 8.3 5.95 9.82.28.97.69 2.21.97 2.77.97 2.49-.14 3.87-4.29 4.84-1.66.42-3.74.83-4.7.97l-1.8.28.55.83c.42.69.55.69.83.28.28-.42.97-.55 3.87-.55 2.91 0 3.87-.14 5.26-.69l1.66-.69.83.97c.83 1.11 5.95 6.5 5.95 6.23 0-.83-2.49-6.36-4.29-10.1-1.38-2.49-3.04-5.95-3.87-7.61s-2.49-4.57-4.01-6.5c-1.38-1.94-2.63-3.87-2.77-4.29-.42-1.66-.28-4.29.55-6.5 1.25-3.46 2.21-3.18 2.21.55 0 2.77.42 3.6 3.32 8.02 3.46 5.12 3.74 5.53 5.4 9.82 1.52 3.74 3.32 7.06 5.4 10.1 1.11 1.52 3.04 7.06 3.04 8.3 0 .55-.42 1.25-1.11 1.94l-1.11 1.11-.69-.83c-.42-.42-.83-.83-.83-.69-.14.14-.28 1.11-.28 2.21-.14 2.08-.14 2.08.97 3.04 1.11.97 1.11 1.11 1.11 2.91 0 2.35.69 3.87 2.08 4.84.55.42 2.49.97 4.43 1.38l3.46.69 1.25-.97c2.21-1.8 4.7-4.84 4.98-6.09.42-1.52.14-2.91-.69-3.6-.42-.28-.83-.97-1.11-1.38-.69-1.25-.14-1.52 2.77-1.52 2.35 0 2.49 0 3.18-.97.83-.97 2.91-5.81 4.15-9.41.69-1.8.83-2.91.83-5.26 0-2.49.14-3.46.83-5.4 1.11-3.32 1.11-5.67 0-7.89-.97-1.8-1.52-2.49-3.87-4.01-2.63-1.66-2.21-2.63 1.25-4.01 2.08-.83 3.04-1.66 3.04-2.49 0-.69 0-.69-2.77-.55s-2.77.14-3.32-.69c-1.8-2.63-2.77-2.91-4.57-1.66-1.94 1.38-6.23 9.41-6.23 11.62 0 1.25 1.38 2.63 4.01 3.74 1.38.55 2.77 1.25 3.18 1.52 1.25.83 1.94 2.35 1.94 4.43 0 1.11.14 2.35.28 2.91.14.42.28 1.8.28 2.91 0 1.66-.14 2.49-.97 4.01-1.25 2.63-5.26 7.75-6.23 8.16-1.11.42-2.35-.55-2.91-2.21-.42-1.25-.42-1.52.28-3.04 1.52-3.46 1.66-4.7 1.25-9.55-.14-2.49-.55-4.98-.69-5.4-.69-1.38-1.66-.97-3.87 1.66-2.08 2.49-3.32 3.6-4.43 3.6s-1.38-1.11-1.25-3.6c.14-2.63.69-4.29 3.04-9.27 1.66-3.74 4.43-10.93 5.26-13.97.69-2.35.83-8.44.14-11.07-.28-1.38-.83-2.21-2.08-3.46-2.77-3.04-6.5-8.3-8.58-12.18-2.21-4.43-3.87-8.99-3.04-8.99.42 0 3.87 4.57 5.4 6.92 1.8 2.91 2.63 3.74 4.15 3.46 1.11-.14 1.11-.14 1.38.97.55 3.74 2.35 7.47 5.12 10.79 1.25 1.52 6.64 5.81 8.16 6.64 1.8.97 4.7 1.94 8.16 2.77 2.08.55 3.74.69 7.75.69 5.4 0 6.64-.28 7.89-1.52.28-.42 1.38-.97 2.49-1.25.97-.42 2.21-.83 2.63-1.11 1.11-.55 1.94-1.94 1.66-2.63-.14-.55-.42-.69-4.15-.83-4.7-.28-8.99-1.25-12.18-2.91-1.25-.69-3.18-1.52-4.43-1.94-3.74-1.38-6.5-3.74-7.19-5.81-.28-1.11.28-1.94 1.52-2.21.55-.14 1.11-.28 1.25-.55.14-.14.42-.28.69-.28 1.38 0 1.38-.42.69-3.46-.83-3.6-.83-4.29 0-4.29 1.25 0 2.21.83 4.01 3.46.97 1.52 2.63 3.6 3.6 4.57 1.52 1.66 1.94 1.8 3.04 1.8.69 0 1.38-.14 1.52-.28s-.14-.83-.42-1.52c-.42-.83-.69-1.94-.69-2.91 0-1.38.14-1.8.97-2.77.97-1.11 1.11-1.11 2.77-1.11 2.08 0 3.46.83 4.7 2.63.69 1.11.83 1.25 2.21 1.25.97 0 1.8-.28 2.63-.83.97-.69 1.38-.83 1.94-.55.42.14 1.11.97 1.52 1.52.42.69 1.25 1.66 1.66 2.08.83.83 1.11.97 2.63.69.97-.14 2.08-.14 2.49.14 1.38.55 1.52 1.25.97 4.43-.55 2.63-.55 2.91 0 4.29.28.83.97 1.94 1.52 2.49 1.11 1.25 1.11 1.25 1.52 5.26.42 3.87.14 6.5-1.52 10.79-.69 1.8-1.8 4.7-2.35 6.36-.69 1.66-1.52 3.6-2.08 4.15l-.83 1.11 1.25.97c1.66 1.25 2.91 3.46 4.7 8.02 2.49 6.64 2.77 7.47 2.77 9.96 0 2.08-.14 3.04-1.25 6.5-1.8 5.4-1.8 7.47-.28 9.69.55.83 1.11 1.66 1.11 1.94s-.83 1.8-1.66 3.46c-3.87 6.64-3.87 9.55 0 13.28 2.08 1.94 3.87 2.91 5.12 2.77.83-.14.83-.28.97-1.8.14-1.94.97-3.32 2.08-3.18.55.14.69.42.83 2.21.28 2.77.42 3.04 1.11 3.04 1.25 0 5.67-3.46 6.5-5.26l.42-.97-1.38.97c-.69.55-1.66 1.38-2.08 1.8-.97.97-1.8 1.11-2.91.14-1.11-.83-1.25-2.08-.69-4.57.69-2.77.55-4.98-.55-5.95-.69-.69-1.25-.69-3.32-.69-1.38 0-2.63-.14-2.91-.28-.83-.55.14-1.8 2.21-2.91 2.91-1.52 3.04-2.63.55-3.87-1.66-.83-2.08-1.38-2.08-2.91 0-1.66 1.11-3.18 2.77-3.87 2.08-.69 2.91-1.94 2.91-3.87 0-2.21-.69-3.6-2.63-5.12-3.04-2.35-3.04-2.21-3.04-5.12 0-2.08.14-2.63.55-3.18.42-.42.69-1.25.69-3.18.14-1.66.42-3.04.83-4.01 1.11-2.21.97-2.77-1.11-5.81-1.25-1.94-1.66-4.01-1.66-8.44 0-1.94-.14-3.74-.28-4.29-.42-1.11 0-4.7.55-4.98.97-.42 2.35.69 3.32 2.35 1.11 1.94 1.38 2.08 1.52 1.11.28-.97 1.8-.83 5.4.83 8.16 3.6 17.43 4.43 22.28 1.8 2.77-1.52 7.89-5.95 9.27-8.16 1.25-2.08 1.11-2.08-3.87-1.94-5.12.14-8.16-.14-11.62-1.38-2.91-1.11-6.09-3.18-7.89-5.4-.83-.97-2.91-2.91-4.7-4.43-1.8-1.52-3.32-2.91-3.46-3.18s-.42-.42-.69-.42c-.97 0-5.26-1.94-7.47-3.6-1.25-.83-2.91-1.8-3.6-2.21-2.21-1.11-10.79-2.91-16.19-3.32l-2.91-.28-.28-1.11c-.42-2.08-.97-3.6-2.91-6.5-1.52-2.49-1.94-3.18-1.94-4.43 0-1.66-.69-3.32-2.91-6.92-1.11-1.8-1.94-3.6-2.35-5.26-.42-1.38-1.25-3.74-1.94-5.4-1.52-3.46-2.08-5.4-2.49-8.99-.55-4.01-1.11-6.23-2.49-10.1-.69-1.8-1.52-4.84-1.94-6.78-.97-4.98-1.38-5.95-3.87-9.82-1.25-1.94-2.35-3.87-2.49-4.43-.14-.55-.55-1.52-1.11-2.08-.42-.55-1.38-1.94-2.08-3.04s-1.52-2.49-1.94-3.18c-.42-.55-.69-1.52-.69-1.94 0-1.38.69-1.8 3.04-1.66 4.98.14 8.86 4.01 13.84 13.7 4.01 7.75 7.33 11.62 11.35 13.7 1.66.83 2.63 1.11 3.74 1.11 1.94 0 2.49-.69 2.77-2.91.14-1.8-.14-3.6-1.94-8.99-.97-3.18-1.25-4.7-1.38-7.19-.28-4.01-.42-4.15-4.01-5.4-3.04-1.11-3.18-1.66-.69-2.35s5.12 0 8.02 2.08c1.94 1.38 2.21 1.52 3.46 1.38 1.11-.14 1.66-.42 3.18-1.94 1.66-1.52 1.8-1.8 1.66-2.91-.14-1.25.69-3.32 1.8-4.29.97-.83 1.52-2.21 2.49-6.36 1.38-5.53 1.11-10.24-1.11-14.11-1.8-3.04-10.1-9.82-15.08-12.18-4.43-2.08-4.7-2.08-28.78-2.35-26.84-.28-38.88-.97-42.34-2.08-4.98-1.66-8.58-4.84-8.02-7.06.28-1.25 1.94-2.91 3.46-3.46 2.77-1.11 6.78-.28 14.39 2.77 7.06 2.91 11.35 3.6 19.51 3.32 7.19-.28 13.01-1.11 14.39-2.21.55-.42.55-.42 0-.97-.28-.28-2.63-1.11-5.12-1.66-5.53-1.38-8.44-2.63-8.44-3.32 0-.42.55-.42 4.15-.28 4.15.14 8.86.97 12.59 2.21 2.21.69 7.33.83 8.99.28 1.11-.42 1.25-1.25.55-2.08-2.08-2.08-13.01-6.09-21.58-7.89-5.4-1.11-9.55-1.38-18.4-1.25-10.93.28-15.5.97-20.75 3.74-4.29 2.21-9.27 6.78-10.93 10.1-1.8 3.74-.55 6.23 4.7 9.55 3.74 2.21 6.5 3.18 12.73 4.01 11.07 1.66 18.96 2.08 40.68 1.94 10.52 0 18.96.14 20.06.28 3.32.55 7.06 1.94 9.13 3.32 2.35 1.66 5.26 4.98 6.78 8.02.97 1.94 1.11 2.49 1.11 4.57s-.14 2.63-.83 4.01c-1.25 2.21-3.74 4.98-4.98 5.53-1.52.55-4.98 0-9.27-1.66-2.91-1.11-4.01-1.38-6.92-1.52-3.87-.28-4.29-.42-9.96-2.91-5.81-2.63-14.67-5.53-19.09-6.36-2.08-.42-4.15 0-7.06 1.38s-4.7 2.77-10.52 8.58c-5.53 5.4-8.02 7.47-11.21 8.99-5.67 2.77-21.72 12.04-23.24 13.28-2.21 1.94-5.95 6.5-7.47 9.27-2.91 4.84-3.74 8.72-4.15 17.85-.28 6.23-.28 6.5-1.25 8.99-1.11 2.77-4.01 7.89-7.89 13.84-3.74 5.67-6.36 10.1-8.16 13.7-3.46 7.06-4.15 9.69-4.43 19.65l-.28 7.33-1.11 3.32c-.69 1.8-1.94 5.26-2.91 7.61-3.6 8.72-3.6 8.3-3.87 24.35l-.28 11.76-1.38 2.63c-.69 1.52-1.94 3.6-2.63 4.7-1.8 2.63-2.21 4.7-2.91 12.18-.28 3.18-.55 6.36-.69 7.06-.14 1.11-.55 1.8-4.15 5.81-6.64 7.47-9.13 11.35-9.13 13.97 0 1.38-.14 1.52-1.38 2.35-2.49 1.66-5.81 5.67-7.06 8.16-1.38 2.91-1.66 5.67-.83 7.19.97 1.8 1.52 1.52 4.15-2.08l2.35-3.18.69.69c.42.42.69.97.69 1.11 0 .28-.55 1.66-1.25 3.04-.69 1.52-1.25 3.04-1.25 3.46.14 1.11 1.25 1.25 7.75 1.11 5.29 1.02 5.98.88 7.37.19m-2.91-17.29c-1.11-.42-2.77-4.15-2.49-5.53.28-1.25.55-1.38 2.21-.69s2.49.55 4.15-.69c1.52-1.25 2.08-1.38 2.63-.69.55.55.42 1.52-.28 3.04-.42.69-.83 1.66-1.11 2.21-.96 1.65-3.73 2.9-5.11 2.35m10.1-30.17c-.69-.69-.83-1.11-.83-3.46 0-1.52 0-2.91-.14-3.18-.14-.28 0-.69.14-.97.28-.42.42-.28 1.25.55s1.25 1.11 2.21 1.11c.83 0 1.52-.28 2.08-.69.97-.97 1.66-.55 1.66.69 0 2.21-1.38 4.57-3.18 5.81-1.53 1.11-2.22 1.11-3.19.14m99.9-2.76c-.83-.28-1.66-.55-1.8-.69-.55-.55-1.11-4.43-.69-5.4.69-1.94 3.04-.97 3.6 1.38.28 1.38.42 1.38 1.52 1.38 1.38 0 1.8.55 1.8 2.35 0 .97-.14 1.11-.97 1.25-1.25.14-1.66.14-3.46-.27m-93.4-26.57c-1.25-.55-1.8-2.21-1.66-5.53.14-3.04 1.38-5.95 3.04-7.06l1.11-.69.83.97c.42.55 1.11.97 1.52.97 1.11 0 3.6-1.38 5.26-3.04.83-.83 2.35-2.21 3.32-3.04 2.21-1.94 2.77-3.32 2.77-6.5 0-4.29-.28-5.12-2.35-6.92-1.94-1.8-2.77-3.46-2.77-5.81 0-2.77 1.25-4.29 3.74-4.29 1.25 0 2.21.83 3.87 3.74 2.63 4.7 6.64 6.5 9.27 4.29 1.25-1.11 1.66-1.11 2.35-.42.42.42.55 1.38.55 5.12 0 2.49.14 4.98.28 5.4.14.55.83.97 2.08 1.52 2.08.83 2.77 1.94 2.63 4.01-.14 1.66-1.11 2.91-2.77 3.32-1.8.42-3.04 0-8.44-3.04-1.66-.97-3.46-1.11-4.57-.28-.42.28-1.52 1.52-2.35 2.77-1.25 1.66-2.35 2.63-4.7 4.29-3.46 2.35-4.43 3.32-6.36 6.5-1.38 2.21-3.18 4.15-3.74 4.15-.14 0-.69.14-.97.14-.69-.15-1.38-.29-1.94-.57m50.51-67.66c-1.11-.55-2.77-1.11-3.6-1.25-2.08-.42-3.18-1.11-3.74-1.94-.42-.69-.42-.97 0-2.63.55-2.21.28-4.01-.83-4.98-.55-.55-1.11-.55-3.32-.55-1.52 0-3.32.28-4.15.55-.69.28-1.38.55-1.38.55-.14 0 .28-3.04.55-4.15.14-.83.55-1.38 1.38-1.94 1.94-1.25 2.08-1.8 1.94-5.12-.28-3.87.28-5.81 1.52-5.81.14 0 .83.55 1.38 1.25.83.83 1.38 1.94 1.94 3.46 1.25 3.74 1.8 4.57 2.91 4.7 1.94 0 1.94.14 1.94 4.7 0 4.98.28 5.67 3.6 8.99 4.84 4.73 4.84 6.52-.14 4.17m50.91-25.59c-.14-.42-.14-2.08 0-3.74l.28-2.77-.83-.55c-.83-.55-1.66-.55-7.33-.55s-6.64-.14-7.75-.55l-1.25-.55.97-.28c.55-.14 2.35-.28 3.87-.28 3.46 0 4.84-.42 6.23-1.38 4.15-3.04 3.32-6.92-2.77-13.01-3.74-3.87-4.43-4.84-4.29-6.78l.14-1.38 1.52 1.66c.83.83 2.08 2.49 2.63 3.46 1.66 3.04 7.47 10.93 9.55 13.28 3.18 3.46 4.29 6.5 3.74 9.82-.28 1.8-2.08 4.01-3.46 4.29-.83.14-.97 0-1.25-.69m-6.78-50.64c-.42-.42-1.11-1.38-1.52-1.94-.42-.55-1.38-1.8-2.21-2.77-1.8-2.08-2.08-2.77-1.25-3.6s4.43-.83 5.95 0 2.77 3.46 3.04 6.36l.14 2.35-.97-.28c-.69-.14-.97-.14-1.11.28-.13.84-1.24.56-2.07-.4m-9.13-44.97c-.28-.14-1.25-.42-2.08-.83-1.8-.83-2.21-1.66-1.25-2.49.97-.69 1.66-.69 3.18.14.69.42 2.21.69 3.18.83 1.38.14 2.21.42 3.04.97 1.25.83 1.38 1.25.69 1.52-.53.14-5.93.14-6.76-.14m-64.61 249.6c2.21-1.11 4.15-3.46 5.95-6.92.83-1.66 2.08-3.6 3.04-4.43 1.8-1.94 2.21-2.63 3.04-5.81.83-3.04 2.21-5.95 4.7-9.69 2.91-4.29 4.15-5.53 7.89-7.61 5.95-3.18 6.23-3.6 6.64-8.16.14-1.8.42-3.6.69-4.15.55-1.11 3.6-3.87 5.95-5.53l1.8-1.25h-8.72c-6.78 0-9.13.14-10.79.55-1.25.28-2.77.42-3.74.42l-1.52-.14-1.94 4.98c-1.11 2.77-1.94 5.26-1.94 5.53 0 1.11-.97 4.7-1.52 5.95-.83 1.66-6.09 7.33-7.61 8.02-.69.28-1.66.69-2.08.69-1.11 0-2.35.97-2.91 2.21-.28.55-1.38 1.66-2.63 2.49-2.77 2.08-6.23 5.26-7.19 6.78-1.11 1.66-1.52 4.15-1.52 7.47 0 3.46.69 6.36 1.38 6.36.28 0 1.52-.69 2.77-1.66 3.6-2.63 4.29-2.08 2.08 1.66-.69 1.11-1.25 2.21-1.25 2.49 0 .69 2.21 1.11 4.98.97 2.23-.39 3.06-.53 4.45-1.22m3.04-17.43c-2.08-1.52-3.87-3.46-3.87-4.01 0-.28.69-.97 1.94-1.52l1.94-.97 1.25.83c1.8 1.11 3.18 1.25 5.26.55 2.35-.83 2.49-.69 2.21 1.38-.14.97-.42 2.08-.69 2.49-.55.97-2.49 1.94-4.84 2.08-1.82.14-2.09 0-3.2-.83m32.93.55c.69-.14.42-.28-1.38-.28-2.08 0-2.35-.14-2.21-.55 0-.28.83-.97 1.66-1.38.83-.42 1.8-.97 1.94-1.11s.28-1.38.28-2.77c0-3.04.42-3.6 2.77-4.15 1.66-.28 2.35-.97 2.35-2.21 0-.55-.28-.83-1.38-1.38-1.66-.83-2.35-1.8-1.52-2.49.28-.28 1.66-1.52 3.18-2.77 2.35-2.08 2.63-2.49 3.04-3.87.83-3.18 1.52-7.06 1.25-7.75-.28-.83-1.38-2.08-1.94-2.08-.28 0-.69-.28-1.11-.69s-.69-.55-.69-.28c0 .28-.97 1.94-2.08 3.87s-2.63 4.7-3.32 6.09c-1.11 2.35-1.52 2.77-3.18 4.01-4.7 3.32-7.33 7.47-8.02 13.14-.28 2.63-.14 4.43.55 4.43.28 0 1.25-.69 2.08-1.38.97-.83 1.94-1.38 2.21-1.38.55 0 .55.28.28 2.21l-.28 2.21 1.11.28c1.5.56 3.17.7 4.41.28m97.96-110c.55-.42 1.66-1.66 2.49-2.77l1.38-1.94-.83-.97c-3.18-3.87-5.12-6.92-6.64-9.96-.97-1.94-1.8-3.74-1.66-4.01 0-.83.97-1.8 2.91-3.04 4.29-2.77 4.7-3.87 4.84-12.18.14-3.87 0-6.78-.28-8.02-.55-2.63-1.94-5.53-3.87-7.75l-1.66-1.8-1.25.42c-1.52.42-3.74 2.63-4.57 4.43s-.69 4.01.42 8.3c.69 2.63.97 4.57.97 6.23 0 2.91-.14 3.6-1.52 9.27s-1.8 8.72-1.8 13.56c0 4.15.42 6.23 1.66 8.02 2.21 3.04 6.92 4.15 9.41 2.21M77.43 112.91c2.91-1.52 10.52-4.84 16.88-7.19l5.4-2.08v-4.43c0-2.49-.14-4.43-.28-4.43-.42 0-9.55 3.74-12.73 5.26-1.38.69-2.63 1.11-2.77 1.11s-.28-9.82-.28-22.55c0-12.45-.14-22.55-.28-22.55s-2.35.97-4.84 2.21l-4.57 2.21-.14 26.57c-.14 14.53-.14 26.57 0 26.7.28.55 1.67.28 3.61-.83m364.02-11.21c0-6.23-.14-18.4-.28-26.84l-.28-15.5-4.01-1.8c-2.21-.97-4.43-1.8-4.98-1.8h-.83v53.14l1.38.42c.69.14 2.91 1.11 4.98 1.94s3.74 1.52 3.87 1.66c.15.13.29-3.75.15-11.22m-17.29-34.04V52.72l-3.6-1.25c-1.94-.69-3.74-1.38-4.01-1.52-.28-.14-.97-.28-1.52-.28h-.97v27.4c.28 1.8-1.38-1.66-6.92-15.5-4.84-11.9-6.5-15.91-7.06-16.19-1.25-.55-7.06-1.94-8.02-1.94h-.97v53.68h.83c.69 0 6.78 1.38 8.99 2.08.55.14.55-.69.42-16.19-.14-11.35-.14-16.33.14-16.05.14.14 3.6 8.44 7.75 18.54l7.33 18.26 3.6 1.11 3.6 1.11.14-11.76c.13-6.35.27-18.39.27-26.56m-320.17 34.73c.55-.28 2.35-.97 4.01-1.38 1.66-.55 3.18-.97 3.18-1.11 0 0 .69-3.46 1.52-7.61l1.52-7.61 1.38-.42c4.98-1.52 8.3-2.21 8.44-1.8.14.28.83 3.18 1.66 6.5.69 3.32 1.52 6.23 1.52 6.36.14.14 2.21-.28 4.7-.83 3.74-.83 4.57-1.11 4.43-1.66 0-.28-1.25-4.43-2.63-9.27s-4.57-15.77-7.06-24.49-4.57-15.91-4.7-15.91c-.14-.14-1.52.28-3.32.69-1.8.42-3.6.83-4.01.97-.69.14-.83.42-4.57 17.43-2.08 9.55-4.98 22.55-6.36 28.64-2.49 11.21-2.49 11.35-1.8 11.62.98.44.98.44 2.09-.12m11.62-24.76c0-.55 3.18-16.19 3.32-16.74.28-.55.55.83 2.49 8.99l1.38 5.95-1.25.28c-1.38.42-4.29 1.25-5.26 1.52-.4.27-.68.27-.68 0m268.84-9.13.14-26.57-1.8-.42c-.97-.14-3.32-.69-5.12-1.11s-3.6-.69-3.87-.69c-.55 0-.55 1.11-.69 19.23-.14 18.54 0 34.04.28 34.31.28.28 10.38 2.21 10.52 1.94.26-.13.4-12.17.54-26.69M145.64 91.46c2.21-.42 4.01-.83 4.15-.83 0 0 .14-6.09.14-13.56 0-10.1.14-13.28.42-12.73.14.42 2.35 6.09 4.7 12.73 2.35 6.5 4.43 11.9 4.7 11.9.97 0 .97.28 7.47-22.41.83-3.04 1.8-5.67 1.94-5.95.14-.14.28 5.81.28 13.14 0 7.47.14 13.42.28 13.42.42 0 7.33-.97 8.44-1.11l.97-.14-.14-25.74c0-14.25-.14-26.29-.28-26.84-.14-.97-.28-1.11-1.11-.83-2.63.42-7.19.97-7.89.83-.42-.14-.83 0-.97 0-.14.14-2.08 6.5-4.43 14.11s-4.43 14.39-4.57 14.94-.42.97-.42.97c-.14-.14-2.08-5.95-4.57-13.01-2.35-7.06-4.43-13.01-4.57-13.28-.14-.28-1.25-.14-3.87.42-2.08.42-4.15.69-4.7.69h-.97l-.28 10.1c-.14 5.53-.28 17.57-.28 26.84 0 17.85-.14 16.74 1.25 17.02.16.15 2.09-.12 4.31-.68m220.68-26.42.14-26.7-.69-.14c-3.04-.69-7.75-1.52-8.58-1.52h-1.11l.14 10.38c.14 10.1.14 10.38-.42 10.38-.28 0-2.91-.42-5.81-.83-2.91-.42-5.26-.83-5.4-.83s-.28-4.7-.28-10.52V34.74l-.69-.14c-1.38-.28-7.89-1.11-8.86-1.11h-.83v53.4l4.98.69c2.77.42 4.98.55 5.12.55s.14-5.53 0-12.31l-.14-12.18.69.14c.42.14 3.04.55 5.81.83l5.12.69v24.9h.97c.55 0 2.77.42 4.98.69 2.21.42 4.01.69 4.29.69.43.16.57-8.97.57-26.54M317.9 86.07c4.7-1.25 7.89-4.29 9.41-9.13.55-1.66.55-3.04.55-10.79v-8.86h-14.38v1.52c0 .83-.14 2.63-.14 4.01l-.14 2.49h6.08l-.14 4.29c-.14 4.01-.14 4.29-.97 5.53-2.35 3.6-7.06 2.91-9.96-1.25-2.08-3.04-2.08-3.74-2.08-17.3 0-11.9 0-12.18.69-13.42.83-1.52 2.63-3.18 3.74-3.46.42-.14.97-.28 1.25-.28.69-.28 2.63.55 3.74 1.52 1.38 1.25 2.21 3.04 2.49 4.84l.14 1.38h4.7c5.4 0 4.98.28 4.15-3.18-1.52-7.33-7.33-12.04-14.67-12.04-7.19 0-13.14 4.57-15.36 11.9-.28 1.11-.42 4.43-.42 13.97 0 13.97.14 15.63 2.08 19.37 1.25 2.35 3.74 5.4 6.09 6.78 1.66 1.11 4.7 2.35 6.5 2.63 1.8.03 4.99-.11 6.65-.52m-118.72-1.8c10.79-.97 11.48-1.11 14.11-4.15 4.98-5.4 5.67-16.74 1.25-21.31-.97-.97-3.04-2.08-4.01-2.08-.42 0-.14-.28.69-.69 4.7-2.35 6.09-12.31 2.77-19.65-1.25-2.77-3.18-4.7-5.53-5.81l-1.8-.83-5.12.42c-5.26.42-15.5 1.38-15.63 1.52 0 0-.14 12.18-.28 26.84l-.28 26.84 2.91-.14c1.79-.13 6.63-.55 10.92-.96m-4.15-7.47c-.14-.14-.28-3.6-.28-7.61v-7.47l4.57-.14 4.57-.14.97.97c.55.55 1.38 1.8 1.94 2.77.69 1.52.83 2.21.83 4.7 0 2.63-.14 3.04-.83 4.43-1.38 2.35-2.08 2.63-7.33 2.77-2.22-.14-4.3-.14-4.44-.28m1.52-23.39-1.8-.14.14-6.92.14-6.92 4.29-.14 4.29-.14 1.38 1.66c3.46 3.87 3.04 10.1-.69 12.04-1.52.84-2.63.84-7.75.56m45.39 29.75c6.5-1.38 11.07-6.09 11.76-12.31.14-1.25.28-8.02.28-15.08-.14-14.11-.14-14.53-2.21-18.54-1.25-2.35-4.15-5.4-6.36-6.64-2.08-1.11-4.84-1.94-7.33-2.08-5.53-.42-11.48 3.74-14.53 9.96-2.21 4.43-2.21 5.53-2.08 20.06.28 13.7.42 14.8 1.94 17.85 3.03 5.54 11.06 8.44 18.53 6.78M235.16 75c-1.8-.69-3.04-1.66-3.87-3.18l-.83-1.38V43.59l.83-1.8c2.21-4.57 7.47-5.4 11.21-1.8 1.38 1.38 2.21 3.18 2.63 5.4.14 1.11.28 6.92.42 13.14.14 11.07.14 11.21-.55 12.73-1.96 3.32-6.25 4.98-9.84 3.74m56.59 8.02c0-.28-2.08-5.67-4.57-12.04-2.49-6.36-4.57-11.76-4.57-11.9s.55-.42 1.11-.55c4.7-.83 7.33-5.53 7.33-12.73 0-6.92-2.91-13.14-7.19-15.77-1.66-.97-4.15-1.25-16.33-1.52l-7.61-.28v53.68l.97.14c.55.14 2.77.14 4.84.28h3.87V59.36l2.63-.14 2.63-.14 2.77 9.13c1.52 5.12 3.18 10.38 3.6 11.76l.83 2.49 3.46.14c1.94 0 3.6.14 3.87.14 1.25.7 2.36.56 2.36.28m-22.14-30.85c-.14-.14-.28-3.46-.28-7.47v-7.2l3.87-.28c4.29-.28 5.53 0 7.19 1.66 2.77 2.63 2.63 9.96-.28 12.59l-1.11.97h-4.57c-2.47.01-4.68-.13-4.82-.27" style="fill:#9f6b08" transform="translate(-2.312 3.854)"/><path d="M249.82 488c-10.52-6.5-36.67-27.81-54.24-44.14-28.78-26.84-57.7-62.68-77.48-96.16-42.06-71.39-63.78-154.54-66.41-253.05C51 65.87 51 64.9 53.77 59.22c3.6-7.61 6.92-9.82 24.07-16.6 47.6-18.54 97.82-27.26 166.59-28.5C322.05 12.6 386.25 22.01 438 42.35c17.85 7.06 21.03 9.27 24.77 16.88 2.77 5.81 2.77 6.64 2.08 36.11-4.15 161.88-59.77 281.98-173.09 374.13-13.7 11.21-28.09 21.45-31.68 22.55-1.68.55-5-.69-10.26-4.02m-76.1-110.41c1.94-.97 3.46-3.32 4.43-7.33.83-3.32 2.49-6.92 3.46-8.16 1.25-1.38 2.21-5.67 2.49-10.79.42-7.47 1.11-9.13 5.4-14.67 2.77-3.6 5.67-9.27 6.78-13.42 1.11-4.01 2.91-8.99 4.01-11.07 8.02-15.77 13.28-24.9 14.11-24.9 2.77 0 4.98 6.09 4.98 13.7 0 5.95.55 8.3 2.08 9.13 1.8.97 1.8 1.52.14 4.84-.97 2.08-2.21 5.4-2.77 7.47-1.25 5.12-5.26 10.65-9.41 12.87-1.94.97-6.09 4.43-9.27 7.61-4.57 4.57-5.81 6.64-5.81 9.96 0 5.67 1.8 8.58 3.87 6.36 2.49-2.63 3.74-1.8 2.77 1.8-.83 3.32-.69 3.32 3.32 2.49 5.26-1.11 9.96-4.15 10.79-6.92.42-1.25 1.11-3.04 1.8-4.01.55-1.11 2.91-5.81 5.12-10.65 2.77-5.95 5.81-10.24 9.69-13.42 3.04-2.63 6.36-6.64 7.47-9.13 2.91-7.19 11.62-13.42 11.62-8.3 0 3.04-4.84 12.04-8.44 15.63-4.43 4.57-7.89 10.65-7.89 13.97 0 2.91 1.8 3.87 3.18 1.66s2.91-1.38 2.21 1.25c-.55 2.21 0 2.49 3.18 2.49 6.5 0 12.45-3.74 13.42-8.16.42-2.21 1.94-5.81 3.18-8.02 1.52-2.63 2.21-5.12 1.66-7.33-.83-3.46 1.52-12.31 3.18-12.31 1.25 0 5.81 9.55 7.06 14.67.42 2.08 1.94 5.12 3.32 6.64 2.35 2.63 3.32 2.77 14.53 2.08 11.62-.69 12.18-.83 15.22-4.57 2.21-2.91 3.32-6.09 3.87-11.62.97-9.82 5.12-16.6 14.94-23.52l7.33-5.26 1.8 2.91c.97 1.52 3.18 6.23 4.7 10.24 2.77 6.78 2.77 7.89 1.38 13.7-.83 3.46-1.25 7.47-.69 8.99.42 1.52-.14 5.4-1.38 8.99l-2.21 6.36 2.91 3.18c3.32 3.6 5.67 4.15 6.78 1.25.97-2.49 3.32-2.49 3.32.14 0 2.77 2.49 1.66 5.26-2.08 2.21-2.91 2.21-3.46.28-8.86-1.11-3.18-1.66-6.64-1.38-7.89s0-4.7-.69-7.61c-1.52-6.92-1.52-14.94.28-23.38 1.25-5.95 1.11-7.19-1.8-13.42-1.66-3.74-2.91-7.06-2.63-7.47.28-.28 2.63.28 5.26 1.38 12.18 4.84 21.72 3.74 27.4-3.18l3.46-4.15-7.47-.69c-8.44-.69-8.86-.97-17.71-8.86-6.23-5.53-6.5-6.09-5.81-11.07.42-2.91-.28-9.41-1.38-14.94-1.94-8.99-1.94-10.24-.14-16.74 1.11-3.87 1.94-8.72 1.94-10.79 0-6.23-3.32-15.63-7.33-20.75-2.08-2.63-4.29-7.06-5.12-9.82-.69-2.77-2.77-7.19-4.43-9.82-2.91-4.29-2.91-4.84-1.25-9.13.97-2.49 1.8-7.61 1.8-11.48 0-6.09-.55-7.61-4.01-11.76-7.75-8.86-11.35-9.69-48.01-10.79-42.34-1.25-48.98-2.91-42.48-10.24 2.63-3.04 7.06-2.91 16.19.28 9.96 3.6 22.14 4.43 29.33 2.08 6.09-1.94 6.23-1.94-4.43-4.15-1.66-.42-3.18-1.25-3.18-2.08 0-.97 1.94-1.11 5.95-.55 16.46 2.21 19.09 2.35 19.09 1.11 0-2.08-11.07-6.36-22.55-8.72-18.54-3.87-36.25-.69-44.69 7.89-5.12 5.26-5.81 10.93-1.38 13.7 5.4 3.6 14.39 4.7 46.21 5.67 29.19.97 32.65 1.25 37.77 3.74 6.23 3.04 8.99 7.06 8.72 13.01-.14 4.98-3.32 10.1-6.23 10.1-4.84 0-21.03-4.15-32.51-8.3-6.78-2.49-13.42-4.43-14.8-4.43-3.18 0-6.78 2.49-17.57 11.76-4.7 4.01-13.01 9.69-18.54 12.59-17.85 9.41-23.24 16.88-25.74 35.14-1.38 9.82-3.04 13.84-10.65 25.32-6.36 9.55-10.79 22.41-10.93 31.13 0 4.15-1.52 10.93-3.87 17.85-3.18 9.27-3.87 13.42-4.15 23.94-.28 10.93-.69 13.56-3.46 18.68-1.94 3.74-3.6 9.13-4.15 14.39-.83 7.75-1.38 9.13-7.06 15.77-3.32 4.01-6.23 8.02-6.23 8.86s-1.66 3.6-3.74 5.95c-4.84 5.53-7.19 11.9-5.12 13.97 1.11 1.11 1.94.69 3.32-1.38 2.77-4.01 4.29-3.46 3.04.97-.69 2.63-.55 4.01.42 4.43 2.34.77 9.54-.34 13.27-2m96.03-268c-3.46-2.21-.14-2.91 5.26-.97l5.4 1.94-4.43.14c-2.5 0-5.26-.56-6.23-1.11m-180.98-1.66c9.69-3.6 10.38-4.01 10.38-7.61 0-2.08-.14-3.74-.42-3.74s-3.74 1.11-7.75 2.49-7.47 2.49-7.75 2.49-.42-10.1-.42-22.41-.14-22.41-.42-22.41-2.21.69-4.43 1.38l-4.01 1.38v26.84c0 25.04.14 26.84 2.21 26.01 1.27-.13 6.94-2.21 12.61-4.42M442.7 86.62v-26.7l-4.01-1.38c-2.21-.83-4.15-1.38-4.43-1.38s-.42 12.04-.42 26.7v26.7l4.01 1.38c2.21.69 4.15 1.38 4.43 1.52.28-.14.42-12.17.42-26.84m-19.1-7.33-.28-26.43-3.46-.97-3.46-.97v14.25c0 16.33-.14 16.33-7.61-3.04-5.53-14.11-7.33-16.6-12.04-16.6h-2.91v26.15c0 20.06.42 26.15 1.52 26.15.83 0 2.77.42 4.29.83 2.77.69 2.77.55 3.18-14.8l.42-15.5 6.92 17.43c3.74 9.55 7.75 17.99 8.72 18.54 4.99 3.04 5.13 2.35 4.71-25.04m-313.11 21.72c.42-.28 1.25-3.6 1.66-7.47.97-7.89.83-7.75 7.19-8.99l4.57-.83 1.52 6.5c1.52 6.36 1.66 6.36 5.53 5.67 2.21-.42 4.15-.97 4.43-1.25.69-.55-11.21-48.01-12.31-49.12-.42-.42-2.49-.28-4.57.28-3.87 1.11-3.87 1.25-8.58 21.86-2.63 11.48-5.4 24.07-6.36 28.23l-1.66 7.47 4.01-.83c2.08-.55 4.16-1.24 4.57-1.52m5.54-25.87c.42-1.38 1.25-4.98 1.66-8.02l.97-5.53 1.66 6.92c1.38 5.81 1.38 7.06-.14 8.02-2.91 1.79-4.98 1.24-4.15-1.39M385 69.33c0-14.39-.42-26.29-.97-26.7-.55-.28-2.49-.97-4.43-1.38l-3.46-.83v53.4l3.46.55c1.94.28 3.87.55 4.43.69.56.28.97-11.35.97-25.73M148.27 92.29c1.25-.42 1.52-2.91 1.25-9.27-.28-4.7-.28-10.93 0-13.7.42-4.7.83-4.01 5.26 9.55l4.84 14.53 4.57-16.33 4.57-16.33.42 14.39c.28 12.31.69 14.25 2.35 13.56 1.11-.42 3.04-.69 4.29-.69 2.35 0 2.35-1.25 2.35-26.57V34.6l-4.29.55c-4.15.55-4.29.69-7.61 11.62-1.8 6.09-4.01 13.28-4.98 16.19l-1.66 4.98-4.01-13.42c-2.21-7.33-4.57-13.84-5.12-14.53-.55-.55-2.77-.69-4.84-.28l-3.87.83V66.7c0 24.9.14 26.15 2.35 26.15 1.36 0 3.16-.28 4.13-.56m217.64-27.25-.28-26.57-3.46-.42-3.46-.42v20.76l-5.4-.69c-8.72-1.25-8.44-.83-8.44-12.04 0-7.33-.42-10.24-1.52-10.24-.83 0-2.91-.42-4.43-.83l-2.77-.83v53.68l4.43.55 4.43.55v-11.9c0-13.14-.42-12.73 9.13-11.07l4.7.83v11.9c0 10.24.28 11.9 2.21 12.45 5.41 1.4 5.27 2.1 4.86-25.71m-157.87 18.4c5.12-2.49 8.02-7.75 8.16-14.8.14-4.98-.55-7.06-2.63-9.13-2.63-2.77-2.63-2.77-.28-6.78 2.91-4.84 3.04-9.82.55-14.8-2.35-4.7-8.44-6.36-18.82-5.26l-7.47.83-.28 26.7-.28 26.7 9.13-.83c4.86-.69 10.26-1.8 11.92-2.63m-12.45-13.28c0-6.64.28-7.75 2.63-8.3 7.06-1.94 12.04 5.26 8.44 11.76-1.38 2.49-3.04 3.32-6.5 3.74l-4.7.42v-7.61h.13zm0-22.7V40.4h4.15c4.98 0 7.19 1.94 7.19 6.5 0 4.01-1.66 5.67-7.19 6.78l-4.01.83v-7.06h-.14zM323.15 83.3c3.32-2.21 5.4-8.99 5.4-17.57 0-6.78-.14-6.78-9.13-7.75l-5.95-.55v4.29c0 3.74.42 4.29 3.18 4.29 2.49 0 3.18.69 3.18 3.32 0 7.61-5.95 10.93-10.52 5.95-6.09-6.92-4.84-33.34 1.8-35.42 2.77-.83 7.33 2.49 7.33 5.4 0 1.11 1.52 1.66 4.43 1.66 4.98 0 5.53-1.66 2.49-7.61-2.63-5.26-6.64-7.75-12.59-7.75-10.79 0-15.63 8.16-15.63 26.15 0 11.9 1.8 19.37 5.67 23.8 4.57 4.97 14.26 5.8 20.34 1.79m-77.62-1.38c1.52-1.11 4.01-4.43 5.53-7.33 3.87-7.75 4.01-26.98.14-35.56-2.63-5.81-7.75-9.96-12.31-9.96-4.43 0-10.24 4.15-13.01 9.13-5.81 10.52-4.7 33.9 2.08 42.06 2.63 3.18 4.01 3.74 8.99 3.74 3.19-.01 7.06-.98 8.58-2.08m-11.9-9.14c-1.66-2.49-2.35-6.64-2.63-14.94-.28-9.82 0-12.18 2.21-15.77 3.18-5.26 7.33-5.12 10.1.42 2.77 5.67 2.63 25.87-.28 30.44-2.89 4.28-6.63 4.28-9.4-.15m35.98-.69c0-10.79.14-11.21 2.63-10.79 2.08.28 3.46 2.63 6.5 11.62l3.87 11.21h9.4l-4.15-12.04-4.15-12.04 3.32-3.18c4.15-4.01 5.4-9.69 3.6-16.33-1.94-7.33-6.92-9.96-18.96-9.96H262l-.42 26.29c-.14 14.53-.28 26.43-.14 26.57s1.94.28 4.01.28h3.87V72.09zm.97-19.51c-.55-.55-.97-4.15-.97-7.89v-6.92l5.26.69c7.47.97 10.65 6.36 6.92 11.48-1.67 2.23-9.69 4.17-11.21 2.64M35.36 87.73c0-1.8.28-2.49.69-1.66.42.83.42 2.35 0 3.18-.41.97-.69.28-.69-1.52m.14-11.49c0-3.87.28-5.4.55-3.46.28 1.94.28 5.12 0 7.06-.27 1.94-.55.28-.55-3.6" style="fill:#5c4b21" transform="translate(-2.312 3.854)"/><path d="M246.23 481.78c-30.85-22.41-69.32-58.8-90.9-86.06C90.02 313.39 59.16 220.83 54.46 93.54c-1.25-33.76.42-37.91 18.82-45.8C121.29 27.26 183 17.02 258.27 17.02c56.73 0 96.3 4.43 139.88 15.77 19.65 5.12 47.32 14.8 54.24 19.23 5.26 3.18 8.72 9.27 9.82 16.6 1.11 7.33-1.38 59.08-4.01 81.77-13.28 117.33-55.48 208.09-132.27 284.05-24.63 24.35-61.99 54.51-67.66 54.51-1.11.02-6.65-3.3-12.04-7.17M174 377.87c2.91-1.8 4.29-3.74 4.84-7.33.42-2.63 1.94-6.23 3.18-7.89 1.66-2.21 2.35-5.26 2.35-11.07 0-7.47.28-8.44 5.12-14.25 3.46-4.29 5.95-9.27 8.02-16.05 1.66-5.4 4.15-11.48 5.4-13.42 1.38-1.94 4.29-7.19 6.36-11.48 2.21-4.43 4.43-8.02 4.98-8.02 2.63 0 4.43 4.43 4.15 10.65-.28 7.89.55 11.07 3.04 11.07 1.52 0 1.52.55-.14 3.74-1.11 2.08-1.94 4.43-1.94 5.4 0 3.87-5.53 12.73-9.55 15.36-2.49 1.52-5.67 4.01-7.19 5.53s-4.01 3.74-5.53 4.98c-2.49 2.08-3.32 5.67-2.77 11.76.42 3.74 2.21 5.26 4.01 3.46 2.35-2.35 3.74-1.8 2.21.97-1.25 2.35-.97 2.49 2.77 2.49 4.7 0 12.31-4.15 12.31-6.78 0-1.8 8.86-19.79 12.04-24.35.83-1.25 3.32-3.46 5.53-4.84 2.08-1.38 4.84-4.57 5.95-7.19 2.77-6.36 6.5-10.52 9.41-10.52 1.25 0 2.35.28 2.35.69 0 2.21-7.75 15.77-9.27 16.33-2.35.97-8.58 13.28-7.61 14.94s4.43 1.52 4.43 0c0-.69.55-1.25 1.25-1.25s.83.97.42 2.08c-1.11 2.91 1.66 4.15 6.64 3.04 6.5-1.52 10.52-4.7 10.52-8.3 0-1.8 1.25-4.84 2.63-6.92 2.08-2.77 2.49-4.84 1.94-8.3-.69-4.57 1.11-10.79 3.04-10.79 1.38 0 4.29 6.09 6.09 12.73 2.49 9.41 3.46 9.96 17.71 9.96 9.55 0 12.87-.42 13.97-1.94.83-.97 2.63-3.04 3.87-4.57 1.66-1.94 2.49-4.7 2.63-9.96.14-6.09.97-8.3 4.43-13.42 5.4-7.61 15.77-15.22 18.13-13.28.83.69 3.04 5.12 4.98 9.82 3.04 7.75 3.18 8.99 1.8 13.97-.83 3.04-1.25 7.06-.83 8.99s-.14 5.53-1.11 7.89c-2.49 6.09-2.21 8.72 1.25 12.31 3.87 3.87 5.53 4.01 6.92.28l1.11-2.91 1.25 3.18 1.25 3.18 3.32-3.46c3.74-3.87 4.15-7.06 1.52-12.31-.97-1.94-1.52-4.84-1.11-6.36.42-1.52 0-6.23-.83-10.52-1.25-6.23-1.25-9.69 0-18.13 1.52-9.96 1.52-10.79-1.11-15.5-4.01-7.61-3.6-8.44 3.6-5.67 10.79 4.15 22.28 2.49 26.84-4.15 3.18-4.57 2.63-6.23-1.66-5.4-6.64 1.38-12.04-.69-19.37-7.19l-7.06-6.36-.69-11.21c-.69-11.76-.69-18.54-.14-37.22.28-11.21.28-11.35-4.7-18.82-2.77-4.15-5.95-10.24-7.06-13.7-1.11-3.32-3.32-7.47-4.84-9.13-2.63-2.91-2.63-3.18-.83-6.92 5.95-11.76 2.35-23.38-9.27-30.02l-6.78-3.87-32.1-.97c-40.68-1.25-48.43-2.77-45.24-8.86 2.08-4.01 6.5-4.15 17.43-.55 11.07 3.6 23.11 4.29 30.02 1.94 4.57-1.66 4.15-3.74-.97-3.74-1.94 0-4.57-.83-5.95-1.94-2.21-1.8-2.08-1.94 2.63-1.25 15.36 2.08 20.75 2.35 20.75.83 0-.83-2.35-2.49-5.4-3.87-18.13-7.89-41.09-8.72-54.38-2.08-6.64 3.46-13.14 10.1-13.14 13.56 0 2.35 6.09 7.19 10.79 8.72 2.63.83 19.51 2.08 37.5 2.77 35.14 1.38 41.09 2.49 45.8 8.44 3.32 4.43 3.18 10.93-.28 15.08l-2.91 3.32-9.82-2.08c-5.4-1.11-14.67-3.87-20.62-6.09-18.82-6.92-18.82-6.78-33.76 5.81-4.98 4.29-14.94 10.93-21.86 14.94-17.85 9.96-21.45 15.63-24.21 38.46-.55 4.29-2.63 8.86-7.19 15.91-9.55 14.94-12.31 21.86-13.56 34.59-.69 6.64-2.63 15.63-4.84 22-3.18 8.99-3.74 12.87-3.87 22.55 0 9.96-.42 12.45-3.04 17.3-1.66 3.04-3.46 8.44-3.87 12.04-1.38 10.79-1.8 11.9-7.47 18.4-3.04 3.46-5.95 7.61-6.36 9.27-.55 1.66-2.49 4.84-4.43 7.19-4.01 4.7-5.53 9.41-4.29 12.73.69 1.94 1.25 1.8 4.01-1.66l3.18-3.87-.83 4.84-.83 4.84h5.4c3.18-.11 7.19-1.22 9.54-2.6m96.16-268.42c-1.25-2.08-.28-2.21 4.43-.42l4.43 1.66-4.01.14c-2.22-.13-4.29-.69-4.85-1.38M78.26 219.03c-5.81-30.72-9.69-65.44-11.62-105.02-2.08-41.65-2.08-42.2-4.43-45.8-1.25-1.94-2.63-3.46-3.32-3.46-3.6 0 1.11 72.5 7.19 109.86 3.46 21.45 11.35 53.68 13.01 53.68.41.01.13-4.14-.83-9.26m22.13-118.85c0-2.63-.14-4.84-.42-4.84s-3.74 1.11-7.75 2.49-7.61 2.21-7.89 1.94c-.42-.42-.97-10.1-1.25-21.72s-.97-21.03-1.52-21.03-2.49.55-4.29 1.25L74.1 59.5v54.8l13.14-4.7 13.14-4.7zM441.73 59.5c-.55-.55-2.49-1.38-4.43-1.8l-3.46-.83v53.96l4.01 1.66 4.01 1.66.28-26.84c.42-14.8.14-27.25-.41-27.81m-16.6 20.62c0-14.67-.42-26.98-.97-27.26s-2.77-.97-5.12-1.52l-4.15-.97.42 12.87c.28 7.06.14 12.87-.14 12.87s-3.04-6.23-5.95-13.7c-6.5-16.74-6.23-16.46-11.21-17.43l-4.01-.97v26.84c0 14.8.42 27.12.97 27.4s2.49.97 4.43 1.38l3.46.83V85.51c0-8.3.42-14.39 1.11-13.7.55.69 3.74 8.3 7.06 17.02 5.95 15.36 7.61 17.71 12.87 17.99.95.14 1.23-6.09 1.23-26.7m-317.54 22.83c3.46-1.25 4.01-2.21 5.4-8.86 1.25-6.78 1.8-7.47 5.26-8.16 5.67-1.11 5.67-1.11 6.5 4.01 1.25 7.47 1.94 8.16 7.33 6.64 2.49-.69 4.7-1.66 4.7-1.94s-2.21-8.86-4.84-18.82-5.53-21.17-6.5-24.9c-1.66-6.64-1.8-6.78-5.53-5.95-2.08.42-4.29 1.25-4.7 1.66-.97.83-13.56 53.13-13.56 56.04-.01 2.08.96 2.08 5.94.28m9.55-29.47c.42-2.21.83-4.84.83-5.95 0-3.18 2.08 0 2.91 4.43.55 3.32.28 4.15-1.8 4.7-2.5.69-2.64.28-1.94-3.18m342.99 4.7c.14-9.27-.83-14.67-2.35-14.67-.42 0-1.94.69-3.18 1.66-2.21 1.66-2.21 2.21-.14 15.63 1.11 7.75 2.49 14.8 2.91 15.91 1.1 2.78 2.76-8.01 2.76-18.53M385 69.46v-27.4l-4.01-.83c-2.21-.42-4.01-.69-4.15-.42-.14.14-.69 12.18-1.11 26.7l-.83 26.43 4.7 1.25c2.63.69 4.84 1.38 4.98 1.38.28.15.42-12.16.42-27.11M147.71 93.4c2.63-.69 2.77-1.38 2.91-13.14l.14-12.31 4.01 12.45c2.21 6.92 4.43 12.73 4.7 13.14.42.42 1.8-3.18 3.18-8.02s3.32-11.62 4.43-15.08l1.8-6.36.14 12.87.14 12.87 4.7-.83 4.7-.83-.42-26.84c-.28-14.8-.55-26.98-.83-27.26-.14-.28-2.21.14-4.57.69-4.01 1.11-4.29 1.52-8.58 16.19L159.75 66l-4.57-13.84c-4.57-13.7-4.57-13.84-8.16-13.42-2.08.28-4.01.83-4.57 1.25-.42.42-1.11 12.73-1.25 27.4-.13 28.92-.41 27.81 6.51 26.01m219.72-27.26c0-14.67-.42-26.98-.97-27.4-.55-.28-2.63-.83-4.7-.97l-3.74-.42-.42 9.96c-.42 9.82-.42 9.96-3.74 9.82-8.44 0-8.86-.55-9.27-11.9l-.42-10.38-4.01-.42-4.01-.42v26.84c0 28.64-.14 28.36 6.36 28.36 2.08 0 2.35-1.25 2.77-11.76l.42-11.76 4.98.42c2.77.28 5.4.69 5.95.97s.97 5.95.97 12.59v12.04l4.01.55c2.21.28 4.57.55 4.98.69.42-.1.84-12.14.84-26.81M207.9 84.54c8.16-3.46 11.76-16.05 6.78-24.21-2.08-3.32-2.08-4.29-.55-6.36 2.35-3.32 2.21-13.42-.28-17.02-3.04-4.43-7.47-5.53-17.71-4.57l-9.13.83V88l8.44-.83c4.56-.69 10.24-1.79 12.45-2.63m-11.76-8.71c-.42-.97-.55-4.29-.28-7.33.42-4.98.69-5.67 3.87-5.95 4.98-.55 7.19 1.8 7.19 7.61 0 4.15-.55 5.12-3.18 6.23-4.42 1.65-6.77 1.51-7.6-.56m-.55-28.23c0-4.84.42-5.67 3.04-6.36 4.29-1.11 6.92.28 7.75 3.87.97 4.15-2.63 8.16-7.19 8.16-3.33.01-3.6-.27-3.6-5.67m126.04 37.5c4.57-2.08 7.06-8.44 7.06-17.99v-8.3l-5.81-.83c-9.13-1.25-9.27-1.25-9.27 3.6 0 3.6.42 4.43 2.49 4.43 3.6 0 3.74 9.69 0 10.79-6.36 2.08-10.1-5.12-10.1-19.51 0-10.65 2.49-16.88 6.92-16.88 2.49 0 3.6.97 4.7 3.87 1.38 3.6 1.8 3.87 5.81 3.04 2.35-.42 4.57-.97 4.84-1.25.28-.28-.42-2.35-1.38-4.84-5.53-13.42-21.72-14.39-27.26-1.66-3.32 7.75-4.29 19.92-2.35 29.47 2.08 10.38 8.58 17.3 16.05 17.3 2.77.14 6.5-.55 8.3-1.24m-76.37-2.35c5.53-3.46 8.44-10.52 8.99-22.55.97-19.51-5.12-31.13-16.33-31.13-4.01 0-5.81.83-9.13 4.29-5.53 5.67-7.19 12.87-6.64 27.67.42 9.69.97 13.01 3.18 16.74 4.71 7.47 12.73 9.54 19.93 4.98m-9.96-8.44c-6.36-6.5-5.26-33.07 1.52-35.7 8.02-3.18 11.76 27.12 4.43 35.28-2.5 2.91-3.46 2.91-5.95.42m56.86 9.82c0-.55-1.66-6.09-3.74-12.31l-3.74-11.21 3.87-4.57c3.46-4.15 3.87-5.12 3.32-11.35-.97-11.48-7.19-15.77-23.24-15.77h-7.89v55.06h9.96V72.51c0-15.36 2.08-15.36 7.47-.14 3.6 10.1 4.43 11.48 7.33 11.9 6.25.97 6.66.97 6.66-.14m-21.31-38.88v-6.78l4.29.55c5.53.69 7.19 2.77 6.78 8.16-.42 4.01-.69 4.29-5.67 4.57l-5.4.42zM68.99 56.73c.14-1.66-4.29-.97-7.33 1.11l-2.91 2.08 2.91 3.04 2.9 3.04 2.21-4.15c1.11-2.21 2.08-4.56 2.22-5.12" style="fill:#282928" transform="translate(-2.312 3.854)"/><path d="M539.98 488.65c-92.29-69.46-149.29-154.69-175.72-262.61-10.65-43.45-17.16-96.99-17.16-142.1 0-24.63 1.8-27.26 23.38-35.84 69.18-27.4 171.98-37.08 272.02-25.6 50.64 5.81 114.7 24.07 124.8 35.56 4.15 4.7 4.98 7.33 2.21 6.36-.97-.28-3.04.42-4.7 1.8-3.04 2.35-3.04 2.35-1.11 13.42 1.11 6.09 2.35 17.43 2.91 25.18.55 7.75 1.38 14.11 1.94 14.11 1.8 0 2.63-9.27 2.91-31.55l.28-21.72.42 17.85c.83 33.34-4.01 82.74-12.18 122.86-15.22 74.71-44.69 139.33-89.38 195.5-28.23 35.42-99.48 99.07-110.97 99.07-2.08.03-9.55-4.68-19.65-12.29m31.69 1.66c17.16-11.07 33.9-25.18 53.13-44.69 26.57-26.84 41.78-44.69 47.18-55.07 1.66-3.18 1.52-3.74-.69-5.81-2.49-2.21-3.04-1.8-20.62 15.5-22 21.72-37.08 33.9-37.08 29.89 0-2.35-17.02-12.04-27.12-15.36-18.13-6.09-37.77-5.53-53.82 1.52l-6.78 3.04-2.21-7.47c-6.23-21.03-9.69-48.98-6.36-51.19.83-.55 3.04-4.57 5.12-9.13 2.63-5.81 5.67-9.82 10.52-13.97 4.15-3.6 7.33-7.47 8.02-10.1 1.25-4.29 7.06-9.82 9.55-8.86 2.08.69-2.63 10.1-8.58 17.02-2.91 3.32-5.95 7.89-6.92 10.24-1.52 3.74-1.52 4.57.42 6.36 1.94 1.94 2.21 1.94 3.04-.42.83-2.35 1.11-2.21 1.8.69.97 4.29 4.98 4.84 12.18 1.52 5.12-2.21 5.81-3.18 6.64-7.75.42-2.91 1.8-5.95 2.91-6.92 1.38-1.11 1.94-3.46 1.8-7.06-.42-5.53 1.11-12.59 2.63-12.59s5.12 7.06 6.09 12.18c.55 2.77 2.08 6.36 3.46 8.16 2.49 3.04 3.18 3.32 16.05 3.32h13.56l3.74-4.84c2.91-3.74 3.74-6.5 3.87-11.76.28-9.27 5.12-17.16 14.67-24.07l7.47-5.4 2.08 2.77c1.11 1.52 3.32 6.36 4.98 10.52 2.21 6.09 2.49 8.58 1.52 11.21-.69 1.94-1.52 7.06-1.8 11.48-.28 4.43-.83 10.1-1.38 12.73-.69 4.15-.42 5.12 2.77 7.61 4.57 3.6 5.67 3.6 7.06-.14.83-2.08 1.25-2.35 1.25-.69.14 3.74 2.77 4.15 6.23.83 2.77-2.63 3.18-3.87 2.49-8.3-.42-2.91-1.25-9.13-1.94-13.84-.55-4.7-1.52-9.55-2.08-10.93-.55-1.25-.28-7.75.69-14.39 1.52-11.48 1.52-12.31-1.11-17.57-3.87-7.61-3.6-8.72 1.38-6.23 5.67 2.91 18.4 4.01 23.38 1.8 4.29-1.8 9.13-7.06 9.13-9.96 0-1.25-1.52-1.52-6.23-.97-5.12.55-6.92.14-10.38-2.35-2.21-1.66-6.5-4.84-9.55-7.06-5.12-3.74-5.4-4.15-4.7-9.41.42-3.04-.14-9.55-1.38-14.94-1.25-5.26-1.8-11.35-1.38-13.56s1.38-6.92 2.08-10.38c1.8-8.72-.42-17.57-6.5-26.84-2.77-4.15-5.67-9.82-6.64-12.73s-2.77-6.92-4.15-8.86c-2.49-3.46-2.49-3.87-.28-10.38 4.15-12.73-.14-22.97-12.18-28.92-5.81-2.91-8.44-3.18-38.46-4.01-28.78-.83-43.86-2.21-47.32-4.43-2.49-1.52-1.11-5.95 2.21-7.47 2.77-1.25 5.12-.97 14.8 2.21 12.18 4.01 25.04 4.84 32.1 2.08 4.7-1.8 3.6-3.46-2.91-4.57-2.91-.42-5.53-1.38-5.95-2.08-1.11-1.8 1.66-1.66 11.76.69 8.16 1.94 15.22 1.52 15.22-.69 0-1.38-11.07-5.95-20.48-8.44-10.65-2.77-29.75-2.77-38.33.14-8.02 2.63-16.6 9.55-17.85 14.39-1.11 4.43 2.63 8.58 9.41 10.93 2.77.97 20.89 2.35 41.65 3.32 39.02 1.8 42.62 2.49 47.18 8.99 3.04 4.29 2.63 10.79-.97 14.94-3.04 3.46-3.18 3.46-10.24 1.94-3.87-.83-14.8-4.15-24.21-7.19-13.28-4.29-17.99-5.26-21.03-4.43-2.08.55-8.3 4.84-13.7 9.55-5.4 4.7-15.63 11.48-22.69 15.22-18.13 9.55-23.66 17.02-25.87 34.59-1.25 9.96-3.46 15.08-12.59 29.47-6.23 9.82-9.69 19.92-9.69 27.67 0 4.01-1.8 11.9-4.57 20.34-3.87 11.62-4.57 15.5-4.57 25.46 0 9.82-.55 12.59-3.32 17.99-1.8 3.46-3.6 9.27-4.01 12.87-1.25 10.79-1.52 11.48-8.44 19.65-3.6 4.29-6.64 8.86-6.64 10.24 0 1.25-.55 2.35-1.25 2.35-2.21 0-7.89 9.69-7.89 13.42 0 4.98 2.49 5.95 5.4 2.21l2.49-3.18-.83 4.29c-.69 3.74-.42 4.29 1.94 4.29 1.94 0 3.87 1.94 6.23 6.23 13.84 24.35 44.55 60.05 67.38 78.59 11.62 9.41 27.4 20.2 29.61 20.2.4.15 4.83-2.34 9.4-5.25m-89.38-121.2c.69-1.94 1.25-6.36 1.11-9.96-.14-5.26.55-7.33 3.74-11.48 4.98-6.36 7.61-11.35 9.55-18.68 1.66-6.23 15.36-32.93 16.88-32.93 2.77 0 4.15 4.01 4.15 12.04 0 6.64.55 9.13 2.08 9.96 3.32 1.94-1.38 15.22-7.61 21.17-7.89 7.75-11.9 11.21-15.77 13.56-2.63 1.66-3.87 3.74-4.43 7.61-.42 2.91-1.38 5.26-1.94 5.26s-2.91 1.52-5.12 3.46l-4.01 3.46zm90.62-256.66c-1.66-1.11-1.52-1.25.69-1.25 1.38 0 3.87.55 5.26 1.25 2.35.97 2.35 1.11-.69 1.25-1.8-.01-4.15-.56-5.26-1.25m-185.96 167c-2.49-7.75-7.06-24.77-10.24-37.77-11.07-44.55-14.67-74.58-18.54-150.54-.69-12.87-1.38-17.43-3.32-20.62-2.91-4.84-5.12-5.26-5.26-1.11-1.66 53.82 7.19 122.45 22.41 172.54 6.64 21.72 17.3 51.61 18.54 51.61.57 0-1.09-6.36-3.59-14.11m40.96-77.07c25.6-6.78 49.39-26.43 60.46-49.95 1.38-2.91 2.49-5.53 2.63-5.95s1.25-4.15 2.63-8.58c1.8-5.81 2.49-11.9 2.49-23.66 0-17.71-.97-22.83-4.29-23.11-1.25-.14 1.11-.69 5.26-1.25 14.25-2.08 19.37-7.19 19.37-19.37 0-4.43-.83-7.47-2.49-9.55-2.35-2.91-2.35-3.32-.28-5.53 1.38-1.52 2.21-4.7 2.21-8.99 0-5.67-.55-7.06-4.29-10.38-4.57-4.01-10.38-4.84-21.58-3.04l-4.98.83v17.43c0 9.55-.42 18.4-.83 19.51-.42 1.11-2.21 2.08-3.87 2.08h-3.18V53.78c0-18.82 0-19.09-2.91-18.96-7.61 0-8.16.83-12.87 16.74l-4.43 15.22-4.57-13.97-4.57-13.97-4.7.83c-2.49.42-5.12 1.11-5.67 1.38-.55.28-.97 8.72-.97 18.68V78l-3.46.83c-1.94.42-3.87.42-4.43-.14-.55-.55-2.77-8.02-4.98-16.6s-4.29-15.91-4.7-16.19c-.28-.28-2.63-.14-5.26.28l-4.7.83-3.46 14.67c-6.23 26.43-4.98 24.07-12.87 25.87-3.74.83-8.86 2.35-11.21 3.32l-4.29 1.8V74.81c0-15.77-.28-17.71-2.08-17.02-1.11.42-3.6 1.11-5.26 1.66l-3.18.83.55 29.75c.55 32.79 2.21 44.69 10.65 75.13 6.36 23.24 12.18 37.77 15.63 39.29 4.04 1.67 24.93.42 34.48-2.07M412 76.2c.42-1.11.83-3.32.83-4.84 0-3.6 2.08-1.52 3.18 3.32.69 3.04.42 3.6-1.94 3.6-2.07-.01-2.63-.56-2.07-2.08m83.43-4.29c0-5.53.42-6.5 2.91-7.19 4.57-1.25 7.61 1.25 7.61 6.09 0 5.26-1.94 7.47-6.78 7.47-3.6-.01-3.74-.28-3.74-6.37m-47.73 4.15c-.42-.42-.83-1.8-.83-2.91 0-1.66.28-1.66 1.38.28 1.52 2.49 1.11 4.29-.55 2.63m17.71-4.29c0-1.8.28-2.49.69-1.66.42.97.42 2.35 0 3.32-.28.83-.69.14-.69-1.66m30.02-22.97c0-5.81 0-5.95 4.57-5.95s5.4 1.11 4.7 6.5c-.28 2.49-3.87 5.26-6.92 5.26-1.94 0-2.35-1.1-2.35-5.81m253.34 118.85c3.74-9.13 9.27-42.48 9.27-54.93 0-4.7-.97-9.55-2.63-12.87-2.08-4.29-2.49-8.16-2.63-22.41V60.29l-4.57-1.38-4.57-1.38-.42 15.91c-.42 15.08-.55 15.91-3.04 15.5-5.95-.83-5.95-.83-5.95-18.4V53.65l-4.15-.83c-2.21-.42-4.57-.83-5.26-.83s-1.11 5.81-1.25 12.73v12.87l-5.95-14.39c-3.32-7.89-6.36-14.8-6.78-15.22s-2.77-1.25-5.12-1.8l-4.29-.83V62.5c0 17.02 0 17.16-3.04 17.16-5.53 0-6.23-2.21-6.23-19.79 0-16.19-.14-16.6-2.91-17.43-7.75-2.08-7.61-2.35-7.61 17.02v17.85l-2.91-.83c-1.66-.42-3.46-.83-3.87-.83-.55 0-.97-8.16-.97-18.26V39.26l-4.15-.83c-2.21-.42-4.57-.83-5.26-.83s-1.11 4.7-1.11 10.52c0 11.35.14 11.21-7.61 9.69l-4.01-.83-.42-10.65-.42-10.65-4.98-.42-4.98-.42V91.3l4.57.55c2.49.28 4.84.28 5.26-.14.28-.28.55-5.81.55-12.18 0-12.59-.14-12.31 7.75-10.79l4.15.83.14 9.96c.14 11.07 1.94 36.11 2.91 40.26 5.12 20.34 21.31 39.16 40.54 46.63 10.1 4.01 16.05 4.98 28.92 4.84 11.23-.28 11.64-.42 13.03-3.61m-35.98-85.78c-1.38-4.57-1.66-7.47-.69-6.92 1.8 1.11 4.01 8.58 2.49 8.58-.69 0-1.52-.69-1.8-1.66m-85.09 4.84c4.29-2.77 5.53-7.06 5.53-17.57 0-9.96-.55-10.52-10.79-10.52-4.84 0-4.98 0-4.98 5.26 0 4.43.42 5.26 2.63 5.26 2.08 0 2.63.83 2.63 3.74 0 5.53-3.04 7.61-7.19 4.84s-5.26-6.92-5.26-19.23c0-15.08 5.81-22 10.93-13.01 1.94 3.46 2.91 3.87 6.78 3.6 4.15-.28 4.57-.69 4.29-4.01-.55-8.58-10.93-15.63-19.51-13.56-5.12 1.25-10.52 7.61-12.18 14.39-3.18 12.73-.83 30.44 5.12 38.05 4.85 6.08 15.08 7.33 22 2.76m-79.97-2.49c5.53-4.7 8.3-12.59 8.58-24.21.28-19.23-5.81-30.16-16.74-30.16-11.62 0-18.4 10.79-18.4 29.47 0 12.18 3.04 21.58 8.16 25.6 4.84 3.73 13.42 3.45 18.4-.7m-13.01-9.41c-1.25-1.38-1.94-6.5-2.21-14.8-.42-13.97 1.11-18.82 5.95-19.65 4.84-.69 7.19 7.06 6.64 20.89-.55 11.76-2.08 15.5-6.36 15.5-1.25.28-3.05-.69-4.02-1.94m37.91.56c.55-15.36 2.63-15.22 8.16.28l4.29 11.76h5.67c3.18 0 5.67-.14 5.67-.28s-1.94-5.81-4.43-12.59l-4.29-12.31 3.74-3.74c3.04-3.04 3.74-4.84 3.74-10.38 0-13.56-4.57-17.43-21.31-18.26l-11.48-.55v28.23c0 30.16 0 29.89 6.5 29.33 3.33-.01 3.33-.28 3.74-11.49m.28-28.64c0-6.5 0-6.5 4.29-6.5 5.26 0 7.47 1.94 7.47 6.5 0 4.57-2.21 6.5-7.47 6.5-4.29.14-4.29.14-4.29-6.5M358.87 66.1c0-.83 1.52-3.74 3.32-6.5 2.63-3.87 2.91-4.84 1.25-4.84-2.21 0-12.45 4.84-12.45 5.95 0 .42 1.25 2.35 2.77 4.57 2.89 3.59 5.11 4 5.11.82m76.51-30.44c54.93-8.86 109.44-11.62 167.14-8.58 23.52 1.25 63.51 5.12 79.42 7.75 6.92 1.11 9.13.97 7.61-.55-1.11-1.11-31.96-6.92-48.29-8.99-30.72-4.01-55.07-5.12-99.07-4.43-45.8.69-65.17 2.35-95.19 8.3-22.28 4.29-41.09 9.82-33.76 9.82 1.11-.14 11.07-1.52 22.14-3.32" style="fill:#040404" transform="matrix(.95537 0 0 .97326 -278.745 3.935)"/></svg>