<?xml version="1.0" encoding="utf-8"?>
<!-- Generator: Adobe Illustrator 27.0.0, SVG Export Plug-In . SVG Version: 6.00 Build 0)  -->
<svg version="1.1" id="Layer_1" xmlns="http://www.w3.org/2000/svg" xmlns:xlink="http://www.w3.org/1999/xlink" x="0px" y="0px"
	 viewBox="0 0 512 512" style="enable-background:new 0 0 512 512;" xml:space="preserve">
<style type="text/css">
	.st0{fill:#F7DE9F;}
	.st1{fill:#F9CE5C;}
	.st2{fill:#D8A016;}
	.st3{fill:#9F6B08;}
	.st4{fill:#5C4B21;}
	.st5{fill:#282928;}
	.st6{fill:#040404;}
</style>
<g id="g3854" transform="translate(-2.3121387,3.8535645)">
	<path id="path3040" class="st0" d="M244.98,504.33c-7.19-4.01-27.81-19.92-44.28-34.04c-27.26-23.38-51.06-49.26-72.36-78.31
		c-45.94-62.54-74.3-135.32-86.75-222.21c-5.95-41.51-8.16-99.34-4.43-112.35c2.35-8.16,7.75-15.77,14.67-20.62
		c7.47-5.26,31.13-14.53,52.3-20.62C149.23,3.19,198.91-3.04,257.99-3.04c75.27,0,136.84,9.96,188.86,30.85
		c18.54,7.47,25.46,12.73,30.72,23.8l3.46,7.33l-0.14,31.96c-0.28,88.69-20.2,175.03-56.73,244.62
		c-9.27,17.71-31.27,52.02-42.2,65.86c-20.2,25.46-43.45,49.81-66.55,69.73c-15.63,13.42-38.74,30.99-45.11,34.18
		C262.41,509.31,253.14,509.04,244.98,504.33L244.98,504.33z M260.62,502.12c-1.25-0.28-3.18-0.28-4.43,0s-0.28,0.55,2.21,0.55
		C260.75,502.67,261.72,502.39,260.62,502.12z M210.67,470.57c0-0.28-0.97-1.25-2.21-2.21c-1.94-1.52-2.08-1.52-0.42,0.42
		C209.7,470.99,210.67,471.54,210.67,470.57L210.67,470.57z M203.2,464.21c0-0.28-1.52-1.8-3.46-3.46l-3.46-3.04l3.04,3.46
		C202.23,464.48,203.2,465.18,203.2,464.21z M185.62,447.46c-4.43-4.57-8.3-8.3-8.72-8.3c-0.28,0,3.04,3.74,7.47,8.3
		s8.3,8.3,8.72,8.3C193.37,455.77,190.05,452.03,185.62,447.46z M166.81,428.23c-4.43-4.57-8.3-8.3-8.72-8.3
		c-0.28,0,3.04,3.74,7.47,8.3s8.3,8.3,8.72,8.3C174.55,436.53,171.23,432.8,166.81,428.23z M155.46,415.64
		c0-0.28-1.52-1.8-3.46-3.46l-3.46-3.04l3.04,3.46C154.49,415.92,155.46,416.75,155.46,415.64z M147.99,406.65
		c0-0.28-1.25-1.52-2.77-2.91l-2.77-2.49l2.35,2.91C147.02,406.93,147.99,407.76,147.99,406.65z M143.01,400.28
		c0-0.28-1.25-1.52-2.77-2.91l-2.77-2.49l2.35,2.91C142.04,400.56,143.01,401.39,143.01,400.28L143.01,400.28z M138.03,393.92
		c0-0.28-0.97-1.25-2.21-2.21c-1.94-1.52-2.08-1.52-0.42,0.42C136.92,394.33,138.03,394.89,138.03,393.92z M134.15,388.8
		c0-0.28-0.97-1.25-2.21-2.21c-1.94-1.52-2.08-1.52-0.42,0.42C133.18,389.22,134.15,389.91,134.15,388.8L134.15,388.8z
		 M130.42,383.68c0-0.28-0.97-1.25-2.21-2.21c-1.94-1.52-2.08-1.52-0.42,0.42C129.45,384.1,130.42,384.79,130.42,383.68
		L130.42,383.68z M112.85,357.39c-0.69-1.38-1.66-2.49-1.94-2.49s0,1.11,0.69,2.49s1.66,2.49,1.94,2.49
		C113.95,359.88,113.68,358.78,112.85,357.39z M109.11,350.89c-0.69-1.38-1.66-2.49-1.94-2.49s0,1.11,0.69,2.49s1.66,2.49,1.94,2.49
		C110.22,353.52,109.8,352.41,109.11,350.89z M105.37,344.52c-0.69-1.38-1.66-2.49-1.94-2.49s0,1.11,0.69,2.49s1.66,2.49,1.94,2.49
		C106.48,347.15,106.07,345.91,105.37,344.52z M93.75,322.25c-3.6-7.33-6.78-13.14-6.92-12.87c-0.55,0.55,12.04,26.29,12.87,26.29
		C100.12,335.67,97.35,329.58,93.75,322.25z M82.96,299c-1.52-2.63-1.8-1.8-0.69,1.38c0.42,1.11,1.11,1.8,1.38,1.52
		C84.07,301.63,83.65,300.25,82.96,299z M203.47,77.9c-0.97-0.42-1.94-0.28-2.35,0.14c-0.42,0.42,0.28,0.69,1.66,0.69
		C204.16,78.73,204.44,78.32,203.47,77.9z M45.6,53.83c0.42-1.11,0.28-1.66-0.55-1.25c-0.69,0.42-1.25,1.38-1.25,1.94
		C43.94,56.46,44.77,56.04,45.6,53.83z M472.86,54.66c0-0.69-1.11-2.49-2.63-4.15l-2.63-3.04l2.21,4.15
		C472.17,56.04,472.86,56.6,472.86,54.66z M175.8,35.84c-0.97-0.42-1.94-0.28-2.35,0.14c-0.42,0.42,0.28,0.69,1.66,0.69
		C176.49,36.53,176.77,36.26,175.8,35.84z M230.18,34.18c1.25-1.38,1.94-2.49,1.66-2.49s-1.66,1.11-2.91,2.49
		c-1.25,1.38-1.94,2.49-1.66,2.49C227.55,36.67,228.93,35.57,230.18,34.18z M198.35,33.21c-0.97-0.42-1.94-0.28-2.35,0.14
		c-0.42,0.42,0.28,0.69,1.66,0.69C199.04,33.9,199.46,33.63,198.35,33.21z M348.89,9c-0.97-0.42-1.94-0.28-2.35,0.14
		c-0.42,0.42,0.28,0.69,1.66,0.69C349.58,9.69,349.86,9.41,348.89,9z M338.79,7.75c-0.97-0.42-1.94-0.28-2.35,0.14
		c-0.42,0.42,0.28,0.69,1.66,0.69C339.62,8.45,339.9,8.03,338.79,7.75z M328.97,6.37c-0.83-0.42-2.21-0.42-3.18,0
		c-0.83,0.42-0.14,0.69,1.52,0.69C328.97,7.06,329.8,6.79,328.97,6.37z M204.72,5.13c-0.97-0.42-1.94-0.28-2.35,0.14
		c-0.42,0.42,0.28,0.69,1.66,0.69C205.41,5.82,205.69,5.54,204.72,5.13z M314.44,5.13c-1.25-0.28-2.91-0.28-3.74,0
		c-0.83,0.42,0.14,0.55,2.21,0.55S315.68,5.4,314.44,5.13z M228.52,3.74c-2.21-0.28-5.67-0.28-7.47,0c-1.94,0.28,0,0.55,4.15,0.55
		C229.21,4.3,230.87,4.16,228.52,3.74z M295.07,3.74c-2.21-0.28-5.67-0.28-7.47,0c-1.94,0.28,0,0.55,4.15,0.55
		C295.76,4.3,297.28,4.16,295.07,3.74L295.07,3.74z"/>
	<path id="path3038" class="st1" d="M246.5,504.88c-22.41-12.04-74.85-59.5-102.25-92.56C74.94,328.06,40.34,226.5,35.64,92.98
		c-1.11-33.07,0.97-41.65,13.28-52.85C64.7,25.74,126.68,7.75,181.89,1.67C284.41-9.68,382.79,0.98,453.07,31
		c19.65,8.44,27.26,19.51,28.36,41.37c0.69,14.39-1.52,57.28-4.15,80.39c-16.19,142.1-74.44,249.6-181.11,333.73
		c-22.41,17.71-27.67,20.75-36.25,21.31C254.11,508.07,251.48,507.51,246.5,504.88z M275.56,495.34
		c40.54-28.09,82.32-69.6,112.63-111.8c39.99-55.9,66.41-122.17,79.56-199.93c7.75-45.52,11.07-111.24,6.36-127.15
		c-2.77-9.27-11.21-16.05-29.61-23.38C390.95,11.63,317.48,0.56,242.77,2.64c-68.07,1.94-123,11.76-170.05,30.44
		c-13.42,5.4-16.88,7.33-22.69,13.01c-6.78,6.5-6.92,6.92-8.44,16.88c-1.8,11.9-0.14,57.7,3.18,87.44
		c16.33,144.59,75.68,252.51,185.68,336.91c17.3,13.28,21.58,15.63,28.36,15.63C263.66,502.95,265.87,501.98,275.56,495.34z
		 M245.81,496.44c-5.81-3.6-22.28-16.33-35.14-27.12C142.46,411.91,95.41,341.9,68.29,257.63c-10.38-32.38-18.26-70.43-22.55-109.86
		c-2.08-19.09-4.57-73.75-3.6-79.83c1.52-9.69,1.52-9.69,4.43-8.16c4.01,2.21,5.81-0.42,3.18-4.57c-1.66-2.49-1.8-3.87-0.69-5.81
		C55.98,36.4,118.8,16.33,175.11,9.28c27.26-3.46,48.56-4.57,83.57-4.57c67.52,0,118.44,7.19,167.28,23.52
		c22,7.47,35.42,13.28,38.88,17.3c2.21,2.49,2.21,2.77,0.14,6.36c-2.77,4.7-1.8,6.36,3.6,6.36c4.57,0,4.43-0.14,6.09,9.96
		c0.97,6.23-1.52,61.99-3.74,81.91c-10.24,92.29-39.02,171.01-86.34,235.9c-27.81,38.33-70.7,80.53-108.47,106.95l-8.99,6.36
		l-2.08-2.91c-1.66-2.49-2.77-2.77-7.19-2.21c-2.77,0.42-5.67,1.52-6.5,2.63C250.24,498.8,249.55,498.66,245.81,496.44
		L245.81,496.44z M218.83,337.47c2.21-2.21,2.63-5.67,0.69-5.67c-0.69,0-1.25,0.55-1.25,1.25s-1.38,1.66-3.18,2.08
		c-3.18,0.83-3.87,1.94-2.35,3.46C214.26,340.1,216.75,339.54,218.83,337.47z M185.62,320.86c0-0.28-0.55-0.55-1.25-0.55
		s-1.25,0.55-1.25,1.38c0,0.69,0.55,0.97,1.25,0.55C185.07,321.83,185.62,321.14,185.62,320.86z M273.21,310.07
		c-2.08-3.46-4.01-6.36-4.29-6.36s1.11,3.04,2.91,6.78c1.8,3.74,3.74,6.64,4.29,6.36S275.42,313.53,273.21,310.07z M294.1,288.35
		c0.42-0.69-0.42-1.11-2.08-0.97c-2.21,0.28-3.04-0.55-3.74-3.46c-0.83-3.6-0.83-3.6-0.97-0.55
		C287.18,288.21,292.02,291.81,294.1,288.35L294.1,288.35z M265.73,268.7c5.67-1.11,7.61-2.91,7.61-7.06c0-3.74-3.6-10.1-3.74-6.36
		c0,1.11-2.49,4.43-5.53,7.47c-3.04,3.04-5.81,6.64-6.23,8.02c-0.55,2.21-0.42,2.35,1.52,0.69
		C260.48,270.36,263.38,269.12,265.73,268.7L265.73,268.7z M306,266.63c-8.3-1.11-11.21-2.49-15.5-7.75
		c-5.4-6.5-3.87-13.97,3.46-17.3l4.01-1.8h-4.43c-13.14-0.14-13.42,18.4-0.28,25.32c3.32,1.8,7.06,2.49,12.31,2.49l7.47-0.14
		L306,266.63L306,266.63z M341,254.45c0-1.38-0.42-1.8-0.69-0.97c-0.42,0.83-1.66,1.66-3.04,1.66s-2.35,0.42-2.35,0.97
		s1.38,0.97,3.18,0.97C340.31,257.08,341.14,256.39,341,254.45L341,254.45z M207.48,247.12c2.08-3.32,5.12-6.36,6.78-6.78
		c3.46-0.97,11.9,1.52,16.74,4.98c4.98,3.46,11.35,4.29,13.42,1.66c0.97-1.11,3.18-2.08,4.98-2.08c3.18,0,3.18-0.14,0.83-1.94
		c-1.52-1.11-5.26-1.94-10.1-1.94c-9.27,0-13.28-1.94-15.77-7.47l-1.94-4.15l-2.35,2.63c-3.32,3.74-7.33,2.91-8.16-1.94l-0.69-3.87
		l-3.87,5.81c-5.53,8.16-8.02,13.42-8.02,17.02C199.46,255.84,202.37,255.14,207.48,247.12L207.48,247.12z M283.17,232.18
		c1.25-0.28-0.14-8.72-2.21-12.73c-1.94-3.74-3.46-5.12-6.64-5.81c-12.31-2.49-15.36-6.23-14.25-17.71
		c0.83-8.72,0.83-8.99-5.95-13.97c-2.63-1.94-5.4-4.98-6.23-6.64c-1.8-4.01-3.6-3.87-12.18,0.97c-10.1,5.67-11.07,7.61-6.5,13.56
		c2.08,2.63,4.01,7.19,4.57,10.24c0.42,3.04,1.52,5.4,2.49,5.4c2.35,0,4.43,5.81,4.43,11.9c0,4.57,0.83,6.36,5.53,11.76l5.53,6.36
		l15.5-1.52C275.83,233.01,282.89,232.31,283.17,232.18L283.17,232.18z M310.29,222.49c-1.66-4.57-4.84-15.08-6.92-23.38
		c-2.21-8.72-6.23-19.92-9.55-26.7c-5.4-11.21-7.06-13.14-8.44-10.79c-0.83,1.38,5.81,17.85,10.52,26.29
		c1.94,3.6,5.12,12.45,6.92,19.92c1.94,7.75,4.7,15.5,6.5,18.26c1.8,2.63,3.46,4.84,3.6,4.84
		C313.19,230.79,312.09,227.06,310.29,222.49z M280.68,156.35c-6.5-5.4-3.18-9.41,4.7-5.67c2.49,1.11,3.18,2.21,2.77,4.57
		c-0.42,1.94-0.14,2.63,0.69,1.8c2.21-2.35,0.42-5.95-4.15-8.3c-8.16-4.15-12.45,0.69-5.95,6.92c2.21,2.08,4.29,3.74,4.7,3.6
		C283.72,159.26,282.48,157.88,280.68,156.35z M332.98,148.47c0.97-2.49,1.8-5.81,1.8-7.33c0-3.87-4.15-10.65-7.75-12.59l-2.91-1.52
		l2.63,3.04c5.81,6.64,6.92,12.45,3.6,19.09c-1.25,2.35-1.38,3.74-0.55,3.74C330.63,152.9,332.01,150.96,332.98,148.47z
		 M240.97,118.44c-5.53-3.46-5.12-8.16,0.97-12.45c3.46-2.35,5.67-2.91,10.93-2.63c4.43,0.28,6.64-0.14,6.64-1.11
		c0-0.83,2.63-2.35,5.95-3.46l5.95-1.94l-7.47,0.69c-11.48,0.97-19.65,3.74-25.04,8.44c-4.15,3.6-4.7,4.84-4.01,7.61
		c0.42,1.94,2.35,4.29,4.29,5.26C244.43,121.76,245.81,121.35,240.97,118.44L240.97,118.44z M76.32,86.76
		c-0.42-25.04-0.42-25.18,2.35-26.43c4.15-1.94,3.46-3.32-0.97-1.8l-3.74,1.38v26.01c0,17.99,0.42,26.01,1.38,26.01
		C76.32,112.08,76.6,104.47,76.32,86.76z M283.17,110.97c1.25-0.83,1.11-1.25-0.69-1.66c-1.25-0.28-3.04,0.14-3.87,1.11
		c-1.25,1.38-1.11,1.66,0.69,1.66C280.54,112.08,282.34,111.53,283.17,110.97z M438.69,59.78c1.94,0.69,2.91,0.83,2.21,0.14
		s-2.49-1.66-4.01-2.08l-2.77-0.83l0.28,26.57l0.28,26.57l0.42-25.87l0.42-25.87L438.69,59.78L438.69,59.78z M98.46,97.69
		c0.83-0.83,0.14-0.97-1.94-0.28c-4.84,1.52-11.35,4.29-11.35,4.98C85.31,103.22,97.07,99.07,98.46,97.69z M110.49,73.2
		c5.4-23.52,5.53-24.21,9.27-25.87l3.74-1.66h-3.32c-1.8,0-3.87,0.69-4.57,1.52c-1.25,1.52-12.87,50.64-12.73,53.68
		C103.16,104.19,105.24,96.44,110.49,73.2z M415.3,95.89c-1.52-2.63-1.8-1.8-0.69,1.38c0.42,1.11,1.11,1.8,1.38,1.52
		S415.99,97.14,415.3,95.89z M398.15,47.19c1.66,0.28,2.77,0.14,2.35-0.55c-0.42-0.55-2.08-1.11-3.74-1.11h-3.04l0.28,25.87
		l0.28,25.87l0.42-25.32l0.42-25.32L398.15,47.19z M127.24,89.8c-0.42-2.63-1.11-4.43-1.52-4.01c-0.28,0.42-0.28,2.77,0.28,5.26
		c0.42,2.63,1.11,4.43,1.52,4.01C127.79,94.65,127.65,92.29,127.24,89.8z M143.42,67.11c0.28-24.63,0.28-24.77,3.04-25.18
		c1.52-0.28,2.77-0.97,2.77-1.8c0-0.83-1.25-0.97-2.77-0.55c-1.52,0.42-3.18,0.83-3.74,0.83s-0.97,11.9-0.97,26.43
		s0.28,26.01,0.69,25.74C142.87,92.15,143.29,80.81,143.42,67.11z M380.99,42.76c3.18-0.55,3.04-0.55-0.69-0.69l-4.01-0.14
		l0.28,25.87l0.28,25.87l0.42-25.18l0.42-25.18L380.99,42.76L380.99,42.76z M156.84,78.18c-1.8-5.26-3.46-9.27-3.6-8.99
		c-0.28,0.28,0.83,5.12,2.49,10.65c1.52,5.67,3.18,9.69,3.6,8.99C159.75,88.28,158.64,83.44,156.84,78.18z M359.54,72.78
		c-0.28-3.32-0.42-0.55-0.42,6.09s0.28,9.41,0.42,6.09C359.82,81.5,359.82,76.1,359.54,72.78z M171.79,74.17
		c0-7.47-0.14-13.42-0.42-13.14c-1.11,1.25-1.66,26.7-0.69,26.7C171.37,87.73,171.79,81.64,171.79,74.17z M189.36,60.33V35.57
		l5.67-0.83c3.04-0.42,7.61-0.69,10.1-0.28c2.49,0.28,3.87,0,3.32-0.55c-0.55-0.55-5.53-0.97-10.93-0.69l-9.96,0.42l-0.28,26.57
		c-0.28,17.85,0.14,26.29,0.97,25.74C188.94,85.38,189.36,75.83,189.36,60.33L189.36,60.33z M340.86,36.53l3.46-0.14l-3.18-0.97
		c-1.66-0.55-3.6-0.69-4.01-0.42c-0.55,0.28-0.83,12.18-0.69,26.29l0.28,25.74l0.42-25.18l0.42-25.18L340.86,36.53z M421.11,53.69
		c3.32,0.69,3.32,0.69-0.42-0.97l-3.74-1.8l-0.69,15.5c-0.28,8.58-0.28,16.33,0,17.43c0.28,1.11,0.83-5.53,0.97-14.53l0.42-16.46
		L421.11,53.69z M229.07,78.73c-3.87-4.7-5.12-10.38-4.98-22.55c0.14-10.38,3.04-19.79,7.06-22.69c1.52-1.11,4.98-1.94,7.75-1.94
		c4.15,0,4.7-0.28,2.77-1.38c-3.18-1.8-8.3-0.28-12.45,3.74c-8.86,8.58-9.69,36.53-1.52,45.66
		C231.84,83.99,232.94,83.44,229.07,78.73z M273.34,31.69c5.4,0.28,9.27,0,8.44-0.55c-0.83-0.55-5.53-0.97-10.52-0.97h-9.13
		l0.28,26.57l0.28,26.57l0.42-26.01l0.42-26.01L273.34,31.69L273.34,31.69z M281.51,75c-1.11-3.6-2.35-6.23-2.77-5.95
		c-0.28,0.42,0.28,3.6,1.52,7.19c1.11,3.6,2.35,6.23,2.77,5.95C283.44,81.78,282.75,78.6,281.51,75z M207.07,76.8
		c2.91-2.77,3.18-10.52,0.42-13.97c-1.94-2.35-1.94-2.35-0.69,0.28c3.32,6.92,0.14,14.39-6.09,14.53c-1.8,0-4.15,0.69-5.12,1.38
		c-1.38,0.97-0.55,1.25,3.6,0.69C202.23,79.29,205.69,78.04,207.07,76.8L207.07,76.8z M301.43,75.97
		c-2.77-5.53-3.74-23.38-1.66-30.99c2.21-7.89,7.61-12.45,13.84-11.9c2.63,0.28,4.43,0,4.15-0.55s-2.91-0.97-5.67-0.97
		c-6.23,0-11.48,4.84-13.56,12.18c-2.21,8.3-1.66,24.63,1.11,30.85c1.38,3.04,2.77,5.4,3.18,5.4
		C303.23,80.12,302.54,78.18,301.43,75.97L301.43,75.97z M122.67,77.77c1.38-0.83,1.25-2.21-0.28-7.33l-1.94-6.23l0.69,5.81
		c0.69,5.26,0.42,5.95-2.21,7.19c-2.63,1.25-2.63,1.38-0.42,1.52C119.9,78.73,121.84,78.32,122.67,77.77z M319.7,76.38
		c0.69-1.38,1.25-3.18,1.25-4.15s-0.69-0.28-1.66,1.52c-1.25,2.63-2.49,3.18-6.23,3.04c-2.49-0.14-4.29,0.42-3.87,0.97
		C310.56,79.98,318.45,78.87,319.7,76.38z M244.84,72.51c1.52-3.18,2.21-7.61,2.21-15.36c0-13.7-2.49-19.65-8.3-20.2
		c-2.35-0.28-4.57,0.42-5.4,1.52c-1.38,1.66-1.11,1.66,2.35,0.42c3.6-1.38,4.15-1.25,6.23,1.38c4.57,5.67,4.98,26.29,0.55,33.07
		c-1.66,2.49-2.91,3.18-5.67,2.77c-1.94-0.28-3.32,0-2.91,0.55c0.42,0.55,2.49,0.97,4.7,0.69C241.8,76.94,243.18,75.97,244.84,72.51
		z M171.37,37.92c0.55-0.55,2.21-1.25,3.6-1.66c1.66-0.42,1.25-0.69-1.38-0.83l-3.87-0.14l-3.87,13.7
		c-2.21,7.61-3.87,14.53-3.87,15.63s1.94-4.29,4.29-11.9C168.47,45.25,170.82,38.47,171.37,37.92z M321.49,59.36l6.5-0.42
		l-7.19-0.28c-7.06-0.28-7.19-0.14-7.06,3.32c0.14,2.91,0.28,3.04,0.69,0.69C314.85,60.19,315.96,59.78,321.49,59.36z M213.85,59.78
		c-0.42-0.69-1.38-1.38-2.21-1.38s-0.69,0.69,0.28,1.94C213.71,62.41,215.23,61.99,213.85,59.78z M359.96,49.26V38.89l3.46,0.83
		c2.49,0.55,2.91,0.42,1.52-0.42c-0.97-0.69-2.91-1.25-4.01-1.38c-1.94,0-2.21,1.25-2.21,10.24v10.24l-6.64-0.55
		c-5.12-0.42-5.67-0.28-2.21,0.42C360.23,60.61,359.96,60.89,359.96,49.26L359.96,49.26z M205.82,53.41
		c3.6-2.91,3.87-9.69,0.55-12.73c-2.08-1.94-2.21-1.94-0.69,0c2.08,2.77,1.38,10.1-1.11,11.35c-0.97,0.55-3.87,1.52-6.23,2.21
		l-4.43,1.25l4.57,0.14C201.12,55.77,204.03,54.94,205.82,53.41L205.82,53.41z M282.2,52.03c3.04-3.04,3.32-9.27,0.55-12.04
		c-2.91-2.91-3.46-2.49-1.25,0.83c4.43,6.36,1.66,11.07-7.19,12.59l-5.26,0.83l5.4,0.14C278.19,54.52,280.4,53.83,282.2,52.03
		L282.2,52.03z M319.28,43.45c-0.42-0.42-0.69,0.28-0.69,1.66c0,1.52,0.42,1.8,0.69,0.83C319.83,44.97,319.7,43.87,319.28,43.45
		L319.28,43.45z"/>
	<path id="path3036" class="st2" d="M247.75,505.16c-15.08-7.33-54.51-40.54-80.94-68.07C95,361.96,54.87,272.99,40.21,156.22
		c-1.94-15.5-4.98-62.26-4.98-76.79c0-23.66,7.33-38.19,23.52-45.94c17.3-8.44,52.02-19.23,78.59-24.63
		C183.69-0.55,248.72-4.7,297.83-1.52c55.07,3.74,96.44,11.48,136.42,25.46c28.5,10.1,37.08,15.77,43.45,29.47
		c3.18,6.92,3.32,7.19,3.04,35.14c-0.97,114.56-30.72,215.7-87.17,296.09c-26.57,37.77-64.06,76.38-104.6,107.37
		C267.26,508.34,259.51,510.97,247.75,505.16L247.75,505.16z M275,496.17c29.61-20.06,76.1-63.92,99.34-93.53
		c24.9-31.68,51.33-77.48,64.61-111.8c20.34-52.72,31.82-106.68,36.39-171.84c1.52-21.72,1.66-51.89,0.14-58.39
		c-0.69-3.18-0.69-4.84,0.28-5.26c1.8-0.69-2.35-7.33-4.57-7.33c-0.83,0-3.04-1.52-4.7-3.32c-11.76-12.87-72.5-30.99-127.85-38.05
		C298.39,1.53,230.87,0.84,190.6,5.26C128.9,12.04,63.04,30.72,49.62,45.39c-1.94,2.21-4.01,3.74-4.57,3.32
		c-6.5-4.15-6.36,56.59,0.14,109.3c14.39,115.53,55.62,204.91,129.09,279.9c25.87,26.43,57.42,52.99,74.3,62.68
		C257.71,505.71,261.86,505.02,275,496.17L275,496.17z M251.35,489.8c-2.91-1.66-10.93-7.61-18.13-13.01
		c-7.06-5.53-13.7-9.96-14.53-9.96c-0.97,0-3.46-1.66-5.67-3.74l-4.15-3.74l4.7,3.46c6.36,4.57,5.95,3.32-0.55-1.94
		c-2.91-2.35-4.84-3.6-4.29-2.77c2.08,3.46-1.52,1.11-6.23-3.87c-2.77-2.91-3.6-4.29-1.8-2.91c1.66,1.38-6.23-7.19-17.57-19.23
		c-20.06-21.03-39.29-44.28-51.89-62.54c-7.19-10.52-9.13-12.73-7.06-8.3l1.52,3.18l-2.63-3.18c-1.38-1.8-2.35-3.87-1.94-4.84
		c0.28-0.97,0-1.38-0.55-0.97c-1.25,0.83-5.4-6.23-4.29-7.33c0.28-0.42-2.21-5.81-5.53-12.18c-8.99-16.88-15.91-31.82-23.94-51.61
		c-3.87-9.69-7.47-17.16-7.89-16.74c-0.42,0.42-0.42-0.55-0.14-2.21c0.42-1.94,0.28-2.49-0.42-1.38c-1.52,2.21-5.81-10.24-4.7-13.97
		c0.69-2.35,0.55-2.63-0.55-0.97c-1.11,1.52-1.25,0.97-0.69-2.49c0.55-3.6,0.42-4.01-0.69-2.49c-1.25,1.66-1.38,1.52-0.69-0.42
		c0.42-1.25-0.69-7.89-2.35-14.67c-8.16-32.93-16.6-91.59-17.02-117.74c0-4.01-0.42-4.98-1.11-3.32c-0.83,2.35-0.97,2.21-1.8-0.69
		c-0.42-1.66-0.83-6.09-0.83-9.82c0-10.1-2.49-8.86-4.15,2.21c-0.28,1.8-0.55-5.4-0.69-15.91c-0.14-10.52,0.28-19.79,0.83-20.48
		c0.55-0.69,2.63-1.25,4.7-1.25c4.57,0,5.4-2.77,2.77-8.3c-1.8-3.6-1.66-4.01,1.52-7.19c3.18-3.32,15.08-9.55,21.45-11.21
		c3.04-0.83,3.04-0.83-0.28,1.11c-1.94,1.11-3.46,2.63-3.46,3.18c0,1.52,0,1.52,6.23-0.69c6.36-2.35,8.02-2.35,6.78-0.55
		c-0.55,0.97,0,1.11,1.52,0.69c26.98-8.72,50.09-14.39,74.44-18.68c11.48-1.94,19.65-3.87,18.13-4.29
		c-1.38-0.42,0.28-0.42,3.74-0.14c4.84,0.55,5.81,0.28,4.43-0.83c-1.38-1.11-0.28-1.25,4.98-0.83c3.74,0.28,19.09,0.14,33.9-0.42
		c49.95-2.08,70.84-2.49,69.32-1.52c-0.83,0.55,6.78,1.66,17.02,2.63c22.69,1.94,57.42,6.92,76.1,11.07
		c7.61,1.66,15.36,2.77,17.02,2.35c2.49-0.55,2.63-0.42,1.11,0.83c-1.52,1.25-1.38,1.38,0.83,0.69c3.18-0.97,9.41,0.42,8.58,1.94
		c-0.28,0.55,0.55,0.69,2.08,0.28c1.94-0.55,2.49-0.28,1.66,0.83c-0.69,1.25-0.28,1.38,1.8,0.69c1.8-0.55,2.49-0.42,2.08,0.42
		c-0.42,0.69,2.08,2.21,5.81,3.46c12.45,4.15,26.7,10.93,30.16,14.39c7.47,7.19,7.75,8.72,7.47,36.94
		c-0.28,22-2.63,61.02-4.84,76.93c-0.69,4.98-0.28,4.15,3.46-7.61c1.38-4.57,3.04-8.99,3.74-9.69c0.55-0.83,1.66-4.57,2.35-8.3
		c1.11-6.5,1.11-6.36,0.55,2.63c-4.43,63.78-26.01,139.74-55.21,193.29c-24.77,45.66-60.6,90.76-95.75,120.93l-8.16,6.92l5.67-6.36
		c3.18-3.46,6.64-8.44,7.75-10.93c1.11-2.49,3.87-6.92,6.09-9.55l4.15-4.98l-4.29,3.87c-2.35,2.21-8.02,7.33-12.45,11.48
		c-9.82,8.99-35.14,29.75-46.63,38.05C261.58,492.99,257.99,493.82,251.35,489.8L251.35,489.8z M219.52,338.16
		c5.26-5.4,2.08-9.27-4.01-4.84c-2.21,1.66-4.29,3.04-4.57,3.18c-0.97,0.55,2.77,4.15,4.43,4.15
		C216.2,340.79,218.14,339.54,219.52,338.16z M186.45,318.93c0.14-2.08-0.28-3.74-0.69-3.74c-1.66,0-4.15,6.23-3.32,8.44
		C183.55,326.81,186.18,323.77,186.45,318.93z M278.33,318.24c2.35-1.11,2.49-1.66,1.11-2.63c-0.97-0.55-2.91-3.04-4.43-5.53
		c-3.32-5.53-7.89-10.65-8.72-9.69c-0.42,0.42,1.11,3.6,3.46,7.19c3.32,5.4,4.01,7.33,3.46,11.48c-0.69,5.53,0.55,8.3,1.66,3.6
		C275.14,321,276.67,319.07,278.33,318.24L278.33,318.24z M344.88,316.16c0-0.83-0.55-2.35-1.11-3.32
		c-1.38-2.21-3.18,0.42-2.21,3.04C342.52,318.1,344.88,318.37,344.88,316.16z M294.79,288.21c0-0.55-1.11-1.66-2.49-2.49
		c-1.38-0.69-2.49-2.21-2.49-3.18s-0.55-1.94-1.25-1.94c-2.21,0-1.38,7.47,0.83,8.72C291.61,290.7,294.79,290.01,294.79,288.21
		L294.79,288.21z M196,270.5l0.69-7.06l-1.94,4.43c-1.11,2.49-2.21,7.33-2.35,10.79c-0.42,6.23-0.42,6.36,1.25,2.49
		C194.48,279.22,195.59,274.38,196,270.5z M261.86,278.53c0.28-2.21,1.25-2.49,6.5-2.49c7.06,0.14,10.79-2.49,12.04-8.44
		c0.55-2.91,0.14-4.43-1.8-6.64c-1.38-1.52-4.84-7.33-7.47-12.73c-5.53-11.21-5.26-11.76,4.98-10.65c3.46,0.28,6.23,0.28,6.23-0.28
		c0-1.66,6.36-3.87,11.35-3.87c3.6,0,5.4,0.69,6.5,2.49c0.83,1.38,2.35,2.49,3.46,2.49c1.52,0,1.38-0.28-0.28-1.38
		c-3.87-2.35-2.35-3.87,1.8-1.66c3.04,1.66,3.6,2.35,2.21,3.18c-1.25,0.83-0.97,1.11,1.38,1.11c3.18,0,3.18,0-0.97-3.87
		c-3.18-2.91-5.26-3.74-9.13-3.74c-2.77,0-6.23-0.55-7.47-1.38c-3.04-1.66-3.32-5.67-0.42-4.57c1.11,0.42,3.46,1.11,5.4,1.52
		l3.32,0.69l-3.18-2.77c-1.66-1.52-4.7-3.32-6.64-4.01c-4.15-1.52-4.57-4.57-0.69-5.95c2.63-0.97,2.49-1.11-0.97-1.8
		c-2.35-0.55-4.43-2.21-5.81-4.84c-1.94-3.46-2.63-3.87-5.95-3.18c-4.29,0.97-9.96-1.94-9.96-5.12c0-1.11,1.25-3.04,2.63-4.57
		l2.63-2.63l-2.49-7.89c-2.35-7.47-2.77-8.02-9.41-11.21c-10.24-5.12-10.65-9.27-1.38-15.77c5.67-3.87,10.1-4.01,16.74-0.55
		c5.4,2.77,8.58,8.44,8.58,15.08c0,2.49,2.21,6.78,6.78,13.14c7.06,9.82,9.96,17.16,9.27,23.66c-0.28,3.04-1.11,3.87-4.15,4.29
		c-3.32,0.55-3.04,0.69,1.94,1.25c4.7,0.55,5.95,1.38,7.61,4.57c2.63,5.26,8.72,13.14,8.72,11.21c0-0.83-1.11-4.57-2.63-8.3
		c-1.38-3.74-4.57-14.25-6.92-23.38c-2.49-9.55-6.5-21.17-9.55-27.4c-2.91-5.95-5.53-11.21-5.67-11.76
		c-0.28-0.55,0.69-0.97,2.21-0.97c4.15,0,11.21,7.33,16.6,17.3c5.26,9.82,9.55,13.7,14.11,13.14c2.35-0.28,2.77-1.11,2.49-5.67
		c-0.28-6.09-4.29-15.08-8.02-17.43c-3.6-2.35-3.04-3.46,1.8-3.46c4.29,0,6.78-1.66,4.57-3.18c-0.69-0.42-5.4-1.8-10.52-3.18
		s-15.08-5.12-22-8.3c-7.75-3.6-13.56-5.67-15.08-5.12c-1.25,0.42-5.4,3.46-9.13,6.78c-10.24,9.13-18.4,14.8-27.4,19.23
		c-15.08,7.33-18.13,12.31-21.86,35.97c-1.11,7.33-2.49,13.7-3.04,14.11c-2.35,1.66-14.25,18.54-15.91,22.69
		c-2.21,5.4-2.35,8.16-0.42,12.45c1.8,4.01,6.5,4.29,8.99,0.55c2.91-4.29,5.81-2.21,4.98,3.32c-0.42,2.91-0.28,4.57,0.69,4.57
		c2.21,0,6.5-4.84,8.44-9.69c2.35-5.81,4.7-6.5,10.52-3.18c6.09,3.46,13.01,3.6,17.3,0.14c1.8-1.38,3.6-2.21,4.15-1.94
		c1.38,0.83,3.04-1.94,3.04-5.12c0-3.46,3.87-4.01,5.53-0.83c0.97,1.94,0.97,3.32-0.14,5.12c-2.21,3.6-0.14,4.84,4.01,2.49l3.6-2.08
		l0.55,4.7c0.42,4.15-0.14,5.26-5.4,10.65c-6.64,6.5-8.44,11.21-6.23,16.05C258.54,282.54,261.31,282.4,261.86,278.53L261.86,278.53
		z M213.16,251.82c0-3.74,2.08-8.16,3.87-8.16s1.52,8.16-0.28,9.96C214.4,255.97,213.16,255.42,213.16,251.82z M230.18,235.08
		c-1.11-1.11-2.63-3.46-3.18-5.12c-1.66-4.43-4.57-4.98-8.16-1.66c-3.74,3.6-5.12,2.63-3.32-2.21c0.69-1.94,1.94-8.99,2.77-15.63
		c2.35-18.82,7.75-22,12.04-6.92c1.11,3.74,2.77,7.75,3.74,8.72s1.8,4.15,1.8,6.92c0,4.15,0.97,6.23,4.98,11.07
		c2.77,3.18,4.98,6.09,4.98,6.5c0,0.28-3.04,0.55-6.78,0.55C234.33,237.3,231.56,236.6,230.18,235.08L230.18,235.08z M280.26,154.83
		c-3.04-2.49-3.46-3.46-1.94-4.29c3.46-2.35,11.21,2.77,8.72,5.81C285.11,158.57,284.69,158.57,280.26,154.83z M317.48,266.9
		c1.25-1.25-0.28-1.52-7.61-1.52c-13.7,0-20.2-4.57-20.2-14.11c0-10.52,13.14-13.42,16.46-3.6c0.69,2.08,1.8,3.74,2.49,3.74
		s0.69-0.97-0.14-2.49c-2.08-4.01-1.52-5.12,2.77-5.4c3.04-0.14,2.35-0.42-2.63-1.25c-3.74-0.55-7.75-1.66-8.99-2.35
		c-5.12-2.77-13.7-0.97-17.16,3.74c-4.43,5.81,0.69,17.99,9.69,22.83c4.84,2.63,7.06,3.04,14.67,2.63
		C311.95,268.7,316.65,267.73,317.48,266.9L317.48,266.9z M342.94,258.74c-0.55-0.83-0.97-2.63-0.97-4.01
		c-0.14-1.38-0.97-2.91-1.94-3.18c-1.11-0.42-1.38,0-0.83,0.83c0.55,0.83-0.14,1.38-1.52,1.38s-2.77,0.83-3.18,1.94
		c-0.55,1.38,0.14,1.94,2.91,1.94c2.08,0,4.01,0.55,4.43,1.25c0.42,0.69,1.11,1.25,1.38,1.25
		C343.49,260.26,343.35,259.57,342.94,258.74L342.94,258.74z M337.82,226.23c0.97-2.49-0.42-12.04-1.8-12.04
		c-1.94,0-3.46,11.35-1.66,13.14C335.75,228.86,336.99,228.44,337.82,226.23L337.82,226.23z M208.18,219.17
		c2.77-4.29,4.98-8.44,4.98-9.27c0-0.83-1.38,1.11-3.04,4.15s-4.29,7.19-5.67,9.27s-2.35,3.74-1.94,3.74
		C202.92,227.06,205.41,223.46,208.18,219.17L208.18,219.17z M341.69,190.94c-0.83-5.4-2.77-7.33-4.43-4.7
		c-1.8,3.04-1.25,9.96,1.11,12.31c2.08,2.21,2.21,2.21,3.18-0.28C342.11,196.89,342.11,193.57,341.69,190.94z M215.23,192.88
		c-0.42-0.42-0.69,0.28-0.69,1.66c0,1.52,0.42,1.8,0.69,0.83C215.65,194.4,215.65,193.3,215.23,192.88L215.23,192.88z
		 M225.06,174.62c1.25-1.38,1.94-2.49,1.66-2.49s-1.66,1.11-2.91,2.49c-1.25,1.38-1.94,2.49-1.66,2.49
		C222.57,177.25,223.81,176,225.06,174.62z M335.47,144.87c1.66-8.99-6.36-18.82-17.02-20.75c-4.29-0.83-4.29-0.83,1.25,2.21
		c9.82,5.26,14.25,16.6,9.41,23.8c-1.11,1.52-1.52,3.46-1.11,4.29C329.38,156.63,334.64,149.99,335.47,144.87z M260.2,151.65
		c1.25-1.38,1.94-2.49,1.66-2.49c-0.28,0-1.66,1.11-2.91,2.49c-1.25,1.38-1.94,2.49-1.66,2.49
		C257.71,154.14,258.95,153.03,260.2,151.65z M268.36,144.59c0.83-1.11,1.25-1.94,0.97-1.94c-0.28,0-1.38,0.83-2.21,1.94
		c-0.83,1.11-1.25,1.94-0.97,1.94C266.56,146.53,267.53,145.7,268.36,144.59z M246.5,120.24c-10.79-4.01-11.35-11.35-1.11-15.36
		c4.98-1.94,8.16-1.94,13.56,0.28c1.38,0.55,1.94,0.14,1.94-1.25c0-2.77,4.98-4.57,12.87-4.7c5.12-0.14,5.81-0.28,3.32-1.11
		c-12.87-4.15-36.53,2.49-41.92,11.76l-2.35,4.01l4.57,4.29c3.6,3.32,5.67,4.29,9.27,4.15l4.7-0.14L246.5,120.24L246.5,120.24z
		 M76.46,86.62c0-21.31,0.28-25.46,1.94-26.01c1.66-0.69,1.94,2.21,1.94,21.58c0,24.77-0.42,23.66,8.72,20.34
		c6.09-2.21,7.47-2.35,7.47-0.83c0,0.55-4.29,2.63-9.41,4.57c-5.26,1.94-9.27,3.74-8.99,4.01c0.28,0.28,4.7-1.11,9.96-3.04
		c8.44-3.04,9.55-3.87,9.96-7.06c0.55-3.87,0-3.87-8.99-0.14c-8.02,3.32-7.89,4.01-7.47-20.62c0.14-12.31,0.28-22.41,0.28-22.41
		c-0.14,0-1.94,0.69-4.01,1.38l-4.01,1.38v26.84c0,17.57,0.42,26.57,1.25,26.01C76.04,112.22,76.46,102.12,76.46,86.62z
		 M284.55,110.97c1.25-0.83,0.97-1.25-1.25-1.8c-1.52-0.42-3.18-0.28-3.6,0.42c-0.42,0.55-2.63,1.38-5.12,1.66
		c-3.46,0.42-3.18,0.55,1.94,0.69C279.99,111.94,283.58,111.53,284.55,110.97z M435.5,84.41l-0.42-25.04l3.46,0.83
		c4.15,1.11,2.49-1.11-1.8-2.49l-2.77-0.83v26.29c0,14.39,0.42,26.29,0.97,26.29C435.36,109.45,435.64,98.24,435.5,84.41
		L435.5,84.41z M411.15,84.13c-4.29-10.65-8.02-19.09-8.3-18.82c-0.28,0.28,2.35,7.89,5.95,17.02c3.6,8.99,6.92,17.85,7.61,19.51
		s1.38,2.77,1.8,2.35C418.62,103.78,415.44,94.78,411.15,84.13L411.15,84.13z M111.05,94.51c1.25-8.02,1.66-8.86,5.4-9.82
		c1.8-0.42,4.29-1.11,5.4-1.38c1.66-0.55,2.35,0.83,3.46,6.36l1.38,7.06l3.87-1.38c4.43-1.52,4.7,1.38-3.04-29.19l-5.26-21.31
		l-3.87,0.97c-3.6,0.97-4.01,1.66-5.95,10.93c-1.25,5.4-4.01,17.99-6.23,27.95l-4.15,17.99l4.01-1.25
		C109.66,100.32,110.22,99.49,111.05,94.51z M107.03,94.78c-0.42-1.11-0.42-2.21-0.14-2.63c0.28-0.42,0.97,0.55,1.25,1.94
		C108.97,97.14,108.14,97.69,107.03,94.78L107.03,94.78z M108,88.56c0-1.38,0.28-2.08,0.69-1.66c0.42,0.42,0.42,1.52,0.14,2.49
		C108.28,90.36,108,89.94,108,88.56L108,88.56z M110.49,77.07c0-1.38,0.28-2.08,0.69-1.66c0.42,0.42,0.42,1.52,0.14,2.49
		C110.77,78.87,110.49,78.46,110.49,77.07L110.49,77.07z M115.47,74.03c0-1.94,0.83-6.36,1.66-9.96l1.52-6.36l1.52,8.86
		c1.25,7.19,1.25,8.99-0.14,9.82C117,78.46,115.34,77.63,115.47,74.03z M111.74,71.95c0-1.38,0.28-2.08,0.69-1.66
		s0.42,1.52,0.14,2.49C112.15,73.75,111.74,73.34,111.74,71.95L111.74,71.95z M113.68,64.21c1.38-8.58,3.04-12.31,2.21-5.12
		c-0.42,3.46-1.25,7.19-1.94,8.3C113.26,68.63,113.12,67.53,113.68,64.21z M116.72,50.37c0-1.52,0.97-2.21,2.77-2.08
		c1.94,0,2.21,0.28,0.97,0.83c-0.97,0.42-2.35,1.38-2.77,2.08C117,52.17,116.72,51.75,116.72,50.37z M396.35,71.95V47.19l3.46,0.55
		c2.63,0.42,3.04,0.28,1.52-0.83c-0.97-0.69-3.18-1.38-4.7-1.38h-2.77v25.6c0,16.19,0.42,25.6,1.25,25.6
		C395.79,96.72,396.35,87.59,396.35,71.95z M147.44,91.6c1.38,0,1.8-3.18,1.94-16.88c0.14-9.27,0.42-15.5,0.69-13.7
		c0.83,5.12,8.02,28.64,9.13,29.75c0.55,0.55,1.25-1.11,1.8-3.87c0.55-2.77,2.77-10.93,5.12-18.26l4.29-13.42l-0.69,16.74
		l-0.69,16.74l3.87-0.55l3.87-0.55l0.42-26.01l0.42-26.01h-4.01c-3.87,0-4.01,0.28-6.78,9.27c-1.52,5.12-3.74,13.14-4.98,17.99
		l-2.21,8.72l-4.57-14.67c-2.49-8.02-4.57-15.22-4.57-16.05c0-1.66-1.8-1.8-5.95-0.69c-2.77,0.83-2.77,0.83-2.77,26.98
		c0,23.38,0.28,26.15,1.94,25.46C144.81,92.02,146.47,91.6,147.44,91.6z M377.81,67.8l-0.42-25.04l3.18,0.83
		c1.8,0.42,3.18,0.28,3.18-0.28c0-0.69-1.66-1.38-3.74-1.66l-3.74-0.55v26.01c0,14.25,0.42,26.01,0.97,26.01
		C377.67,92.85,377.95,81.64,377.81,67.8L377.81,67.8z M359.54,70.85c-0.28-3.74-0.42-0.69-0.42,6.64c0,7.33,0.14,10.38,0.42,6.64
		C359.82,80.53,359.82,74.58,359.54,70.85z M204.58,83.85c6.78-1.8,10.24-6.36,10.93-14.53c0.55-6.09,0.14-7.33-2.49-10.1
		c-3.04-3.04-3.04-3.18-0.83-5.95c3.46-4.43,3.04-13.42-0.83-17.43c-2.91-2.91-3.87-3.18-13.42-2.77l-10.38,0.42l-0.28,26.29
		l-0.28,26.29l6.64-0.55C197.11,85.24,202.09,84.41,204.58,83.85z M194.34,69.19v-8.3h4.84c5.81,0,8.99,3.04,8.99,8.58
		c0,4.98-3.46,8.02-9.13,8.02h-4.57v-8.3H194.34z M194.89,52.72c-0.42-0.97-0.42-4.29-0.28-7.33c0.42-4.98,0.69-5.67,3.74-5.95
		c5.4-0.69,8.58,1.8,8.58,6.64s-1.52,6.5-7.19,7.61C196.83,54.24,195.31,53.97,194.89,52.72L194.89,52.72z M338.65,61.44
		c0-24.49,0-25.04,2.49-24.35c1.38,0.42,2.49,0.28,2.49-0.28c0-0.97-4.15-2.49-6.64-2.63c-0.55,0-0.97,11.76-0.97,26.15
		c0,16.6,0.42,26.15,1.25,26.15C338.1,86.48,338.65,77.35,338.65,61.44z M421.11,53.97c3.32,0.69,3.32,0.69-0.42-1.11l-3.74-1.8
		l-0.42,14.8c-0.28,13.28-0.55,14.53-2.21,12.31s-1.8-2.08-0.55,1.38c2.77,8.16,3.18,7.19,3.46-9.27l0.42-16.88L421.11,53.97
		L421.11,53.97z M321.08,83.16c2.08-1.25,2.21-1.66,0.69-1.11c-1.38,0.55-4.43,1.38-6.92,1.8c-4.29,0.97-4.29,0.97-0.69,1.11
		C316.24,85.1,319.28,84.27,321.08,83.16z M244.29,81.36c4.98-3.18,7.61-8.99,8.58-19.51c1.94-21.72-7.75-36.8-20.06-30.85
		c-6.36,3.04-9.96,11.07-10.65,23.66C220.91,77.63,230.87,89.66,244.29,81.36z M233.36,73.75c-5.12-5.26-5.26-27.12-0.14-32.65
		c3.87-4.15,6.92-4.01,9.69,0.28c1.8,2.77,2.21,6.09,2.21,15.77c0,9.55-0.55,13.01-2.21,15.77
		C240.41,76.94,236.68,77.21,233.36,73.75L233.36,73.75z M289.67,81.36c0-0.55-1.66-5.67-3.6-11.48l-3.6-10.38l2.91-1.94
		c6.78-4.43,6.5-19.09-0.28-24.63c-2.63-2.08-5.12-2.63-13.14-2.63h-9.82v26.15v26.15h3.18c3.04,0,3.18-0.14,3.18-11.48V59.64h3.46
		c3.32,0,3.6,0.69,7.06,11.9c3.6,11.76,3.6,11.9,7.19,11.35C288.01,82.61,289.67,81.92,289.67,81.36L289.67,81.36z M284.27,80.39
		c-0.28-0.55-2.08-5.67-3.87-11.48l-3.46-10.52h-4.98c-3.04,0-4.84-0.55-4.84-1.66c0-1.11,2.35-1.66,6.92-1.8
		c3.87-0.14,7.75-0.83,8.58-1.66c4.7-3.87,3.04-13.84-2.63-16.46c-3.74-1.66-11.35-1.94-12.31-0.28c-0.42,0.69-0.83,7.47-0.97,15.36
		s-0.55,13.84-0.97,13.42c-0.42-0.42-0.97-7.89-1.38-16.6l-0.69-15.91h8.86c10.24,0,13.56,1.8,15.63,8.3
		c1.94,6.09,0.55,11.48-3.87,15.08l-3.74,2.91l3.74,11.07c2.77,8.44,3.32,11.07,1.94,11.07C285.66,81.36,284.55,80.95,284.27,80.39
		L284.27,80.39z M268.92,51.48c-0.42-0.97-0.55-4.57-0.28-8.02c0.42-5.95,0.55-6.23,4.43-6.64c8.16-0.83,13.84,9.96,7.61,14.39
		C277.22,53.83,269.75,53.97,268.92,51.48z M306.14,80.67c-4.84-4.15-6.92-10.52-6.92-22.28c-0.14-12.73,3.04-21.31,8.58-23.66
		c5.67-2.49,12.45-0.14,15.5,5.12c0.83,1.38,1.38,1.8,1.52,0.83c0-0.97-1.66-3.32-3.6-5.4c-2.77-2.91-4.84-3.74-8.58-3.74
		c-10.93,0-15.77,9.27-15.08,28.36c0.55,13.14,3.18,20.89,7.89,22.83C309.87,84.54,310.15,83.99,306.14,80.67z M319,78.32
		c4.43-4.43,3.6-14.8-1.11-14.8c-0.97,0-1.66-0.97-1.66-2.08c0-1.38,0.69-1.8,1.94-1.25c1.11,0.42,3.32,0.83,4.98,0.83
		c2.63,0,3.04,0.69,3.46,6.64l0.42,6.64l0.28-8.02l0.28-8.02h-6.92c-6.5,0-6.92,0.14-6.92,3.04c0,2.49,0.69,3.18,3.46,3.46
		c3.04,0.42,3.46,0.83,3.04,4.29c-0.69,5.67-2.49,8.3-5.53,8.3c-4.7,0-8.3-4.01-9.55-10.24c-0.69-3.87-1.11-4.7-1.25-2.35
		C303.23,75.55,313.19,84.13,319,78.32z M325.78,76.94c-0.42-0.42-1.11,0.28-1.52,1.52c-0.69,1.8-0.55,1.94,0.69,0.69
		C325.78,78.32,326.2,77.21,325.78,76.94z M359.96,49.95c0-9.41,0-9.55,3.18-9.55c1.8,0,2.91-0.55,2.49-1.25
		c-0.42-0.69-2.21-1.25-3.87-1.25c-3.04,0-3.04,0.28-3.04,10.24c0,7.33-0.42,10.24-1.52,10.1c-0.83,0-4.29-0.55-7.47-1.11
		c-3.32-0.55-5.95-0.55-5.95,0s2.63,1.38,5.95,1.8c3.32,0.42,6.5,0.97,7.19,1.25C359.4,61.02,359.96,59.22,359.96,49.95
		L359.96,49.95z M305.31,47.74c0.42-2.63,1.94-5.95,3.18-7.33c1.38-1.38,1.94-2.49,1.25-2.49c-2.21,0-5.26,6.23-5.81,11.76
		C303.37,56.04,304.2,54.94,305.31,47.74L305.31,47.74z M321.08,46.36c0-1.66-3.04-7.06-4.29-7.47c-0.97-0.42-0.83,0.83,0.42,3.74
		C318.87,46.08,321.08,48.29,321.08,46.36L321.08,46.36z M326.06,44.42c0-0.69-0.83-0.97-1.94-0.55c-0.97,0.42-1.94,0.97-1.94,1.25
		c0,0.28,0.83,0.55,1.94,0.55C325.23,45.67,326.06,45.11,326.06,44.42z M68.43,40.68c-0.42-0.42-1.38,0-2.21,0.83
		c-1.25,1.25-1.11,1.38,0.69,0.69C68.16,41.79,68.85,41.1,68.43,40.68z"/>
	<path id="path2991" class="st3" d="M255.36,506.96c-4.7-0.69-7.89-2.21-14.67-7.19c-23.11-16.88-42.2-32.51-59.36-48.7
		c-6.5-6.23-21.03-21.03-26.01-26.84c-20.75-23.66-37.91-47.87-58.94-83.15c-4.7-7.75-10.24-19.37-17.99-36.94
		c-25.04-57.14-38.19-114.84-42.06-185.26c-0.69-13.7-0.97-24.21-0.97-39.85c0-12.87,0.14-14.39,0.69-17.71
		c1.11-6.36,3.46-12.45,6.09-16.6c3.32-5.12,12.45-12.31,19.79-15.77c10.38-4.84,35.56-12.45,58.25-17.57
		c6.23-1.38,18.26-3.87,22.41-4.57c1.25-0.28,3.74-0.69,5.67-0.97c1.94-0.28,4.43-0.69,5.67-0.97c1.25-0.14,3.18-0.55,4.43-0.83
		s3.46-0.69,4.98-0.83s4.84-0.69,7.19-0.97s4.98-0.69,5.81-0.83c7.61-0.97,10.1-1.25,15.08-1.8c25.6-2.77,59.5-4.15,83.98-3.18
		c10.79,0.42,35.14,1.8,37.08,2.08c0.55,0.14,2.91,0.28,5.4,0.42c2.35,0.14,6.36,0.55,8.72,0.83c2.35,0.28,6.36,0.69,8.58,0.97
		c10.93,1.25,20.48,2.49,24.49,3.18c1.52,0.28,5.4,0.83,8.58,1.38c34.59,5.53,63.09,13.7,84.4,23.8c9.27,4.43,12.87,6.92,17.3,11.76
		c5.26,5.67,8.3,11.62,9.96,18.96c1.38,6.36,0.83,45.66-1.11,70.7c-2.63,34.18-6.92,62.95-14.25,92.98
		c-7.89,32.51-18.4,62.26-33.76,95.19c-5.26,11.21-6.64,13.84-10.93,21.31c-2.35,4.01-4.29,7.33-4.43,7.47s-0.55,0.97-1.11,1.8
		c-0.55,0.83-1.11,1.66-1.38,2.08c-0.14,0.42-0.97,1.66-1.66,2.91s-1.38,2.35-1.52,2.49c0,0.14-0.28,0.42-0.28,0.42
		s-0.83,1.11-1.52,2.35c-0.69,1.25-1.94,3.04-2.63,4.01c-0.69,0.97-1.25,1.94-1.25,2.08s-0.14,0.42-0.28,0.42
		c-0.28,0.14-1.94,2.77-1.94,3.04c0,0.14-0.28,0.42-0.42,0.42c-0.28,0.14-0.42,0.28-0.42,0.55s-0.83,1.52-1.66,2.91
		c-0.97,1.38-1.66,2.63-1.66,2.91c0,0.14-0.28,0.42-0.42,0.55c-0.28,0.14-0.42,0.42-0.42,0.69s-0.14,0.55-0.28,0.55
		s-0.42,0.42-0.69,0.83c-0.28,0.42-0.55,0.97-0.69,1.25c-1.11,1.38-2.35,3.18-4.57,6.5c-2.21,3.18-4.57,6.5-7.75,10.93
		c-28.23,38.19-57.83,66.83-104.19,101.14c-6.78,4.98-9.96,6.78-13.84,7.75C261.58,506.96,257.71,507.24,255.36,506.96
		L255.36,506.96z M263.38,504.05c3.87-0.97,7.19-2.77,13.42-7.33C336.02,453,369.23,417.44,407,356.98
		c10.1-16.19,15.08-24.9,19.09-33.48c10.93-23.24,18.96-42.75,25.46-62.26c15.77-47.6,24.35-97.96,26.43-156.35
		c0.55-13.7,0.42-40.26-0.14-43.58c-1.52-8.99-6.92-17.57-14.94-23.52c-2.91-2.21-13.14-7.47-19.79-10.1
		C423.47,19.52,401.19,13.57,372,8.45c-17.16-3.04-39.43-5.81-61.02-7.47c-2.21-0.14-4.84-0.42-5.81-0.55
		c-2.91-0.28-16.74-1.11-24.63-1.52c-15.08-0.69-42.48-0.28-61.71,0.83C168.61,2.77,113.68,12.87,75.9,25.88
		c-10.38,3.6-14.11,5.26-19.51,8.72c-8.72,5.81-12.73,10.1-15.5,17.16c-3.32,8.16-4.01,15.08-3.46,39.85
		c0.69,31.41,2.49,55.76,6.09,81.49c7.19,50.92,19.92,93.95,41.65,140.99c8.44,18.26,10.79,22.69,24.21,44.28
		c3.32,5.26,12.31,18.96,16.05,24.21c25.32,36.11,49.67,62.26,86.2,91.87c9.41,7.75,31.96,24.77,35.84,27.12
		c1.38,0.83,4.98,2.21,6.78,2.63C256.6,504.88,260.75,504.75,263.38,504.05L263.38,504.05z M254.94,491.19
		c-1.94-0.55-6.23-3.6-15.22-10.65c-54.79-43.03-85.65-76.79-116.64-127.15c-4.15-6.78-9.69-16.19-13.42-22.83
		c-3.74-6.64-15.5-31.68-21.45-45.38c-20.89-48.43-32.38-98.79-35.97-157.32c-1.25-20.62-1.38-48.7-0.42-54.65
		c1.11-6.5,3.32-12.18,6.23-16.46c3.18-4.84,8.99-9.55,14.53-11.76c11.35-4.7,36.94-12.18,58.94-17.02
		c38.19-8.44,73.88-12.87,113.87-13.97c11.07-0.28,30.16-0.28,34.04,0.14c0.69,0.14,3.32,0.28,5.95,0.28
		c24.77,0.97,58.11,4.57,81.91,8.86c29.47,5.26,51.89,11.9,71.12,21.03c3.04,1.38,6.5,3.18,7.89,3.74
		c10.65,4.98,15.5,12.73,17.02,27.26c0.83,7.06-1.11,42.34-3.6,67.1c-7.06,70.29-21.31,121.62-48.01,173.5
		c-10.79,21.03-28.09,49.67-41.09,68.21c-22.41,31.96-44,54.24-87.72,90.21c-0.83,0.69-4.57,3.74-8.16,6.78
		c-3.6,3.04-7.47,6.09-8.72,6.92C262.14,491.05,258.12,492.02,254.94,491.19L254.94,491.19z M173.59,376.9
		c3.87-1.8,5.12-4.57,5.67-12.04c0.28-4.98,1.25-6.92,3.74-7.47l1.25-0.28l-0.14-3.04c-0.28-4.57-0.14-11.21,0.14-12.18
		c0.14-0.42,1.66-2.77,3.46-4.98c4.15-5.26,6.78-8.99,7.47-10.93c0.28-0.83,0.83-3.6,1.25-6.09c0.69-5.12,0.42-4.43,6.09-13.84
		c1.66-2.77,4.15-7.47,5.67-10.38c1.52-3.18,3.04-5.81,3.74-6.5s1.52-1.66,1.8-2.08c0.42-0.42,0.83-0.69,0.97-0.69
		c0.69,0,2.49,2.08,3.18,3.46s0.69,1.8,0.69,8.99c0,7.47,0,7.47,0.69,8.02c0.42,0.28,1.11,0.55,1.52,0.55c0.69,0,0.69,0-0.14-0.97
		c-1.25-1.38-1.52-3.32-1.38-8.72c0.14-4.29,0.14-4.84-0.55-6.78c-0.42-1.11-0.69-2.63-0.55-3.18c0.14-0.97,0.14-1.11,1.52-1.11
		c1.66-0.14,2.35-0.69,3.18-2.35c0.55-1.25,0.69-2.21,0.69-4.01c0-0.83-0.28-1.11-1.66-1.94c-2.08-1.25-2.77-2.08-3.18-4.7
		c-0.42-3.04-0.14-12.59,0.55-14.8c0.55-1.94,0.83-1.94,3.04-0.42c2.21,1.52,8.86,4.43,12.18,5.26c4.01,0.97,9.55,1.11,11.21,0.28
		c1.52-0.83,7.19-5.12,9.55-7.33c1.11-0.97,2.77-2.49,3.87-3.18c0.97-0.83,2.49-1.8,3.18-2.49c0.69-0.55,1.52-1.11,1.94-1.11
		c1.11,0,4.15,1.25,5.12,2.08c1.94,1.66,0.97,3.32-3.6,6.36c-3.6,2.35-7.47,6.64-9.27,10.24c-0.83,1.66-4.7,13.14-4.7,13.97
		c0,1.38,0.97,4.15,2.08,5.67c3.74,5.4,5.53,8.3,5.95,9.82c0.28,0.97,0.69,2.21,0.97,2.77c0.97,2.49-0.14,3.87-4.29,4.84
		c-1.66,0.42-3.74,0.83-4.7,0.97l-1.8,0.28l0.55,0.83c0.42,0.69,0.55,0.69,0.83,0.28c0.28-0.42,0.97-0.55,3.87-0.55
		c2.91,0,3.87-0.14,5.26-0.69l1.66-0.69l0.83,0.97c0.83,1.11,5.95,6.5,5.95,6.23c0-0.83-2.49-6.36-4.29-10.1
		c-1.38-2.49-3.04-5.95-3.87-7.61c-0.83-1.66-2.49-4.57-4.01-6.5c-1.38-1.94-2.63-3.87-2.77-4.29c-0.42-1.66-0.28-4.29,0.55-6.5
		c1.25-3.46,2.21-3.18,2.21,0.55c0,2.77,0.42,3.6,3.32,8.02c3.46,5.12,3.74,5.53,5.4,9.82c1.52,3.74,3.32,7.06,5.4,10.1
		c1.11,1.52,3.04,7.06,3.04,8.3c0,0.55-0.42,1.25-1.11,1.94l-1.11,1.11l-0.69-0.83c-0.42-0.42-0.83-0.83-0.83-0.69
		c-0.14,0.14-0.28,1.11-0.28,2.21c-0.14,2.08-0.14,2.08,0.97,3.04c1.11,0.97,1.11,1.11,1.11,2.91c0,2.35,0.69,3.87,2.08,4.84
		c0.55,0.42,2.49,0.97,4.43,1.38l3.46,0.69l1.25-0.97c2.21-1.8,4.7-4.84,4.98-6.09c0.42-1.52,0.14-2.91-0.69-3.6
		c-0.42-0.28-0.83-0.97-1.11-1.38c-0.69-1.25-0.14-1.52,2.77-1.52c2.35,0,2.49,0,3.18-0.97c0.83-0.97,2.91-5.81,4.15-9.41
		c0.69-1.8,0.83-2.91,0.83-5.26c0-2.49,0.14-3.46,0.83-5.4c1.11-3.32,1.11-5.67,0-7.89c-0.97-1.8-1.52-2.49-3.87-4.01
		c-2.63-1.66-2.21-2.63,1.25-4.01c2.08-0.83,3.04-1.66,3.04-2.49c0-0.69,0-0.69-2.77-0.55c-2.77,0.14-2.77,0.14-3.32-0.69
		c-1.8-2.63-2.77-2.91-4.57-1.66c-1.94,1.38-6.23,9.41-6.23,11.62c0,1.25,1.38,2.63,4.01,3.74c1.38,0.55,2.77,1.25,3.18,1.52
		c1.25,0.83,1.94,2.35,1.94,4.43c0,1.11,0.14,2.35,0.28,2.91c0.14,0.42,0.28,1.8,0.28,2.91c0,1.66-0.14,2.49-0.97,4.01
		c-1.25,2.63-5.26,7.75-6.23,8.16c-1.11,0.42-2.35-0.55-2.91-2.21c-0.42-1.25-0.42-1.52,0.28-3.04c1.52-3.46,1.66-4.7,1.25-9.55
		c-0.14-2.49-0.55-4.98-0.69-5.4c-0.69-1.38-1.66-0.97-3.87,1.66c-2.08,2.49-3.32,3.6-4.43,3.6c-1.11,0-1.38-1.11-1.25-3.6
		c0.14-2.63,0.69-4.29,3.04-9.27c1.66-3.74,4.43-10.93,5.26-13.97c0.69-2.35,0.83-8.44,0.14-11.07c-0.28-1.38-0.83-2.21-2.08-3.46
		c-2.77-3.04-6.5-8.3-8.58-12.18c-2.21-4.43-3.87-8.99-3.04-8.99c0.42,0,3.87,4.57,5.4,6.92c1.8,2.91,2.63,3.74,4.15,3.46
		c1.11-0.14,1.11-0.14,1.38,0.97c0.55,3.74,2.35,7.47,5.12,10.79c1.25,1.52,6.64,5.81,8.16,6.64c1.8,0.97,4.7,1.94,8.16,2.77
		c2.08,0.55,3.74,0.69,7.75,0.69c5.4,0,6.64-0.28,7.89-1.52c0.28-0.42,1.38-0.97,2.49-1.25c0.97-0.42,2.21-0.83,2.63-1.11
		c1.11-0.55,1.94-1.94,1.66-2.63c-0.14-0.55-0.42-0.69-4.15-0.83c-4.7-0.28-8.99-1.25-12.18-2.91c-1.25-0.69-3.18-1.52-4.43-1.94
		c-3.74-1.38-6.5-3.74-7.19-5.81c-0.28-1.11,0.28-1.94,1.52-2.21c0.55-0.14,1.11-0.28,1.25-0.55c0.14-0.14,0.42-0.28,0.69-0.28
		c1.38,0,1.38-0.42,0.69-3.46c-0.83-3.6-0.83-4.29,0-4.29c1.25,0,2.21,0.83,4.01,3.46c0.97,1.52,2.63,3.6,3.6,4.57
		c1.52,1.66,1.94,1.8,3.04,1.8c0.69,0,1.38-0.14,1.52-0.28c0.14-0.14-0.14-0.83-0.42-1.52c-0.42-0.83-0.69-1.94-0.69-2.91
		c0-1.38,0.14-1.8,0.97-2.77c0.97-1.11,1.11-1.11,2.77-1.11c2.08,0,3.46,0.83,4.7,2.63c0.69,1.11,0.83,1.25,2.21,1.25
		c0.97,0,1.8-0.28,2.63-0.83c0.97-0.69,1.38-0.83,1.94-0.55c0.42,0.14,1.11,0.97,1.52,1.52c0.42,0.69,1.25,1.66,1.66,2.08
		c0.83,0.83,1.11,0.97,2.63,0.69c0.97-0.14,2.08-0.14,2.49,0.14c1.38,0.55,1.52,1.25,0.97,4.43c-0.55,2.63-0.55,2.91,0,4.29
		c0.28,0.83,0.97,1.94,1.52,2.49c1.11,1.25,1.11,1.25,1.52,5.26c0.42,3.87,0.14,6.5-1.52,10.79c-0.69,1.8-1.8,4.7-2.35,6.36
		c-0.69,1.66-1.52,3.6-2.08,4.15l-0.83,1.11l1.25,0.97c1.66,1.25,2.91,3.46,4.7,8.02c2.49,6.64,2.77,7.47,2.77,9.96
		c0,2.08-0.14,3.04-1.25,6.5c-1.8,5.4-1.8,7.47-0.28,9.69c0.55,0.83,1.11,1.66,1.11,1.94c0,0.28-0.83,1.8-1.66,3.46
		c-3.87,6.64-3.87,9.55,0,13.28c2.08,1.94,3.87,2.91,5.12,2.77c0.83-0.14,0.83-0.28,0.97-1.8c0.14-1.94,0.97-3.32,2.08-3.18
		c0.55,0.14,0.69,0.42,0.83,2.21c0.28,2.77,0.42,3.04,1.11,3.04c1.25,0,5.67-3.46,6.5-5.26l0.42-0.97l-1.38,0.97
		c-0.69,0.55-1.66,1.38-2.08,1.8c-0.97,0.97-1.8,1.11-2.91,0.14c-1.11-0.83-1.25-2.08-0.69-4.57c0.69-2.77,0.55-4.98-0.55-5.95
		c-0.69-0.69-1.25-0.69-3.32-0.69c-1.38,0-2.63-0.14-2.91-0.28c-0.83-0.55,0.14-1.8,2.21-2.91c2.91-1.52,3.04-2.63,0.55-3.87
		c-1.66-0.83-2.08-1.38-2.08-2.91c0-1.66,1.11-3.18,2.77-3.87c2.08-0.69,2.91-1.94,2.91-3.87c0-2.21-0.69-3.6-2.63-5.12
		c-3.04-2.35-3.04-2.21-3.04-5.12c0-2.08,0.14-2.63,0.55-3.18c0.42-0.42,0.69-1.25,0.69-3.18c0.14-1.66,0.42-3.04,0.83-4.01
		c1.11-2.21,0.97-2.77-1.11-5.81c-1.25-1.94-1.66-4.01-1.66-8.44c0-1.94-0.14-3.74-0.28-4.29c-0.42-1.11,0-4.7,0.55-4.98
		c0.97-0.42,2.35,0.69,3.32,2.35c1.11,1.94,1.38,2.08,1.52,1.11c0.28-0.97,1.8-0.83,5.4,0.83c8.16,3.6,17.43,4.43,22.28,1.8
		c2.77-1.52,7.89-5.95,9.27-8.16c1.25-2.08,1.11-2.08-3.87-1.94c-5.12,0.14-8.16-0.14-11.62-1.38c-2.91-1.11-6.09-3.18-7.89-5.4
		c-0.83-0.97-2.91-2.91-4.7-4.43c-1.8-1.52-3.32-2.91-3.46-3.18s-0.42-0.42-0.69-0.42c-0.97,0-5.26-1.94-7.47-3.6
		c-1.25-0.83-2.91-1.8-3.6-2.21c-2.21-1.11-10.79-2.91-16.19-3.32l-2.91-0.28l-0.28-1.11c-0.42-2.08-0.97-3.6-2.91-6.5
		c-1.52-2.49-1.94-3.18-1.94-4.43c0-1.66-0.69-3.32-2.91-6.92c-1.11-1.8-1.94-3.6-2.35-5.26c-0.42-1.38-1.25-3.74-1.94-5.4
		c-1.52-3.46-2.08-5.4-2.49-8.99c-0.55-4.01-1.11-6.23-2.49-10.1c-0.69-1.8-1.52-4.84-1.94-6.78c-0.97-4.98-1.38-5.95-3.87-9.82
		c-1.25-1.94-2.35-3.87-2.49-4.43c-0.14-0.55-0.55-1.52-1.11-2.08c-0.42-0.55-1.38-1.94-2.08-3.04s-1.52-2.49-1.94-3.18
		c-0.42-0.55-0.69-1.52-0.69-1.94c0-1.38,0.69-1.8,3.04-1.66c4.98,0.14,8.86,4.01,13.84,13.7c4.01,7.75,7.33,11.62,11.35,13.7
		c1.66,0.83,2.63,1.11,3.74,1.11c1.94,0,2.49-0.69,2.77-2.91c0.14-1.8-0.14-3.6-1.94-8.99c-0.97-3.18-1.25-4.7-1.38-7.19
		c-0.28-4.01-0.42-4.15-4.01-5.4c-3.04-1.11-3.18-1.66-0.69-2.35s5.12,0,8.02,2.08c1.94,1.38,2.21,1.52,3.46,1.38
		c1.11-0.14,1.66-0.42,3.18-1.94c1.66-1.52,1.8-1.8,1.66-2.91c-0.14-1.25,0.69-3.32,1.8-4.29c0.97-0.83,1.52-2.21,2.49-6.36
		c1.38-5.53,1.11-10.24-1.11-14.11c-1.8-3.04-10.1-9.82-15.08-12.18c-4.43-2.08-4.7-2.08-28.78-2.35
		c-26.84-0.28-38.88-0.97-42.34-2.08c-4.98-1.66-8.58-4.84-8.02-7.06c0.28-1.25,1.94-2.91,3.46-3.46c2.77-1.11,6.78-0.28,14.39,2.77
		c7.06,2.91,11.35,3.6,19.51,3.32c7.19-0.28,13.01-1.11,14.39-2.21c0.55-0.42,0.55-0.42,0-0.97c-0.28-0.28-2.63-1.11-5.12-1.66
		c-5.53-1.38-8.44-2.63-8.44-3.32c0-0.42,0.55-0.42,4.15-0.28c4.15,0.14,8.86,0.97,12.59,2.21c2.21,0.69,7.33,0.83,8.99,0.28
		c1.11-0.42,1.25-1.25,0.55-2.08c-2.08-2.08-13.01-6.09-21.58-7.89c-5.4-1.11-9.55-1.38-18.4-1.25c-10.93,0.28-15.5,0.97-20.75,3.74
		c-4.29,2.21-9.27,6.78-10.93,10.1c-1.8,3.74-0.55,6.23,4.7,9.55c3.74,2.21,6.5,3.18,12.73,4.01c11.07,1.66,18.96,2.08,40.68,1.94
		c10.52,0,18.96,0.14,20.06,0.28c3.32,0.55,7.06,1.94,9.13,3.32c2.35,1.66,5.26,4.98,6.78,8.02c0.97,1.94,1.11,2.49,1.11,4.57
		s-0.14,2.63-0.83,4.01c-1.25,2.21-3.74,4.98-4.98,5.53c-1.52,0.55-4.98,0-9.27-1.66c-2.91-1.11-4.01-1.38-6.92-1.52
		c-3.87-0.28-4.29-0.42-9.96-2.91c-5.81-2.63-14.67-5.53-19.09-6.36c-2.08-0.42-4.15,0-7.06,1.38s-4.7,2.77-10.52,8.58
		c-5.53,5.4-8.02,7.47-11.21,8.99c-5.67,2.77-21.72,12.04-23.24,13.28c-2.21,1.94-5.95,6.5-7.47,9.27
		c-2.91,4.84-3.74,8.72-4.15,17.85c-0.28,6.23-0.28,6.5-1.25,8.99c-1.11,2.77-4.01,7.89-7.89,13.84c-3.74,5.67-6.36,10.1-8.16,13.7
		c-3.46,7.06-4.15,9.69-4.43,19.65l-0.28,7.33l-1.11,3.32c-0.69,1.8-1.94,5.26-2.91,7.61c-3.6,8.72-3.6,8.3-3.87,24.35l-0.28,11.76
		l-1.38,2.63c-0.69,1.52-1.94,3.6-2.63,4.7c-1.8,2.63-2.21,4.7-2.91,12.18c-0.28,3.18-0.55,6.36-0.69,7.06
		c-0.14,1.11-0.55,1.8-4.15,5.81c-6.64,7.47-9.13,11.35-9.13,13.97c0,1.38-0.14,1.52-1.38,2.35c-2.49,1.66-5.81,5.67-7.06,8.16
		c-1.38,2.91-1.66,5.67-0.83,7.19c0.97,1.8,1.52,1.52,4.15-2.08l2.35-3.18l0.69,0.69c0.42,0.42,0.69,0.97,0.69,1.11
		c0,0.28-0.55,1.66-1.25,3.04c-0.69,1.52-1.25,3.04-1.25,3.46c0.14,1.11,1.25,1.25,7.75,1.11
		C171.51,377.73,172.2,377.59,173.59,376.9L173.59,376.9z M170.68,359.61c-1.11-0.42-2.77-4.15-2.49-5.53
		c0.28-1.25,0.55-1.38,2.21-0.69c1.66,0.69,2.49,0.55,4.15-0.69c1.52-1.25,2.08-1.38,2.63-0.69c0.55,0.55,0.42,1.52-0.28,3.04
		c-0.42,0.69-0.83,1.66-1.11,2.21C174.83,358.91,172.06,360.16,170.68,359.61z M180.78,329.44c-0.69-0.69-0.83-1.11-0.83-3.46
		c0-1.52,0-2.91-0.14-3.18c-0.14-0.28,0-0.69,0.14-0.97c0.28-0.42,0.42-0.28,1.25,0.55c0.83,0.83,1.25,1.11,2.21,1.11
		c0.83,0,1.52-0.28,2.08-0.69c0.97-0.97,1.66-0.55,1.66,0.69c0,2.21-1.38,4.57-3.18,5.81C182.44,330.41,181.75,330.41,180.78,329.44
		L180.78,329.44z M280.68,326.68c-0.83-0.28-1.66-0.55-1.8-0.69c-0.55-0.55-1.11-4.43-0.69-5.4c0.69-1.94,3.04-0.97,3.6,1.38
		c0.28,1.38,0.42,1.38,1.52,1.38c1.38,0,1.8,0.55,1.8,2.35c0,0.97-0.14,1.11-0.97,1.25C282.89,327.09,282.48,327.09,280.68,326.68
		L280.68,326.68z M187.28,300.11c-1.25-0.55-1.8-2.21-1.66-5.53c0.14-3.04,1.38-5.95,3.04-7.06l1.11-0.69l0.83,0.97
		c0.42,0.55,1.11,0.97,1.52,0.97c1.11,0,3.6-1.38,5.26-3.04c0.83-0.83,2.35-2.21,3.32-3.04c2.21-1.94,2.77-3.32,2.77-6.5
		c0-4.29-0.28-5.12-2.35-6.92c-1.94-1.8-2.77-3.46-2.77-5.81c0-2.77,1.25-4.29,3.74-4.29c1.25,0,2.21,0.83,3.87,3.74
		c2.63,4.7,6.64,6.5,9.27,4.29c1.25-1.11,1.66-1.11,2.35-0.42c0.42,0.42,0.55,1.38,0.55,5.12c0,2.49,0.14,4.98,0.28,5.4
		c0.14,0.55,0.83,0.97,2.08,1.52c2.08,0.83,2.77,1.94,2.63,4.01c-0.14,1.66-1.11,2.91-2.77,3.32c-1.8,0.42-3.04,0-8.44-3.04
		c-1.66-0.97-3.46-1.11-4.57-0.28c-0.42,0.28-1.52,1.52-2.35,2.77c-1.25,1.66-2.35,2.63-4.7,4.29c-3.46,2.35-4.43,3.32-6.36,6.5
		c-1.38,2.21-3.18,4.15-3.74,4.15c-0.14,0-0.69,0.14-0.97,0.14C188.53,300.53,187.84,300.39,187.28,300.11L187.28,300.11z
		 M237.79,232.45c-1.11-0.55-2.77-1.11-3.6-1.25c-2.08-0.42-3.18-1.11-3.74-1.94c-0.42-0.69-0.42-0.97,0-2.63
		c0.55-2.21,0.28-4.01-0.83-4.98c-0.55-0.55-1.11-0.55-3.32-0.55c-1.52,0-3.32,0.28-4.15,0.55c-0.69,0.28-1.38,0.55-1.38,0.55
		c-0.14,0,0.28-3.04,0.55-4.15c0.14-0.83,0.55-1.38,1.38-1.94c1.94-1.25,2.08-1.8,1.94-5.12c-0.28-3.87,0.28-5.81,1.52-5.81
		c0.14,0,0.83,0.55,1.38,1.25c0.83,0.83,1.38,1.94,1.94,3.46c1.25,3.74,1.8,4.57,2.91,4.7c1.94,0,1.94,0.14,1.94,4.7
		c0,4.98,0.28,5.67,3.6,8.99C242.77,233.01,242.77,234.8,237.79,232.45L237.79,232.45z M288.7,206.86c-0.14-0.42-0.14-2.08,0-3.74
		l0.28-2.77l-0.83-0.55c-0.83-0.55-1.66-0.55-7.33-0.55c-5.67,0-6.64-0.14-7.75-0.55l-1.25-0.55l0.97-0.28
		c0.55-0.14,2.35-0.28,3.87-0.28c3.46,0,4.84-0.42,6.23-1.38c4.15-3.04,3.32-6.92-2.77-13.01c-3.74-3.87-4.43-4.84-4.29-6.78
		l0.14-1.38l1.52,1.66c0.83,0.83,2.08,2.49,2.63,3.46c1.66,3.04,7.47,10.93,9.55,13.28c3.18,3.46,4.29,6.5,3.74,9.82
		c-0.28,1.8-2.08,4.01-3.46,4.29C289.12,207.69,288.98,207.55,288.7,206.86L288.7,206.86z M281.92,156.22
		c-0.42-0.42-1.11-1.38-1.52-1.94c-0.42-0.55-1.38-1.8-2.21-2.77c-1.8-2.08-2.08-2.77-1.25-3.6c0.83-0.83,4.43-0.83,5.95,0
		c1.52,0.83,2.77,3.46,3.04,6.36l0.14,2.35l-0.97-0.28c-0.69-0.14-0.97-0.14-1.11,0.28C283.86,157.46,282.75,157.18,281.92,156.22
		L281.92,156.22z M272.79,111.25c-0.28-0.14-1.25-0.42-2.08-0.83c-1.8-0.83-2.21-1.66-1.25-2.49c0.97-0.69,1.66-0.69,3.18,0.14
		c0.69,0.42,2.21,0.69,3.18,0.83c1.38,0.14,2.21,0.42,3.04,0.97c1.25,0.83,1.38,1.25,0.69,1.52
		C279.02,111.53,273.62,111.53,272.79,111.25L272.79,111.25z M208.18,360.85c2.21-1.11,4.15-3.46,5.95-6.92
		c0.83-1.66,2.08-3.6,3.04-4.43c1.8-1.94,2.21-2.63,3.04-5.81c0.83-3.04,2.21-5.95,4.7-9.69c2.91-4.29,4.15-5.53,7.89-7.61
		c5.95-3.18,6.23-3.6,6.64-8.16c0.14-1.8,0.42-3.6,0.69-4.15c0.55-1.11,3.6-3.87,5.95-5.53l1.8-1.25h-8.72
		c-6.78,0-9.13,0.14-10.79,0.55c-1.25,0.28-2.77,0.42-3.74,0.42l-1.52-0.14l-1.94,4.98c-1.11,2.77-1.94,5.26-1.94,5.53
		c0,1.11-0.97,4.7-1.52,5.95c-0.83,1.66-6.09,7.33-7.61,8.02c-0.69,0.28-1.66,0.69-2.08,0.69c-1.11,0-2.35,0.97-2.91,2.21
		c-0.28,0.55-1.38,1.66-2.63,2.49c-2.77,2.08-6.23,5.26-7.19,6.78c-1.11,1.66-1.52,4.15-1.52,7.47c0,3.46,0.69,6.36,1.38,6.36
		c0.28,0,1.52-0.69,2.77-1.66c3.6-2.63,4.29-2.08,2.08,1.66c-0.69,1.11-1.25,2.21-1.25,2.49c0,0.69,2.21,1.11,4.98,0.97
		C205.96,361.68,206.79,361.54,208.18,360.85L208.18,360.85z M211.22,343.42c-2.08-1.52-3.87-3.46-3.87-4.01
		c0-0.28,0.69-0.97,1.94-1.52l1.94-0.97l1.25,0.83c1.8,1.11,3.18,1.25,5.26,0.55c2.35-0.83,2.49-0.69,2.21,1.38
		c-0.14,0.97-0.42,2.08-0.69,2.49c-0.55,0.97-2.49,1.94-4.84,2.08C212.6,344.39,212.33,344.25,211.22,343.42L211.22,343.42z
		 M244.15,343.97c0.69-0.14,0.42-0.28-1.38-0.28c-2.08,0-2.35-0.14-2.21-0.55c0-0.28,0.83-0.97,1.66-1.38
		c0.83-0.42,1.8-0.97,1.94-1.11c0.14-0.14,0.28-1.38,0.28-2.77c0-3.04,0.42-3.6,2.77-4.15c1.66-0.28,2.35-0.97,2.35-2.21
		c0-0.55-0.28-0.83-1.38-1.38c-1.66-0.83-2.35-1.8-1.52-2.49c0.28-0.28,1.66-1.52,3.18-2.77c2.35-2.08,2.63-2.49,3.04-3.87
		c0.83-3.18,1.52-7.06,1.25-7.75c-0.28-0.83-1.38-2.08-1.94-2.08c-0.28,0-0.69-0.28-1.11-0.69s-0.69-0.55-0.69-0.28
		c0,0.28-0.97,1.94-2.08,3.87s-2.63,4.7-3.32,6.09c-1.11,2.35-1.52,2.77-3.18,4.01c-4.7,3.32-7.33,7.47-8.02,13.14
		c-0.28,2.63-0.14,4.43,0.55,4.43c0.28,0,1.25-0.69,2.08-1.38c0.97-0.83,1.94-1.38,2.21-1.38c0.55,0,0.55,0.28,0.28,2.21l-0.28,2.21
		l1.11,0.28C241.24,344.25,242.91,344.39,244.15,343.97L244.15,343.97z M342.11,233.97c0.55-0.42,1.66-1.66,2.49-2.77l1.38-1.94
		l-0.83-0.97c-3.18-3.87-5.12-6.92-6.64-9.96c-0.97-1.94-1.8-3.74-1.66-4.01c0-0.83,0.97-1.8,2.91-3.04
		c4.29-2.77,4.7-3.87,4.84-12.18c0.14-3.87,0-6.78-0.28-8.02c-0.55-2.63-1.94-5.53-3.87-7.75l-1.66-1.8l-1.25,0.42
		c-1.52,0.42-3.74,2.63-4.57,4.43c-0.83,1.8-0.69,4.01,0.42,8.3c0.69,2.63,0.97,4.57,0.97,6.23c0,2.91-0.14,3.6-1.52,9.27
		c-1.38,5.67-1.8,8.72-1.8,13.56c0,4.15,0.42,6.23,1.66,8.02C334.91,234.8,339.62,235.91,342.11,233.97z M77.43,112.91
		c2.91-1.52,10.52-4.84,16.88-7.19l5.4-2.08v-4.43c0-2.49-0.14-4.43-0.28-4.43c-0.42,0-9.55,3.74-12.73,5.26
		c-1.38,0.69-2.63,1.11-2.77,1.11s-0.28-9.82-0.28-22.55c0-12.45-0.14-22.55-0.28-22.55s-2.35,0.97-4.84,2.21l-4.57,2.21
		l-0.14,26.57c-0.14,14.53-0.14,26.57,0,26.7C74.1,114.29,75.49,114.02,77.43,112.91L77.43,112.91z M441.45,101.7
		c0-6.23-0.14-18.4-0.28-26.84l-0.28-15.5l-4.01-1.8c-2.21-0.97-4.43-1.8-4.98-1.8h-0.83v26.57v26.57l1.38,0.42
		c0.69,0.14,2.91,1.11,4.98,1.94s3.74,1.52,3.87,1.66C441.45,113.05,441.59,109.17,441.45,101.7L441.45,101.7z M424.16,67.66V52.72
		l-3.6-1.25c-1.94-0.69-3.74-1.38-4.01-1.52c-0.28-0.14-0.97-0.28-1.52-0.28h-0.97v13.56c0,7.47,0,13.7,0,13.84
		c0.28,1.8-1.38-1.66-6.92-15.5c-4.84-11.9-6.5-15.91-7.06-16.19c-1.25-0.55-7.06-1.94-8.02-1.94h-0.97v26.84v26.84h0.83
		c0.69,0,6.78,1.38,8.99,2.08c0.55,0.14,0.55-0.69,0.42-16.19c-0.14-11.35-0.14-16.33,0.14-16.05c0.14,0.14,3.6,8.44,7.75,18.54
		l7.33,18.26l3.6,1.11l3.6,1.11l0.14-11.76C424.02,87.87,424.16,75.83,424.16,67.66L424.16,67.66z M103.99,102.39
		c0.55-0.28,2.35-0.97,4.01-1.38c1.66-0.55,3.18-0.97,3.18-1.11c0,0,0.69-3.46,1.52-7.61l1.52-7.61l1.38-0.42
		c4.98-1.52,8.3-2.21,8.44-1.8c0.14,0.28,0.83,3.18,1.66,6.5c0.69,3.32,1.52,6.23,1.52,6.36c0.14,0.14,2.21-0.28,4.7-0.83
		c3.74-0.83,4.57-1.11,4.43-1.66c0-0.28-1.25-4.43-2.63-9.27c-1.38-4.84-4.57-15.77-7.06-24.49c-2.49-8.72-4.57-15.91-4.7-15.91
		c-0.14-0.14-1.52,0.28-3.32,0.69c-1.8,0.42-3.6,0.83-4.01,0.97c-0.69,0.14-0.83,0.42-4.57,17.43c-2.08,9.55-4.98,22.55-6.36,28.64
		c-2.49,11.21-2.49,11.35-1.8,11.62C102.88,102.95,102.88,102.95,103.99,102.39z M115.61,77.63c0-0.55,3.18-16.19,3.32-16.74
		c0.28-0.55,0.55,0.83,2.49,8.99l1.38,5.95l-1.25,0.28c-1.38,0.42-4.29,1.25-5.26,1.52C115.89,77.9,115.61,77.9,115.61,77.63z
		 M384.45,68.5l0.14-26.57l-1.8-0.42c-0.97-0.14-3.32-0.69-5.12-1.11c-1.8-0.42-3.6-0.69-3.87-0.69c-0.55,0-0.55,1.11-0.69,19.23
		c-0.14,18.54,0,34.04,0.28,34.31c0.28,0.28,10.38,2.21,10.52,1.94C384.17,95.06,384.31,83.02,384.45,68.5L384.45,68.5z
		 M145.64,91.46c2.21-0.42,4.01-0.83,4.15-0.83c0,0,0.14-6.09,0.14-13.56c0-10.1,0.14-13.28,0.42-12.73
		c0.14,0.42,2.35,6.09,4.7,12.73c2.35,6.5,4.43,11.9,4.7,11.9c0.97,0,0.97,0.28,7.47-22.41c0.83-3.04,1.8-5.67,1.94-5.95
		c0.14-0.14,0.28,5.81,0.28,13.14c0,7.47,0.14,13.42,0.28,13.42c0.42,0,7.33-0.97,8.44-1.11l0.97-0.14l-0.14-25.74
		c0-14.25-0.14-26.29-0.28-26.84c-0.14-0.97-0.28-1.11-1.11-0.83c-2.63,0.42-7.19,0.97-7.89,0.83c-0.42-0.14-0.83,0-0.97,0
		c-0.14,0.14-2.08,6.5-4.43,14.11s-4.43,14.39-4.57,14.94c-0.14,0.55-0.42,0.97-0.42,0.97c-0.14-0.14-2.08-5.95-4.57-13.01
		c-2.35-7.06-4.43-13.01-4.57-13.28c-0.14-0.28-1.25-0.14-3.87,0.42c-2.08,0.42-4.15,0.69-4.7,0.69h-0.97l-0.28,10.1
		c-0.14,5.53-0.28,17.57-0.28,26.84c0,17.85-0.14,16.74,1.25,17.02C141.49,92.29,143.42,92.02,145.64,91.46L145.64,91.46z
		 M366.32,65.04l0.14-26.7l-0.69-0.14c-3.04-0.69-7.75-1.52-8.58-1.52h-1.11l0.14,10.38c0.14,10.1,0.14,10.38-0.42,10.38
		c-0.28,0-2.91-0.42-5.81-0.83c-2.91-0.42-5.26-0.83-5.4-0.83s-0.28-4.7-0.28-10.52V34.74l-0.69-0.14
		c-1.38-0.28-7.89-1.11-8.86-1.11h-0.83v26.7v26.7l4.98,0.69c2.77,0.42,4.98,0.55,5.12,0.55s0.14-5.53,0-12.31l-0.14-12.18
		l0.69,0.14c0.42,0.14,3.04,0.55,5.81,0.83l5.12,0.69v12.45v12.45h0.97c0.55,0,2.77,0.42,4.98,0.69c2.21,0.42,4.01,0.69,4.29,0.69
		C366.18,91.74,366.32,82.61,366.32,65.04L366.32,65.04z M317.9,86.07c4.7-1.25,7.89-4.29,9.41-9.13c0.55-1.66,0.55-3.04,0.55-10.79
		v-8.86h-7.19h-7.19v1.52c0,0.83-0.14,2.63-0.14,4.01l-0.14,2.49h3.04h3.04l-0.14,4.29c-0.14,4.01-0.14,4.29-0.97,5.53
		c-2.35,3.6-7.06,2.91-9.96-1.25c-2.08-3.04-2.08-3.74-2.08-17.3c0-11.9,0-12.18,0.69-13.42c0.83-1.52,2.63-3.18,3.74-3.46
		c0.42-0.14,0.97-0.28,1.25-0.28c0.69-0.28,2.63,0.55,3.74,1.52c1.38,1.25,2.21,3.04,2.49,4.84l0.14,1.38h4.7
		c5.4,0,4.98,0.28,4.15-3.18c-1.52-7.33-7.33-12.04-14.67-12.04c-7.19,0-13.14,4.57-15.36,11.9c-0.28,1.11-0.42,4.43-0.42,13.97
		c0,13.97,0.14,15.63,2.08,19.37c1.25,2.35,3.74,5.4,6.09,6.78c1.66,1.11,4.7,2.35,6.5,2.63C313.05,86.62,316.24,86.48,317.9,86.07
		L317.9,86.07z M199.18,84.27c10.79-0.97,11.48-1.11,14.11-4.15c4.98-5.4,5.67-16.74,1.25-21.31c-0.97-0.97-3.04-2.08-4.01-2.08
		c-0.42,0-0.14-0.28,0.69-0.69c4.7-2.35,6.09-12.31,2.77-19.65c-1.25-2.77-3.18-4.7-5.53-5.81l-1.8-0.83l-5.12,0.42
		c-5.26,0.42-15.5,1.38-15.63,1.52c0,0-0.14,12.18-0.28,26.84l-0.28,26.84l2.91-0.14C190.05,85.1,194.89,84.68,199.18,84.27z
		 M195.03,76.8c-0.14-0.14-0.28-3.6-0.28-7.61v-7.47l4.57-0.14l4.57-0.14l0.97,0.97c0.55,0.55,1.38,1.8,1.94,2.77
		c0.69,1.52,0.83,2.21,0.83,4.7c0,2.63-0.14,3.04-0.83,4.43c-1.38,2.35-2.08,2.63-7.33,2.77C197.25,76.94,195.17,76.94,195.03,76.8
		L195.03,76.8z M196.55,53.41l-1.8-0.14l0.14-6.92l0.14-6.92l4.29-0.14l4.29-0.14l1.38,1.66c3.46,3.87,3.04,10.1-0.69,12.04
		C202.78,53.69,201.67,53.69,196.55,53.41L196.55,53.41z M241.94,83.16c6.5-1.38,11.07-6.09,11.76-12.31
		c0.14-1.25,0.28-8.02,0.28-15.08c-0.14-14.11-0.14-14.53-2.21-18.54c-1.25-2.35-4.15-5.4-6.36-6.64c-2.08-1.11-4.84-1.94-7.33-2.08
		c-5.53-0.42-11.48,3.74-14.53,9.96c-2.21,4.43-2.21,5.53-2.08,20.06c0.28,13.7,0.42,14.8,1.94,17.85
		C226.44,81.92,234.47,84.82,241.94,83.16L241.94,83.16z M235.16,75c-1.8-0.69-3.04-1.66-3.87-3.18l-0.83-1.38V57.01V43.59l0.83-1.8
		c2.21-4.57,7.47-5.4,11.21-1.8c1.38,1.38,2.21,3.18,2.63,5.4c0.14,1.11,0.28,6.92,0.42,13.14c0.14,11.07,0.14,11.21-0.55,12.73
		C243.04,74.58,238.75,76.24,235.16,75L235.16,75z M291.75,83.02c0-0.28-2.08-5.67-4.57-12.04c-2.49-6.36-4.57-11.76-4.57-11.9
		c0-0.14,0.55-0.42,1.11-0.55c4.7-0.83,7.33-5.53,7.33-12.73c0-6.92-2.91-13.14-7.19-15.77c-1.66-0.97-4.15-1.25-16.33-1.52
		l-7.61-0.28v26.84v26.84l0.97,0.14c0.55,0.14,2.77,0.14,4.84,0.28h3.87V70.85V59.36l2.63-0.14l2.63-0.14l2.77,9.13
		c1.52,5.12,3.18,10.38,3.6,11.76l0.83,2.49l3.46,0.14c1.94,0,3.6,0.14,3.87,0.14C290.64,83.44,291.75,83.3,291.75,83.02
		L291.75,83.02z M269.61,52.17c-0.14-0.14-0.28-3.46-0.28-7.47V37.5l3.87-0.28c4.29-0.28,5.53,0,7.19,1.66
		c2.77,2.63,2.63,9.96-0.28,12.59l-1.11,0.97h-4.57C271.96,52.45,269.75,52.31,269.61,52.17z"/>
	<path id="path3032" class="st4" d="M249.82,488c-10.52-6.5-36.67-27.81-54.24-44.14c-28.78-26.84-57.7-62.68-77.48-96.16
		C76.04,276.31,54.32,193.16,51.69,94.65C51,65.87,51,64.9,53.77,59.22c3.6-7.61,6.92-9.82,24.07-16.6
		c47.6-18.54,97.82-27.26,166.59-28.5c77.62-1.52,141.82,7.89,193.57,28.23c17.85,7.06,21.03,9.27,24.77,16.88
		c2.77,5.81,2.77,6.64,2.08,36.11c-4.15,161.88-59.77,281.98-173.09,374.13c-13.7,11.21-28.09,21.45-31.68,22.55
		C258.4,492.57,255.08,491.33,249.82,488L249.82,488z M173.72,377.59c1.94-0.97,3.46-3.32,4.43-7.33c0.83-3.32,2.49-6.92,3.46-8.16
		c1.25-1.38,2.21-5.67,2.49-10.79c0.42-7.47,1.11-9.13,5.4-14.67c2.77-3.6,5.67-9.27,6.78-13.42c1.11-4.01,2.91-8.99,4.01-11.07
		c8.02-15.77,13.28-24.9,14.11-24.9c2.77,0,4.98,6.09,4.98,13.7c0,5.95,0.55,8.3,2.08,9.13c1.8,0.97,1.8,1.52,0.14,4.84
		c-0.97,2.08-2.21,5.4-2.77,7.47c-1.25,5.12-5.26,10.65-9.41,12.87c-1.94,0.97-6.09,4.43-9.27,7.61c-4.57,4.57-5.81,6.64-5.81,9.96
		c0,5.67,1.8,8.58,3.87,6.36c2.49-2.63,3.74-1.8,2.77,1.8c-0.83,3.32-0.69,3.32,3.32,2.49c5.26-1.11,9.96-4.15,10.79-6.92
		c0.42-1.25,1.11-3.04,1.8-4.01c0.55-1.11,2.91-5.81,5.12-10.65c2.77-5.95,5.81-10.24,9.69-13.42c3.04-2.63,6.36-6.64,7.47-9.13
		c2.91-7.19,11.62-13.42,11.62-8.3c0,3.04-4.84,12.04-8.44,15.63c-4.43,4.57-7.89,10.65-7.89,13.97c0,2.91,1.8,3.87,3.18,1.66
		c1.38-2.21,2.91-1.38,2.21,1.25c-0.55,2.21,0,2.49,3.18,2.49c6.5,0,12.45-3.74,13.42-8.16c0.42-2.21,1.94-5.81,3.18-8.02
		c1.52-2.63,2.21-5.12,1.66-7.33c-0.83-3.46,1.52-12.31,3.18-12.31c1.25,0,5.81,9.55,7.06,14.67c0.42,2.08,1.94,5.12,3.32,6.64
		c2.35,2.63,3.32,2.77,14.53,2.08c11.62-0.69,12.18-0.83,15.22-4.57c2.21-2.91,3.32-6.09,3.87-11.62
		c0.97-9.82,5.12-16.6,14.94-23.52l7.33-5.26l1.8,2.91c0.97,1.52,3.18,6.23,4.7,10.24c2.77,6.78,2.77,7.89,1.38,13.7
		c-0.83,3.46-1.25,7.47-0.69,8.99c0.42,1.52-0.14,5.4-1.38,8.99l-2.21,6.36l2.91,3.18c3.32,3.6,5.67,4.15,6.78,1.25
		c0.97-2.49,3.32-2.49,3.32,0.14c0,2.77,2.49,1.66,5.26-2.08c2.21-2.91,2.21-3.46,0.28-8.86c-1.11-3.18-1.66-6.64-1.38-7.89
		s0-4.7-0.69-7.61c-1.52-6.92-1.52-14.94,0.28-23.38c1.25-5.95,1.11-7.19-1.8-13.42c-1.66-3.74-2.91-7.06-2.63-7.47
		c0.28-0.28,2.63,0.28,5.26,1.38c12.18,4.84,21.72,3.74,27.4-3.18l3.46-4.15l-7.47-0.69c-8.44-0.69-8.86-0.97-17.71-8.86
		c-6.23-5.53-6.5-6.09-5.81-11.07c0.42-2.91-0.28-9.41-1.38-14.94c-1.94-8.99-1.94-10.24-0.14-16.74c1.11-3.87,1.94-8.72,1.94-10.79
		c0-6.23-3.32-15.63-7.33-20.75c-2.08-2.63-4.29-7.06-5.12-9.82c-0.69-2.77-2.77-7.19-4.43-9.82c-2.91-4.29-2.91-4.84-1.25-9.13
		c0.97-2.49,1.8-7.61,1.8-11.48c0-6.09-0.55-7.61-4.01-11.76c-7.75-8.86-11.35-9.69-48.01-10.79c-42.34-1.25-48.98-2.91-42.48-10.24
		c2.63-3.04,7.06-2.91,16.19,0.28c9.96,3.6,22.14,4.43,29.33,2.08c6.09-1.94,6.23-1.94-4.43-4.15c-1.66-0.42-3.18-1.25-3.18-2.08
		c0-0.97,1.94-1.11,5.95-0.55c16.46,2.21,19.09,2.35,19.09,1.11c0-2.08-11.07-6.36-22.55-8.72c-18.54-3.87-36.25-0.69-44.69,7.89
		c-5.12,5.26-5.81,10.93-1.38,13.7c5.4,3.6,14.39,4.7,46.21,5.67c29.19,0.97,32.65,1.25,37.77,3.74c6.23,3.04,8.99,7.06,8.72,13.01
		c-0.14,4.98-3.32,10.1-6.23,10.1c-4.84,0-21.03-4.15-32.51-8.3c-6.78-2.49-13.42-4.43-14.8-4.43c-3.18,0-6.78,2.49-17.57,11.76
		c-4.7,4.01-13.01,9.69-18.54,12.59c-17.85,9.41-23.24,16.88-25.74,35.14c-1.38,9.82-3.04,13.84-10.65,25.32
		c-6.36,9.55-10.79,22.41-10.93,31.13c0,4.15-1.52,10.93-3.87,17.85c-3.18,9.27-3.87,13.42-4.15,23.94
		c-0.28,10.93-0.69,13.56-3.46,18.68c-1.94,3.74-3.6,9.13-4.15,14.39c-0.83,7.75-1.38,9.13-7.06,15.77
		c-3.32,4.01-6.23,8.02-6.23,8.86s-1.66,3.6-3.74,5.95c-4.84,5.53-7.19,11.9-5.12,13.97c1.11,1.11,1.94,0.69,3.32-1.38
		c2.77-4.01,4.29-3.46,3.04,0.97c-0.69,2.63-0.55,4.01,0.42,4.43C162.79,380.36,169.99,379.25,173.72,377.59L173.72,377.59z
		 M269.75,109.59c-3.46-2.21-0.14-2.91,5.26-0.97l5.4,1.94l-4.43,0.14C273.48,110.7,270.72,110.14,269.75,109.59z M88.77,107.93
		c9.69-3.6,10.38-4.01,10.38-7.61c0-2.08-0.14-3.74-0.42-3.74s-3.74,1.11-7.75,2.49c-4.01,1.38-7.47,2.49-7.75,2.49
		s-0.42-10.1-0.42-22.41s-0.14-22.41-0.42-22.41c-0.28,0-2.21,0.69-4.43,1.38l-4.01,1.38v26.84c0,25.04,0.14,26.84,2.21,26.01
		C77.43,112.22,83.1,110.14,88.77,107.93z M442.7,86.62v-26.7l-4.01-1.38c-2.21-0.83-4.15-1.38-4.43-1.38
		c-0.28,0-0.42,12.04-0.42,26.7v26.7l4.01,1.38c2.21,0.69,4.15,1.38,4.43,1.52C442.56,113.32,442.7,101.29,442.7,86.62L442.7,86.62z
		 M423.6,79.29l-0.28-26.43l-3.46-0.97l-3.46-0.97v14.25c0,16.33-0.14,16.33-7.61-3.04c-5.53-14.11-7.33-16.6-12.04-16.6h-2.91
		v26.15c0,20.06,0.42,26.15,1.52,26.15c0.83,0,2.77,0.42,4.29,0.83c2.77,0.69,2.77,0.55,3.18-14.8l0.42-15.5l6.92,17.43
		c3.74,9.55,7.75,17.99,8.72,18.54C423.88,107.37,424.02,106.68,423.6,79.29z M110.49,101.01c0.42-0.28,1.25-3.6,1.66-7.47
		c0.97-7.89,0.83-7.75,7.19-8.99l4.57-0.83l1.52,6.5c1.52,6.36,1.66,6.36,5.53,5.67c2.21-0.42,4.15-0.97,4.43-1.25
		c0.69-0.55-11.21-48.01-12.31-49.12c-0.42-0.42-2.49-0.28-4.57,0.28c-3.87,1.11-3.87,1.25-8.58,21.86
		c-2.63,11.48-5.4,24.07-6.36,28.23l-1.66,7.47l4.01-0.83C108,101.98,110.08,101.29,110.49,101.01z M116.03,75.14
		c0.42-1.38,1.25-4.98,1.66-8.02l0.97-5.53l1.66,6.92c1.38,5.81,1.38,7.06-0.14,8.02C117.27,78.32,115.2,77.77,116.03,75.14
		L116.03,75.14z M385,69.33c0-14.39-0.42-26.29-0.97-26.7c-0.55-0.28-2.49-0.97-4.43-1.38l-3.46-0.83v26.7v26.7l3.46,0.55
		c1.94,0.28,3.87,0.55,4.43,0.69C384.59,95.34,385,83.71,385,69.33L385,69.33z M148.27,92.29c1.25-0.42,1.52-2.91,1.25-9.27
		c-0.28-4.7-0.28-10.93,0-13.7c0.42-4.7,0.83-4.01,5.26,9.55l4.84,14.53l4.57-16.33l4.57-16.33l0.42,14.39
		c0.28,12.31,0.69,14.25,2.35,13.56c1.11-0.42,3.04-0.69,4.29-0.69c2.35,0,2.35-1.25,2.35-26.57V34.6l-4.29,0.55
		c-4.15,0.55-4.29,0.69-7.61,11.62c-1.8,6.09-4.01,13.28-4.98,16.19l-1.66,4.98l-4.01-13.42c-2.21-7.33-4.57-13.84-5.12-14.53
		c-0.55-0.55-2.77-0.69-4.84-0.28l-3.87,0.83V66.7c0,24.9,0.14,26.15,2.35,26.15C145.5,92.85,147.3,92.57,148.27,92.29z
		 M365.91,65.04l-0.28-26.57l-3.46-0.42l-3.46-0.42v10.38v10.38l-5.4-0.69c-8.72-1.25-8.44-0.83-8.44-12.04
		c0-7.33-0.42-10.24-1.52-10.24c-0.83,0-2.91-0.42-4.43-0.83l-2.77-0.83v26.84v26.84l4.43,0.55l4.43,0.55v-11.9
		c0-13.14-0.42-12.73,9.13-11.07l4.7,0.83v11.9c0,10.24,0.28,11.9,2.21,12.45C366.46,92.15,366.32,92.85,365.91,65.04L365.91,65.04z
		 M208.04,83.44c5.12-2.49,8.02-7.75,8.16-14.8c0.14-4.98-0.55-7.06-2.63-9.13c-2.63-2.77-2.63-2.77-0.28-6.78
		c2.91-4.84,3.04-9.82,0.55-14.8c-2.35-4.7-8.44-6.36-18.82-5.26l-7.47,0.83l-0.28,26.7l-0.28,26.7l9.13-0.83
		C200.98,85.38,206.38,84.27,208.04,83.44L208.04,83.44z M195.59,70.16c0-6.64,0.28-7.75,2.63-8.3c7.06-1.94,12.04,5.26,8.44,11.76
		c-1.38,2.49-3.04,3.32-6.5,3.74l-4.7,0.42v-7.61H195.59z M195.59,47.46v-7.06h4.15c4.98,0,7.19,1.94,7.19,6.5
		c0,4.01-1.66,5.67-7.19,6.78l-4.01,0.83v-7.06H195.59z M323.15,83.3c3.32-2.21,5.4-8.99,5.4-17.57c0-6.78-0.14-6.78-9.13-7.75
		l-5.95-0.55v4.29c0,3.74,0.42,4.29,3.18,4.29c2.49,0,3.18,0.69,3.18,3.32c0,7.61-5.95,10.93-10.52,5.95
		c-6.09-6.92-4.84-33.34,1.8-35.42c2.77-0.83,7.33,2.49,7.33,5.4c0,1.11,1.52,1.66,4.43,1.66c4.98,0,5.53-1.66,2.49-7.61
		c-2.63-5.26-6.64-7.75-12.59-7.75c-10.79,0-15.63,8.16-15.63,26.15c0,11.9,1.8,19.37,5.67,23.8
		C307.38,86.48,317.07,87.31,323.15,83.3L323.15,83.3z M245.53,81.92c1.52-1.11,4.01-4.43,5.53-7.33
		c3.87-7.75,4.01-26.98,0.14-35.56c-2.63-5.81-7.75-9.96-12.31-9.96c-4.43,0-10.24,4.15-13.01,9.13c-5.81,10.52-4.7,33.9,2.08,42.06
		c2.63,3.18,4.01,3.74,8.99,3.74C240.14,83.99,244.01,83.02,245.53,81.92L245.53,81.92z M233.63,72.78
		c-1.66-2.49-2.35-6.64-2.63-14.94c-0.28-9.82,0-12.18,2.21-15.77c3.18-5.26,7.33-5.12,10.1,0.42c2.77,5.67,2.63,25.87-0.28,30.44
		C240.14,77.21,236.4,77.21,233.63,72.78L233.63,72.78z M269.61,72.09c0-10.79,0.14-11.21,2.63-10.79c2.08,0.28,3.46,2.63,6.5,11.62
		l3.87,11.21h4.7h4.7l-4.15-12.04l-4.15-12.04l3.32-3.18c4.15-4.01,5.4-9.69,3.6-16.33c-1.94-7.33-6.92-9.96-18.96-9.96H262
		l-0.42,26.29c-0.14,14.53-0.28,26.43-0.14,26.57s1.94,0.28,4.01,0.28h3.87V72.09H269.61z M270.58,52.58
		c-0.55-0.55-0.97-4.15-0.97-7.89v-6.92l5.26,0.69c7.47,0.97,10.65,6.36,6.92,11.48C280.12,52.17,272.1,54.11,270.58,52.58z
		 M35.36,87.73c0-1.8,0.28-2.49,0.69-1.66c0.42,0.83,0.42,2.35,0,3.18C35.64,90.22,35.36,89.53,35.36,87.73z M35.5,76.24
		c0-3.87,0.28-5.4,0.55-3.46c0.28,1.94,0.28,5.12,0,7.06C35.78,81.78,35.5,80.12,35.5,76.24z"/>
	<path id="path3030" class="st5" d="M246.23,481.78c-30.85-22.41-69.32-58.8-90.9-86.06C90.02,313.39,59.16,220.83,54.46,93.54
		c-1.25-33.76,0.42-37.91,18.82-45.8c48.01-20.48,109.72-30.72,184.99-30.72c56.73,0,96.3,4.43,139.88,15.77
		c19.65,5.12,47.32,14.8,54.24,19.23c5.26,3.18,8.72,9.27,9.82,16.6c1.11,7.33-1.38,59.08-4.01,81.77
		c-13.28,117.33-55.48,208.09-132.27,284.05c-24.63,24.35-61.99,54.51-67.66,54.51C257.16,488.97,251.62,485.65,246.23,481.78
		L246.23,481.78z M174,377.87c2.91-1.8,4.29-3.74,4.84-7.33c0.42-2.63,1.94-6.23,3.18-7.89c1.66-2.21,2.35-5.26,2.35-11.07
		c0-7.47,0.28-8.44,5.12-14.25c3.46-4.29,5.95-9.27,8.02-16.05c1.66-5.4,4.15-11.48,5.4-13.42c1.38-1.94,4.29-7.19,6.36-11.48
		c2.21-4.43,4.43-8.02,4.98-8.02c2.63,0,4.43,4.43,4.15,10.65c-0.28,7.89,0.55,11.07,3.04,11.07c1.52,0,1.52,0.55-0.14,3.74
		c-1.11,2.08-1.94,4.43-1.94,5.4c0,3.87-5.53,12.73-9.55,15.36c-2.49,1.52-5.67,4.01-7.19,5.53c-1.52,1.52-4.01,3.74-5.53,4.98
		c-2.49,2.08-3.32,5.67-2.77,11.76c0.42,3.74,2.21,5.26,4.01,3.46c2.35-2.35,3.74-1.8,2.21,0.97c-1.25,2.35-0.97,2.49,2.77,2.49
		c4.7,0,12.31-4.15,12.31-6.78c0-1.8,8.86-19.79,12.04-24.35c0.83-1.25,3.32-3.46,5.53-4.84c2.08-1.38,4.84-4.57,5.95-7.19
		c2.77-6.36,6.5-10.52,9.41-10.52c1.25,0,2.35,0.28,2.35,0.69c0,2.21-7.75,15.77-9.27,16.33c-2.35,0.97-8.58,13.28-7.61,14.94
		c0.97,1.66,4.43,1.52,4.43,0c0-0.69,0.55-1.25,1.25-1.25s0.83,0.97,0.42,2.08c-1.11,2.91,1.66,4.15,6.64,3.04
		c6.5-1.52,10.52-4.7,10.52-8.3c0-1.8,1.25-4.84,2.63-6.92c2.08-2.77,2.49-4.84,1.94-8.3c-0.69-4.57,1.11-10.79,3.04-10.79
		c1.38,0,4.29,6.09,6.09,12.73c2.49,9.41,3.46,9.96,17.71,9.96c9.55,0,12.87-0.42,13.97-1.94c0.83-0.97,2.63-3.04,3.87-4.57
		c1.66-1.94,2.49-4.7,2.63-9.96c0.14-6.09,0.97-8.3,4.43-13.42c5.4-7.61,15.77-15.22,18.13-13.28c0.83,0.69,3.04,5.12,4.98,9.82
		c3.04,7.75,3.18,8.99,1.8,13.97c-0.83,3.04-1.25,7.06-0.83,8.99s-0.14,5.53-1.11,7.89c-2.49,6.09-2.21,8.72,1.25,12.31
		c3.87,3.87,5.53,4.01,6.92,0.28l1.11-2.91l1.25,3.18l1.25,3.18l3.32-3.46c3.74-3.87,4.15-7.06,1.52-12.31
		c-0.97-1.94-1.52-4.84-1.11-6.36c0.42-1.52,0-6.23-0.83-10.52c-1.25-6.23-1.25-9.69,0-18.13c1.52-9.96,1.52-10.79-1.11-15.5
		c-4.01-7.61-3.6-8.44,3.6-5.67c10.79,4.15,22.28,2.49,26.84-4.15c3.18-4.57,2.63-6.23-1.66-5.4c-6.64,1.38-12.04-0.69-19.37-7.19
		l-7.06-6.36l-0.69-11.21c-0.69-11.76-0.69-18.54-0.14-37.22c0.28-11.21,0.28-11.35-4.7-18.82c-2.77-4.15-5.95-10.24-7.06-13.7
		c-1.11-3.32-3.32-7.47-4.84-9.13c-2.63-2.91-2.63-3.18-0.83-6.92c5.95-11.76,2.35-23.38-9.27-30.02l-6.78-3.87l-32.1-0.97
		c-40.68-1.25-48.43-2.77-45.24-8.86c2.08-4.01,6.5-4.15,17.43-0.55c11.07,3.6,23.11,4.29,30.02,1.94c4.57-1.66,4.15-3.74-0.97-3.74
		c-1.94,0-4.57-0.83-5.95-1.94c-2.21-1.8-2.08-1.94,2.63-1.25c15.36,2.08,20.75,2.35,20.75,0.83c0-0.83-2.35-2.49-5.4-3.87
		c-18.13-7.89-41.09-8.72-54.38-2.08c-6.64,3.46-13.14,10.1-13.14,13.56c0,2.35,6.09,7.19,10.79,8.72
		c2.63,0.83,19.51,2.08,37.5,2.77c35.14,1.38,41.09,2.49,45.8,8.44c3.32,4.43,3.18,10.93-0.28,15.08l-2.91,3.32l-9.82-2.08
		c-5.4-1.11-14.67-3.87-20.62-6.09c-18.82-6.92-18.82-6.78-33.76,5.81c-4.98,4.29-14.94,10.93-21.86,14.94
		c-17.85,9.96-21.45,15.63-24.21,38.46c-0.55,4.29-2.63,8.86-7.19,15.91c-9.55,14.94-12.31,21.86-13.56,34.59
		c-0.69,6.64-2.63,15.63-4.84,22c-3.18,8.99-3.74,12.87-3.87,22.55c0,9.96-0.42,12.45-3.04,17.3c-1.66,3.04-3.46,8.44-3.87,12.04
		c-1.38,10.79-1.8,11.9-7.47,18.4c-3.04,3.46-5.95,7.61-6.36,9.27c-0.55,1.66-2.49,4.84-4.43,7.19c-4.01,4.7-5.53,9.41-4.29,12.73
		c0.69,1.94,1.25,1.8,4.01-1.66l3.18-3.87l-0.83,4.84l-0.83,4.84h5.4C167.64,380.36,171.65,379.25,174,377.87L174,377.87z
		 M270.16,109.45c-1.25-2.08-0.28-2.21,4.43-0.42l4.43,1.66l-4.01,0.14C272.79,110.7,270.72,110.14,270.16,109.45L270.16,109.45z
		 M78.26,219.03c-5.81-30.72-9.69-65.44-11.62-105.02c-2.08-41.65-2.08-42.2-4.43-45.8c-1.25-1.94-2.63-3.46-3.32-3.46
		c-3.6,0,1.11,72.5,7.19,109.86c3.46,21.45,11.35,53.68,13.01,53.68C79.5,228.3,79.22,224.15,78.26,219.03L78.26,219.03z
		 M100.39,100.18c0-2.63-0.14-4.84-0.42-4.84c-0.28,0-3.74,1.11-7.75,2.49c-4.01,1.38-7.61,2.21-7.89,1.94
		c-0.42-0.42-0.97-10.1-1.25-21.72c-0.28-11.62-0.97-21.03-1.52-21.03s-2.49,0.55-4.29,1.25L74.1,59.5v27.4v27.4l13.14-4.7
		l13.14-4.7L100.39,100.18L100.39,100.18z M441.73,59.5c-0.55-0.55-2.49-1.38-4.43-1.8l-3.46-0.83v26.98v26.98l4.01,1.66l4.01,1.66
		l0.28-26.84C442.56,72.51,442.28,60.06,441.73,59.5L441.73,59.5z M425.13,80.12c0-14.67-0.42-26.98-0.97-27.26
		c-0.55-0.28-2.77-0.97-5.12-1.52l-4.15-0.97l0.42,12.87c0.28,7.06,0.14,12.87-0.14,12.87c-0.28,0-3.04-6.23-5.95-13.7
		c-6.5-16.74-6.23-16.46-11.21-17.43l-4.01-0.97v26.84c0,14.8,0.42,27.12,0.97,27.4c0.55,0.28,2.49,0.97,4.43,1.38l3.46,0.83V85.51
		c0-8.3,0.42-14.39,1.11-13.7c0.55,0.69,3.74,8.3,7.06,17.02c5.95,15.36,7.61,17.71,12.87,17.99
		C424.85,106.96,425.13,100.73,425.13,80.12z M107.59,102.95c3.46-1.25,4.01-2.21,5.4-8.86c1.25-6.78,1.8-7.47,5.26-8.16
		c5.67-1.11,5.67-1.11,6.5,4.01c1.25,7.47,1.94,8.16,7.33,6.64c2.49-0.69,4.7-1.66,4.7-1.94s-2.21-8.86-4.84-18.82
		s-5.53-21.17-6.5-24.9c-1.66-6.64-1.8-6.78-5.53-5.95c-2.08,0.42-4.29,1.25-4.7,1.66c-0.97,0.83-13.56,53.13-13.56,56.04
		C101.64,104.75,102.61,104.75,107.59,102.95z M117.14,73.48c0.42-2.21,0.83-4.84,0.83-5.95c0-3.18,2.08,0,2.91,4.43
		c0.55,3.32,0.28,4.15-1.8,4.7C116.58,77.35,116.44,76.94,117.14,73.48z M460.13,78.18c0.14-9.27-0.83-14.67-2.35-14.67
		c-0.42,0-1.94,0.69-3.18,1.66c-2.21,1.66-2.21,2.21-0.14,15.63c1.11,7.75,2.49,14.8,2.91,15.91
		C458.47,99.49,460.13,88.7,460.13,78.18L460.13,78.18z M385,69.46v-27.4l-4.01-0.83c-2.21-0.42-4.01-0.69-4.15-0.42
		c-0.14,0.14-0.69,12.18-1.11,26.7l-0.83,26.43l4.7,1.25c2.63,0.69,4.84,1.38,4.98,1.38C384.86,96.72,385,84.41,385,69.46L385,69.46
		z M147.71,93.4c2.63-0.69,2.77-1.38,2.91-13.14l0.14-12.31l4.01,12.45c2.21,6.92,4.43,12.73,4.7,13.14
		c0.42,0.42,1.8-3.18,3.18-8.02c1.38-4.84,3.32-11.62,4.43-15.08l1.8-6.36l0.14,12.87l0.14,12.87l4.7-0.83l4.7-0.83l-0.42-26.84
		c-0.28-14.8-0.55-26.98-0.83-27.26c-0.14-0.28-2.21,0.14-4.57,0.69c-4.01,1.11-4.29,1.52-8.58,16.19L159.75,66l-4.57-13.84
		c-4.57-13.7-4.57-13.84-8.16-13.42c-2.08,0.28-4.01,0.83-4.57,1.25c-0.42,0.42-1.11,12.73-1.25,27.4
		C141.07,96.31,140.79,95.2,147.71,93.4L147.71,93.4z M367.43,66.14c0-14.67-0.42-26.98-0.97-27.4c-0.55-0.28-2.63-0.83-4.7-0.97
		l-3.74-0.42l-0.42,9.96c-0.42,9.82-0.42,9.96-3.74,9.82c-8.44,0-8.86-0.55-9.27-11.9l-0.42-10.38l-4.01-0.42l-4.01-0.42v26.84
		c0,28.64-0.14,28.36,6.36,28.36c2.08,0,2.35-1.25,2.77-11.76l0.42-11.76l4.98,0.42c2.77,0.28,5.4,0.69,5.95,0.97
		s0.97,5.95,0.97,12.59v12.04l4.01,0.55c2.21,0.28,4.57,0.55,4.98,0.69C367.01,92.85,367.43,80.81,367.43,66.14L367.43,66.14z
		 M207.9,84.54c8.16-3.46,11.76-16.05,6.78-24.21c-2.08-3.32-2.08-4.29-0.55-6.36c2.35-3.32,2.21-13.42-0.28-17.02
		c-3.04-4.43-7.47-5.53-17.71-4.57l-9.13,0.83v27.4V88l8.44-0.83C200.01,86.48,205.69,85.38,207.9,84.54z M196.14,75.83
		c-0.42-0.97-0.55-4.29-0.28-7.33c0.42-4.98,0.69-5.67,3.87-5.95c4.98-0.55,7.19,1.8,7.19,7.61c0,4.15-0.55,5.12-3.18,6.23
		C199.32,78.04,196.97,77.9,196.14,75.83z M195.59,47.6c0-4.84,0.42-5.67,3.04-6.36c4.29-1.11,6.92,0.28,7.75,3.87
		c0.97,4.15-2.63,8.16-7.19,8.16C195.86,53.28,195.59,53,195.59,47.6z M321.63,85.1c4.57-2.08,7.06-8.44,7.06-17.99v-8.3l-5.81-0.83
		c-9.13-1.25-9.27-1.25-9.27,3.6c0,3.6,0.42,4.43,2.49,4.43c3.6,0,3.74,9.69,0,10.79c-6.36,2.08-10.1-5.12-10.1-19.51
		c0-10.65,2.49-16.88,6.92-16.88c2.49,0,3.6,0.97,4.7,3.87c1.38,3.6,1.8,3.87,5.81,3.04c2.35-0.42,4.57-0.97,4.84-1.25
		c0.28-0.28-0.42-2.35-1.38-4.84c-5.53-13.42-21.72-14.39-27.26-1.66c-3.32,7.75-4.29,19.92-2.35,29.47
		c2.08,10.38,8.58,17.3,16.05,17.3C316.1,86.48,319.83,85.79,321.63,85.1L321.63,85.1z M245.26,82.75
		c5.53-3.46,8.44-10.52,8.99-22.55c0.97-19.51-5.12-31.13-16.33-31.13c-4.01,0-5.81,0.83-9.13,4.29
		c-5.53,5.67-7.19,12.87-6.64,27.67c0.42,9.69,0.97,13.01,3.18,16.74C230.04,85.24,238.06,87.31,245.26,82.75L245.26,82.75z
		 M235.3,74.31c-6.36-6.5-5.26-33.07,1.52-35.7c8.02-3.18,11.76,27.12,4.43,35.28C238.75,76.8,237.79,76.8,235.3,74.31z
		 M292.16,84.13c0-0.55-1.66-6.09-3.74-12.31l-3.74-11.21l3.87-4.57c3.46-4.15,3.87-5.12,3.32-11.35
		c-0.97-11.48-7.19-15.77-23.24-15.77h-7.89v27.53v27.53h4.98h4.98V72.51c0-15.36,2.08-15.36,7.47-0.14
		c3.6,10.1,4.43,11.48,7.33,11.9C291.75,85.24,292.16,85.24,292.16,84.13L292.16,84.13z M270.85,45.25v-6.78l4.29,0.55
		c5.53,0.69,7.19,2.77,6.78,8.16c-0.42,4.01-0.69,4.29-5.67,4.57l-5.4,0.42V45.25z M68.99,56.73c0.14-1.66-4.29-0.97-7.33,1.11
		l-2.91,2.08l2.91,3.04L64.56,66l2.21-4.15C67.88,59.64,68.85,57.29,68.99,56.73z"/>
	<g id="g3060" transform="matrix(0.95536881,0,0,0.97325585,-276.43252,0.08142099)">
		<path id="path3028" class="st6" d="M539.98,488.65c-92.29-69.46-149.29-154.69-175.72-262.61
			c-10.65-43.45-17.16-96.99-17.16-142.1c0-24.63,1.8-27.26,23.38-35.84c69.18-27.4,171.98-37.08,272.02-25.6
			c50.64,5.81,114.7,24.07,124.8,35.56c4.15,4.7,4.98,7.33,2.21,6.36c-0.97-0.28-3.04,0.42-4.7,1.8c-3.04,2.35-3.04,2.35-1.11,13.42
			c1.11,6.09,2.35,17.43,2.91,25.18c0.55,7.75,1.38,14.11,1.94,14.11c1.8,0,2.63-9.27,2.91-31.55l0.28-21.72l0.42,17.85
			c0.83,33.34-4.01,82.74-12.18,122.86c-15.22,74.71-44.69,139.33-89.38,195.5c-28.23,35.42-99.48,99.07-110.97,99.07
			C557.55,500.97,550.08,496.26,539.98,488.65L539.98,488.65z M571.67,490.31c17.16-11.07,33.9-25.18,53.13-44.69
			c26.57-26.84,41.78-44.69,47.18-55.07c1.66-3.18,1.52-3.74-0.69-5.81c-2.49-2.21-3.04-1.8-20.62,15.5
			c-22,21.72-37.08,33.9-37.08,29.89c0-2.35-17.02-12.04-27.12-15.36c-18.13-6.09-37.77-5.53-53.82,1.52l-6.78,3.04l-2.21-7.47
			c-6.23-21.03-9.69-48.98-6.36-51.19c0.83-0.55,3.04-4.57,5.12-9.13c2.63-5.81,5.67-9.82,10.52-13.97c4.15-3.6,7.33-7.47,8.02-10.1
			c1.25-4.29,7.06-9.82,9.55-8.86c2.08,0.69-2.63,10.1-8.58,17.02c-2.91,3.32-5.95,7.89-6.92,10.24c-1.52,3.74-1.52,4.57,0.42,6.36
			c1.94,1.94,2.21,1.94,3.04-0.42c0.83-2.35,1.11-2.21,1.8,0.69c0.97,4.29,4.98,4.84,12.18,1.52c5.12-2.21,5.81-3.18,6.64-7.75
			c0.42-2.91,1.8-5.95,2.91-6.92c1.38-1.11,1.94-3.46,1.8-7.06c-0.42-5.53,1.11-12.59,2.63-12.59c1.52,0,5.12,7.06,6.09,12.18
			c0.55,2.77,2.08,6.36,3.46,8.16c2.49,3.04,3.18,3.32,16.05,3.32h13.56l3.74-4.84c2.91-3.74,3.74-6.5,3.87-11.76
			c0.28-9.27,5.12-17.16,14.67-24.07l7.47-5.4l2.08,2.77c1.11,1.52,3.32,6.36,4.98,10.52c2.21,6.09,2.49,8.58,1.52,11.21
			c-0.69,1.94-1.52,7.06-1.8,11.48c-0.28,4.43-0.83,10.1-1.38,12.73c-0.69,4.15-0.42,5.12,2.77,7.61c4.57,3.6,5.67,3.6,7.06-0.14
			c0.83-2.08,1.25-2.35,1.25-0.69c0.14,3.74,2.77,4.15,6.23,0.83c2.77-2.63,3.18-3.87,2.49-8.3c-0.42-2.91-1.25-9.13-1.94-13.84
			c-0.55-4.7-1.52-9.55-2.08-10.93c-0.55-1.25-0.28-7.75,0.69-14.39c1.52-11.48,1.52-12.31-1.11-17.57
			c-3.87-7.61-3.6-8.72,1.38-6.23c5.67,2.91,18.4,4.01,23.38,1.8c4.29-1.8,9.13-7.06,9.13-9.96c0-1.25-1.52-1.52-6.23-0.97
			c-5.12,0.55-6.92,0.14-10.38-2.35c-2.21-1.66-6.5-4.84-9.55-7.06c-5.12-3.74-5.4-4.15-4.7-9.41c0.42-3.04-0.14-9.55-1.38-14.94
			c-1.25-5.26-1.8-11.35-1.38-13.56c0.42-2.21,1.38-6.92,2.08-10.38c1.8-8.72-0.42-17.57-6.5-26.84c-2.77-4.15-5.67-9.82-6.64-12.73
			c-0.97-2.91-2.77-6.92-4.15-8.86c-2.49-3.46-2.49-3.87-0.28-10.38c4.15-12.73-0.14-22.97-12.18-28.92
			c-5.81-2.91-8.44-3.18-38.46-4.01c-28.78-0.83-43.86-2.21-47.32-4.43c-2.49-1.52-1.11-5.95,2.21-7.47
			c2.77-1.25,5.12-0.97,14.8,2.21c12.18,4.01,25.04,4.84,32.1,2.08c4.7-1.8,3.6-3.46-2.91-4.57c-2.91-0.42-5.53-1.38-5.95-2.08
			c-1.11-1.8,1.66-1.66,11.76,0.69c8.16,1.94,15.22,1.52,15.22-0.69c0-1.38-11.07-5.95-20.48-8.44
			c-10.65-2.77-29.75-2.77-38.33,0.14c-8.02,2.63-16.6,9.55-17.85,14.39c-1.11,4.43,2.63,8.58,9.41,10.93
			c2.77,0.97,20.89,2.35,41.65,3.32c39.02,1.8,42.62,2.49,47.18,8.99c3.04,4.29,2.63,10.79-0.97,14.94
			c-3.04,3.46-3.18,3.46-10.24,1.94c-3.87-0.83-14.8-4.15-24.21-7.19c-13.28-4.29-17.99-5.26-21.03-4.43
			c-2.08,0.55-8.3,4.84-13.7,9.55c-5.4,4.7-15.63,11.48-22.69,15.22c-18.13,9.55-23.66,17.02-25.87,34.59
			c-1.25,9.96-3.46,15.08-12.59,29.47c-6.23,9.82-9.69,19.92-9.69,27.67c0,4.01-1.8,11.9-4.57,20.34
			c-3.87,11.62-4.57,15.5-4.57,25.46c0,9.82-0.55,12.59-3.32,17.99c-1.8,3.46-3.6,9.27-4.01,12.87
			c-1.25,10.79-1.52,11.48-8.44,19.65c-3.6,4.29-6.64,8.86-6.64,10.24c0,1.25-0.55,2.35-1.25,2.35c-2.21,0-7.89,9.69-7.89,13.42
			c0,4.98,2.49,5.95,5.4,2.21l2.49-3.18l-0.83,4.29c-0.69,3.74-0.42,4.29,1.94,4.29c1.94,0,3.87,1.94,6.23,6.23
			c13.84,24.35,44.55,60.05,67.38,78.59c11.62,9.41,27.4,20.2,29.61,20.2C562.67,495.71,567.1,493.22,571.67,490.31L571.67,490.31z
			 M482.29,369.11c0.69-1.94,1.25-6.36,1.11-9.96c-0.14-5.26,0.55-7.33,3.74-11.48c4.98-6.36,7.61-11.35,9.55-18.68
			c1.66-6.23,15.36-32.93,16.88-32.93c2.77,0,4.15,4.01,4.15,12.04c0,6.64,0.55,9.13,2.08,9.96c3.32,1.94-1.38,15.22-7.61,21.17
			c-7.89,7.75-11.9,11.21-15.77,13.56c-2.63,1.66-3.87,3.74-4.43,7.61c-0.42,2.91-1.38,5.26-1.94,5.26s-2.91,1.52-5.12,3.46
			l-4.01,3.46L482.29,369.11L482.29,369.11z M572.91,112.45c-1.66-1.11-1.52-1.25,0.69-1.25c1.38,0,3.87,0.55,5.26,1.25
			c2.35,0.97,2.35,1.11-0.69,1.25C576.37,113.69,574.02,113.14,572.91,112.45z M386.95,279.45c-2.49-7.75-7.06-24.77-10.24-37.77
			c-11.07-44.55-14.67-74.58-18.54-150.54c-0.69-12.87-1.38-17.43-3.32-20.62c-2.91-4.84-5.12-5.26-5.26-1.11
			c-1.66,53.82,7.19,122.45,22.41,172.54c6.64,21.72,17.3,51.61,18.54,51.61C391.11,293.56,389.45,287.2,386.95,279.45
			L386.95,279.45z M427.91,202.38c25.6-6.78,49.39-26.43,60.46-49.95c1.38-2.91,2.49-5.53,2.63-5.95s1.25-4.15,2.63-8.58
			c1.8-5.81,2.49-11.9,2.49-23.66c0-17.71-0.97-22.83-4.29-23.11c-1.25-0.14,1.11-0.69,5.26-1.25c14.25-2.08,19.37-7.19,19.37-19.37
			c0-4.43-0.83-7.47-2.49-9.55c-2.35-2.91-2.35-3.32-0.28-5.53c1.38-1.52,2.21-4.7,2.21-8.99c0-5.67-0.55-7.06-4.29-10.38
			c-4.57-4.01-10.38-4.84-21.58-3.04l-4.98,0.83v17.43c0,9.55-0.42,18.4-0.83,19.51c-0.42,1.11-2.21,2.08-3.87,2.08h-3.18V53.78
			c0-18.82,0-19.09-2.91-18.96c-7.61,0-8.16,0.83-12.87,16.74l-4.43,15.22l-4.57-13.97l-4.57-13.97l-4.7,0.83
			c-2.49,0.42-5.12,1.11-5.67,1.38c-0.55,0.28-0.97,8.72-0.97,18.68V78l-3.46,0.83c-1.94,0.42-3.87,0.42-4.43-0.14
			c-0.55-0.55-2.77-8.02-4.98-16.6s-4.29-15.91-4.7-16.19c-0.28-0.28-2.63-0.14-5.26,0.28l-4.7,0.83l-3.46,14.67
			c-6.23,26.43-4.98,24.07-12.87,25.87c-3.74,0.83-8.86,2.35-11.21,3.32l-4.29,1.8V74.81c0-15.77-0.28-17.71-2.08-17.02
			c-1.11,0.42-3.6,1.11-5.26,1.66l-3.18,0.83l0.55,29.75c0.55,32.79,2.21,44.69,10.65,75.13c6.36,23.24,12.18,37.77,15.63,39.29
			C397.47,206.12,418.36,204.87,427.91,202.38L427.91,202.38z M412,76.2c0.42-1.11,0.83-3.32,0.83-4.84c0-3.6,2.08-1.52,3.18,3.32
			c0.69,3.04,0.42,3.6-1.94,3.6C412,78.27,411.44,77.72,412,76.2L412,76.2z M495.43,71.91c0-5.53,0.42-6.5,2.91-7.19
			c4.57-1.25,7.61,1.25,7.61,6.09c0,5.26-1.94,7.47-6.78,7.47C495.57,78.27,495.43,78,495.43,71.91z M447.7,76.06
			c-0.42-0.42-0.83-1.8-0.83-2.91c0-1.66,0.28-1.66,1.38,0.28C449.77,75.92,449.36,77.72,447.7,76.06z M465.41,71.77
			c0-1.8,0.28-2.49,0.69-1.66c0.42,0.97,0.42,2.35,0,3.32C465.82,74.26,465.41,73.57,465.41,71.77z M495.43,48.8
			c0-5.81,0-5.95,4.57-5.95s5.4,1.11,4.7,6.5c-0.28,2.49-3.87,5.26-6.92,5.26C495.84,54.61,495.43,53.51,495.43,48.8z
			 M748.77,167.65c3.74-9.13,9.27-42.48,9.27-54.93c0-4.7-0.97-9.55-2.63-12.87c-2.08-4.29-2.49-8.16-2.63-22.41V60.29l-4.57-1.38
			l-4.57-1.38l-0.42,15.91c-0.42,15.08-0.55,15.91-3.04,15.5c-5.95-0.83-5.95-0.83-5.95-18.4V53.65l-4.15-0.83
			c-2.21-0.42-4.57-0.83-5.26-0.83c-0.69,0-1.11,5.81-1.25,12.73v12.87l-5.95-14.39c-3.32-7.89-6.36-14.8-6.78-15.22
			c-0.42-0.42-2.77-1.25-5.12-1.8l-4.29-0.83V62.5c0,17.02,0,17.16-3.04,17.16c-5.53,0-6.23-2.21-6.23-19.79
			c0-16.19-0.14-16.6-2.91-17.43c-7.75-2.08-7.61-2.35-7.61,17.02v17.85l-2.91-0.83c-1.66-0.42-3.46-0.83-3.87-0.83
			c-0.55,0-0.97-8.16-0.97-18.26V39.26l-4.15-0.83c-2.21-0.42-4.57-0.83-5.26-0.83c-0.69,0-1.11,4.7-1.11,10.52
			c0,11.35,0.14,11.21-7.61,9.69l-4.01-0.83l-0.42-10.65l-0.42-10.65l-4.98-0.42l-4.98-0.42v28.23v28.23l4.57,0.55
			c2.49,0.28,4.84,0.28,5.26-0.14c0.28-0.28,0.55-5.81,0.55-12.18c0-12.59-0.14-12.31,7.75-10.79l4.15,0.83l0.14,9.96
			c0.14,11.07,1.94,36.11,2.91,40.26c5.12,20.34,21.31,39.16,40.54,46.63c10.1,4.01,16.05,4.98,28.92,4.84
			C746.97,170.98,747.38,170.84,748.77,167.65L748.77,167.65z M712.79,81.87c-1.38-4.57-1.66-7.47-0.69-6.92
			c1.8,1.11,4.01,8.58,2.49,8.58C713.9,83.53,713.07,82.84,712.79,81.87z M627.7,86.71c4.29-2.77,5.53-7.06,5.53-17.57
			c0-9.96-0.55-10.52-10.79-10.52c-4.84,0-4.98,0-4.98,5.26c0,4.43,0.42,5.26,2.63,5.26c2.08,0,2.63,0.83,2.63,3.74
			c0,5.53-3.04,7.61-7.19,4.84c-4.15-2.77-5.26-6.92-5.26-19.23c0-15.08,5.81-22,10.93-13.01c1.94,3.46,2.91,3.87,6.78,3.6
			c4.15-0.28,4.57-0.69,4.29-4.01c-0.55-8.58-10.93-15.63-19.51-13.56c-5.12,1.25-10.52,7.61-12.18,14.39
			c-3.18,12.73-0.83,30.44,5.12,38.05C610.55,90.03,620.78,91.28,627.7,86.71z M547.73,84.22c5.53-4.7,8.3-12.59,8.58-24.21
			c0.28-19.23-5.81-30.16-16.74-30.16c-11.62,0-18.4,10.79-18.4,29.47c0,12.18,3.04,21.58,8.16,25.6
			C534.17,88.65,542.75,88.37,547.73,84.22L547.73,84.22z M534.72,74.81c-1.25-1.38-1.94-6.5-2.21-14.8
			c-0.42-13.97,1.11-18.82,5.95-19.65c4.84-0.69,7.19,7.06,6.64,20.89c-0.55,11.76-2.08,15.5-6.36,15.5
			C537.49,77.03,535.69,76.06,534.72,74.81z M572.63,75.37c0.55-15.36,2.63-15.22,8.16,0.28l4.29,11.76h5.67
			c3.18,0,5.67-0.14,5.67-0.28c0-0.14-1.94-5.81-4.43-12.59l-4.29-12.31l3.74-3.74c3.04-3.04,3.74-4.84,3.74-10.38
			c0-13.56-4.57-17.43-21.31-18.26l-11.48-0.55v28.23c0,30.16,0,29.89,6.5,29.33C572.22,86.85,572.22,86.58,572.63,75.37
			L572.63,75.37z M572.91,46.73c0-6.5,0-6.5,4.29-6.5c5.26,0,7.47,1.94,7.47,6.5c0,4.57-2.21,6.5-7.47,6.5
			C572.91,53.37,572.91,53.37,572.91,46.73z M358.87,66.1c0-0.83,1.52-3.74,3.32-6.5c2.63-3.87,2.91-4.84,1.25-4.84
			c-2.21,0-12.45,4.84-12.45,5.95c0,0.42,1.25,2.35,2.77,4.57C356.65,68.87,358.87,69.28,358.87,66.1z M435.38,35.66
			c54.93-8.86,109.44-11.62,167.14-8.58c23.52,1.25,63.51,5.12,79.42,7.75c6.92,1.11,9.13,0.97,7.61-0.55
			c-1.11-1.11-31.96-6.92-48.29-8.99c-30.72-4.01-55.07-5.12-99.07-4.43c-45.8,0.69-65.17,2.35-95.19,8.3
			c-22.28,4.29-41.09,9.82-33.76,9.82C414.35,38.84,424.31,37.46,435.38,35.66z"/>
	</g>
</g>
</svg>
