<svg xmlns="http://www.w3.org/2000/svg" xml:space="preserve" id="Layer_1" x="0" y="0" viewBox="0 0 512 512"><style>.st0{fill:#e6e7e8}.st3{fill:#8d9093}</style><g id="XMLID_1_"><path id="XMLID_2_" d="M254.16 511.7c-5.12-1.99-42.66-20.19-52.9-25.74-70.11-38.11-116.75-83.9-154.86-151.88-25.6-45.93-39.25-94.99-43.8-157.14-1-13.94-.57-60.15.85-76.37l.57-7.11 10.24-7.82c37.25-28.43 81.34-52.75 120.3-65.98 22.18-7.68 48.92-13.79 76.08-17.49 19.91-2.7 68.12-2.99 87.46-.43 46.64 6.11 82.34 16.5 121.73 35.69 29.86 14.51 61.29 34.56 85.18 54.18l3.27 2.7 1 18.2c1.28 22.47.57 66.13-1.28 82.91-3.13 27.59-6.97 46.22-14.79 72.81-6.68 22.61-10.81 32.99-20.76 52.62-19.77 39.11-41.24 68.97-70.53 98.26-34.27 34.13-67.12 56.31-123.29 82.91-21.06 9.96-22.48 10.53-24.47 9.68m205.06-200.09c11.95-23.75 17.63-38.25 22.47-58.16 2.56-10.1 4.41-24.6 3.13-23.46-.28.28-2.42 7.25-4.55 15.5-8.53 32.71-14.79 50.34-26.88 74.52-3.7 7.39-5.83 12.37-4.84 11.09 1.14-1.14 5.83-9.96 10.67-19.49m-349.83-171.5c0-.43.71-1.28 1.71-1.71 1-.57 2.56-2.42 3.7-4.27s5.12-6.68 8.82-10.95c18.91-21.19 36.83-34.7 60.01-45.36 10.52-4.84 17.06-7.11 31.43-10.95 6.54-1.71 12.37-3.56 12.8-3.98s1.85-.85 3.13-.85c2.13 0 2.13-.14-.71-1.56s-3.41-1.42-12.37.43c-33.42 6.97-66.27 25.03-89.59 49.35-8.82 9.1-18.77 22.04-21.76 28.16-1.14 2.13-2.56 4.69-3.27 5.55-.85 1-.85 1.56-.28 1.56s1 .71 1 1.42c0 .85 1.14 0 2.7-2.28 1.4-2 2.68-3.99 2.68-4.56" class="st0"/><path id="XMLID_3_" d="M240.79 504.02c-33.7-15.93-54.61-27.3-75.09-40.96-52.05-34.84-91.58-79.49-122.44-138.22-16.5-31.43-28.73-69.4-34.84-107.93-4.27-27.02-5.12-43.52-4.55-80.77.28-18.63.85-35.55 1.14-37.54.43-3.56 1.14-4.27 9.1-10.67 40.81-32.57 93.86-59.87 141.78-72.95 34.13-9.39 64.85-13.51 99.97-13.51 32.85 0 60.44 3.41 93.71 11.8 51.91 12.94 108.36 42.38 156.57 81.48 2.7 2.28 3.41 70.39.85 95.99-2.84 29.29-6.83 49.35-15.64 78.64-10.1 33.7-22.33 59.16-44.8 92.86-15.22 23.04-26.73 36.97-45.22 55.6-30.57 30.57-61.58 52.19-107.08 74.94-19.77 9.81-36.97 17.78-38.54 17.78-.56 0-7.24-2.84-14.92-6.54m37.54-13.23c24.03-12.09 33.42-17.63 38.82-22.75l29.44-16.07 49.06-35.84 65.7-88.88 34.56-96.7 6.26-78.78-3.56-52.19-51.76-38.96-63.57-30.15c-17.78-8.25-56.17-18.06-87.31-22.33-16.07-2.28-56.6-2.7-74.37-1-36.97 3.7-71.39 11.95-99.12 23.75-33.7 14.36-52.05 24.46-85.61 46.93-23.04 15.5-24.03 16.21-24.6 19.34-.28 1.85-.85 13.65-1.28 26.45C9 198.55 21.66 262.55 49.24 317.72 92.9 401.05 165.85 469.31 255.3 500.74c2.55.15 8.1-2.27 23.03-9.95" style="fill:#acafb2"/><path id="XMLID_50_" d="M239.94 468.75c-47.35-24.6-75.37-44.08-103.1-71.81-25.6-25.6-42.52-48.07-60.3-80.63-30.29-55.32-42.09-116.89-36.83-193.83l.57-8.25 8.53-6.4c39.53-29.86 81.34-50.91 121.3-61.43 30.57-7.96 51.76-10.67 84.9-10.67 30.43 0 46.93 1.85 75.94 8.25 36.26 8.11 75.8 25.6 111.06 49.2 14.51 9.67 28.44 20.34 29.29 22.18.43 1 .85 18.34.85 38.4.14 33.28-.14 37.68-1.99 51.05-7.54 54.61-22.61 94.99-52.33 139.5-29.72 44.65-68.12 80.35-116.33 107.93-9.39 5.4-42.66 23.18-44.94 23.89-.41.44-8.09-2.97-16.62-7.38" style="fill:#01336b"/><path id="XMLID_4_" d="M275.35 414.57c32.28-3.56 63.42-15.64 89.31-34.84 8.96-6.54 24.6-21.76 32-30.86 18.49-22.9 31.43-50.06 37.68-79.49 2.28-10.81 2.42-12.94 2.42-34.27 0-19.77-.28-24.03-1.99-32.85-10.24-53.61-42.52-98.69-90.16-125.85-16.64-9.53-38.25-17.21-59.02-20.76-13.79-2.42-40.96-2.84-54.18-1-44.94 6.68-84.61 28.01-113.05 61.01-40.67 47.07-54.32 109.36-37.12 169.23 13.94 48.63 49.77 90.87 95.99 112.91 16.78 7.96 39.82 14.65 58.16 16.64 9.95 1.27 30 1.27 39.96.13m-46.08-22.47c-55.03-9.24-102.82-47.5-122.72-97.98-7.68-19.48-10.52-33.56-11.23-54.32-.57-16.92.57-29.01 4.12-43.23 15.5-61.86 63.28-107.65 124.72-119.45 13.65-2.7 14.65-2.56 16.21 1.42 3.7 8.96 7.11 27.3 10.52 57.17 1.42 2.7-.43 23.32 5.55 20.76 1.14-.71 1.71-2.84 2.28-7.96 3.56-37.12 9.39-67.97 13.65-72.24 1.14-1.14 2.42-1.14 10.38.14 32.71 5.26 62.57 20.76 86.89 45.08 12.66 12.8 20.76 23.61 28.44 38.25 13.79 26.59 19.48 51.48 18.49 80.06-.57 14.51-1.85 23.46-5.55 36.97-15.36 56.46-62.14 100.82-119.6 113.34-5.55 1.28-12.09 2.42-14.36 2.84l-4.27.57-1.42-3.41c-4.27-10.1-9.67-39.96-11.8-65.56-.57-6.4-1.14-12.23-1.42-13.08-.43-1.56-3.41-2.13-4.27-.85-.28.43-1.42 9.81-2.7 20.9-3.7 33.28-8.82 59.02-12.09 61.15-1.57.85-1.29.85-9.82-.57" class="st0"/><path id="XMLID_5_" d="M240.79 403.48c-.71-.14-6.11-.71-11.95-1.14-10.38-.85-22.04-3.7-33.13-7.82-5.12-1.99-13.08-6.4-12.51-6.97.14-.14 3.56.85 7.39 2.42 17.21 6.68 23.61 8.11 41.24 8.67 12.8.43 17.21 1 19.91 2.13s3.13 1.71 2.28 2.42c-1.14.72-10.24 1-13.23.29m16.07-.29c-1.14-.71-1.28-5.12-1.14-30.86.14-16.5 1.14-33.56 1.14-37.97-.14-9.39.28-22.61-1.14-22.61.85-.28 1.85.71 1.99 2.84.57 10.1 1.14 54.61 4.12 72.53 1.85 11.09 4.55 11.8 17.06 12.51 15.36-.71 23.89-2.42 40.24-8.67 5.4-1.99 9.81-3.56 10.1-3.27.71.71-8.11 5.26-15.93 8.11-11.23 3.98-22.9 6.4-36.69 7.54-13.78.85-18.04.85-19.75-.15" class="st3"/><path id="XMLID_45_" d="M255.86 155.19c1.28 0 1.99-15.22 1.14-23.04-1.42-11.8-1.71-66.27-.28-67.69 1.85-1.85 23.46.43 37.97 4.12 15.07 3.84 23.46 6.97 36.83 13.94 9.81 5.12 19.2 11.23 18.49 11.95-.14.14-5.97-2.42-12.8-5.83-16.07-8.11-24.03-10.95-40.1-14.22-7.25-1.56-16.21-3.56-19.91-4.41-8.82-2.28-10.95-2.13-13.65.28-1.99 1.85-2.28 3.13-3.13 11.8-.71 7.25-.57 11.52.28 16.78-.29 13.37 2.84 21.05-4.84 56.32" class="st3"/><path id="XMLID_6_" d="M239.94 502.31c-32.71-15.5-51.62-25.88-71.1-38.54-47.35-31-83.9-70.11-114.48-122.44-28.3-48.35-43.66-99.54-48.07-160.83-1.14-14.93-.57-73.52.71-81.34s1.85-1.99 1 11.09c-4.84 79.78 9.24 156.43 39.39 212.74 28.16 52.76 62.29 92.58 107.51 125.57 18.2 13.23 49.91 31.85 83.33 48.78 14.36 7.25 17.78 8.67 20.19 8.39 1.56-.28 7.96-2.84 14.22-5.55 24.18-10.95 44.94-22.61 53.19-29.72 2.28-1.99 12.23-9.39 22.33-16.5s22.9-16.92 28.73-21.76c49.91-41.81 90.59-102.67 109.36-163.4 11.66-38.11 17.78-82.76 17.78-129.27 0-19.34-1.14-40.39-2.28-43.37-.43-1.14-.14-1.56 1.71-1.56 1.99 0 2.28.43 2.84 4.27 1.28 10.52 2.13 49.77 1.42 67.41-1.71 39.68-5.97 65.84-16.5 100.68-7.11 23.75-11.09 33.7-20.76 52.9-21.33 42.09-49.91 80.63-79.78 107.51-29.15 26.17-53.47 42.38-95.71 63.42-16.07 8.11-38.54 18.91-38.96 18.77-.43.15-7.54-3.12-16.07-7.25m-.57-15.64c-23.61-12.23-54.61-32.14-64.7-41.38-3.98-3.56-3.84-3.56 9.81 4.98 13.37 8.25 30.86 17.92 51.34 28.16l19.34 9.67 12.23-6.11c40.67-20.19 66.27-35.98 90.59-56.03 37.68-31 66.13-65.56 89.45-108.79 25.6-47.35 37.83-100.26 37.83-162.68 0-17.06-1.56-46.36-2.7-49.49-1.28-3.27-36.69-28.01-55.89-38.96-20.34-11.66-45.65-22.9-71.96-32.14-7.54-2.7-13.94-4.98-14.22-5.26-1.42-1.42 21.62 3.98 34.7 8.11 22.04 7.11 46.36 18.49 66.55 31 9.24 5.69 35.55 24.89 43.37 31.57 1.85 1.56 2.13 2.84 2.99 14.08 1.28 15.93.43 63.85-1.42 79.35-3.41 30.72-11.8 66.27-22.04 94.14-5.26 14.36-19.48 43.66-27.87 57.31-6.68 10.95-23.89 35.84-31.43 45.36-13.51 16.92-47.21 48.49-61.58 57.59-10.67 6.68-55.89 30.01-74.66 38.4-5.69 2.56-11.52 5.55-13.08 6.54-1.42 1-2.7 1.85-2.99 1.85-.01-.16-6.27-3.43-13.66-7.27m18.34-84.47c-1.14-.71-1.28-3.98-1-22.47.28-23.75 1.85-32.42 1.99-11.38.14 16.92 1.14 27.59 2.84 28.87 1.85 1.28 2.7 4.98 1.14 4.98-.71 0-1.71.14-2.42.43-.7.28-1.84.14-2.55-.43m-16.35-.85c-.71-1.14 6.68-1.14 8.39 0 1 .57 0 .85-3.27.85-2.56 0-4.84-.43-5.12-.85M129.73 122.48c0-1.42 9.95-11.8 17.06-17.78 15.22-12.94 36.26-24.74 53.75-30.29 17.21-5.4 49.2-11.38 49.2-9.1 0 .57-.14 1-.28 1-2.99 0-18.63 3.56-30.72 7.11-22.75 6.54-45.65 18.06-65.7 32.99-13.5 9.95-23.31 16.78-23.31 16.07m127.84-13.51c-1-6.68-1.71-38.54-.85-41.38l.71-2.7 9.67.28c10.67.28 23.32 2.42 35.41 5.97 7.54 2.13 19.2 6.97 19.2 7.82 0 .28-1.85-.14-4.27-.85-9.53-2.84-43.94-11.09-48.78-11.52-4.69-.43-5.4-.43-5.97 1.14-.28.85-1.28 2.84-1.99 4.12-1 1.85-1.56 6.97-1.99 21.76-.43 12.37-.86 17.92-1.14 15.36M33.88 199.41c-1.85-14.36-2.56-25.6-3.27-42.52-.57-17.78.71-47.64 2.13-49.06.57-.57 1.56.14 2.84 2.13 1.56 2.42 1.85 3.84 1.42 7.96-2.99 30.29-3.7 53.04-2.13 74.94.43 6.41 1.28 23.62-.99 6.55M487.8 86.07c-9.1-6.11-16.78-11.95-16.78-12.94-.14-1.42 1.99-.57 8.25 3.56 5.55 3.7 17.92 14.36 16.64 14.36-.29.14-3.98-2.13-8.11-4.98" style="fill:#5f6269"/><path id="XMLID_7_" d="M235.39 501.03c-49.63-23.61-78.5-41.81-108.79-68.69-44.51-39.38-82.77-96.41-101.97-152.44C8.42 232.69 1.88 182.2 4.44 122.76c.71-16.5 1.42-26.31 2.13-27.3 1.56-2.28 15.07-13.08 26.59-21.05 27.87-19.62 61.43-37.26 92.15-48.78 76.79-28.58 160.84-31.14 239.9-7.25 41.95 12.66 95.28 40.81 130.12 68.83 4.41 3.56 8.67 6.68 9.53 6.97 2.28.85 2.99 13.37 2.99 53.04 0 37.54-.71 47.07-5.4 74.66-2.84 16.5-5.26 27.02-11.52 47.64-9.95 33.28-23.04 60.15-45.08 93.29-36.55 54.75-79.21 92.15-143.2 125.43-19.34 10.1-44.51 21.76-46.93 21.62-1.14-.15-10.24-4.13-20.33-8.83m38.25-3.27c14.36-6.68 22.75-11.38 25.88-14.22 1.28-1.14 7.96-5.55 15.07-9.81 38.82-23.46 64.28-42.95 87.03-66.69 23.61-24.6 41.52-49.06 58.87-80.77 28.3-51.48 41.67-111.49 41.95-187.43 0-14.22-.28-29.15-.71-33.28-.71-7.39-.85-7.68-3.84-9.39C432.2 47.39 376.6 18.1 296.25 6.3c-17.49-2.28-64.85-2.28-82.2 0-37.4 4.84-69.54 13.08-92.01 23.46-41.38 19.2-53.19 25.6-81.34 44.23-10.52 6.97-21.62 14.08-24.6 15.93l-5.4 3.27-.57 5.97c-1.28 14.22-1.71 55.46-.71 71.25 4.98 75.65 22.9 131.11 60.86 188.42 13.08 19.77 26.17 35.55 43.94 53.33 32.71 32.71 61.72 52.47 120.16 81.77 18.91 9.53 21.76 10.67 24.6 10.1 1.58-.44 7.98-3.14 14.66-6.27m-34.98-10.1c-26.02-13.65-50.06-29.15-70.11-45.08-11.38-9.1-31.57-27.59-31.57-28.87 0-.57 1.71.57 3.84 2.28 17.21 14.79 42.38 32.28 62.86 43.94 15.07 8.53 49.2 25.88 51.19 25.88 1.85 0 37.26-17.78 51.05-25.6 62.43-35.55 106.94-80.92 141.5-144.62 14.79-27.3 26.17-60.58 31.71-92.86 3.84-22.9 6.26-64.14 4.98-86.46-1.14-20.9 4.12-26.45-13.08-39.53-50.2-36.69-92.58-56.6-149.74-70.39-8.53-1.99-16.21-4.12-17.35-4.55-3.27-1.28 5.4-1 16.5.57C369.2 29.19 408.88 44.12 449.55 71c11.66 7.68 34.13 24.74 37.83 28.58l2.28 2.42v38.82c0 42.66-.57 50.48-5.83 78.92-8.39 45.36-22.75 85.32-43.52 120.88-5.55 9.39-20.48 31.57-30.86 45.65-12.37 16.78-44.94 48.78-61.72 60.86-6.4 4.55-54.75 29.15-75.94 38.68-6.97 3.13-13.08 6.4-13.65 7.25-1.99 2.85-5.83 1.72-19.48-5.4M36.58 183.2l.43 10.38c1.42 34.98 11.95 76.37 27.73 110.07 8.39 17.92 20.76 38.54 35.13 58.45 3.7 5.12 8.82 12.37 11.38 15.93 2.56 3.7 12.37 14.22 21.47 23.61 9.24 9.24 15.64 15.93 14.22 14.65-34.41-30.43-60.01-63.42-79.35-102.53-20.05-40.67-29.86-73.52-35.27-119.03-1.99-16.92-2.42-83.9-.43-87.31 3.98-6.97 46.93-35.55 68.69-45.79 8.67-4.12 25.31-10.52 26.88-10.38.57 0-3.7 2.42-9.53 5.12-19.91 9.53-36.4 19.48-58.59 35.27-4.41 3.13-11.52 7.82-15.78 10.38-4.27 2.56-7.82 5.12-7.82 5.55zm114.48 236.06c-1.14-1.42-1.14-1.42.28-.28s1.99 1.85 1.28 1.85c-.28 0-.99-.57-1.56-1.57" class="st3"/><path id="XMLID_8_" d="M238.23 467.04c-62-32-101.11-63.71-134.39-108.79-30.43-41.1-49.49-84.04-58.73-132.39-4.69-24.46-5.4-34.7-5.4-71.53 0-18.77.28-35.55.71-37.26.57-2.7 1.99-4.12 10.67-10.38 29.44-21.47 51.76-34.27 80.2-46.5 40.39-17.35 94-26.59 139.08-23.89 71.67 4.12 127.28 24.74 189.56 70.53 10.67 7.82 11.09 8.25 10.52 10.1-.43 1-.57 1-1.42 0-.57-.71-2.84-2.42-4.98-3.98-2.13-1.56-7.39-5.4-11.66-8.53s-9.24-6.54-11.09-7.68-5.55-3.56-8.25-5.26c-6.4-4.12-12.23-7.39-31.57-16.92-24.6-12.09-30.01-14.65-32.85-15.36-1.42-.28-6.26-1.85-10.67-3.41-29.72-10.52-66.13-16.35-101.68-16.35-43.09 0-83.48 7.82-120.73 23.18-10.24 4.27-33.42 15.78-42.95 21.47-17.49 10.38-43.23 28.44-46.22 32.42-2.28 2.99-3.13 13.79-3.13 40.24-.14 49.63 7.68 91.3 24.89 131.97 18.91 44.65 57.74 95.71 98.41 129.12 14.36 11.8 15.64 12.8 20.62 15.93 2.28 1.42 7.25 4.84 11.09 7.39 3.84 2.56 7.39 4.69 8.11 4.69s1.14.43 1.14.85c0 .43 1.71 1.85 3.84 2.84 9.39 4.84 14.65 7.82 19.2 10.81 2.7 1.71 5.55 3.27 6.4 3.27s1.71.43 1.99.85c.28.43 2.28 1.71 4.27 2.7 1.99 1 4.41 2.13 5.12 2.56s3.27 1.71 5.55 2.7c2.28 1.14 3.98 2.28 3.7 2.7-.28.43-.71.85-1.14.85-.72.02-8.68-4.1-18.21-8.94m2.56-46.64c-1.28-.14-6.68-1-11.95-1.85-5.4-.85-10.81-1.99-12.23-2.7-1.28-.71-3.56-1.14-4.84-1.14-3.41 0-21.76-6.4-30.29-10.52-.85-.43-3.13-1.42-4.98-2.42-1.99-.85-6.11-3.13-9.24-4.98s-5.83-3.41-6.11-3.41c-.85 0-10.95-7.54-14.65-10.95-1.99-1.85-3.98-3.27-4.41-3.27s-1.85-1.14-3.27-2.42c-12.23-11.66-17.92-17.35-17.49-17.78.28-.28 3.41 2.42 6.97 5.83 47.92 47.07 120.73 63.57 185.44 41.95 38.96-12.94 70.25-37.12 93.43-71.96 31.43-47.21 39.25-103.53 21.47-157.28-15.07-45.79-49.49-85.18-93.57-107.22-3.13-1.56-5.26-2.84-4.69-2.84 1.56 0 23.04 10.38 23.75 11.52.28.57 1.14 1 1.99 1 .71 0 2.84 1.14 4.55 2.42 1.71 1.42 4.41 2.99 5.83 3.84 7.25 3.7 32 27.59 41.1 39.53 27.73 36.97 40.1 79.64 36.26 126.56-.71 8.53-1.71 17.35-2.13 19.48-.57 2.13-1.42 5.97-1.99 8.39-2.13 9.53-9.53 30.15-13.37 37.26-11.23 20.76-18.06 30.72-29.44 42.95-19.91 21.62-44.08 38.25-69.4 47.78-25.31 9.67-37.26 11.8-64.85 12.23-10.8.29-20.61.14-21.89 0m30.72-31c-4.84-11.66-11.95-54.89-11.95-73.09 0-6.26 1.42-7.39 4.12-3.27 1.71 2.7 3.84 13.37 3.98 19.34 0 2.28.43 5.97.85 7.96.43 2.13 1.71 10.38 2.7 18.34 1.85 14.79 5.26 28.73 7.68 31.43 1.14 1.28 1 1.56-.71 1.99-4.26.86-5.39.43-6.67-2.7m-40.82 1.42c-.28-.43.71-.57 2.13-.28 1.42.14 2.56.57 2.56.71.15.71-4.26.28-4.69-.43m-4.69-.71c.28-.28 1-.28 1.71-.14.71.28.57.43-.57.57-.86.14-1.42-.14-1.14-.43m-10.95-2.27c-11.66-3.13-19.77-6.11-29.72-10.95-80.63-38.68-113.2-135.81-72.38-215.59 22.18-43.37 62.14-73.81 109.5-83.48 11.52-2.42 16.92-2.13 17.21.71.28 1.56 0 1.85-1.14 1.42-1.56-.57-16.92 1.85-22.33 3.7-1.99.71-6.4 2.13-9.81 3.13-8.67 2.7-27.87 12.23-36.69 18.06-34.56 23.18-57.88 58.02-66.84 100.11-2.42 11.66-3.41 34.7-1.85 47.78 2.13 17.92 6.97 34.56 14.79 50.34 4.55 9.24 7.68 14.22 16.78 27.3 3.7 5.26 18.2 20.19 26.17 26.73 5.4 4.55 18.91 13.94 20.05 13.94.57 0 1.71.85 2.56 1.85s2.13 1.71 2.84 1.71 2.42.71 3.7 1.71 3.56 1.99 4.98 2.28c1.42.28 2.99 1 3.56 1.28 1.14.85 11.38 4.55 18.63 6.54 2.99.85 6.11 1.85 7.11 2.28 3.55 1.56-.15 1.14-7.12-.85m75.08-101.54c-3.13-1.42-12.66-9.81-11.95-10.67.28-.28 1.99.71 3.84 2.28 4.84 3.98 10.81 5.4 16.5 3.84 9.24-2.42 14.51-9.24 17.92-23.18 1.14-4.41 2.28-8.39 2.56-8.67.28-.43 1.56 0 2.56.71 1.85 1.28 1.99 1.99 1.85 7.25-.14 3.27-.71 6.83-1.42 8.11s-1.14 3.13-1.14 4.27-.85 2.42-1.71 2.84c-1 .57-1.99 2.28-2.28 3.84-.57 2.99-5.4 7.25-10.67 9.24-3.68 1.7-12.78 1.7-16.06.14m-147.61-.43c-14.65-.28-19.06-.71-20.34-1.71-1.42-1.28-1.42-1.28.14-1.99.85-.28 10.95-.71 22.18-.71 16.07 0 20.76-.28 21.62-1.28.57-.71 2.13-6.68 3.41-13.37 1.42-6.68 2.84-12.51 3.41-13.08s3.56-.85 7.11-.71l6.11.28.28 2.7c.28 2.56.14 2.7-2.28 2.42-4.41-.71-5.97 1-7.54 7.25-.85 3.13-1.42 6.54-1.42 7.39 0 2.84-1.71 8.11-3.41 10.1-2.39 2.86-6.8 3.14-29.27 2.71m48.07.29c-2.7-.71-5.12-3.13-4.12-4.12.43-.43 9.81-.85 20.76-1 10.95-.14 20.34-.43 20.9-.85.57-.43 1.14-2.13 1.14-3.84 0-3.13 0-3.13-3.27-2.84l-3.27.28-.14-33.28c-.14-21.76.14-32.85.71-31.85.43.85 2.28 5.55 3.84 10.38 2.7 8.11 2.99 9.39 2.13 13.65-.57 2.7-.71 11.95-.43 21.9l.57 17.21 2.7 2.84c3.56 3.7 3.7 7.82.28 9.95-2.13 1.42-4.84 1.56-21.05 1.71-10.51.28-19.75.14-20.75-.14m64.28-.43c-2.28-1.28-1.85-2.56.57-2.56 1.14 0 2.42-.43 2.7-.85.28-.57 1.42-72.53 1.42-90.87 0-1.14.85-1.56 3.27-1.85 2.99-.28 3.41-.57 3.56-3.13.28-2.99.71-3.41 2.42-2.28 1.14.71 2.99 4.12 2.99 5.4 0 .43-1.42 2.56-3.13 4.55l-3.13 3.7.43 25.46c.43 30.01.57 25.31-.28 44.37-.57 14.79-.71 15.5-2.7 17.06-2.15 2.14-5.7 2.42-8.12 1m67.97-.71c-1.56-1-2.84-2.13-2.84-2.7s6.97-.85 19.91-.85c21.33 0 22.33-.14 21.76-4.55-.14-1.42-1-2.13-2.7-2.28-1.71-.14-2.42-.85-2.42-1.99 0-1.42 1.71-10.52 3.13-16.64.43-1.85 1-1.99 7.54-1.99h7.11v3.13c0 2.84-.14 3.13-2.42 2.56-3.84-.71-6.26 1.85-7.39 7.82-.85 4.69-.71 5.26 1 7.82 1.71 2.28 1.85 3.13 1.14 5.97-1.28 5.12-2.84 5.55-23.04 5.55-16.37-.14-18.22-.29-20.78-1.85m53.05-.28-3.13-1.99 2.28-.71c1.28-.28 7.54-.71 13.94-.71 12.51-.14 12.8-.14 12.8-4.98 0-2.84 1.14-2.7 3.56.14 2.42 3.13 2.28 4.55-.57 7.54-2.42 2.42-2.42 2.56-13.94 2.42-10.54.28-12.1-.01-14.94-1.71m-236.78-11.52c-.28-.57-.28-19.34-.14-41.52l.28-40.39 3.41-.28c2.7-.28 3.56-.71 4.27-2.56.43-1.28 1.28-1.99 1.71-1.71 1.71 1 .85 4.27-1.85 7.25l-2.7 2.99.14 26.88c0 14.79.43 31.85.71 37.97.43 7.68.28 11.23-.28 11.8-1.71.99-5.12.7-5.55-.43m67.27-.14c-.43-.57-2.28-7.82-3.98-16.21-1.85-8.25-5.69-26.17-8.53-39.53-2.99-13.51-5.55-26.59-5.97-29.15-.57-4.55-.57-4.69 1.14-3.84 1 .57 2.28 2.13 2.7 3.41 1.14 2.99 6.83 25.46 8.96 35.84 3.56 16.64 9.67 41.24 11.66 45.93.57 1.56 1 2.99.71 3.27-1.01.99-5.98 1.27-6.69.28m133.53.14c-.28-.57-.28-19.48-.14-41.95l.28-40.81h2.99c2.99 0 4.55-1.42 4.55-4.12 0-2.13 2.56-2.7 3.56-.85 1.71 3.13 1 6.68-1.85 9.39l-2.7 2.56.28 37.97c.28 37.26.28 37.97-1.56 38.4-3 .83-4.99.54-5.41-.59m53.47-.43c-.28-.85-4.27-19.34-8.96-41.1-8.67-40.39-10.38-49.77-8.53-49.77 1.56 0 4.41 3.56 5.4 6.54 1 2.99 4.12 17.06 5.4 24.32.43 2.56 1.56 7.68 2.56 11.52s2.28 9.24 2.84 12.23c.57 2.99 1.71 7.96 2.42 11.09 1.42 5.83 3.41 14.65 4.69 20.48.43 1.71 1 3.84 1.28 4.69.57 1.28.14 1.56-2.99 1.56-2.69-.14-3.83-.42-4.11-1.56m-102.39-.28c-2.56-1-5.4-4.84-6.54-8.82-.57-1.85-1.14-11.38-1.42-21.47-.57-19.2.57-35.55 2.84-43.23 2.28-7.68 7.82-10.81 13.65-7.68 3.27 1.71 6.26 5.97 5.12 7.11-.43.43-1.14 0-1.56-.85-1.14-2.13-5.69-1.99-7.82.14-3.98 3.98-5.83 19.77-5.12 45.93.57 20.62.85 22.75 4.98 26.45 1 1 1.85 1.99 1.85 2.42-.15 1.13-3.56.99-5.98 0m69.82-27.59c0-2.42 5.83-30.15 6.4-30.15.28 0 1.28 4.55 1.99 9.95 1.99 13.23 1.85 12.37.71 14.65-1.28 2.28-.57 4.12 1.28 3.41.71-.28 1.28.14 1.28.85 0 .85-.85 1.28-2.42 1.28-1.28 0-3.98.28-5.83.57-2.56.43-3.41.29-3.41-.56m-187.57-.57c-.14-1.85 5.83-29.58 6.4-29.58.28 0 1 3.56 1.71 7.82.85 5.97.85 8.67.14 10.95-.57 1.71-1.14 4.98-1.14 7.25l-.14 4.12h-3.41c-1.99.01-3.56-.28-3.56-.56m68.69-34.56c-4.55-11.09-8.53-21.62-8.82-23.32l-.43-2.99 2.7 1.99c1.99 1.42 4.12 5.12 7.82 13.65 2.84 6.4 5.55 11.95 6.11 12.23.85.57 1.99 13.94 1.42 17.06-.41.87-4.25-7.52-8.8-18.62m70.39 6.4c-1-.71-1.56-1.42-1.28-1.56s1.28-.71 2.28-1.28c1.56-.85 1.85-2.13 2.28-14.79.28-7.54.71-14.08 1.14-14.51s.71.57.71 1.99c0 3.27 1.42 4.84 4.69 4.84 2.42 0 2.56.14 1.99 2.84-.28 1.56-.85 6.4-1.28 10.67-.57 5.69-1.28 8.53-2.56 10.24-2.14 2.7-5.41 3.41-7.97 1.56M211.78 193.3c-1.42-1.42-1.28-2.42.28-2.42.71 0 1.28.85 1.28 1.71 0 1.99-.14 2.13-1.56.71m36.4 0c-1.56-1.56-1.28-2.42.71-2.42 1.14 0 1.85.57 1.85 1.71-.14 1.99-.99 2.27-2.56.71m55.75-10.1c-3.41-2.42-2.99-2.7 1.42-1.14 1.56.57 2.99 1.56 2.99 2.28 0 1.56-.86 1.28-4.41-1.14m-46.08-23.46c-1-.71-1-1-.14-2.13.71-.85 1.56-7.25 2.42-15.64 2.7-31.29 9.39-64.7 13.23-66.13.71-.28 4.55.14 8.67.85 40.53 6.97 74.09 26.88 99.54 59.02 1.71 2.13 3.7 4.98 4.27 6.26l1 2.28-1.56-2.13c-.85-1.14-3.41-4.12-5.55-6.68-2.13-2.56-4.84-5.55-5.83-6.83-4.12-5.26-19.2-17.49-30.15-24.6-21.9-14.36-61.58-27.59-66.13-22.04-2.13 2.56-5.12 15.07-7.11 29.29-2.28 16.35-2.7 20.05-3.56 30.72-1.14 13.79-1.42 14.79-4.12 16.92-2.99 1.83-3.27 1.97-4.98.84" style="fill:#101a4b"/><path id="XMLID_58_" d="m258.42 235.96.28-45.93 3.27-.28c2.99-.28 3.41-.57 3.56-3.13l.28-2.84-9.24-.28c-12.09-.43-12.37-.28-11.95 3.13.28 2.42.71 2.84 3.41 3.27l3.13.43.28 20.76c.14 11.38-.14 20.48-.43 20.34-.43-.28-5.12-11.09-10.38-24.03l-9.67-23.61-11.66.28-11.66.28v2.7c0 2.42.28 2.7 3.27 2.99l3.27.28-.28 41.95-.28 41.95h-7.96l-9.24-42.66c-11.09-51.62-10.52-49.06-12.23-49.63-3.7-1.42-4.12.14-12.23 36.97-8.11 37.12-10.38 44.51-15.5 49.91-3.56 3.84-8.39 5.97-13.51 5.97h-4.55l.28-41.95.28-41.95 3.13-.43c2.7-.43 3.13-.71 3.13-3.13v-2.7h-27.58l-.28 2.56c-.28 2.99 1 4.12 4.55 4.12h2.42v83.62h-1.99c-3.7 0-4.98 1-4.98 3.56 0 1.42.28 2.7.71 2.99.43.28 11.38.14 24.6-.14l23.89-.57 2.7-13.37 2.7-13.37 7.25-.28c6.97-.28 7.39-.14 7.68 1.85 1.56 7.39 3.13 16.21 3.13 17.63 0 1.14-.85 1.71-2.84 1.85-2.56.28-2.84.57-2.84 2.99v2.7l21.33.28c18.49.14 21.47 0 22.33-1.14 1.85-2.56.43-4.69-3.13-4.98l-3.27-.28-.28-32.85c-.14-18.06.14-33.13.43-33.56.43-.43 6.83 14.51 14.36 33.28 18.49 46.07 16.5 41.67 19.34 41.38l2.42-.28zm-86.03 9.24c0-2.13 6.68-32.28 7.11-32.28.71 0 6.97 31.14 6.4 32.28-.14.43-3.27.71-6.97.71s-6.54-.42-6.54-.71m127.41 36.12c7.68-2.13 13.37-10.24 16.21-22.75 1.71-7.68 1.28-9.1-2.28-9.1-3.27 0-3.27 0-5.4 8.53-2.42 9.24-5.26 14.08-9.39 15.5-5.83 1.99-11.09-.71-14.08-6.97-1.71-3.84-1.99-5.97-2.28-27.3-.43-32.71 1.56-44.65 7.82-47.92 8.25-4.27 15.22 1.71 17.78 15.07 1.14 5.83 1.85 6.97 4.27 6.54 1.56-.28 1.71-1.56 2.13-14.08.28-7.54.28-14.22.14-14.93-.71-1.99-4.55-1.28-5.69 1l-1 2.13-4.27-2.7c-3.84-2.42-4.84-2.7-10.1-2.28-4.69.28-6.54.85-9.53 2.99-10.38 7.39-17.63 26.45-17.63 46.5 0 23.18 9.1 43.94 21.76 49.49 3.44 1.42 6.99 1.56 11.54.28m100.12-1.28c1.99-2.42.71-4.41-2.99-4.98l-3.56-.43-9.95-46.22c-5.55-25.45-9.95-46.36-10.1-46.36 0-.14-1.14-.28-2.7-.28-3.13 0-2.56-1.85-8.39 25.74-2.28 10.52-6.4 29.72-9.24 42.66l-5.12 23.61-4.27.28-4.27.28.28-42.09.28-42.09 3.13-.43c2.7-.43 3.13-.71 3.13-3.13v-2.7h-27.58v2.7c0 2.42.28 2.7 3.13 3.13l3.13.43v83.62l-3.13.43c-2.7.43-3.13.71-3.41 3.41l-.28 2.84 21.19-.28 21.19-.28.28-2.42c.28-2.13-.14-2.56-2.42-2.99-1.56-.28-2.7-.85-2.7-1.14 0-.28 1-4.98 1.99-10.38l1.99-9.81 7.25-.28c6.97-.28 7.25-.14 7.68 1.85 1.56 7.54 3.13 16.21 3.13 17.63 0 1.14-.57 1.71-2.13 1.71-1.28 0-2.56.71-3.13 1.71-1.14 2.28-1.14 2.28.43 3.98 2.13 2.27 25.45 2.27 27.16.28m-39.82-36.26c.28-1.14 1.71-8.53 3.27-16.5 1.56-7.96 3.27-14.51 3.56-14.51.43 0 1.99 6.97 3.56 15.36 1.56 8.39 3.13 15.78 3.27 16.5.28.85-1.42 1.14-6.83 1.14-6.97.14-7.26 0-6.83-1.99" style="fill:#fff"/><path id="XMLID_64_" d="M399.78 129.87c3.27 5.55 4.12 7.39 8.96 18.2 2.56 5.69 5.55 12.37 6.68 14.93 1.14 2.56 2.13 4.84 2.13 5.12s1.71 4.27 3.7 8.96c4.69 10.81 6.83 21.19 7.96 38.68 1.56 23.46-1.14 47.92-7.25 67.41-2.7 8.67-9.24 23.75-9.95 23.04-.14-.14 1.42-5.26 3.56-11.23 7.96-21.9 11.09-38.82 11.09-60.58 0-22.9-2.56-40.1-8.53-58.45-4.27-13.08-11.09-26.31-22.18-42.52-18.5-29.15-17.65-33.42 3.83-3.56" class="st3"/></g></svg>