<svg xmlns="http://www.w3.org/2000/svg" xmlns:xlink="http://www.w3.org/1999/xlink" xml:space="preserve" id="Ñëîé_1" x="0" y="0" viewBox="0 0 512 512"><style>.st139{fill:#c5c7c9}.st149{fill:#cfd0d2}.st159{fill:#d8d9db}.st169{fill:#e1e2e3}.st171{fill:#e3e4e5}.st177{fill:#f5f0cc}</style><g id="XMLID_1_"><path id="XMLID_234_" d="M256 121.63C114.58 121.63 0 181.83 0 256s114.58 134.37 256 134.37S512 330.17 512 256 397.42 121.63 256 121.63" style="fill:#58595b"/><path id="XMLID_233_" d="M256 121.63C114.58 121.63 0 181.83 0 256s114.58 134.37 256 134.37S512 330.17 512 256 397.42 121.63 256 121.63" style="fill:#595a5c"/><path id="XMLID_232_" d="M256 121.63C114.72 121.63 0 181.83 0 256s114.58 134.37 256 134.37c141.28 0 256-60.19 256-134.37S397.28 121.63 256 121.63" style="fill:#5a5b5d"/><path id="XMLID_231_" d="M256 121.63C114.72 121.63.14 181.83.14 256S114.72 390.37 256 390.37 512 330.17 512 256 397.28 121.63 256 121.63" style="fill:#5b5c5e"/><path id="XMLID_230_" d="M256 121.77C114.72 121.77.14 181.83.14 256S114.72 390.23 256 390.23 511.86 330.03 511.86 256c0-74.17-114.58-134.23-255.86-134.23" style="fill:#5c5c5f"/><path id="XMLID_229_" d="M256 121.77C114.72 121.77.14 181.83.14 256S114.72 390.23 256 390.23 511.86 330.17 511.86 256 397.28 121.77 256 121.77" style="fill:#5c5d60"/><path id="XMLID_228_" d="M256 121.77C114.72 121.77.14 181.83.14 256S114.72 390.23 256 390.23 511.86 330.17 511.86 256 397.28 121.77 256 121.77" style="fill:#5d5e60"/><path id="XMLID_227_" d="M256 121.77C114.72 121.77.14 181.83.14 256S114.72 390.23 256 390.23 511.86 330.17 511.86 256 397.28 121.77 256 121.77" style="fill:#5e5f61"/><path id="XMLID_226_" d="M256 121.77C114.72 121.77.28 181.83.28 256c0 74.03 114.58 134.23 255.72 134.23 141.28 0 255.86-60.06 255.86-134.23S397.28 121.77 256 121.77" style="fill:#5f6062"/><path id="XMLID_225_" d="M256 121.91C114.72 121.91.28 181.97.28 256.14c0 74.03 114.44 134.23 255.72 134.23s255.72-60.06 255.72-134.23S397.28 121.91 256 121.91" style="fill:#606163"/><path id="XMLID_224_" d="M256 121.91C114.85 121.91.28 181.97.28 256S114.72 390.09 256 390.09 511.72 330.03 511.72 256 397.28 121.91 256 121.91" style="fill:#616264"/><path id="XMLID_223_" d="M256 121.91C114.85 121.91.28 181.97.28 256S114.72 390.09 256 390.09c141.15 0 255.72-60.06 255.72-134.09S397.28 121.91 256 121.91" style="fill:#616365"/><path id="XMLID_222_" d="M256 121.91C114.85 121.91.28 181.97.28 256S114.72 390.09 256 390.09c141.15 0 255.72-60.06 255.72-134.09S397.28 121.91 256 121.91" style="fill:#626366"/><path id="XMLID_221_" d="M256 121.91C114.85 121.91.42 181.97.42 256S114.85 390.09 256 390.09 511.58 330.03 511.58 256c.14-74.03-114.43-134.09-255.58-134.09" style="fill:#636467"/><path id="XMLID_220_" d="M256 121.91C114.85 121.91.42 181.97.42 256S114.85 390.09 256 390.09 511.58 330.03 511.58 256c.14-74.03-114.43-134.09-255.58-134.09" style="fill:#646567"/><path id="XMLID_219_" d="M256 122.05C114.85 122.05.42 182.11.42 256.14S114.85 390.09 256 390.09s255.58-60.06 255.58-133.95c0-74.17-114.43-134.09-255.58-134.09" style="fill:#656668"/><path id="XMLID_218_" d="M256 122.05C114.85 122.05.42 181.97.42 256S114.85 389.95 256 389.95 511.58 329.89 511.58 256c0-74.03-114.43-133.95-255.58-133.95" style="fill:#666769"/><path id="XMLID_217_" d="M256 122.05C114.85 122.05.42 181.97.42 256S114.85 389.95 256 389.95 511.58 330.03 511.58 256c0-73.89-114.43-133.95-255.58-133.95" style="fill:#66686a"/><path id="XMLID_216_" d="M256 122.05C114.85 122.05.55 181.97.55 256c0 73.89 114.44 133.95 255.45 133.95 141.15 0 255.45-59.92 255.45-133.95.13-73.89-114.3-133.95-255.45-133.95" style="fill:#67686b"/><path id="XMLID_215_" d="M256 122.19C114.85 122.19.55 182.11.55 256.14c0 73.89 114.44 133.95 255.45 133.95s255.45-59.92 255.45-133.95c.13-74.03-114.3-133.95-255.45-133.95" style="fill:#68696c"/><path id="XMLID_214_" d="M256 122.19C114.99 122.19.55 182.11.55 256.14c0 73.89 114.44 133.81 255.45 133.81s255.45-59.92 255.45-133.81c0-74.03-114.3-133.95-255.45-133.95" style="fill:#696a6c"/><path id="XMLID_213_" d="M256 122.19C114.99 122.19.55 182.11.55 256S114.85 389.81 256 389.81c141.01 0 255.45-59.92 255.45-133.81S397.15 122.19 256 122.19" style="fill:#6a6b6d"/><path id="XMLID_212_" d="M256 122.19C114.99 122.19.69 182.11.69 256S114.99 389.81 256 389.81 511.45 329.89 511.45 256 397.15 122.19 256 122.19" style="fill:#6a6c6e"/><path id="XMLID_211_" d="M256 122.19C114.99 122.19.69 182.11.69 256S114.99 389.81 256 389.81 511.31 329.89 511.31 256c.14-73.89-114.16-133.81-255.31-133.81" style="fill:#6b6c6f"/><path id="XMLID_210_" d="M256 122.19C114.99 122.19.69 182.11.69 256S114.99 389.81 256 389.81 511.31 329.89 511.31 256c.14-73.89-114.3-133.81-255.31-133.81" style="fill:#6c6d70"/><path id="XMLID_209_" d="M256 122.33C114.99 122.33.69 182.25.69 256.14S114.99 389.81 256 389.81s255.31-59.92 255.31-133.67c.14-74.03-114.3-133.81-255.31-133.81" style="fill:#6d6e70"/><path id="XMLID_208_" d="M256 122.33C114.99 122.33.69 182.24.69 256c0 73.89 114.3 133.67 255.31 133.67S511.31 329.76 511.31 256 397.01 122.33 256 122.33" style="fill:#6d6f71"/><path id="XMLID_207_" d="M256 122.33C114.99 122.33.69 182.24.69 256c0 73.89 114.3 133.67 255.31 133.67S511.31 329.76 511.31 256 397.01 122.33 256 122.33" style="fill:#6e7072"/><path id="XMLID_206_" d="M256.14 122.33C115.13 122.33.97 182.11.97 256c0 73.76 114.3 133.67 255.17 133.67S511.31 329.89 511.31 256c0-73.76-114.3-133.67-255.17-133.67" style="fill:#6f7073"/><path id="XMLID_205_" d="M256.14 122.33C115.27 122.33.97 182.11.97 256c0 73.76 114.3 133.67 255.17 133.67S511.31 329.89 511.31 256c0-73.76-114.3-133.67-255.17-133.67" style="fill:#707174"/><path id="XMLID_204_" d="M256.14 122.46C115.27 122.46.97 182.24.97 256.13c0 73.76 114.3 133.67 255.17 133.67s255.17-59.78 255.17-133.67-114.3-133.67-255.17-133.67" style="fill:#717275"/><path id="XMLID_203_" d="M256.14 122.46C115.27 122.46.97 182.24.97 256s114.3 133.54 255.17 133.54S511.31 329.76 511.31 256c-.14-73.76-114.3-133.54-255.17-133.54" style="fill:#717375"/><path id="XMLID_202_" d="M256.14 122.46C115.27 122.46.97 182.24.97 256s114.16 133.54 255.17 133.54c140.87 0 255.17-59.78 255.17-133.54-.14-73.76-114.3-133.54-255.17-133.54" style="fill:#727476"/><path id="XMLID_201_" d="M256.14 122.46C115.27 122.46 1.11 182.24 1.11 256s114.16 133.54 255.03 133.54S511.17 329.76 511.17 256 397.01 122.46 256.14 122.46" style="fill:#737477"/><path id="XMLID_200_" d="M256.14 122.46C115.27 122.46 1.11 182.24 1.11 256s114.16 133.54 255.03 133.54S511.17 329.76 511.17 256 397.01 122.46 256.14 122.46" style="fill:#747578"/><path id="XMLID_199_" d="M256.14 122.6c-140.87 0-255.03 59.78-255.03 133.54s114.16 133.54 255.03 133.54 255.03-59.78 255.03-133.54S396.87 122.6 256.14 122.6" style="fill:#747678"/><path id="XMLID_198_" d="M256.14 122.6c-140.87 0-255.03 59.78-255.03 133.54s114.16 133.4 255.03 133.4 255.03-59.78 255.03-133.4c0-73.76-114.3-133.54-255.03-133.54" style="fill:#757779"/><path id="XMLID_197_" d="M256.14 122.6C115.27 122.6 1.11 182.38 1.11 256s114.16 133.4 255.03 133.4S511.17 329.62 511.17 256c-.14-73.62-114.3-133.4-255.03-133.4" style="fill:#76777a"/><path id="XMLID_196_" d="M256.14 122.6C115.41 122.6 1.25 182.38 1.25 256s114.16 133.4 254.89 133.4S511.03 329.62 511.03 256 396.87 122.6 256.14 122.6" style="fill:#77787b"/><path id="XMLID_195_" d="M256.14 122.6C115.41 122.6 1.25 182.38 1.25 256s114.16 133.4 254.89 133.4S511.03 329.62 511.03 256 396.87 122.6 256.14 122.6" style="fill:#77797c"/><path id="XMLID_194_" d="M256.14 122.74c-140.73 0-254.89 59.64-254.89 133.4 0 73.62 114.16 133.4 254.89 133.4s254.89-59.78 254.89-133.4c0-73.76-114.16-133.4-254.89-133.4" style="fill:#787a7c"/><path id="XMLID_193_" d="M256.14 122.74c-140.73 0-254.89 59.64-254.89 133.4 0 73.62 114.16 133.26 254.89 133.26s254.89-59.64 254.89-133.26c0-73.76-114.16-133.4-254.89-133.4" style="fill:#797b7d"/><path id="XMLID_192_" d="M256.14 122.74C115.41 122.74 1.38 182.38 1.38 256s114.16 133.26 254.89 133.26 254.9-59.64 254.9-133.26c-.28-73.62-114.3-133.26-255.03-133.26" style="fill:#7a7b7e"/><path id="XMLID_191_" d="M256.14 122.74C115.41 122.74 1.38 182.38 1.38 256S115.4 389.26 256.13 389.26 510.89 329.62 510.89 256 396.87 122.74 256.14 122.74" style="fill:#7a7c7f"/><path id="XMLID_190_" d="M256.14 122.74C115.41 122.74 1.38 182.52 1.38 256c0 73.62 114.02 133.26 254.75 133.26S510.89 329.62 510.89 256c0-73.48-114.02-133.26-254.75-133.26" style="fill:#7b7d7f"/><path id="XMLID_189_" d="M256.14 122.88C115.41 122.88 1.38 182.52 1.38 256c0 73.62 114.02 133.26 254.75 133.26S510.89 329.62 510.89 256c0-73.48-114.02-133.12-254.75-133.12" style="fill:#7c7e80"/><path id="XMLID_188_" d="M256.14 122.88C115.41 122.88 1.38 182.52 1.38 256c0 73.62 114.02 133.12 254.75 133.12S510.89 329.48 510.89 256 396.73 122.88 256.14 122.88" style="fill:#7d7e81"/><path id="XMLID_187_" d="M256.14 122.88C115.55 122.88 1.52 182.52 1.52 256s114.02 133.12 254.62 133.12S510.89 329.48 510.89 256 396.73 122.88 256.14 122.88" style="fill:#7d7f82"/><path id="XMLID_186_" d="M256.14 122.88C115.55 122.88 1.52 182.52 1.52 256s114.02 133.12 254.62 133.12S510.75 329.48 510.75 256 396.73 122.88 256.14 122.88" style="fill:#7e8082"/><path id="XMLID_185_" d="M256.14 122.88C115.55 122.88 1.52 182.52 1.52 256s114.02 133.12 254.62 133.12S510.75 329.48 510.75 256 396.73 122.88 256.14 122.88" style="fill:#7f8183"/><path id="XMLID_184_" d="M256.14 123.02c-140.59 0-254.62 59.64-254.62 133.12s114.02 133.12 254.62 133.12 254.62-59.64 254.62-133.12c-.01-73.62-114.03-133.12-254.62-133.12" style="fill:#808184"/><path id="XMLID_183_" d="M256.14 123.02c-140.59 0-254.62 59.64-254.62 133.12s114.02 133.12 254.62 133.12 254.62-59.64 254.62-133.12c-.01-73.62-114.03-133.12-254.62-133.12" style="fill:#808285"/><path id="XMLID_182_" d="M256.14 123.02C115.55 123.02 1.52 182.52 1.52 256s114.02 132.98 254.62 132.98S510.75 329.48 510.75 256 396.73 123.02 256.14 123.02" style="fill:#818385"/><path id="XMLID_181_" d="M256.14 123.02C115.55 123.02 1.66 182.52 1.66 256s114.02 132.98 254.48 132.98S510.62 329.48 510.62 256c0-73.34-113.89-132.98-254.48-132.98" style="fill:#828486"/><path id="XMLID_180_" d="M256.14 123.02C115.55 123.02 1.66 182.52 1.66 256s113.89 132.98 254.48 132.98S510.62 329.48 510.62 256c0-73.34-113.89-132.98-254.48-132.98" style="fill:#828487"/><path id="XMLID_179_" d="M256.14 123.16c-140.59 0-254.48 59.5-254.48 132.98s113.89 132.98 254.48 132.98 254.48-59.5 254.48-132.98-113.89-132.98-254.48-132.98" style="fill:#838588"/><path id="XMLID_178_" d="M256.14 123.16C115.68 123.16 1.66 182.66 1.66 256s113.89 132.98 254.48 132.98c140.45 0 254.48-59.5 254.48-132.98 0-73.34-113.89-132.84-254.48-132.84" style="fill:#848688"/><path id="XMLID_177_" d="M256.14 123.16C115.68 123.16 1.8 182.66 1.8 256s113.89 132.84 254.34 132.84S510.62 329.34 510.62 256 396.59 123.16 256.14 123.16" style="fill:#858789"/><path id="XMLID_176_" d="M256.14 123.16C115.68 123.16 1.8 182.66 1.8 256s113.89 132.84 254.34 132.84S510.48 329.34 510.48 256c.14-73.34-113.89-132.84-254.34-132.84" style="fill:#85878a"/><path id="XMLID_175_" d="M256.14 123.16C115.68 123.16 1.8 182.66 1.8 256s113.89 132.84 254.34 132.84S510.48 329.34 510.48 256 396.59 123.16 256.14 123.16" style="fill:#86888b"/><path id="XMLID_174_" d="M256.14 123.3C115.68 123.3 1.8 182.8 1.8 256.14s113.89 132.84 254.34 132.84 254.34-59.5 254.34-132.84c0-73.48-113.89-132.84-254.34-132.84" style="fill:#87898b"/><path id="XMLID_173_" d="M256.14 123.3C115.68 123.3 1.8 182.8 1.8 256.14s113.89 132.84 254.34 132.84 254.34-59.5 254.34-132.84c0-73.48-113.89-132.84-254.34-132.84" style="fill:#888a8c"/><path id="XMLID_172_" d="M256.14 123.3c-140.45 0-254.2 59.5-254.2 132.84s113.89 132.7 254.2 132.7c140.45 0 254.34-59.5 254.34-132.7 0-73.34-113.89-132.84-254.34-132.84" style="fill:#888a8d"/><path id="XMLID_171_" d="M256.14 123.3c-140.45 0-254.2 59.36-254.2 132.7s113.89 132.7 254.2 132.7c140.45 0 254.2-59.5 254.2-132.7.14-73.2-113.75-132.7-254.2-132.7" style="fill:#898b8e"/><path id="XMLID_170_" d="M256.14 123.3c-140.45 0-254.2 59.36-254.2 132.7s113.89 132.7 254.2 132.7c140.45 0 254.2-59.36 254.2-132.7 0-73.2-113.75-132.7-254.2-132.7" style="fill:#8a8c8e"/><path id="XMLID_169_" d="M256.14 123.43c-140.32 0-254.2 59.36-254.2 132.7s113.75 132.7 254.2 132.7c140.32 0 254.2-59.36 254.2-132.7s-113.75-132.7-254.2-132.7" style="fill:#8b8d8f"/><path id="XMLID_168_" d="M256.14 123.43c-140.32 0-254.2 59.36-254.2 132.7 0 73.2 113.75 132.7 254.2 132.7 140.32 0 254.2-59.36 254.2-132.7s-113.75-132.7-254.2-132.7" style="fill:#8b8d90"/><path id="XMLID_167_" d="M256.14 123.43c-140.32 0-254.06 59.36-254.06 132.7 0 73.2 113.75 132.7 254.06 132.7s254.2-59.36 254.2-132.7-113.75-132.7-254.2-132.7" style="fill:#8c8e91"/><path id="XMLID_166_" d="M256.14 123.43C115.82 123.43 2.08 182.8 2.08 256s113.75 132.57 254.06 132.57S510.2 329.2 510.2 256c.14-73.2-113.75-132.57-254.06-132.57" style="fill:#8d8f92"/><path id="XMLID_165_" d="M256.14 123.43C115.82 123.43 2.08 182.8 2.08 256s113.75 132.57 254.06 132.57S510.2 329.2 510.2 256c.14-73.2-113.75-132.57-254.06-132.57" style="fill:#8e9092"/><path id="XMLID_164_" d="M256.14 123.57c-140.32 0-254.06 59.36-254.06 132.57S115.82 388.7 256.14 388.7 510.2 329.34 510.2 256.14c0-73.34-113.75-132.57-254.06-132.57" style="fill:#8e9093"/><path id="XMLID_163_" d="M256.14 123.57c-140.32 0-254.06 59.36-254.06 132.57S115.82 388.7 256.14 388.7 510.2 329.34 510.2 256.14 396.45 123.57 256.14 123.57" style="fill:#8f9194"/><path id="XMLID_162_" d="M256.14 123.57c-140.32 0-253.92 59.36-253.92 132.57S115.96 388.7 256.14 388.7c140.32 0 254.06-59.36 254.06-132.57S396.45 123.57 256.14 123.57" style="fill:#909295"/><path id="XMLID_161_" d="M256.14 123.57C115.82 123.57 2.21 182.94 2.21 256c0 73.2 113.75 132.43 253.92 132.43 140.32 0 253.92-59.36 253.92-132.43.15-73.06-113.6-132.43-253.91-132.43" style="fill:#919395"/><path id="XMLID_160_" d="M256.14 123.57C115.96 123.57 2.21 182.94 2.21 256c0 73.2 113.75 132.43 253.92 132.43S510.06 329.06 510.06 256c.14-73.06-113.61-132.43-253.92-132.43" style="fill:#919396"/><path id="XMLID_159_" d="M256.14 123.71c-140.18 0-253.92 59.23-253.92 132.43 0 73.06 113.75 132.43 253.92 132.43s253.92-59.36 253.92-132.43c0-73.2-113.61-132.43-253.92-132.43" style="fill:#929497"/><path id="XMLID_158_" d="M256.14 123.71c-140.18 0-253.92 59.23-253.92 132.43 0 73.06 113.61 132.43 253.92 132.43s253.92-59.23 253.92-132.43-113.61-132.43-253.92-132.43" style="fill:#939598"/><path id="XMLID_157_" d="M256.14 123.71c-140.18 0-253.92 59.23-253.92 132.43 0 73.06 113.61 132.43 253.92 132.43 140.18 0 253.92-59.23 253.92-132.43S396.45 123.71 256.14 123.71" style="fill:#949698"/><path id="XMLID_156_" d="M256.14 123.71c-140.18 0-253.79 59.23-253.79 132.43 0 73.06 113.61 132.29 253.79 132.29s253.79-59.23 253.79-132.29c.13-73.2-113.48-132.43-253.79-132.43" style="fill:#949699"/><path id="XMLID_155_" d="M256.28 123.71C116.1 123.71 2.49 182.94 2.49 256S116.1 388.29 256.28 388.29 510.06 329.06 510.06 256 396.32 123.71 256.28 123.71" style="fill:#95979a"/><path id="XMLID_154_" d="M256.28 123.85c-140.18 0-253.79 59.23-253.79 132.29S116.1 388.43 256.28 388.43s253.79-59.23 253.79-132.29c-.01-73.07-113.75-132.29-253.79-132.29" style="fill:#96989b"/><path id="XMLID_153_" d="M256.28 123.85c-140.18 0-253.79 59.23-253.79 132.29S116.1 388.43 256.28 388.43s253.79-59.23 253.79-132.29c-.15-73.07-113.75-132.29-253.79-132.29" style="fill:#97999b"/><path id="XMLID_152_" d="M256.28 123.85c-140.18 0-253.65 59.23-253.65 132.29s113.61 132.29 253.65 132.29c140.18 0 253.79-59.23 253.79-132.29-.15-73.07-113.75-132.29-253.79-132.29" style="fill:#979a9c"/><path id="XMLID_151_" d="M256.28 123.85c-140.04 0-253.65 59.23-253.65 132.29s113.61 132.15 253.65 132.15 253.65-59.23 253.65-132.15c-.01-73.07-113.61-132.29-253.65-132.29" style="fill:#989a9d"/><path id="XMLID_150_" d="M256.28 123.85C116.24 123.85 2.63 183.07 2.63 256c0 73.06 113.61 132.15 253.65 132.15S509.92 328.93 509.92 256s-113.6-132.15-253.64-132.15" style="fill:#999b9e"/><path id="XMLID_149_" d="M256.28 123.85C116.24 123.85 2.63 183.07 2.63 256s113.61 132.15 253.65 132.15S509.92 328.93 509.92 256s-113.6-132.15-253.64-132.15" style="fill:#9a9c9e"/><path id="XMLID_148_" d="M256.28 123.99c-140.04 0-253.65 59.23-253.65 132.15s113.61 132.15 253.65 132.15 253.65-59.23 253.65-132.15c-.14-73.07-113.61-132.15-253.65-132.15" style="fill:#9b9d9f"/><path id="XMLID_147_" d="M256.28 123.99c-140.04 0-253.51 59.09-253.51 132.15 0 72.93 113.47 132.15 253.51 132.15s253.65-59.23 253.65-132.15c-.14-73.07-113.61-132.15-253.65-132.15" style="fill:#9b9da0"/><path id="XMLID_146_" d="M256.28 123.99c-140.04 0-253.51 59.09-253.51 132.15 0 72.93 113.47 132.15 253.51 132.15s253.51-59.09 253.51-132.15-113.47-132.15-253.51-132.15" style="fill:#9c9ea1"/><path id="XMLID_145_" d="M256.28 123.99c-140.04 0-253.51 59.23-253.51 132.15s113.47 132.01 253.51 132.01 253.51-59.09 253.51-132.01-113.47-132.15-253.51-132.15" style="fill:#9d9fa2"/><path id="XMLID_144_" d="M256.28 123.99c-140.04 0-253.51 59.23-253.51 132.15s113.47 132.01 253.51 132.01 253.51-59.09 253.51-132.01-113.61-132.15-253.51-132.15" style="fill:#9ea0a2"/><path id="XMLID_143_" d="M256.28 124.13c-140.04 0-253.51 59.09-253.51 132.01s113.47 132.01 253.51 132.01 253.51-59.09 253.51-132.01-113.61-132.01-253.51-132.01" style="fill:#9ea1a3"/><path id="XMLID_142_" d="M256.28 124.13c-140.04 0-253.51 59.09-253.51 132.01s113.47 132.01 253.37 132.01 253.51-59.09 253.51-132.01-113.47-132.01-253.37-132.01" style="fill:#9fa1a4"/><path id="XMLID_141_" d="M256.28 124.13c-139.9 0-253.37 59.09-253.37 132.01s113.47 132.01 253.37 132.01 253.37-59.09 253.37-132.01-113.47-132.01-253.37-132.01" style="fill:#a0a2a5"/><path id="XMLID_140_" d="M256.28 124.13C116.38 124.13 2.91 183.21 2.91 256s113.47 131.87 253.37 131.87S509.65 328.79 509.65 256 396.18 124.13 256.28 124.13" style="fill:#a1a3a5"/><path id="XMLID_139_" d="M256.28 124.13C116.38 124.13 2.91 183.21 2.91 256s113.47 131.87 253.37 131.87S509.65 328.79 509.65 256 396.18 124.13 256.28 124.13" style="fill:#a2a4a6"/><path id="XMLID_138_" d="M256.28 124.26c-139.9 0-253.37 59.09-253.37 131.87S116.38 388 256.28 388s253.37-59.09 253.37-131.87c0-72.92-113.47-131.87-253.37-131.87" style="fill:#a2a4a7"/><path id="XMLID_137_" d="M256.28 124.26c-139.9 0-253.23 59.09-253.23 131.87S116.52 388 256.28 388c139.9 0 253.37-59.09 253.37-131.87-.14-72.92-113.47-131.87-253.37-131.87" style="fill:#a3a5a8"/><path id="XMLID_136_" d="M256.28 124.26c-139.9 0-253.23 59.09-253.23 131.87S116.38 388 256.28 388s253.23-59.09 253.23-131.87-113.33-131.87-253.23-131.87" style="fill:#a4a6a9"/><path id="XMLID_135_" d="M256.28 124.26c-139.9 0-253.23 58.95-253.23 131.87 0 72.79 113.33 131.74 253.23 131.74s253.23-59.09 253.23-131.74c0-72.78-113.33-131.87-253.23-131.87" style="fill:#a5a7a9"/><path id="XMLID_134_" d="M256.28 124.26C116.38 124.26 3.04 183.21 3.04 256s113.33 131.74 253.23 131.74S509.51 328.79 509.51 256c0-72.65-113.33-131.74-253.23-131.74" style="fill:#a5a8aa"/><path id="XMLID_133_" d="M256.28 124.4c-139.76 0-253.23 58.95-253.23 131.74s113.33 131.74 253.23 131.74c139.76 0 253.23-58.95 253.23-131.74S396.04 124.4 256.28 124.4" style="fill:#a6a8ab"/><path id="XMLID_132_" d="M256.28 124.4c-139.76 0-253.09 58.95-253.09 131.74s113.33 131.74 253.09 131.74 253.23-58.95 253.23-131.74S396.04 124.4 256.28 124.4" style="fill:#a7a9ac"/><path id="XMLID_131_" d="M256.28 124.4c-139.76 0-253.09 58.95-253.09 131.74s113.33 131.74 253.09 131.74 253.09-58.95 253.09-131.74S396.04 124.4 256.28 124.4" style="fill:#a8aaad"/><path id="XMLID_130_" d="M256.28 124.4c-139.76 0-253.09 58.95-253.09 131.74 0 72.65 113.33 131.74 253.09 131.74s253.09-58.95 253.09-131.74S396.04 124.4 256.28 124.4" style="fill:#a9abad"/><path id="XMLID_129_" d="M256.28 124.4c-139.77 0-253.1 58.95-253.1 131.6s113.33 131.6 253.09 131.6 253.1-58.95 253.1-131.6-113.33-131.6-253.09-131.6" style="fill:#a9acae"/><path id="XMLID_128_" d="M256.28 124.54c-139.76 0-253.09 58.95-253.09 131.6s113.33 131.6 253.09 131.6 253.09-58.95 253.09-131.6c0-72.79-113.33-131.6-253.09-131.6" style="fill:#aaacaf"/><path id="XMLID_127_" d="M256.28 124.54c-139.76 0-252.96 58.95-252.96 131.6s113.33 131.6 252.96 131.6c139.76 0 253.09-58.95 253.09-131.6s-113.33-131.6-253.09-131.6" style="fill:#abadb0"/><path id="XMLID_126_" d="M256.28 124.54c-139.76 0-252.96 58.95-252.96 131.6s113.33 131.6 252.96 131.6c139.76 0 252.96-58.95 252.96-131.6.13-72.65-113.2-131.6-252.96-131.6" style="fill:#acaeb0"/><path id="XMLID_125_" d="M256.28 124.54c-139.76 0-252.96 58.95-252.96 131.6s113.33 131.6 252.96 131.6c139.76 0 252.96-58.95 252.96-131.6s-113.2-131.6-252.96-131.6" style="fill:#adafb1"/><path id="XMLID_124_" d="M256.28 124.54C116.65 124.54 3.32 183.35 3.32 256s113.19 131.46 252.96 131.46c139.62 0 252.96-58.95 252.96-131.46s-113.2-131.46-252.96-131.46" style="fill:#aeb0b2"/><path id="XMLID_123_" d="M256.28 124.68c-139.62 0-252.96 58.81-252.96 131.46S116.51 387.6 256.28 387.6c139.62 0 252.96-58.81 252.96-131.46s-113.2-131.46-252.96-131.46" style="fill:#aeb0b3"/><path id="XMLID_122_" d="M256.28 124.68c-139.62 0-252.82 58.81-252.82 131.46S116.65 387.6 256.28 387.6s252.96-58.81 252.96-131.46S395.9 124.68 256.28 124.68" style="fill:#afb1b4"/><path id="XMLID_121_" d="M256.28 124.68c-139.62 0-252.82 58.81-252.82 131.46 0 72.51 113.19 131.46 252.82 131.46S509.1 328.79 509.1 256.14c.13-72.65-113.2-131.46-252.82-131.46" style="fill:#b0b2b4"/><path id="XMLID_120_" d="M256.28 124.68c-139.62 0-252.82 58.81-252.82 131.46 0 72.51 113.19 131.46 252.82 131.46S509.1 328.79 509.1 256.14 395.9 124.68 256.28 124.68" style="fill:#b1b3b5"/><path id="XMLID_119_" d="M256.28 124.68C116.65 124.68 3.46 183.49 3.46 256s113.19 131.32 252.82 131.32S509.09 328.51 509.09 256 395.9 124.68 256.28 124.68" style="fill:#b2b4b6"/><path id="XMLID_118_" d="M256.28 124.82c-139.62 0-252.82 58.81-252.82 131.32s113.19 131.32 252.82 131.32S509.1 328.65 509.1 256.14 395.9 124.82 256.28 124.82" style="fill:#b2b4b7"/><path id="XMLID_117_" d="M256.28 124.82C116.65 124.82 3.6 183.63 3.6 256.14s113.19 131.32 252.68 131.32c139.62 0 252.82-58.81 252.82-131.32S395.9 124.82 256.28 124.82" style="fill:#b3b5b8"/><path id="XMLID_116_" d="M256.28 124.82C116.65 124.82 3.6 183.63 3.6 256.14s113.19 131.32 252.68 131.32c139.62 0 252.68-58.81 252.68-131.32.13-72.51-113.06-131.32-252.68-131.32" style="fill:#b4b6b8"/><path id="XMLID_115_" d="M256.28 124.82C116.79 124.82 3.6 183.63 3.6 256.14s113.19 131.32 252.68 131.32 252.68-58.81 252.68-131.32c.13-72.51-113.06-131.32-252.68-131.32" style="fill:#b5b7b9"/><path id="XMLID_114_" d="M256.28 124.82C116.79 124.82 3.6 183.63 3.6 256.14s113.19 131.32 252.68 131.32 252.68-58.81 252.68-131.32S395.9 124.82 256.28 124.82" style="fill:#b6b8ba"/><path id="XMLID_113_" d="M256.28 124.96C116.79 124.96 3.6 183.77 3.6 256.14c0 72.51 113.06 131.18 252.68 131.18s252.68-58.81 252.68-131.18c0-72.51-113.06-131.18-252.68-131.18" style="fill:#b7b9bb"/><path id="XMLID_112_" d="M256.28 124.96c-139.49 0-252.54 58.67-252.54 131.18S116.8 387.32 256.28 387.32s252.68-58.81 252.68-131.18c0-72.51-113.06-131.18-252.68-131.18" style="fill:#b7b9bc"/><path id="XMLID_111_" d="M256.28 124.96c-139.49 0-252.54 58.67-252.54 131.18 0 72.37 113.06 131.18 252.54 131.18s252.54-58.67 252.54-131.18c.14-72.51-113.06-131.18-252.54-131.18" style="fill:#b8babc"/><path id="XMLID_110_" d="M256.28 124.96c-139.49 0-252.54 58.67-252.54 131.18 0 72.37 113.06 131.18 252.54 131.18s252.54-58.67 252.54-131.18c.14-72.51-113.06-131.18-252.54-131.18" style="fill:#b9bbbd"/><path id="XMLID_109_" d="M256.28 124.96c-139.49 0-252.54 58.67-252.54 131.18 0 72.37 113.06 131.18 252.54 131.18s252.54-58.67 252.54-131.18c0-72.37-113.06-131.18-252.54-131.18" style="fill:#babcbe"/><path id="XMLID_108_" d="M256.28 125.09c-139.49 0-252.54 58.67-252.54 131.04S116.8 387.17 256.28 387.17s252.54-58.67 252.54-131.04-113.06-131.04-252.54-131.04" style="fill:#bbbdbf"/><path id="XMLID_107_" d="M256.28 125.09c-139.49 0-252.4 58.67-252.4 131.04s113.06 131.04 252.4 131.04c139.49 0 252.54-58.67 252.54-131.04S395.76 125.09 256.28 125.09" style="fill:#bcbdc0"/><path id="XMLID_106_" d="M256.28 125.09c-139.35 0-252.4 58.67-252.4 131.04s113.06 131.04 252.4 131.04 252.4-58.67 252.4-131.04c.14-72.36-112.92-131.04-252.4-131.04" style="fill:#bcbec0"/><path id="XMLID_105_" d="M256.42 125.09c-139.35 0-252.4 58.67-252.4 131.04s113.06 131.04 252.4 131.04 252.4-58.67 252.4-131.04-113.06-131.04-252.4-131.04" style="fill:#bdbfc1"/><path id="XMLID_104_" d="M256.42 125.09c-139.35 0-252.4 58.67-252.4 131.04s113.06 131.04 252.4 131.04 252.4-58.67 252.4-131.04-113.06-131.04-252.4-131.04" style="fill:#bec0c2"/><path id="XMLID_103_" d="M256.42 125.23c-139.35 0-252.4 58.67-252.4 130.91 0 72.37 113.06 130.91 252.4 130.91s252.4-58.67 252.4-130.91c-.14-72.37-113.06-130.91-252.4-130.91" style="fill:#bfc1c3"/><path id="XMLID_102_" d="M256.42 125.23c-139.35 0-252.26 58.67-252.26 130.91s112.92 130.91 252.26 130.91 252.4-58.67 252.4-130.91c-.14-72.37-113.06-130.91-252.4-130.91" style="fill:#c0c2c4"/><path id="XMLID_101_" d="M256.42 125.23c-139.35 0-252.26 58.67-252.26 130.91s112.92 130.91 252.26 130.91 252.26-58.67 252.26-130.91c0-72.37-112.92-130.91-252.26-130.91" style="fill:#c1c2c4"/><path id="XMLID_100_" d="M256.42 125.23c-139.35 0-252.26 58.67-252.26 130.91s112.92 130.91 252.26 130.91 252.26-58.67 252.26-130.91-113.06-130.91-252.26-130.91" style="fill:#c1c3c5"/><path id="XMLID_99_" d="M256.42 125.23c-139.35 0-252.26 58.67-252.26 130.91s112.92 130.91 252.26 130.91 252.26-58.53 252.26-130.91c0-72.24-113.06-130.91-252.26-130.91" style="fill:#c2c4c6"/><path id="XMLID_98_" d="M256.42 125.37c-139.35 0-252.26 58.53-252.26 130.77s112.92 130.91 252.26 130.91 252.26-58.53 252.26-130.91c-.14-72.24-113.06-130.77-252.26-130.77" style="fill:#c3c5c7"/><path id="XMLID_97_" d="M256.42 125.37c-139.35 0-252.26 58.53-252.26 130.77s112.92 130.77 252.13 130.77c139.35 0 252.26-58.53 252.26-130.77S395.62 125.37 256.42 125.37" style="fill:#c4c6c8"/><path id="XMLID_96_" d="M256.42 125.37c-139.35 0-252.26 58.53-252.26 130.77s112.92 130.77 252.13 130.77S508.4 328.37 508.4 256.14c.14-72.24-112.78-130.77-251.98-130.77" style="fill:#c5c6c8"/><path id="XMLID_95_" d="M256.42 125.37c-139.21 0-252.13 58.53-252.13 130.77s112.92 130.77 252.13 130.77 252.13-58.53 252.13-130.77-112.93-130.77-252.13-130.77" class="st139"/><path id="XMLID_94_" d="M256.42 125.37c-139.21 0-252.13 58.53-252.13 130.77s112.92 130.77 252.13 130.77 252.13-58.53 252.13-130.77-112.93-130.77-252.13-130.77" class="st139"/><path id="XMLID_93_" d="M256.42 125.51c-139.21 0-252.13 58.53-252.13 130.77s112.92 130.77 252.13 130.77 252.13-58.53 252.13-130.77c-.01-72.38-112.93-130.77-252.13-130.77" style="fill:#c7c9cb"/><path id="XMLID_92_" d="M256.42 125.51c-139.21 0-251.99 58.53-251.99 130.63s112.92 130.63 251.99 130.63c139.21 0 252.13-58.53 252.13-130.63-.15-72.24-112.93-130.63-252.13-130.63" style="fill:#c8cacc"/><path id="XMLID_91_" d="M256.42 125.51c-139.21 0-251.99 58.53-251.99 130.63s112.78 130.63 251.99 130.63S508.4 328.23 508.4 256.14c0-72.1-112.78-130.63-251.98-130.63" style="fill:#c9cbcc"/><path id="XMLID_90_" d="M256.42 125.51c-139.21 0-251.99 58.53-251.99 130.63s112.78 130.63 251.99 130.63S508.4 328.23 508.4 256.14c0-72.1-112.91-130.63-251.98-130.63" style="fill:#cacbcd"/><path id="XMLID_89_" d="M256.42 125.51c-139.21 0-251.99 58.53-251.99 130.63s112.78 130.63 251.99 130.63S508.4 328.23 508.4 256.14c0-72.1-112.91-130.63-251.98-130.63" style="fill:#cbccce"/><path id="XMLID_88_" d="M256.42 125.65c-139.07 0-251.99 58.4-251.99 130.63 0 72.1 112.78 130.63 251.99 130.63 139.07 0 251.99-58.53 251.99-130.63-.01-72.24-112.92-130.63-251.99-130.63" style="fill:#cbcdcf"/><path id="XMLID_87_" d="M256.42 125.65c-139.07 0-251.85 58.4-251.85 130.49s112.78 130.49 251.85 130.49 251.99-58.4 251.99-130.49c-.15-72.1-112.92-130.49-251.99-130.49" style="fill:#ccced0"/><path id="XMLID_86_" d="M256.42 125.65c-139.07 0-251.85 58.4-251.85 130.49s112.78 130.49 251.85 130.49 251.85-58.4 251.85-130.49-112.78-130.49-251.85-130.49" style="fill:#cdcfd0"/><path id="XMLID_85_" d="M256.42 125.65c-139.07 0-251.85 58.4-251.85 130.49s112.78 130.49 251.85 130.49 251.85-58.4 251.85-130.49-112.78-130.49-251.85-130.49" style="fill:#cecfd1"/><path id="XMLID_84_" d="M256.42 125.65c-139.07 0-251.85 58.4-251.85 130.49s112.78 130.49 251.85 130.49 251.85-58.4 251.85-130.49-112.78-130.49-251.85-130.49" class="st149"/><path id="XMLID_83_" d="M256.42 125.79c-139.07 0-251.85 58.4-251.85 130.49s112.78 130.49 251.85 130.49 251.85-58.4 251.85-130.49-112.78-130.49-251.85-130.49" class="st149"/><path id="XMLID_82_" d="M256.42 125.79c-139.07 0-251.71 58.4-251.71 130.35s112.78 130.35 251.71 130.35c139.07 0 251.85-58.4 251.85-130.35S395.49 125.79 256.42 125.79" style="fill:#d0d1d3"/><path id="XMLID_81_" d="M256.42 125.79c-139.07 0-251.71 58.4-251.71 130.35s112.78 130.35 251.71 130.35c139.07 0 251.71-58.4 251.71-130.35S395.49 125.79 256.42 125.79" style="fill:#d0d2d3"/><path id="XMLID_80_" d="M256.42 125.79c-139.07 0-251.71 58.4-251.71 130.35s112.64 130.35 251.71 130.35 251.71-58.4 251.71-130.35-112.64-130.35-251.71-130.35" style="fill:#d2d3d5"/><path id="XMLID_79_" d="M256.42 125.79c-138.93 0-251.71 58.4-251.71 130.35s112.64 130.35 251.71 130.35c138.93 0 251.71-58.4 251.71-130.35S395.49 125.79 256.42 125.79" style="fill:#d3d4d6"/><path id="XMLID_78_" d="M256.42 125.79c-138.93 0-251.71 58.4-251.71 130.35s112.64 130.35 251.71 130.35c138.93 0 251.71-58.4 251.71-130.35S395.35 125.79 256.42 125.79" style="fill:#d4d5d7"/><path id="XMLID_77_" d="M256.42 125.92c-138.93 0-251.57 58.26-251.57 130.21s112.64 130.35 251.57 130.35 251.71-58.4 251.71-130.35-112.78-130.21-251.71-130.21" style="fill:#d5d6d7"/><path id="XMLID_76_" d="M256.42 125.92c-138.93 0-251.57 58.26-251.57 130.21s112.64 130.21 251.57 130.21 251.57-58.4 251.57-130.21c0-71.95-112.64-130.21-251.57-130.21" style="fill:#d5d7d8"/><path id="XMLID_75_" d="M256.42 125.92c-138.93 0-251.57 58.26-251.57 130.21s112.64 130.21 251.57 130.21 251.57-58.26 251.57-130.21-112.64-130.21-251.57-130.21" style="fill:#d6d7d9"/><path id="XMLID_74_" d="M256.42 125.92c-138.93 0-251.57 58.26-251.57 130.21s112.64 130.21 251.57 130.21 251.57-58.26 251.57-130.21c0-71.81-112.64-130.21-251.57-130.21" style="fill:#d7d8da"/><path id="XMLID_73_" d="M256.42 126.06c-138.93 0-251.57 58.26-251.57 130.21s112.64 130.21 251.57 130.21 251.57-58.26 251.57-130.21-112.64-130.21-251.57-130.21" class="st159"/><path id="XMLID_72_" d="M256.42 126.06c-138.93 0-251.43 58.26-251.43 130.21 0 71.82 112.64 130.21 251.43 130.21 138.93 0 251.57-58.26 251.57-130.21S395.35 126.06 256.42 126.06" class="st159"/><path id="XMLID_71_" d="M256.42 126.06c-138.93 0-251.43 58.26-251.43 130.08s112.64 130.08 251.43 130.08c138.93 0 251.43-58.26 251.43-130.08.14-71.82-112.5-130.08-251.43-130.08" style="fill:#d9dadb"/><path id="XMLID_70_" d="M256.42 126.06c-138.79 0-251.43 58.26-251.43 130.08s112.64 130.08 251.43 130.08c138.93 0 251.43-58.26 251.43-130.08s-112.5-130.08-251.43-130.08" style="fill:#d9dbdc"/><path id="XMLID_69_" d="M256.42 126.06c-138.79 0-251.43 58.26-251.43 130.08s112.5 130.08 251.43 130.08c138.79 0 251.43-58.26 251.43-130.08s-112.5-130.08-251.43-130.08" style="fill:#dadcdd"/><path id="XMLID_68_" d="M256.42 126.06c-138.79 0-251.43 58.26-251.43 130.08s112.5 130.08 251.43 130.08c138.79 0 251.43-58.26 251.43-130.08s-112.5-130.08-251.43-130.08" style="fill:#dbdcde"/><path id="XMLID_67_" d="M256.42 126.2c-138.79 0-251.3 58.26-251.3 130.08s112.5 130.08 251.3 130.08 251.43-58.26 251.43-130.08c0-71.96-112.64-130.08-251.43-130.08" style="fill:#dddedf"/><path id="XMLID_66_" d="M256.42 126.2c-138.79 0-251.3 58.26-251.3 129.94 0 71.82 112.5 129.94 251.3 129.94s251.3-58.26 251.3-129.94c.13-71.82-112.51-129.94-251.3-129.94" style="fill:#dedfe0"/><path id="XMLID_65_" d="M256.42 126.2c-138.79 0-251.3 58.12-251.3 129.94s112.5 129.94 251.3 129.94 251.3-58.26 251.3-129.94c-.01-71.68-112.51-129.94-251.3-129.94" style="fill:#dee0e1"/><path id="XMLID_64_" d="M256.42 126.2c-138.79 0-251.3 58.12-251.3 129.94s112.5 129.94 251.3 129.94 251.3-58.12 251.3-129.94c-.01-71.68-112.51-129.94-251.3-129.94" style="fill:#dfe0e2"/><path id="XMLID_63_" d="M256.42 126.2c-138.79 0-251.3 58.12-251.3 129.94 0 71.68 112.5 129.94 251.3 129.94s251.3-58.12 251.3-129.94c-.01-71.68-112.51-129.94-251.3-129.94" style="fill:#e0e1e2"/><path id="XMLID_62_" d="M256.42 126.34c-138.79 0-251.16 58.12-251.16 129.94 0 71.68 112.5 129.94 251.16 129.94 138.79 0 251.3-58.12 251.3-129.94-.01-71.82-112.51-129.94-251.3-129.94" class="st169"/><path id="XMLID_61_" d="M256.42 126.34c-138.66 0-251.16 58.12-251.16 129.8s112.5 129.8 251.16 129.8 251.16-58.12 251.16-129.8c.13-71.68-112.37-129.8-251.16-129.8" class="st169"/><path id="XMLID_60_" d="M256.42 126.34c-138.66 0-251.16 58.12-251.16 129.8s112.5 129.8 251.16 129.8 251.16-58.12 251.16-129.8c.13-71.68-112.37-129.8-251.16-129.8" style="fill:#e2e3e4"/><path id="XMLID_59_" d="M256.42 126.34c-138.66 0-251.16 58.12-251.16 129.8s112.5 129.8 251.16 129.8 251.16-58.12 251.16-129.8-112.37-129.8-251.16-129.8" class="st171"/><path id="XMLID_58_" d="M256.42 126.34c-138.66 0-251.16 58.12-251.16 129.8s112.36 129.8 251.16 129.8c138.66 0 251.16-58.12 251.16-129.8s-112.37-129.8-251.16-129.8" class="st171"/><path id="XMLID_57_" d="M256.42 126.48C117.76 126.48 5.4 184.6 5.4 256.28s112.36 129.8 251.02 129.8 251.16-58.12 251.16-129.8c-.01-71.82-112.37-129.8-251.16-129.8" style="fill:#e4e5e6"/><path id="XMLID_56_" d="M256.42 126.48C117.76 126.48 5.4 184.6 5.4 256.28s112.36 129.8 251.02 129.8 251.02-58.12 251.02-129.8c.13-71.68-112.37-129.8-251.02-129.8" style="fill:#e5e6e7"/><path id="XMLID_55_" d="M256.42 126.48C117.76 126.48 5.4 184.6 5.4 256.14c0 71.68 112.36 129.66 251.02 129.66s251.02-58.12 251.02-129.66c.13-71.54-112.37-129.66-251.02-129.66" style="fill:#e7e8e9"/><g id="XMLID_2_"><g id="XMLID_3_"><defs><path id="SVGID_1_" d="M10.1 256c0 68.36 110.15 123.85 245.9 123.85 135.89 0 246.04-55.49 246.04-123.85S391.89 132.15 256 132.15 10.1 187.64 10.1 256"/></defs><clipPath id="SVGID_00000175296330761886174240000006721633705927672738_"><use xlink:href="#SVGID_1_" style="overflow:visible"/></clipPath><linearGradient id="XMLID_00000029729005912537726920000003664928614488419990_" x1="-418.575" x2="-414.339" y1="29.927" y2="29.927" gradientTransform="rotate(65 -16809.916 22856.855)scale(72.2304 -72.2304)" gradientUnits="userSpaceOnUse"><stop offset="0" style="stop-color:#008948"/><stop offset=".376" style="stop-color:#008948"/><stop offset=".596" style="stop-color:#004e25"/><stop offset="1" style="stop-color:#000"/></linearGradient><path id="XMLID_53_" d="m414.03-56.18 182.8 391.75-499 232.61-182.66-391.75z" style="clip-path:url(#SVGID_00000175296330761886174240000006721633705927672738_);fill:url(#XMLID_00000029729005912537726920000003664928614488419990_)"/></g></g><path id="XMLID_4_" d="M256 368.92c-128 0-232.06-50.09-232.06-111.67S128 145.57 256 145.57s232.06 50.09 232.06 111.67c0 61.45-104.06 111.68-232.06 111.68m0-220.3c-126.2 0-228.88 48.71-228.88 108.49C27.12 317.02 129.8 365.6 256 365.6s228.88-48.71 228.88-108.49S382.2 148.62 256 148.62" style="fill:#004e25"/><path id="XMLID_5_" d="M256 374.87c-132.15 0-239.67-53.28-239.67-118.59 0-65.45 107.52-118.59 239.67-118.59s239.67 53.28 239.67 118.59S388.15 374.87 256 374.87m0-231.37c-128.83 0-233.72 50.51-233.72 112.64S127.17 368.78 256 368.78s233.72-50.51 233.72-112.64S384.83 143.5 256 143.5" class="st177"/><g id="XMLID_6_"><g id="XMLID_7_"><defs><path id="SVGID_00000118398796407220927930000002872344151506625167_" d="m362.97 207.57-4.71 13.97h25.05l-28.65 10.38-1.8 5.68 43.87-15.09 4.84-14.94z"/></defs><clipPath id="SVGID_00000169529407875420043690000012986679051162693784_"><use xlink:href="#SVGID_00000118398796407220927930000002872344151506625167_" style="overflow:visible"/></clipPath><linearGradient id="XMLID_00000018916435746372529300000015458768536064232327_" x1="-415.235" x2="-410.999" y1="33.049" y2="33.049" gradientTransform="rotate(245 11252.458 8294.982)scale(-55.9836 55.9836)" gradientUnits="userSpaceOnUse"><stop offset="0" style="stop-color:#004e25"/><stop offset="1" style="stop-color:#000"/></linearGradient><path id="XMLID_47_" d="m392.86 188.89 20.34 43.45-51.62 24.08-20.34-43.46z" style="clip-path:url(#SVGID_00000169529407875420043690000012986679051162693784_);fill:url(#XMLID_00000018916435746372529300000015458768536064232327_)"/></g></g><g id="XMLID_8_"><g id="XMLID_9_"><defs><path id="SVGID_00000096759931029423239590000001303655918396929968_" d="M136.58 183.35c2.77 1.38.28 6.64.28 6.64s-17.44 50.78-18.68 53.28c-1.25 2.49-2.08 2.91-2.08 2.91h37.64l5.26-14.94c-.55 1.38-4.01.97-4.01.97h-15.78s14.53-40.68 15.78-43.73c1.66-4.43 2.91-4.98 3.18-5.12h-21.59zm21.59 0q.195 0 0 0c.13 0 0 0 0 0"/></defs><clipPath id="SVGID_00000083067041679872421990000006079655588546744242_"><use xlink:href="#SVGID_00000096759931029423239590000001303655918396929968_" style="overflow:visible"/></clipPath><linearGradient id="XMLID_00000059307987594999032730000007284026087796409226_" x1="-419.348" x2="-415.112" y1="27.662" y2="27.662" gradientTransform="rotate(65 -25156.73 34375.395)scale(107.9445 -107.9445)" gradientUnits="userSpaceOnUse"><stop offset="0" style="stop-color:#004e25"/><stop offset="1" style="stop-color:#000"/></linearGradient><path id="XMLID_43_" d="m151.39 166.88 31.68 68.09-59.36 27.67-31.69-68.08z" style="clip-path:url(#SVGID_00000083067041679872421990000006079655588546744242_);fill:url(#XMLID_00000059307987594999032730000007284026087796409226_)"/></g></g><g id="XMLID_11_"><g id="XMLID_12_"><defs><path id="SVGID_00000078008294529100747210000013392400610100721056_" d="M274.96 187.09c-.55 1.66-10.38 28.78-10.38 28.78l-3.74-32.38h-18.4s.97 1.66.28 3.32c-.55 1.38-19.51 55.9-19.51 55.9s-1.25 3.46-2.21 3.46h17.71s-1.25-1.94-.42-3.87c.97-2.91 10.52-29.61 10.52-29.61l4.15 33.63h16.05l21.03-59.78s.83-2.77 2.08-2.77H275.1c0-.28.41 1.8-.14 3.32"/></defs><clipPath id="SVGID_00000138556304226185006480000000525230590108289962_"><use xlink:href="#SVGID_00000078008294529100747210000013392400610100721056_" style="overflow:visible"/></clipPath><linearGradient id="XMLID_00000165931170646701917930000010505342046352430002_" x1="-419.353" x2="-415.118" y1="28.837" y2="28.837" gradientTransform="rotate(245 19518.45 14287.8)scale(-96.341 96.341)" gradientUnits="userSpaceOnUse"><stop offset="0" style="stop-color:#004e25"/><stop offset="1" style="stop-color:#000"/></linearGradient><path id="XMLID_41_" d="m279.39 156.23 36.8 78.74-82.47 38.33-36.67-78.6z" style="clip-path:url(#SVGID_00000138556304226185006480000000525230590108289962_);fill:url(#XMLID_00000165931170646701917930000010505342046352430002_)"/></g></g><g id="XMLID_13_"><g id="XMLID_14_"><defs><path id="SVGID_00000066513148187888502750000000307702037261815719_" d="M316.61 197.05h4.57s11.76-.69 3.32 20.76c-5.12 13.15-12.73 13.98-16.88 13.98h-2.77zm5.81-13.56h-20.2s1.52 2.49-.42 8.44c-1.94 5.81-17.44 49.54-17.44 49.54s-1.25 4.15-2.91 4.84h24.22s29.47 1.11 38.61-31.14c0 0 11.35-31.55-21.31-31.55-.27-.13-.41-.13-.55-.13"/></defs><clipPath id="SVGID_00000183248926973832713810000014593911044353830288_"><use xlink:href="#SVGID_00000066513148187888502750000000307702037261815719_" style="overflow:visible"/></clipPath><linearGradient id="XMLID_00000098192367151284359230000002321329028769484928_" x1="-419.009" x2="-414.773" y1="29.774" y2="29.774" gradientTransform="rotate(245 17544.39 12852.91)scale(-86.7134 86.7134)" gradientUnits="userSpaceOnUse"><stop offset="0" style="stop-color:#004e25"/><stop offset="1" style="stop-color:#000"/></linearGradient><path id="XMLID_38_" d="m342.49 155.12 37.64 80.95-85.38 39.72-37.78-80.81z" style="clip-path:url(#SVGID_00000183248926973832713810000014593911044353830288_);fill:url(#XMLID_00000098192367151284359230000002321329028769484928_)"/></g></g><g id="XMLID_16_"><g id="XMLID_17_"><defs><path id="SVGID_00000013193228348839917260000007625630201489719697_" d="m93.96 281.74-4.84 15.08h38.74l4.71-14.11h-25.05l28.51-10.38 1.93-5.67z"/></defs><clipPath id="SVGID_00000038374217361957771830000015721341524063737478_"><use xlink:href="#SVGID_00000013193228348839917260000007625630201489719697_" style="overflow:visible"/></clipPath><linearGradient id="XMLID_00000092425874357056773820000000040201545718591156_" x1="-413.753" x2="-409.517" y1="29.447" y2="29.447" gradientTransform="rotate(245 11245.87 8334.614)scale(-55.9857 55.9857)" gradientUnits="userSpaceOnUse"><stop offset="0" style="stop-color:#004e25"/><stop offset="1" style="stop-color:#000"/></linearGradient><path id="XMLID_36_" d="m129.25 247.97 20.2 43.45-51.62 24.08-20.2-43.45z" style="clip-path:url(#SVGID_00000038374217361957771830000015721341524063737478_);fill:url(#XMLID_00000092425874357056773820000000040201545718591156_)"/></g></g><g id="XMLID_18_"><g id="XMLID_19_"><defs><path id="SVGID_00000010993307029290359230000017343630147703248275_" d="M172 274.4h4.15c8.99 0 5.81 7.2 5.81 7.2-2.77 6.23-10.24 5.54-10.24 5.54h-3.87zm9.97-14.53h-25.05c1.8 2.08.42 6.64.42 6.64s-15.64 46.5-16.74 50.09c-1.25 3.6-3.46 6.09-3.46 6.09h19.79c-.55 0-.55-2.08-.55-2.08l7.06-19.65s8.86 18.13 9.41 19.37c.55 1.25.28 2.35.28 2.35h21.17c-2.08 0-4.15-4.01-4.15-4.01l-10.52-19.79c14.94 0 19.65-15.22 19.65-15.22 6.92-23.11-14.94-23.66-17.02-23.66-.15-.13-.29-.13-.29-.13"/></defs><clipPath id="SVGID_00000180333373133867485230000004556785959002586539_"><use xlink:href="#SVGID_00000010993307029290359230000017343630147703248275_" style="overflow:visible"/></clipPath><linearGradient id="XMLID_00000014635360985689639020000008006274108084407942_" x1="-417.979" x2="-413.744" y1="28.308" y2="28.308" gradientTransform="rotate(65 -20251.707 27586.81)scale(86.8532 -86.8532)" gradientUnits="userSpaceOnUse"><stop offset="0" style="stop-color:#004e25"/><stop offset="1" style="stop-color:#000"/></linearGradient><path id="XMLID_33_" d="m193.87 233.44 36.39 78.05-80.81 37.78-36.39-78.05z" style="clip-path:url(#SVGID_00000180333373133867485230000004556785959002586539_);fill:url(#XMLID_00000014635360985689639020000008006274108084407942_)"/></g></g><g id="XMLID_21_"><g id="XMLID_22_"><defs><path id="SVGID_00000128487491687091207090000017023410333251310470_" d="M376.39 322.98q-.21 0 0 0m14.67-48.16h5.54s6.64-.14 4.01 7.06c-2.21 6.09-9.69 5.54-9.69 5.54h-3.87zm10.1-14.67h-24.91c1.8 2.08.42 6.5.42 6.5s-16.19 46.77-17.44 50.37-3.6 5.95-3.6 5.95h20.62c-1.38 0-.42-3.87-.42-3.87l6.37-17.99s8.58 18.13 9.13 19.37c.55 1.25.28 2.35.28 2.35h22c-2.08 0-4.29-4.01-4.29-4.01l-10.52-19.79c14.81 0 19.23-14.81 19.23-14.81 7.06-23.25-12.87-24.22-16.47-24.22-.26.15-.4.15-.4.15"/></defs><clipPath id="SVGID_00000027577480236264587860000005428426929608049298_"><use xlink:href="#SVGID_00000128487491687091207090000017023410333251310470_" style="overflow:visible"/></clipPath><linearGradient id="XMLID_00000037676240137746480100000003289755481565750145_" x1="-419.179" x2="-414.944" y1="30.047" y2="30.047" gradientTransform="rotate(65 -20210.773 27601.475)scale(86.9042 -86.9042)" gradientUnits="userSpaceOnUse"><stop offset="0" style="stop-color:#004e25"/><stop offset="1" style="stop-color:#000"/></linearGradient><path id="XMLID_29_" d="m412.78 233.58 36.4 78.19-81.09 37.91-36.54-78.32z" style="clip-path:url(#SVGID_00000027577480236264587860000005428426929608049298_);fill:url(#XMLID_00000037676240137746480100000003289755481565750145_)"/></g></g><g id="XMLID_24_"><g id="XMLID_25_"><defs><path id="SVGID_00000090252330370189965460000002737542256467084434_" d="M226.8 309.41c-7.47-1.38-6.09-13.42-4.98-18.96 2.63-12.18 9.13-17.99 13.98-17.44 1.66.14 10.38.42 5.54 20.2-2.77 11.76-8.03 16.33-13.01 16.33-.42.15-.97.01-1.53-.13m-23.52-16.6c-3.04 17.57 6.5 31.55 22.14 31.55 21.86 0 34.87-22.42 34.87-38.61 0-16.88-6.64-27.4-21.86-27.4-19.24 0-31.83 15.36-35.15 34.46"/></defs><clipPath id="SVGID_00000078735710285053939500000008860724773694917283_"><use xlink:href="#SVGID_00000090252330370189965460000002737542256467084434_" style="overflow:visible"/></clipPath><linearGradient id="XMLID_00000153675726572843146550000001101381195822212761_" x1="-417.888" x2="-413.653" y1="28.957" y2="28.957" gradientTransform="rotate(65 -19221.088 26182.569)scale(82.4854 -82.4854)" gradientUnits="userSpaceOnUse"><stop offset="0" style="stop-color:#004e25"/><stop offset="1" style="stop-color:#000"/></linearGradient><path id="XMLID_235_" d="m249.63 235.38 35.98 77.22-74.58 34.73-35.98-77.22z" style="clip-path:url(#SVGID_00000078735710285053939500000008860724773694917283_);fill:url(#XMLID_00000153675726572843146550000001101381195822212761_)"/></g></g><g id="XMLID_236_"><g id="XMLID_237_"><defs><path id="SVGID_00000148641248483928916400000009588097409076818330_" d="M265.55 260.15s1.52.83 1.52 4.84v54.38s-.28 3.04-1.25 3.6h16.33s0-1.25 1.66-3.46c1.66-2.08 35.42-49.54 35.42-49.54s7.75-9.96 9.69-9.96h-23.25s1.8 1.25.42 3.6-22.14 34.73-22.14 34.73l.28-32.66s0-5.26 1.94-5.67z"/></defs><clipPath id="SVGID_00000067951336674739268360000005552262113794986141_"><use xlink:href="#SVGID_00000148641248483928916400000009588097409076818330_" style="overflow:visible"/></clipPath><linearGradient id="XMLID_00000152259429649867969970000016336801808242350499_" x1="-418.338" x2="-414.103" y1="29.429" y2="29.429" gradientTransform="rotate(65 -19603.777 26733.5)scale(84.1949 -84.1949)" gradientUnits="userSpaceOnUse"><stop offset="0" style="stop-color:#004e25"/><stop offset="1" style="stop-color:#000"/></linearGradient><path id="XMLID_239_" d="m317.58 235.94 35.28 75.83-75.96 35.42-35.43-75.83z" style="clip-path:url(#SVGID_00000067951336674739268360000005552262113794986141_);fill:url(#XMLID_00000152259429649867969970000016336801808242350499_)"/></g></g><g id="XMLID_240_"><g id="XMLID_241_"><defs><path id="SVGID_00000140701900899551931250000009877025288123081643_" d="M329.76 260.15s1.38 1.25-.42 6.64c-1.8 5.26-17.85 50.37-17.85 50.37s-2.91 5.95-3.6 5.95h40.68l4.84-14.94s-.55.83-4.43.83h-17.16l3.6-10.1h13.28s2.77-.28 3.46.55l5.4-16.05c-.14.14-.69 1.38-4.01 1.38h-13.01l3.87-11.21h16.33s2.21-.28 3.04 1.52l5.26-14.81z"/></defs><clipPath id="SVGID_00000162335919208256929290000012172053620193610144_"><use xlink:href="#SVGID_00000140701900899551931250000009877025288123081643_" style="overflow:visible"/></clipPath><linearGradient id="XMLID_00000114770186740042151650000014583614903526012832_" x1="-420.28" x2="-416.045" y1="28.799" y2="28.799" gradientTransform="rotate(245 21435.73 15666.954)scale(-105.711 105.711)" gradientUnits="userSpaceOnUse"><stop offset="0" style="stop-color:#004e25"/><stop offset="1" style="stop-color:#000"/></linearGradient><path id="XMLID_245_" d="m358.26 236.63 35.01 75.14-74.45 34.73-35.01-75.14z" style="clip-path:url(#SVGID_00000162335919208256929290000012172053620193610144_);fill:url(#XMLID_00000114770186740042151650000014583614903526012832_)"/></g></g><g id="XMLID_246_"><g id="XMLID_247_"><defs><path id="SVGID_00000060725636793872553290000002828207756119899064_" d="m200.51 204.8.14 18.4h-10.93zm-3.46-21.31s1.38 1.8-1.25 5.67c-2.63 4.01-35.42 54.94-35.42 54.94s-.69 1.25-2.35 2.08h19.51s0-1.52.42-2.63c.97-1.8 3.32-6.23 3.32-6.23h19.65v5.54s.14 1.94-1.38 3.32h19.37s-1.38-.83-1.66-3.32l-2.49-55.21s-.14-3.6 1.52-4.29h-19.23v.13z"/></defs><clipPath id="SVGID_00000059994781918078321860000013870628979564030121_"><use xlink:href="#SVGID_00000060725636793872553290000002828207756119899064_" style="overflow:visible"/></clipPath><linearGradient id="XMLID_00000111908880288859116230000003118328953656164746_" x1="-418.646" x2="-414.411" y1="28.569" y2="28.569" gradientTransform="rotate(245 18313.45 13427.314)scale(-90.4637 90.4637)" gradientUnits="userSpaceOnUse"><stop offset="0" style="stop-color:#004e25"/><stop offset="1" style="stop-color:#000"/></linearGradient><path id="XMLID_255_" d="m208.12 160.1 35.01 74.87-74.17 34.59-34.87-74.86z" style="clip-path:url(#SVGID_00000059994781918078321860000013870628979564030121_);fill:url(#XMLID_00000111908880288859116230000003118328953656164746_)"/></g></g><path id="XMLID_256_" d="M397.98 203.55h-38.61l-4.71 14.12h25.05l-28.64 10.38-1.94 5.67 44-15.08z" class="st177"/><path id="XMLID_257_" d="m155.4 227.22-5.26 15.08H112.5s.83-.28 2.08-2.91c1.25-2.49 18.68-53.28 18.68-53.28s2.35-5.26-.28-6.64h21.73s-1.25-.42-3.32 5.12c-1.25 3.04-15.78 43.73-15.78 43.73h15.78s3.59.28 4.01-1.1" class="st177"/><path id="XMLID_258_" d="M217.53 242.16h17.71s-1.25-1.94-.42-3.87c.97-2.91 10.52-29.61 10.52-29.61l4.15 33.63h16.05l21.03-59.78s.83-2.77 2.08-2.77h-17.02s.55 2.08-.14 3.6c-.55 1.66-10.38 28.78-10.38 28.78l-3.74-32.38h-18.4s.97 1.66.28 3.32c-.55 1.38-19.51 55.9-19.51 55.9s-1.24 3.18-2.21 3.18" class="st177"/><path d="M318.82 179.62h-20.2s1.52 2.49-.42 8.44c-1.94 5.81-17.44 49.54-17.44 49.54s-1.25 4.15-2.91 4.84h24.22s29.47 1.11 38.61-31.14c.01-.13 11.49-32.1-21.86-31.68m2.08 34.17c-5.12 13.15-12.73 13.98-16.88 13.98h-2.77l11.9-34.87h4.57c-.14.14 11.62-.55 3.18 20.89" class="st177"/><path id="XMLID_259_" d="M85.52 292.81h38.74l4.57-14.12h-24.91l28.51-10.24 1.94-5.81-44.01 15.09z" class="st177"/><path d="M195.67 279.66c7.33-24.35-17.3-23.66-17.3-23.66h-25.05c1.8 2.08.42 6.64.42 6.64s-15.64 46.5-16.74 50.09c-1.25 3.6-3.46 6.09-3.46 6.09h19.79c-.55 0-.55-2.08-.55-2.08l7.06-19.65s8.86 18.13 9.55 19.51c.55 1.25.28 2.35.28 2.35h21.17c-2.08 0-4.15-4.01-4.15-4.01l-10.52-19.79c14.65-.13 19.5-15.49 19.5-15.49m-17.3-2.07c-2.77 6.23-10.24 5.54-10.24 5.54h-3.87l4.15-12.59h4.15c8.99-.15 5.81 7.05 5.81 7.05m236.07 2.9c7.75-25.46-16.88-24.22-16.88-24.22h-24.91c1.8 2.08.42 6.5.42 6.5s-16.19 46.77-17.44 50.37-3.6 5.95-3.6 5.95h20.62c-1.52 0-.42-3.87-.42-3.87l6.37-17.99s8.58 18.13 9.13 19.37c.55 1.25.28 2.35.28 2.35h22c-2.08 0-4.29-4.01-4.29-4.01l-10.52-19.79c14.82.01 19.24-14.66 19.24-14.66m-17.57-2.63c-2.21 6.09-9.69 5.54-9.69 5.54h-3.87l4.01-12.45h5.54c0-.14 6.78-.28 4.01 6.91m-161.9-23.52c-19.37 0-31.97 15.36-35.29 34.46-3.04 17.57 6.5 31.55 22.14 31.55 21.86 0 34.87-22.42 34.87-38.61 0-16.88-6.64-27.4-21.72-27.4m2.9 35.01c-3.18 13.15-9.13 17.16-14.53 16.19-7.47-1.38-6.23-13.42-4.98-18.96 2.63-12.18 9.13-17.99 13.98-17.44 1.52.14 10.24.28 5.53 20.21" class="st177"/><path id="XMLID_262_" d="M261.95 256.28s1.52.83 1.52 4.84v54.38s-.28 3.04-1.25 3.6h16.33s0-1.25 1.66-3.46c1.66-2.08 35.42-49.54 35.42-49.54s7.75-9.96 9.69-9.96h-23.25s1.8 1.25.42 3.6-22.14 34.73-22.14 34.73l.28-32.66s0-5.26 1.94-5.67z" class="st177"/><path id="XMLID_273_" d="m360.34 271.08 5.26-14.81h-39.44s1.38 1.25-.42 6.64c-1.8 5.26-17.85 50.37-17.85 50.37s-2.91 5.95-3.6 5.95h40.68l4.84-14.94s-.55.83-4.43.83h-17.16l3.6-10.1h13.28s2.77-.28 3.46.55l5.4-16.05s-.42 1.52-4.01 1.52h-13.01l3.87-11.21h16.33c.15-.27 2.37-.55 3.2 1.25" class="st177"/><path d="M215.46 242.3s-1.38-.83-1.66-3.32l-2.49-55.21s-.14-3.6 1.52-4.29H193.6s1.38 1.66-1.25 5.67-35.42 54.94-35.42 54.94-.69 1.25-2.35 2.08h19.51s-.14-1.52.42-2.63c.97-1.8 3.32-6.23 3.32-6.23h19.65v5.54s.14 1.94-1.38 3.32h19.37v.13zm-29.34-23.11 10.79-18.4.14 18.4z" class="st177"/></g></svg>