<svg xmlns="http://www.w3.org/2000/svg" xml:space="preserve" id="Layer_1" x="0" y="0" viewBox="0 0 512 512"><style>.st0{fill:#231f20}</style><g id="XMLID_5_"><path id="XMLID_9_" d="M490.72 253.52h-37.59c.42-4.77 3.79-9.4 9.82-9.4h44.33v-8.98h-46.29c-18.52 0-25.95 14.03-25.95 27.49h51.62c1.68 0 5.89.42 5.89 4.63s-3.65 4.63-9.82 4.77h-53.87v-36.89h-15.85v36.89h-30.3c-9.12 0-10.1-6.73-10.1-10.38v-26.51h-28.9l-23.57 15.71-21.18-15.71H237.1c-18.52 0-29.46 12.76-31.14 23.99h12.76c-5.05 3.51-8.7 8.14-10.66 12.91h-36.05c-9.12 0-10.1-6.73-10.1-10.38v-26.51h-15.85v25.25c0 17.39 12.2 20.76 18.1 20.76h126.81l23.71-15.85 21.46 15.85h24.97l-33.24-24.55 27.35-18.38v24.27c0 15.71 15.29 18.66 19.5 18.66h115.73c5.75 0 21.46-.7 21.46-13.33.13-12.63-11.51-14.31-21.19-14.31M288.3 272.03h-59.62c.42-4.77 5.61-9.4 11.64-9.4h35.21v-8.98h-48.11c.42-4.77 5.61-9.4 11.64-9.4h40.26v-5.19l27.91 20.62z" class="st0"/><path id="XMLID_10_" d="M63.02 301.21c20.9 0 39.28-7.29 50.78-18.52h-10.38c-9.82 8.28-23.99 13.33-40.12 13.33-30.16 0-53.72-17.96-53.72-40.12 0-25.53 23.57-40.12 53.72-40.12 1.96 0 3.51.84 2.24 2.52-6.31 7.57-24.13 31.84-27.35 37.03-6.45 10.38-6.31 23.15 9.4 23.99h66.07c3.37 0 4.21-1.54 5.47-3.23 4.49-6.03 6.73-13.05 6.73-20.34 0-19.08-13.47-33.39-33.1-40.4l-3.09 4.63c16.41 6.03 27.21 18.24 27.21 35.77 0 3.09-.42 6.03-1.26 8.84-.7 2.52-2.1 4.63-4.91 4.63H57.97c-6.73 0-4.21-7.01-1.68-10.38 3.65-6.45 23.57-33.67 28.34-38.72 1.26-1.82 4.63-5.75-.14-7.15-6.73-1.54-14.03-2.38-21.6-2.38-34.79 0-62.84 17.81-62.98 45.17.13 27.91 28.33 45.45 63.11 45.45" class="st0"/></g></svg>