<svg xmlns="http://www.w3.org/2000/svg" xml:space="preserve" id="Layer_1" x="0" y="0" viewBox="0 0 512 512"><style>.st0{fill:#151313}</style><g id="g10"><g id="g2994"><path id="path12" d="M250.6 331.14c-3.74-3.46-9.96-5.4-16.19-5.4-15.08 0-25.05 8.44-25.05 19.23 0 9.96 9.41 18.4 25.05 18.4 7.61 0 13.56-2.35 17.57-6.37l7.61 4.01c-1.94 1.94-10.1 8.3-25.32 8.3-21.31 0-34.46-12.59-34.46-24.35 0-14.67 14.25-25.18 34.87-25.18 8.86 0 18.13 2.35 23.52 7.33z" class="st0"/><path id="path14" d="M331.55 363.38c-14.25 0-23.52-8.44-23.52-18.82s9.27-18.82 23.52-18.82 23.52 8.44 23.52 18.82-9.26 18.82-23.52 18.82m0 6.09c19.1 0 32.52-10.79 32.52-24.77s-13.42-24.77-32.52-24.77-32.52 10.79-32.52 24.77 13.43 24.77 32.52 24.77" class="st0"/><path id="path16" d="M0 321.04h6.92v41.24H30.3v5.95H0z" class="st0"/><path id="path18" d="M71.54 321.04h6.92v47.19h-6.92z" class="st0"/><path id="path20" d="M113.61 321.04h11.62l35.84 38.88h.14v-38.88h8.86v47.19h-11.21l-36.12-38.75h-.14v38.75h-8.86v-47.19" class="st0"/><path id="path22" d="M396.18 321.04h6.92v41.24h23.39v5.95h-30.3v-47.19" class="st0"/><path id="path24" d="M467.86 321.04h8.99l28.09 38.88h.14v-38.88H512v47.19h-8.86l-28.37-38.75h-.14v38.75h-6.92v-47.19" class="st0"/><path id="path26" d="M274.68 211.72c-.14-17.99-1.11-38.33-4.01-57.01 0 0-5.95-.69-13.84-.83-.55-7.33-.97-11.35-.97-11.35h-1.94s-.42 4.01-.97 11.35c-7.75.14-13.84.83-13.84.83-2.91 18.68-3.87 39.02-4.01 57.01-6.37.69-11.49 1.52-11.49 1.52v1.8s5.12.69 11.49 1.52c.14 17.99 1.11 38.33 4.01 57.01 0 0 5.95.69 13.84.83.55 7.33.97 11.35.97 11.35h1.94s.42-4.01.97-11.35c7.75-.14 13.84-.83 13.84-.83 2.91-18.68 3.87-39.02 4.01-57.01 6.37-.69 11.49-1.52 11.49-1.52v-1.8s-5.12-.69-11.49-1.52m-8.3-51.48c2.49 17.57 3.18 39.58 3.18 50.92-3.6-.42-7.47-.69-10.66-.83-.14-21.17-.83-38.33-1.66-50.09zm-22.83 0h8.99c-.69 11.76-1.52 28.92-1.66 50.09-3.18.14-7.06.42-10.66.83.14-11.34.84-33.34 3.33-50.92m0 107.8c-2.49-17.57-3.18-39.58-3.18-50.92 3.6.42 7.47.69 10.66.83.14 21.17.83 38.33 1.66 50.09zh22.83-8.99c.69-11.76 1.52-28.92 1.66-50.09 3.18-.14 7.06-.42 10.66-.83-.14 11.49-.69 33.49-3.18 50.92z" class="st0"/></g></g></svg>