<?xml version="1.0" encoding="utf-8"?>
<!-- Generator: Adobe Illustrator 27.0.0, SVG Export Plug-In . SVG Version: 6.00 Build 0)  -->
<svg version="1.1" id="Layer_1" xmlns="http://www.w3.org/2000/svg" xmlns:xlink="http://www.w3.org/1999/xlink" x="0px" y="0px"
	 viewBox="0 0 512 512" style="enable-background:new 0 0 512 512;" xml:space="preserve">
<style type="text/css">
	.st0{fill:#151313;}
</style>
<g id="g10">
	<g id="g2994">
		<path id="path12" class="st0" d="M250.6,331.14c-3.74-3.46-9.96-5.4-16.19-5.4c-15.08,0-25.05,8.44-25.05,19.23
			c0,9.96,9.41,18.4,25.05,18.4c7.61,0,13.56-2.35,17.57-6.37l7.61,4.01c-1.94,1.94-10.1,8.3-25.32,8.3
			c-21.31,0-34.46-12.59-34.46-24.35c0-14.67,14.25-25.18,34.87-25.18c8.86,0,18.13,2.35,23.52,7.33L250.6,331.14L250.6,331.14"/>
		<path id="path14" class="st0" d="M331.55,363.38c-14.25,0-23.52-8.44-23.52-18.82s9.27-18.82,23.52-18.82s23.52,8.44,23.52,18.82
			S345.81,363.38,331.55,363.38L331.55,363.38z M331.55,369.47c19.1,0,32.52-10.79,32.52-24.77s-13.42-24.77-32.52-24.77
			s-32.52,10.79-32.52,24.77S312.46,369.47,331.55,369.47L331.55,369.47"/>
		<path id="path16" class="st0" d="M0,321.04h6.92v41.24H30.3v5.95H0V321.04"/>
		<path id="path18" class="st0" d="M71.54,321.04h6.92v47.19h-6.92V321.04"/>
		<path id="path20" class="st0" d="M113.61,321.04h11.62l35.84,38.88h0.14v-38.88h8.86v47.19h-11.21l-36.12-38.75h-0.14v38.75h-8.86
			v-47.19"/>
		<path id="path22" class="st0" d="M396.18,321.04h6.92v41.24h23.39v5.95h-30.3V321.04"/>
		<path id="path24" class="st0" d="M467.86,321.04h8.99l28.09,38.88h0.14v-38.88H512v47.19h-8.86l-28.37-38.75h-0.14v38.75h-6.92
			v-47.19"/>
		<path id="path26" class="st0" d="M274.68,211.72c-0.14-17.99-1.11-38.33-4.01-57.01c0,0-5.95-0.69-13.84-0.83
			c-0.55-7.33-0.97-11.35-0.97-11.35h-1.94c0,0-0.42,4.01-0.97,11.35c-7.75,0.14-13.84,0.83-13.84,0.83
			c-2.91,18.68-3.87,39.02-4.01,57.01c-6.37,0.69-11.49,1.52-11.49,1.52v1.8c0,0,5.12,0.69,11.49,1.52
			c0.14,17.99,1.11,38.33,4.01,57.01c0,0,5.95,0.69,13.84,0.83c0.55,7.33,0.97,11.35,0.97,11.35h1.94c0,0,0.42-4.01,0.97-11.35
			c7.75-0.14,13.84-0.83,13.84-0.83c2.91-18.68,3.87-39.02,4.01-57.01c6.37-0.69,11.49-1.52,11.49-1.52v-1.8
			C286.17,213.24,281.05,212.55,274.68,211.72L274.68,211.72z M266.38,160.24c2.49,17.57,3.18,39.58,3.18,50.92
			c-3.6-0.42-7.47-0.69-10.66-0.83c-0.14-21.17-0.83-38.33-1.66-50.09H266.38L266.38,160.24z M243.55,160.24h8.99
			c-0.69,11.76-1.52,28.92-1.66,50.09c-3.18,0.14-7.06,0.42-10.66,0.83C240.36,199.82,241.06,177.82,243.55,160.24L243.55,160.24z
			 M243.55,268.04c-2.49-17.57-3.18-39.58-3.18-50.92c3.6,0.42,7.47,0.69,10.66,0.83c0.14,21.17,0.83,38.33,1.66,50.09H243.55h22.83
			h-8.99c0.69-11.76,1.52-28.92,1.66-50.09c3.18-0.14,7.06-0.42,10.66-0.83c-0.14,11.49-0.69,33.49-3.18,50.92H243.55L243.55,268.04
			"/>
	</g>
</g>
</svg>
