<?xml version="1.0" encoding="utf-8"?>
<!-- Generator: Adobe Illustrator 25.0.1, SVG Export Plug-In . SVG Version: 6.00 Build 0)  -->
<svg version="1.0" id="katman_1" xmlns="http://www.w3.org/2000/svg" xmlns:xlink="http://www.w3.org/1999/xlink" x="0px" y="0px"
	 viewBox="0 0 560 400" style="enable-background:new 0 0 560 400;" xml:space="preserve">
<style type="text/css">
	.st0{fill:#D3D2D2;}
	.st1{fill:#F1BD18;}
	.st2{fill:#1C5637;}
</style>
<g transform="matrix(1.19201 0 0 1.19201 41.7925 21.005)">
	<path class="st0" d="M199.8,24.4c69.3,0,125.8,56.5,125.8,125.8c0,69.2-56.5,125.7-125.8,125.7S74,219.4,74,150.2
		C74,80.9,130.5,24.4,199.8,24.4L199.8,24.4z M199.8,30.8c65.8,0,119.4,53.6,119.4,119.4c0,65.6-53.6,119.2-119.4,119.2
		c-65.6,0-119.2-53.6-119.2-119.2C80.6,84.5,134.2,30.8,199.8,30.8"/>
	<path class="st1" d="M199.8,30c66.3,0,120.3,54,120.3,120.3c0,66.1-54,120.3-120.3,120.3c-66.1,0-120.3-54.1-120.3-120.3
		C79.6,83.9,133.7,30,199.8,30"/>
	<path class="st0" d="M164.5,70.2c0,0,13.9-16.7,34-17.3c20.1-0.5,32.1,12,32.1,12l70,76.6c0,0,12,14.4,6.8,29.8
		c-5.2,15.4-33.2,49.9-106,51.2c-72.9,1.5-103.5-37.9-103.5-37.9c0,0-14.4-23.3,0.5-40.8C113.2,126.7,164.5,70.2,164.5,70.2
		L164.5,70.2z M167.9,76.5c0,0,12.2-16.4,30.8-16.7c18.6-0.5,29.1,11.5,29.1,11.5l63.9,71.5c0,0,13,12.3,8.1,26.4
		c-4.7,14.2-31.5,44.5-98.4,45.8c-67.1,1.4-95.4-34-95.4-34s-13.7-18.3,0-34.2C119.7,131,167.9,76.5,167.9,76.5"/>
	<path class="st2" d="M167.5,76c0,0,12.3-16.6,31.1-16.9c18.8-0.5,29.4,11.5,29.4,11.5l64.4,72.2c0,0,13.2,12.5,8.3,26.7
		c-4.9,14.2-31.8,44.8-99.5,46.2c-67.8,1.4-96.2-34.2-96.2-34.2s-13.9-18.4,0-34.5C118.8,131,167.5,76,167.5,76"/>
	<g>
		<path class="st0" d="M166,132C166,132,166,132,166,132C166.1,131.8,166.2,131.8,166,132z"/>
		<path class="st0" d="M234.2,136.4c-2-1.2-3,0.8-3,0.8l-2.7,2.4c0,0-10.3,7.3-24.4,7.8c-14,0.7-18.1-4.4-24-9.8
			c-5.9-5.4-7.4-17.6-7.4-17.6l3.2-4.9l5.1,0.2c0,0-0.8,7.8,3,12.5c3.9,4.9,9.5,5.6,9.5,5.6v1.4c0,1.2-1,1.7-3.6,2.5
			c-2.4,1-0.2,2.7-0.2,2.7l25.7-0.2c0,0,11.8-2.9,11.8-14c0-11-10-13-10-13s6.4-0.5,6.4-10s-9.3-9.1-9.3-9.1l-34.3,0.3v2.2
			c0,0,0.2,0.3,0.7,1.7c0.5,1.5-0.5,2.2-0.5,2.2l-7.9,11.3c0,0-0.7-12.3,8.1-21.6c9-9.5,21-7.6,21-7.6h5.4c0,0,11.2,2.4,18.1,6.3
			c6.8,3.9,5.2-0.8,5.2-0.8s-3.4-5.2-4.9-8.5c-1.7-3.2-2.5-1.5-4.7,0.2c-2.2,1.7-5.2,0-5.2,0s-16.6-5.6-33.3,1.4
			c-16.6,7.1-19.6,28.6-20,32.6c-0.3,4.1,1.4,13.7,1.4,13.7s-2.9,4.4-4.7,7.3c-1.9,3-7.6,3.2-7.6,3.2s-1.7-0.2-1.7,1.7
			c0,2,1,1.5,1,1.5l15.9-0.2c0,0,1.2-1.9-1.2-3.2c-1.9-0.9,0.4-4.4,1-5.2c0,0,0,0,0-0.1c0.2-0.2,0.1-0.2,0,0.1
			c-0.7,1.6,14.4,23.8,35.9,22.4c21.8-1.4,30.3-12.9,30.3-12.9S236.2,137.4,234.2,136.4L234.2,136.4z M193.4,126.9
			c0,0-3.2-0.7-4.6-3.6c-1.4-2.7-1.2-8.1-1.2-8.1h5.8L193.4,126.9L193.4,126.9z M187.8,110.3c0,0,0-1.2,1.7-3.4
			c1.5-2.2,3.7-2.5,3.7-2.5v5.9L187.8,110.3z M219.3,125.4c0,8.5-7.1,10.5-7.1,10.5s-1,0.3-4.6,0.5c-3.7,0.2-6.1-1.2-6.1-1.2
			l0.2-1.9c0,0,3.9-0.3,7.4-2c3.6-1.9,4.7-3.9,4.7-3.9s1.9-2.4,0.7-3.4c-1.2-0.8-1.7-0.3-1.7-0.3s0.8-0.5-2.9,2.7
			c-3.7,3.2-8.6,2.2-8.6,2.2l-0.3-13.2h10C211,115.4,219.3,117.1,219.3,125.4L219.3,125.4z M200.7,103.2c0,0,4.6-1.5,8.3,1.9
			c3.7,3.4,3.4-0.5,3.4-0.5s-0.2-1.2-2-3.4c-1.9-2.2-3.6-0.3-3.6-0.3l-6.1-0.2v-2.9h10.8c0,0,4.2,0.5,4.2,5.9c0,5.6-4.2,6.6-4.2,6.6
			h-10.8L200.7,103.2z M185.1,100.4c0.8-1.9,2.2-1.9,2.2-1.9s2-0.2,4.6-0.3c2.4-0.2,1.5,2.9,1.5,2.9s-3.7,1-7.1,3.4
			c-3.2,2.4-4.6,6.3-4.6,6.3l-2.4-0.2C179.4,110.5,184.1,102.2,185.1,100.4L185.1,100.4z"/>
		<path class="st0" d="M141.8,177l-6.8,8.8l-29.9-21.5l1.2-1.5c0.5,0.3,1.2,0.7,1.9,1.2c0.8,0.3,1.4,0.7,1.7,0.7
			c0.7,0.2,1.2,0.2,1.7,0c0.3-0.2,0.8-0.5,1.2-1l13.4-20.5c0.3-0.5,0.5-0.8,0.7-1.4c0-0.5-0.2-1-0.7-1.7c-0.3-0.5-0.8-1.2-1.4-1.7
			c-0.7-0.7-1.2-1-1.5-1.4l1-1.7l17.9,12.9l-1.2,1.5c-0.5-0.2-1-0.5-1.9-1c-0.7-0.3-1.2-0.7-1.9-0.8c-0.7-0.3-1.4-0.3-1.7-0.2
			c-0.5,0.3-0.8,0.7-1.2,1.2l-12.5,18.9c-0.7,0.8-1,1.7-1.2,2.2c-0.2,0.7-0.2,1.4,0,1.9c0.2,0.5,0.7,1,1.4,1.7
			c0.7,0.5,1.5,1.2,2.9,2.2c1.2,0.8,2.4,1.7,3.7,2.4c1.2,0.7,2.2,1,3,0.8c1.2,0,2.5-0.5,4.2-1.2c1.7-0.7,3-1.4,4.2-2L141.8,177z"/>
		<path class="st0" d="M178.9,169.2c1,1.9,1.7,3.9,1.9,6.3c0.3,2.2-0.2,4.6-1,7.1c-0.8,2.4-2,4.4-3.6,6.3c-1.5,1.7-3.2,3.2-5.2,4.2
			c-2.2,1.2-4.4,1.9-6.9,2.2c-2.4,0.2-5.1,0-7.9-0.8c-2.4-0.7-4.6-1.7-6.3-3c-1.9-1.2-3.4-2.9-4.4-4.7c-1.2-1.9-1.9-3.9-2-6.1
			c-0.2-2.2,0.2-4.6,1-7.1c1-2.5,2.2-4.7,3.9-6.4c1.7-1.9,3.6-3.4,5.6-4.4c2.2-1,4.4-1.5,6.9-1.9c2.4-0.2,4.7,0.2,7.3,0.8
			c2.4,0.7,4.6,1.7,6.4,3C176.3,166,177.7,167.5,178.9,169.2L178.9,169.2z M164.8,190c1.2-1.2,2.2-2.5,3.2-4.2
			c0.8-1.5,1.7-3.4,2.5-5.6c0.5-1.7,1-3.6,1.5-5.2c0.3-1.9,0.3-3.6,0.2-5.1s-0.7-2.7-1.4-3.9c-0.8-1-2-1.9-3.7-2.4
			c-2.7-0.7-5.2,0-7.6,2.2c-2.4,2-4.4,5.4-5.9,10c-0.7,1.9-1.2,3.9-1.5,5.6c-0.3,1.9-0.3,3.6-0.2,4.9c0.2,1.5,0.7,2.9,1.5,3.9
			c0.7,1,1.9,1.7,3.4,2c1.5,0.5,3,0.5,4.4,0C162.6,191.9,163.8,191,164.8,190"/>
		<path class="st0" d="M213,173.9h-1.7c-0.3-1.5-1.2-3-2.2-4.6c-1-1.7-1.9-2.5-2.7-2.5c-0.5-0.2-1-0.2-1.7-0.2h-1.9h-1l0.5,26.2
			c0,0.5,0,1,0.2,1.4c0.3,0.5,0.7,0.8,1.2,1c0.3,0.2,0.8,0.3,1.5,0.5c0.7,0,1.4,0.2,1.9,0.2v1.9l-17.1,0.3v-1.9c0.3,0,1-0.2,1.7-0.2
			c0.8-0.2,1.4-0.2,1.5-0.3c0.5-0.3,1-0.7,1.2-1c0.2-0.5,0.2-1,0.2-1.5l-0.3-26.4h-1h-1.9c-0.7,0.2-1.2,0.2-1.7,0.2
			c-0.8,0.2-1.7,1.2-2.7,2.7c-0.8,1.7-1.5,3.2-2,4.7h-1.7l-0.2-9.6l29.8-0.5L213,173.9z"/>
		<path class="st0" d="M253.1,155c-0.5,0.2-1.2,0.5-1.9,1c-0.8,0.3-1.5,0.8-2,1.4c-0.5,0.5-0.7,1.4-0.7,2.4s0.2,2.5,0.7,4.4
			l3.2,11.7c0.8,3.6,0.3,6.6-1.5,9.3c-2,2.9-4.9,4.9-9,6.1c-4.7,1.4-8.8,1.4-11.8,0c-3.2-1.2-5.2-3.7-6.1-7.3l-4.2-16.1
			c-0.2-0.7-0.5-1-0.7-1.4c-0.3-0.3-0.8-0.5-1.5-0.7h-1.7c-0.5,0-1,0.2-1.5,0.2l-0.3-1.7l17.4-4.9l0.3,1.7c-0.3,0.2-0.8,0.3-1.4,0.5
			c-0.5,0.3-1,0.5-1.5,0.8c-0.5,0.3-0.8,0.8-1,1.2c0,0.5,0,1,0.2,1.5l4.1,15.9c0.8,3,2.2,5.2,4.1,6.1c1.9,1,4.1,1.2,6.9,0.3
			c2.7-0.7,4.6-2,5.8-4.1c1.2-2,1.4-4.6,0.5-7.6l-2.9-10.7c-0.5-1.9-1-3.2-1.5-4.1s-1-1.5-1.7-1.7c-0.5-0.3-1.4-0.3-2.4-0.3
			c-1.2,0-1.9,0-2.4,0.2l-0.3-1.7l14.4-4.2L253.1,155z"/>
		<path class="st0" d="M280,173.9c-2,1.2-4.1,2-6.1,2.5c-2,0.7-3.7,1-5.2,1.2l-0.8,2.2l-2,1.2l-5.8-10l2-1.2c1,0.8,2.2,1.5,3.4,2
			c1.4,0.7,2.5,1.2,4.1,1.5c1.4,0.3,2.9,0.5,4.2,0.3c1.5-0.2,3-0.7,4.6-1.5c2.2-1.4,3.6-2.7,4.2-4.2c0.7-1.5,0.7-2.9,0-4.2
			c-0.5-1-1.5-1.7-2.9-1.9c-1.4-0.2-3.2,0-5.6,0.5c-1.5,0.5-2.9,0.8-4.1,1.2c-1.4,0.3-2.5,0.7-3.7,0.8c-2.5,0.5-4.7,0.5-6.6-0.3
			c-1.9-0.7-3.2-2-4.2-3.7c-0.5-1.2-0.8-2.4-0.8-3.7c0.2-1.2,0.5-2.5,1.2-4.1c0.5-1.4,1.5-2.7,2.9-4.1c1.4-1.5,3-2.7,4.9-3.7
			c1.9-1.2,3.7-1.9,5.6-2.4s3.4-0.8,4.6-0.8l0.7-2l2.2-1.2l5.2,9.3l-2,1.2c-1-0.7-2.2-1.4-3.4-2.2c-1.2-0.7-2.4-1.2-3.4-1.5
			c-1.2-0.3-2.4-0.3-3.7-0.2c-1.2,0-2.5,0.5-3.9,1.4c-1.7,0.8-2.9,2-3.6,3.6c-0.5,1.4-0.5,2.7,0,3.9c0.7,1,1.5,1.7,2.9,1.9
			c1.4,0.2,3,0,5.4-0.5c1.4-0.3,2.7-0.7,4.1-1.2c1.4-0.3,2.5-0.7,3.7-0.8c2.7-0.5,4.9-0.5,6.8,0c1.9,0.7,3.4,2,4.4,3.9
			c0.7,1.2,0.8,2.5,0.8,4.1c-0.2,1.5-0.5,3-1.2,4.4c-0.8,1.5-2,3-3.4,4.4S282.2,172.6,280,173.9"/>
	</g>
</g>
</svg>
