<svg xmlns="http://www.w3.org/2000/svg" xml:space="preserve" id="katman_1" x="0" y="0" viewBox="0 0 560 400"><style>.st0{fill:#d3d2d2}</style><path d="M279.956 50.09c82.606 0 149.955 67.349 149.955 149.955 0 82.487-67.349 149.836-149.955 149.836s-149.955-67.349-149.955-149.836c0-82.606 67.349-149.955 149.955-149.955m0 7.629c78.434 0 142.326 63.892 142.326 142.326 0 78.196-63.892 142.087-142.326 142.087-78.196 0-142.087-63.891-142.087-142.087 0-78.315 63.891-142.326 142.087-142.326" class="st0"/><path d="M199.8 30c66.3 0 120.3 54 120.3 120.3 0 66.1-54 120.3-120.3 120.3-66.1 0-120.3-54.1-120.3-120.3C79.6 83.9 133.7 30 199.8 30" style="fill:#f1bd18" transform="translate(41.792 21.005)scale(1.19201)"/><path d="M237.878 104.684s16.57-19.906 40.528-20.622c23.96-.596 38.264 14.304 38.264 14.304l83.44 91.308s14.305 17.165 8.106 35.522-39.574 59.482-126.353 61.031c-86.897 1.788-123.373-45.177-123.373-45.177s-17.165-27.774.596-48.634c17.642-20.383 78.792-87.732 78.792-87.732m4.053 7.51s14.543-19.55 36.714-19.907c22.171-.596 34.687 13.708 34.687 13.708l76.17 85.229s15.496 14.662 9.655 31.47c-5.602 16.926-37.548 53.044-117.294 54.593-79.984 1.669-113.717-40.528-113.717-40.528s-16.331-21.814 0-40.767c16.33-18.834 73.785-83.798 73.785-83.798" class="st0"/><path d="M167.5 76s12.3-16.6 31.1-16.9c18.8-.5 29.4 11.5 29.4 11.5l64.4 72.2s13.2 12.5 8.3 26.7-31.8 44.8-99.5 46.2c-67.8 1.4-96.2-34.2-96.2-34.2s-13.9-18.4 0-34.5c13.8-16 62.5-71 62.5-71" style="fill:#1c5637" transform="translate(41.792 21.005)scale(1.19201)"/><path d="M239.666 178.35c.12-.238.239-.238 0 0" class="st0"/><path d="M320.961 183.595c-2.384-1.43-3.576.954-3.576.954l-3.218 2.86s-12.278 8.702-29.085 9.298c-16.688.835-21.576-5.245-28.608-11.681-7.033-6.437-8.821-20.98-8.821-20.98l3.814-5.84 6.08.238s-.954 9.297 3.575 14.9c4.65 5.84 11.324 6.675 11.324 6.675v1.669c0 1.43-1.192 2.026-4.29 2.98-2.862 1.192-.24 3.218-.24 3.218l30.635-.238s14.066-3.457 14.066-16.688c0-13.112-11.92-15.496-11.92-15.496s7.629-.596 7.629-11.92-11.086-10.848-11.086-10.848l-40.886.358v2.622s.239.358.835 2.027c.596 1.788-.596 2.622-.596 2.622l-9.417 13.47s-.835-14.662 9.655-25.748c10.728-11.324 25.032-9.059 25.032-9.059h6.437s13.35 2.861 21.576 7.51c8.105 4.649 6.198-.954 6.198-.954s-4.053-6.198-5.84-10.132c-2.027-3.814-2.98-1.788-5.603.239-2.623 2.026-6.199 0-6.199 0s-19.787-6.676-39.694 1.668c-19.787 8.464-23.363 34.092-23.84 38.86-.357 4.887 1.669 16.33 1.669 16.33s-3.457 5.245-5.603 8.702c-2.264 3.576-9.059 3.815-9.059 3.815s-2.026-.239-2.026 2.026c0 2.384 1.192 1.788 1.192 1.788l18.953-.238s1.43-2.265-1.43-3.815c-2.265-1.073.476-5.245 1.191-6.198v-.12c.239-.238.12-.238 0 .12-.834 1.907 17.165 28.37 42.794 26.7 25.985-1.668 36.117-15.376 36.117-15.376s4.65-5.126 2.265-6.318m-48.634-11.324s-3.814-.834-5.483-4.291c-1.669-3.219-1.43-9.655-1.43-9.655h6.913zm-6.675-19.787s0-1.43 2.026-4.053c1.788-2.623 4.41-2.98 4.41-2.98v7.033zm37.548 18c0 10.131-8.463 12.515-8.463 12.515s-1.192.358-5.483.596c-4.41.239-7.271-1.43-7.271-1.43l.238-2.265s4.649-.358 8.82-2.384c4.292-2.265 5.603-4.649 5.603-4.649s2.265-2.86.835-4.053c-1.43-.953-2.027-.357-2.027-.357s.954-.596-3.457 3.218-10.25 2.622-10.25 2.622l-.358-15.734h11.92s9.893 2.026 9.893 11.92m-22.17-26.463s5.483-1.788 9.894 2.265c4.41 4.053 4.052-.596 4.052-.596s-.238-1.43-2.384-4.053c-2.264-2.622-4.29-.357-4.29-.357l-7.272-.239v-3.456h12.874s5.006.596 5.006 7.032c0 6.676-5.006 7.868-5.006 7.868H281.03zm-18.595-3.337c.953-2.265 2.622-2.265 2.622-2.265s2.384-.238 5.483-.358c2.861-.238 1.788 3.457 1.788 3.457s-4.41 1.192-8.463 4.053c-3.814 2.86-5.483 7.51-5.483 7.51l-2.861-.239c.12-.119 5.722-10.013 6.914-12.158M210.82 231.99l-8.106 10.49-35.641-25.628 1.43-1.788c.596.358 1.43.835 2.265 1.43.954.358 1.669.835 2.026.835.835.238 1.43.238 2.027 0 .357-.238.953-.596 1.43-1.192l15.973-24.436c.358-.596.596-.954.835-1.669 0-.596-.239-1.192-.835-2.026-.357-.596-.953-1.43-1.669-2.027-.834-.834-1.43-1.192-1.788-1.669l1.192-2.026 21.337 15.377-1.43 1.788c-.596-.239-1.192-.596-2.265-1.192-.834-.358-1.43-.835-2.265-.954-.834-.357-1.669-.357-2.026-.238-.596.357-.954.834-1.43 1.43l-14.9 22.53c-.835.953-1.193 2.026-1.431 2.622-.238.834-.238 1.669 0 2.265s.834 1.192 1.669 2.026c.834.596 1.788 1.43 3.457 2.622 1.43.954 2.86 2.027 4.41 2.861 1.43.835 2.622 1.192 3.576.954 1.43 0 2.98-.596 5.006-1.43 2.027-.835 3.576-1.67 5.007-2.385zm44.223-9.297c1.192 2.265 2.027 4.649 2.265 7.51.358 2.622-.238 5.483-1.192 8.463-.954 2.86-2.384 5.245-4.291 7.51-1.788 2.026-3.815 3.814-6.199 5.006-2.622 1.43-5.245 2.265-8.225 2.623-2.86.238-6.079 0-9.417-.954-2.86-.834-5.483-2.026-7.51-3.576-2.264-1.43-4.052-3.457-5.244-5.603-1.43-2.264-2.265-4.648-2.384-7.27-.238-2.623.238-5.484 1.192-8.464 1.192-2.98 2.622-5.603 4.649-7.629 2.026-2.265 4.291-4.053 6.675-5.245 2.622-1.192 5.245-1.788 8.225-2.265 2.86-.238 5.602.239 8.702.954 2.86.834 5.483 2.026 7.628 3.576 2.027 1.55 3.696 3.338 5.126 5.364m-16.807 24.794c1.43-1.43 2.622-2.98 3.814-5.007a52 52 0 0 0 2.98-6.675c.596-2.026 1.192-4.291 1.788-6.198.358-2.265.358-4.291.239-6.08s-.835-3.218-1.67-4.648c-.953-1.192-2.383-2.265-4.41-2.861-3.218-.835-6.198 0-9.059 2.622-2.86 2.384-5.245 6.437-7.033 11.92a40 40 0 0 0-1.788 6.676 25.3 25.3 0 0 0-.238 5.84c.238 1.788.834 3.457 1.788 4.65.834 1.191 2.265 2.026 4.053 2.383 1.788.596 3.576.596 5.245 0 1.668-.357 3.099-1.43 4.29-2.622m57.455-19.191h-2.026c-.357-1.788-1.43-3.576-2.622-5.484-1.192-2.026-2.265-2.98-3.219-2.98-.596-.238-1.192-.238-2.026-.238h-3.457l.596 31.23c0 .597 0 1.193.239 1.67.357.595.834.953 1.43 1.191.358.239.954.358 1.788.596.834 0 1.669.239 2.265.239v2.265l-20.384.357v-2.265c.358 0 1.192-.238 2.027-.238.953-.238 1.669-.238 1.788-.358.596-.357 1.192-.834 1.43-1.192.239-.596.239-1.192.239-1.788l-.358-31.469h-3.457c-.834.239-1.43.239-2.026.239-.954.238-2.027 1.43-3.219 3.218-.953 2.027-1.788 3.815-2.384 5.603h-2.026l-.238-11.444 35.521-.596zm47.8-22.529c-.596.238-1.43.596-2.265 1.192a5.76 5.76 0 0 0-2.384 1.668c-.596.596-.834 1.67-.834 2.861s.238 2.98.834 5.245l3.815 13.947c.953 4.29.357 7.867-1.788 11.085-2.384 3.457-5.841 5.841-10.728 7.272-5.603 1.668-10.49 1.668-14.066 0-3.814-1.43-6.198-4.41-7.271-8.702l-5.007-19.192c-.238-.834-.596-1.192-.834-1.668-.358-.358-.954-.596-1.788-.835h-2.027c-.596 0-1.192.239-1.788.239l-.357-2.027 20.74-5.84.358 2.026c-.357.238-.953.357-1.668.596-.596.357-1.192.596-1.788.953-.596.358-.954.954-1.192 1.43 0 .597 0 1.193.238 1.789l4.887 18.953c.954 3.576 2.623 6.198 4.887 7.271 2.265 1.192 4.888 1.43 8.225.358 3.219-.835 5.484-2.384 6.914-4.888 1.43-2.384 1.669-5.483.596-9.059l-3.457-12.754c-.596-2.265-1.192-3.815-1.788-4.888s-1.192-1.788-2.026-2.026c-.596-.358-1.67-.358-2.861-.358-1.43 0-2.265 0-2.86.239l-.359-2.027 17.165-5.006zm32.065 22.529c-2.384 1.43-4.887 2.384-7.271 2.98-2.384.834-4.41 1.192-6.198 1.43l-.954 2.622-2.384 1.43-6.914-11.92 2.384-1.43a17.3 17.3 0 0 0 4.053 2.384c1.669.835 2.98 1.43 4.887 1.788 1.67.358 3.457.596 5.007.358 1.788-.238 3.576-.834 5.483-1.788 2.623-1.669 4.291-3.219 5.007-5.007q1.251-2.682 0-5.006c-.596-1.192-1.788-2.026-3.457-2.265-1.67-.238-3.815 0-6.676.596-1.788.596-3.456.954-4.887 1.43-1.669.358-2.98.835-4.41.954-2.98.596-5.603.596-7.868-.357-2.264-.835-3.814-2.384-5.006-4.41-.596-1.431-.954-2.862-.954-4.411.239-1.43.596-2.98 1.43-4.887.597-1.67 1.789-3.219 3.458-4.888 1.669-1.788 3.576-3.218 5.84-4.41 2.265-1.43 4.411-2.265 6.676-2.861s4.053-.954 5.483-.954l.834-2.384 2.623-1.43 6.198 11.086-2.384 1.43c-1.192-.834-2.622-1.669-4.053-2.622a19.2 19.2 0 0 0-4.052-1.788c-1.43-.358-2.861-.358-4.41-.239-1.431 0-2.98.596-4.65 1.67q-3.039 1.43-4.29 4.29-.895 2.504 0 4.65c.834 1.191 1.787 2.026 3.456 2.264s3.576 0 6.437-.596c1.669-.358 3.218-.834 4.887-1.43 1.669-.358 2.98-.835 4.41-.954 3.219-.596 5.841-.596 8.106 0 2.265.834 4.053 2.384 5.245 4.649.834 1.43.954 2.98.954 4.887-.239 1.788-.596 3.576-1.43 5.245-.954 1.788-2.385 3.576-4.054 5.245s-3.933 3.099-6.556 4.649" class="st0"/></svg>