<?xml version="1.0" encoding="UTF-8"?>
<svg xmlns="http://www.w3.org/2000/svg" version="1.1" viewBox="0 0 512 512">
  <defs>
    <style>
      .cls-1 {
        fill-rule: evenodd;
      }
    </style>
  </defs>
  <!-- Generator: Adobe Illustrator 28.6.0, SVG Export Plug-In . SVG Version: 1.2.0 Build 709)  -->
  <g>
    <g id="_Ñëîé_1" data-name="Ñëîé_1">
      <g id="Layer_x5F_1">
        <path class="cls-1" d="M485.39,329.06h-10.96c.25-.56.5-1.06.76-1.57,1.82-3.58,3.69-4.75,7.72-4.75h5.6c-1.01,2.07-2.07,4.19-3.13,6.31Z"/>
        <path class="cls-1" d="M473.58,353.44c3.33-6.77,6.71-13.53,10.05-20.3h-10.96c-2.88,5.86-5.81,11.66-8.68,17.52-1.01,1.97-2.32,2.78-4.64,2.78h-26.66c3.64-7.22,7.22-14.44,10.8-21.71,1.51-3.03,2.07-3.23,5.65-3.23h3.18c3.08,0,4.54-.86,5.81-3.33.5-1.01.96-2.02,1.46-2.98h-11.36c1.62-3.28,3.28-6.56,4.9-9.85h-7.17c-3.13,0-4.59.81-5.81,3.28-1.06,2.17-2.17,4.39-3.23,6.56h-6.01c-1.01,2.12-2.07,4.19-3.13,6.31h6.01c-1.26,2.47-9.85,19.69-11.06,22.16-.96,1.97-2.32,2.78-4.59,2.78h-23.68c4.19-7.67,8.38-15.35,12.57-23.02h-8.68c-2.02,0-2.88.66-4.19,2.22,0-1.67-.61-2.22-2.17-2.22h-6.01c-9.9,0-15.45,3.08-19.74,10.91-1.72,3.13-3.43,6.26-5.1,9.39-1.11,1.97-2.42,2.73-4.64,2.73-5.05,0-10.15,0-15.25.05-5.5,0-7.67-.81-8.28-3.74-.66-3.08.71-5.65,8.13-10.55,1.41-.91,2.78-1.82,4.19-2.78,1.92-1.26,2.73-1.97,2.47-3.33-.25-1.26-1.01-2.68-7.02-2.68-9.59.05-19.13.05-28.73.05-3.03,0-4.44.76-5.81,3.28-3.08,5.65-6.21,11.31-9.29,16.96-1.06,1.97-2.37,2.78-4.59,2.78h-46.05c.66-1.92,1.31-3.89,1.97-5.81h22.97c4.54,0,6.41-1.16,8.08-5,.71-1.72,1.46-3.48,2.17-5.2.56-1.26,1.01-3.13.1-4.54-1.11-1.62-3.89-2.47-8.03-2.47h-22.11c-7.07,0-10.25,1.97-12.72,7.78-1.57,3.58-3.08,7.22-4.59,10.8-1.57,3.69-4.04,4.44-7.57,4.44h-15.8c.35-.5.71-1.01,1.01-1.51,3.13-4.7,2.52-9.9-1.62-14.34-4.14-4.34-9.54-5.86-14.39-7.17-4.09,0-8.18,0-12.27-.05-2.83,5.15-5.6,10.3-8.43,15.45-3.53,6.46-7.37,7.57-14.14,7.57h-14.84c4.19-7.67,8.38-15.35,12.57-23.02h-8.68c-2.07,0-2.93.66-4.19,2.22,0-1.67-.61-2.22-2.22-2.22h-5.96c-9.9,0-15.45,3.08-19.74,10.91-1.72,3.13-3.43,6.26-5.1,9.39-1.11,1.97-2.37,2.73-4.64,2.73h-22.62c6.41-11.71,12.77-23.43,19.19-35.14,1.11-2.02-.35-4.54-2.68-4.54H12.02c-6.11,0-9.14,1.57-12.02,6.46h38.88c-7.22,13.23-14.44,26.46-21.66,39.63h11.21c7.22-13.18,14.44-26.41,21.66-39.58h15.55c-7.22,13.18-14.44,26.41-21.66,39.58h11.21c7.22-13.18,14.44-26.41,21.66-39.58h15.55c-5.96,10.91-11.92,21.81-17.87,32.72-.81,1.46-1.62,3.53-.76,5,.76,1.21,2.57,1.87,5.3,1.87h29.49c1.46,0,2.07-.45,2.98-1.51,0,1.16.96,1.51,2.12,1.51h50.74c10.05,0,15.4-2.93,19.74-10.85,2.22-4.04,4.44-8.13,6.66-12.22.1.05.61.15.71.15,7.98,1.51,12.02,4.49,12.37,9.04.15,1.87-.45,3.58-1.67,4.95-1.51,1.62-3.79,2.52-6.31,2.57-5.1,0-7.17,1.97-9.14,6.36h42.97c1.41,0,2.07-.45,2.93-1.51.05,1.16,1.01,1.51,2.17,1.51h63.51c4.29,0,6.16-1.11,8.28-5.05,2.47-4.49,4.95-9.04,7.42-13.58,1.72-3.08,3.84-4.29,7.52-4.29h11.21c-1.92,1.31-3.99,2.98-5.6,4.59-2.12,2.22-4.19,5.2-4.54,9.09-.3,2.73.4,5.05,1.92,6.77,1.46,1.62,3.69,2.47,6.31,2.47h26.15c1.41,0,2.07-.45,2.93-1.51,0,1.16,1.01,1.51,2.17,1.51h54.93c1.46,0,2.07-.45,2.98-1.51,0,1.16.96,1.51,2.12,1.51h81.29c4.9,0,7.37-1.57,8.28-5.3.1-.4.2-.76.3-1.16-12.82,0-25.65,0-38.42.05ZM250.93,339.81c1.11-3.18,3.69-3.48,6.01-3.48h12.52c-.3.86-.56,1.72-.86,2.57-1.01,2.98-3.33,3.23-5.4,3.23h-13.08c.3-.76.56-1.57.81-2.32ZM137.08,349.1c-1.77,3.18-3.79,4.34-7.52,4.34h-6.21c2.22-4.09,4.49-8.13,6.71-12.22,1.72-3.13,3.79-4.34,7.47-4.34h6.21c-2.22,4.09-4.44,8.18-6.66,12.22ZM385.43,349.1c-1.72,3.18-3.74,4.34-7.47,4.34h-6.21c2.22-4.09,4.49-8.13,6.71-12.22,1.67-3.13,3.79-4.34,7.47-4.34h6.21c-2.22,4.09-4.44,8.18-6.71,12.22Z"/>
        <path class="cls-1" d="M245.88,289.17v-5.6h28.83v5.6h-28.83Z"/>
        <path class="cls-1" d="M260.32,300.83h9.09v-8.73h-18.18v8.73h9.09ZM260.32,300.83h0Z"/>
        <path class="cls-1" d="M251.23,280.64c-.05-4.8-1.26-9.54-5.15-12.72h28.48c-3.89,3.18-5.15,7.93-5.15,12.72h-18.18Z"/>
        <path class="cls-1" d="M227.15,258.63v-4.14h66.29v4.14h-66.29Z"/>
        <path class="cls-1" d="M230.12,273.62c3.89-.86,8.03-3.03,10.8-5.71h-11.51c.25,1.87.45,3.79.71,5.71Z"/>
        <path class="cls-1" d="M290.51,273.62c-3.89-.86-8.08-3.03-10.85-5.71h11.56c-.25,1.87-.5,3.79-.71,5.71Z"/>
        <path class="cls-1" d="M226.04,245.35c-3.64-21.51-10.65-43.92-18.38-58.67,8.33,4.49,17.22,11.66,26.76,21.41-3.99-1.06-7.93-1.87-11.86-2.47,5.5,13.03,10.05,26.3,14.19,39.73h-10.7Z"/>
        <path class="cls-1" d="M294.6,245.35c3.58-21.51,10.6-43.92,18.33-58.67-8.28,4.49-17.17,11.66-26.71,21.41,3.94-1.06,7.93-1.87,11.86-2.47-5.5,13.03-10.05,26.3-14.19,39.73h10.7Z"/>
        <path class="cls-1" d="M223.66,252.31v-4.19h73.31v4.19h-73.31Z"/>
        <path class="cls-1" d="M247.95,184.41c5.65-9.74,10.5-20.8,12.37-32.26,1.82,11.46,6.66,22.52,12.37,32.26-2.02-.91-4.19-1.87-6.56-2.88-2.02-.96-2.88-.4-2.83,1.72.71,20.7,3.74,44.23,14.54,62.1h-12.72c-2.02-4.75-3.58-9.44-4.8-14.09-1.21,4.64-2.83,9.34-4.8,14.09h-12.72c10.8-17.87,13.83-41.4,14.54-62.1.05-2.12-.81-2.68-2.88-1.72-2.37,1.01-4.49,1.97-6.51,2.88Z"/>
        <path class="cls-1" d="M223.66,264.99v-4.19h73.31v4.19h-73.31Z"/>
      </g>
    </g>
  </g>
</svg>