<svg width="48" height="48" viewBox="0 0 48 48" fill="none" xmlns="http://www.w3.org/2000/svg">
<g clip-path="url(#clip0_153_3959)">
<g clip-path="url(#clip1_153_3959)">
<path fill-rule="evenodd" clip-rule="evenodd" d="M24 9C35.04 9 42 14.426 42 24C42 33.574 35.795 39 24 39C12.205 39 6 33.585 6 24C6 14.415 12.96 9 24 9ZM24 6C37.638 6 46 12.375 46 24C46 35.625 38.571 42 24 42C9.429 42 2 35.639 2 24C2 12.361 10.362 6 24 6Z" fill="black"/>
<path fill-rule="evenodd" clip-rule="evenodd" d="M23.9999 32C20.7739 25.117 17.6749 24.54 6.99992 21C6.11692 20.699 5.50192 20.16 4.94092 19.765L7.05892 14.471C7.64292 14.711 8.11192 15.479 8.99992 16C9.84592 16.516 12.4639 17.462 13.9999 18C19.1129 19.791 22.1909 22.195 23.9999 26V32ZM23.9999 32C27.2259 25.117 30.3249 24.54 40.9999 21C41.7259 20.738 42.3879 20.472 43.0589 19.765L40.9409 14.471C40.4249 15.083 39.8199 15.546 38.9999 16C38.1539 16.516 35.5359 17.462 33.9999 18C28.8869 19.791 25.8089 22.195 23.9999 26V32Z" fill="black"/>
<path fill-rule="evenodd" clip-rule="evenodd" d="M7.95302 32L5.00002 30C5.00002 30 2.39402 20.632 6.00002 17C12.011 18.998 24.273 24.086 24 32C21.648 26.535 17.928 25.049 17.928 25.049C13.921 23.083 10.529 22.157 6.99902 20.998L6.30902 20.702C6.18202 21.352 5.13002 27.295 7.95302 32Z" fill="black"/>
<path fill-rule="evenodd" clip-rule="evenodd" d="M40.051 32L43.004 30C43.004 30 45.611 20.632 42.004 17C35.994 18.998 23.731 24.086 24.005 32C26.357 26.535 30.077 25.049 30.077 25.049C34.084 23.083 37.476 22.157 41.006 20.998L41.696 20.702C41.823 21.352 42.874 27.295 40.051 32Z" fill="black"/>
<path fill-rule="evenodd" clip-rule="evenodd" d="M8.398 15.57C8.398 15.57 7.907 15.235 8 14C8.093 12.765 12.044 8 24 8C35.956 8 39.982 14 39.982 14C40.038 14.677 39.91 15.206 39.641 15.618C39.393 15.446 36.106 8.982 24 9C11.878 9.036 8.668 15.393 8.398 15.57Z" fill="black"/>
<path fill-rule="evenodd" clip-rule="evenodd" d="M2.78393 30.013C2.59593 29.412 2.46093 28.719 2.32593 28L4.99593 30.013C7.12893 36.527 13.0529 41.025 23.9959 41.013C34.8519 41 40.8399 36.5 42.9999 30L45.6739 28.001C45.5369 28.726 45.3809 29.413 45.1819 30.012H45.2079C42.9449 37.811 35.8229 42.012 23.9959 42.012C12.1659 42.012 5.04293 37.819 2.78293 30.012L2.78393 30.013Z" fill="black"/>
</g>
</g>
<defs>
<clipPath id="clip0_153_3959">
<rect width="48" height="48" fill="white"/>
</clipPath>
<clipPath id="clip1_153_3959">
<rect width="48" height="48" fill="white"/>
</clipPath>
</defs>
</svg>
