<svg xmlns="http://www.w3.org/2000/svg" xml:space="preserve" id="Layer_1" x="0" y="0" viewBox="0 0 512 512"><style>.st0{fill:#fff}</style><path d="M350.57 202.28c-19.47-33.24-55.51-53.89-94.31-53.89-38.79 0-74.84 20.65-94.29 53.89H0l1.42 1.99c.5.7 51.16 71.12 130.92 122.85l.32.2h42.19c20.75 23.08 50.37 36.3 81.44 36.3s60.71-13.24 81.44-36.3h41.62l.32-.2c79.76-51.73 130.4-122.15 130.9-122.85l1.42-1.99z"/><path d="M494.04 221.11h-136.1c2.12 6.02 3.69 12.27 4.69 18.73h3.59c-.93-4.81-2.17-9.55-3.76-14.18 0 0 114.98-2.71 131.35-4.22a558 558 0 0 1-31.28 34.28H364l.01.28c0 6.31-.66 12.44-1.73 18.45h5.13c.63-4.56 1.09-9.17 1.09-13.9l-.01-.28s79.35-2.57 93.62-4.15a548 548 0 0 1-37.83 34.77h-66.35c-2.29 6.51-5.22 12.78-8.74 18.73h6.9c2.4-4.57 4.6-9.24 6.34-14.18 0 0 49.05-2.38 61.17-4a479 479 0 0 1-45.06 33.37H336.6l-.38.42c-39.3 44.17-106.97 48.11-151.15 8.81-3.1-2.76-6.05-5.7-8.81-8.81l-.38-.42H133.4a475 475 0 0 1-45.07-33.39c12.61 1.59 66.06 4.01 66.06 4.01 2.34 4.99 5.71 9.68 8.73 14.18h.24c-3.52-5.93-6.45-12.2-8.74-18.73h-66.9c-13.14-11-25.77-22.61-37.83-34.77 14.59 1.6 97.28 4.35 97.28 4.43 0 4.46 1.67 8.84 3.02 13.13-1.04-5.84-1.59-11.75-1.61-17.67l.01-.28H49.5a562 562 0 0 1-31.49-34.54l133.58 4.47c-.73 4.49-1.12 9.3-1.68 14.18h.04c1-6.44 2.55-12.71 4.67-18.73H17.94c-4.47-5.32-8.81-10.76-12.99-16.33h158.43l.36-.63c18.92-32.85 54.38-53.26 92.52-53.26s73.6 20.41 92.54 53.26l.36.63h157.86a334 334 0 0 1-12.98 16.34" class="st0"/><path d="M256.28 163.25c-51.87 0-93.93 41.52-93.93 92.75 0 51.21 42.05 92.75 93.93 92.75s93.94-41.54 93.94-92.75c0-51.23-42.07-92.75-93.94-92.75"/><path d="M256.28 343.07c-48.7 0-88.19-38.98-88.19-87.08s39.49-87.08 88.19-87.08 88.18 38.98 88.18 87.08-39.48 87.08-88.18 87.08" class="st0"/><ellipse cx="256.28" cy="256" rx="83.03" ry="81.98"/><path d="M316.32 233.61h11.11v46.18h-11.11zm-71.39 0h11.11v46.18h-11.11zm51.71 0v28.01l-20.31-28.01h-10.46v46.18h10.46v-28.01l20.31 28.01h10.48v-46.18zm-75.37 0-12.19 28.81-12.19-28.81h-12.68v46.18h10.48v-26.16l10.84 26.06.04.08h6.61l.04-.08 11.9-28.59v28.67h10.46V233.6h-13.31z" class="st0"/></svg>