<?xml version="1.0" encoding="utf-8"?>
<!-- Generator: Adobe Illustrator 26.5.0, SVG Export Plug-In . SVG Version: 6.00 Build 0)  -->
<svg version="1.1" id="Layer_1" xmlns="http://www.w3.org/2000/svg" xmlns:xlink="http://www.w3.org/1999/xlink" x="0px" y="0px"
	 viewBox="0 0 512 512" style="enable-background:new 0 0 512 512;" xml:space="preserve">
<style type="text/css">
	.st0{fill:#FFFFFF;}
</style>
<g>
	<path d="M350.57,202.28c-19.47-33.24-55.51-53.89-94.31-53.89c-38.79,0-74.84,20.65-94.29,53.89H0l1.42,1.99
		c0.5,0.7,51.16,71.12,130.92,122.85l0.32,0.2h42.19c20.75,23.08,50.37,36.3,81.44,36.3s60.71-13.24,81.44-36.3h41.62l0.32-0.2
		c79.76-51.73,130.4-122.15,130.9-122.85l1.42-1.99L350.57,202.28L350.57,202.28z"/>
	<path class="st0" d="M494.04,221.11H357.94c2.12,6.02,3.69,12.27,4.69,18.73h3.59c-0.93-4.81-2.17-9.55-3.76-14.18
		c0,0,114.98-2.71,131.35-4.22c-9.95,11.85-20.38,23.3-31.28,34.28H364l0.01,0.28c0,6.31-0.66,12.44-1.73,18.45h5.13
		c0.63-4.56,1.09-9.17,1.09-13.9l-0.01-0.28c0,0,79.35-2.57,93.62-4.15c-12.06,12.18-24.69,23.78-37.83,34.77h-66.35
		c-2.29,6.51-5.22,12.78-8.74,18.73h6.9c2.4-4.57,4.6-9.24,6.34-14.18c0,0,49.05-2.38,61.17-4c-14.35,11.99-29.39,23.13-45.06,33.37
		H336.6l-0.38,0.42c-39.3,44.17-106.97,48.11-151.15,8.81c-3.1-2.76-6.05-5.7-8.81-8.81l-0.38-0.42H133.4
		c-15.67-10.24-30.72-21.38-45.07-33.39c12.61,1.59,66.06,4.01,66.06,4.01c2.34,4.99,5.71,9.68,8.73,14.18h0.24
		c-3.52-5.93-6.45-12.2-8.74-18.73h-66.9c-13.14-11-25.77-22.61-37.83-34.77c14.59,1.6,97.28,4.35,97.28,4.43
		c0,4.46,1.67,8.84,3.02,13.13c-1.04-5.84-1.59-11.75-1.61-17.67l0.01-0.28H49.5c-10.97-11.07-21.48-22.6-31.49-34.54l133.58,4.47
		c-0.73,4.49-1.12,9.3-1.68,14.18h0.04c1-6.44,2.55-12.71,4.67-18.73H17.94c-4.47-5.32-8.81-10.76-12.99-16.33h158.43l0.36-0.63
		c18.92-32.85,54.38-53.26,92.52-53.26s73.6,20.41,92.54,53.26l0.36,0.63h157.86C502.87,210.35,498.53,215.8,494.04,221.11z"/>
	<path d="M256.28,163.25c-51.87,0-93.93,41.52-93.93,92.75c0,51.21,42.05,92.75,93.93,92.75s93.94-41.54,93.94-92.75
		C350.22,204.77,308.15,163.25,256.28,163.25z"/>
	<path class="st0" d="M256.28,343.07c-48.7,0-88.19-38.98-88.19-87.08s39.49-87.08,88.19-87.08s88.18,38.98,88.18,87.08
		S304.98,343.07,256.28,343.07z"/>
	<ellipse cx="256.28" cy="256" rx="83.03" ry="81.98"/>
	<path class="st0" d="M316.32,233.61h11.11v46.18h-11.11V233.61z M244.93,233.61h11.11v46.18h-11.11V233.61z M296.64,233.61v28.01
		l-20.31-28.01h-10.46v46.18h10.46v-28.01l20.31,28.01h10.48v-46.18H296.64z M221.27,233.61l-12.19,28.81l-12.19-28.81h-12.68v46.18
		h10.48v-26.16l10.84,26.06l0.04,0.08h6.61l0.04-0.08l11.9-28.59v28.67h10.46V233.6h-13.31V233.61z"/>
</g>
</svg>
