<svg xmlns="http://www.w3.org/2000/svg" xml:space="preserve" viewBox="0 0 512 512"><path d="M231.44 42.44C239.8 28.3 247.48 13.88 256.23 0c21.42 37.73 43.38 75.32 65.08 112.91 1.75 1.89-.13 4.04-.94 5.79-20.34 34.9-40.56 69.93-60.77 105.09-.81 1.89-2.69 3.5-2.69 5.66 1.89 1.08 4.04.67 6.06.67 41.9-.13 83.94 0 125.84 0 22.1 38.4 44.46 76.66 66.29 115.06H322.52c-21.02-36.92-42.58-73.43-63.46-110.48-.94-1.48-1.62-3.23-3.23-4.04-8.35 13.61-15.9 27.62-23.98 41.23-14.01 24.39-28.29 48.64-42.17 73.16H57.1c21.96-38.4 44.19-76.8 66.29-115.06 44.33.13 88.52-.13 132.85.13-21.29-37.32-42.85-74.51-64.4-111.7-.67-1.48-2.43-3.37-1.08-5.12 13.2-23.56 27.21-47.14 40.68-70.86" style="fill:#ea0033"/><path d="M80.14 378.34h12.8c2.96 8.62 6.47 17.11 9.16 25.87 2.96-8.76 6.47-17.25 9.7-25.87h12.26v55.11c-3.1-.27-7.14 1.75-9.43-.67-.13-13.34-.67-26.68.4-39.88-4.85 10.24-8.62 21.02-12.93 31.39-4.04-10.37-8.49-20.61-12.26-31.26-.13 13.61 0 27.22-.13 40.96-3.1-.4-6.87.81-9.43-1.08-.28-18.19-.01-36.38-.14-54.57m69.25 0h32.88v8.22h-11.32c-.13 15.76 0 31.53-.13 47.29h-10.11c-.13-15.63 0-31.39-.13-47.02H149.4c-.01-2.83-.01-5.66-.01-8.49m36.65 7.54c4.99-9.97 20.48-11.86 27.62-3.23 3.23 3.23 3.91 7.95 4.58 12.26h-9.7c-.67-2.16-.67-4.45-2.02-6.2-1.75-1.35-3.77-2.02-5.66-2.96-2.83 1.62-6.87 3.23-6.74 7.28 1.21 4.45 5.93 6.2 9.57 8.35 6.2 3.23 13.34 7.14 15.09 14.42 1.89 7.95-4.04 16.03-11.72 18.05-6.47 1.21-14.01.81-19-4.04-4.18-3.64-4.72-9.43-5.52-14.42h9.7c1.08 3.23 1.35 7.55 5.12 8.89 3.23 1.75 7.01.27 10.37-.54.67-2.96 2.16-6.47-.27-9.16-5.12-5.52-13.34-6.6-18.59-12.13-4.58-4.04-5.26-11.18-2.83-16.57m38.67-7.54h9.84c.13 13.34-.13 26.68.13 40.15.27 6.6 9.57 8.89 13.88 4.58 2.56-2.02 2.29-5.52 2.43-8.49v-36.24h9.84v37.32c0 3.5-.13 7.01-1.89 10.11-6.2 11.86-26.41 11.59-32.34-.4-1.89-3.77-1.89-8.08-1.89-12.13 0-11.59-.14-23.18 0-34.9m45.27 0c7.81.13 15.63-.4 23.44.13 8.35.94 14.28 10.37 11.32 18.32-1.08 3.91-4.85 5.79-8.22 7.41 5.79 2.02 10.64 7.55 10.37 13.88.4 4.72-1.75 9.43-5.39 12.26-3.37 2.69-7.81 2.96-11.99 3.23-6.47.13-13.07 0-19.54.13-.13-18.44.01-36.9.01-55.36m10.24 8.62v38.26c3.77-.13 7.81.4 11.59-.54 5.66-1.48 7.01-10.11 2.29-13.47-2.96-2.43-6.87-2.16-10.37-2.56v-8.08c2.29-.27 4.72-.27 7.01-1.08 3.77-1.08 5.52-6.2 3.23-9.3-2.84-4.98-9.31-2.69-13.75-3.23m32.74-8.62h10.51c-.13 18.46.13 37.05-.13 55.51h-10.37c-.01-18.46-.01-37.05-.01-55.51m21.15 6.2c5.52-7.95 18.05-9.84 25.2-3.23 4.18 3.37 5.39 8.76 5.79 13.74-3.1 0-6.2 0-9.3.13-1.08-3.23-1.75-7.81-5.93-8.22-4.72-1.35-10.37 2.96-7.95 8.08 5.93 7.41 17.25 8.49 22.23 16.98 4.85 7.81-.13 18.73-8.49 21.56-7.14 2.02-16.17 1.62-21.42-4.31-3.64-3.64-4.04-8.89-4.18-13.61h9.3c.94 3.91 2.16 9.16 7.01 9.57 4.99 1.75 11.32-2.56 9.3-8.22-3.77-7.28-13.07-7.95-18.86-13.2-5.66-4.45-6.88-13.35-2.7-19.27m37.32-6.2c3.37 0 6.74 0 10.24-.13v21.83c7.01.13 13.88.13 20.88 0v-21.83h9.57c0 18.46.13 37.05-.13 55.51h-9.43c-.13-8.35.13-16.57-.27-24.93-.81 8.35-.27 16.71-.67 24.93-.13-8.35 0-16.57.27-24.93-6.47.13-12.93-.27-19.4.13-1.21 1.48-.81 3.64-.94 5.39 0 6.47.13 12.93 0 19.27h-10.11c-.01-18.32-.01-36.78-.01-55.24m50.12 0h10.37v55.51h-10.24c-.26-18.46-.13-37.05-.13-55.51m-288.19 0h10.91v55.51c-3.37 0-6.6.13-9.97-.13-1.21-1.48-.81-3.5-.94-5.25.13-16.72 0-33.42 0-50.13M200.32 455c7.14-.94 14.82 2.16 19 8.22 5.25 7.55 5.93 17.25 4.99 26.14-.94 7.14-3.64 14.69-9.7 19-9.16 6.47-23.85 3.77-29.1-6.33-5.52-10.11-5.52-22.5-1.75-33.28 2.55-7.15 9.01-12.94 16.56-13.75m0 9.7c-4.58 1.35-6.87 6.06-7.81 10.51-1.75 7.41-1.48 15.76 2.29 22.5 2.16 4.04 7.14 5.66 11.32 4.58 5.39-2.56 7.95-8.62 8.08-14.28.27-6.6.4-13.88-3.5-19.54-2.3-3.36-6.61-4.98-10.38-3.77m75.99-9.7c6.47-.67 13.34 1.89 17.52 7.14 5.12 6.06 6.47 14.42 6.47 22.1-.27 8.08-2.29 16.84-8.22 22.64-6.06 5.79-15.63 6.47-22.9 2.83-7.14-3.77-10.91-11.86-11.86-19.67-.67-7.81-.54-16.17 3.1-23.44 2.69-6.21 8.88-11.06 15.89-11.6m-.27 9.57c-5.25 1.48-7.68 7.14-8.62 12.13-.81 6.33-.94 13.07 1.62 19 1.48 3.64 4.85 7.01 9.03 7.01 5.12.54 9.03-4.04 10.37-8.49 2.29-7.68 2.16-16.44-1.08-23.85-1.89-4.32-6.87-7.01-11.32-5.8m71.95-.27c4.58-9.97 19.27-12.67 27.08-4.99 3.91 3.23 4.99 8.35 5.39 13.2h-9.7c-.81-2.69-.94-6.33-3.91-7.68-3.23-1.21-7.68-.81-9.57 2.43-1.08 2.29-.94 5.52 1.35 7.14 6.74 5.52 16.3 7.55 21.02 15.49 4.58 7.95-.54 18.59-9.16 21.15-7.41 1.89-16.71 1.35-21.69-5.12-3.1-3.37-3.23-8.22-3.64-12.53 3.23 0 6.6.13 9.84.27.67 2.43.67 5.52 2.69 7.28 4.31 4.18 14.55 1.89 13.34-5.39-2.29-7.14-10.91-8.22-16.3-12.13-6.61-3.63-9.97-12.25-6.74-19.12m-217.33-8.49h12.67c3.23 8.62 6.6 17.25 9.3 26.14 2.96-8.76 6.33-17.52 9.7-26.14h12.26v55.38h-9.7c-.13-13.47.13-26.95-.13-40.42-3.64 10.51-8.22 20.75-12.26 31.26-4.04-10.51-8.49-20.88-12.13-31.53-.13 13.61 0 27.08 0 40.69h-9.7c-.01-18.46-.01-36.92-.01-55.38m93.78 0h32.88v8.49h-11.45v46.89h-10.11V464.3h-11.32z"/><path d="M306.36 511.05c-.13-18.46 0-36.92 0-55.38 8.76.67 18.05-1.48 26.41 1.62 11.32 4.18 13.07 22.77 2.02 28.16-.54.4-1.75 1.08-2.29 1.35 4.58 8.08 9.57 16.03 14.01 24.12-3.91 0-7.95 0-11.86.13-4.99-9.7-10.11-19.54-14.82-29.37 2.96-.67 6.47-.27 9.03-2.29 4.31-3.37 4.31-11.18-.67-13.88-3.64-1.89-7.81-1.35-11.72-1.62-.13 15.63 0 31.39 0 47.02-3.38.14-6.75.14-10.11.14"/></svg>