<svg xmlns="http://www.w3.org/2000/svg" xml:space="preserve" id="Nissan_Logo" x="0" y="0" viewBox="0 0 512 512"><style>.st4{fill:#fff}</style><linearGradient id="SVGID_1_" x1="453.6" x2="453.6" y1="466.248" y2="823.114" gradientTransform="translate(-197.6 -422.99)" gradientUnits="userSpaceOnUse"><stop offset=".194" style="stop-color:#fff"/><stop offset=".208" style="stop-color:#f8f8f8"/><stop offset=".366" style="stop-color:#aeaeae"/><stop offset=".513" style="stop-color:#707070"/><stop offset=".647" style="stop-color:#404040"/><stop offset=".764" style="stop-color:#1d1d1d"/><stop offset=".86" style="stop-color:#080808"/><stop offset=".922" style="stop-color:#000"/></linearGradient><path d="M494.33 202.98c-4.63-1.26-9.96-2.1-21.04-3.37-46.15-2.1-159.49-6.45-217.28-6.45s-171.27 4.35-217.28 6.45c-10.94 1.26-16.41 2.1-21.04 3.37C3.09 206.34 0 211.39 0 221.91v70.98c0 10.24 10.94 17.39 18.66 18.66 7.72 1.54 12.48 2.1 20.48 2.81 40.96 2.52 136.49 8 216.86 8s175.62-5.33 216.86-8c8-.7 12.76-1.26 20.48-2.81 7.72-1.26 18.66-8.42 18.66-18.66v-70.98c0-10.52-3.09-15.57-17.67-18.93" style="fill:url(#SVGID_1_)"/><radialGradient id="SVGID_00000135650074458455453220000013277984807503083950_" cx="309.872" cy="371.644" r="357.023" gradientTransform="translate(-197.6 -422.99)" gradientUnits="userSpaceOnUse"><stop offset=".202" style="stop-color:#fff"/><stop offset=".382" style="stop-color:#fdfdfd"/><stop offset=".487" style="stop-color:#f4f4f4"/><stop offset=".573" style="stop-color:#e6e6e6"/><stop offset=".648" style="stop-color:#d2d2d2"/><stop offset=".689" style="stop-color:#c4c4c4"/><stop offset="1" style="stop-color:#333"/></radialGradient><path d="M71.68 205.78c22.58-78.55 96.79-136.2 185.02-136.2 87.81 0 162.02 57.37 184.88 135.64 0 .28 0 .56.28.7 13.05-1.54 24.83-3.79 32.96-5.89-.28-.56-.28-.56-.28-.98-25.81-93.7-113.62-162.3-217.85-162.3-104.5 0-192.46 69.16-218.13 162.86 11.66 3.09 20.07 4.49 33.12 6.17" style="fill:url(#SVGID_00000135650074458455453220000013277984807503083950_)"/><radialGradient id="SVGID_00000156572236131623377490000003668188056221780873_" cx="1173.901" cy="943.501" r="743.555" gradientTransform="translate(-197.6 -422.99)" gradientUnits="userSpaceOnUse"><stop offset=".202" style="stop-color:#fff"/><stop offset=".368" style="stop-color:#e4e4e4"/><stop offset=".594" style="stop-color:#c4c4c4"/><stop offset="1" style="stop-color:#333"/></radialGradient><path d="M441.02 308.74c-.28.7-.56 1.54-.56 1.82-24.13 76.6-97.21 132.14-183.76 132.14-87.25 0-160.75-56.25-184.32-133.82-14.31 2.52-19.22 3.65-33.24 5.33 26.37 92.86 113.62 161.03 217.56 161.03s191.47-68.31 217.56-161.32c-12.48-1.39-19.63-2.65-33.24-5.18" style="fill:url(#SVGID_00000156572236131623377490000003668188056221780873_)"/><radialGradient id="SVGID_00000078755348267964867950000017495590897218140827_" cx="395.629" cy="779.416" r="228.274" gradientTransform="translate(-197.6 -422.99)" gradientUnits="userSpaceOnUse"><stop offset=".202" style="stop-color:#fff"/><stop offset=".368" style="stop-color:#e4e4e4"/><stop offset=".594" style="stop-color:#c4c4c4"/><stop offset="1" style="stop-color:#333"/></radialGradient><path d="M76.59 205.5c5.33-2.24 10.8-5.89 18.94-8.14 24.55-63.54 87.53-108.85 161.6-108.85 73.78 0 136.77 45.03 161.32 108.29 0 .28.28.56.28.56 4.35 1.54 16.69 6.45 20.48 8.14h2.81c0-.28-.28-.56-.28-.7C419 126.53 344.65 69.16 256.84 69.16c-88.09 0-162.3 57.65-185.02 136.21 1.4.41 3.65.13 4.77.13" style="fill:url(#SVGID_00000078755348267964867950000017495590897218140827_)"/><path d="M255.44 74.77c82.48 0 155.7 49.1 183.34 130.31 0 .28.28.56.28.7h2.81c0-.28-.28-.56-.28-.7-22.73-78.27-97.08-135.64-184.89-135.64-88.09 0-162.3 57.65-185.02 136.21 1.82 0 2.52 0 4.63-.28 24.83-76.88 97.21-130.6 179.13-130.6" class="st4"/><radialGradient id="SVGID_00000026843606120761410320000001933971648425905065_" cx="579.839" cy="1012.833" r="433.134" gradientTransform="translate(-197.6 -422.99)" gradientUnits="userSpaceOnUse"><stop offset=".202" style="stop-color:#fff"/><stop offset=".368" style="stop-color:#e4e4e4"/><stop offset=".594" style="stop-color:#c4c4c4"/><stop offset="1" style="stop-color:#333"/></radialGradient><path d="M436.53 309.02c-5.89 3.37-13.33 6.45-19.22 8.42 0 .28-.56.98-.56 1.26-25.53 61.44-87.53 104.92-160.05 104.92-72.94 0-135.22-44.05-160.47-106.05-6.87-1.82-16.83-6.45-20.76-8.42-1.54 0-2.24 0-3.09-.28 23.57 77.3 97.07 133.83 184.32 133.83 86.83 0 160.19-55.83 183.76-132.56 0-.28.28-.98.28-.98-.98-.42-3.23-.14-4.21-.14" style="fill:url(#SVGID_00000026843606120761410320000001933971648425905065_)"/><radialGradient id="SVGID_00000179643902526339834300000016159847209825706137_" cx="450.169" cy="504.942" r="344.196" gradientTransform="translate(-197.6 -422.99)" gradientUnits="userSpaceOnUse"><stop offset=".202" style="stop-color:#fff"/><stop offset=".397" style="stop-color:#fdfdfd"/><stop offset=".51" style="stop-color:#f4f4f4"/><stop offset=".603" style="stop-color:#e6e6e6"/><stop offset=".684" style="stop-color:#d2d2d2"/><stop offset=".728" style="stop-color:#c4c4c4"/><stop offset="1" style="stop-color:#4d4d4d"/></radialGradient><path d="M490.26 208.17c-12.34-1.54-20.48-1.26-50.22-2.24-1.26 0-2.81 0-4.07-.28-53.72-1.82-134.38-4.35-179.97-4.35s-126.53 2.52-179.97 4.35c-1.26 0-2.81 0-4.07.28-29.74.98-37.87.7-50.22 2.24C9.4 209.71 0 214.76 0 224.02v65.79c0 8.98 11.5 16.41 21.74 16.41 0 0 129.75 8 234.26 8.14 104.5 0 234.26-8.14 234.26-8.14 10.24 0 21.74-7.43 21.74-16.41v-65.79c0-9.26-9.54-14.31-21.74-15.85" style="fill:url(#SVGID_00000179643902526339834300000016159847209825706137_)"/><path d="M436.53 309.02c-25.67 75.47-97.35 128.21-178.15 128.21-81.92 0-154.3-48.39-182.5-128.21-.98 0-2.1 0-3.09-.28 23.57 77.29 97.07 133.82 184.32 133.82s160.75-56.53 184.32-133.82c-1.81 0-3.35.28-4.9.28" class="st4"/><path d="M436.53 309.02c-6.17 3.37-13.61 6.45-19.5 8.42 0 .28-.56.98-.56 1.26-8.14 19.5-19.78 37.17-34.37 52.18 23.15-16.83 41.53-37.87 54.43-61.86" style="fill:#8c8c8c"/><path d="M136.21 375.51c-17.11-16.41-30.72-36.05-39.7-58.07-6.87-1.82-16.83-6.45-20.76-8.42 4.07 8.7 8.98 16.69 14.31 24.27 11.22 14.59 25.11 27.91 40.4 38.86 1.96 1.12 3.92 2.38 5.75 3.36" style="fill:#4d4d4d"/><path d="M72.38 308.74c-14.31 2.52-19.22 3.65-33.24 5.33.98 4.07 2.24 8 3.79 12.06z" style="fill:#252525"/><radialGradient id="NISSAN_00000004543074593131051810000000241412996130319252_" cx="458.144" cy="539.415" r="231.833" gradientTransform="translate(-197.6 -422.99)" gradientUnits="userSpaceOnUse"><stop offset=".111" style="stop-color:#4d4d4d"/><stop offset=".248" style="stop-color:#494949"/><stop offset=".355" style="stop-color:#404040"/><stop offset=".451" style="stop-color:#2f2f2f"/><stop offset=".541" style="stop-color:#181818"/><stop offset=".611" style="stop-color:#000"/></radialGradient><path id="NISSAN" d="M359.94 237.06c-4.35-9.54-2.81-8.42-12.06-8.7-.7-.28-2.81-.28-5.61-.28-2.81 0-3.37 0-5.61.28-8.7 0-7.15-.56-10.24 5.89 0 0-15.15 33.81-21.46 47.83l-.28.56c-1.26 2.52-.56 2.52 1.54 2.52h13.61c.98 0 1.54-.56 1.82-.98 0 0 2.1-4.35 4.63-10.24h32.96c2.52 5.89 4.35 9.96 4.35 10.24.28.7.98.98 1.82.98h14.03c2.1 0 2.52.28 1.82-1.54-2.66-6.16-19.07-41.23-21.32-46.56m-28.61 24.83c4.35-9.96 8.42-19.78 8.42-19.92.28-.56.7-.7 1.54-.7.28-.28.98-.28 1.82-.28.56 0 1.26 0 1.54.28.56 0 .98.28 1.26.98.98 2.81 4.91 11.22 8.14 19.78h-22.72zm-181.1-34.37c1.26 0 1.54.56 1.54 1.54v53.72c0 1.26-.28 1.82-1.82 1.82H136.9c-1.54 0-1.82-.28-1.82-1.82v-53.72c0-.98.28-1.54 1.26-1.54zm-27.91.57c1.54 0 1.82.56 1.82 1.82v53.44c0 1.54-.28 1.82-1.82 1.82h-15.29c-8.98 0-9.68 0-12.76-5.05-6.17-9.68-25.11-38.72-25.11-38.72v41.94c0 1.54-.28 1.82-1.82 1.82H56.11c-1.54 0-1.82-.28-1.82-1.82V229.9c0-1.26.28-1.82 1.82-1.82h13.05c9.68 0 10.94-.28 14.59 4.91 2.81 4.63 25.67 39.7 25.67 39.7v-42.78c0-1.26.28-1.82 1.82-1.82zm335.39 0c1.54 0 1.82.56 1.82 1.82v53.44c0 1.54-.28 1.82-1.82 1.82h-15.43c-8.98 0-9.68 0-12.76-5.05-6.45-9.68-25.11-38.72-25.11-38.72v41.94c0 1.54-.28 1.82-1.82 1.82h-11.22c-1.54 0-1.82-.28-1.82-1.82V229.9c0-1.26.28-1.82 1.82-1.82h13.05c9.68 0 10.94-.28 14.59 4.91 3.09 4.63 25.67 39.7 25.67 39.7v-42.78c0-1.26.28-1.82 1.82-1.82zm-249.82 21.74c9.96.98 17.39 2.81 19.5 12.34 0 .7.28 3.37.28 6.17 0 1.82 0 4.07-.56 6.17-1.82 8.98-8.42 10.8-19.22 10.8h-42.22c-1.54 0-1.82-.28-1.82-1.82v-8.98c0-1.54.28-1.82 1.82-1.82h42.78c1.82 0 2.24-.56 2.52-1.82v-3.78c-.28-.98-.56-2.52-2.81-2.81-4.91-.28-18.94-1.54-28.48-2.52-12.34-1.26-15.29-6.45-15.85-10.94-.28-1.54-.28-3.65-.28-5.33 0-1.54 0-3.79.28-5.61 1.82-8 7.72-11.78 18.38-11.78h40.96c1.54 0 2.1.28 2.1 1.54v9.26c0 1.26-.56 1.82-2.1 1.54h-40.26c-1.82 0-2.52.7-2.81 2.52v2.24c0 1.26.7 2.24 2.52 2.52 4.79.56 19.66 1.69 25.27 2.11m72.38 0c9.96.98 17.39 2.81 19.5 12.34 0 .7.28 3.37.28 6.17 0 1.82 0 4.07-.56 6.17-1.82 8.98-8.42 10.8-19.22 10.8h-41.94c-1.54 0-1.82-.28-1.82-1.82v-8.98c0-1.54.28-1.82 1.82-1.82h42.78c1.82 0 2.24-.56 2.52-1.82v-3.78c-.28-.98-.7-2.52-2.81-2.81-4.91-.28-18.94-1.54-28.48-2.52-12.34-1.26-15.15-6.45-15.85-10.94-.28-1.54-.28-3.65-.28-5.33 0-1.54 0-3.79.28-5.61 1.82-8 7.72-11.78 18.38-11.78h40.96c1.54 0 2.1.28 2.1 1.54v9.26c0 1.26-.56 1.82-2.1 1.54h-40.26c-1.82 0-2.52.7-2.81 2.52v2.24c0 1.26.56 2.24 2.52 2.52 4.79.56 19.66 1.69 24.99 2.11" style="fill:url(#NISSAN_00000004543074593131051810000000241412996130319252_)"/></svg>