<svg width="48" height="48" viewBox="0 0 48 48" fill="none" xmlns="http://www.w3.org/2000/svg">
<g clip-path="url(#clip0_143_4292)">
<path d="M5.00571 16.5H5.37869L5.48498 16.1425C8.20934 6.97814 15.5091 0.5 24 0.5C34.769 0.5 43.6606 10.9493 43.6606 24C43.6606 24.2012 43.6511 24.3857 43.6408 24.5834C43.6346 24.7041 43.6281 24.8297 43.6234 24.9671L43.6065 25.4571L44.096 25.4836L47.0566 25.6444C47.1194 25.6478 47.1884 25.6711 47.2561 25.7232C47.3248 25.776 47.39 25.8573 47.4362 25.966C47.4825 26.0746 47.5053 26.2005 47.499 26.3293C47.4926 26.458 47.4577 26.5776 47.4031 26.6755C47.403 26.6756 47.403 26.6757 47.4029 26.6759L45.4831 30.1039C45.4323 30.1947 45.3687 30.2596 45.3049 30.3002C45.242 30.3403 45.179 30.3571 45.1206 30.3571H43.3074H42.9172L42.8224 30.7357C40.3812 40.4871 32.834 47.5 24 47.5C13.231 47.5 4.33942 37.0507 4.33942 24C4.33942 23.2992 4.37502 22.6056 4.4262 21.9118L4.4637 21.4033L3.95457 21.3757L0.943423 21.2128C0.880591 21.2094 0.8116 21.186 0.743891 21.134C0.675202 21.0811 0.610048 20.9998 0.563775 20.8912C0.517504 20.7825 0.494681 20.6567 0.501048 20.5278C0.507417 20.399 0.542364 20.2793 0.597107 20.1813L2.51686 16.7533C2.51687 16.7532 2.51687 16.7532 2.51687 16.7532C2.56774 16.6624 2.63128 16.5976 2.69508 16.5569C2.75798 16.5169 2.82098 16.5 2.87939 16.5C2.87941 16.5 2.87943 16.5 2.87944 16.5H5.00571ZM42.1816 25.381L42.6916 25.4086L42.7084 24.8982C42.7113 24.8085 42.716 24.7109 42.7209 24.609C42.7303 24.4129 42.7405 24.2009 42.7405 24C42.7405 11.8027 34.4399 1.78571 24 1.78571C16.0251 1.78571 9.29027 7.66059 6.56575 15.842L6.34664 16.5H7.04014H34.5595C34.6324 16.5001 34.7145 16.5268 34.7935 16.594C34.8741 16.6627 34.9464 16.7704 34.9868 16.9107C35.0272 17.0508 35.0299 17.2048 34.9942 17.3478C34.9584 17.4909 34.8891 17.6038 34.8091 17.678C34.8091 17.678 34.8091 17.678 34.8091 17.678L28.2223 23.776L27.3557 24.5783L28.535 24.6421L42.1816 25.381ZM3.39316 17.7857H3.09997L2.95682 18.0416L2.26492 19.2782L1.87324 19.9782L2.67424 20.0216L22.0949 21.0729C22.0952 21.0729 22.0954 21.0729 22.0956 21.0729C22.1674 21.0771 22.2482 21.1076 22.3251 21.1779C22.4037 21.2498 22.4724 21.359 22.5096 21.498C22.5467 21.6369 22.5472 21.7878 22.511 21.9273C22.4748 22.0666 22.4069 22.1766 22.3287 22.2495C22.3285 22.2496 22.3284 22.2498 22.3282 22.2499L15.8976 28.2046L14.9614 29.0714H16.2373H44.6068H44.9L45.0432 28.8156L45.7351 27.579L46.1268 26.8789L45.3258 26.8356L25.9051 25.7843C25.9048 25.7843 25.9046 25.7843 25.9044 25.7842C25.8326 25.78 25.7518 25.7496 25.6749 25.6792C25.5963 25.6074 25.5276 25.4982 25.4904 25.3591C25.4533 25.2202 25.4528 25.0693 25.489 24.9299C25.5252 24.7906 25.5931 24.6806 25.6713 24.6077C25.6715 24.6075 25.6716 24.6074 25.6718 24.6072L32.1024 18.6526L33.0386 17.7857H31.7627H3.39316ZM5.87458 21.4806L5.3868 21.4543L5.3491 21.9413C5.29698 22.6145 5.25948 23.2995 5.25948 24C5.25948 36.1973 13.5601 46.2143 24 46.2143C32.3479 46.2143 39.3292 39.776 41.7845 30.9917L41.9619 30.3571H41.303H13.4405C13.3676 30.357 13.2855 30.3304 13.2065 30.2631C13.1259 30.1945 13.0536 30.0867 13.0132 29.9465C12.9728 29.8063 12.9701 29.6523 13.0058 29.5093C13.0416 29.3662 13.1109 29.2533 13.1909 29.1791L19.7777 23.0812L20.6444 22.2787L19.465 22.215L5.87458 21.4806Z" stroke="black"/>
</g>
<defs>
<clipPath id="clip0_143_4292">
<rect width="48" height="48" fill="white"/>
</clipPath>
</defs>
</svg>
