<svg width="48" height="48" viewBox="0 0 48 48" fill="none" xmlns="http://www.w3.org/2000/svg">
<mask id="path-1-inside-1_143_4294" fill="white">
<path d="M24.2 3C14.0538 3 5.75563 4.81125 5.75563 4.81125C5.54163 4.85789 5.35002 4.9763 5.21258 5.14682C5.07514 5.31735 5.00013 5.52973 5 5.74875V11.1169C5 14.2474 4.9901 20.3823 7.33813 26.8069C9.68615 33.2314 14.4493 39.9706 23.8044 44.1956C23.9287 44.2519 24.0636 44.2809 24.2 44.2809C24.3364 44.2809 24.4713 44.2519 24.5956 44.1956C33.9507 39.9706 38.7139 33.2314 41.0619 26.8069C43.4099 20.3823 43.4 14.2474 43.4 11.1169V5.74875C43.3999 5.52973 43.3249 5.31735 43.1874 5.14682C43.05 4.9763 42.8584 4.85789 42.6444 4.81125C42.6444 4.81125 34.3462 3 24.2 3ZM24.2 4.92C33.4108 4.92 40.4349 6.34514 41.48 6.5625V11.1169C41.48 14.2474 41.4701 20.0946 39.2581 26.1469C37.0835 32.0969 32.785 38.1977 24.2 42.2156C15.615 38.1977 11.3165 32.0969 9.14188 26.1469C6.9299 20.0946 6.92 14.2474 6.92 11.1169V6.5625C7.96513 6.34514 14.9892 4.92 24.2 4.92ZM23.3319 6.465C22.7434 6.4698 22.4515 6.66137 22.4525 7.24313V8.4075C22.4525 9.03054 22.7787 9.14168 23.42 9.13688C24.2965 9.13208 25.1714 9.13469 26.0469 9.14813V7.56563C25.4238 7.55603 24.8005 7.55063 24.1775 7.55063V7.98188C24.6479 7.98188 25.1171 7.98458 25.5875 7.98938V8.71125C24.7773 8.70165 23.9677 8.70078 23.1575 8.7075C23.0346 8.70942 22.9119 8.58851 22.9119 8.46563V7.12688C22.9119 7.00496 23.0356 6.89721 23.1575 6.89625C24.0609 6.88857 24.9645 6.89223 25.8669 6.90375V6.4725C25.0221 6.46098 24.1767 6.45924 23.3319 6.465ZM21.2994 6.495C21.141 6.49884 20.9843 6.50333 20.8269 6.50813V8.52188C20.8269 8.6438 20.7345 8.75054 20.5944 8.75438C19.8571 8.7755 19.1192 8.80419 18.3819 8.83875C18.2427 8.84451 18.1381 8.74601 18.1381 8.62313V6.60938L17.6769 6.63188V8.565C17.6769 9.1698 18.0444 9.28376 18.6444 9.25688C19.2079 9.23192 19.7712 9.21041 20.3338 9.19313C20.9798 9.17297 21.2994 9.03965 21.2994 8.42813V6.495ZM27.1963 6.49875V9.17063C28.33 9.19751 29.4628 9.24053 30.5956 9.29813V8.86688C29.6164 8.81696 28.6377 8.77751 27.6575 8.75063V8.02875C28.5292 8.05275 29.4005 8.08776 30.2713 8.13V7.69688C29.4005 7.65464 28.5292 7.6215 27.6575 7.5975V6.93938C28.6377 6.96626 29.6164 7.00571 30.5956 7.05563V6.62625C29.4628 6.56865 28.33 6.52563 27.1963 6.49875ZM16.5256 6.6975C15.3938 6.76758 14.2609 6.8517 13.13 6.9525V9.62438C14.2609 9.52454 15.3938 9.43946 16.5256 9.36938V8.93813C15.5474 8.99861 14.5667 9.07023 13.5894 9.15375V8.43188C14.4591 8.35796 15.3305 8.29256 16.2013 8.23688V7.8075C15.3305 7.86318 14.4591 7.92762 13.5894 8.0025V7.34438C14.5667 7.26086 15.5464 7.18923 16.5256 7.12875V6.6975ZM32.7144 6.75188C32.0453 6.70676 31.7488 6.82971 31.7488 7.42875V8.62313C31.7488 9.25769 32.075 9.38055 32.7144 9.42375C33.3019 9.46407 33.8894 9.50888 34.4769 9.55688C35.1105 9.60872 35.4425 9.50063 35.4425 8.90063V7.70813C35.4425 7.09661 35.0577 6.93488 34.4769 6.88688C33.8894 6.83792 33.3019 6.7922 32.7144 6.75188ZM36.2938 7.05V7.48125C36.8112 7.53213 37.3307 7.58586 37.8481 7.6425V9.88313C38.0046 9.90041 38.1604 9.91739 38.3169 9.93563V7.695C38.8314 7.75356 39.3464 7.81347 39.86 7.87875V7.44938C38.6725 7.29962 37.4842 7.16616 36.2938 7.05ZM11.2438 7.13625C10.3404 7.23129 9.43769 7.33514 8.53625 7.44938V10.1213C8.69273 10.1011 8.8504 10.0805 9.00688 10.0613V9.23438C9.75184 9.14318 10.4978 9.05997 11.2438 8.98125C11.7833 8.92461 12.0856 8.69906 12.0856 8.13938V7.8375C12.0856 7.2903 11.7833 7.08057 11.2438 7.13625ZM32.4538 7.16625C33.216 7.21617 33.9762 7.27443 34.7375 7.33875C34.8594 7.34931 34.9813 7.46393 34.9813 7.60313V8.925C34.9813 9.04692 34.8594 9.15869 34.7375 9.14813C33.9762 9.08381 33.216 9.02651 32.4538 8.97563C32.3136 8.96603 32.2081 8.83692 32.2081 8.715V7.395C32.2081 7.25484 32.3136 7.15665 32.4538 7.16625ZM11.3825 7.5525C11.5035 7.54002 11.6244 7.63212 11.6244 7.755L11.6263 8.295C11.6263 8.41116 11.5035 8.52344 11.3825 8.53688C10.5895 8.61848 9.797 8.70804 9.005 8.805V7.82063C9.797 7.72367 10.5895 7.63506 11.3825 7.5525ZM24.7363 11.4938C22.9004 11.5249 21.3059 11.8385 20.5475 12.1631C20.392 12.1766 20.267 12.2516 20.1969 12.3581C20.1114 12.4829 19.9739 12.7067 19.8463 12.9131C19.7839 13.0139 19.7068 13.1054 19.6175 13.1831C19.2229 13.5287 18.5614 14.087 18.1419 14.4038C18.1054 14.4306 18.0882 14.4446 18.0594 14.4638C18.0008 14.5041 17.8971 14.5726 17.7819 14.6494L17.6375 14.745C17.4445 14.8736 17.2544 14.9991 17.1988 15.0356C17.1584 15.0615 17.1498 15.0694 17.12 15.1069C17.0864 15.1501 16.9119 15.3731 16.9119 15.3731C17.2498 15.183 17.6075 14.9831 17.9675 14.7825L18.275 14.6119C19.667 13.8381 21.0563 13.0831 21.6256 12.8325C21.7389 12.7816 21.859 12.754 21.9819 12.7444C23.3912 12.6388 24.9194 12.6094 26.1069 12.6075H26.375C27.1593 12.6085 27.7627 12.6195 28.0344 12.6263C28.1381 12.6291 28.2402 12.6461 28.3381 12.6788L28.8481 12.8494C27.5972 12.9156 24.3577 13.2196 23.1106 13.4644C23.1106 13.4644 26.4955 13.4309 27.2731 13.4194C27.4632 13.4165 27.9567 13.593 28.1506 13.6669C28.6028 13.8406 29.1703 14.0187 29.5456 14.2088C29.7424 14.3086 29.8794 14.3407 30.08 14.3494C30.487 14.3657 31.1089 14.4092 31.5688 14.4581C31.6945 14.4716 31.8164 14.5084 31.9288 14.565C32.8744 15.0421 34.0022 15.7172 34.775 16.2375C34.8201 16.2673 34.8712 16.2888 34.925 16.2994L35.3056 16.3763C35.3056 16.3763 34.0813 15.1206 33.5975 14.6944C33.5284 14.6329 33.4531 14.5792 33.3725 14.5331C31.5466 13.4877 30.6079 12.731 29.6825 12.3413C29.5347 12.2779 28.3353 11.8137 28.175 11.8013C27.0266 11.5586 25.8378 11.4751 24.7363 11.4938ZM21.6069 14.2744L20.705 14.2894C20.6272 14.2903 20.5277 14.3057 20.4538 14.3306C19.6694 14.5937 18.5485 15.0907 17.9188 15.4219C17.8477 15.4593 17.7821 15.5207 17.7313 15.5831L16.3625 16.9969C16.3625 16.9969 17.5269 16.9733 17.9656 16.9406C18.2047 16.9224 18.3981 16.8851 18.6275 16.815L20.3338 16.4138C20.4499 16.3792 20.5489 16.3 20.6075 16.1925L21.6631 14.3719C21.6881 14.3287 21.6568 14.2744 21.6069 14.2744ZM26.2831 15.3956C25.1916 15.5886 24.0441 15.8176 23.1744 16.0144C23.1033 16.0297 23.0421 16.0748 23.0056 16.1381L22.7356 16.6069C22.7145 16.6434 22.7356 16.6892 22.7769 16.6969C23.0044 16.7401 23.4669 16.8229 23.6263 16.8469C23.7242 16.8622 23.7575 16.858 23.8381 16.8244C24.3882 16.5959 25.0243 16.4579 25.6925 16.215C25.7453 16.1958 25.8019 16.1958 25.8556 16.2131L26.1631 16.3106C26.2082 16.326 26.2451 16.3556 26.2681 16.3969C26.3526 16.5447 26.4413 16.7075 26.4931 16.815C26.5306 16.8918 26.5096 16.9947 26.4463 17.0869C26.2197 17.4152 25.8319 17.9324 25.565 18.2569C25.5064 18.3279 25.4857 18.4226 25.5106 18.5119C25.6681 19.0543 26.2732 19.9572 26.4556 20.49C26.4777 20.5543 26.5116 20.6042 26.5625 20.6513L26.8175 20.8838C26.8175 20.8838 26.411 19.0008 26.3131 18.4613C26.2978 18.3777 26.3045 18.2923 26.3525 18.2213C26.5675 17.9064 26.9509 17.3204 27.1381 16.995C27.1996 16.8884 27.222 16.7653 27.2019 16.6444C27.151 16.3525 27.0758 16.0092 27.0144 15.75C27.0029 15.701 26.9704 15.6605 26.9263 15.6394L26.4744 15.4219C26.4149 15.394 26.3484 15.3841 26.2831 15.3956ZM31.7056 15.4463C31.6162 15.4441 31.5272 15.4596 31.4413 15.4913C30.8173 15.7197 29.8211 16.1389 28.7863 16.6256L28.8106 16.6275C28.8615 16.6313 28.9902 16.6422 29.1294 16.6538L29.2494 16.665C29.3281 16.6717 29.4037 16.6789 29.4613 16.6856C29.5726 16.6981 29.6162 16.6957 29.7238 16.6669C30.0415 16.5805 30.6059 16.4396 31.0494 16.3388C31.2663 16.2898 31.4924 16.3394 31.67 16.4719C32.2786 16.926 33.2585 17.7158 33.8844 18.2419C33.9929 18.3331 34.1156 18.4066 34.2481 18.4594C35.2024 18.8424 35.6203 19.0343 35.8344 19.1438C35.9851 19.2206 36.094 19.3593 36.1363 19.5225C36.3839 20.4806 36.5486 21.9502 36.635 23.01C36.6513 23.2068 36.6253 23.4022 36.56 23.5875C36.2902 24.3488 35.6228 25.6143 35.2494 26.2181C35.2158 26.2719 35.1806 26.3143 35.1163 26.37C34.9838 26.4852 34.7799 26.3369 34.61 26.4694C34.5764 26.4943 34.61 27.2146 34.61 27.2569C34.6062 27.6313 34.655 28.1569 34.655 28.1569C35.5708 27.0068 36.2306 25.4771 37.0044 23.8931C37.0677 23.7626 37.0922 23.6888 37.1056 23.5669C37.2861 21.8677 37.177 19.8494 36.89 18.5438C36.8593 18.4017 36.8131 18.3414 36.695 18.2531C35.4739 17.343 33.2766 16.0516 31.97 15.5025C31.8855 15.467 31.795 15.4484 31.7056 15.4463ZM16.8463 15.8869C16.3787 16.1595 15.5429 16.6549 15.1138 16.9256C14.9285 17.0427 14.8387 17.106 14.6563 17.25C14.6351 17.2663 14.6182 17.2842 14.6019 17.3044C14.4886 17.4474 14.0263 18.0464 13.8631 18.2663C13.842 18.296 13.8151 18.3201 13.7863 18.3413C12.2378 19.4472 11.3718 20.1523 11.0281 20.4413C10.888 20.5785 10.7544 20.7102 10.6325 20.8369C10.5231 20.9502 10.4967 20.9941 10.49 21.0844C10.4842 21.1602 10.4788 21.2612 10.4788 21.3188C10.4788 21.3524 10.4886 21.379 10.5069 21.4069C10.528 21.4395 10.6506 21.5787 10.6794 21.6075C10.6928 21.62 10.7128 21.6237 10.7281 21.6131C10.9576 21.4518 11.2791 21.2133 11.57 20.9906C11.593 20.9724 11.6362 20.9285 11.6525 20.9006C11.7015 20.8152 11.7669 20.6934 11.8044 20.6156C11.8284 20.5647 11.8433 20.5481 11.9019 20.5106C11.9412 20.4857 12.0327 20.428 12.0894 20.3925L12.1306 20.3681C12.1345 20.3652 12.1363 20.3644 12.1363 20.3644L12.1344 20.37L12.1231 20.415C12.0876 20.5542 11.9862 20.9411 11.9094 21.0938C11.8767 21.1581 11.8453 21.2028 11.8213 21.2288C11.5928 21.4668 11.1792 21.9297 10.9738 22.1831C10.9037 22.2686 10.9274 22.3734 10.9831 22.4569C11.1732 22.7391 11.5681 23.2244 11.8081 23.4788C11.882 23.5575 11.9172 23.5904 11.9844 23.6288C12.0833 23.6854 12.1531 23.7094 12.1531 23.7094C12.1531 23.7094 12.3499 22.7601 12.4344 22.4644C12.4622 22.3636 12.5261 22.2832 12.6519 22.2525C13.6676 22 15.8581 21.6356 15.8581 21.6356C15.6277 21.3591 14.8577 20.565 14.6244 20.3644C14.5543 20.3039 14.4878 20.2737 14.3956 20.2631C14.1124 20.2305 13.1844 20.1638 13.1844 20.1638C13.1844 20.1638 13.2645 20.0752 13.325 20.0138C13.3807 19.9571 13.4132 19.9365 13.4881 19.9106C14.6267 19.5161 16.3183 19.1731 17.2063 18.8025C17.3992 18.7219 17.4914 18.6656 17.645 18.5063C17.7122 18.4371 17.8476 18.2862 17.9244 18.1931C17.9397 18.1739 17.9487 18.1609 17.9525 18.1369C17.9583 18.109 17.9656 18.0581 17.9656 18.0581C17.9656 18.0581 17.5848 18.3444 17.435 18.4481C17.2977 18.5441 17.2091 18.5878 17.0469 18.63C16.7339 18.7116 15.9713 18.6179 15.6219 18.6956C15.5259 18.7167 15.4814 18.7179 15.395 18.6863C15.3393 18.6661 15.2324 18.6241 15.1681 18.5944C15.1 18.5617 15.0677 18.5574 14.9938 18.5738C14.6837 18.6438 13.8388 18.8531 13.8388 18.8531C13.8388 18.8531 14.2281 18.5068 14.2569 18.4838C14.2943 18.4559 14.3126 18.445 14.375 18.42C14.6668 18.3029 15.0278 18.1726 15.3331 18.0488C15.4032 18.02 15.4324 17.9847 15.4381 17.9156C15.4573 17.6804 15.5253 17.2571 15.5656 17.0344C15.5781 16.971 15.5972 16.9359 15.6481 16.8956C15.8257 16.7535 16.4816 16.2496 16.6381 16.1344C16.6487 16.1248 16.6585 16.1159 16.6681 16.1063L16.8463 15.8869ZM17.1369 17.3213L16.5144 17.3719C16.4635 17.3757 16.4254 17.4139 16.4206 17.4619L16.3625 18.1744C16.3596 18.2118 16.3935 18.2402 16.4319 18.2325L17.0619 18.0994C17.1368 18.084 17.229 18.0166 17.2588 17.9475C17.3356 17.7776 17.3562 17.5795 17.2775 17.4019C17.2545 17.3491 17.1974 17.3165 17.1369 17.3213ZM29.9919 19.5263C29.9919 19.5263 30.4734 21.6303 30.6875 22.7794C30.7144 22.9263 30.7863 23.061 30.8919 23.1656C31.6301 23.8981 32.118 24.4677 32.525 25.0706C32.7026 25.3327 32.7195 25.771 32.7406 26.0869C32.8529 27.7582 32.4994 29.7422 32.3131 31.0219C32.2757 31.2811 32.2121 31.3721 32.0431 31.5094C31.3942 32.0355 26.9186 36.0565 26.8456 36.1669C26.6968 36.3925 26.5044 37.2281 26.5044 37.2281C26.5044 37.2281 26.2367 36.4025 26.1763 35.9513C26.1484 35.7401 26.9865 32.2728 27.0969 31.9388C27.1065 31.91 27.1119 31.8813 27.1119 31.8506V31.6406C26.868 32.1513 25.6134 34.9769 25.3475 35.9494C25.2918 36.1539 25.3003 36.2355 25.3531 36.3881C25.5154 36.8566 25.9902 38.0167 26.2081 38.4919C26.2081 38.4919 27.2085 36.7779 27.3256 36.6694C27.7922 36.2374 28.8922 35.2978 30.05 34.3388L30.3519 34.0875C31.3128 33.2955 32.2811 32.5183 32.9281 32.0306C33.1297 31.8799 33.1903 31.773 33.245 31.5638C33.8517 29.2444 34.106 26.578 33.8094 24.0619C33.7969 23.9582 33.7628 23.8671 33.7119 23.7769C33.4479 23.3055 32.1259 21.5157 30.4738 19.7906C30.4142 19.7282 30.3416 19.6789 30.2619 19.6444L29.9919 19.5263ZM21.2956 20.3644L21.2544 20.8706C21.2515 20.9052 21.2542 20.9392 21.26 20.9738C21.2974 21.1936 21.4392 22.063 21.4344 22.5094C21.4325 22.663 21.426 22.7193 21.3425 22.8825C20.9787 23.5987 20.0051 25.0049 18.9481 26.4094L18.7044 26.7319C18.0074 27.6477 17.2922 28.5404 16.7056 29.2163C16.5309 29.4169 16.4799 29.5512 16.4319 29.7788C16.3522 30.156 16.2617 31.0171 16.2031 31.7025C16.1724 32.0702 16.1967 32.1968 16.43 32.5856C17.3679 34.1447 20.5541 37.8763 21.5938 38.7413C21.6619 38.7979 21.7344 38.849 21.8131 38.8913C22.0032 38.993 22.3648 39.1755 22.6681 39.3281L22.8669 39.4275C22.9485 39.4678 23.0175 39.5037 23.0713 39.5306L23.1388 39.5625C23.1647 39.5759 23.1781 39.5831 23.1781 39.5831L23.0244 39.3113C23.0138 39.294 23.0004 39.2778 22.9831 39.2663C22.9831 39.2663 22.5568 38.9899 22.4263 38.9025C22.2899 38.8123 22.2431 38.7717 22.1788 38.7131C21.2908 37.9086 18.176 34.0741 17.2419 32.4075C17.0854 32.1281 17.039 31.996 17.0544 31.7138C17.0717 31.3931 17.1335 30.7726 17.1969 30.4088C17.2362 30.1822 17.288 30.0322 17.48 29.8575C18.0099 29.3765 18.8645 28.5163 19.3119 28.0613C19.5077 27.8625 19.6057 27.7349 19.7094 27.54C19.9206 27.1445 21.8764 23.4121 22.055 22.9369C22.128 22.7391 22.1316 22.683 22.1038 22.4756C22.075 22.2606 21.2956 20.3644 21.2956 20.3644ZM16.34 22.1775C16.2354 22.1516 16.1258 22.1561 16.0231 22.1888L15.9406 22.2188C16.6625 22.4645 17.2761 22.6852 18.0556 22.9819C18.1228 23.0068 18.1958 23.0834 18.2169 23.1525L18.2881 23.3888C18.3169 23.4848 18.308 23.5863 18.2619 23.6756C17.9307 24.3246 17.3567 25.1852 16.8988 25.7381C16.8296 25.8207 16.7427 25.8863 16.6419 25.9238C16.1993 26.0889 15.3929 26.3548 15.0425 26.445C14.9724 26.4632 14.9389 26.4553 14.8813 26.415C14.6259 26.2364 14.0975 25.7419 14.0975 25.7419C14.0975 25.7419 14.0535 26.279 14.0506 26.52C14.0506 26.5469 14.0551 26.5729 14.0656 26.5969C14.1559 26.8071 14.3144 27.2118 14.3806 27.4163C14.3979 27.4691 14.4112 27.5162 14.4256 27.57C14.5139 27.9242 14.7575 28.965 14.7575 28.965C14.793 29.1224 14.8827 29.1766 15.0219 29.1469C15.2004 29.1075 15.7739 28.9462 16.0081 28.8675C16.0436 28.856 16.0759 28.8372 16.1038 28.8113C16.2564 28.673 16.5106 28.4381 16.5106 28.4381C16.5106 28.4381 15.8985 28.5698 15.575 28.6313C15.4531 28.6553 15.387 28.5901 15.3688 28.5075C15.3198 28.2829 15.1944 27.5153 15.155 27.2888C15.1329 27.164 15.1702 27.0965 15.2825 27.06C15.8297 26.8824 16.5439 26.8899 17.285 26.6288C17.4751 26.5606 17.5356 26.4846 17.6431 26.3138C17.8054 26.0546 18.8933 23.8009 19.0306 23.535C19.0815 23.4352 19.077 23.3179 19.0194 23.2219L18.8563 22.9481C18.8006 22.854 18.6675 22.7556 18.5619 22.7288C17.8083 22.5358 16.8114 22.2908 16.34 22.1775ZM13.46 23.1169C13.46 23.1169 12.6237 23.6583 12.5056 23.9156L13.3475 24.9169L13.46 23.1169ZM17.4013 23.79L15.005 25.7681C15.3976 25.6481 15.9322 25.4663 16.2519 25.3463C16.3095 25.3242 16.3597 25.2892 16.3981 25.2431C16.6909 24.8898 17.0777 24.3238 17.4013 23.79ZM24.1438 25.8881C23.7386 26.828 21.6798 33.5457 21.77 33.7819C22.538 35.772 24.4916 39.3641 24.8506 39.9075L24.8675 39.0938C24.8675 39.0938 23.3859 35.9704 23.0825 34.9538C22.975 34.5938 22.9625 34.4973 23.0038 34.0913C23.0767 33.377 24.1996 27.4409 24.2956 27.0713C24.3254 26.9561 24.1438 25.8881 24.1438 25.8881Z"/>
</mask>
<path d="M24.2 3C14.0538 3 5.75563 4.81125 5.75563 4.81125C5.54163 4.85789 5.35002 4.9763 5.21258 5.14682C5.07514 5.31735 5.00013 5.52973 5 5.74875V11.1169C5 14.2474 4.9901 20.3823 7.33813 26.8069C9.68615 33.2314 14.4493 39.9706 23.8044 44.1956C23.9287 44.2519 24.0636 44.2809 24.2 44.2809C24.3364 44.2809 24.4713 44.2519 24.5956 44.1956C33.9507 39.9706 38.7139 33.2314 41.0619 26.8069C43.4099 20.3823 43.4 14.2474 43.4 11.1169V5.74875C43.3999 5.52973 43.3249 5.31735 43.1874 5.14682C43.05 4.9763 42.8584 4.85789 42.6444 4.81125C42.6444 4.81125 34.3462 3 24.2 3ZM24.2 4.92C33.4108 4.92 40.4349 6.34514 41.48 6.5625V11.1169C41.48 14.2474 41.4701 20.0946 39.2581 26.1469C37.0835 32.0969 32.785 38.1977 24.2 42.2156C15.615 38.1977 11.3165 32.0969 9.14188 26.1469C6.9299 20.0946 6.92 14.2474 6.92 11.1169V6.5625C7.96513 6.34514 14.9892 4.92 24.2 4.92ZM23.3319 6.465C22.7434 6.4698 22.4515 6.66137 22.4525 7.24313V8.4075C22.4525 9.03054 22.7787 9.14168 23.42 9.13688C24.2965 9.13208 25.1714 9.13469 26.0469 9.14813V7.56563C25.4238 7.55603 24.8005 7.55063 24.1775 7.55063V7.98188C24.6479 7.98188 25.1171 7.98458 25.5875 7.98938V8.71125C24.7773 8.70165 23.9677 8.70078 23.1575 8.7075C23.0346 8.70942 22.9119 8.58851 22.9119 8.46563V7.12688C22.9119 7.00496 23.0356 6.89721 23.1575 6.89625C24.0609 6.88857 24.9645 6.89223 25.8669 6.90375V6.4725C25.0221 6.46098 24.1767 6.45924 23.3319 6.465ZM21.2994 6.495C21.141 6.49884 20.9843 6.50333 20.8269 6.50813V8.52188C20.8269 8.6438 20.7345 8.75054 20.5944 8.75438C19.8571 8.7755 19.1192 8.80419 18.3819 8.83875C18.2427 8.84451 18.1381 8.74601 18.1381 8.62313V6.60938L17.6769 6.63188V8.565C17.6769 9.1698 18.0444 9.28376 18.6444 9.25688C19.2079 9.23192 19.7712 9.21041 20.3338 9.19313C20.9798 9.17297 21.2994 9.03965 21.2994 8.42813V6.495ZM27.1963 6.49875V9.17063C28.33 9.19751 29.4628 9.24053 30.5956 9.29813V8.86688C29.6164 8.81696 28.6377 8.77751 27.6575 8.75063V8.02875C28.5292 8.05275 29.4005 8.08776 30.2713 8.13V7.69688C29.4005 7.65464 28.5292 7.6215 27.6575 7.5975V6.93938C28.6377 6.96626 29.6164 7.00571 30.5956 7.05563V6.62625C29.4628 6.56865 28.33 6.52563 27.1963 6.49875ZM16.5256 6.6975C15.3938 6.76758 14.2609 6.8517 13.13 6.9525V9.62438C14.2609 9.52454 15.3938 9.43946 16.5256 9.36938V8.93813C15.5474 8.99861 14.5667 9.07023 13.5894 9.15375V8.43188C14.4591 8.35796 15.3305 8.29256 16.2013 8.23688V7.8075C15.3305 7.86318 14.4591 7.92762 13.5894 8.0025V7.34438C14.5667 7.26086 15.5464 7.18923 16.5256 7.12875V6.6975ZM32.7144 6.75188C32.0453 6.70676 31.7488 6.82971 31.7488 7.42875V8.62313C31.7488 9.25769 32.075 9.38055 32.7144 9.42375C33.3019 9.46407 33.8894 9.50888 34.4769 9.55688C35.1105 9.60872 35.4425 9.50063 35.4425 8.90063V7.70813C35.4425 7.09661 35.0577 6.93488 34.4769 6.88688C33.8894 6.83792 33.3019 6.7922 32.7144 6.75188ZM36.2938 7.05V7.48125C36.8112 7.53213 37.3307 7.58586 37.8481 7.6425V9.88313C38.0046 9.90041 38.1604 9.91739 38.3169 9.93563V7.695C38.8314 7.75356 39.3464 7.81347 39.86 7.87875V7.44938C38.6725 7.29962 37.4842 7.16616 36.2938 7.05ZM11.2438 7.13625C10.3404 7.23129 9.43769 7.33514 8.53625 7.44938V10.1213C8.69273 10.1011 8.8504 10.0805 9.00688 10.0613V9.23438C9.75184 9.14318 10.4978 9.05997 11.2438 8.98125C11.7833 8.92461 12.0856 8.69906 12.0856 8.13938V7.8375C12.0856 7.2903 11.7833 7.08057 11.2438 7.13625ZM32.4538 7.16625C33.216 7.21617 33.9762 7.27443 34.7375 7.33875C34.8594 7.34931 34.9813 7.46393 34.9813 7.60313V8.925C34.9813 9.04692 34.8594 9.15869 34.7375 9.14813C33.9762 9.08381 33.216 9.02651 32.4538 8.97563C32.3136 8.96603 32.2081 8.83692 32.2081 8.715V7.395C32.2081 7.25484 32.3136 7.15665 32.4538 7.16625ZM11.3825 7.5525C11.5035 7.54002 11.6244 7.63212 11.6244 7.755L11.6263 8.295C11.6263 8.41116 11.5035 8.52344 11.3825 8.53688C10.5895 8.61848 9.797 8.70804 9.005 8.805V7.82063C9.797 7.72367 10.5895 7.63506 11.3825 7.5525ZM24.7363 11.4938C22.9004 11.5249 21.3059 11.8385 20.5475 12.1631C20.392 12.1766 20.267 12.2516 20.1969 12.3581C20.1114 12.4829 19.9739 12.7067 19.8463 12.9131C19.7839 13.0139 19.7068 13.1054 19.6175 13.1831C19.2229 13.5287 18.5614 14.087 18.1419 14.4038C18.1054 14.4306 18.0882 14.4446 18.0594 14.4638C18.0008 14.5041 17.8971 14.5726 17.7819 14.6494L17.6375 14.745C17.4445 14.8736 17.2544 14.9991 17.1988 15.0356C17.1584 15.0615 17.1498 15.0694 17.12 15.1069C17.0864 15.1501 16.9119 15.3731 16.9119 15.3731C17.2498 15.183 17.6075 14.9831 17.9675 14.7825L18.275 14.6119C19.667 13.8381 21.0563 13.0831 21.6256 12.8325C21.7389 12.7816 21.859 12.754 21.9819 12.7444C23.3912 12.6388 24.9194 12.6094 26.1069 12.6075H26.375C27.1593 12.6085 27.7627 12.6195 28.0344 12.6263C28.1381 12.6291 28.2402 12.6461 28.3381 12.6788L28.8481 12.8494C27.5972 12.9156 24.3577 13.2196 23.1106 13.4644C23.1106 13.4644 26.4955 13.4309 27.2731 13.4194C27.4632 13.4165 27.9567 13.593 28.1506 13.6669C28.6028 13.8406 29.1703 14.0187 29.5456 14.2088C29.7424 14.3086 29.8794 14.3407 30.08 14.3494C30.487 14.3657 31.1089 14.4092 31.5688 14.4581C31.6945 14.4716 31.8164 14.5084 31.9288 14.565C32.8744 15.0421 34.0022 15.7172 34.775 16.2375C34.8201 16.2673 34.8712 16.2888 34.925 16.2994L35.3056 16.3763C35.3056 16.3763 34.0813 15.1206 33.5975 14.6944C33.5284 14.6329 33.4531 14.5792 33.3725 14.5331C31.5466 13.4877 30.6079 12.731 29.6825 12.3413C29.5347 12.2779 28.3353 11.8137 28.175 11.8013C27.0266 11.5586 25.8378 11.4751 24.7363 11.4938ZM21.6069 14.2744L20.705 14.2894C20.6272 14.2903 20.5277 14.3057 20.4538 14.3306C19.6694 14.5937 18.5485 15.0907 17.9188 15.4219C17.8477 15.4593 17.7821 15.5207 17.7313 15.5831L16.3625 16.9969C16.3625 16.9969 17.5269 16.9733 17.9656 16.9406C18.2047 16.9224 18.3981 16.8851 18.6275 16.815L20.3338 16.4138C20.4499 16.3792 20.5489 16.3 20.6075 16.1925L21.6631 14.3719C21.6881 14.3287 21.6568 14.2744 21.6069 14.2744ZM26.2831 15.3956C25.1916 15.5886 24.0441 15.8176 23.1744 16.0144C23.1033 16.0297 23.0421 16.0748 23.0056 16.1381L22.7356 16.6069C22.7145 16.6434 22.7356 16.6892 22.7769 16.6969C23.0044 16.7401 23.4669 16.8229 23.6263 16.8469C23.7242 16.8622 23.7575 16.858 23.8381 16.8244C24.3882 16.5959 25.0243 16.4579 25.6925 16.215C25.7453 16.1958 25.8019 16.1958 25.8556 16.2131L26.1631 16.3106C26.2082 16.326 26.2451 16.3556 26.2681 16.3969C26.3526 16.5447 26.4413 16.7075 26.4931 16.815C26.5306 16.8918 26.5096 16.9947 26.4463 17.0869C26.2197 17.4152 25.8319 17.9324 25.565 18.2569C25.5064 18.3279 25.4857 18.4226 25.5106 18.5119C25.6681 19.0543 26.2732 19.9572 26.4556 20.49C26.4777 20.5543 26.5116 20.6042 26.5625 20.6513L26.8175 20.8838C26.8175 20.8838 26.411 19.0008 26.3131 18.4613C26.2978 18.3777 26.3045 18.2923 26.3525 18.2213C26.5675 17.9064 26.9509 17.3204 27.1381 16.995C27.1996 16.8884 27.222 16.7653 27.2019 16.6444C27.151 16.3525 27.0758 16.0092 27.0144 15.75C27.0029 15.701 26.9704 15.6605 26.9263 15.6394L26.4744 15.4219C26.4149 15.394 26.3484 15.3841 26.2831 15.3956ZM31.7056 15.4463C31.6162 15.4441 31.5272 15.4596 31.4413 15.4913C30.8173 15.7197 29.8211 16.1389 28.7863 16.6256L28.8106 16.6275C28.8615 16.6313 28.9902 16.6422 29.1294 16.6538L29.2494 16.665C29.3281 16.6717 29.4037 16.6789 29.4613 16.6856C29.5726 16.6981 29.6162 16.6957 29.7238 16.6669C30.0415 16.5805 30.6059 16.4396 31.0494 16.3388C31.2663 16.2898 31.4924 16.3394 31.67 16.4719C32.2786 16.926 33.2585 17.7158 33.8844 18.2419C33.9929 18.3331 34.1156 18.4066 34.2481 18.4594C35.2024 18.8424 35.6203 19.0343 35.8344 19.1438C35.9851 19.2206 36.094 19.3593 36.1363 19.5225C36.3839 20.4806 36.5486 21.9502 36.635 23.01C36.6513 23.2068 36.6253 23.4022 36.56 23.5875C36.2902 24.3488 35.6228 25.6143 35.2494 26.2181C35.2158 26.2719 35.1806 26.3143 35.1163 26.37C34.9838 26.4852 34.7799 26.3369 34.61 26.4694C34.5764 26.4943 34.61 27.2146 34.61 27.2569C34.6062 27.6313 34.655 28.1569 34.655 28.1569C35.5708 27.0068 36.2306 25.4771 37.0044 23.8931C37.0677 23.7626 37.0922 23.6888 37.1056 23.5669C37.2861 21.8677 37.177 19.8494 36.89 18.5438C36.8593 18.4017 36.8131 18.3414 36.695 18.2531C35.4739 17.343 33.2766 16.0516 31.97 15.5025C31.8855 15.467 31.795 15.4484 31.7056 15.4463ZM16.8463 15.8869C16.3787 16.1595 15.5429 16.6549 15.1138 16.9256C14.9285 17.0427 14.8387 17.106 14.6563 17.25C14.6351 17.2663 14.6182 17.2842 14.6019 17.3044C14.4886 17.4474 14.0263 18.0464 13.8631 18.2663C13.842 18.296 13.8151 18.3201 13.7863 18.3413C12.2378 19.4472 11.3718 20.1523 11.0281 20.4413C10.888 20.5785 10.7544 20.7102 10.6325 20.8369C10.5231 20.9502 10.4967 20.9941 10.49 21.0844C10.4842 21.1602 10.4788 21.2612 10.4788 21.3188C10.4788 21.3524 10.4886 21.379 10.5069 21.4069C10.528 21.4395 10.6506 21.5787 10.6794 21.6075C10.6928 21.62 10.7128 21.6237 10.7281 21.6131C10.9576 21.4518 11.2791 21.2133 11.57 20.9906C11.593 20.9724 11.6362 20.9285 11.6525 20.9006C11.7015 20.8152 11.7669 20.6934 11.8044 20.6156C11.8284 20.5647 11.8433 20.5481 11.9019 20.5106C11.9412 20.4857 12.0327 20.428 12.0894 20.3925L12.1306 20.3681C12.1345 20.3652 12.1363 20.3644 12.1363 20.3644L12.1344 20.37L12.1231 20.415C12.0876 20.5542 11.9862 20.9411 11.9094 21.0938C11.8767 21.1581 11.8453 21.2028 11.8213 21.2288C11.5928 21.4668 11.1792 21.9297 10.9738 22.1831C10.9037 22.2686 10.9274 22.3734 10.9831 22.4569C11.1732 22.7391 11.5681 23.2244 11.8081 23.4788C11.882 23.5575 11.9172 23.5904 11.9844 23.6288C12.0833 23.6854 12.1531 23.7094 12.1531 23.7094C12.1531 23.7094 12.3499 22.7601 12.4344 22.4644C12.4622 22.3636 12.5261 22.2832 12.6519 22.2525C13.6676 22 15.8581 21.6356 15.8581 21.6356C15.6277 21.3591 14.8577 20.565 14.6244 20.3644C14.5543 20.3039 14.4878 20.2737 14.3956 20.2631C14.1124 20.2305 13.1844 20.1638 13.1844 20.1638C13.1844 20.1638 13.2645 20.0752 13.325 20.0138C13.3807 19.9571 13.4132 19.9365 13.4881 19.9106C14.6267 19.5161 16.3183 19.1731 17.2063 18.8025C17.3992 18.7219 17.4914 18.6656 17.645 18.5063C17.7122 18.4371 17.8476 18.2862 17.9244 18.1931C17.9397 18.1739 17.9487 18.1609 17.9525 18.1369C17.9583 18.109 17.9656 18.0581 17.9656 18.0581C17.9656 18.0581 17.5848 18.3444 17.435 18.4481C17.2977 18.5441 17.2091 18.5878 17.0469 18.63C16.7339 18.7116 15.9713 18.6179 15.6219 18.6956C15.5259 18.7167 15.4814 18.7179 15.395 18.6863C15.3393 18.6661 15.2324 18.6241 15.1681 18.5944C15.1 18.5617 15.0677 18.5574 14.9938 18.5738C14.6837 18.6438 13.8388 18.8531 13.8388 18.8531C13.8388 18.8531 14.2281 18.5068 14.2569 18.4838C14.2943 18.4559 14.3126 18.445 14.375 18.42C14.6668 18.3029 15.0278 18.1726 15.3331 18.0488C15.4032 18.02 15.4324 17.9847 15.4381 17.9156C15.4573 17.6804 15.5253 17.2571 15.5656 17.0344C15.5781 16.971 15.5972 16.9359 15.6481 16.8956C15.8257 16.7535 16.4816 16.2496 16.6381 16.1344C16.6487 16.1248 16.6585 16.1159 16.6681 16.1063L16.8463 15.8869ZM17.1369 17.3213L16.5144 17.3719C16.4635 17.3757 16.4254 17.4139 16.4206 17.4619L16.3625 18.1744C16.3596 18.2118 16.3935 18.2402 16.4319 18.2325L17.0619 18.0994C17.1368 18.084 17.229 18.0166 17.2588 17.9475C17.3356 17.7776 17.3562 17.5795 17.2775 17.4019C17.2545 17.3491 17.1974 17.3165 17.1369 17.3213ZM29.9919 19.5263C29.9919 19.5263 30.4734 21.6303 30.6875 22.7794C30.7144 22.9263 30.7863 23.061 30.8919 23.1656C31.6301 23.8981 32.118 24.4677 32.525 25.0706C32.7026 25.3327 32.7195 25.771 32.7406 26.0869C32.8529 27.7582 32.4994 29.7422 32.3131 31.0219C32.2757 31.2811 32.2121 31.3721 32.0431 31.5094C31.3942 32.0355 26.9186 36.0565 26.8456 36.1669C26.6968 36.3925 26.5044 37.2281 26.5044 37.2281C26.5044 37.2281 26.2367 36.4025 26.1763 35.9513C26.1484 35.7401 26.9865 32.2728 27.0969 31.9388C27.1065 31.91 27.1119 31.8813 27.1119 31.8506V31.6406C26.868 32.1513 25.6134 34.9769 25.3475 35.9494C25.2918 36.1539 25.3003 36.2355 25.3531 36.3881C25.5154 36.8566 25.9902 38.0167 26.2081 38.4919C26.2081 38.4919 27.2085 36.7779 27.3256 36.6694C27.7922 36.2374 28.8922 35.2978 30.05 34.3388L30.3519 34.0875C31.3128 33.2955 32.2811 32.5183 32.9281 32.0306C33.1297 31.8799 33.1903 31.773 33.245 31.5638C33.8517 29.2444 34.106 26.578 33.8094 24.0619C33.7969 23.9582 33.7628 23.8671 33.7119 23.7769C33.4479 23.3055 32.1259 21.5157 30.4738 19.7906C30.4142 19.7282 30.3416 19.6789 30.2619 19.6444L29.9919 19.5263ZM21.2956 20.3644L21.2544 20.8706C21.2515 20.9052 21.2542 20.9392 21.26 20.9738C21.2974 21.1936 21.4392 22.063 21.4344 22.5094C21.4325 22.663 21.426 22.7193 21.3425 22.8825C20.9787 23.5987 20.0051 25.0049 18.9481 26.4094L18.7044 26.7319C18.0074 27.6477 17.2922 28.5404 16.7056 29.2163C16.5309 29.4169 16.4799 29.5512 16.4319 29.7788C16.3522 30.156 16.2617 31.0171 16.2031 31.7025C16.1724 32.0702 16.1967 32.1968 16.43 32.5856C17.3679 34.1447 20.5541 37.8763 21.5938 38.7413C21.6619 38.7979 21.7344 38.849 21.8131 38.8913C22.0032 38.993 22.3648 39.1755 22.6681 39.3281L22.8669 39.4275C22.9485 39.4678 23.0175 39.5037 23.0713 39.5306L23.1388 39.5625C23.1647 39.5759 23.1781 39.5831 23.1781 39.5831L23.0244 39.3113C23.0138 39.294 23.0004 39.2778 22.9831 39.2663C22.9831 39.2663 22.5568 38.9899 22.4263 38.9025C22.2899 38.8123 22.2431 38.7717 22.1788 38.7131C21.2908 37.9086 18.176 34.0741 17.2419 32.4075C17.0854 32.1281 17.039 31.996 17.0544 31.7138C17.0717 31.3931 17.1335 30.7726 17.1969 30.4088C17.2362 30.1822 17.288 30.0322 17.48 29.8575C18.0099 29.3765 18.8645 28.5163 19.3119 28.0613C19.5077 27.8625 19.6057 27.7349 19.7094 27.54C19.9206 27.1445 21.8764 23.4121 22.055 22.9369C22.128 22.7391 22.1316 22.683 22.1038 22.4756C22.075 22.2606 21.2956 20.3644 21.2956 20.3644ZM16.34 22.1775C16.2354 22.1516 16.1258 22.1561 16.0231 22.1888L15.9406 22.2188C16.6625 22.4645 17.2761 22.6852 18.0556 22.9819C18.1228 23.0068 18.1958 23.0834 18.2169 23.1525L18.2881 23.3888C18.3169 23.4848 18.308 23.5863 18.2619 23.6756C17.9307 24.3246 17.3567 25.1852 16.8988 25.7381C16.8296 25.8207 16.7427 25.8863 16.6419 25.9238C16.1993 26.0889 15.3929 26.3548 15.0425 26.445C14.9724 26.4632 14.9389 26.4553 14.8813 26.415C14.6259 26.2364 14.0975 25.7419 14.0975 25.7419C14.0975 25.7419 14.0535 26.279 14.0506 26.52C14.0506 26.5469 14.0551 26.5729 14.0656 26.5969C14.1559 26.8071 14.3144 27.2118 14.3806 27.4163C14.3979 27.4691 14.4112 27.5162 14.4256 27.57C14.5139 27.9242 14.7575 28.965 14.7575 28.965C14.793 29.1224 14.8827 29.1766 15.0219 29.1469C15.2004 29.1075 15.7739 28.9462 16.0081 28.8675C16.0436 28.856 16.0759 28.8372 16.1038 28.8113C16.2564 28.673 16.5106 28.4381 16.5106 28.4381C16.5106 28.4381 15.8985 28.5698 15.575 28.6313C15.4531 28.6553 15.387 28.5901 15.3688 28.5075C15.3198 28.2829 15.1944 27.5153 15.155 27.2888C15.1329 27.164 15.1702 27.0965 15.2825 27.06C15.8297 26.8824 16.5439 26.8899 17.285 26.6288C17.4751 26.5606 17.5356 26.4846 17.6431 26.3138C17.8054 26.0546 18.8933 23.8009 19.0306 23.535C19.0815 23.4352 19.077 23.3179 19.0194 23.2219L18.8563 22.9481C18.8006 22.854 18.6675 22.7556 18.5619 22.7288C17.8083 22.5358 16.8114 22.2908 16.34 22.1775ZM13.46 23.1169C13.46 23.1169 12.6237 23.6583 12.5056 23.9156L13.3475 24.9169L13.46 23.1169ZM17.4013 23.79L15.005 25.7681C15.3976 25.6481 15.9322 25.4663 16.2519 25.3463C16.3095 25.3242 16.3597 25.2892 16.3981 25.2431C16.6909 24.8898 17.0777 24.3238 17.4013 23.79ZM24.1438 25.8881C23.7386 26.828 21.6798 33.5457 21.77 33.7819C22.538 35.772 24.4916 39.3641 24.8506 39.9075L24.8675 39.0938C24.8675 39.0938 23.3859 35.9704 23.0825 34.9538C22.975 34.5938 22.9625 34.4973 23.0038 34.0913C23.0767 33.377 24.1996 27.4409 24.2956 27.0713C24.3254 26.9561 24.1438 25.8881 24.1438 25.8881Z" stroke="black" stroke-width="2" mask="url(#path-1-inside-1_143_4294)"/>
</svg>
