<svg xmlns="http://www.w3.org/2000/svg" xmlns:xlink="http://www.w3.org/1999/xlink" width="366.583" height="272.789" viewBox="0 0 390 290.4"><linearGradient id="c" x1="18.217" x2="-24.142" y1="740.817" y2="805.695" gradientTransform="matrix(1.3758 0 0 1.4521 247.608 -1047.5)" gradientUnits="userSpaceOnUse"><stop offset="0" stop-color="#d3d3d3"/><stop offset=".368" stop-color="#4f4c4c"/><stop offset=".813" stop-color="#b0afaf"/><stop offset="1" stop-color="#231f20"/></linearGradient><linearGradient id="d" x1="-100.823" x2="-93.143" y1="787.893" y2="770.303" gradientTransform="matrix(1.3758 0 0 1.4521 247.608 -1047.5)" gradientUnits="userSpaceOnUse"><stop offset="0" stop-color="#b2b1b1"/><stop offset=".2" stop-color="#b2b1b1"/><stop offset=".99" stop-color="#656263"/><stop offset="1" stop-color="#656263"/></linearGradient><linearGradient id="e" x1="4.07" x2="-5.358" y1="745.632" y2="744.741" gradientTransform="matrix(1.3758 0 0 1.4521 247.608 -1047.5)" gradientUnits="userSpaceOnUse"><stop offset="0" stop-color="#4f4c4c"/><stop offset=".359" stop-color="#fff"/><stop offset=".824" stop-color="#4f4c4c"/><stop offset="1" stop-color="#393536"/></linearGradient><linearGradient id="f" x1="-80.916" x2="-73.27" y1="796.842" y2="779.33" gradientTransform="matrix(1.3758 0 0 1.4521 247.608 -1047.5)" gradientUnits="userSpaceOnUse"><stop offset="0" stop-color="#d3d3d3"/><stop offset=".368" stop-color="#b2b1b1"/><stop offset=".99" stop-color="#231f20"/><stop offset="1" stop-color="#231f20"/></linearGradient><linearGradient id="g" x1="-5.39" x2="-144.235" y1="881.181" y2="739.931" gradientTransform="matrix(1.3758 0 0 1.4521 247.608 -1047.5)" gradientUnits="userSpaceOnUse"><stop offset="0" stop-color="#918f90"/><stop offset=".121" stop-color="#9c9a9b"/><stop offset=".17" stop-color="#7b7979"/><stop offset=".308" stop-color="#918f90"/><stop offset=".472" stop-color="#f4f4f4"/><stop offset=".841" stop-color="#7f7d7e"/><stop offset=".962" stop-color="#4f4c4c"/><stop offset="1" stop-color="#4f4c4c"/></linearGradient><radialGradient id="h" cx="-65.486" cy="757.992" r="31.581" gradientTransform="matrix(1.3758 0 0 1.4521 247.608 -1047.5)" gradientUnits="userSpaceOnUse"><stop offset="0" stop-color="#fff"/><stop offset=".467" stop-color="#fff"/><stop offset=".747" stop-color="#9c9a9b"/><stop offset=".846" stop-color="#7b7979"/><stop offset="1" stop-color="#4f4c4c"/></radialGradient><radialGradient id="i" cx="-58.394" cy="775.097" r="11.153" gradientTransform="matrix(1.3758 0 0 1.3993 247.608 -1040.396)" gradientUnits="userSpaceOnUse"><stop offset="0" stop-color="#fff"/><stop offset=".228" stop-color="#fff"/><stop offset="1" stop-color="#231f20"/></radialGradient><radialGradient id="j" cx="-65.383" cy="734.239" r="13.143" gradientTransform="matrix(1.3758 0 0 1.4521 247.608 -1047.5)" gradientUnits="userSpaceOnUse"><stop offset="0" stop-color="#fff"/><stop offset=".571" stop-color="#f7f7f7"/><stop offset=".863" stop-color="#231f20"/><stop offset="1" stop-color="#231f20"/></radialGradient><radialGradient id="k" cx="-43.33" cy="759.86" r="43.539" gradientTransform="matrix(1.3758 0 0 1.4521 247.608 -1047.5)" gradientUnits="userSpaceOnUse"><stop offset="0" stop-color="#fff"/><stop offset=".253" stop-color="#fff"/><stop offset=".346" stop-color="#a7a6a6"/><stop offset=".412" stop-color="#7b7979"/><stop offset=".472" stop-color="#4f4c4c"/><stop offset="1" stop-color="#4f4c4c"/></radialGradient><linearGradient id="l" x1="-74.303" x2="-95.863" y1="785.164" y2="790.554" gradientTransform="matrix(1.3758 0 0 1.4521 247.608 -1047.5)" gradientUnits="userSpaceOnUse"><stop offset="0" stop-color="#f4f4f4"/><stop offset=".258" stop-color="#bdbcbc"/><stop offset=".648" stop-color="#f4f4f4"/><stop offset=".896" stop-color="#fff"/><stop offset="1" stop-color="#fff"/></linearGradient><linearGradient id="m" x1="1473.115" x2="1699.826" y1="1411.597" y2="1687.811" gradientTransform="matrix(.603 0 0 .6365 -744.323 -884.904)" gradientUnits="userSpaceOnUse"><stop offset="0" stop-color="#fff"/><stop offset=".069" stop-color="#e3e2e2"/><stop offset=".157" stop-color="#fff"/><stop offset=".33" stop-color="#d3d3d3"/><stop offset=".502" stop-color="#fff"/><stop offset=".98" stop-color="#bbbaba"/><stop offset="1" stop-color="#bbbaba"/></linearGradient><linearGradient id="n" x1="-100.63" x2="1.039" y1="754.091" y2="850.657" gradientTransform="matrix(1.3758 0 0 1.4521 247.608 -1047.5)" gradientUnits="userSpaceOnUse"><stop offset="0" stop-color="#dedede"/><stop offset=".507" stop-color="#4f4c4c"/><stop offset="1" stop-color="#dedede"/></linearGradient><linearGradient id="o" x1="-51.661" x2="-91.094" y1="800.867" y2="859.818" gradientTransform="matrix(1.3758 0 0 1.4521 247.608 -1047.5)" gradientUnits="userSpaceOnUse"><stop offset="0" stop-color="#c8c7c8"/><stop offset=".1" stop-color="#fff"/><stop offset=".349" stop-color="#f0f0f0"/><stop offset=".538" stop-color="#fff"/><stop offset=".714" stop-color="#393536"/><stop offset=".841" stop-color="#fff"/><stop offset=".91" stop-color="#514e4f"/><stop offset="1" stop-color="#868484"/></linearGradient><linearGradient id="p" x1="-56.012" x2="-45.642" y1="831.698" y2="837.806" gradientTransform="matrix(1.3758 0 0 1.4521 247.608 -1047.5)" gradientUnits="userSpaceOnUse"><stop offset="0" stop-color="#fff"/><stop offset=".521" stop-color="#cfcece"/><stop offset=".835" stop-color="#4f4c4c"/><stop offset="1" stop-color="#393536"/></linearGradient><linearGradient id="q" x1="-50.191" x2="-39.203" y1="803.353" y2="790.198" gradientTransform="matrix(1.3758 0 0 1.4521 247.608 -1047.5)" gradientUnits="userSpaceOnUse"><stop offset="0" stop-color="#fff"/><stop offset=".209" stop-color="#fff"/><stop offset=".5" stop-color="#dedede"/><stop offset=".945" stop-color="#9c9a9b"/><stop offset="1" stop-color="#959494"/></linearGradient><linearGradient id="a"><stop offset="0" stop-color="#231f20"/><stop offset=".179" stop-color="#f4f4f4"/><stop offset=".579" stop-color="#444041"/><stop offset="1" stop-color="#231f20"/></linearGradient><linearGradient xlink:href="#a" id="s" x1="-25.903" x2="-11.578" y1="729.856" y2="744.511" gradientTransform="matrix(1.3758 0 0 1.4521 247.608 -1047.5)" gradientUnits="userSpaceOnUse"/><linearGradient xlink:href="#a" id="t" x1="-24.183" x2="-7.887" y1="790.759" y2="780.06" gradientTransform="matrix(1.3758 0 0 1.4521 247.608 -1047.5)" gradientUnits="userSpaceOnUse"/><linearGradient id="u" x1="-11.102" x2="10.309" y1="738.712" y2="738.712" gradientTransform="matrix(1.3758 0 0 1.4521 247.608 -1047.5)" gradientUnits="userSpaceOnUse"><stop offset="0" stop-color="#656263"/><stop offset=".286" stop-color="#d3d3d3"/><stop offset=".533" stop-color="#656263"/><stop offset=".758" stop-color="#393536"/><stop offset="1" stop-color="#231f20"/></linearGradient><linearGradient id="b"><stop offset="0" stop-color="#231f20"/><stop offset=".179" stop-color="#9e9d9d"/><stop offset=".579" stop-color="#444041"/><stop offset="1" stop-color="#231f20"/></linearGradient><linearGradient xlink:href="#b" id="w" x1="-98.489" x2="-49.121" y1="850.051" y2="850.051" gradientTransform="matrix(1.3758 0 0 1.4521 247.608 -1047.5)" gradientUnits="userSpaceOnUse"/><linearGradient xlink:href="#b" id="x" x1="-35.673" x2="-13.592" y1="831.104" y2="831.104" gradientTransform="matrix(1.3758 0 0 1.4521 247.608 -1047.5)" gradientUnits="userSpaceOnUse"/><linearGradient xlink:href="#b" id="y" x1="-20.89" x2="19.667" y1="834.07" y2="834.07" gradientTransform="matrix(1.3758 0 0 1.4521 247.608 -1047.5)" gradientUnits="userSpaceOnUse"/><linearGradient id="z" x1="-100.661" x2="-58.383" y1="794.463" y2="794.463" gradientTransform="matrix(1.3758 0 0 1.4521 247.608 -1047.5)" gradientUnits="userSpaceOnUse"><stop offset="0" stop-color="#7b7979"/><stop offset=".179" stop-color="#d3d3d3"/><stop offset="1" stop-color="#231f20"/></linearGradient><linearGradient id="A" x1="-99.728" x2="-85.052" y1="768.735" y2="768.735" gradientTransform="matrix(1.3758 0 0 1.4521 247.608 -1047.5)" gradientUnits="userSpaceOnUse"><stop offset="0" stop-color="#444041"/><stop offset=".179" stop-color="#d3d3d3"/><stop offset="1" stop-color="#231f20"/></linearGradient><linearGradient id="B" x1="-112.582" x2="-102.676" y1="790.676" y2="790.676" gradientTransform="matrix(1.3758 0 0 1.4521 247.608 -1047.5)" gradientUnits="userSpaceOnUse"><stop offset="0" stop-color="#7b7979"/><stop offset=".179" stop-color="#bdbcbc"/><stop offset="1" stop-color="#444041"/></linearGradient><linearGradient id="C" x1="-60.5" x2="-59.423" y1="729.308" y2="731.677" gradientTransform="matrix(1.3758 0 0 1.4521 247.608 -1047.5)" gradientUnits="userSpaceOnUse"><stop offset="0" stop-color="#fff"/><stop offset=".115" stop-color="#eee"/><stop offset=".907" stop-color="#5a5758"/><stop offset="1" stop-color="#5a5758"/></linearGradient><linearGradient id="D" x1="-74.118" x2="-34.112" y1="753.926" y2="753.926" gradientTransform="matrix(1.3758 0 0 1.4521 247.608 -1047.5)" gradientUnits="userSpaceOnUse"><stop offset="0" stop-color="#fff"/><stop offset=".98" stop-color="#231f20"/><stop offset="1" stop-color="#231f20"/></linearGradient><linearGradient id="E" x1="-76.743" x2="-61.915" y1="852.954" y2="800.51" gradientTransform="matrix(1.3758 0 0 1.4521 247.608 -1047.5)" gradientUnits="userSpaceOnUse"><stop offset="0" stop-color="#e9e9e9"/><stop offset=".066" stop-color="#5a5758"/><stop offset=".352" stop-color="#918f90"/><stop offset=".604" stop-color="#b7b5b6"/><stop offset=".959" stop-color="#706d6e"/><stop offset="1" stop-color="#b2b1b1"/></linearGradient><path fill="#231f20" d="M275.9 191c-3.6-11.4-18.2-39.9-29.6-56-2.5-3.5-1.6-5.3-.2-6.4 1.3-1.1 5.6-5 10.6-11.1 5.1-6.1 6.3-13.1 2.7-23.2-3.6-10-15.4-33.6-17.9-41.5-2.9-9-3.1-13.1-1.4-18 2-5.8 5-6 7.2-6 1.2 0 2.1 1.4 2.1 2 .1 2.6.2 5.7 2.5 12.3 3.8 10.5 13.5 17.4 16.5 18.8 2.1 1 2.5-.8 2.3-1.6s-3.3-13.9-5.7-23.7c-2.5-10.3-3.7-12.5-5.9-14.7-3.5-3.5-8.8-5.4-13.3-5.2-10.1.4-14.5 10.7-15.1 11.6-.5.9-.7 1.4-1.7.7-2.9-2.1-11.3-9.5-12-14.2-.5-2.7-.9-3.1-3.5-4.2C203.4 6.4 194.7 2.8 185 1c-3.9-.7-4.1-1.1-8.6-.2-7.7 1.5-12.4 3.4-18.2 6.6-3.2 1.8-3.6 3-4.2 3.8-.5.7-1 1.5-2.1 1.9-1.9.7-9.1 3.5-11.5 5-1.5.9-2.4 1.9-1.6 3.7 1.4 3.2 5.5 9.9 7.3 11.6 1.1 1 3.8 1.7 4.5 1.9.6.2 1.1.4 1.3-.1.3-.6.4-1.4 1.6-2.3 1.9-1.4 5.5-2.4 7.4-2.6 1.5-.1 2.3-.2 3.1.4.7.6 2.5 2.5 3.1 4.5.6 1.9.2 2.7-.8 3.1-1 .5-4.1 1.2-7.7 1.5s-4.6-.7-4.8-1c-.2-.2-.7-.5-1 0-.6.9-1.5 1.5-2.9 2.2-.8.4-1.2 1.3-.5 2.7 2.3 4.2 5.3 8.8 8.1 9.7 2.2.7 3.4 0 5.9-1.9 2.2-1.7 3.7-1.7 4.3-1.2.7.5 2 1.7 1.7 2.9-.6 2.1-4.6 7.1-5.3 8.1s-1.4 1.5-2.7.8c-1.9-1-30.5-16.6-34.3-18.2-4.2-1.7-6.9-2.1-11-2.3-3.3-.2-7.7.2-10.5.7-2 .4-3.2 1.4-5 3.2-2.6 2.5-5.3 5.8-5.6 8.4-.2 1.9 1.9 5.9 2.1 6.2s.6.8 1.7.7 4-1.7 7.3-1.1c3.1.6 3.4 3.1 3.5 5 0 .3.4 1.1 1.3 1.1 1.2 0 3.1 0 5.3 1.1 2.7 1.4 8.1 5.7 8.9 6.7.7.8.6 1.5-.6 1.6-6.8.6-17.2 2.8-22 4.4-3.4 1.2-7.4 2.8-8.8 5.4-1.6 3-3.6 7.7-4.2 11.1s2.8 7.5 3.7 8.5c.6.6 1 1 2.1.4 1.7-1 5.7-3.6 9.6-3.9 2.3-.1 3.3 2.2 3.8 3 .6.8 1.1.3 3.2-.3 3.7-1.1 24.5-.7 31.8-.3 3.3.2 8 .7 11.4 2.7s9.6 8.1 9.6 8.1-8.2 14.5-12.6 23.1c-4.1 7.9-7.1 13.9-8.5 17.4-1.4 3.2-2.5 7.6-2.2 11.2.4 5.2.5 7.8.4 10.2-.1 2.1-1.9 2.3-4.5 3-3.6 1-10.6 1.6-16.4 3.1-5.2 1.4-7.2 2.7-8.1 6.9-.7 3.3-1.8 11.6-1.9 15.4-.1 1.5-.1 2.3 1.8 1.9 1.1-.2 4.1-.7 8-1 4.8-.4 10.1-.3 14.1-.3 7.5 0 29.5 1.3 31 1.5 1.9.2 2.3 0 2.1-1.4-.2-1.8-.5-7.7-.6-11.2s-.6-7 2.4-10.4 25.4-29.8 26.7-31.2c1.1-1.1 1.8-2.4 3.5-.8s20.2 15.7 23.9 18.6c3.8 2.9 7.2 3.9 11.5 3.9 3 .1 3.9 5.7 1.3 6.2-2.7.5-6.7 1.4-9.6 2.1-4.4 1.1-5.7 2.6-7 5.7-1.1 2.6-2.4 15.5-2.4 16.6 0 .8-.1 2 1.1 1.7 5.4-1.2 13.9-1.5 23.1-1.2 10.5.3 20.7 1.3 22.1 1.3 1.5.1 1.7-.1 2.5-1.4 1.3-2.2 5.3-7 8.7-10 1.4-1.4 1.5-2 .8-4.2m-40.3-78c-2.7.9-4.4.1-5.7-1.2S218 97 214.6 92.9c-1.7-2.1-3-6.8 2.2-8.8 4.2-1.6 11.8-4.2 13.9-5.4s3.2-2.4 3.4-4.7.2-4.9.2-5.7c0-.9 1.1-1.6 1.6-.5.4.7 2.3 4.6 4.6 9.2 3.5 6.8 7.8 15.3 9.3 18.9 1.3 3.5.7 6.1-1.4 8.8-2.8 3.7-10.9 7.6-12.8 8.3"/><path fill="url(#c)" d="M246.4 18.8c-8.3 0-16.6 10.1-15 25.1 1 9.2 2.3 13.4 4.9 19.4 1.3 2.9 15.4 31.3 16 34.3.9 4.3.1 7-3 10-3.5 3.3-9.2 7-13 8.4-.9.3-1.8.5-2.5.5-.9 0-3.1-.3-7.2-5.7l18.2 25.7c-2.3-3.3-3.5-5.8-3.1-7.9s3.7-4.5 7.6-7.7c3.8-3.1 8.1-7.1 10-12.5.6-1.5.8-3.1.8-4.8 0-5.1-2.3-10.9-5.2-17.2-3.6-8.1-14-25.9-17.1-38.4-.8-3.1-1.1-5.8-1.1-8.3 0-7.1 2.9-11.5 6.3-13.1 1.7-.7 3.2-1 4.4-1 1.9 0 3.3.6 3.8.9 1 .6 1.1 1.8 1.1 2.8V31c0 2.9.4 9.3 3.6 15.5 4.1 7.9 10.9 12.3 13.5 13.5.2.1-6.3-25.3-7.4-30.1-1.4-5.4-5.1-11-15.6-11.1q.15 0 0 0"/><path fill="url(#d)" d="M133 75.2c1.6 1.7-1.2 1.6-9.6 2.4-8.6.8-17.2 2.6-21.7 4.4-3.3 1.3-5.3 2.2-6.6 5.4s-2.7 6.3-3.1 8.8c-.2 1.2-.1 1.9.5 2.8.3.5 1.1-16.4 21.8-17.5 18.3-1 22.8-3 19.2-6.7z"/><path fill="url(#e)" d="M247.3 26.6c-1.1 0-2.5.2-4 .9-2.9 1.2-5.5 5.1-5.7 11.6v1.5s.4-4.4 1.1-6.5c1.8-5.6 5.3-6.8 7.6-6.8 1.6 0 2.3.4 2.9 1.1.5.6.9 1.1.9 2 .1 2.5.1 5.4 2.5 11.9.1.4.3.8.4 1.2-2-5.3-2.2-10.1-2.2-12.6v-1.7c.3-2.1-1.7-2.6-3.5-2.6"/><path fill="url(#f)" d="M133.7 75.9c.6 1.8-1.8 1.4-10.2 2.1-8.6.8-17.2 2.5-21.7 4.3-3.3 1.3-5.3 2.2-6.6 5.4s-2.7 6.3-3.1 8.8c-.2 1.2.1 1.9.7 2.8.9 1.5 1.4 1.8 2.7 1 1-.6 5.6-3.4 8.6-3.4 2.7-.1 3.9 1.7 4.3 3.2.2.9 1.5.5 1.7.4 1.2-.3 2.4-.7 6.6-1 5.1-.4 24.9-.2 32.2 0 6.5.2 32.3 21.5 32.7 21.6l1.3-2.8c-8.8-7.6-41.3-34.9-49.1-43z"/><path fill="url(#g)" d="M107.7 44.4c-1.6.2-2.7.3-4.4 2-1.7 1.6-4.6 3.9-5.7 6.1-.4.9-.7 1.5-.5 2.2.2 1.1.7 2.3.9 2.6.3.4.7.6 1.6.3 1.7-.5 4.8-.9 6.7-.9 1.3 0 3.2.4 4.1 1.4 1.2 1.4 1.1 2.6 1.1 3.3 0 .3.1.8.7.9 1.2.2 2.4.2 3.8.5 3.8.9 8.9 4.3 13.7 8.9 9.3 9 20.8 22.5 31.8 31.8 5.6 4.7 14.7 10.6 17.8 13.8.6.6-.6 1-1.6.5-.4-.2-5.6-4.5-6.8-4.8-1-.2-2 0-3 1.5-8.7 12.6-18.6 33.8-22.7 43.8-1 2.4-1.8 5.4-1.6 8.1.1 2.7.4 8.1.4 10.7 0 2.5-.6 3.5-3.4 4-5.1.8-16.6 3-19.5 3.8-2.2.6-4 1.6-4.9 4.3-1.2 3.9-2.2 9.9-2.3 11.3-.1.9.2 1.5 1.2 1.3 4.2-1.1 10.7-2 19.6-1.8s24.8 1.9 26.9 2.1c.7.1 1.6.1 1.6-.8 0-1-.2-5.5-.3-11.3s4.7-10 11.4-17.3c6.6-7.3 22.7-23.9 23.3-24.5.4-.4.8-.8 0-1.7-1.1-1.1-6.2-6.7-6.8-7.3-.3-.3-.9-1.2-.7-1.5s.9.2 1.6.9c3.1 2.7 37 31.4 39.3 32.6 2.4 1.1 3.9 1.4 6 1.8 1.6.3 3 2.8 3.3 4.7.2 1.9.1 4.4-2.4 5-2.5.7-8.6 1.9-10.8 2.5s-3.6 1.7-4.6 4.3c-.9 2.7-2.2 9.8-2.2 10.5 0 1.6.4 1.7 1.5 1.4 1.4-.4 3.1-.9 9.6-1.1 10.9-.4 27.5 1.1 29.6 1.3.7.1 1.3-.7 1.6-1.2 2.3-4.2 1.7-5.3 4.8-7.9 1.6-1.4 2.4-1.6 1.4-4.1-10.1-24.3-19.7-40.8-35.3-61.9-10-13.5-21.7-28.5-25.6-33.5l-47.1-28.4c-2.8-1.4-24.5-13.2-28.3-15.1-3.8-2-6.8-3.6-10.6-4.5-2.7-.6-5.4-.9-7.8-.9-2.3-.2-4.5 0-6.4.3"/><path fill="url(#h)" d="M160.1 21.1c-6.8 1.9-15.4 5.6-15.7 5.8-.2.1-.2.3-.1.5s1 1.8 1 1.8.5 1.1 1.8 1.9 2.6 1.1 2.9 1.2.5-.1.6-.3 1.4-2.7 6.1-4c2.5-.7 4.1-.8 4.9-.8 1.2 0 3.1.7 4.2 1.8 1.7 1.8 3.2 4.7 3.5 6.1s.1 3.1-1.2 3.8-5.1 1.6-7.5 1.9c-2.5.3-4.9.1-6.3-.7-.2-.1-.4-.2-.6 0-.5.5-.9.9-1.9 1.5-.2.1-.4.5-.2.9.2.5 3.2 5.7 5 7.1s2.7.8 4.9-.5 3.6-2.8 5.8-2.7c2.3.1 4.2 2.1 4.5 4.4.4 2.9-1.3 4.7-2.4 6.5-1 1.7-3.2 4.3-4.2 5.8-1.4 1.9-4 1.3-4 1.3s12.5 6.7 19.7 10.5c2.9 1.5 7.3.1 10.4-5.9.7-1.4 5.2-11.5 6.3-14.5s2.7-6.3.2-12c-2.6-5.7-10.6-16.2-13.8-20.3-1.7-2.1-3.6-3.4-7.9-3.6h-1.7c-3.8.1-8.5.8-14.3 2.5"/><path fill="url(#i)" d="M160.5 41.3c-2.4.2-4.8.1-6.1-.7q-.3-.15-.6 0c-.5.4-.8.8-1.9 1.4-.2.1-.4.4-.2.9.2.4 2.9 5.2 4.7 6.6s2.8.8 5-.5c2.2-1.2 3.7-2.7 5.9-2.7l.5-6.8c-1.3.7-5 1.6-7.3 1.8"/><path fill="url(#j)" d="M144.8 27.2c-.2.1-.1.5-.1.7.1.2.9 1.7.9 1.7s.4 1 1.7 1.7c1.2.7 2.3 1 2.6 1.1s.5-.1.6-.3 1.4-2.7 6.1-4c2.5-.7 4.1-.8 4.9-.8l-1.8-5.5c-6.3 1.8-14.6 5.2-14.9 5.4"/><path fill="url(#k)" d="M169.5 58.1c-1 1.7-3.2 4.3-4.2 5.7-1.4 1.9-3.4 1-3.4 1S173.8 71.2 181 75c2.9 1.5 7.2.5 10.2-5.5.7-1.4 5.2-11.5 6.3-14.5l-25.6-3.7c.4 3-1.4 5-2.4 6.8"/><path fill="url(#l)" d="M130.8 91.6c-3 .2-10.2.9-12.2 1.4s-5.2 3.3-5.7 3.8c-.7.8-.7 1.5-.2 1.7s1.5 0 2.3 0c2.5-.2 9.3-.5 17-.5 4 0 8.3 0 11.8.1 3.6.1 6.1.1 6.3.1-3-3.4-5.5-7.6-6.5-7.6h-.1c-1.3 0-11.8 1-12.7 1"/><path fill="#7f7d7e" d="m112.7 98.6.1-.1zc-.3-.1-.5-.4-.5-.7 0-.4.2-.8.6-1.3.5-.5 3.7-3.3 5.8-3.8s9.2-1.2 12.2-1.4c.8 0 11.4-1 12.8-1h.1c.3 0 .7.3 1.1.8s.9 1.1 1.5 1.8c1.1 1.5 2.5 3.4 4 5.1l.2.2h-.5c-1.3 0-9.4-.2-16.9-.2H132c-7.7 0-14.5.2-17 .5-.6.1-1.2.1-1.7.1-.1.1-.4 0-.6-.1m.7-.2c.5 0 1.1-.1 1.7-.1 2.5-.2 9.3-.4 17-.5h1.1c7.1 0 15 .2 16.7.2-2.1-2.5-4-5.3-5.2-6.6-.4-.4-.8-.7-.9-.7h-.1c-1.4 0-12 1-12.8 1-3 .2-10.2.9-12.2 1.4-1.9.5-5.2 3.3-5.6 3.7s-.5.8-.5 1 .1.3.3.4c.1.2.3.2.5.2"/><path fill="url(#m)" d="M158.8 10.2c-2.7 1.7-2.8 3.8-4.6 4.9-1.9 1.1-6.1 2.2-10.6 4.3-2.5 1.2-2.5 1.4-1.9 2.8.2.6 1.8 3.7 2.7 3.7.8 0 1.8-.4 2.8-.8 1.3-.6 10.2-4.2 17.2-5.7 7.8-1.8 16.2-1.9 19.2 1.4 4.5 5.1 12.5 16.4 14.9 21.4 2.4 4.9 2.1 7.2.6 12.2-1.5 4.6-7 16.6-8.6 19.1s-3.6 3.9-8.3 1.8c-5.1-2.2-23.7-12.3-27.7-14.4-2.7-1.5-14.2-7.6-22.9-12.2-3.2-1.7-5.9-2.9-8.7-3.7-6.4-1.7-13.3-.9-16.4-.4-1.4.3-2.3 2.7-2.3 3.7.1.8 1.6.7 3.4.6.9-.1 2-.1 2.9 0 2.3.2 10 1 14.5 3 4.7 2 28.4 15.5 34.4 18.9 45.5 26.1 65 43 100.2 105.4 1.6 2.8 2.3 6.2-.2 7-3.6 1.1-18.6 4.1-23.1 5.7-3.8 1.3-4.3 1.6-4.9 3.6-.6 2.3-1.6 6.8-1.4 7.7.1.4-.2.9.6.9 4.2 0 19.4 0 31 1.2 1.4.2 1.5.1 2.4-1.3 1-1.7 5.1-6.5 7.7-8.6 1.1-.9.4-2.5.2-3-3.3-8.9-12.8-28.1-25.6-48.1-12.7-19.7-34.1-46.3-37.1-50.7-2.9-4.3-4-9.2 2-11.2 3.9-1.3 13.5-3.4 17.3-4.6 3.8-1.1 4.1-2.4 4.4-5.5.3-3.3-.5-19.6-2.4-29.2-.4-2-1.7-3.7-3.2-4.8-1.4-1-6.6-5.8-9.5-9.3-3.3-4-4.8-7.8-5.4-10.7s-.1-.6-.7-1.3c-.2-.3-.4-.4-.8-.6-5.7-3.7-25.8-9.5-29.9-9.9h-.8c-3.9-.2-13 1.4-21.4 6.7"/><path fill="url(#n)" d="M105 49.2c1.4 0 4.7-.1 6.9.1 4.2.5 9.6 1.7 13 3.1 4.8 2 27.2 16.1 33 19.5 17.5 10.4 30.7 20 43.2 30.6 19 16.2 35.5 35 56.1 73.1.8 1.5 1.2 2.6 1.2 4 .1 2.1-1.7 2.9-2.2 3.1-3.5 1.1-18.1 4.6-22.4 6.2-3.7 1.4-4.3 2.2-4.9 4-.2.7-.8 4.4-1.5 5.3-.7 1-2.4 1.2-4.2 1.2-1.1 0-1.6.1-1.5-1.2s.8-4.8 1.2-6.8 1.2-3.5 2.9-4.6 7.8-2.1 11.2-3 3.6-2.5 3.5-5.2c0 2.9-.9 3.6-4.3 4.4-3.5.8-9.3 1.6-11.2 3-1.9 1.3-2.6 3.2-2.9 4.7-1.2 5.1-1.9 8.8-1.8 10.1.1 1.1.5 1.3 1.7 1.1 1.2-.1 4.1-.6 8.5-.7 1.3 0 1.2-1.7 1.2-3.5 0-.7 0-2.7.4-3.6.3-1 1-1.9 2.1-2.2 2.4-.8 16-4.7 22.8-6.8 3-.9 4.3-2 4-4.8-.2-2.5-2.4-6.3-6.4-12.8-3.9-6.5-8.9-15.4-15.5-25.3-11.7-17.5-23.2-31.1-37.5-43.1-10.6-9.1-21.7-16.2-29.9-21.2-8.1-5-42.5-24.9-47.8-26.6-4.8-1.6-8.7-2.1-12.1-2.5-2.3-.2-4.3-.1-6.4-.1-2 0-1.3-1.7-1-2.4-.2.6-1.3 2.9.6 2.9"/><path fill="url(#o)" d="M167.6 114.5c-1.3 1.7-8.1 13-13.5 23.5-4 7.6-8.7 18.5-9.6 21.1-.8 2.4-1 4.6-.9 7.3s.5 7 .7 10.2c.1 3-.6 4.3-3.5 4.9-2.5.5-15.8 2.8-19.1 3.7-3.3.8-4.3 2.6-5 5.1s-1.6 7.3-1.6 8.4.1 1.3 1.1 1.1c.9-.1 3-.3 3.8-.4.9-.1.7-.7.9-1.7.2-.9.4-2.3.9-4.5s1.1-3.9 4-4.8 16-3.1 18.2-3.8c2.2-.6 3.6-1.7 3.9-4s-.2-7.3-.3-11.3c-.1-4.2-.1-6.1 2.1-10.7 4.3-8.8 17.8-29.5 27-41.5s-.9-.7-1.9-1.5c-1.3-1-3-2.3-4-2.6-.3-.1-.6-.1-.8-.1-1 0-1.6.6-2.4 1.6"/><path fill="url(#p)" d="M165.9 175.2c-2.5 5.7-3.2 8.9-3.2 11.8 0 2.5.2 3.3.2 3.3-.1-2.5.8-4.8 2.3-7 2-3.1 5.1-6.2 8.9-10.4 6.7-7.3 23-24.1 23.6-24.8.4-.4.8-.9-.1-1.9-1.6-1.6-2.5-2.7-5-5.4-1.6-1.6-2.6-2.6-2.6-3.2 0 .1-18.2 21.6-24.1 37.6"/><path fill="url(#q)" d="m105.2 49.2 150.6 133.6c1.5-.4 2.5-1.5 2.6-2.7.1-1.3-.2-2.5-1-4-20.9-38.6-36.6-56.7-55.7-73-3.3-2.8-6.6-5.6-10.1-8.4-9.7-7.6-20.3-14.8-33.1-22.6-3.7-2.2-14.1-8.6-22.4-13.6-4.8-2.9-8.9-5.2-10.7-6-3.3-1.5-8.6-2.7-13-3.2-1.4-.2-2.8-.2-4.4-.2-.9.1-1.8.1-2.8.1"/><path fill="url(#s)" d="M211.5 11.8c.4.3.8.5 1.1.8 1 1 1.2 2 1.3 2.2.5 2.6 1.9 6.1 5 9.9 2.7 3.3 8.3 8.2 9.5 9 .7.5 1.5 1.1 2.1 1.8.4-2 1-4.2 1.8-6.3-.1.2-.3.5-.5.9-.3.4-.8.9-1.7 1h-.1c-.7 0-1.2-.3-1.7-.6-3-2.4-11.5-9.3-12.7-15.2-.8-2.8.2-1.5-2.5-3-.8-.3-1.5-.6-2.2-.9.1.1.4.2.6.4"/><path fill="url(#t)" d="M229.1 76.2c-4 1.2-13.8 3.3-17.6 4.5-2.8 1.1-3.2 2-3.3 3.5 0 1.4.6 3.5 1.9 5.4 1.5 2.2 8.6 10.7 16.5 21.2.9 1.2 1.3 1.6 2 2.4-.3-.4-11.5-15.3-14.9-19.4-1-1.2-2.1-2.8-2.1-5 0-2.1 1.5-5.1 4.7-6.3 4.2-1.6 12-4.3 13.7-5.3s2.2-1.5 2.5-2.7c-.8.8-2 1.3-3.4 1.7"/><path fill="url(#u)" d="M246.4 18.6c-7.5.2-12.6 7-14.1 13.3 1.5-5.7 6.4-12.3 14.1-12.3 9.8 0 13.9 3.9 15.3 9.8-1.7-8-8.2-10.7-14.8-10.7-.1-.1-.3-.1-.5-.1"/><path fill="url(#w)" d="M175.4 173.7c-7.6 8.2-11.1 10.8-10.9 15.9.1 3 .3 10.5.3 11.6 0 .8.1 1.5-1.1 2.1-.6.3-1.6.3-2.1.3-2.1 0-22.2-2.1-29.2-2.1-7.1 0-13.1.8-16.7 1.8-.6.1-2.1 0-2.7-.9-.3-.5-.4-1-.5-1.4-.2 1.4-.3 3.1-.3 3.9 1.3-.3 4.3-.7 8.1-1 4.9-.4 10.5-.3 14.3-.3 3.7 0 31.4 1.5 31.5 1.5-.2-2.2-.5-7.6-.5-10.9 0-.9 0-.9-.1-3.2 0-2.6.5-5.7 2.9-8.4 1.3-1.5 6.4-7.5 11.8-13.8-1.9 1.8-3.5 3.6-4.8 4.9"/><path fill="url(#x)" d="M198.5 149.3c.8.1 1.5.6 2.1 1.2 1.4 1.4 20.1 15.6 23.8 18.4 1.6 1.2 3 2 4.5 2.6-1.3-.9-3.1-2.4-5.6-4.4-3.6-2.9-8.1-6.7-12.7-10.5-3.9-3.2-7.7-6.5-11-9.3-.1 1.2-.8 1.8-1.1 2"/><path fill="url(#y)" d="M243.2 128.9c-.2.5-.4 1.2-.4 2.2 0 1.2.4 2.9 1.9 5.2.9 1.3 1.8 2.6 2.6 3.9 12.9 20.1 22 39.6 25.4 48.7.7 2.2.6 3.3-.1 4.3s-6.7 7.3-7.6 8.6c-.3.5-.6 1-1.1 1.4s-1.6.7-2.8.6c-10-1-20.8-1.4-26.2-1.4-7.1 0-11.2.7-13.5.8-1.3 0-2.2-.3-2.3-.5s0-.1-.1-.1c-.1 1-.2 1.8-.2 2.2 4.3-.8 10-1.2 16.4-1.2 2 0 4.1 0 6.3.1 10.5.3 22.7 1.4 22.8 1.4s5.9-7.9 9.5-11c.6-.5.9-.5.9-1 0-.4-.2-1-.5-1.9-3.8-11.4-18.1-39.4-29.2-55-1.1-1.5-1.8-3.5-1.8-4.9 0-1.8.9-3.1 1.8-3.9.8-.7 2.7-2.4 5.1-5-3.9 3-6.6 5.4-6.9 6.5"/><path fill="url(#z)" d="M116.5 100.9c-4.2.3-6.3.9-6.7 1s-.7.1-.7.1c.1.2.3.5.3.6.1 0 .3-.1.6-.2 2.6-.8 8.2-1.1 15.4-1.2 6.8 0 14.2.1 18 .2 3.4.2 8.3.7 12.1 2.9 3.6 2.1 11.4 7.8 11.8 7.5-3.2-2.4-6.5-4.7-9.5-6.7-4-2.6-7.8-4.5-8.9-4.4-12.2-.2-12.2-.2-19.3-.2-5.7 0-11 .2-13.1.4"/><path fill="url(#A)" d="M111.1 64.3h.8c1.2 0 3.1-.1 4.8.8 3.1 1.6 11 7.7 12.2 9.1 1.5 1.8 3 1.6 1.7.4-4.6-4.5-11.6-9.7-14.9-10.5-1.2-.3-2.8-.4-4.1-.5-1-.1-.9-1.3-1.2-1.5 0 .2.1 2.1.7 2.2"/><path fill="url(#B)" d="M103.9 98.3c-2.2 0-7.7 2.9-8.5 3.5-1.3.8-1.8.8-2.6-.2.4.9 1 1.5 1.6 1.3s7.2-3.8 10.1-3.8c1 0 1.2 0 2 .3-.5-.8-1-1.2-2.3-1.2-.2.1-.3.1-.3.1"/><path fill="url(#C)" d="M168.4 10.8c-1.5.3-6.3 1.6-6.8 1.8s-.8.3-1.1.9-.5 1.8-.3 2.3c.1.5.6.9 1.4.6 1-.4 6.9-2.7 8-3.1.5-.2.6-.4.7-.6.2-.4.2-1 .2-1.4-.1-.5-.4-.6-.8-.6-.5-.1-.9 0-1.3.1"/><path fill="#231f20" d="M168.2 11.3c.7-.1 1-.1 1 .3v.8c0 .2-.1.3-.4.5-.7.2-5 1.9-6.1 2.3-1 .4-1.4.2-1.5-.2s.1-1.1.2-1.4c.2-.3.4-.5.8-.6.7-.3 4.8-1.4 6-1.7"/><path fill="url(#D)" d="M174.7 17.9c-12.3.3-23 5.8-29 8.4 4.3-1.6 14.7-6.1 26.3-6.8 6.4-.4 8.9.2 11.3 2.9 3.4 3.9 11.3 15.2 14.1 20.8q1.65 3.45 1.5 6c-.2 2.6-1.1 4.5-1.8 6.3-1.2 3-5.8 12.7-6.5 14.1-3.3 6-6.4 5.8-9.8 5 .2.1 1.7.9 3.1 1.5 3.9 1.7 6.4-.7 8.6-5.1.7-1.4 5.5-12.1 6.7-15.2.7-1.9 1.6-3.9 1.6-6.3 0-1.6-.4-4.1-1.5-6.4-2.6-5.9-11-17.1-14.3-21.3-2.6-3.2-5-4-9-4-.5.1-.9.1-1.3.1"/><path fill="url(#E)" d="M160.2 139.7c-4.4 7.3-10.6 18.3-11.6 20.7-.9 2.2-1.2 4.2-1.2 6.8s.4 11.8.4 11.9c0 1.5-.2 2.7-.9 3.6-.8.9-1.9 1.4-3.5 1.6-2.6.4-14.8 2.4-18.2 3.1-3.3.7-4.6 2.3-5.3 4.6-.5 1.6-1.1 4.4-1.1 5.7v.7c-.1 1.3.3 1.2.3 1.2s14.1-1.1 22.6-.6c8.4.5 20 1.7 20 1.7s-12.2-2.4-20.5-3c-4.1-.3-9-.2-12.8 0-3.8.1-6.6.2-6.7-.1-.1-.4-.3-.9-.2-2 .1-.7.3-1.5.5-2.3.5-2.2 1.5-4.1 4.7-4.9 3.1-.8 15-2.9 17.2-3.5s3.7-1.5 4-3.4c.1-.6.2-1.9.2-3.1 0-2.5-.4-9.2-.4-9.6.1-4.1.2-6.3 2.8-10.7 3.9-6.9 18.8-30.7 26.2-39 .5-.5.7-1 1.5-.8-.2 0-.3-.1-.5-.2-.1-.1-.7-.5-1.5-1.1-2 2-10.3 12.9-16 22.7"/><path fill="#0d224a" d="M0 254.5v34.8h9.1v-10.7h8.1c17.4 0 26.3-5.9 26.3-12.4 0-7-9.5-11.7-25.5-11.7zm9.1 20.3v-16.4h7.1c7.4 0 17.1 1.3 17.1 7.8 0 4.4-3.2 8.7-18.3 8.7 0-.1-5.9-.1-5.9-.1m86.2 14.5v-4.4H72.9c-4.8 0-6.2-2.3-6.2-6.2v-5.1H93v-4.4H66.7v-10.4h27.4v-4.4H57.6v24.4c0 6.5 2.6 10.4 10.9 10.4h26.8zm58-34.8h-9.1v29.4c-2.5.9-5.8 1.7-10.7 1.7-7 0-13.9-1.9-13.9-8.3v-22.8h-9.1V278c0 9.6 9.1 12.4 19.1 12.4 9.5 0 17.3-2.1 23.7-4.9zm25.3 17.5c0-9.7 7.8-14.2 17.2-14.2 7.8 0 13.8 2.4 19.4 4.4v-5.8c-6-1.9-11.6-2.9-19.4-2.9-15.2 0-27.6 7.4-27.6 18.5 0 11.8 12.4 18.4 27.6 18.4 7.6 0 15.5-1.7 20.4-3v-13.8h-8.9v10.3c-3.3 1.2-5.7 2.1-10.8 2.1-10.4 0-17.9-5.4-17.9-14m91.8 17.3v-4.4H248c-4.8 0-6.2-2.3-6.2-6.2v-5.1h26.3v-4.4h-26.3v-10.4h27.4v-4.4h-36.5v24.4c0 6.5 2.6 10.4 10.9 10.4h26.8zm39.3-35.9c-15.2 0-27.6 7.5-27.6 18.7 0 11.8 12.4 18.2 27.6 18.2s27.6-6.4 27.6-18.2c0-11.2-12.4-18.7-27.6-18.7m0 33.1c-10.3 0-17.3-5.6-17.3-14.3 0-9.6 7.8-14.4 17.3-14.4s17.2 4.8 17.2 14.4c.1 8.7-6.9 14.3-17.2 14.3m35-27h18.1v29.8h9.1v-29.8H390v-5h-45.3z"/></svg>