<svg xmlns="http://www.w3.org/2000/svg" width="423.177" height="795.99" viewBox="0 0 423.177 795.99"><path d="M523.958 795.99c3.646 0 6.407-2.76 7.344-5.47L735.521 9.168V7.344c0-4.584-2.708-7.344-5.469-7.344-1.823 0-2.76 0-2.76.937l-203.334 92.5-201.51-92.5C321.51 0 320.573 0 319.688 0c-3.646 0-7.344 2.76-7.344 7.344 0 0 0 .886.937 1.823L518.437 790.52c0 2.708 2.76 5.469 5.521 5.469" style="fill:#000;fill-opacity:1;fill-rule:nonzero;stroke:none;stroke-width:13.3333" transform="translate(-312.344)"/><path d="M523.958 738.281 709.896 30.208 523.958 114.48 338.906 30.21z" style="fill:#fff;fill-opacity:1;fill-rule:nonzero;stroke:none;stroke-width:13.3333" transform="translate(-312.344)"/><path d="M523.958 680.573 687.917 55.885l-163.959 74.167-163.073-74.167z" style="fill:#c72830;fill-opacity:1;fill-rule:nonzero;stroke:none;stroke-width:13.3333" transform="translate(-312.344)"/><path d="m523.958 152.031-11.927 58.646-89.74 11.927 89.74 11.875 11.927 56.823 12.813-56.823 89.792-11.875-89.792-11.927z" style="fill:#fff;fill-opacity:1;fill-rule:nonzero;stroke:none;stroke-width:13.3333" transform="translate(-312.344)"/></svg>