<svg xmlns="http://www.w3.org/2000/svg" xml:space="preserve" id="Ñëîé_1" x="0" y="0" viewBox="0 0 512 512"><style>.st2{fill:#201600}</style><linearGradient id="SVGID_1_" x1="-222.675" x2="-221.291" y1="-24.6" y2="-24.6" gradientTransform="rotate(210 40558.46 6258.056)scale(-353.4615 353.4615)" gradientUnits="userSpaceOnUse"><stop offset="0" style="stop-color:#ccc"/><stop offset=".557" style="stop-color:#cecece"/><stop offset="1" style="stop-color:#666"/></linearGradient><path d="M394.91 502.45c-6.09 6.09-14.11 9.55-22.83 9.55H140.3c-8.72 0-16.88-3.46-22.97-9.55s-9.55-14.39-9.55-22.97V32.52C107.78 14.53 122.31 0 140.3 0h231.65c17.99 0 32.38 14.67 32.38 32.52v446.96c-.15 8.58-3.19 16.88-9.42 22.97" style="fill:url(#SVGID_1_)"/><linearGradient id="SVGID_00000001652886284683813030000004437667791277665423_" x1="-221.961" x2="-220.578" y1="-25.167" y2="-25.167" gradientTransform="translate(41434.309 4939.569)scale(186.1)" gradientUnits="userSpaceOnUse"><stop offset="0" style="stop-color:#fff"/><stop offset="1" style="stop-color:#fff"/></linearGradient><path d="M371.94 19.51H140.3c-7.2 0-13.01 5.81-13.01 13.01v446.96c0 3.46 1.38 6.78 3.87 9.27s5.81 3.87 9.27 3.87h231.78c3.46-.14 6.5-1.38 8.99-3.87s3.6-5.81 3.6-9.27V32.52c.01-7.2-5.66-13.01-12.86-13.01" style="fill:url(#SVGID_00000001652886284683813030000004437667791277665423_)"/><path d="M371.94 19.51H140.3c-7.2 0-13.01 5.81-13.01 13.01v446.96c0 3.46 1.38 6.78 3.87 9.27s5.81 3.87 9.27 3.87h231.78c3.46-.14 6.5-1.38 8.99-3.87s3.6-5.81 3.6-9.27V32.52c.01-7.2-5.66-13.01-12.86-13.01m4.98 460.94c0 2.63-2.21 4.84-4.84 4.84H140.3c-1.25 0-2.49-.55-3.32-1.38-.97-.97-1.38-2.08-1.38-3.46v-73.06h241.33c-.01 0-.01 73.06-.01 73.06m0-82.34H135.45V109.73l241.47-.28zm0-297.79H135.45V31.55c0-1.25.55-2.49 1.38-3.46.97-.97 2.08-1.38 3.32-1.38h231.92c1.25 0 2.49.55 3.46 1.38.97.97 1.38 2.08 1.38 3.46.01 0 .01 68.77.01 68.77" class="st2"/><path d="M259.58 93.41c.42-1.11.69-2.21.83-4.29V40.13c-.14-2.08-.42-3.04-.83-4.29h7.47c-.42 1.11-.69 2.21-.83 4.29v44.28c0 1.66 1.8 3.6 5.54 3.6 3.87 0 9.96 0 12.87-1.52l-4.29 6.78zm39.44 0c.42-1.11.69-2.21.83-4.29V40.13c-.14-2.08-.42-3.04-.83-4.29h7.47c-.42 1.11-.69 2.21-.83 4.29v44.42c0 1.66 1.8 3.6 5.54 3.6 3.87 0 9.96 0 12.87-1.52l-4.29 6.78zm59.78-46.08 2.63-6.5c-1.11-.14-2.63-.69-4.57-1.38-1.8-.83-5.12-2.21-8.3-2.21s-12.04 1.94-12.45 11.35c-.42 7.89 4.84 11.62 6.78 13.28 2.77 2.08 9.96 7.47 13.15 12.04 3.18 4.43 4.84 13.7-6.64 15.08-3.87 0-8.3-1.94-10.66-3.46l.97 8.03c2.35-.42 3.74.14 4.7.28 1.8.14 4.15.69 6.37.55 2.21-.14 13.98-2.08 13.98-13.28 0-9.96-6.92-14.81-9.69-17.02-1.94-1.38-8.44-7.06-10.93-8.99-1.8-1.38-4.84-11.62 4.29-11.9 4.69-.3 8.84 3.3 10.37 4.13m-92.16 424.13c.14 2.08.42 3.04.83 4.29H260c.42-1.11.69-2.21.83-4.29v-26.02l-15.36-27.12h6.78l11.62 20.62 11.62-20.62h6.78l-15.78 27.12v26.02zm93.12-32.25h-10.1c-1.8 0-3.18-.69-3.18-3.04v-9.13c0-1.66 1.8-3.6 5.54-3.6 3.87 0 7.2 0 10.1 1.52l-1.52-6.78h-20.76c.42 1.11.69 2.21.83 4.29v48.99c-.14 2.08-.42 3.04-.83 4.29h20.76l4.29-6.78c-2.91 1.52-8.99 1.52-12.87 1.52-3.87 0-5.54-1.94-5.54-3.6v-18.82c0-2.35 1.38-3.04 3.18-3.04h10.1zm-32.79-11.07c-4.43-3.46-9.82-4.98-15.5-4.98-12.73 0-23.11 11.21-23.11 23.94s10.38 24.35 23.11 24.35c6.37 0 12.18-.69 16.33-4.84l.28 7.06c-4.7 3.32-10.38 3.46-16.61 3.46-15.78 0-28.64-14.11-28.64-29.89s12.87-29.47 28.64-29.47c5.67 0 10.38.83 14.81 3.74zM219.03 35.98c-15.78 0-28.64 12.87-28.64 28.64s12.73 28.64 28.64 28.64c15.78 0 28.64-12.87 28.64-28.64s-12.86-28.64-28.64-28.64m0 51.75c-12.73 0-23.11-10.38-23.11-23.11s10.38-23.11 23.11-23.11 23.11 10.38 23.11 23.11-10.38 23.11-23.11 23.11m-3.73 330.59c-15.78 0-28.64 12.87-28.64 28.64 0 15.78 12.73 28.64 28.64 28.64 15.78 0 28.64-12.87 28.64-28.64s-12.87-28.64-28.64-28.64m0 51.75c-12.73 0-23.11-10.38-23.11-23.11s10.38-23.11 23.11-23.11 23.11 10.38 23.11 23.11-10.38 23.11-23.11 23.11M166.73 63.24c-.55-.69-.55-1.8.42-1.8h2.63c7.06 0 12.73-5.67 12.73-12.73s-5.67-12.73-12.73-12.73h-18.27c.42 1.11.69 2.21.83 4.29v48.99c-.14 2.08-.42 3.04-.83 4.29h7.47v-.14c-.42-1.11-.69-2.21-.83-4.29V64.9c0-1.8 1.11-1.8 1.94-.69l24.77 29.2h7.47zm-8.44-7.75V41.65h11.62c3.87 0 6.92 3.04 6.92 6.92 0 3.74-3.04 6.92-6.92 6.92zm4.84 389.26c-.55-.69-.55-1.8.42-1.8h2.77c7.06 0 12.73-5.67 12.73-12.73s-5.67-12.73-12.73-12.73h-18.27c.42 1.11.69 2.21.83 4.29v48.99c-.14 2.08-.42 3.04-.83 4.29l7.2-.14c-.42-1.11-.69-2.21-.83-4.29v-24.22c0-1.8 1.11-1.8 1.94-.69l24.77 29.2h7.61zm-8.58-7.75v-13.84h11.62c3.87 0 6.92 3.04 6.92 6.92s-3.04 6.92-6.92 6.92zm109.04-80.54h45.94c-7.06-3.74-9.55-13.7-9.96-23.11-4.57-43.04-28.51-76.52-34.32-85.24 27.26-16.33 39.3-41.38 39.3-64.48 0-38.47-33.9-56.6-63.24-56.6h-77.35c2.91 4.15 4.98 5.81 4.98 15.36v195.94c0 9.55-4.15 14.11-7.06 18.27h35.15c-2.91-4.15-7.06-8.72-7.06-18.13v-71.96c23.66-.42 43.45-4.29 59.36-10.66 24.22 25.88 27.12 63.52 27.54 73.89.28 10.12-5.11 19.25-13.28 26.72m-73.62-107.93V140.59h45.53c31.41 0 41.79 19.93 41.38 40.96-2.22 58.26-60.06 66.98-86.91 66.98" class="st2"/><path d="M231.21 289.07c10.93-.14 21.31-1.11 30.58-2.63-1.25-4.15-5.81-13.28-8.03-17.02-8.44 1.38-16.33 1.94-22.56 1.94v-4.57c-2.91.97-15.78 2.91-21.03 3.46v90.78c0 9.55-4.15 14.11-7.06 18.13h35.15c-2.91-4.15-7.06-8.72-7.06-18.13v-71.96zm37.36-126.48h-37.22v74.03c-4.7 1.66-14.25 4.7-21.03 5.4v-77.77c0-9.55-2.08-11.21-4.98-15.36h51.48c4 2.63 9.68 8.58 11.75 13.7m36.54 216.01h45.25s-5.81-3.74-8.16-14.25c-2.35-10.52-1.8-28.92-11.62-51.06-8.03-17.85-18.96-36.26-22.97-42.76 12.04-7.33 26.85-20.34 35.01-42.21 15.22-40.82-13.98-71.26-41.51-76.52 0 0 7.61 13.7 8.72 23.66 0 0 17.3 19.1 4.15 52.31-10.24 25.74-33.9 33.9-33.9 33.9l8.44 17.57s1.25-.28 3.18-.97c5.26 5.95 25.74 31.69 26.85 72.23-.02-.26 1.36 16.48-13.44 28.1" class="st2"/></svg>