<?xml version="1.0" encoding="utf-8"?>
<!-- Generator: Adobe Illustrator 26.5.0, SVG Export Plug-In . SVG Version: 6.00 Build 0)  -->
<svg version="1.1" id="Ñëîé_1" xmlns="http://www.w3.org/2000/svg" xmlns:xlink="http://www.w3.org/1999/xlink" x="0px" y="0px"
	 viewBox="0 0 512 512" style="enable-background:new 0 0 512 512;" xml:space="preserve">
<style type="text/css">
	.st0{fill:url(#SVGID_1_);}
	.st1{fill:url(#SVGID_00000121981207018520549820000006343698716466281090_);}
	.st2{fill:#201600;}
</style>
<g>
	
		<linearGradient id="SVGID_1_" gradientUnits="userSpaceOnUse" x1="-222.6747" y1="-24.6001" x2="-221.2909" y2="-24.6001" gradientTransform="matrix(306.1067 176.7307 176.7307 -306.1067 72554.0938 31956.9141)">
		<stop  offset="0" style="stop-color:#CCCCCC"/>
		<stop  offset="0.5566" style="stop-color:#CECECE"/>
		<stop  offset="1" style="stop-color:#666666"/>
	</linearGradient>
	<path class="st0" d="M394.91,502.45c-6.09,6.09-14.11,9.55-22.83,9.55H140.3c-8.72,0-16.88-3.46-22.97-9.55
		c-6.09-6.09-9.55-14.39-9.55-22.97V32.52C107.78,14.53,122.31,0,140.3,0h231.65c17.99,0,32.38,14.67,32.38,32.52v446.96
		C404.18,488.06,401.14,496.36,394.91,502.45z"/>
	
		<linearGradient id="SVGID_00000001652886284683813030000004437667791277665423_" gradientUnits="userSpaceOnUse" x1="-221.9614" y1="-25.1666" x2="-220.5776" y2="-25.1666" gradientTransform="matrix(186.1 0 0 186.1 41434.3086 4939.5688)">
		<stop  offset="0" style="stop-color:#FFFFFF"/>
		<stop  offset="1" style="stop-color:#FFFFFF"/>
	</linearGradient>
	<path style="fill:url(#SVGID_00000001652886284683813030000004437667791277665423_);" d="M371.94,19.51H140.3
		c-7.2,0-13.01,5.81-13.01,13.01v446.96c0,3.46,1.38,6.78,3.87,9.27s5.81,3.87,9.27,3.87h231.78c3.46-0.14,6.5-1.38,8.99-3.87
		c2.49-2.49,3.6-5.81,3.6-9.27V32.52C384.81,25.32,379.14,19.51,371.94,19.51z"/>
	<path class="st2" d="M371.94,19.51H140.3c-7.2,0-13.01,5.81-13.01,13.01v446.96c0,3.46,1.38,6.78,3.87,9.27s5.81,3.87,9.27,3.87
		h231.78c3.46-0.14,6.5-1.38,8.99-3.87c2.49-2.49,3.6-5.81,3.6-9.27V32.52C384.81,25.32,379.14,19.51,371.94,19.51z M376.92,480.45
		c0,2.63-2.21,4.84-4.84,4.84H140.3c-1.25,0-2.49-0.55-3.32-1.38c-0.97-0.97-1.38-2.08-1.38-3.46v-73.06h241.33
		C376.92,407.39,376.92,480.45,376.92,480.45z M376.92,398.11H135.45V109.73l241.47-0.28V398.11z M376.92,100.32H135.45V31.55
		c0-1.25,0.55-2.49,1.38-3.46c0.97-0.97,2.08-1.38,3.32-1.38h231.92c1.25,0,2.49,0.55,3.46,1.38c0.97,0.97,1.38,2.08,1.38,3.46
		C376.92,31.55,376.92,100.32,376.92,100.32z"/>
	<path class="st2" d="M259.58,93.41c0.42-1.11,0.69-2.21,0.83-4.29V40.13c-0.14-2.08-0.42-3.04-0.83-4.29h7.47
		c-0.42,1.11-0.69,2.21-0.83,4.29v44.28c0,1.66,1.8,3.6,5.54,3.6c3.87,0,9.96,0,12.87-1.52l-4.29,6.78L259.58,93.41L259.58,93.41z"
		/>
	<path class="st2" d="M299.02,93.41c0.42-1.11,0.69-2.21,0.83-4.29V40.13c-0.14-2.08-0.42-3.04-0.83-4.29h7.47
		c-0.42,1.11-0.69,2.21-0.83,4.29v44.42c0,1.66,1.8,3.6,5.54,3.6c3.87,0,9.96,0,12.87-1.52l-4.29,6.78H299.02z"/>
	<path class="st2" d="M358.8,47.33l2.63-6.5c-1.11-0.14-2.63-0.69-4.57-1.38c-1.8-0.83-5.12-2.21-8.3-2.21s-12.04,1.94-12.45,11.35
		c-0.42,7.89,4.84,11.62,6.78,13.28c2.77,2.08,9.96,7.47,13.15,12.04c3.18,4.43,4.84,13.7-6.64,15.08c-3.87,0-8.3-1.94-10.66-3.46
		l0.97,8.03c2.35-0.42,3.74,0.14,4.7,0.28c1.8,0.14,4.15,0.69,6.37,0.55c2.21-0.14,13.98-2.08,13.98-13.28
		c0-9.96-6.92-14.81-9.69-17.02c-1.94-1.38-8.44-7.06-10.93-8.99c-1.8-1.38-4.84-11.62,4.29-11.9
		C353.12,42.9,357.27,46.5,358.8,47.33z"/>
	<path class="st2" d="M266.64,471.46c0.14,2.08,0.42,3.04,0.83,4.29h-7.47c0.42-1.11,0.69-2.21,0.83-4.29v-26.02l-15.36-27.12h6.78
		l11.62,20.62l11.62-20.62h6.78l-15.78,27.12v26.02H266.64z"/>
	<path class="st2" d="M359.76,439.21h-10.1c-1.8,0-3.18-0.69-3.18-3.04v-9.13c0-1.66,1.8-3.6,5.54-3.6c3.87,0,7.2,0,10.1,1.52
		l-1.52-6.78h-20.76c0.42,1.11,0.69,2.21,0.83,4.29v48.99c-0.14,2.08-0.42,3.04-0.83,4.29h20.76l4.29-6.78
		c-2.91,1.52-8.99,1.52-12.87,1.52c-3.87,0-5.54-1.94-5.54-3.6v-18.82c0-2.35,1.38-3.04,3.18-3.04h10.1V439.21z"/>
	<path class="st2" d="M326.97,428.14c-4.43-3.46-9.82-4.98-15.5-4.98c-12.73,0-23.11,11.21-23.11,23.94
		c0,12.73,10.38,24.35,23.11,24.35c6.37,0,12.18-0.69,16.33-4.84l0.28,7.06c-4.7,3.32-10.38,3.46-16.61,3.46
		c-15.78,0-28.64-14.11-28.64-29.89s12.87-29.47,28.64-29.47c5.67,0,10.38,0.83,14.81,3.74L326.97,428.14z"/>
	<path class="st2" d="M219.03,35.98c-15.78,0-28.64,12.87-28.64,28.64s12.73,28.64,28.64,28.64c15.78,0,28.64-12.87,28.64-28.64
		S234.81,35.98,219.03,35.98z M219.03,87.73c-12.73,0-23.11-10.38-23.11-23.11s10.38-23.11,23.11-23.11s23.11,10.38,23.11,23.11
		S231.76,87.73,219.03,87.73z"/>
	<path class="st2" d="M215.3,418.32c-15.78,0-28.64,12.87-28.64,28.64c0,15.78,12.73,28.64,28.64,28.64
		c15.78,0,28.64-12.87,28.64-28.64S231.07,418.32,215.3,418.32z M215.3,470.07c-12.73,0-23.11-10.38-23.11-23.11
		s10.38-23.11,23.11-23.11c12.73,0,23.11,10.38,23.11,23.11S228.03,470.07,215.3,470.07z"/>
	<path class="st2" d="M166.73,63.24c-0.55-0.69-0.55-1.8,0.42-1.8h2.63c7.06,0,12.73-5.67,12.73-12.73
		c0-7.06-5.67-12.73-12.73-12.73h-18.27c0.42,1.11,0.69,2.21,0.83,4.29v48.99c-0.14,2.08-0.42,3.04-0.83,4.29h7.47v-0.14
		c-0.42-1.11-0.69-2.21-0.83-4.29V64.9c0-1.8,1.11-1.8,1.94-0.69l24.77,29.2h7.47L166.73,63.24z M158.29,55.49V41.65h11.62
		c3.87,0,6.92,3.04,6.92,6.92c0,3.74-3.04,6.92-6.92,6.92H158.29z"/>
	<path class="st2" d="M163.13,444.75c-0.55-0.69-0.55-1.8,0.42-1.8h2.77c7.06,0,12.73-5.67,12.73-12.73
		c0-7.06-5.67-12.73-12.73-12.73h-18.27c0.42,1.11,0.69,2.21,0.83,4.29v48.99c-0.14,2.08-0.42,3.04-0.83,4.29l7.2-0.14
		c-0.42-1.11-0.69-2.21-0.83-4.29v-24.22c0-1.8,1.11-1.8,1.94-0.69l24.77,29.2h7.61L163.13,444.75z M154.55,437v-13.84h11.62
		c3.87,0,6.92,3.04,6.92,6.92s-3.04,6.92-6.92,6.92H154.55z"/>
	<path class="st2" d="M263.59,356.46h45.94c-7.06-3.74-9.55-13.7-9.96-23.11c-4.57-43.04-28.51-76.52-34.32-85.24
		c27.26-16.33,39.3-41.38,39.3-64.48c0-38.47-33.9-56.6-63.24-56.6h-77.35c2.91,4.15,4.98,5.81,4.98,15.36v195.94
		c0,9.55-4.15,14.11-7.06,18.27h35.15c-2.91-4.15-7.06-8.72-7.06-18.13v-71.96c23.66-0.42,43.45-4.29,59.36-10.66
		c24.22,25.88,27.12,63.52,27.54,73.89C277.15,339.86,271.76,348.99,263.59,356.46z M189.97,248.53V140.59h45.53
		c31.41,0,41.79,19.93,41.38,40.96C274.66,239.81,216.82,248.53,189.97,248.53z"/>
	<path class="st2" d="M231.21,289.07c10.93-0.14,21.31-1.11,30.58-2.63c-1.25-4.15-5.81-13.28-8.03-17.02
		c-8.44,1.38-16.33,1.94-22.56,1.94v-4.57c-2.91,0.97-15.78,2.91-21.03,3.46v90.78c0,9.55-4.15,14.11-7.06,18.13h35.15
		c-2.91-4.15-7.06-8.72-7.06-18.13V289.07z"/>
	<path class="st2" d="M268.57,162.59h-37.22v74.03c-4.7,1.66-14.25,4.7-21.03,5.4v-77.77c0-9.55-2.08-11.21-4.98-15.36h51.48
		C260.82,151.52,266.5,157.47,268.57,162.59z"/>
	<path class="st2" d="M305.11,378.6h45.25c0,0-5.81-3.74-8.16-14.25c-2.35-10.52-1.8-28.92-11.62-51.06
		c-8.03-17.85-18.96-36.26-22.97-42.76c12.04-7.33,26.85-20.34,35.01-42.21c15.22-40.82-13.98-71.26-41.51-76.52
		c0,0,7.61,13.7,8.72,23.66c0,0,17.3,19.1,4.15,52.31c-10.24,25.74-33.9,33.9-33.9,33.9l8.44,17.57c0,0,1.25-0.28,3.18-0.97
		c5.26,5.95,25.74,31.69,26.85,72.23C318.53,350.24,319.91,366.98,305.11,378.6z"/>
</g>
</svg>
