<svg xmlns="http://www.w3.org/2000/svg" xml:space="preserve" viewBox="0 0 512 512"><path d="m94.65 199.13 1.94 1.25c14.81 9.55 35.84 39.44 41.51 55.49l.14.42-.14.42c-5.54 16.05-26.71 45.94-41.51 55.49l-1.94 1.25z" style="fill:#eab52f"/><path d="M432.85 245.07v47.33h16.19v-46.36c0-6.5 5.26-11.76 11.76-11.76h7.47v-15.5h-8.3c-14.67.13-26.57 11.62-27.12 26.29m71.68 31.83c-6.37 0-11.62-5.26-11.62-11.76v-31h17.85v-15.5h-17.85v-14.53h-16.33v61.86c.55 14.67 12.59 26.15 27.12 26.29h8.3v-15.5h-7.47zm-194.7-59.51c-8.03 0-15.64 3.74-20.76 9.82-4.98-6.09-12.73-9.82-20.76-9.82-14.11 0-25.88 11.07-26.57 25.18v49.82h16.33v-47.88c0-6.64 4.98-11.9 11.49-11.9 5.26 0 11.49 3.6 11.49 13.7v45.94h16.19v-45.94c0-9.41 5.95-13.7 11.49-13.7 6.78 0 11.49 4.84 11.49 11.9v47.88h16.19v-49.82c-.84-14.11-12.47-25.18-26.58-25.18m74.31.14c-21.03 0-37.5 16.61-37.5 37.92 0 22.28 15.91 38.47 37.78 38.47 8.44 0 16.19-3.18 20.9-8.44v6.92h16.19v-36.53c.13-22.29-15.65-38.34-37.37-38.34m.28 60.75c-12.18 0-22-10.24-22-22.56 0-12.45 9.82-22.56 22-22.56 12.04 0 22 10.1 22 22.56-.14 13.29-9.14 22.56-22 22.56m-180.59-29.89c-15.78-1.8-18.82-4.7-18.82-8.99 0-6.78 10.24-7.61 14.81-7.61 7.75 0 15.5 3.04 20.9 7.75l10.38-10.38c-4.15-3.46-14.11-11.62-33.76-11.62-19.37 0-29.89 11.76-29.89 22.83 0 13.15 10.24 20.62 31.27 22.97 8.86.97 15.5 2.21 15.5 8.3 0 11.35-28.51 10.24-39.85-2.35l-11.21 11.35c1.11 1.25 14.25 13.42 34.18 13.42 23.66 0 34.46-11.62 34.46-22.42-.02-13.7-8.87-21.04-27.97-23.25" style="fill:#b0b3b5"/><linearGradient id="a" x1="96.772" x2="136.996" y1="257.723" y2="257.723" gradientTransform="matrix(1 0 0 -1 0 514)" gradientUnits="userSpaceOnUse"><stop offset="0" style="stop-color:#fcd121"/><stop offset=".453" style="stop-color:#fbca2b"/><stop offset=".481" style="stop-color:#f9c82b"/><stop offset=".787" style="stop-color:#e9b528"/><stop offset="1" style="stop-color:#e3ae27"/></linearGradient><path d="M96.73 202.45c14.25 9.27 34.73 37.92 40.27 53.83-5.54 15.91-26.02 44.56-40.27 53.83z" style="fill:url(#a)"/><linearGradient id="b" x1="17.339" x2="106.424" y1="215.941" y2="299.014" gradientTransform="matrix(1 0 0 -1 0 514)" gradientUnits="userSpaceOnUse"><stop offset="0" style="stop-color:#c7c9cc"/><stop offset=".108" style="stop-color:#ced0d2"/><stop offset=".264" style="stop-color:#e1e2e2"/><stop offset=".296" style="stop-color:#e6e6e6"/><stop offset=".527" style="stop-color:#f2f2f2"/><stop offset=".645" style="stop-color:#dfdfe0"/><stop offset="1" style="stop-color:#a9a9ad"/></linearGradient><path d="M68.08 223.2c7.33 0 16.61 2.91 23.94 8.16v-31.83c-7.33-4.57-16.19-7.2-26.57-7.2-35.29 0-63.79 28.51-63.79 63.79s28.51 63.65 63.79 63.65c10.38 0 19.23-2.49 26.57-7.06v-31.97c-7.33 5.26-16.61 8.16-23.94 8.16-19.79 0-34.46-14.53-34.46-32.8.01-18.5 14.67-32.9 34.46-32.9" style="fill:url(#b)"/><linearGradient id="c" x1="42.187" x2="93.506" y1="234.822" y2="281.029" gradientTransform="matrix(1 0 0 -1 0 514)" gradientUnits="userSpaceOnUse"><stop offset="0" style="stop-color:#b3b3b3"/><stop offset=".424" style="stop-color:#f2f2f2"/><stop offset=".47" style="stop-color:#e9e9e9"/><stop offset=".707" style="stop-color:#bebebe"/><stop offset=".891" style="stop-color:#a3a3a3"/><stop offset="1" style="stop-color:#999"/></linearGradient><path d="M40.13 256c0 15.08 12.04 26.43 28.09 26.43 6.37 0 13.98-2.77 19.93-7.06l3.18-2.49v8.58c-6.92 5.12-16.19 8.03-23.52 8.03-20.2 0-34.87-14.81-34.87-33.49 0-18.82 14.53-33.49 34.73-33.49 7.33 0 16.61 2.77 23.52 7.89v8.58l-3.18-2.49c-5.95-4.29-13.7-6.92-20.2-6.92-15.78 0-27.68 11.35-27.68 26.43" style="fill:url(#c)"/><linearGradient id="d" x1="-342.32" x2="-341.892" y1="574.666" y2="574.666" gradientTransform="rotate(-43 -259320.179 -42314.19)scale(288.3722)" gradientUnits="userSpaceOnUse"><stop offset="0" style="stop-color:#c7c9cc"/><stop offset=".107" style="stop-color:#cecfd2"/><stop offset=".262" style="stop-color:#e1e1e2"/><stop offset=".296" style="stop-color:#e6e6e6"/><stop offset=".509" style="stop-color:#cecece"/><stop offset=".527" style="stop-color:#ccc"/><stop offset="1" style="stop-color:#a9a9ad"/></linearGradient><path d="M64.62 320.62c-17.3 0-33.49-6.64-45.66-18.82C6.78 289.63 0 273.44 0 256.14c0-35.56 28.92-64.62 64.62-64.62 10.1 0 19.23 2.49 26.98 7.33l.42.28v34.04l-1.38-.97c-6.78-4.84-15.91-8.03-23.39-8.03-19.1 0-33.49 13.7-33.49 31.97s14.39 31.97 33.49 31.97c7.33 0 16.61-3.18 23.39-8.03l1.38-.97v34.04l-.42.28c-7.74 4.7-16.74 7.19-26.98 7.19" style="fill:url(#d)"/><linearGradient id="e" x1="-342.309" x2="-341.896" y1="574.668" y2="574.668" gradientTransform="rotate(-43 -259320.179 -42314.19)scale(288.3722)" gradientUnits="userSpaceOnUse"><stop offset="0" style="stop-color:#c7c9cc"/><stop offset=".107" style="stop-color:#cecfd2"/><stop offset=".262" style="stop-color:#e1e1e2"/><stop offset=".296" style="stop-color:#e6e6e6"/><stop offset=".527" style="stop-color:#e6e6e6"/><stop offset=".547" style="stop-color:#e3e3e4"/><stop offset="1" style="stop-color:#a9a9ad"/></linearGradient><path d="M65.59 318.27c-16.61 0-32.24-6.5-44-18.27-11.76-11.76-18.27-27.4-18.27-44 0-34.32 27.95-62.27 62.27-62.27 9.69 0 18.54 2.35 26.02 7.06l.42.28v32.8l-1.25-.97c-6.5-4.7-15.36-7.75-22.56-7.75-18.4 0-32.38 13.28-32.38 30.86s13.98 30.86 32.38 30.86c7.2 0 16.05-3.04 22.56-7.75l1.25-.97v32.8l-.42.28c-7.34 4.69-16.06 7.04-26.02 7.04" style="fill:url(#e)"/><linearGradient id="f" x1="1.07" x2="91.984" y1="258.069" y2="258.069" gradientTransform="matrix(1 0 0 -1 0 514)" gradientUnits="userSpaceOnUse"><stop offset="0" style="stop-color:#c7c9cc"/><stop offset=".107" style="stop-color:#cecfd2"/><stop offset=".262" style="stop-color:#e1e1e2"/><stop offset=".296" style="stop-color:#e6e6e6"/><stop offset=".527" style="stop-color:#f2f2f2"/><stop offset=".618" style="stop-color:#e3e3e4"/><stop offset="1" style="stop-color:#a9a9ad"/></linearGradient><path d="M68.22 287.97c-19.1 0-33.49-13.7-33.49-31.97s14.39-31.97 33.49-31.97c7.47 0 16.61 3.18 23.39 8.03l.28.14v-33.9c-7.61-4.57-16.47-6.92-26.29-6.92C30.04 191.38.98 220.3.98 256c0 17.3 6.78 33.49 18.96 45.66s28.37 18.82 45.66 18.82c9.96 0 18.82-2.35 26.29-6.78v-33.9l-.28.14c-6.78 4.98-15.92 8.03-23.39 8.03" style="fill:url(#f)"/></svg>