<?xml version="1.0" encoding="utf-8"?>
<!-- Generator: Adobe Illustrator 27.0.0, SVG Export Plug-In . SVG Version: 6.00 Build 0)  -->
<svg version="1.1" id="Layer_1" xmlns="http://www.w3.org/2000/svg" xmlns:xlink="http://www.w3.org/1999/xlink" x="0px" y="0px"
	 viewBox="0 0 512 512" style="enable-background:new 0 0 512 512;" xml:space="preserve">
<style type="text/css">
	.st0{fill:#EAB52F;}
	.st1{fill:#B0B3B5;}
	.st2{fill:url(#_91331920_00000166640690352131923930000000676363130468656519_);}
	.st3{fill:url(#XMLID_00000136384410151662625660000015701169664929088398_);}
	.st4{fill:url(#XMLID_00000039123476980953818270000001124769928204312754_);}
	.st5{fill:url(#XMLID_00000089541831186132912910000007025469128325918362_);}
	.st6{fill:url(#XMLID_00000082332328677168693670000003891037681285744059_);}
	.st7{fill:url(#XMLID_00000110465311098924953560000012039838931760604092_);}
</style>
<g id="XMLID_1_">
	<g id="XMLID_14_">
		<path id="XMLID_16_" class="st0" d="M94.65,199.13l1.94,1.25c14.81,9.55,35.84,39.44,41.51,55.49l0.14,0.42l-0.14,0.42
			c-5.54,16.05-26.71,45.94-41.51,55.49l-1.94,1.25V199.13z"/>
	</g>
	<path id="_93038808" class="st1" d="M432.85,245.07v47.33h16.19v-46.36c0-6.5,5.26-11.76,11.76-11.76h7.47v-15.5h-8.3
		C445.3,218.91,433.4,230.4,432.85,245.07z M504.53,276.9c-6.37,0-11.62-5.26-11.62-11.76c0,0,0-29.34,0-31c1.52,0,17.85,0,17.85,0
		v-15.5c0,0-16.33,0-17.85,0c0-1.52,0-14.53,0-14.53h-16.33v61.86c0.55,14.67,12.59,26.15,27.12,26.29h8.3v-15.5h-7.47V276.9z
		 M309.83,217.39c-8.03,0-15.64,3.74-20.76,9.82c-4.98-6.09-12.73-9.82-20.76-9.82c-14.11,0-25.88,11.07-26.57,25.18v49.82h16.33
		v-47.88c0-6.64,4.98-11.9,11.49-11.9c5.26,0,11.49,3.6,11.49,13.7v45.94h16.19v-45.94c0-9.41,5.95-13.7,11.49-13.7
		c6.78,0,11.49,4.84,11.49,11.9v47.88h16.19v-49.82C335.57,228.46,323.94,217.39,309.83,217.39z M384.14,217.53
		c-21.03,0-37.5,16.61-37.5,37.92c0,22.28,15.91,38.47,37.78,38.47c8.44,0,16.19-3.18,20.9-8.44v6.92h16.19v-36.53
		C421.64,233.58,405.86,217.53,384.14,217.53z M384.42,278.28c-12.18,0-22-10.24-22-22.56c0-12.45,9.82-22.56,22-22.56
		c12.04,0,22,10.1,22,22.56C406.28,269.01,397.28,278.28,384.42,278.28z M203.83,248.39c-15.78-1.8-18.82-4.7-18.82-8.99
		c0-6.78,10.24-7.61,14.81-7.61c7.75,0,15.5,3.04,20.9,7.75l10.38-10.38c-4.15-3.46-14.11-11.62-33.76-11.62
		c-19.37,0-29.89,11.76-29.89,22.83c0,13.15,10.24,20.62,31.27,22.97c8.86,0.97,15.5,2.21,15.5,8.3c0,11.35-28.51,10.24-39.85-2.35
		l-11.21,11.35c1.11,1.25,14.25,13.42,34.18,13.42c23.66,0,34.46-11.62,34.46-22.42C231.78,257.94,222.93,250.6,203.83,248.39z"/>
	
		<linearGradient id="_91331920_00000101075250583005167520000010658613415120944799_" gradientUnits="userSpaceOnUse" x1="96.772" y1="257.7232" x2="136.9964" y2="257.7232" gradientTransform="matrix(1 0 0 -1 0 514)">
		<stop  offset="0" style="stop-color:#FCD121"/>
		<stop  offset="0.4532" style="stop-color:#FBCA2B"/>
		<stop  offset="0.4807" style="stop-color:#F9C82B"/>
		<stop  offset="0.7872" style="stop-color:#E9B528"/>
		<stop  offset="1" style="stop-color:#E3AE27"/>
	</linearGradient>
	<path id="_91331920" style="fill:url(#_91331920_00000101075250583005167520000010658613415120944799_);" d="M96.73,202.45
		c14.25,9.27,34.73,37.92,40.27,53.83c-5.54,15.91-26.02,44.56-40.27,53.83V202.45z"/>
	<g id="XMLID_2_">
		
			<linearGradient id="XMLID_00000141418105154800038520000002579262698587793309_" gradientUnits="userSpaceOnUse" x1="17.3393" y1="215.9412" x2="106.4238" y2="299.0139" gradientTransform="matrix(1 0 0 -1 0 514)">
			<stop  offset="0" style="stop-color:#C7C9CC"/>
			<stop  offset="0.1079" style="stop-color:#CED0D2"/>
			<stop  offset="0.2643" style="stop-color:#E1E2E2"/>
			<stop  offset="0.2956" style="stop-color:#E6E6E6"/>
			<stop  offset="0.5271" style="stop-color:#F2F2F2"/>
			<stop  offset="0.6446" style="stop-color:#DFDFE0"/>
			<stop  offset="1" style="stop-color:#A9A9AD"/>
		</linearGradient>
		<path id="XMLID_11_" style="fill:url(#XMLID_00000141418105154800038520000002579262698587793309_);" d="M68.08,223.2
			c7.33,0,16.61,2.91,23.94,8.16v-31.83c-7.33-4.57-16.19-7.2-26.57-7.2c-35.29,0-63.79,28.51-63.79,63.79s28.51,63.65,63.79,63.65
			c10.38,0,19.23-2.49,26.57-7.06v-31.97c-7.33,5.26-16.61,8.16-23.94,8.16c-19.79,0-34.46-14.53-34.46-32.8
			C33.63,237.6,48.29,223.2,68.08,223.2z"/>
		
			<linearGradient id="XMLID_00000124120965708340959660000010027945208130796935_" gradientUnits="userSpaceOnUse" x1="42.1867" y1="234.8216" x2="93.5058" y2="281.0295" gradientTransform="matrix(1 0 0 -1 0 514)">
			<stop  offset="0" style="stop-color:#B3B3B3"/>
			<stop  offset="0.4236" style="stop-color:#F2F2F2"/>
			<stop  offset="0.4701" style="stop-color:#E9E9E9"/>
			<stop  offset="0.7065" style="stop-color:#BEBEBE"/>
			<stop  offset="0.8911" style="stop-color:#A3A3A3"/>
			<stop  offset="1" style="stop-color:#999999"/>
		</linearGradient>
		<path id="XMLID_21_" style="fill:url(#XMLID_00000124120965708340959660000010027945208130796935_);" d="M40.13,256
			c0,15.08,12.04,26.43,28.09,26.43c6.37,0,13.98-2.77,19.93-7.06l3.18-2.49v8.58c-6.92,5.12-16.19,8.03-23.52,8.03
			c-20.2,0-34.87-14.81-34.87-33.49c0-18.82,14.53-33.49,34.73-33.49c7.33,0,16.61,2.77,23.52,7.89v8.58l-3.18-2.49
			c-5.95-4.29-13.7-6.92-20.2-6.92C52.03,229.57,40.13,240.92,40.13,256z"/>
		<g id="XMLID_3_">
			
				<linearGradient id="XMLID_00000168798170214762818380000011127436722173870491_" gradientUnits="userSpaceOnUse" x1="-342.32" y1="574.6659" x2="-341.8918" y2="574.6659" gradientTransform="matrix(210.9021 -196.6693 196.6693 210.9021 -40807.1641 -188223.4375)">
				<stop  offset="0" style="stop-color:#C7C9CC"/>
				<stop  offset="0.1075" style="stop-color:#CECFD2"/>
				<stop  offset="0.2622" style="stop-color:#E1E1E2"/>
				<stop  offset="0.2956" style="stop-color:#E6E6E6"/>
				<stop  offset="0.5091" style="stop-color:#CECECE"/>
				<stop  offset="0.5271" style="stop-color:#CCCCCC"/>
				<stop  offset="1" style="stop-color:#A9A9AD"/>
			</linearGradient>
			<path id="XMLID_12_" style="fill:url(#XMLID_00000168798170214762818380000011127436722173870491_);" d="M64.62,320.62
				c-17.3,0-33.49-6.64-45.66-18.82C6.78,289.63,0,273.44,0,256.14c0-35.56,28.92-64.62,64.62-64.62c10.1,0,19.23,2.49,26.98,7.33
				l0.42,0.28v34.04l-1.38-0.97c-6.78-4.84-15.91-8.03-23.39-8.03c-19.1,0-33.49,13.7-33.49,31.97s14.39,31.97,33.49,31.97
				c7.33,0,16.61-3.18,23.39-8.03l1.38-0.97v34.04l-0.42,0.28C83.86,318.13,74.86,320.62,64.62,320.62z"/>
		</g>
		<g id="XMLID_4_">
			
				<linearGradient id="XMLID_00000126309981795690042950000002802365125708724660_" gradientUnits="userSpaceOnUse" x1="-342.3091" y1="574.6682" x2="-341.8959" y2="574.6682" gradientTransform="matrix(210.9021 -196.6693 196.6693 210.9021 -40807.1641 -188223.4375)">
				<stop  offset="0" style="stop-color:#C7C9CC"/>
				<stop  offset="0.1075" style="stop-color:#CECFD2"/>
				<stop  offset="0.2622" style="stop-color:#E1E1E2"/>
				<stop  offset="0.2956" style="stop-color:#E6E6E6"/>
				<stop  offset="0.5271" style="stop-color:#E6E6E6"/>
				<stop  offset="0.5466" style="stop-color:#E3E3E4"/>
				<stop  offset="1" style="stop-color:#A9A9AD"/>
			</linearGradient>
			<path id="XMLID_13_" style="fill:url(#XMLID_00000126309981795690042950000002802365125708724660_);" d="M65.59,318.27
				c-16.61,0-32.24-6.5-44-18.27c-11.76-11.76-18.27-27.4-18.27-44c0-34.32,27.95-62.27,62.27-62.27c9.69,0,18.54,2.35,26.02,7.06
				l0.42,0.28v32.8l-1.25-0.97c-6.5-4.7-15.36-7.75-22.56-7.75c-18.4,0-32.38,13.28-32.38,30.86s13.98,30.86,32.38,30.86
				c7.2,0,16.05-3.04,22.56-7.75l1.25-0.97v32.8l-0.42,0.28C84.27,315.92,75.55,318.27,65.59,318.27z"/>
		</g>
		
			<linearGradient id="XMLID_00000181060326844265117440000000022890667973046923_" gradientUnits="userSpaceOnUse" x1="1.0697" y1="258.0692" x2="91.9843" y2="258.0692" gradientTransform="matrix(1 0 0 -1 0 514)">
			<stop  offset="0" style="stop-color:#C7C9CC"/>
			<stop  offset="0.1075" style="stop-color:#CECFD2"/>
			<stop  offset="0.2622" style="stop-color:#E1E1E2"/>
			<stop  offset="0.2956" style="stop-color:#E6E6E6"/>
			<stop  offset="0.5271" style="stop-color:#F2F2F2"/>
			<stop  offset="0.6182" style="stop-color:#E3E3E4"/>
			<stop  offset="1" style="stop-color:#A9A9AD"/>
		</linearGradient>
		<path id="XMLID_25_" style="fill:url(#XMLID_00000181060326844265117440000000022890667973046923_);" d="M68.22,287.97
			c-19.1,0-33.49-13.7-33.49-31.97s14.39-31.97,33.49-31.97c7.47,0,16.61,3.18,23.39,8.03l0.28,0.14v-33.9
			c-7.61-4.57-16.47-6.92-26.29-6.92c-35.56,0-64.62,28.92-64.62,64.62c0,17.3,6.78,33.49,18.96,45.66s28.37,18.82,45.66,18.82
			c9.96,0,18.82-2.35,26.29-6.78v-33.9l-0.28,0.14C84.83,284.92,75.69,287.97,68.22,287.97z"/>
	</g>
</g>
</svg>
