<svg xmlns="http://www.w3.org/2000/svg" xml:space="preserve" id="Ñëîé_1" x="0" y="0" viewBox="0 0 512 512"><style>.st0{fill:#042f65}</style><g id="XMLID_1_"><path id="XMLID_17_" d="M285.31 424.19c.43-1.14.85-2.28 1.42-3.27 4.27-7.96 8.53-15.93 12.94-23.89.85-1.71.85-2.84-.14-4.41-8.39-14.08-16.64-28.3-24.88-42.51-.43-.85-.85-1.56-1.56-2.84 4.55 0 8.67-.14 12.8.14.71 0 1.42 1 1.85 1.85 5.97 10.1 11.94 20.33 17.92 30.57.43.85 1 1.56 1.71 2.7.57-1.14 1.14-1.85 1.56-2.56 5.4-9.95 10.81-19.91 16.07-30 1-1.99 2.13-2.7 4.41-2.56 3.27.28 6.68 0 10.38 0-.57 1.14-1 1.99-1.42 2.84-12.8 23.75-25.59 47.49-38.25 71.38-1 1.99-2.28 2.7-4.41 2.56-3.27-.14-6.4.14-9.67.28-.45-.28-.59-.28-.73-.28" class="st0"/><path id="XMLID_2_" d="M320.86 98.72c-1-3.55-.43-4.69 2.84-4.27 4.83.71 9.67 1.42 14.22 3.13 9.67 3.84 19.05 8.39 28.58 12.65.71.28 1.42.71 2.13 1-.43-3.98.14-4.55 4.12-3.55 7.82 1.99 14.79 5.83 21.61 9.95 12.23 7.39 23.32 16.21 31.99 27.73 17.21 22.61 15.78 46.21-3.98 66.55-13.37 13.79-29.86 23.03-48.2 27.87-26.02 6.83-52.33 12.51-78.49 18.63-1.85.43-3.84.85-5.69 1.42-2.84 1-3.27 2.56-.85 4.55 1.99 1.85 4.27 3.27 6.11 5.12 2.13 2.13 4.27 4.27 5.83 6.68 2.28 3.41 1.85 6.54-1.28 9.1-2.84 2.42-5.97 4.69-9.38 6.11-6.83 2.99-13.08 6.68-18.34 11.94-8.25 8.1-22.75 7.96-30.86.28-5.69-5.4-12.23-9.38-19.48-12.51-3.13-1.28-5.83-3.41-8.53-5.55-3.27-2.84-3.84-6.11-1.28-9.53 2.28-3.13 5.26-5.69 8.1-8.39 1.28-1.14 2.7-2.13 3.98-3.27 1.99-1.99 1.71-3.55-1-4.27-3.7-1.14-7.54-1.71-11.23-2.7-24.46-5.83-48.91-11.09-73.23-17.49-19.34-5.12-36.4-14.79-50.05-29.72-8.96-9.81-14.65-21.19-14.08-34.98.43-10.95 4.98-20.48 11.38-29.15 11.52-15.21 26.45-26.02 43.51-34.27 3.55-1.71 7.25-2.99 10.95-4.12 3.41-1 4.12 0 3.41 3.84 1-.57 1.85-1 2.56-1.42 10.66-5.97 21.9-10.81 33.7-14.22 2.7-.85 5.69-1.14 8.53-1.42 3.41-.14 3.98.71 3.13 4.27 2.42-1 4.55-2.13 6.83-2.99 7.68-2.56 15.5-5.12 23.32-7.54 1.71-.57 3.7-.28 5.55-.28.57 0 1.42.43 1.56.85.14.43-.28 1.28-.71 1.71-1.42 1.14-2.84 2.28-4.27 3.27-13.22 8.25-25.88 17.21-36.69 28.58-9.38 9.95-17.63 20.76-23.03 33.41-9.67 22.47-5.69 42.94 9.53 61.43 8.67 10.52 20.05 17.35 33.13 20.9 10.95 2.99 22.32 5.12 33.41 7.82 1.42.28 2.99.71 4.41 1.28 3.84 1.71 6.54 7.68 1.28 11.38-2.7 1.99-5.26 3.98-7.82 6.11-8.25 7.11-7.54 17.63 1.85 23.32 10.95 6.54 22.18 6.54 32.99 0 9.24-5.55 9.95-16.07 1.85-23.18-2.7-2.28-5.55-4.27-8.25-6.54-3.84-3.27-3.41-8.25 1-10.81 1.56-.85 3.27-1.42 4.98-1.71 13.93-2.42 27.58-5.26 40.95-10.38 23.18-8.96 39.24-31 40.1-55.74.43-11.52-3.41-21.9-8.96-31.71-10.81-19.34-26.31-34.41-44.51-46.78-3.84-2.56-7.68-4.98-11.66-7.54-1-.71-2.13-1.28-2.84-2.13-.85-.85-1.42-1.99-2.13-2.99 1.14-.28 2.42-1 3.55-.85 3.55.43 7.25.85 10.52 1.99 7.11 2.42 14.08 5.26 21.04 7.96.44.46 1.15.74 2.29 1.17m3.27.57c-.14.28-.28.71-.43 1 .85.43 1.85 1 2.7 1.42 11.8 5.97 22.89 12.94 33.13 21.19 11.09 8.96 20.76 19.05 27.02 32.14 7.54 15.78 6.83 31-3.27 45.64-4.83 6.83-10.38 12.94-16.78 18.2-11.8 9.81-25.59 16.07-39.67 21.47-.85.28-1.85.71-2.7 1 1 .28 1.85.14 2.56-.14 5.4-1.99 10.95-3.84 16.35-5.97 13.93-5.83 27.3-12.51 38.68-22.89 12.65-11.66 19.2-25.74 16.35-43.37-1.85-11.38-7.11-21.19-14.22-30-10.52-13.08-23.89-22.32-38.53-30-6.97-3.58-14.08-6.56-21.19-9.69M187.77 241.76c0-.14 0-.28.14-.43-5.26-2.13-10.52-4.27-15.78-6.54-16.21-7.11-30.29-16.92-41.24-31.28-12.09-15.93-13.65-32.7-4.41-50.34 4.41-8.53 10.38-15.93 17.21-22.47 12.37-11.94 26.73-21.19 42.09-29.01.85-.43 1.85-1 3.13-1.71-.71 0-1-.14-1.14 0-.71.14-1.28.43-1.99.71-15.93 5.69-30.43 13.93-43.65 24.46-9.53 7.68-17.49 16.64-22.89 27.73-6.26 12.65-8.25 25.74-3.27 39.24 3.84 10.52 11.23 18.48 20.05 25.17 14.65 10.95 31.14 18.06 48.34 23.75 1.13.01 2.27.3 3.41.72m-49.2-127.97c-.57.28-1.56.71-2.56 1.28-5.12 3.27-10.38 6.4-15.36 9.81-8.82 5.97-17.06 12.8-23.75 21.33-15.07 19.48-14.79 41.66.71 59.86 7.25 8.53 16.35 14.79 26.45 19.48 6.26 2.84 12.65 5.26 19.05 7.82.14-.28.14-.43.28-.71-3.98-1.85-8.1-3.55-11.94-5.55-11.8-6.11-22.61-13.51-30.43-24.6-10.81-15.5-12.51-31.71-2.56-48.49 4.83-8.1 10.66-15.36 17.63-21.61 7.26-6.53 15.23-12.65 22.48-18.62M369.2 233.23c-.14 0-.14-.14-.28-.14 2.84-1 5.83-1.85 8.67-2.99 13.51-5.12 26.16-11.94 35.97-22.89 9.81-10.81 14.5-23.46 12.23-38.11-1.42-9.81-6.54-18.06-12.8-25.59-9.67-11.38-22.18-19.48-34.84-27.16-1.71-1-3.41-1.85-5.12-2.7 3.13 2.84 6.68 5.26 9.95 7.82 12.65 9.67 23.89 20.62 31.71 34.69 7.68 13.79 6.97 27.58-.43 41.38-4.83 8.82-11.66 15.93-19.91 21.33-8.09 4.98-16.76 9.53-25.15 14.36" class="st0"/><path id="XMLID_11_" d="M448.4 360.78v60.72c-5.12 0-9.95.14-14.93-.14-.71 0-1.56-1.14-1.99-1.85-7.54-12.94-15.07-25.88-22.61-38.82-.71-1.28-1.56-2.56-2.84-3.84v44.36h-11.66v-60.72c5.26 0 10.52-.14 15.64.14.71 0 1.56 1.14 2.13 1.85 7.54 12.8 14.93 25.59 22.32 38.25.57 1 1.14 1.99 1.85 2.99.28 0 .43-.14.71-.14v-42.94c3.7.14 7.4.14 11.38.14" class="st0"/><path id="XMLID_10_" d="M171.41 376.99v44.22h-11.66v-60.57c5.26 0 10.52-.14 15.64.14.71 0 1.56 1.14 1.99 1.85 7.68 13.08 15.21 26.16 22.75 39.24.43.71.85 1.42 1.85 1.99v-42.94h11.66v60.72c-4.98 0-9.95.14-14.93-.14-.71 0-1.56-1.14-1.99-1.99-7.82-13.37-15.64-26.87-23.46-40.24-.43-.71-1-1.56-1.42-2.28-.14-.15-.28 0-.43 0" class="st0"/><path id="XMLID_9_" d="M.93 408.55c6.97 2.7 13.65 4.55 20.48 3.84 3.13-.28 6.26-.85 9.24-1.85 3.55-1.14 5.97-3.7 6.4-7.54.43-3.98-1.28-7.11-4.55-9.1-2.99-1.85-6.26-2.99-9.38-4.41-3.98-1.85-8.25-3.27-12.23-5.4-7.68-3.98-11.66-10.38-10.81-19.2.85-8.39 5.69-13.93 13.65-16.64 10.52-3.7 21.04-2.84 31.57-.14 3.98 1 3.98 1 3.98 5.26v7.54c-1.14-.43-1.85-.71-2.56-1-7.39-2.99-14.93-4.41-22.75-2.7-5.55 1.28-8.39 4.83-7.82 9.81.28 3.27 2.13 5.69 4.83 7.11 3.27 1.85 6.83 3.41 10.24 5.12 4.55 2.28 9.24 4.12 13.37 6.97 10.95 7.68 10.81 23.32.14 31.28-5.26 3.98-11.52 5.55-17.92 6.11-7.82.71-15.64.14-23.32-2.13-1.85-.57-2.56-1.56-2.42-3.41-.14-3.12-.14-6.11-.14-9.52" class="st0"/><path id="XMLID_3_" d="M390.53 391.63c-.14 19.05-13.79 32.14-32.85 31.99-19.05-.14-32.56-13.65-32.28-32.56.14-18.34 14.36-31.99 32.99-31.85 18.49.14 32.42 14.08 32.14 32.42m-13.22.71c-.71-4.27-1-7.82-1.99-11.09-2.28-7.68-8.96-12.37-16.92-12.51s-14.79 4.27-17.35 11.8c-2.7 7.54-2.56 15.21.28 22.61 2.7 6.83 7.96 10.38 15.21 10.81 7.68.43 14.22-1.99 17.49-9.38 1.71-3.99 2.28-8.54 3.28-12.24" class="st0"/><path id="XMLID_6_" d="M275.21 372.29c-7.25-2.99-14.36-3.98-21.61-3.41-16.92 1.28-26.59 17.49-19.48 33.13 3.84 8.25 10.81 11.52 19.48 11.94 2.99.14 6.11-.43 9.1-.85 1.42-.14 1.99-1 1.99-2.56 0-3.98-.14-7.82 0-11.8 0-1.71-.71-2.13-2.28-2.13h-12.65v-8.53h27.58c0 .71.14 1.42.14 2.13v26.59c0 1.28 0 2.28-1.56 2.84-12.37 4.27-24.88 5.69-37.4 1.28-16.35-5.69-24.17-23.46-18.2-40.24 4.55-12.65 14.36-18.34 26.87-20.48 8.67-1.56 17.35-.57 25.88 1.56 1.56.43 2.28 1.14 2.13 2.84-.13 2.43.01 4.85.01 7.69" class="st0"/><path id="XMLID_5_" d="M509.68 372.29c-7.39-2.99-14.65-4.12-22.18-3.41-6.97.57-13.08 2.84-16.92 8.96-4.41 6.97-5.4 14.36-2.7 22.04 3.27 9.38 10.66 13.37 20.19 13.79 2.99.14 6.11-.43 9.1-.85 1.42-.14 1.99-1 1.99-2.56-.14-3.98-.14-7.82 0-11.8 0-1.71-.71-2.13-2.28-2.13-3.55.14-7.11 0-10.81 0-1.56 0-2.13-.57-2.13-2.13.14-2.13 0-4.27 0-6.54h27.73c.14.71.28 1.42.28 1.99 0 8.96 0 17.92-.14 26.87 0 .85-.71 2.28-1.28 2.56-12.09 4.41-24.31 5.55-36.69 1.71-19.2-5.97-25.59-27.3-17.63-43.94 5.12-10.66 14.5-15.21 25.45-17.21 8.67-1.56 17.35-.57 25.88 1.56 1.56.43 2.28 1 2.13 2.84.01 2.99.01 5.41.01 8.25" class="st0"/><path id="XMLID_4_" d="M94.06 421.49c.28-1 .57-1.71.85-2.42 7.25-18.77 14.5-37.4 21.61-56.17.71-1.71 1.42-2.28 3.27-2.28 4.12.14 8.39.14 12.51 0 1.42 0 2.13.43 2.7 1.71 7.39 19.2 14.79 38.39 22.18 57.59.14.43.28.85.43 1.56h-11.66c-.57 0-1.42-.85-1.71-1.42-1.42-3.41-2.7-6.83-3.98-10.24-.43-1.28-1.28-1.85-2.7-1.85h-23.6c-1.56 0-2.28.57-2.7 1.99-1.14 3.27-2.56 6.54-3.7 9.81-.43 1.28-1.14 1.85-2.56 1.85-3.54-.13-7.1-.13-10.94-.13m32.14-48.34c-.28 0-.43 0-.71-.14-3.27 8.39-6.4 16.64-9.67 25.31h20.19c-3.41-8.54-6.69-16.78-9.81-25.17" class="st0"/><path id="XMLID_20_" d="M54.11 410.83c4.55 1 8.82 2.28 13.22 2.7 2.84.28 5.83-.14 8.53-.85 3.27-.85 5.83-2.84 6.26-6.4.43-3.41-1.42-5.97-4.27-7.54-3.7-1.99-7.82-3.55-11.52-5.55-2.7-1.42-5.4-2.84-7.68-4.69-8.67-7.11-7.39-20.76 2.56-25.88 10.1-5.12 20.76-3.98 31.14-.57.57.14 1.14 1.14 1.14 1.71.14 2.99 0 5.97 0 9.38-1-.43-1.71-.85-2.56-1.14-4.55-2.13-9.38-3.27-14.36-2.84-1.56.14-3.13.43-4.41 1-5.26 1.99-6.4 7.82-2.13 11.38 2.42 1.99 5.4 3.41 8.25 4.98 3.27 1.71 6.83 3.13 10.1 4.98 12.51 7.11 8.82 22.18-.28 27.58-5.12 2.99-10.66 4.27-16.35 4.12-5.12-.14-10.38-1-15.5-1.71-1.56-.14-2.28-1-2.28-2.84.28-2.56.14-5.26.14-7.82" class="st0"/></g></svg>