<svg xmlns="http://www.w3.org/2000/svg" xml:space="preserve" id="Ñëîé_1" x="0" y="0" viewBox="0 0 512 512"><style>.st0{fill:#004489}.st2{fill:#00468a}.st4{fill:#00488c}.st5{fill:#00498c}.st7{fill:#004a8d}.st8{fill:#004b8e}.st12{fill:#004e90}.st132{fill:#9ea8cc}.st144{stroke:#000;stroke-width:1.8107}.st144,.st146{fill:none}</style><g id="XMLID_1_"><path id="XMLID_246_" d="M60.08 334.87c5.26.69 10.65 1.52 13.84 6.64 2.77 3.87 2.63 8.72 2.77 13.7h-16.6c0-1.94 0-3.74-.97-5.12-3.6-2.77-8.72-1.52-13.28-1.8-9.27 0-17.99-.28-26.57.69-.97.28-2.21 1.52-2.63 2.63-.28 1.52-.28 3.46.97 4.57l1.8 1.38c14.67 1.25 28.78 1.52 43.59 2.63 4.98.69 9.96 2.63 12.73 7.47 4.15 7.33 3.32 18.82-1.94 25.46-3.87 4.57-9.41 5.4-15.22 5.53-13.97.69-28.78.97-42.62-.28-4.84-.55-9.41-2.08-12.45-6.23C.73 387.57.32 381.9.18 376.23l16.74.14c-.14 2.77-.14 5.81 2.63 7.2 13.01.97 27.26 1.11 40.13-.28 1.25-.42 2.08-1.8 2.49-3.04.28-2.21-.14-4.43-2.08-5.67l-2.77-.69-41.92-2.49c-5.81-.97-12.31-3.87-14.25-9.96-1.66-6.09-1.94-13.56 1.94-18.68 7.06-9.82 19.65-7.33 30.58-8.3z"/><path id="XMLID_245_" d="M101.45 378.87c.69 1.52 1.94 3.18 3.46 3.87 11.21 1.11 24.63 1.66 35.7-.55 1.8-.97 2.91-2.91 2.77-5.12v-42.2h17.16l-.28 48.57c-.97 4.84-2.63 9.82-8.44 13.7-3.6 2.21-8.16 2.35-12.45 2.49l-39.43-.28c-5.4-.42-10.79-4.84-13.42-9.96l-1.66-5.12-.28-49.53h16.47z"/><path id="XMLID_244_" d="M435.19 379.01c.69 1.52 1.8 3.18 3.32 3.87 10.79 1.38 23.25 1.11 34.04.28 1.52-.28 2.91-1.66 3.87-3.04l.42-2.35v-42.75h16.88V384c-.83 4.7-3.32 9.69-8.03 12.31-3.6 2.21-8.3 2.77-12.73 2.91l-39.43-.28c-5.4-.42-10.93-4.43-13.56-9.41-1.11-2.77-1.8-5.67-1.94-8.99v-45.66h16.88z"/><g id="XMLID_2_"><path id="XMLID_3_" d="m403.92 368.63 2.35-1.66c6.36-7.47 4.7-17.3 1.38-24.35-4.7-7.33-10.65-7.33-13.42-7.61h-57.98l-.14 63.92h17.02V376.1h34.18c6.5.69 6.92 4.98 7.06 10.65v12.18h16.74c0-11.34 2.08-24.63-7.19-30.3m-13.42-7.75h-.97l-36.67.14v-11.9l36.81.28c1.52.55 2.91 1.52 3.46 3.04.41 2.21 1.52 6.37-2.63 8.44"/></g><g id="XMLID_4_"><path id="XMLID_5_" d="M297.24 335.01h-19.23L243 399.21h19.37c2.08-3.74 3.74-7.2 6.23-11.21h37.22c2.49 4.01 4.01 7.06 6.09 10.93l20.06.14zm-21.86 39.43c3.46-7.75 8.03-14.94 11.62-22.69 4.43 7.06 7.61 14.94 11.76 22.42z"/></g><g id="XMLID_6_"><path id="XMLID_7_" d="M237.19 364.62c6.09-3.87 5.81-12.04 4.57-18.4-1.38-5.81-7.61-10.52-13.14-11.21l-59.22-.14v64.2h52.71c4.84 0 9.55-.42 13.56-2.21 4.84-2.35 7.19-7.33 8.16-12.04.97-7.47.42-16.33-6.64-20.2m-51.33-15.78 36.39.28c1.25.42 2.77 1.52 3.32 2.77.28 1.8.28 4.01-1.11 5.26-1.11 1.38-2.77 1.52-4.15 1.94H186v-10.24h-.14zm39.43 33.9c-2.77 2.08-6.36 1.94-9.96 1.8-9.69-.14-19.51.28-29.2-.28V372.5l35.98.28c1.52.55 3.32 1.38 4.15 3.04.69 2.08.69 5.12-.97 6.92"/></g><path id="XMLID_8_" d="M506.45 393.12c3.04 0 5.53 2.49 5.53 5.67s-2.49 5.67-5.53 5.67-5.67-2.49-5.67-5.67 2.49-5.67 5.67-5.67m0 .83c-2.49 0-4.57 2.08-4.57 4.84 0 2.63 2.08 4.84 4.57 4.84s4.57-2.08 4.57-4.84-2.08-4.84-4.57-4.84m-1.11 8.03h-.97v-6.23c.55-.14.97-.14 1.8-.14.97 0 1.52.14 1.94.42s.55.69.55 1.25c0 .83-.55 1.38-1.25 1.52.55.14.97.55 1.11 1.52s.28 1.38.42 1.52h-1.11c-.14-.14-.28-.83-.42-1.66s-.55-1.11-1.38-1.11h-.69zm0-3.46h.69c.83 0 1.52-.28 1.52-1.11 0-.55-.42-1.11-1.52-1.11h-.69z"/><g id="XMLID_9_"><path id="XMLID_232_" d="M414.16 203.84c0 46.91-73.61 84.96-164.52 84.96S85.13 250.74 85.13 203.84s73.61-84.96 164.52-84.96c90.9 0 164.51 38.05 164.51 84.96" class="st0"/></g><g id="XMLID_10_"><path id="XMLID_231_" d="M335.98 179.21c.55 20.2-51.47 69.18-128.4 69.18-76.79 0-126.74-14.67-126.74-57.14 0-42.62 62.4-74.03 139.2-77.07 95.19-3.74 114.83 22.13 115.94 65.03" class="st0"/><path id="XMLID_230_" d="M335.15 179.07c.55 20.2-51.2 68.91-127.57 68.91S81.53 233.45 81.53 191.11s61.99-73.61 138.37-76.65c94.5-3.74 114.01 21.99 115.25 64.61" class="st0"/><path id="XMLID_229_" d="M334.18 179.07c.55 20.06-50.92 68.49-126.88 68.49S81.94 233.03 81.94 190.97s61.57-73.2 137.54-76.24c94.09-3.6 113.6 22 114.7 64.34" style="fill:#004589"/><path id="XMLID_228_" d="M333.35 178.93c.55 19.92-50.64 68.08-126.19 68.08S82.5 232.62 82.5 190.69c0-41.79 61.3-72.78 136.71-75.69 93.53-3.59 112.9 21.87 114.14 63.93" class="st2"/><path id="XMLID_227_" d="M332.38 178.93c.55 19.92-50.36 67.66-125.5 67.66S82.91 232.2 82.91 190.55s60.88-72.37 136.01-75.27c92.99-3.6 112.36 21.73 113.46 63.65" class="st2"/><path id="XMLID_226_" d="M331.55 178.79c.55 19.79-50.09 67.38-124.81 67.38S83.46 231.79 83.46 190.55c0-41.37 60.6-71.95 135.18-74.86 92.44-3.59 111.67 21.45 112.91 63.1" class="st2"/><path id="XMLID_225_" d="M330.59 178.79c.55 19.65-49.81 66.97-124.11 66.97s-122.6-14.25-122.6-55.35 60.19-71.53 134.35-74.44c92.02-3.59 111.25 21.45 112.36 62.82" style="fill:#00478b"/><path id="XMLID_224_" d="M329.76 178.65c.55 19.65-49.53 66.55-123.28 66.55s-121.9-14.25-121.9-55.07 59.91-71.12 133.66-74.03c91.18-3.45 110.27 21.46 111.52 62.55" class="st4"/><path id="XMLID_223_" d="M328.79 178.65c.55 19.51-49.26 66.14-122.59 66.14S84.99 230.68 84.99 190s59.5-70.7 132.83-73.61c90.77-3.46 109.86 21.31 110.97 62.26" class="st4"/><path id="XMLID_222_" d="M327.82 178.52c.55 19.37-48.98 65.72-121.9 65.72S85.54 230.13 85.54 189.72s59.22-70.29 132-73.2c90.22-3.17 109.17 21.32 110.28 62" class="st5"/><path id="XMLID_221_" d="M326.99 178.52c.55 19.37-48.7 65.45-121.21 65.45S86.09 230 86.09 189.87 144.9 120 217.4 117.23c89.53-3.61 108.48 20.88 109.59 61.29" class="st5"/><path id="XMLID_220_" d="M326.02 178.38c.55 19.23-48.43 65.03-120.52 65.03S86.51 229.43 86.51 189.58s58.53-69.46 130.48-72.23c89.1-3.45 107.92 20.9 109.03 61.03" style="fill:#00498d"/><path id="XMLID_219_" d="M325.19 178.38c.55 19.09-48.15 64.62-119.82 64.62s-118.3-13.84-118.3-53.55 58.11-69.04 129.65-71.81c88.54-3.46 107.36 20.75 108.47 60.74" class="st7"/><path id="XMLID_218_" d="M324.22 178.24c.55 19.09-47.87 64.2-118.99 64.2-71.26 0-117.61-13.84-117.61-53.27s57.84-68.63 128.96-71.4c87.85-3.18 106.53 20.9 107.64 60.47" class="st7"/><path id="XMLID_217_" d="M323.39 178.24c.55 18.96-47.6 63.92-118.3 63.92s-116.92-13.7-116.92-52.99c0-39.16 57.42-68.21 128.13-70.98 87.3-3.32 105.98 20.61 107.09 60.05" class="st8"/><path id="XMLID_216_" d="M322.42 178.1c.55 18.82-47.32 63.51-117.61 63.51s-116.23-13.7-116.23-52.58 57.01-67.8 127.3-70.57c86.89-3.32 105.44 20.48 106.54 59.64" class="st8"/><path id="XMLID_215_" d="M321.59 178.1c.55 18.82-47.04 63.09-116.92 63.09s-115.54-13.7-115.54-52.3c0-38.74 56.73-67.38 126.6-70.15 86.21-3.32 104.75 20.34 105.86 59.36" style="fill:#004c8e"/><path id="XMLID_214_" d="M320.62 177.96c.55 18.68-46.77 62.68-116.23 62.68S89.55 227.08 89.55 188.62s56.31-66.97 125.77-69.6c85.79-3.18 104.2 20.34 105.3 58.94" style="fill:#004d8f"/><path id="XMLID_213_" d="M319.65 177.96c.55 18.54-46.49 62.4-115.54 62.4S89.97 226.8 89.97 188.62s56.04-66.55 124.94-69.18c85.37-3.33 103.78 20.06 104.74 58.52" style="fill:#004d90"/><path id="XMLID_212_" d="M318.82 177.82c.55 18.54-46.21 61.99-114.84 61.99S90.52 226.39 90.52 188.34s55.62-66.14 124.25-68.77c84.68-3.18 102.95 20.06 104.05 58.25" class="st12"/><path id="XMLID_211_" d="M317.86 177.82c.55 18.4-45.94 61.57-114.01 61.57-68.21 0-112.77-13.42-112.77-51.06 0-37.77 55.35-65.72 123.42-68.35 84.12-3.18 102.39 19.79 103.36 57.84" class="st12"/><path id="XMLID_210_" d="M317.03 177.82c.42 18.26-45.66 61.16-113.32 61.16-67.8 0-111.94-13.28-111.94-50.78s54.93-65.31 122.59-67.94c83.43-3.18 101.56 19.79 102.67 57.56" style="fill:#014f90"/><path id="XMLID_209_" d="M316.06 177.69c.42 18.26-45.38 60.74-112.63 60.74s-111.25-13.28-111.25-50.5 54.65-64.89 121.9-67.52c82.88-3.05 101.01 19.78 101.98 57.28" style="fill:#044f91"/><path id="XMLID_208_" d="M315.23 177.69c.42 18.13-45.11 60.47-111.94 60.47S92.74 225.01 92.74 187.92s54.24-64.48 121.07-67.11c82.32-3.18 100.31 19.52 101.42 56.88" style="fill:#085091"/><path id="XMLID_207_" d="M314.26 177.55c.42 17.99-44.83 60.05-111.25 60.05S93.15 224.45 93.15 187.65s53.96-64.06 120.24-66.55c81.91-3.05 99.9 19.5 100.87 56.45" style="fill:#0b5092"/><path id="XMLID_206_" d="M313.29 177.55c.42 17.99-44.55 59.64-110.55 59.64S93.57 224.18 93.57 187.65s53.55-63.65 119.55-66.14c81.35-3.18 99.2 19.23 100.17 56.04" style="fill:#0e5192"/><path id="XMLID_205_" d="M312.46 177.41c.42 17.85-44.28 59.22-109.72 59.22-65.59 0-108.48-13.01-108.48-49.26s53.13-63.23 118.72-65.72c80.66-3.05 98.51 19.23 99.48 55.76" style="fill:#145292"/><path id="XMLID_204_" d="M311.49 177.41c.42 17.71-44 58.94-109.03 58.94-65.17 0-107.79-12.87-107.79-48.98s52.86-62.82 117.89-65.31c80.25-3.18 97.96 18.96 98.93 55.35" style="fill:#165293"/><path id="XMLID_203_" d="M310.66 177.27c.42 17.71-43.72 58.53-108.34 58.53-64.76 0-107.09-12.87-107.09-48.7s52.44-62.4 117.2-64.89c79.55-2.92 97.26 19.09 98.23 55.06" style="fill:#185394"/><path id="XMLID_202_" d="M309.69 177.27c.42 17.57-43.45 58.11-107.65 58.11s-106.4-12.87-106.4-48.43 52.16-61.99 116.37-64.48c79.14-2.9 96.71 18.96 97.68 54.8" style="fill:#1b5394"/><path id="XMLID_201_" d="M308.86 177.13c.42 17.43-43.17 57.7-106.96 57.7S96.19 222.1 96.19 186.68c0-35.28 51.75-61.57 115.54-64.06 78.59-2.77 96.16 18.95 97.13 54.51" style="fill:#1c5494"/><path id="XMLID_200_" d="M307.89 177.13c.42 17.43-42.75 57.42-106.26 57.42-63.37 0-105.02-12.73-105.02-47.74s51.47-61.16 114.84-63.51c78.04-3.17 95.48 18.55 96.44 53.83" style="fill:#1e5495"/><path id="XMLID_199_" d="M307.06 176.99c.42 17.3-42.48 57.01-105.43 57.01S97.3 221.41 97.3 186.54s51.06-60.74 114.01-63.09c77.35-2.91 94.78 18.54 95.75 53.54" style="fill:#1f5595"/><path id="XMLID_198_" d="M306.09 176.99c.42 17.16-42.2 56.59-104.74 56.59S97.72 220.99 97.72 186.4s50.78-60.33 113.18-62.68c76.93-2.9 94.23 18.41 95.19 53.27" style="fill:#225595"/><path id="XMLID_197_" d="M305.13 176.85c.42 17.16-41.92 56.18-104.05 56.18s-102.81-12.45-102.81-46.9c0-34.31 50.37-59.91 112.49-62.26 76.24-2.78 93.54 18.39 94.37 52.98" style="fill:#235696"/><path id="XMLID_196_" d="M304.3 176.85c.42 17.02-41.65 55.76-103.36 55.76S98.82 220.16 98.82 185.99s50.09-59.5 111.66-61.85c75.69-2.63 92.85 18.4 93.82 52.71" style="fill:#255796"/><path id="XMLID_195_" d="M303.33 176.72c.42 16.88-41.37 55.48-102.67 55.48S99.24 219.89 99.24 185.99s49.67-59.08 110.83-61.43c75.27-2.77 92.43 18.12 93.26 52.16" style="fill:#285897"/><path id="XMLID_194_" d="M302.5 176.72c.42 16.88-41.09 55.07-101.98 55.07-60.74 0-100.73-12.31-100.73-45.94s49.26-58.67 110.14-61.02c74.58-2.77 91.6 17.99 92.57 51.89" style="fill:#295897"/><path id="XMLID_193_" d="M301.53 176.58c.42 16.74-40.82 54.65-101.28 54.65-60.33 0-100.04-12.18-100.04-45.66s48.98-58.25 109.31-60.47c74.16-2.76 91.18 17.86 92.01 51.48" style="fill:#2a5998"/><path id="XMLID_192_" d="M300.7 176.58c.42 16.6-40.54 54.24-100.45 54.24s-99.35-12.18-99.35-45.38 48.57-57.84 108.48-60.05c73.47-2.64 90.35 17.84 91.32 51.19" style="fill:#2c5998"/><path id="XMLID_191_" d="M299.73 176.44c.42 16.6-40.26 53.96-99.76 53.96s-98.65-12.18-98.65-45.11 48.29-57.42 107.79-59.64c72.91-2.62 89.79 17.72 90.62 50.79" style="fill:#2d5a99"/><path id="XMLID_190_" d="M298.76 176.44c.42 16.47-39.99 53.55-99.07 53.55s-97.96-12.04-97.96-44.69 47.87-57.01 106.96-59.22c72.5-2.77 89.24 17.43 90.07 50.36" style="fill:#2e5b99"/><path id="XMLID_189_" d="M297.93 176.44c.42 16.33-39.71 53.13-98.38 53.13s-97.27-12.04-97.27-44.42c0-32.52 47.6-56.59 106.13-58.81 71.95-2.76 88.69 17.45 89.52 50.1" style="fill:#2f5b99"/><path id="XMLID_188_" d="M296.96 176.3c.42 16.33-39.43 52.72-97.69 52.72s-96.58-11.9-96.58-44.14 47.18-56.18 105.43-58.39c71.41-2.49 88.01 17.43 88.84 49.81" style="fill:#315c9a"/><path id="XMLID_187_" d="M296.13 176.3c.42 16.19-39.16 52.44-96.99 52.44-57.7 0-95.89-11.9-95.89-43.86s46.91-55.76 104.6-57.98c70.85-2.62 87.45 17.16 88.28 49.4" style="fill:#325c9a"/><path id="XMLID_186_" d="M295.16 176.16c.42 16.05-38.88 52.03-96.16 52.03s-95.2-11.76-95.2-43.59c0-31.69 46.49-55.35 103.77-57.42 70.3-2.63 86.76 17.02 87.59 48.98" style="fill:#335d9b"/><path id="XMLID_185_" d="M294.33 176.16c.42 16.05-38.6 51.61-95.47 51.61s-94.37-11.76-94.37-43.17c0-31.55 46.21-54.93 103.08-57.01 69.47-2.76 85.93 16.89 86.76 48.57" style="fill:#355d9b"/><path id="XMLID_184_" d="M293.37 176.02c.42 15.91-38.33 51.2-94.78 51.2s-93.67-11.62-93.67-42.89 45.8-54.52 102.25-56.59c69.04-2.5 85.37 16.88 86.2 48.28" style="fill:#375f9c"/><path id="XMLID_183_" d="M292.54 176.02c.42 15.77-38.05 50.78-94.09 50.78s-92.98-11.62-92.98-42.62 45.52-54.1 101.42-56.18c68.49-2.48 84.81 16.75 85.65 48.02" style="fill:#38609d"/><path id="XMLID_182_" d="M291.57 175.89c.42 15.77-37.77 50.5-93.4 50.5s-92.29-11.48-92.29-42.34c0-30.72 45.11-53.69 100.59-55.76 68.08-2.49 84.27 16.6 85.1 47.6" style="fill:#3a609d"/><path id="XMLID_181_" d="M290.6 175.89c.42 15.64-37.5 50.09-92.7 50.09s-91.6-11.48-91.6-42.06 44.69-53.27 99.9-55.35c67.52-2.36 83.71 16.6 84.4 47.32" style="fill:#3b609d"/><path id="XMLID_180_" d="M289.77 175.75c.42 15.5-37.22 49.67-91.87 49.67-54.79 0-90.91-11.48-90.91-41.65 0-30.3 44.42-52.86 99.07-54.93 66.83-2.35 82.88 16.47 83.71 46.91" style="fill:#3c619d"/><path id="XMLID_179_" d="M288.8 175.75c.42 15.5-36.94 49.26-91.18 49.26s-90.21-11.35-90.21-41.37 44-52.44 98.24-54.38c66.41-2.49 82.46 16.19 83.15 46.49" style="fill:#3d619d"/><path id="XMLID_178_" d="M287.97 175.61c.42 15.36-36.67 48.98-90.49 48.98s-89.52-11.35-89.52-41.09 43.72-52.03 97.55-53.96c65.72-2.5 81.63 16.18 82.46 46.07" style="fill:#3e629e"/><path id="XMLID_177_" d="M287 175.61c.42 15.22-36.39 48.57-89.8 48.57s-88.83-11.21-88.83-40.82 43.31-51.61 96.72-53.55c65.31-2.35 81.22 16.05 81.91 45.8" style="fill:#3f639f"/><path id="XMLID_176_" d="M286.17 175.47c.42 15.22-36.11 48.15-89.11 48.15s-88.14-11.21-88.14-40.54 43.03-51.2 95.89-53.13c64.76-2.21 80.53 16.05 81.36 45.52" style="fill:#40649f"/><path id="XMLID_175_" d="M285.2 175.47c.42 15.08-35.84 47.74-88.42 47.74s-87.45-11.07-87.45-40.26c0-29.06 42.62-50.78 95.2-52.72 64.21-2.22 79.98 15.91 80.67 45.24" style="fill:#41649f"/><path id="XMLID_174_" d="M284.37 175.33c.42 14.94-35.56 47.46-87.72 47.46s-86.76-11.07-86.76-39.85c0-28.92 42.34-50.37 94.37-52.3 63.65-2.35 79.28 15.77 80.11 44.69" style="fill:#4365a0"/><path id="XMLID_173_" d="M283.4 175.33c.28 14.94-35.28 47.04-86.89 47.04-51.75 0-85.92-10.93-85.92-39.57s41.92-49.95 93.54-51.89c62.95-2.21 78.58 15.64 79.27 44.42" style="fill:#4566a1"/><path id="XMLID_172_" d="M282.43 175.19c.28 14.81-35.01 46.63-86.2 46.63S111 210.89 111 182.53s41.65-49.53 92.84-51.33c62.41-2.22 77.9 15.49 78.59 43.99" style="fill:#4666a1"/><path id="XMLID_171_" d="M281.6 175.19c.28 14.67-34.73 46.21-85.51 46.21s-84.54-10.79-84.54-39.02 41.23-49.12 92.01-50.92c61.86-2.2 77.35 15.37 78.04 43.73" style="fill:#4767a2"/><path id="XMLID_170_" d="M280.64 175.19c.28 14.67-34.45 45.8-84.82 45.8s-83.85-10.79-83.85-38.74 40.82-48.7 91.18-50.5c61.44-2.22 76.79 15.36 77.49 43.44" style="fill:#4868a2"/><path id="XMLID_169_" d="M279.81 175.06c.28 14.53-34.18 45.52-84.13 45.52s-83.16-10.65-83.16-38.33 40.54-48.29 90.49-50.09c60.75-2.21 76.1 15.08 76.8 42.9" style="fill:#4968a2"/><path id="XMLID_168_" d="M278.84 175.06c.28 14.39-33.9 45.11-83.43 45.11s-82.47-10.65-82.47-38.05 40.13-47.87 89.66-49.67c60.32-2.22 75.55 14.93 76.24 42.61" style="fill:#4a69a3"/><path id="XMLID_167_" d="M278.01 174.92c.28 14.39-33.62 44.69-82.6 44.69-49.12 0-81.77-10.65-81.77-37.77s39.85-47.46 88.83-49.26c59.62-2.08 74.84 15.08 75.54 42.34" style="fill:#4b6aa4"/><path id="XMLID_166_" d="M277.04 174.92c.28 14.25-33.35 44.28-81.91 44.28-48.7 0-81.08-10.52-81.08-37.5s39.43-47.04 88.14-48.84c59.07-1.94 74.16 14.94 74.85 42.06" style="fill:#4c6ba4"/><path id="XMLID_165_" d="M276.07 174.78c.28 14.11-33.07 44-81.22 44s-80.39-10.52-80.39-37.22 39.16-46.63 87.31-48.29c58.66-2.08 73.75 14.67 74.3 41.51" style="fill:#4d6ba4"/><path id="XMLID_164_" d="M275.24 174.78c.28 14.11-32.79 43.59-80.53 43.59s-79.7-10.38-79.7-36.81 38.74-46.21 86.48-47.87c58.11-2.22 73.06 14.38 73.75 41.09" style="fill:#4f6ca5"/><path id="XMLID_163_" d="M274.27 174.64c.28 13.97-32.52 43.17-79.84 43.17s-79.01-10.38-79.01-36.53 38.47-45.8 85.79-47.46c57.56-2.07 72.51 14.53 73.06 40.82" style="fill:#506da6"/><path id="XMLID_162_" d="M273.44 174.64c.28 13.84-32.24 42.75-79.15 42.75s-78.31-10.24-78.31-36.25 38.05-45.38 84.96-47.04c57-1.94 71.81 14.39 72.5 40.54" style="fill:#516ea6"/><path id="XMLID_161_" d="M272.47 174.5c.28 13.84-31.96 42.48-78.31 42.48-46.49 0-77.48-10.24-77.48-35.98s37.77-44.97 84.13-46.63c56.3-1.93 71.11 14.26 71.66 40.13" style="fill:#526ea7"/><path id="XMLID_160_" d="M271.64 174.5c.28 13.7-31.69 42.06-77.62 42.06-46.08 0-76.79-10.1-76.79-35.7s37.36-44.55 83.43-46.21c55.62-1.93 70.29 14.12 70.98 39.85" style="fill:#536fa7"/><path id="XMLID_159_" d="M270.67 174.36c.28 13.56-31.41 41.65-76.93 41.65-45.66 0-76.1-10.1-76.1-35.28 0-25.32 36.94-44.14 82.6-45.8 55.21-1.94 69.88 14.11 70.43 39.43" style="fill:#546fa7"/><path id="XMLID_158_" d="M269.84 174.36c.28 13.56-30.99 41.23-76.24 41.23s-75.41-9.96-75.41-35.01 36.67-43.72 81.77-45.25c54.66-1.92 69.19 13.85 69.88 39.03" style="fill:#5570a8"/><path id="XMLID_157_" d="M268.87 174.23c.28 13.42-30.72 40.82-75.55 40.82-44.69 0-74.72-9.96-74.72-34.73s36.25-43.31 81.08-44.83c54.11-1.81 68.64 13.83 69.19 38.74" style="fill:#5671a9"/><path id="XMLID_156_" d="M267.91 174.23c.28 13.28-30.44 40.54-74.86 40.54-44.28 0-74.03-9.96-74.03-34.45s35.98-42.89 80.25-44.42c53.69-1.94 68.08 13.7 68.64 38.33" style="fill:#5771a9"/><path id="XMLID_155_" d="M267.08 174.09c.28 13.28-30.16 40.13-74.16 40.13-43.86 0-73.33-9.82-73.33-34.18s35.56-42.48 79.42-44c53.12-1.8 67.51 13.7 68.07 38.05" style="fill:#5872a9"/><path id="XMLID_154_" d="M266.11 174.09c.28 13.14-29.89 39.71-73.33 39.71s-72.64-9.82-72.64-33.76c0-24.08 35.28-42.06 78.73-43.59 52.43-1.8 66.68 13.42 67.24 37.64" style="fill:#5a74aa"/><path id="XMLID_153_" d="M265.28 173.95c.28 13.01-29.61 39.3-72.64 39.3s-71.95-9.69-71.95-33.48 34.87-41.65 77.9-43.17c51.88-1.67 66.13 13.41 66.69 37.35" style="fill:#5b74ab"/><path id="XMLID_152_" d="M264.31 173.95c.28 13.01-29.33 39.02-71.95 39.02s-71.26-9.69-71.26-33.21 34.59-41.23 77.07-42.75c51.47-1.8 65.59 13.28 66.14 36.94" style="fill:#5c75ab"/><path id="XMLID_151_" d="M263.48 173.81c.28 12.87-29.06 38.6-71.26 38.6s-70.57-9.55-70.57-32.93 34.18-40.82 76.38-42.2c50.78-1.66 64.89 13.15 65.45 36.53" style="fill:#5d76ac"/><path id="XMLID_150_" d="M262.51 173.81c.28 12.73-28.78 38.19-70.57 38.19-41.65 0-69.87-9.55-69.87-32.65s33.9-40.4 75.55-41.79c50.36-1.66 64.34 13.01 64.89 36.25" style="fill:#5e76ac"/><path id="XMLID_149_" d="M261.68 173.81c.28 12.73-28.5 37.77-69.87 37.77-41.23 0-69.04-9.41-69.04-32.38s33.48-39.99 74.72-41.37c49.66-1.65 63.64 12.87 64.19 35.98" style="fill:#5f77ac"/><path id="XMLID_148_" d="M260.71 173.67c.28 12.59-28.23 37.5-69.04 37.5s-68.35-9.41-68.35-31.96 33.21-39.57 74.03-40.96c48.97-1.8 62.81 12.73 63.36 35.42" style="fill:#6078ad"/><path id="XMLID_147_" d="M259.74 173.67c.28 12.45-27.95 37.08-68.35 37.08s-67.66-9.27-67.66-31.69 32.79-39.16 73.2-40.54c48.56-1.65 62.4 12.6 62.81 35.15" style="fill:#6179ae"/><path id="XMLID_146_" d="M258.91 173.53c.28 12.45-27.67 36.67-67.66 36.67s-66.97-9.27-66.97-31.41 32.38-38.74 72.37-40.13c48.01-1.52 61.71 12.6 62.26 34.87" style="fill:#6279ae"/><path id="XMLID_145_" d="M257.94 173.53c.28 12.31-27.4 36.25-66.97 36.25s-66.28-9.27-66.28-31.13 32.1-38.33 71.67-39.71c47.47-1.52 61.17 12.59 61.58 34.59" style="fill:#637aae"/><path id="XMLID_144_" d="M257.11 173.4c.28 12.18-27.12 35.84-66.28 35.84s-65.59-9.13-65.59-30.86 31.69-37.91 70.84-39.16c46.92-1.52 60.48 12.45 61.03 34.18" style="fill:#647baf"/><path id="XMLID_143_" d="M256.15 173.4c.28 12.18-26.84 35.56-65.59 35.56s-64.89-9.13-64.89-30.44c0-21.45 31.41-37.5 70.01-38.74 46.49-1.67 60.05 12.03 60.47 33.62" style="fill:#667cb0"/><path id="XMLID_142_" d="M255.31 173.26c.28 12.04-26.57 35.14-64.76 35.14s-64.2-8.99-64.2-30.16 30.99-37.08 69.32-38.33c45.67-1.52 59.09 12.04 59.64 33.35" style="fill:#677db0"/><path id="XMLID_141_" d="M254.35 173.26c.28 11.9-26.29 34.73-64.06 34.73s-63.51-8.99-63.51-29.89 30.72-36.67 68.49-37.91c45.24-1.52 58.66 12.04 59.08 33.07" style="fill:#687eb1"/><path id="XMLID_140_" d="M253.38 173.12c.28 11.9-26.01 34.31-63.37 34.31s-62.82-8.86-62.82-29.61 30.3-36.25 67.66-37.5c44.69-1.38 58.11 12.04 58.53 32.8" style="fill:#697eb1"/><path id="XMLID_139_" d="M252.55 173.12c.28 11.76-25.74 34.04-62.68 34.04s-62.13-8.86-62.13-29.33 30.03-35.84 66.83-37.08c44.14-1.39 57.56 11.75 57.98 32.37" style="fill:#6a7fb1"/><path id="XMLID_138_" d="M251.58 172.98c.28 11.62-25.46 33.62-61.99 33.62s-61.43-8.72-61.43-28.92 29.61-35.42 66.14-36.67c43.58-1.38 56.86 11.63 57.28 31.97" style="fill:#6b80b2"/><path id="XMLID_137_" d="M250.75 172.98c.28 11.62-25.18 33.21-61.3 33.21s-60.6-8.72-60.6-28.64 29.33-35.01 65.31-36.11c42.89-1.53 56.17 11.48 56.59 31.54" style="fill:#6c81b3"/><path id="XMLID_136_" d="M249.78 172.84c.28 11.48-24.91 32.79-60.6 32.79s-59.91-8.58-59.91-28.36 28.92-34.59 64.48-35.7c42.47-1.24 55.62 11.49 56.03 31.27" style="fill:#6d81b3"/><path id="XMLID_135_" d="M248.95 172.84c.28 11.35-24.63 32.52-59.77 32.52s-59.22-8.58-59.22-28.09 28.5-34.18 63.79-35.28c41.64-1.39 54.78 11.2 55.2 30.85" style="fill:#6e82b4"/><path id="XMLID_134_" d="M247.98 172.7c.28 11.35-24.35 32.1-59.08 32.1s-58.53-8.44-58.53-27.81 28.23-33.76 62.96-34.87c41.23-1.24 54.24 11.35 54.65 30.58" style="fill:#6f83b4"/><path id="XMLID_133_" d="M247.15 172.7c.28 11.21-24.08 31.69-58.39 31.69s-57.84-8.44-57.84-27.4 27.81-33.35 62.13-34.45c40.68-1.38 53.69 11.07 54.1 30.16" style="fill:#7184b5"/><path id="XMLID_132_" d="M246.18 172.57c.28 11.07-23.8 31.27-57.7 31.27s-57.14-8.44-57.14-27.12c0-18.82 27.53-32.93 61.43-34.04 40.13-1.11 53 11.07 53.41 29.89" style="fill:#7285b6"/><path id="XMLID_131_" d="M245.21 172.57c.28 11.07-23.52 30.86-57.01 30.86s-56.45-8.3-56.45-26.84 27.12-32.52 60.6-33.62c39.72-1.12 52.59 10.92 52.86 29.6" style="fill:#7386b6"/><path id="XMLID_130_" d="M244.38 172.43c.28 10.93-23.25 30.58-56.31 30.58s-55.76-8.3-55.76-26.57 26.84-32.1 59.77-33.07c39.16-1.24 51.89 10.79 52.3 29.06" style="fill:#7486b6"/><path id="XMLID_129_" d="M243.42 172.43c.14 10.79-22.97 30.16-55.48 30.16-32.65 0-55.07-8.16-55.07-26.29 0-17.99 26.43-31.69 59.08-32.65 38.46-1.25 51.19 10.65 51.47 28.78" style="fill:#7587b7"/><path id="XMLID_128_" d="M242.59 172.43c.14 10.79-22.69 29.75-54.79 29.75-32.24 0-54.38-8.16-54.38-26.01s26.15-31.27 58.25-32.24c37.91-1.11 50.5 10.51 50.92 28.5" style="fill:#7688b7"/><path id="XMLID_127_" d="M241.62 172.29c.14 10.65-22.42 29.33-54.1 29.33s-53.69-8.03-53.69-25.6 25.74-30.86 57.42-31.82c37.5-1.11 50.09 10.38 50.37 28.09" style="fill:#7788b8"/><path id="XMLID_126_" d="M240.79 172.29c.14 10.52-22.14 29.06-53.41 29.06s-52.99-8.03-52.99-25.32 25.46-30.44 56.73-31.41c36.8-1.25 49.25 10.23 49.67 27.67" style="fill:#7889b8"/><path id="XMLID_125_" d="M239.82 172.15c.14 10.52-21.86 28.64-52.72 28.64s-52.16-7.89-52.16-25.04 25.04-30.03 55.9-30.99c36.25-1.11 48.7 10.23 48.98 27.39" style="fill:#798ab9"/><path id="XMLID_124_" d="M238.85 172.15c.14 10.38-21.59 28.23-52.03 28.23s-51.47-7.89-51.47-24.77 24.63-29.61 55.07-30.58c35.84-.97 48.15 10.1 48.43 27.12" style="fill:#7a8bb9"/><path id="XMLID_123_" d="M238.02 172.01c.14 10.24-21.31 27.81-51.33 27.81s-50.78-7.75-50.78-24.49c0-16.6 24.35-29.2 54.38-30.03 35.14-.96 47.45 10.11 47.73 26.71" style="fill:#7c8cba"/><path id="XMLID_122_" d="M237.05 172.01c.14 10.24-21.03 27.53-50.5 27.53-29.61 0-50.09-7.75-50.09-24.08s23.94-28.78 53.55-29.61c34.59-1.23 46.76 9.7 47.04 26.16" style="fill:#7d8dbb"/><path id="XMLID_121_" d="M236.22 171.87c.14 10.1-20.75 27.12-49.81 27.12-29.2 0-49.4-7.75-49.4-23.8 0-16.19 23.66-28.36 52.72-29.2 34.04-.96 46.21 9.7 46.49 25.88" style="fill:#7e8ebb"/><path id="XMLID_120_" d="M235.25 171.87c.14 9.96-20.48 26.7-49.12 26.7s-48.7-7.61-48.7-23.52 23.25-27.95 52.03-28.78c33.48-.96 45.52 9.55 45.79 25.6" style="fill:#7f8ebc"/><path id="XMLID_119_" d="M234.42 171.74c.14 9.96-20.2 26.29-48.43 26.29s-48.01-7.61-48.01-23.25 22.97-27.53 51.2-28.36c32.93-.84 44.96 9.68 45.24 25.32" style="fill:#808fbc"/><path id="XMLID_118_" d="M233.45 171.74c.14 9.82-19.92 25.87-47.74 25.87s-47.32-7.47-47.32-22.97c0-15.36 22.55-27.12 50.37-27.95 32.52-.83 44.42 9.55 44.69 25.05" style="fill:#8090bd"/><path id="XMLID_117_" d="M232.62 171.6c.14 9.69-19.65 25.6-47.04 25.6s-46.63-7.47-46.63-22.55c0-15.22 22.28-26.7 49.67-27.53 31.83-.84 43.73 9.26 44 24.48" style="fill:#8291bd"/><path id="XMLID_116_" d="M231.65 171.6c.14 9.69-19.23 25.18-46.21 25.18s-45.94-7.33-45.94-22.28 21.86-26.29 48.84-26.98c31.28-.97 43.04 9 43.31 24.08" style="fill:#8392be"/><path id="XMLID_115_" d="M230.69 171.46c.14 9.55-18.96 24.77-45.52 24.77-26.57 0-45.25-7.33-45.25-22s21.59-25.87 48.01-26.57c30.86-.83 42.62 9.13 42.76 23.8" style="fill:#8492be"/><path id="XMLID_114_" d="M229.86 171.46c.14 9.41-18.68 24.35-44.83 24.35s-44.55-7.19-44.55-21.72c0-14.39 21.17-25.46 47.32-26.15 30.16-.83 41.78 8.99 42.06 23.52" style="fill:#8493bf"/><path id="XMLID_113_" d="M228.89 171.32c.14 9.41-18.4 24.08-44.14 24.08s-43.72-7.19-43.72-21.45 20.75-25.04 46.49-25.74c29.61-.69 41.23 8.86 41.37 23.11" style="fill:#8795c0"/><path id="XMLID_112_" d="M228.06 171.32c.14 9.27-18.13 23.66-43.45 23.66-25.18 0-43.03-7.06-43.03-21.03s20.48-24.63 45.66-25.32c29.06-.83 40.54 8.72 40.82 22.69" style="fill:#8896c0"/><path id="XMLID_111_" d="M227.09 171.18c.14 9.13-17.85 23.25-42.75 23.25-24.77 0-42.34-7.06-42.34-20.75 0-13.7 20.06-24.21 44.97-24.91 28.5-.7 39.98 8.71 40.12 22.41" style="fill:#8896c1"/><path id="XMLID_110_" d="M226.26 171.18c.14 9.13-17.57 22.83-41.92 22.83s-41.65-7.06-41.65-20.48c0-13.56 19.79-23.8 44.14-24.49 27.81-.69 39.15 8.58 39.43 22.14" style="fill:#8997c1"/><path id="XMLID_109_" d="M225.29 171.18c.14 8.99-17.3 22.55-41.23 22.55s-40.96-6.92-40.96-20.2 19.37-23.38 43.31-23.94c27.4-.82 38.74 8.17 38.88 21.59" style="fill:#8a98c2"/><path id="XMLID_108_" d="M224.46 171.04c.14 8.86-17.02 22.14-40.54 22.14s-40.26-6.92-40.26-19.92c0-13.01 19.09-22.97 42.62-23.52 26.69-.7 37.9 8.3 38.18 21.3" style="fill:#8b99c2"/><path id="XMLID_107_" d="M223.49 171.04c.14 8.86-16.74 21.72-39.85 21.72s-39.57-6.78-39.57-19.51 18.68-22.55 41.79-23.11c26.28-.82 37.49 8.04 37.63 20.9" style="fill:#8c99c3"/><path id="XMLID_106_" d="M222.52 170.91c.14 8.72-16.47 21.31-39.16 21.31s-38.88-6.78-38.88-19.23c0-12.59 18.4-22.14 40.96-22.69 25.87-.56 36.94 8.01 37.08 20.61" style="fill:#8d9ac3"/><path id="XMLID_105_" d="M221.69 170.91c.14 8.58-16.19 20.89-38.47 20.89-22.14 0-38.19-6.64-38.19-18.96s17.99-21.72 40.26-22.28c25.19-.55 36.26 7.89 36.4 20.35" style="fill:#8e9bc4"/><path id="XMLID_104_" d="M220.72 170.77c.14 8.58-15.91 20.62-37.77 20.62-21.72 0-37.5-6.64-37.5-18.68s17.71-21.31 39.43-21.86c24.77-.56 35.71 7.88 35.84 19.92" style="fill:#8f9bc4"/><path id="XMLID_103_" d="M219.89 170.77c.14 8.44-15.64 20.2-36.94 20.2s-36.81-6.5-36.81-18.4c0-11.76 17.3-20.89 38.6-21.45 24.08-.55 35.01 7.75 35.15 19.65" style="fill:#919dc5"/><path id="XMLID_102_" d="M218.92 170.63c.14 8.3-15.36 19.79-36.25 19.79s-36.11-6.5-36.11-18.13c0-11.62 17.02-20.48 37.91-20.89 23.52-.42 34.32 7.61 34.45 19.23" style="fill:#929ec6"/><path id="XMLID_101_" d="M218.09 170.63c.14 8.3-15.08 19.37-35.56 19.37s-35.28-6.36-35.28-17.71 16.6-20.06 37.08-20.48c22.83-.55 33.63 7.47 33.76 18.82" style="fill:#939fc6"/><path id="XMLID_100_" d="M217.13 170.49c.14 8.16-14.81 19.09-34.87 19.09s-34.59-6.36-34.59-17.43 16.19-19.65 36.25-20.06c22.41-.56 33.07 7.33 33.21 18.4" style="fill:#94a0c7"/><path id="XMLID_99_" d="M216.16 170.49c.14 8.03-14.53 18.68-34.18 18.68s-33.9-6.36-33.9-17.16c0-10.79 15.91-19.23 35.56-19.65 21.86-.55 32.52 7.2 32.52 18.13" style="fill:#95a0c7"/><path id="XMLID_98_" d="M215.33 170.35c.14 7.89-14.25 18.26-33.48 18.26s-33.21-6.23-33.21-16.88 15.5-18.82 34.73-19.23c21.3-.27 31.82 7.2 31.96 17.85" style="fill:#96a1c8"/><path id="XMLID_97_" d="M214.36 170.35c.14 7.89-13.97 17.85-32.65 17.85s-32.52-6.23-32.52-16.6 15.22-18.4 33.9-18.82c20.75-.28 31.27 7.19 31.27 17.57" style="fill:#97a2c8"/><path id="XMLID_96_" d="M213.53 170.21c.14 7.75-13.7 17.57-31.96 17.57s-31.82-6.09-31.82-16.19 14.81-17.99 33.07-18.4c20.19-.41 30.57 6.92 30.71 17.02" style="fill:#98a3c9"/><path id="XMLID_95_" d="M212.56 170.21c.14 7.61-13.42 17.16-31.27 17.16s-31.13-6.09-31.13-15.91 14.53-17.57 32.38-17.85c19.64-.55 30.02 6.64 30.02 16.6" style="fill:#99a4c9"/><path id="XMLID_94_" d="M211.73 170.08c.14 7.61-13.14 16.74-30.58 16.74s-30.44-5.95-30.44-15.64 14.11-17.16 31.55-17.43c19.09-.28 29.33 6.64 29.47 16.33" style="fill:#9aa4c9"/><path id="XMLID_93_" d="M210.76 170.08c0 7.47-12.87 16.33-29.89 16.33s-29.75-5.95-29.75-15.36 13.84-16.74 30.72-17.02c18.68-.28 28.78 6.64 28.92 16.05" style="fill:#9aa5ca"/><path id="XMLID_92_" d="M209.93 169.94c0 7.33-12.59 16.05-29.2 16.05s-29.06-5.81-29.06-15.08c0-9.13 13.42-16.33 30.03-16.6 17.99-.29 28.09 6.49 28.23 15.63" style="fill:#9da7cc"/><path id="XMLID_91_" d="M208.96 169.94c0 7.33-12.31 15.64-28.36 15.64-16.19 0-28.36-5.81-28.36-14.67 0-8.99 13.14-15.91 29.2-16.19 17.42-.28 27.38 6.22 27.52 15.22" class="st132"/><path id="XMLID_90_" d="M207.99 169.8c0 7.19-12.04 15.22-27.67 15.22s-27.67-5.67-27.67-14.39 12.73-15.5 28.36-15.77c17.02-.14 26.98 6.36 26.98 14.94" class="st132"/><path id="XMLID_89_" d="M207.16 169.8c0 7.06-11.76 14.81-26.98 14.81s-26.84-5.67-26.84-14.11 12.31-15.08 27.67-15.36c16.19-.15 26.02 6.22 26.15 14.66" style="fill:#9fa9cd"/><path id="XMLID_88_" d="M206.2 169.8c0 7.06-11.48 14.39-26.29 14.39s-26.15-5.53-26.15-13.84c0-8.16 12.04-14.67 26.84-14.81 15.77-.27 25.6 5.96 25.6 14.26" style="fill:#a0aacd"/><path id="XMLID_87_" d="M205.36 169.66c0 6.92-11.21 14.11-25.6 14.11s-25.46-5.53-25.46-13.56 11.62-14.25 26.01-14.39c15.23-.13 24.92 5.81 25.05 13.84" style="fill:#a2abce"/><path id="XMLID_86_" d="M204.4 169.66c0 6.78-10.93 13.7-24.91 13.7-13.97 0-24.77-5.53-24.77-13.14 0-7.75 11.35-13.84 25.32-13.97 14.67-.29 24.36 5.66 24.36 13.41" style="fill:#a2acce"/><path id="XMLID_85_" d="M203.57 169.52c0 6.78-10.65 13.28-24.21 13.28s-24.08-5.4-24.08-12.87 10.93-13.42 24.49-13.56c14.11-.13 23.66 5.68 23.8 13.15" style="fill:#a3adcf"/><path id="XMLID_84_" d="M202.6 169.52c0 6.64-10.38 12.87-23.38 12.87-13.14 0-23.38-5.4-23.38-12.59s10.65-13.01 23.66-13.14c13.55-.14 23.1 5.53 23.1 12.86" style="fill:#a4adcf"/><path id="XMLID_83_" d="M201.63 169.38c0 6.5-10.1 12.59-22.69 12.59-12.73 0-22.69-5.26-22.69-12.31 0-7.06 10.24-12.59 22.97-12.73 13 0 22.41 5.4 22.41 12.45" style="fill:#a5aecf"/><path id="XMLID_82_" d="M200.8 169.38c0 6.5-9.82 12.18-22 12.18s-22-5.26-22-12.04 9.96-12.18 22.14-12.31c12.45 0 21.86 5.39 21.86 12.17" style="fill:#a7b0d1"/><path id="XMLID_81_" d="M199.83 169.24c0 6.36-9.55 11.76-21.31 11.76s-21.31-5.12-21.31-11.62 9.55-11.76 21.31-11.76c12.04-.14 21.31 5.12 21.31 11.62" style="fill:#a8b1d1"/><path id="XMLID_80_" d="M199 169.24c0 6.23-9.27 11.35-20.62 11.35s-20.62-5.12-20.62-11.35 9.27-11.35 20.62-11.35c11.35-.13 20.62 4.99 20.62 11.35" style="fill:#a9b1d2"/></g><linearGradient id="XMLID_00000139985225335982722070000000962872534769002134_" x1="263.688" x2="229.982" y1="424.377" y2="198.485" gradientTransform="translate(0 -128)" gradientUnits="userSpaceOnUse"><stop offset=".005" style="stop-color:#000"/><stop offset=".006" style="stop-color:#040404"/><stop offset=".052" style="stop-color:#444550"/><stop offset=".099" style="stop-color:#4c536a"/><stop offset=".146" style="stop-color:#455378"/><stop offset=".194" style="stop-color:#344f80"/><stop offset=".241" style="stop-color:#1d4b84"/><stop offset=".289" style="stop-color:#004787"/><stop offset=".336" style="stop-color:#004588"/><stop offset=".385" style="stop-color:#004489"/><stop offset="1" style="stop-color:#004489"/></linearGradient><path id="XMLID_79_" d="M291.84 121.65c25.04 13.01 40.54 31.13 40.54 51.06 0 39.71-61.43 71.81-137.12 71.81-44 0-83.16-10.79-108.2-27.67 12.18 40.82 80.25 72.09 162.58 72.09 90.91 0 164.52-38.05 164.52-84.96 0-39.58-51.89-72.79-122.32-82.33" style="fill:url(#XMLID_00000139985225335982722070000000962872534769002134_)"/><g id="XMLID_11_"><g id="XMLID_12_"><path id="XMLID_77_" d="M427.44 203.7c0 52.99-79.84 96.03-178.21 96.03S71.01 256.69 71.01 203.7s79.84-96.03 178.21-96.03c98.52-.14 178.22 42.9 178.22 96.03z" class="st144"/><path id="XMLID_76_" d="M412.91 203.28c0 46.63-73.2 84.4-163.41 84.4s-163.41-37.77-163.41-84.4 73.2-84.4 163.41-84.4 163.41 37.77 163.41 84.4z" style="fill:none;stroke:#000;stroke-width:.9052"/><path id="XMLID_75_" d="M427.44 203.7c0 52.99-79.84 96.03-178.21 96.03S71.01 256.69 71.01 203.7s79.84-96.03 178.21-96.03c98.52-.14 178.22 42.9 178.22 96.03" class="st146"/><path id="XMLID_74_" d="M424.54 202.73c0 51.33-78.31 92.84-175.03 92.84S74.47 253.92 74.47 202.73c0-51.33 78.31-92.84 175.03-92.84 96.58 0 175.04 41.51 175.04 92.84" class="st146"/><linearGradient id="SVGID_1_" x1="71.012" x2="427.441" y1="331.56" y2="331.56" gradientTransform="translate(0 -128)" gradientUnits="userSpaceOnUse"><stop offset=".005" style="stop-color:gray"/><stop offset=".154" style="stop-color:#fff"/><stop offset=".194" style="stop-color:#f4f4f4"/><stop offset=".3" style="stop-color:#ddd"/><stop offset=".399" style="stop-color:#cecece"/><stop offset=".483" style="stop-color:#c9c9c9"/><stop offset=".488" style="stop-color:silver"/><stop offset=".514" style="stop-color:#979797"/><stop offset=".539" style="stop-color:#757575"/><stop offset=".565" style="stop-color:#5a5a5a"/><stop offset=".592" style="stop-color:#474747"/><stop offset=".619" style="stop-color:#3c3c3c"/><stop offset=".648" style="stop-color:#383838"/><stop offset=".835" style="stop-color:#383838"/><stop offset="1" style="stop-color:#7a7a7a"/></linearGradient><path d="M249.23 107.53c-98.38 0-178.21 43.03-178.21 96.03s79.84 96.03 178.21 96.03 178.21-43.03 178.21-96.03-79.7-96.03-178.21-96.03m.27 188.04c-96.72 0-175.03-41.65-175.03-92.84 0-51.33 78.31-92.84 175.03-92.84s175.03 41.65 175.03 92.84c.01 51.33-78.45 92.84-175.03 92.84" style="fill:url(#SVGID_1_)"/><path id="XMLID_71_" d="M412.91 203.28c0 46.63-73.2 84.4-163.41 84.4s-163.41-37.77-163.41-84.4 73.2-84.4 163.41-84.4 163.41 37.77 163.41 84.4" class="st146"/><linearGradient id="SVGID_00000139282407899019750590000009048585489950877588_" x1="71.012" x2="427.441" y1="331.56" y2="331.56" gradientTransform="translate(0 -128)" gradientUnits="userSpaceOnUse"><stop offset=".005" style="stop-color:#d1d1d1"/><stop offset=".456" style="stop-color:#4d4d4d"/><stop offset="1" style="stop-color:#a6a6a6"/></linearGradient><path d="M249.23 107.53c-98.38 0-178.21 43.03-178.21 96.03s79.84 96.03 178.21 96.03 178.21-43.03 178.21-96.03-79.7-96.03-178.21-96.03m.27 180.16c-90.21 0-163.41-37.77-163.41-84.4s73.2-84.4 163.41-84.4 163.41 37.77 163.41 84.4-73.19 84.4-163.41 84.4" style="fill:url(#SVGID_00000139282407899019750590000009048585489950877588_)"/><linearGradient id="SVGID_00000136393255471241484030000002416724726910846894_" x1="173.985" x2="319.769" y1="253.831" y2="404.68" gradientTransform="translate(0 -128)" gradientUnits="userSpaceOnUse"><stop offset=".005" style="stop-color:#e6e6e6"/><stop offset=".456" style="stop-color:#595959"/><stop offset=".835" style="stop-color:gray"/><stop offset="1" style="stop-color:#d9d9d9"/></linearGradient><path d="M248.67 111.55c-95.33 0-172.68 40.96-172.68 91.6 0 50.5 77.35 91.6 172.68 91.6s172.68-40.96 172.68-91.6-77.34-91.6-172.68-91.6m.83 176.14c-90.21 0-163.41-37.77-163.41-84.4s73.2-84.4 163.41-84.4 163.41 37.77 163.41 84.4-73.19 84.4-163.41 84.4" style="fill:url(#SVGID_00000136393255471241484030000002416724726910846894_)"/><linearGradient id="SVGID_00000108992945693576676330000014692260022434674868_" x1="182.954" x2="373.586" y1="292.492" y2="403.569" gradientTransform="translate(0 -128)" gradientUnits="userSpaceOnUse"><stop offset=".005" style="stop-color:#f2f2f2"/><stop offset=".346" style="stop-color:#1a1a1a"/><stop offset=".588" style="stop-color:#3d3d3d"/><stop offset=".696" style="stop-color:#484848"/><stop offset=".769" style="stop-color:#525252"/><stop offset="1" style="stop-color:#bdbdbd"/></linearGradient><path d="M249.5 117.5c-91.74 0-166.04 38.47-166.04 85.79s74.3 85.79 166.04 85.79 166.04-38.47 166.04-85.79c0-47.47-74.44-85.79-166.04-85.79m0 170.19c-90.21 0-163.41-37.77-163.41-84.4s73.2-84.4 163.41-84.4 163.41 37.77 163.41 84.4-73.19 84.4-163.41 84.4" style="fill:url(#SVGID_00000108992945693576676330000014692260022434674868_)"/><path id="XMLID_64_" d="M219.89 248.67s-17.16 1.25-17.02 3.18c.14 1.94 14.11 3.32 16.47 3.6 2.35.28 11.48 1.25 14.11 2.21 2.63.97 4.43 1.66 5.4 4.57s3.6 11.48 3.6 11.48 1.25 4.84 2.21 4.84c.97 0 2.21-5.12 2.21-5.12s2.49-10.79 4.43-12.73 2.21-2.77 10.52-4.01c8.3-1.25 16.6-2.77 22.83-2.77s7.47.14 11.35.55c3.87.42 12.18 1.52 15.36 2.49 3.32.97 4.43 3.32 5.26 5.53s2.77 7.89 2.77 7.89.42 2.35 1.66 2.35c1.11 0 1.52-2.49 1.52-2.49s3.04-9.55 4.7-11.07 2.91-2.91 11.21-3.87c8.3-.97 13.28-2.08 16.19-2.21 2.91-.14 4.98-.55 4.98-1.52s-1.11-1.25-5.26-1.94c-4.15-.55-16.47-1.94-22.83-3.32-6.5-1.38-6.78-6.5-7.75-9.13-.97-2.49-1.52-6.5-3.04-6.5s-1.94 2.77-2.21 3.6c-.28.83-1.8 6.23-2.91 8.03s-1.94 3.74-6.36 4.57-12.73 2.63-20.48 2.77-12.18-.42-18.26-1.11c-6.09-.69-11.76-.97-15.91-2.91-4.29-1.94-6.36-8.03-7.47-11.76-1.11-3.74-1.94-5.53-2.49-5.53-.69 0-1.94 2.77-2.63 5.26s-2.77 9.69-5.67 11.48c-2.93 1.65-7.77 2.76-16.49 3.59z" class="st144"/><linearGradient id="XMLID_00000122689312902846574630000013836302093379464069_" x1="277.116" x2="322.71" y1="390.723" y2="390.723" gradientTransform="translate(0 -128)" gradientUnits="userSpaceOnUse"><stop offset=".082" style="stop-color:#999"/><stop offset=".175" style="stop-color:#7c7c7c"/><stop offset=".324" style="stop-color:#525252"/><stop offset=".637" style="stop-color:#4a4a4a"/><stop offset=".786" style="stop-color:#b0b0b0"/><stop offset=".89" style="stop-color:#7a7a7a"/><stop offset="1" style="stop-color:#9e9e9e"/></linearGradient><path id="XMLID_63_" d="M322.56 265.41c-.14.83-.55 2.35-1.38 2.35s-1.11-.97-1.52-2.21c-.42-1.25-.69-4.43-2.21-7.75-1.38-3.32-7.47-3.74-11.76-4.15s-21.86-1.25-25.46-.83c-.55 0-1.38 0-2.49.14l-.55 1.52c2.77-.28 5.4-.55 7.75-.55 6.23 0 7.47.14 11.35.55 3.87.42 12.18 1.52 15.36 2.49 3.32.97 4.43 3.32 5.26 5.53s2.77 7.89 2.77 7.89.42 2.35 1.66 2.35c1.11 0 1.52-2.49 1.52-2.49z" style="fill:url(#XMLID_00000122689312902846574630000013836302093379464069_)"/><linearGradient id="XMLID_00000098207653799525952590000003792905349788146342_" x1="344.076" x2="344.076" y1="378.172" y2="380.47" gradientTransform="translate(0 -128)" gradientUnits="userSpaceOnUse"><stop offset=".137" style="stop-color:#e6e6e6"/><stop offset=".505" style="stop-color:#ccc"/><stop offset=".912" style="stop-color:#e0e0e0"/></linearGradient><path id="XMLID_62_" d="M328.23 248.25c3.6 1.38 12.45 2.08 13.84 2.08 1.38 0 3.87-.14 3.87 1.11s-1.38 1.38-3.04 1.38l12.04.28c2.91-.14 4.98-.55 4.98-1.52s-1.11-1.25-5.26-1.94c-4.15-.55-16.47-1.94-22.83-3.32z" style="fill:url(#XMLID_00000098207653799525952590000003792905349788146342_)"/><linearGradient id="XMLID_00000121996524720926838380000009204205970149066127_" x1="292.798" x2="318.592" y1="369.648" y2="367.96" gradientTransform="translate(0 -128)" gradientUnits="userSpaceOnUse"><stop offset=".082" style="stop-color:#999"/><stop offset=".128" style="stop-color:#a4a4a4"/><stop offset=".324" style="stop-color:#cfcfcf"/><stop offset=".56" style="stop-color:#d9d9d9"/><stop offset=".758" style="stop-color:#e0e0e0"/></linearGradient><path id="XMLID_61_" d="M322.56 239.12c-.28-1.66-.97-3.04-1.66-3.04s-1.38 1.8-1.66 3.04c-.28 1.25-.14 5.95-3.18 7.89s-6.23 2.77-16.74 3.32c-10.38.55-19.09.28-22.28.14l-.14-1.25c3.6.42 7.2.55 12.18.42 7.75-.14 16.05-1.94 20.48-2.77s5.26-2.77 6.36-4.57c1.11-1.8 2.63-7.2 2.91-8.03s.69-3.6 2.21-3.6 2.21 4.01 3.04 6.5z" style="fill:url(#XMLID_00000121996524720926838380000009204205970149066127_)"/><linearGradient id="XMLID_00000179639009361668231030000012520514653913484212_" x1="260.784" x2="274.61" y1="367.744" y2="381.358" gradientTransform="translate(0 -128)" gradientUnits="userSpaceOnUse"><stop offset=".082" style="stop-color:#ededed"/><stop offset=".205" style="stop-color:#bcbcbc"/><stop offset=".324" style="stop-color:#919191"/><stop offset=".56" style="stop-color:#8c8c8c"/><stop offset=".758" style="stop-color:#999"/></linearGradient><path id="XMLID_60_" d="M253.38 244.93c.42.28.83.55 1.38.69 4.29 1.94 9.82 2.21 15.91 2.91 6.09.69 10.52 1.25 18.26 1.11v.97c-5.67.14-9.96 0-12.04-.14-3.18-.14-19.79-.55-25.04-2.35-.55-.14-.97-.42-1.38-.69z" style="fill:url(#XMLID_00000179639009361668231030000012520514653913484212_)"/><linearGradient id="XMLID_00000060022274663978783970000003758602621097557162_" x1="247.74" x2="275.181" y1="397.89" y2="375.375" gradientTransform="translate(0 -128)" gradientUnits="userSpaceOnUse"><stop offset=".082" style="stop-color:#949494"/><stop offset=".164" style="stop-color:#7c7c7c"/><stop offset=".324" style="stop-color:#525252"/><stop offset=".56" style="stop-color:#4a4a4a"/><stop offset=".758" style="stop-color:#999"/></linearGradient><path id="XMLID_59_" d="M280.22 252.82c-3.04.14-20.34 1.66-24.91 1.94s-6.23 3.18-6.78 4.57c-.69 1.25-2.49 10.38-2.77 11.21-.14.69-.42 2.21-.97 2.21v5.95c.97 0 2.21-5.12 2.21-5.12s2.49-10.79 4.43-12.73 2.21-2.77 10.52-4.01c6.5-.97 12.87-2.21 18.4-2.63z" style="fill:url(#XMLID_00000060022274663978783970000003758602621097557162_)"/><linearGradient id="XMLID_00000034067133137520486750000010428754363516860566_" x1="236.639" x2="249.762" y1="389.143" y2="411.905" gradientTransform="translate(0 -128)" gradientUnits="userSpaceOnUse"><stop offset="0" style="stop-color:#d9d9d9"/><stop offset=".203" style="stop-color:#6b6b6b"/><stop offset=".206" style="stop-color:#6c6c6c"/><stop offset=".445" style="stop-color:#969696"/><stop offset=".56" style="stop-color:#969696"/><stop offset=".758" style="stop-color:#a8a8a8"/></linearGradient><path id="XMLID_58_" d="M228.47 254.06s5.67.28 7.89 1.25c2.21.97 4.15 2.21 4.84 4.43.55 2.21 2.49 10.38 2.63 11.07s.42 1.66.97 1.66c.42 0 .69-1.52.97-2.21l1.25 3.18s-1.25 5.12-2.21 5.12c-.97 0-2.21-4.84-2.21-4.84s-2.49-8.58-3.6-11.48c-.97-2.91-2.77-3.6-5.4-4.57-.97-.42-2.91-.69-5.12-1.11z" style="fill:url(#XMLID_00000034067133137520486750000010428754363516860566_)"/><linearGradient id="XMLID_00000145023188089140024610000004930021270281349048_" x1="243.4" x2="246.191" y1="402.818" y2="402.818" gradientTransform="translate(0 -128)" gradientUnits="userSpaceOnUse"><stop offset=".214" style="stop-color:#969696"/><stop offset=".363" style="stop-color:#adadad"/><stop offset=".505" style="stop-color:#c9c9c9"/><stop offset=".742" style="stop-color:#a3a3a3"/><stop offset=".885" style="stop-color:#9e9e9e"/></linearGradient><path id="XMLID_57_" d="M243.83 270.94c.14.69.42 1.66.97 1.66.42 0 .55-.83.83-1.52l.28 6.36c-.28.69-.69 1.25-.97 1.25s-.69-.55-.97-1.25z" style="fill:url(#XMLID_00000145023188089140024610000004930021270281349048_)"/><linearGradient id="XMLID_00000054237556054322147840000007317905120791952044_" x1="216.141" x2="233.028" y1="379.792" y2="389.642" gradientTransform="translate(0 -128)" gradientUnits="userSpaceOnUse"><stop offset="0" style="stop-color:#a8a8a8"/><stop offset=".088" style="stop-color:#6b6b6b"/><stop offset=".368" style="stop-color:#5e5e5e"/><stop offset=".463" style="stop-color:#626262"/><stop offset=".542" style="stop-color:#6c6c6c"/><stop offset=".615" style="stop-color:#7d7d7d"/><stop offset=".685" style="stop-color:#969696"/><stop offset=".687" style="stop-color:#969696"/><stop offset=".846" style="stop-color:#d9d9d9"/></linearGradient><path id="XMLID_56_" d="M233.45 257.66c-2.63-.97-11.76-1.94-14.11-2.21-2.35-.28-16.47-1.66-16.47-3.6-.14-1.94 17.02-3.18 17.02-3.18l.42 1.8c-2.77.42-5.12.28-5.12 1.25s1.8 1.66 5.26 1.8 8.03.69 8.03.69 5.67.28 7.89 1.25z" style="fill:url(#XMLID_00000054237556054322147840000007317905120791952044_)"/><linearGradient id="XMLID_00000103945992020738773010000013443865982786417325_" x1="202.82" x2="247.188" y1="368.088" y2="368.088" gradientTransform="translate(0 -128)" gradientUnits="userSpaceOnUse"><stop offset="0" style="stop-color:#a8a8a8"/><stop offset="1" style="stop-color:#fff"/></linearGradient><path id="XMLID_55_" d="M202.87 251.85c-.14-1.94 17.02-3.18 17.02-3.18 8.72-.83 13.56-1.94 16.47-3.6 2.91-1.8 4.84-8.99 5.67-11.48.69-2.49 1.94-5.26 2.63-5.26s1.38 1.8 2.49 5.53l-.97 3.87c-.55-3.32-.83-4.29-1.66-4.29s-1.38 2.49-1.94 4.84c-.42 2.21-1.11 8.44-5.67 9.82-4.84 1.52-7.61 1.94-16.74 2.21-2.77.42-5.12.28-5.12 1.25z" style="fill:url(#XMLID_00000103945992020738773010000013443865982786417325_)"/><linearGradient id="XMLID_00000121962330634719875900000013704025612771527850_" x1="244.716" x2="254.355" y1="360.634" y2="378.786" gradientTransform="translate(0 -128)" gradientUnits="userSpaceOnUse"><stop offset="0" style="stop-color:#c7c7c7"/><stop offset=".082" style="stop-color:#bdbdbd"/><stop offset=".143" style="stop-color:#8c8c8c"/><stop offset=".215" style="stop-color:#7e7e7e"/><stop offset=".33" style="stop-color:#6b6b6b"/><stop offset=".391" style="stop-color:#595959"/><stop offset=".544" style="stop-color:#2e2e2e"/><stop offset=".574" style="stop-color:#323232"/><stop offset=".604" style="stop-color:#3e3e3e"/><stop offset=".635" style="stop-color:#535353"/><stop offset=".666" style="stop-color:#707070"/><stop offset=".697" style="stop-color:#959595"/><stop offset=".728" style="stop-color:#c1c1c1"/><stop offset=".747" style="stop-color:#e0e0e0"/><stop offset=".89" style="stop-color:#fff"/></linearGradient><path id="XMLID_54_" d="M251.86 248.25c-3.04-1.25-4.57-3.87-5.67-10.38-.55-3.32-.83-4.29-1.66-4.29l.14-5.26c.69 0 1.38 1.8 2.49 5.53 1.11 3.74 3.32 9.96 7.47 11.76z" style="fill:url(#XMLID_00000121962330634719875900000013704025612771527850_)"/><linearGradient id="XMLID_00000142175060447310169550000017199913548625862559_" x1="244" x2="245.257" y1="359.094" y2="359.094" gradientTransform="translate(0 -128)" gradientUnits="userSpaceOnUse"><stop offset="0" style="stop-color:#fff"/><stop offset=".451" style="stop-color:#bfbfbf"/><stop offset=".824" style="stop-color:#c2c2c2"/></linearGradient><path id="XMLID_53_" d="M244.11 233.86c.14-.14.28-.28.55-.28.28 0 .42.14.55.28l.14-5.12c-.28-.28-.42-.42-.55-.42-.14 0-.42.28-.69.55z" style="fill:url(#XMLID_00000142175060447310169550000017199913548625862559_)"/><linearGradient id="XMLID_00000157271551897281101380000003658600225404427950_" x1="209.442" x2="209.461" y1="380.852" y2="378.393" gradientTransform="translate(0 -128)" gradientUnits="userSpaceOnUse"><stop offset="0" style="stop-color:#a6a6a6"/><stop offset=".451" style="stop-color:#e6e6e6"/><stop offset=".824" style="stop-color:#b8b8b8"/></linearGradient><path id="XMLID_52_" d="M216.16 252.68c-.55-.28-.97-.55-.97-.97s.28-.55.83-.69l-10.65-.42c-1.52.42-2.63.83-2.63 1.25s.97.97 2.35 1.38z" style="fill:url(#XMLID_00000157271551897281101380000003658600225404427950_)"/><linearGradient id="XMLID_00000070819490910951479830000005941755921198721687_" x1="343.088" x2="333.997" y1="379.272" y2="408.696" gradientTransform="translate(0 -128)" gradientUnits="userSpaceOnUse"><stop offset=".005" style="stop-color:#fff"/><stop offset=".006" style="stop-color:#fefefe"/><stop offset=".035" style="stop-color:#cbcbcb"/><stop offset=".064" style="stop-color:#a1a1a1"/><stop offset=".092" style="stop-color:#818181"/><stop offset=".118" style="stop-color:#6a6a6a"/><stop offset=".143" style="stop-color:#5c5c5c"/><stop offset=".165" style="stop-color:#575757"/><stop offset=".204" style="stop-color:#686868"/><stop offset=".281" style="stop-color:#959595"/><stop offset=".341" style="stop-color:#bdbdbd"/><stop offset=".454" style="stop-color:#a1a1a1"/><stop offset=".511" style="stop-color:#919191"/><stop offset=".857" style="stop-color:#b8b8b8"/></linearGradient><path id="XMLID_51_" d="M321.18 272.74c1.11 0 1.52-2.49 1.52-2.49s3.04-9.55 4.7-11.07 2.91-2.91 11.21-3.87c8.3-.97 13.28-2.08 16.19-2.21 2.91-.14 4.98-.55 4.98-1.52l-13.97-.14c0 1.25-1.38 1.38-3.04 1.38-1.66.14-9.27.69-14.11 1.66s-5.95 10.1-6.09 10.93-.55 2.35-1.38 2.35v4.98z" style="fill:url(#XMLID_00000070819490910951479830000005941755921198721687_)"/><linearGradient id="XMLID_00000170273927208678201740000014475458120901374601_" x1="321.547" x2="335.946" y1="364.671" y2="379.4" gradientTransform="translate(0 -128)" gradientUnits="userSpaceOnUse"><stop offset=".082" style="stop-color:#dedede"/><stop offset=".244" style="stop-color:#7d7d7d"/><stop offset=".324" style="stop-color:#525252"/><stop offset=".56" style="stop-color:#737373"/><stop offset=".67" style="stop-color:#a0a0a0"/><stop offset=".824" style="stop-color:#e6e6e6"/></linearGradient><path id="XMLID_50_" d="M334.74 249.64c-2.49-.28-4.98-.69-6.5-1.38-3.6-1.38-4.84-3.87-5.67-9.13-.28-1.66-.97-3.04-1.66-3.04s-1.38 1.8-1.66 3.04l-.42-4.84c.28-.83.69-3.6 2.21-3.6s2.21 4.01 3.04 6.5c.97 2.49 1.38 7.75 7.75 9.13 1.25.28 2.49.55 4.01.69z" style="fill:url(#XMLID_00000170273927208678201740000014475458120901374601_)"/><linearGradient id="XMLID_00000169549880124058511740000009210897068356749219_" x1="319.852" x2="322.007" y1="362.207" y2="362.207" gradientTransform="translate(0 -128)" gradientUnits="userSpaceOnUse"><stop offset="0" style="stop-color:#e3e3e3"/><stop offset=".451" style="stop-color:#bababa"/><stop offset=".764" style="stop-color:#dadada"/><stop offset=".824" style="stop-color:#e0e0e0"/></linearGradient><path id="XMLID_49_" d="M319.52 231.65c.28-.55.69-.97 1.25-.97.42 0 .83.28 1.11.83l.28 6.09v-.14c-.28-.83-.83-1.52-1.25-1.52-.55 0-.97.83-1.25 1.8z" style="fill:url(#XMLID_00000169549880124058511740000009210897068356749219_)"/><linearGradient id="XMLID_00000110442612835507774630000017854428656670444676_" x1="352.171" x2="352.171" y1="378.713" y2="380.048" gradientTransform="translate(0 -128)" gradientUnits="userSpaceOnUse"><stop offset="0" style="stop-color:#e6e6e6"/><stop offset=".054" style="stop-color:#ddd"/><stop offset=".203" style="stop-color:#cbcbcb"/><stop offset=".36" style="stop-color:silver"/><stop offset=".538" style="stop-color:#bdbdbd"/><stop offset=".645" style="stop-color:#c2c2c2"/><stop offset=".772" style="stop-color:#d0d0d0"/><stop offset=".908" style="stop-color:#e8e8e8"/><stop offset="1" style="stop-color:#fcfcfc"/></linearGradient><path id="XMLID_48_" d="M357.71 252.82c1.38-.28 2.08-.55 2.08-1.25 0-.55-.55-.97-2.08-1.38l-13.14.14c.69.14 1.25.42 1.25 1.11 0 .28-.14.55-.28.83z" style="fill:url(#XMLID_00000110442612835507774630000017854428656670444676_)"/><linearGradient id="XMLID_00000029731211280453881440000012441574531512076733_" x1="319.524" x2="323.224" y1="397.075" y2="397.075" gradientTransform="translate(0 -128)" gradientUnits="userSpaceOnUse"><stop offset=".017" style="stop-color:#878787"/><stop offset=".064" style="stop-color:#8a8a8a"/><stop offset=".093" style="stop-color:#919191"/><stop offset=".429" style="stop-color:#e0e0e0"/><stop offset=".769" style="stop-color:#9e9e9e"/><stop offset="1" style="stop-color:#adadad"/></linearGradient><path id="XMLID_47_" d="M322.56 265.41c-.14.83-.55 2.35-1.38 2.35s-1.11-.97-1.52-2.21l-.14 4.84s.42 2.35 1.66 2.35c1.38 0 2.08-4.15 2.08-4.15z" style="fill:url(#XMLID_00000029731211280453881440000012441574531512076733_)"/><path id="XMLID_46_" d="M337.37 219.19c-6.23 0-14.53 1.52-22.83 2.91-8.3 1.38-8.58 2.08-10.52 4.15-1.94 2.08-4.43 13.01-4.43 13.01s-1.25 5.12-2.21 5.12c-.97 0-2.21-4.84-2.21-4.84s-2.49-8.86-3.6-11.76c-1.11-2.91-2.77-3.74-5.4-4.7-2.63-.97-11.76-1.94-14.11-2.35-2.35-.28-16.47-1.66-16.47-3.6-.14-1.94 17.02-3.18 17.02-3.18 8.72-.83 13.56-1.94 16.47-3.74s4.84-9.13 5.67-11.62c.69-2.49 1.94-5.4 2.63-5.4s1.38 1.8 2.49 5.67 3.32 10.1 7.47 12.04 9.82 2.21 15.91 2.91c0 0 7.33 1.38 14.94 1.25 7.75-.14 12.45-1.52 15.5-1.94 3.04-.42 8.58-1.38 10.38-5.53s3.6-10.1 4.84-10.24c1.25-.14 3.32 6.5 3.32 6.5s1.52 6.5 6.5 7.61c5.12 1.11 13.01 3.04 17.16 3.6 4.15.55 5.4.97 5.4 2.08s-5.53 1.66-5.53 1.66-14.94 1.66-17.99 3.6c-3.04 1.94-4.84 3.18-7.06 13.28-.83 2.63-.97 3.87-1.94 3.87-.83 0-2.21-4.29-3.87-10.1s-3.04-7.47-11.48-8.58c-8.17-1.4-11.63-1.68-16.05-1.68z" class="st144"/><linearGradient id="XMLID_00000000207532151344706000000000394897419822201000_" x1="309.749" x2="319.598" y1="335.729" y2="345.428" gradientTransform="translate(0 -128)" gradientUnits="userSpaceOnUse"><stop offset=".082" style="stop-color:#ededed"/><stop offset=".205" style="stop-color:#bcbcbc"/><stop offset=".324" style="stop-color:#919191"/><stop offset=".56" style="stop-color:#8c8c8c"/><stop offset=".758" style="stop-color:#999"/></linearGradient><path id="XMLID_45_" d="M329.62 215.74c-3.18-.14-19.92-.55-25.18-2.35-.55-.14-.97-.42-1.38-.69l2.91-2.63 1.25.83c4.29 1.94 9.96 2.21 16.05 2.91" style="fill:url(#XMLID_00000000207532151344706000000000394897419822201000_)"/><linearGradient id="XMLID_00000087375703230098621900000016171298712262140820_" x1="300.04" x2="327.719" y1="363.213" y2="340.502" gradientTransform="translate(0 -128)" gradientUnits="userSpaceOnUse"><stop offset=".082" style="stop-color:#949494"/><stop offset=".164" style="stop-color:#7c7c7c"/><stop offset=".324" style="stop-color:#525252"/><stop offset=".56" style="stop-color:#4a4a4a"/><stop offset=".758" style="stop-color:#999"/></linearGradient><path id="XMLID_44_" d="M332.8 218.09c-3.04.14-20.48 1.66-25.04 1.94-4.57.28-6.23 3.18-6.92 4.57s-2.49 10.52-2.77 11.35c-.14.69-.42 2.35-.97 2.35v6.09c.97 0 2.21-5.12 2.21-5.12s2.49-10.93 4.43-13.01c1.94-1.94 2.21-2.77 10.52-4.15 6.5-.97 13.01-2.21 18.4-2.63z" style="fill:url(#XMLID_00000087375703230098621900000016171298712262140820_)"/><linearGradient id="XMLID_00000137111975683128540120000018126572278274161817_" x1="289.187" x2="302.472" y1="354.492" y2="377.536" gradientTransform="translate(0 -128)" gradientUnits="userSpaceOnUse"><stop offset="0" style="stop-color:#d9d9d9"/><stop offset=".203" style="stop-color:#6b6b6b"/><stop offset=".206" style="stop-color:#6c6c6c"/><stop offset=".445" style="stop-color:#969696"/><stop offset=".56" style="stop-color:#969696"/><stop offset=".758" style="stop-color:#a8a8a8"/></linearGradient><path id="XMLID_43_" d="M280.91 219.33s5.67.28 7.89 1.38c2.21 1.11 4.29 2.21 4.84 4.43.55 2.35 2.49 10.52 2.63 11.21.14.83.42 1.66.97 1.66.42 0 .69-1.52.97-2.35l1.38 3.18s-1.25 5.12-2.21 5.12c-.97 0-2.21-4.84-2.21-4.84s-2.49-8.72-3.6-11.76c-1.11-2.91-2.77-3.74-5.53-4.7-.97-.42-2.91-.69-5.12-1.11v-2.22z" style="fill:url(#XMLID_00000137111975683128540120000018126572278274161817_)"/><linearGradient id="XMLID_00000095338508538415259430000003827571522719081909_" x1="295.88" x2="298.692" y1="368.296" y2="368.296" gradientTransform="translate(0 -128)" gradientUnits="userSpaceOnUse"><stop offset=".214" style="stop-color:#969696"/><stop offset=".363" style="stop-color:#adadad"/><stop offset=".505" style="stop-color:#c9c9c9"/><stop offset=".742" style="stop-color:#a3a3a3"/><stop offset=".885" style="stop-color:#9e9e9e"/></linearGradient><path id="XMLID_42_" d="M296.27 236.49c.14.83.42 1.66.97 1.66.42 0 .55-.83.83-1.66l.28 6.36c-.28.69-.69 1.25-.97 1.25s-.69-.55-.97-1.25z" style="fill:url(#XMLID_00000095338508538415259430000003827571522719081909_)"/><linearGradient id="XMLID_00000139991302705147056890000013402349244723598247_" x1="268.453" x2="285.426" y1="345.124" y2="355.025" gradientTransform="translate(0 -128)" gradientUnits="userSpaceOnUse"><stop offset="0" style="stop-color:#a8a8a8"/><stop offset=".088" style="stop-color:#6b6b6b"/><stop offset=".368" style="stop-color:#5e5e5e"/><stop offset=".463" style="stop-color:#626262"/><stop offset=".542" style="stop-color:#6c6c6c"/><stop offset=".615" style="stop-color:#7d7d7d"/><stop offset=".685" style="stop-color:#969696"/><stop offset=".687" style="stop-color:#969696"/><stop offset=".846" style="stop-color:#d9d9d9"/></linearGradient><path id="XMLID_41_" d="M285.89 223.07c-2.63-.97-11.9-1.94-14.25-2.35-2.35-.28-16.47-1.66-16.6-3.6-.14-1.94 17.16-3.18 17.16-3.18l.42 1.8c-2.77.42-5.12.28-5.12 1.25s1.8 1.66 5.26 1.8 8.16.69 8.16.69 5.67.28 7.89 1.38z" style="fill:url(#XMLID_00000139991302705147056890000013402349244723598247_)"/><linearGradient id="XMLID_00000054247818612879387270000013332528975065531272_" x1="255.118" x2="299.672" y1="333.151" y2="333.151" gradientTransform="translate(0 -128)" gradientUnits="userSpaceOnUse"><stop offset="0" style="stop-color:#a8a8a8"/><stop offset="1" style="stop-color:#fff"/></linearGradient><path id="XMLID_40_" d="M255.18 217.12c-.14-1.94 17.16-3.18 17.16-3.18 8.72-.83 13.7-1.94 16.6-3.74 2.91-1.8 4.84-9.13 5.67-11.62.69-2.49 1.94-5.4 2.63-5.4s1.38 1.8 2.49 5.67l-.97 4.01c-.55-3.46-.83-4.29-1.66-4.29s-1.38 2.63-1.94 4.84c-.42 2.35-1.25 8.58-5.67 9.96-4.84 1.52-7.61 1.94-16.74 2.35-2.77.42-5.12.28-5.12 1.25z" style="fill:url(#XMLID_00000054247818612879387270000013332528975065531272_)"/><linearGradient id="XMLID_00000127026458333815439510000000924556986835314589_" x1="297.169" x2="306.942" y1="325.588" y2="343.993" gradientTransform="translate(0 -128)" gradientUnits="userSpaceOnUse"><stop offset="0" style="stop-color:#c7c7c7"/><stop offset=".082" style="stop-color:#bdbdbd"/><stop offset=".143" style="stop-color:#8c8c8c"/><stop offset=".215" style="stop-color:#7e7e7e"/><stop offset=".33" style="stop-color:#6b6b6b"/><stop offset=".391" style="stop-color:#595959"/><stop offset=".544" style="stop-color:#2e2e2e"/><stop offset=".574" style="stop-color:#323232"/><stop offset=".604" style="stop-color:#3e3e3e"/><stop offset=".635" style="stop-color:#535353"/><stop offset=".666" style="stop-color:#707070"/><stop offset=".697" style="stop-color:#959595"/><stop offset=".728" style="stop-color:#c1c1c1"/><stop offset=".747" style="stop-color:#e0e0e0"/><stop offset=".89" style="stop-color:#fff"/></linearGradient><path id="XMLID_39_" d="M304.43 213.38c-3.04-1.25-4.57-3.87-5.67-10.52-.55-3.46-.83-4.29-1.66-4.29l.14-5.4c.69 0 1.38 1.8 2.49 5.67s3.32 10.1 7.47 12.04z" style="fill:url(#XMLID_00000127026458333815439510000000924556986835314589_)"/><path id="XMLID_38_" d="M332.8 218.09c-3.04.14-20.48 1.66-25.04 1.94-4.57.28-6.23 3.18-6.92 4.57s-2.49 10.52-2.77 11.35c-.14.69-.42 2.35-.97 2.35-.42 0-.69-.97-.97-1.66-.14-.83-2.08-8.99-2.63-11.21-.55-2.35-2.49-3.46-4.84-4.43-2.21-1.11-7.89-1.38-7.89-1.38s-4.57-.42-8.16-.69c-3.46-.14-5.26-.83-5.26-1.8s2.35-.83 5.12-1.25c9.13-.28 11.9-.83 16.74-2.35 4.43-1.38 5.12-7.75 5.67-9.96.42-2.35.97-4.84 1.94-4.84.83 0 1.11.83 1.66 4.29 1.11 6.64 2.63 9.27 5.67 10.52 5.26 1.8 22 2.35 25.18 2.35 0 0 9.96.14 15.08-.14s14.25-1.25 16.33-1.66c2.08-.42 4.98-1.66 5.53-4.98s1.38-7.2 2.49-7.2c.97 0 1.66 2.91 1.8 3.6 0 0 .83 6.5 4.43 7.89 3.74 1.38 9.27 1.8 11.62 1.94s4.29.55 4.29 1.66c0 .97-2.91 1.66-4.15 1.66-1.25 0-7.75.28-10.1 1.25s-4.29 1.8-5.12 6.23-1.38 5.95-1.38 5.95-.14 1.8-1.38 1.8c-1.25 0-1.52-2.35-1.52-2.35s-1.38-6.92-2.35-8.44-2.08-3.74-11.21-4.01c-8.71-.59-12.73-1.28-20.89-1" class="st146"/><linearGradient id="XMLID_00000077320418786653764940000004942526633347048366_" x1="389.344" x2="365.706" y1="349.179" y2="354.596" gradientTransform="translate(0 -128)" gradientUnits="userSpaceOnUse"><stop offset="0" style="stop-color:#b8b8b8"/><stop offset=".107" style="stop-color:#a0a0a0"/><stop offset=".319" style="stop-color:#757575"/><stop offset=".434" style="stop-color:#767676"/><stop offset=".56" style="stop-color:#737373"/><stop offset=".63" style="stop-color:#787878"/><stop offset=".71" style="stop-color:#868686"/><stop offset=".775" style="stop-color:#969696"/></linearGradient><path id="XMLID_37_" d="M371.68 225.97c.83-4.43 2.91-5.12 5.12-6.23 2.35-.97 8.86-1.25 10.1-1.25 1.25 0 4.15-.69 4.15-1.66l10.38.14c0 1.11-5.53 1.66-5.53 1.66s-14.94 1.66-17.99 3.6c-2.21 1.38-3.87 2.49-5.4 7.2z" style="fill:url(#XMLID_00000077320418786653764940000004942526633347048366_)"/><linearGradient id="XMLID_00000053533976191342225400000006857036900858570908_" x1="384.61" x2="391.348" y1="339.222" y2="345.96" gradientTransform="translate(0 -128)" gradientUnits="userSpaceOnUse"><stop offset="0" style="stop-color:#e6e6e6"/><stop offset=".102" style="stop-color:#c8c8c8"/><stop offset=".269" style="stop-color:#9c9c9c"/><stop offset=".43" style="stop-color:#a6a6a6"/><stop offset=".753" style="stop-color:#b7b7b7"/><stop offset="1" style="stop-color:#bdbdbd"/></linearGradient><path id="XMLID_36_" d="M375.14 213.25c3.74 1.38 9.27 1.8 11.62 1.94s4.29.55 4.29 1.66c0 .97-2.91 1.66-4.15 1.66l8.99.14s5.53-.55 5.53-1.66-1.38-1.52-5.4-2.08c-4.15-.55-12.18-2.49-17.16-3.6z" style="fill:url(#XMLID_00000053533976191342225400000006857036900858570908_)"/><linearGradient id="XMLID_00000003813069366900217250000008026769694312019354_" x1="368.688" x2="376.379" y1="328.11" y2="345.745" gradientTransform="translate(0 -128)" gradientUnits="userSpaceOnUse"><stop offset=".143" style="stop-color:#dedede"/><stop offset=".236" style="stop-color:#a0a0a0"/><stop offset=".308" style="stop-color:#757575"/><stop offset=".577" style="stop-color:#737373"/><stop offset=".617" style="stop-color:#787878"/><stop offset=".664" style="stop-color:#868686"/><stop offset=".714" style="stop-color:#9d9d9d"/><stop offset=".766" style="stop-color:#bdbdbd"/><stop offset=".819" style="stop-color:#e6e6e6"/></linearGradient><path id="XMLID_35_" d="M379.57 214.35c-1.52-.28-3.04-.69-4.29-1.11-3.74-1.38-4.43-7.89-4.43-7.89-.14-.69-.69-3.6-1.8-3.6-.97 0-1.94 3.87-2.49 7.2l-2.49-1.66c1.8-4.15 3.6-10.1 4.84-10.24 1.25-.14 3.32 6.5 3.32 6.5s1.52 6.5 6.5 7.61c.83.14 1.8.42 2.77.55z" style="fill:url(#XMLID_00000003813069366900217250000008026769694312019354_)"/><linearGradient id="XMLID_00000119083949191460981750000017360685546411988612_" x1="322.058" x2="368.963" y1="334.483" y2="334.483" gradientTransform="translate(0 -128)" gradientUnits="userSpaceOnUse"><stop offset=".082" style="stop-color:#999"/><stop offset=".128" style="stop-color:#a4a4a4"/><stop offset=".324" style="stop-color:#cfcfcf"/><stop offset=".56" style="stop-color:#d9d9d9"/><stop offset=".758" style="stop-color:#e0e0e0"/></linearGradient><path id="XMLID_34_" d="M368.91 197.19c-1.38.14-3.04 6.09-4.84 10.24s-7.47 5.12-10.38 5.53c-3.04.42-7.75 1.8-15.5 1.94s-14.94-1.25-14.94-1.25l-1.11 1.8c3.46.14 6.36.28 7.47.28 0 0 9.96.14 15.08-.14s14.25-1.25 16.33-1.66c2.08-.42 4.98-1.66 5.53-4.98s1.38-7.2 2.49-7.2z" style="fill:url(#XMLID_00000119083949191460981750000017360685546411988612_)"/><linearGradient id="XMLID_00000173860185988938540900000007155676051896226182_" x1="367.944" x2="369.855" y1="327.893" y2="327.893" gradientTransform="translate(0 -128)" gradientUnits="userSpaceOnUse"><stop offset="0" style="stop-color:#e3e3e3"/><stop offset=".11" style="stop-color:#dbdbdb"/><stop offset=".281" style="stop-color:#c5c5c5"/><stop offset=".451" style="stop-color:#a8a8a8"/><stop offset=".671" style="stop-color:#c8c8c8"/><stop offset=".824" style="stop-color:#e0e0e0"/></linearGradient><path id="XMLID_33_" d="M368.08 202.59c.28-.55.55-.83.83-.83.42 0 .69.28.83.83v-4.57c-.28-.55-.69-.83-.97-.83s-.55.28-.97.83z" style="fill:url(#XMLID_00000173860185988938540900000007155676051896226182_)"/><linearGradient id="XMLID_00000034776624497327612460000016256068045801575818_" x1="367.252" x2="373.202" y1="359.648" y2="359.648" gradientTransform="translate(0 -128)" gradientUnits="userSpaceOnUse"><stop offset="0" style="stop-color:#bababa"/><stop offset=".115" style="stop-color:#a0a0a0"/><stop offset=".319" style="stop-color:#757575"/><stop offset=".434" style="stop-color:#767676"/><stop offset=".56" style="stop-color:#737373"/><stop offset=".663" style="stop-color:#787878"/><stop offset=".775" style="stop-color:#858585"/></linearGradient><path id="XMLID_32_" d="M373.2 227.77c-.69 1.8-1.52 4.29-2.21 7.89-.83 2.63-.97 3.87-1.94 3.87-.42 0-1.11-1.25-1.8-3.18l.28-4.84s.28 2.35 1.52 2.35c1.25 0 1.38-1.8 1.38-1.8s.42-1.52 1.38-5.95c.14-.97.42-1.66.69-2.35z" style="fill:url(#XMLID_00000034776624497327612460000016256068045801575818_)"/><linearGradient id="XMLID_00000000190059254736004470000014991469303317531777_" x1="325.604" x2="366.561" y1="351.66" y2="351.66" gradientTransform="translate(0 -128)" gradientUnits="userSpaceOnUse"><stop offset=".082" style="stop-color:#999"/><stop offset=".175" style="stop-color:#7c7c7c"/><stop offset=".324" style="stop-color:#525252"/><stop offset=".56" style="stop-color:#404040"/><stop offset=".747" style="stop-color:#999"/><stop offset=".868" style="stop-color:#d1d1d1"/></linearGradient><path id="XMLID_31_" d="M366.56 227.08c-.42-1.8-.97-3.6-1.38-4.29-.97-1.52-2.08-3.74-11.21-4.01-9.13-.28-13.14-.97-21.17-.69-1.11 0-3.87.28-7.2.55l.14 1.66c4.15-.55 8.16-1.11 11.48-1.11 4.43 0 8.03.42 16.33 1.52 8.3 1.25 9.82 2.77 11.48 8.58z" style="fill:url(#XMLID_00000000190059254736004470000014991469303317531777_)"/><linearGradient id="XMLID_00000084519709831372913940000002881995394195473041_" x1="370.615" x2="361.752" y1="362.767" y2="354.536" gradientTransform="translate(0 -128)" gradientUnits="userSpaceOnUse"><stop offset="0" style="stop-color:#3b3b3b"/><stop offset=".026" style="stop-color:#3d3d3d"/><stop offset=".256" style="stop-color:#4c4c4c"/><stop offset=".44" style="stop-color:#525252"/><stop offset=".497" style="stop-color:#585858"/><stop offset=".574" style="stop-color:#686868"/><stop offset=".626" style="stop-color:#787878"/><stop offset=".747" style="stop-color:#999"/><stop offset=".868" style="stop-color:#d1d1d1"/></linearGradient><path id="XMLID_30_" d="M365.59 223.9c.83 2.49 1.94 7.47 1.94 7.47s.28 2.35 1.52 2.35v5.67c-.83 0-2.21-4.29-3.87-10.1-.42-1.25-.69-2.35-1.11-3.18z" style="fill:url(#XMLID_00000084519709831372913940000002881995394195473041_)"/><linearGradient id="XMLID_00000141424395574072159520000013194355107796309947_" x1="262.164" x2="262.164" y1="343.911" y2="346.284" gradientTransform="translate(0 -128)" gradientUnits="userSpaceOnUse"><stop offset="0" style="stop-color:#bdbdbd"/><stop offset=".451" style="stop-color:#d9d9d9"/><stop offset=".824" style="stop-color:#a8a8a8"/></linearGradient><path id="XMLID_29_" d="M257.81 218.5c-1.52-.42-2.63-.97-2.63-1.38 0-.55 1.11-.97 2.77-1.38l11.21.28c-.97.14-1.66.42-1.66.83 0 .28.28.69.69.83z" style="fill:url(#XMLID_00000141424395574072159520000013194355107796309947_)"/><linearGradient id="XMLID_00000127028688991214000330000012793614815244923322_" x1="296.485" x2="297.748" y1="324.088" y2="324.088" gradientTransform="translate(0 -128)" gradientUnits="userSpaceOnUse"><stop offset="0" style="stop-color:#fff"/><stop offset=".451" style="stop-color:#bfbfbf"/><stop offset=".824" style="stop-color:#c2c2c2"/></linearGradient><path id="XMLID_28_" d="M296.55 198.86c.14-.14.28-.28.55-.28s.42.14.69.28v-5.12c-.28-.28-.42-.42-.55-.42s-.42.28-.69.55z" style="fill:url(#XMLID_00000127028688991214000330000012793614815244923322_)"/><path id="XMLID_27_" d="m124.42 178.24-20.48 2.77s-3.6.14-3.6 1.52 3.04 1.38 4.29 1.52c1.11.14 23.11 3.04 23.11 3.04s35.01 4.84 38.47 5.4c3.32.55 12.87 1.8 16.88 5.53 4.01 3.6 7.61 11.48 10.1 23.25 2.49 11.62 5.26 21.72 5.26 21.72s.42 3.46 1.8 3.46 1.8-3.6 1.8-3.6 6.92-27.4 8.58-32.24 4.01-14.94 19.37-17.3c15.36-2.35 43.86-5.67 43.86-5.67s27.81-3.32 37.5-2.77c9.55.55 20.2 1.94 22.97 2.35 2.63.42 6.92.83 8.86 5.53s3.87 13.56 3.87 13.56.69 2.77 1.66 2.77 1.66-2.49 1.66-2.49 3.04-10.65 4.29-13.42c1.11-2.77 3.32-5.12 11.76-6.09 8.3-.97 17.16-2.91 17.16-2.91s4.15-.14 4.15-1.66c0-1.66-4.57-1.66-4.57-1.66l-19.09-3.04s-7.75-.55-9.69-5.67-4.01-10.65-4.01-10.65-.42-2.21-1.52-2.21c-1.11 0-1.66 2.77-1.66 2.77s-2.21 7.75-4.01 10.38c-1.8 2.49-3.87 5.12-13.42 5.95-9.41.97-14.39 1.94-18.26 2.08-3.74.14-11.48.14-17.71-.69-6.23-.69-46.21-5.67-46.21-5.67s-16.05-1.8-21.17-3.46-12.45-1.94-18.26-19.92c-5.67-17.85-6.09-19.23-6.09-19.23s-.42-3.32-2.08-3.32c-1.52 0-2.08 3.6-2.08 3.6s-6.36 20.75-9.41 26.98c-3.04 6.23-5.12 12.04-30.16 14.81-22.16 2.74-33.92 4.68-33.92 4.68z" class="st144"/><linearGradient id="XMLID_00000088104010855606105140000000158217627983320454_" x1="119.846" x2="196.68" y1="312.717" y2="324.538" gradientTransform="translate(0 -128)" gradientUnits="userSpaceOnUse"><stop offset="0" style="stop-color:#a8a8a8"/><stop offset=".088" style="stop-color:#6b6b6b"/><stop offset=".368" style="stop-color:#4d4d4d"/><stop offset=".452" style="stop-color:#505050"/><stop offset=".522" style="stop-color:#5a5a5a"/><stop offset=".588" style="stop-color:#6c6c6c"/><stop offset=".649" style="stop-color:#848484"/><stop offset=".687" style="stop-color:#969696"/><stop offset=".846" style="stop-color:#f0f0f0"/></linearGradient><path id="XMLID_26_" d="M186.27 193.18c-2.77-2.08-5.95-2.77-8.86-3.32-6.64-1.25-31.82-3.74-31.82-3.74l-24.91-2.08s-4.84-.42-4.84-1.52 4.84-1.25 4.84-1.25l-16.88-.14s-3.6.14-3.6 1.52 3.04 1.38 4.29 1.52c1.11.14 23.11 3.04 23.11 3.04s35.01 4.84 38.47 5.4c3.32.55 12.87 1.8 16.88 5.53z" style="fill:url(#XMLID_00000088104010855606105140000000158217627983320454_)"/><linearGradient id="XMLID_00000136412610713776697390000006593161540886527410_" x1="100.233" x2="202.073" y1="283.201" y2="283.201" gradientTransform="translate(0 -128)" gradientUnits="userSpaceOnUse"><stop offset="0" style="stop-color:#a8a8a8"/><stop offset=".61" style="stop-color:#f0f0f0"/><stop offset=".736" style="stop-color:#fff"/><stop offset=".8" style="stop-color:#fbfbfb"/><stop offset=".871" style="stop-color:#ededed"/><stop offset=".945" style="stop-color:#d7d7d7"/><stop offset="1" style="stop-color:#c2c2c2"/></linearGradient><path id="XMLID_25_" d="M202.04 131.33s-.42-3.32-2.08-3.32c-1.52 0-2.08 3.6-2.08 3.6s-6.36 20.75-9.41 26.98-5.12 12.04-30.16 14.81c-22.28 2.91-33.9 4.7-33.9 4.7l-20.48 2.77s-3.6.14-3.6 1.52l15.77-.14c0-1.11 4.84-1.25 4.84-1.25l18.82-1.66s21.45-1.8 31.69-2.77c10.24-1.11 17.85-6.78 20.62-12.73 2.77-5.81 5.95-23.66 5.95-23.66s.55-5.81 2.08-5.81 1.94 5.67 1.94 5.67z" style="fill:url(#XMLID_00000136412610713776697390000006593161540886527410_)"/><linearGradient id="XMLID_00000013176557444398571780000003609886294332554640_" x1="197.943" x2="243.326" y1="280.918" y2="280.918" gradientTransform="translate(0 -128)" gradientUnits="userSpaceOnUse"><stop offset="0" style="stop-color:#cfcfcf"/><stop offset=".082" style="stop-color:#d9d9d9"/><stop offset=".143" style="stop-color:#6b6b6b"/><stop offset=".192" style="stop-color:#5f5f5f"/><stop offset=".286" style="stop-color:#4d4d4d"/><stop offset=".3" style="stop-color:#505050"/><stop offset=".516" style="stop-color:#7a7a7a"/><stop offset=".576" style="stop-color:#7f7f7f"/><stop offset=".638" style="stop-color:#8b8b8b"/><stop offset=".7" style="stop-color:#9f9f9f"/><stop offset=".762" style="stop-color:#bcbcbc"/><stop offset=".824" style="stop-color:#e0e0e0"/><stop offset=".973" style="stop-color:#ededed"/></linearGradient><path id="XMLID_24_" d="M243.28 173.4c-5.12-.69-13.56-1.8-17.02-2.91-5.12-1.66-12.45-1.94-18.26-19.92-5.67-17.85-6.09-19.23-6.09-19.23s-.42-3.32-2.08-3.32c-1.52 0-2.08 3.6-2.08 3.6v8.58s.55-5.81 2.08-5.81c.97 0 1.52 2.49 1.8 4.15.14.83.14 1.38.14 1.38s.14.42.28 1.11c.83 3.32 3.32 14.81 4.57 19.51 1.38 5.53 5.26 11.07 11.48 13.7 6.23 2.63 21.31 3.46 23.94 3.6z" style="fill:url(#XMLID_00000013176557444398571780000003609886294332554640_)"/><linearGradient id="XMLID_00000150818218716178859870000016882016379937127074_" x1="198.716" x2="201.358" y1="260.163" y2="260.163" gradientTransform="translate(0 -128)" gradientUnits="userSpaceOnUse"><stop offset="0" style="stop-color:#d4d4d4"/><stop offset=".527" style="stop-color:#9e9e9e"/><stop offset=".824" style="stop-color:#d9d9d9"/></linearGradient><path id="XMLID_23_" d="M198.72 136.18c.28-.97.69-1.66 1.25-1.66s.97.83 1.25 1.8l.14-7.19c-.28-.55-.69-1.11-1.38-1.11-.55 0-.97.42-1.25 1.11v7.05z" style="fill:url(#XMLID_00000150818218716178859870000016882016379937127074_)"/><linearGradient id="XMLID_00000046339146791519231520000004089220922632794517_" x1="337.38" x2="328.61" y1="289.807" y2="306.13" gradientTransform="translate(0 -128)" gradientUnits="userSpaceOnUse"><stop offset="0" style="stop-color:#d1d1d1"/><stop offset=".621" style="stop-color:#fff"/><stop offset=".799" style="stop-color:#d6d6d6"/><stop offset="1" style="stop-color:#ababab"/></linearGradient><path id="XMLID_22_" d="M350.37 168.14c-.42-1.94-.55-3.74-1.52-3.74s-1.38 2.35-1.66 3.74c-.28 1.38-1.11 7.61-3.6 9.27s-7.2 2.91-12.73 3.18c-5.53.28-17.16.69-20.34.69l.97-1.11c3.74-.14 8.72-1.11 18.26-2.08 9.41-.97 11.62-3.46 13.42-5.95s4.01-10.38 4.01-10.38.55-2.77 1.66-2.77 1.52 2.21 1.52 2.21v6.94z" style="fill:url(#XMLID_00000046339146791519231520000004089220922632794517_)"/><linearGradient id="XMLID_00000027567592055663557400000015051645842016421264_" x1="372.103" x2="374.449" y1="304.08" y2="317.827" gradientTransform="translate(0 -128)" gradientUnits="userSpaceOnUse"><stop offset=".066" style="stop-color:#fff"/><stop offset=".264" style="stop-color:#8c8c8c"/><stop offset=".308" style="stop-color:#777"/><stop offset=".407" style="stop-color:#4d4d4d"/><stop offset=".639" style="stop-color:#494949"/><stop offset=".687" style="stop-color:#474747"/><stop offset="1" style="stop-color:#ebebeb"/></linearGradient><path id="XMLID_21_" d="M358.26 179.48c2.08.42 4.15.55 5.67.69 2.91.28 8.99.83 8.99.83s3.32.28 3.32 1.25-3.18 1.38-3.18 1.38l10.38.42s4.15-.14 4.15-1.66c0-1.66-4.57-1.66-4.57-1.66l-19.09-3.04s-.83 0-2.08-.28z" style="fill:url(#XMLID_00000027567592055663557400000015051645842016421264_)"/><linearGradient id="XMLID_00000077299044116098945340000018433793675591896743_" x1="356.051" x2="347.607" y1="311.66" y2="344.166" gradientTransform="translate(0 -128)" gradientUnits="userSpaceOnUse"><stop offset=".06" style="stop-color:#e0e0e0"/><stop offset=".258" style="stop-color:#ebebeb"/><stop offset=".267" style="stop-color:#e4e4e4"/><stop offset=".409" style="stop-color:#787878"/><stop offset=".472" style="stop-color:#4d4d4d"/><stop offset=".67" style="stop-color:#4d4d4d"/><stop offset=".687" style="stop-color:#4d4d4d"/><stop offset="1" style="stop-color:#5e5e5e"/></linearGradient><path id="XMLID_20_" d="M353.97 187.51c-2.08 1.8-2.77 7.75-3.04 8.86-.14 1.11-.97 4.84-.97 4.84s-.28 1.8-.97 1.8l-.28 5.95c.97 0 1.66-2.49 1.66-2.49s3.04-10.65 4.29-13.42c.42-.83.83-1.8 1.66-2.49z" style="fill:url(#XMLID_00000077299044116098945340000018433793675591896743_)"/><linearGradient id="XMLID_00000174564081145035952100000010070719411291718048_" x1="212.474" x2="197.98" y1="327.885" y2="376.994" gradientTransform="translate(0 -128)" gradientUnits="userSpaceOnUse"><stop offset="0" style="stop-color:#bdbdbd"/><stop offset=".225" style="stop-color:#828282"/><stop offset=".26" style="stop-color:#777"/><stop offset=".407" style="stop-color:#4d4d4d"/><stop offset=".48" style="stop-color:#505050"/><stop offset=".542" style="stop-color:#5a5a5a"/><stop offset=".6" style="stop-color:#6c6c6c"/><stop offset=".654" style="stop-color:#848484"/><stop offset=".687" style="stop-color:#969696"/><stop offset="1" style="stop-color:#9c9c9c"/></linearGradient><path id="XMLID_19_" d="M199.97 238.57c1.66 0 1.8-3.74 1.8-3.74s3.6-22.42 4.15-25.04c.55-2.63 2.35-11.62 6.36-15.08l4.29 4.57c-4.01 3.87-5.26 8.58-6.23 11.35-1.66 4.84-8.58 32.24-8.58 32.24s-.42 3.6-1.8 3.6z" style="fill:url(#XMLID_00000174564081145035952100000010070719411291718048_)"/><linearGradient id="XMLID_00000057133557890279557590000006306539143613682853_" x1="187.339" x2="196.626" y1="332.831" y2="381.236" gradientTransform="translate(0 -128)" gradientUnits="userSpaceOnUse"><stop offset="0" style="stop-color:#b5b5b5"/><stop offset=".225" style="stop-color:#6b6b6b"/><stop offset=".407" style="stop-color:#4d4d4d"/><stop offset=".48" style="stop-color:#505050"/><stop offset=".542" style="stop-color:#5a5a5a"/><stop offset=".6" style="stop-color:#6c6c6c"/><stop offset=".654" style="stop-color:#848484"/><stop offset=".687" style="stop-color:#969696"/><stop offset="1" style="stop-color:#c2c2c2"/></linearGradient><path id="XMLID_18_" d="M201.77 234.69s-.14 3.74-1.8 3.74-1.66-3.74-1.66-3.74-1.52-8.3-3.87-24.91c-2.35-16.6-10.24-18.68-16.88-19.92l-.97 4.98c2.49.83 4.84 1.8 6.36 3.18 4.01 3.6 7.61 11.48 10.1 23.25 2.49 11.62 5.26 21.72 5.26 21.72s.42 3.46 1.8 3.46 1.8-3.6 1.8-3.6v-8.16z" style="fill:url(#XMLID_00000057133557890279557590000006306539143613682853_)"/><linearGradient id="XMLID_00000119811502013866289150000005094683693108212908_" x1="198.878" x2="201.133" y1="369.748" y2="369.748" gradientTransform="translate(0 -128)" gradientUnits="userSpaceOnUse"><stop offset="0" style="stop-color:#999"/><stop offset=".451" style="stop-color:#e6e6e6"/><stop offset=".824" style="stop-color:#a3a3a3"/></linearGradient><path id="XMLID_17_" d="M198.58 244.65c.28.83.69 1.8 1.38 1.8s1.11-.69 1.38-1.52v-7.75c-.28.83-.69 1.52-1.38 1.52s-1.11-.83-1.38-1.66z" style="fill:url(#XMLID_00000119811502013866289150000005094683693108212908_)"/><linearGradient id="XMLID_00000172442075823960367030000014274881673785700262_" x1="110.585" x2="110.585" y1="308.844" y2="312.129" gradientTransform="translate(0 -128)" gradientUnits="userSpaceOnUse"><stop offset="0" style="stop-color:#a8a8a8"/><stop offset=".043" style="stop-color:#b2b2b2"/><stop offset=".258" style="stop-color:#dcdcdc"/><stop offset=".427" style="stop-color:#f5f5f5"/><stop offset=".527" style="stop-color:#fff"/><stop offset=".646" style="stop-color:#ebebeb"/><stop offset=".888" style="stop-color:#b8b8b8"/><stop offset="1" style="stop-color:#9e9e9e"/></linearGradient><path id="XMLID_16_" d="M120.82 183.91s-4.84-.42-4.84-1.52c0-1.11 4.84-1.25 4.84-1.25l-16.88-.14s-3.6.14-3.6 1.52 3.04 1.38 4.29 1.52z" style="fill:url(#XMLID_00000172442075823960367030000014274881673785700262_)"/><linearGradient id="XMLID_00000125564401444431435260000016190884954032523909_" x1="221.026" x2="288.301" y1="333.767" y2="302.522" gradientTransform="translate(0 -128)" gradientUnits="userSpaceOnUse"><stop offset="0" style="stop-color:#bdbdbd"/><stop offset=".264" style="stop-color:#6b6b6b"/><stop offset=".407" style="stop-color:#4d4d4d"/><stop offset=".639" style="stop-color:#494949"/><stop offset=".687" style="stop-color:#474747"/><stop offset="1" style="stop-color:#545454"/></linearGradient><path id="XMLID_15_" d="M216.16 199.69c2.77-2.91 7.06-5.4 13.7-6.36 15.36-2.35 43.86-5.67 43.86-5.67s14.53-1.8 26.15-2.49l.14-1.66c-5.53 0-44 3.32-62.4 4.7-18.26 1.25-21.45 3.18-25.32 6.64z" style="fill:url(#XMLID_00000125564401444431435260000016190884954032523909_)"/><linearGradient id="XMLID_00000098928147332615780050000008566579714856791168_" x1="342.127" x2="314.735" y1="317.861" y2="312.796" gradientTransform="translate(0 -128)" gradientUnits="userSpaceOnUse"><stop offset="0" style="stop-color:#bfbfbf"/><stop offset=".264" style="stop-color:#737373"/><stop offset=".407" style="stop-color:#4d4d4d"/><stop offset=".639" style="stop-color:#494949"/><stop offset=".687" style="stop-color:#474747"/><stop offset="1" style="stop-color:#545454"/></linearGradient><path id="XMLID_14_" d="M341.52 190.28c-2.21-2.49-5.26-2.77-7.33-3.18-2.63-.42-13.42-1.8-22.97-2.35-3.18-.14-8.58.14-14.25.55l-.14-1.8c1.52-.14 2.63-.14 3.32-.14 5.53 0 13.7 0 21.31.55s16.47.69 20.48 2.49c.97.42 1.66 1.11 2.21 2.08z" style="fill:url(#XMLID_00000098928147332615780050000008566579714856791168_)"/><linearGradient id="XMLID_00000076596089771543168010000016095695144225590970_" x1="343.156" x2="348.365" y1="314.047" y2="336.163" gradientTransform="translate(0 -128)" gradientUnits="userSpaceOnUse"><stop offset="0" style="stop-color:#d1d1d1"/><stop offset=".242" style="stop-color:#9c9c9c"/><stop offset=".328" style="stop-color:#777"/><stop offset=".44" style="stop-color:#4d4d4d"/><stop offset=".645" style="stop-color:#494949"/><stop offset=".687" style="stop-color:#474747"/><stop offset="1" style="stop-color:#4d4d4d"/></linearGradient><path id="XMLID_13_" d="M340.96 189.72c.83.69 1.52 1.66 2.08 3.04 1.94 4.7 3.87 13.56 3.87 13.56s.69 2.77 1.66 2.77 1.66-2.49 1.66-2.49l-.42-5.26s-.28 1.8-.97 1.8-.83-.97-1.11-1.8-.83-3.6-1.11-4.84c-.28-1.11-.83-5.95-3.18-8.58z" style="fill:url(#XMLID_00000076596089771543168010000016095695144225590970_)"/><linearGradient id="XMLID_00000022533616215545950540000014083561501685630121_" x1="347.382" x2="350.009" y1="333.22" y2="333.22" gradientTransform="translate(0 -128)" gradientUnits="userSpaceOnUse"><stop offset="0" style="stop-color:#4a4a4a"/><stop offset=".103" style="stop-color:#4d4d4d"/><stop offset=".188" style="stop-color:#575757"/><stop offset=".267" style="stop-color:#696969"/><stop offset=".342" style="stop-color:#818181"/><stop offset=".415" style="stop-color:#a0a0a0"/><stop offset=".484" style="stop-color:#c6c6c6"/><stop offset=".505" style="stop-color:#d4d4d4"/><stop offset=".548" style="stop-color:#cacaca"/><stop offset=".62" style="stop-color:#b0b0b0"/><stop offset=".711" style="stop-color:#868686"/><stop offset=".753" style="stop-color:#707070"/><stop offset=".94" style="stop-color:#4f4f4f"/></linearGradient><path id="XMLID_247_" d="M346.91 206.33s.69 2.77 1.66 2.77 1.66-2.49 1.66-2.49l-.42-5.26s-.28 1.8-.97 1.8-.83-.97-1.11-1.8z" style="fill:url(#XMLID_00000022533616215545950540000014083561501685630121_)"/><linearGradient id="XMLID_00000115496520078938928640000012673898522869022361_" x1="355.543" x2="378.009" y1="316.637" y2="311.338" gradientTransform="translate(0 -128)" gradientUnits="userSpaceOnUse"><stop offset="0" style="stop-color:#e6e6e6"/><stop offset=".231" style="stop-color:#737373"/><stop offset=".451" style="stop-color:#4d4d4d"/><stop offset=".632" style="stop-color:#474747"/><stop offset=".692" style="stop-color:#666"/><stop offset=".789" style="stop-color:#929292"/><stop offset=".876" style="stop-color:#b2b2b2"/><stop offset=".95" style="stop-color:#c5c5c5"/><stop offset="1" style="stop-color:#ccc"/></linearGradient><path id="XMLID_248_" d="M355.77 190.97c.14-.14.28-.42.55-.55 1.66-1.52 4.43-2.77 9.96-3.46 8.3-.97 17.16-2.91 17.16-2.91s4.15-.14 4.15-1.66h-11.35c0 .97-3.18 1.38-3.18 1.38s-2.91.69-8.44 1.11-8.58.83-10.65 2.63c-.14.14-.28.28-.28.42z" style="fill:url(#XMLID_00000115496520078938928640000012673898522869022361_)"/><linearGradient id="XMLID_00000005232543605200680550000004302156656377768089_" x1="381.254" x2="381.219" y1="311.304" y2="309.387" gradientTransform="translate(0 -128)" gradientUnits="userSpaceOnUse"><stop offset="0" style="stop-color:#c9c9c9"/><stop offset=".246" style="stop-color:#c6c6c6"/><stop offset=".449" style="stop-color:#bcbcbc"/><stop offset=".505" style="stop-color:#b8b8b8"/><stop offset=".554" style="stop-color:#aeaeae"/><stop offset=".636" style="stop-color:#949494"/><stop offset=".725" style="stop-color:#707070"/><stop offset=".94" style="stop-color:#4f4f4f"/></linearGradient><path id="XMLID_249_" d="M374.86 181.28c.83.14 1.52.55 1.52.97 0 .28-.28.55-.83.83l11.35.28c.42-.28.69-.55.69-.97 0-.97-1.52-1.38-2.77-1.52z" style="fill:url(#XMLID_00000005232543605200680550000004302156656377768089_)"/><linearGradient id="XMLID_00000175306823362239957830000000536868642602808194_" x1="358.526" x2="351.162" y1="306.63" y2="289.415" gradientTransform="translate(0 -128)" gradientUnits="userSpaceOnUse"><stop offset="0" style="stop-color:#fff"/><stop offset=".126" style="stop-color:#a6a6a6"/><stop offset=".274" style="stop-color:#777"/><stop offset=".423" style="stop-color:#4d4d4d"/><stop offset=".731" style="stop-color:#474747"/><stop offset=".992" style="stop-color:#515151"/><stop offset="1" style="stop-color:#525252"/></linearGradient><path id="XMLID_250_" d="M348.85 164.4c.97 0 1.11 1.8 1.52 3.74.42 1.94.97 7.06 3.46 9.27 1.38 1.25 3.32 1.8 5.26 2.21l3.74-2.21c-2.21-.42-6.92-1.66-8.44-5.4-1.94-5.12-4.01-10.65-4.01-10.65s-.42-2.21-1.52-2.21v5.25z" style="fill:url(#XMLID_00000175306823362239957830000000536868642602808194_)"/><linearGradient id="XMLID_00000074421677106854123030000004509650229005605017_" x1="347.335" x2="349.823" y1="290.119" y2="290.119" gradientTransform="translate(0 -128)" gradientUnits="userSpaceOnUse"><stop offset="0" style="stop-color:#d4d4d4"/><stop offset=".203" style="stop-color:#d0d0d0"/><stop offset=".37" style="stop-color:#c6c6c6"/><stop offset=".505" style="stop-color:#b8b8b8"/><stop offset=".547" style="stop-color:#aeaeae"/><stop offset=".616" style="stop-color:#949494"/><stop offset=".704" style="stop-color:#6a6a6a"/><stop offset=".725" style="stop-color:#5e5e5e"/><stop offset=".94" style="stop-color:#4d4d4d"/></linearGradient><path id="XMLID_251_" d="M348.02 159.56c.28-.28.55-.55.83-.55.42 0 .69.28.83.55v5.53c-.14-.42-.42-.69-.83-.69-.42 0-.69.28-.83.83z" style="fill:url(#XMLID_00000074421677106854123030000004509650229005605017_)"/><linearGradient id="XMLID_00000181766277908402110830000014790736313884500158_" x1="236.44" x2="311.449" y1="303.087" y2="308.435" gradientTransform="translate(0 -128)" gradientUnits="userSpaceOnUse"><stop offset="0" style="stop-color:#e8e8e8"/><stop offset=".621" style="stop-color:#fff"/><stop offset=".799" style="stop-color:#d6d6d6"/><stop offset="1" style="stop-color:#ababab"/></linearGradient><path id="XMLID_252_" d="M319.24 179.35c-3.32.42-5.67.83-7.75.83-3.74.14-11.48.14-17.71-.69-6.23-.69-46.21-5.67-46.21-5.67s-2.49-.28-5.67-.69l-.14 4.7c2.63.14 40.13 2.77 46.08 3.04 5.95.28 19.65.42 22.69.42 1.52 0 5.12-.14 8.99-.28z" style="fill:url(#XMLID_00000181766277908402110830000014790736313884500158_)"/><linearGradient id="XMLID_00000092450699372796166030000011984453702950902679_" x1="367.252" x2="370.926" y1="363.453" y2="363.453" gradientTransform="translate(0 -128)" gradientUnits="userSpaceOnUse"><stop offset=".028" style="stop-color:#4a4a4a"/><stop offset=".089" style="stop-color:#575757"/><stop offset=".205" style="stop-color:#7b7b7b"/><stop offset=".357" style="stop-color:#b2b2b2"/><stop offset=".489" style="stop-color:#d4d4d4"/><stop offset=".55" style="stop-color:#c7c7c7"/><stop offset=".662" style="stop-color:#a5a5a5"/><stop offset=".72" style="stop-color:#919191"/><stop offset=".874" style="stop-color:#757575"/></linearGradient><path id="XMLID_253_" d="M367.53 231.37s.28 2.35 1.52 2.35c1.25 0 1.38-1.8 1.38-1.8l.55 3.74c-.83 2.63-.97 3.87-1.94 3.87-.42 0-1.11-1.25-1.8-3.18z" style="fill:url(#XMLID_00000092450699372796166030000011984453702950902679_)"/><radialGradient id="XMLID_00000148620889292093240750000007625923738499974323_" cx="205.101" cy="323.301" r="96.767" gradientTransform="translate(-98.209 -275.323)scale(1.3837)" gradientUnits="userSpaceOnUse"><stop offset=".071" style="stop-color:#fff"/><stop offset=".075" style="stop-color:#fdfdfd"/><stop offset=".144" style="stop-color:#d5d5d5"/><stop offset=".207" style="stop-color:#b8b8b8"/><stop offset=".262" style="stop-color:#a7a7a7"/><stop offset=".302" style="stop-color:#a1a1a1"/><stop offset=".375" style="stop-color:#8f8f8f"/><stop offset=".483" style="stop-color:#7d7d7d"/><stop offset=".595" style="stop-color:#717171"/><stop offset=".714" style="stop-color:#6e6e6e"/><stop offset="1" style="stop-color:#696969"/></radialGradient><path id="XMLID_254_" d="m139.64 179.48-18.82 1.66s-4.84.14-4.84 1.25 4.84 1.52 4.84 1.52l24.91 2.08s25.18 2.49 31.82 3.74 14.53 3.32 16.88 19.92 3.87 24.91 3.87 24.91 0 3.74 1.66 3.74 1.8-3.74 1.8-3.74 3.6-22.42 4.15-25.04c.55-2.63 2.35-11.62 6.36-15.08 4.01-3.32 7.06-5.4 25.32-6.64 18.26-1.25 56.87-4.7 62.4-4.7s13.7 0 21.31.55 16.47.69 20.48 2.49c3.74 1.8 4.57 8.58 4.84 9.82.28 1.25.83 4.01 1.11 4.84s.42 1.8 1.11 1.8.97-1.8.97-1.8.83-3.74.97-4.84c.14-1.11.83-7.06 3.04-8.86 2.08-1.8 5.12-2.35 10.65-2.63 5.53-.42 8.44-1.11 8.44-1.11s3.18-.42 3.18-1.38c0-.97-3.32-1.25-3.32-1.25s-6.09-.69-8.99-.83c-2.91-.28-7.75-.55-10.24-2.77-2.49-2.21-3.04-7.33-3.46-9.27s-.55-3.74-1.52-3.74-1.38 2.35-1.66 3.74c-.28 1.38-1.11 7.61-3.6 9.27s-7.2 2.91-12.73 3.18c-5.53.28-17.16.69-20.34.69s-16.74-.14-22.69-.42-42.89-3.04-45.66-3.04c-2.63-.14-17.71-.97-23.94-3.6s-10.1-8.16-11.48-13.7-4.7-20.48-4.7-20.48-.69-5.53-2.08-5.53c-1.52 0-2.08 5.81-2.08 5.81s-3.18 17.85-5.95 23.66-10.38 11.62-20.62 12.73c-9.94 1.26-31.39 3.05-31.39 3.05" style="fill:url(#XMLID_00000148620889292093240750000007625923738499974323_)"/><linearGradient id="XMLID_00000060730193775727221080000015719564209822252214_" x1="318.777" x2="349.172" y1="331.036" y2="372.125" gradientTransform="translate(0 -128)" gradientUnits="userSpaceOnUse"><stop offset="0" style="stop-color:#adadad"/><stop offset=".092" style="stop-color:#999"/><stop offset=".154" style="stop-color:#919191"/><stop offset=".168" style="stop-color:#8f8f8f"/><stop offset=".342" style="stop-color:#7d7d7d"/><stop offset=".522" style="stop-color:#717171"/><stop offset=".714" style="stop-color:#6e6e6e"/><stop offset="1" style="stop-color:#8a8a8a"/></linearGradient><path id="XMLID_255_" d="M332.8 218.09c-3.04.14-20.48 1.66-25.04 1.94-4.57.28-6.23 3.18-6.92 4.57s-2.49 10.52-2.77 11.35c-.14.69-.42 2.35-.97 2.35-.42 0-.69-.97-.97-1.66-.14-.83-2.08-8.99-2.63-11.21-.55-2.35-2.49-3.46-4.84-4.43-2.21-1.11-7.89-1.38-7.89-1.38s-4.57-.42-8.16-.69c-3.46-.14-5.26-.83-5.26-1.8s2.35-.83 5.12-1.25c9.13-.28 11.9-.83 16.74-2.35 4.43-1.38 5.12-7.75 5.67-9.96.42-2.35.97-4.84 1.94-4.84.83 0 1.11.83 1.66 4.29 1.11 6.64 2.63 9.27 5.67 10.52 5.26 1.8 22 2.35 25.18 2.35 0 0 9.96.14 15.08-.14s14.25-1.25 16.33-1.66c2.08-.42 4.98-1.66 5.53-4.98s1.38-7.2 2.49-7.2c.97 0 1.66 2.91 1.8 3.6 0 0 .83 6.5 4.43 7.89 3.74 1.38 9.27 1.8 11.62 1.94s4.29.55 4.29 1.66c0 .97-2.91 1.66-4.15 1.66-1.25 0-7.75.28-10.1 1.25s-4.29 1.8-5.12 6.23-1.38 5.95-1.38 5.95-.14 1.8-1.38 1.8c-1.25 0-1.52-2.35-1.52-2.35s-1.38-6.92-2.35-8.44-2.08-3.74-11.21-4.01c-8.71-.59-12.73-1.28-20.89-1" style="fill:url(#XMLID_00000060730193775727221080000015719564209822252214_)"/></g><linearGradient id="XMLID_00000106120997446838755690000014184894248767396497_" x1="318.005" x2="302.431" y1="407.291" y2="395.655" gradientTransform="translate(0 -128)" gradientUnits="userSpaceOnUse"><stop offset="0" style="stop-color:#e6e6e6"/><stop offset=".244" style="stop-color:#c6c6c6"/><stop offset=".564" style="stop-color:#a4a4a4"/><stop offset=".827" style="stop-color:#8f8f8f"/><stop offset="1" style="stop-color:#878787"/></linearGradient><path id="XMLID_256_" d="M228.47 254.06s5.67.28 7.89 1.25c2.21.97 4.15 2.21 4.84 4.43.55 2.21 2.49 10.38 2.63 11.07s.42 1.66.97 1.66c.42 0 .69-1.52.97-2.21.14-.69 2.08-9.82 2.77-11.21.69-1.38 2.21-4.29 6.78-4.57s21.86-1.8 24.91-1.94c3.04-.14 21.17.42 25.46.83s10.38.69 11.76 4.15c1.38 3.32 1.8 6.5 2.21 7.75.42 1.25.69 2.21 1.52 2.21s1.25-1.52 1.38-2.35 1.25-9.96 6.09-10.93 12.45-1.52 14.11-1.66 3.04-.14 3.04-1.38-2.21-1.25-3.6-1.25c-1.38 0-10.52-.42-14.11-1.94-3.6-1.38-4.84-3.87-5.67-9.13-.28-1.66-.97-3.04-1.66-3.04s-1.38 1.8-1.66 3.04c-.28 1.25-.14 5.95-3.18 7.89s-6.23 2.63-16.6 3.18-19.23.42-22.42.28c-3.18-.14-19.79-.55-25.04-2.35-3.04-1.25-4.57-3.87-5.67-10.38-.55-3.32-.83-4.29-1.66-4.29s-1.38 2.49-1.94 4.84c-.42 2.21-1.11 8.44-5.67 9.82-4.84 1.52-7.61 1.94-16.74 2.21-2.77.42-5.12.28-5.12 1.25s1.8 1.66 5.26 1.8c3.59.56 8.15.97 8.15.97" style="fill:url(#XMLID_00000106120997446838755690000014184894248767396497_)"/><linearGradient id="XMLID_00000119092223988949790750000016762081286169354904_" x1="395.617" x2="395.617" y1="343.673" y2="345.926" gradientTransform="translate(0 -128)" gradientUnits="userSpaceOnUse"><stop offset="0" style="stop-color:#c2c2c2"/><stop offset=".126" style="stop-color:#bababa"/><stop offset=".322" style="stop-color:#a4a4a4"/><stop offset=".451" style="stop-color:#919191"/><stop offset=".715" style="stop-color:#b1b1b1"/><stop offset=".824" style="stop-color:#bfbfbf"/></linearGradient><path id="XMLID_257_" d="M390.64 216.01c.28.14.42.42.42.69 0 .42-.55.83-1.25 1.11l8.58.42c1.52-.28 3.04-.69 3.04-1.25 0-.83-.69-1.25-2.63-1.66z" style="fill:url(#XMLID_00000119092223988949790750000016762081286169354904_)"/></g></g></svg>