<svg xmlns="http://www.w3.org/2000/svg" xml:space="preserve" id="Ñëîé_1" x="0" y="0" viewBox="0 0 512 512"><style>.st1{fill:#005d9b}</style><g id="XMLID_15_"><path id="XMLID_17_" d="M369.33 242.58s-21.17 6.09-62.41 31.41c-36.95 22.69-51.48 37.92-51.48 37.92l-113.75-78.6s47.88-35.15 87.87-8.3l53.69 36.81 6.5-4.29L141.7 153.74s21.31-6.09 62.41-31.41c36.95-22.69 51.34-37.92 51.34-37.92l113.89 78.6s-47.88 35.15-87.87 8.3l-53.69-36.81-6.5 4.29z" style="fill:#e31b31"/><path id="XMLID_21_" d="M281.32 349.82H194.7v19.24h41.79l-43.31 40.4v16.19h88v-19.37h-43.86l44-40.27z" class="st1"/><path id="XMLID_22_" d="M143.64 427.59c34.59 0 43.59-8.86 43.59-28.37v-49.4h-27.54v46.5c0 7.75-6.64 12.45-16.05 12.45-9.69 0-16.05-4.7-16.05-12.59v-46.36h-27.54v49.4c.14 19.51 8.99 28.37 43.59 28.37" class="st1"/><path id="XMLID_23_" d="M331.55 427.59c34.59 0 43.59-8.86 43.59-28.37v-49.4H347.6v46.5c0 7.75-6.64 12.45-16.05 12.45-9.69 0-16.05-4.7-16.05-12.59v-46.36h-27.54v49.4c.01 19.51 9 28.37 43.59 28.37" class="st1"/><path id="XMLID_24_" d="M512 349.82h-28.64v75.83H512z" class="st1"/><path id="XMLID_25_" d="M479.07 349.82h-37.64l-30.45 26.15v-26.15h-28.64v75.83h28.64v-26.84l28.23 26.84h38.47l-41.93-38.88z" class="st1"/><path id="XMLID_26_" d="M32.52 370.72c0-5.81 8.72-6.09 11.62-6.09 3.04 0 9.55 1.11 14.11 8.58h32.38c0-14.25-13.56-25.6-46.22-25.6-36.39 0-42.62 15.91-42.62 25.18 0 16.88 13.15 21.86 41.65 24.91 2.49.28 17.3-.42 17.3 6.64 0 5.26-8.3 5.67-11.35 5.67-3.04 0-8.72-.55-13.56-8.86H0c0 16.61 11.21 26.29 49.12 26.29 34.73 0 44-14.25 44-25.05 0-10.52-7.2-21.17-36.95-24.91-12.3-1.64-23.65-2.34-23.65-6.76" class="st1"/></g></svg>