<svg xmlns="http://www.w3.org/2000/svg" xml:space="preserve" id="Ñëîé_1" x="0" y="0" viewBox="0 0 512 512"><style>.st1{fill:#e31937}</style><g id="XMLID_3_"><g id="TESLA"><g id="XMLID_5_"><path id="XMLID_11_" d="M356.97 417.89v22.43h7.16v-14.95h26.22v14.95h7.17v-22.43z" class="st1"/><path id="XMLID_10_" d="M363.42 410.62h27.65c3.79-.72 6.66-4.2 7.48-7.48h-42.6c.71 3.29 3.58 6.66 7.47 7.48" class="st1"/></g><g id="XMLID_6_"><path id="XMLID_9_" d="M335.26 440.32c3.58-1.54 5.53-4.2 6.35-7.27h-32.26v-29.8h-7.27v37.07z" class="st1"/></g><g id="XMLID_7_"><path id="XMLID_8_" d="M248.32 410.52h25.5c3.89-1.13 7.07-4.1 7.88-7.27h-40.55v21.91h33.28v7.68h-26.01c-4.1 1.13-7.58 3.89-9.22 7.48h42.5v-22.53h-33.18z" class="st1"/></g><g id="XMLID_12_"><path id="XMLID_13_" d="M185.34 410.62h27.65c3.89-.72 6.66-4.2 7.48-7.48h-42.6c.82 3.29 3.69 6.66 7.47 7.48" class="st1"/><path id="XMLID_14_" d="M185.34 425.27h27.65c3.89-.72 6.66-4.1 7.48-7.48h-42.6c.82 3.28 3.69 6.66 7.47 7.48" class="st1"/><path id="XMLID_15_" d="M185.34 440.32h27.65c3.89-.72 6.66-4.2 7.48-7.48h-42.6c.82 3.28 3.69 6.66 7.47 7.48" class="st1"/></g><g id="XMLID_16_"><path id="XMLID_17_" d="M113.46 403.25c.82 3.28 3.58 6.55 7.48 7.37h11.67l.61.2v29.39h7.27v-29.39l.61-.2h11.67c3.89-1.02 6.66-4.1 7.48-7.37v-.1z" class="st1"/></g></g><g id="T"><path id="XMLID_18_" d="m261.43 329.93 36.25-204.08c34.61 0 45.47 3.79 47.1 19.25 0 0 23.24-8.6 34.92-26.21-45.67-21.2-91.55-22.12-91.55-22.12l-26.73 32.56h.1L234.8 96.77s-45.88.92-91.55 22.12c11.67 17.61 34.92 26.21 34.92 26.21 1.54-15.46 12.49-19.25 46.8-19.25z" class="st1"/><path id="XMLID_19_" d="M261.43 87.35c36.86-.31 79.16 5.73 122.37 24.58 5.73-10.44 7.27-15.05 7.27-15.05-47.31-18.64-91.55-24.99-129.64-25.19-38.09.2-82.43 6.55-129.64 25.29 0 0 2.15 5.63 7.27 15.05 43.11-18.95 85.4-24.89 122.37-24.68" class="st1"/></g></g></svg>