<svg xmlns="http://www.w3.org/2000/svg" xml:space="preserve" id="Layer_1" x="0" y="0" viewBox="0 0 512 512"><style>.st0{fill:#808184}.st5{fill:#404041}.st15{fill:red}</style><g id="XMLID_1_"><g id="XMLID_2_"><path id="XMLID_3_" d="M32.33 191.05c0 79.87 100.35 144.82 223.67 144.82s223.67-64.95 223.67-144.82S379.32 46.23 256 46.23 32.33 111.18 32.33 191.05m2.19 0c0-78.56 99.33-142.63 221.48-142.63s221.48 63.93 221.48 142.63c0 78.56-99.33 142.63-221.48 142.63S34.52 269.75 34.52 191.05" class="st0"/><path id="XMLID_4_" d="M234.79 73c-51.2 3.22-89.67 17.55-95.82 35.55-.59 1.76-.88 3.51-.88 5.27 0 2.78.73 5.56 2.34 8.34 7.02 12.43 29.11 22.67 60.85 28.38l1.02.15.15-1.17c5.41-34.38 17.41-61.59 32.91-74.46l2.63-2.19zm-92.45 47.98c-1.32-2.34-2.05-4.83-2.05-7.17 0-1.46.29-2.93.73-4.39 5.71-16.53 42.86-30.28 90.84-33.79-14.63 13.75-25.89 39.79-31.16 72.56-30.13-5.56-51.93-15.66-58.36-27.21m-3.37-12.44" class="st0"/><path id="XMLID_5_" d="m227.33 152.58-.15 1.17 1.17.15c9.07.73 18.29 1.02 27.65 1.02s18.72-.29 27.65-1.02l1.17-.15-.15-1.17c-4.97-28.82-15.95-46.67-28.67-46.67-12.73 0-23.7 17.85-28.67 46.67M256 108.11c11.41 0 21.5 16.68 26.33 43.59-8.63.59-17.41 1.02-26.33 1.02s-17.7-.29-26.33-1.02c4.83-26.92 14.92-43.59 26.33-43.59" class="st0"/><path id="XMLID_6_" d="M276.48 75.04c15.51 13.02 27.5 40.08 32.91 74.46l.15 1.17 1.02-.15c31.74-5.56 53.98-15.95 60.85-28.38 2.49-4.39 2.93-8.92 1.46-13.6-6.14-17.99-44.62-32.33-95.82-35.55l-3.36-.15zm3.66.44c47.98 3.51 85.14 17.26 90.84 33.79.44 1.46.73 2.93.73 4.39 0 2.49-.73 4.83-2.05 7.17-6.44 11.56-28.23 21.5-58.37 27.06-5.26-32.47-16.52-58.51-31.15-72.41" class="st0"/><path id="XMLID_7_" d="M104.74 123.9c-23.26 20.19-35.55 44.18-35.55 69.34 0 59.54 70.36 110.01 163.69 117.32l3.36.29-2.49-2.19c-21.21-18.87-34.38-63.49-34.38-116.15l.15-10.24-.88-.15c-51.49-9.65-86.75-31.6-92.01-57.34l-.44-1.9zm-33.21 69.34c0-23.99 11.56-46.96 33.5-66.41 6.73 25.75 41.69 47.54 92.45 57.2 0 1.61-.15 8.48-.15 8.48 0 51.35 12.58 95.09 32.77 115.57-90.69-8.19-158.57-57.05-158.57-114.84" class="st0"/><path id="XMLID_8_" d="M224.55 186.81v1.32c0 46.23 13.9 82.36 31.45 82.36 17.7 0 31.45-36.13 31.45-82.36v-2.49l-1.17.15c-9.95.88-20.04 1.32-30.28 1.32s-20.48-.44-30.28-1.32l-1.17-.15zm2.19 1.17c9.51.73 19.46 1.17 29.26 1.17 9.95 0 19.75-.44 29.26-1.32v.15c0 44.91-12.87 80.16-29.26 80.16-16.38 0-29.26-35.11-29.26-80.16" class="st0"/><path id="XMLID_9_" d="M405.5 124.49c-5.27 25.75-40.67 47.84-92.01 57.34l-.88.15.15 10.24c0 52.81-13.17 97.28-34.38 116.15l-2.49 2.19 3.36-.29c93.33-7.31 163.69-57.64 163.69-117.32 0-25.16-12.29-49.15-35.55-69.34l-1.32-1.17zm1.61 2.34c21.8 19.6 33.5 42.42 33.5 66.41 0 57.78-68.02 106.64-158.57 114.69 20.33-20.48 32.77-64.22 32.77-115.57 0 0-.15-6.88-.15-8.48 50.62-9.65 85.72-31.3 92.45-57.05" class="st0"/><linearGradient id="SVGID_1_" x1="256" x2="256" y1="209.646" y2="373.383" gradientTransform="matrix(1 0 0 -1 0 514)" gradientUnits="userSpaceOnUse"><stop offset="0" style="stop-color:#d0d2d3"/><stop offset=".158" style="stop-color:#f1f1f2"/><stop offset=".164" style="stop-color:#f0f0f1"/><stop offset=".259" style="stop-color:#e8e9ea"/><stop offset=".44" style="stop-color:#e6e7e8"/><stop offset=".559" style="stop-color:#cfd0d1"/><stop offset=".809" style="stop-color:#949597"/><stop offset="1" style="stop-color:#626366"/></linearGradient><path d="M405.5 105.33c.29.88.59 1.9.88 2.78 1.32 5.41 1.02 10.68-.59 15.95 22.53 19.31 35.84 43.3 35.84 69.19 0 64.66-83.09 117.03-185.64 117.03S70.36 257.9 70.36 193.24c0-25.89 13.31-49.74 35.84-69.19-1.76-5.12-1.9-10.53-.59-15.95.29-1.02.59-1.9 1.02-2.93C75.92 128 57.2 157.99 57.2 190.76c0 71.53 88.94 129.61 198.8 129.61 109.71 0 198.8-58.08 198.8-129.61 0-32.77-18.58-62.61-49.3-85.43" style="fill:url(#SVGID_1_)"/><linearGradient id="XMLID_00000172435999783092553130000011949938878490698426_" x1="284.904" x2="230.542" y1="351.587" y2="397.202" gradientTransform="matrix(1 0 0 -1 0 514)" gradientUnits="userSpaceOnUse"><stop offset="0" style="stop-color:#e6e7e8"/><stop offset=".44" style="stop-color:#e6e7e8"/><stop offset=".559" style="stop-color:#cfd0d1"/><stop offset=".809" style="stop-color:#949597"/><stop offset="1" style="stop-color:#626366"/></linearGradient><path id="XMLID_31_" d="m228.35 152.72-5.71 4.39c4.68-37.16 17.85-60.85 33.35-60.85 15.51 0 28.67 23.7 33.35 60.85l-5.71-4.39c-4.83-28.09-15.36-45.79-27.65-45.79-12.27 0-22.8 17.71-27.63 45.79" style="fill:url(#XMLID_00000172435999783092553130000011949938878490698426_)"/><linearGradient id="XMLID_00000023270482348787165960000003621670766243709349_" x1="290.09" x2="211.393" y1="274.138" y2="319.573" gradientTransform="matrix(1 0 0 -1 0 514)" gradientUnits="userSpaceOnUse"><stop offset="0" style="stop-color:#e6e7e8"/><stop offset=".44" style="stop-color:#e6e7e8"/><stop offset=".559" style="stop-color:#cfd0d1"/><stop offset=".809" style="stop-color:#949597"/><stop offset="1" style="stop-color:#626366"/></linearGradient><path id="XMLID_30_" d="m291.11 178.03-4.68 8.78v1.32c0 46.23-13.6 81.33-30.43 81.33s-30.43-34.96-30.43-81.33v-1.46l-4.68-8.48c-.15 3.22-.15 6.58-.15 10.09 0 52.37 15.8 92.01 35.25 92.01s35.25-39.64 35.25-92.01c.01-3.67-.13-7.03-.13-10.25" style="fill:url(#XMLID_00000023270482348787165960000003621670766243709349_)"/><linearGradient id="SVGID_00000167384526719097354550000012424177985749354121_" x1="256" x2="256" y1="334.416" y2="423.139" gradientTransform="matrix(1 0 0 -1 0 514)" gradientUnits="userSpaceOnUse"><stop offset="0" style="stop-color:#e6e7e8"/><stop offset=".44" style="stop-color:#e6e7e8"/><stop offset=".559" style="stop-color:#cfd0d1"/><stop offset=".809" style="stop-color:#949597"/><stop offset="1" style="stop-color:#626366"/></linearGradient><path d="M283.65 152.72c-8.78.73-17.99 1.02-27.65 1.02-9.65 0-18.87-.44-27.65-1.02l-5.71 4.39c10.53 1.02 21.65 1.46 33.35 1.46s22.82-.59 33.35-1.46zm101.52-45.35C378.15 83.38 320.66 65.68 256 65.68s-122.15 17.7-129.17 41.69c-6 20.77 27.06 40.08 79.14 47.84l-4.53-5.71c-42.13-7.46-67.29-23.41-61.44-40.37 7.02-20.63 57.93-35.55 116-35.55s108.98 14.92 116 35.55c5.85 16.97-19.31 32.91-61.44 40.37l-4.53 5.71c52.08-7.75 85.14-27.06 79.14-47.84" style="fill:url(#SVGID_00000167384526719097354550000012424177985749354121_)"/><path id="XMLID_27_" d="M405.8 124.05c8.63 7.46 15.95 15.51 21.65 24.14-2.05-14.04-7.31-26.77-15.21-37.6-2.19-1.76-4.39-3.51-6.58-5.12.29.88.59 1.9.88 2.78 1.16 5.27.87 10.68-.74 15.8" class="st5"/><path id="XMLID_26_" d="M106.2 124.05c-1.76-5.12-1.9-10.53-.59-15.95.29-1.02.59-1.9 1.02-2.93-2.34 1.76-4.68 3.51-6.88 5.41-7.75 10.83-13.17 23.7-15.21 37.6 5.86-8.62 13.03-16.67 21.66-24.13" class="st5"/><linearGradient id="SVGID_00000112616461471343981190000014746803332796415407_" x1="256" x2="256" y1="466.603" y2="179.298" gradientTransform="matrix(1 0 0 -1 0 514)" gradientUnits="userSpaceOnUse"><stop offset="0" style="stop-color:#c5c7c9"/><stop offset=".048" style="stop-color:#d4d5d7"/><stop offset=".12" style="stop-color:#e6e7e8"/><stop offset=".124" style="stop-color:#e8e9ea"/><stop offset=".147" style="stop-color:#efeff0"/><stop offset=".21" style="stop-color:#f1f1f2"/><stop offset=".545" style="stop-color:#f1f1f2"/><stop offset=".612" style="stop-color:#ccccce"/><stop offset=".692" style="stop-color:#a6a7a9"/><stop offset=".772" style="stop-color:#88898b"/><stop offset=".851" style="stop-color:#737477"/><stop offset=".928" style="stop-color:#66676a"/><stop offset="1" style="stop-color:#626366"/></linearGradient><path d="M33.35 191.05C33.35 111.62 132.97 47.4 256 47.4c122.88 0 222.65 64.37 222.65 143.65 0 79.43-99.62 143.65-222.65 143.65-122.88.15-222.65-64.22-222.65-143.65M256 320.37c109.71 0 198.8-58.08 198.8-129.61S365.86 61.15 256 61.15 57.2 119.22 57.2 190.76c0 71.53 88.94 129.61 198.8 129.61" style="fill:url(#SVGID_00000112616461471343981190000014746803332796415407_)"/><path id="XMLID_10_" d="M55.88 190.76c0 72.27 89.82 130.93 200.12 130.93s200.12-58.81 200.12-130.93S366.3 59.83 256 59.83 55.88 118.49 55.88 190.76m2.63 0c0-70.66 88.65-128.29 197.49-128.29s197.49 57.49 197.49 128.29c0 70.66-88.65 128.29-197.49 128.29S58.51 261.41 58.51 190.76" style="fill:#fff"/><linearGradient id="SVGID_00000141420249367059364290000000686564907983788467_" x1="256" x2="256" y1="466.606" y2="179.208" gradientTransform="matrix(1 0 0 -1 0 514)" gradientUnits="userSpaceOnUse"><stop offset="0" style="stop-color:#c5c7c9"/><stop offset=".048" style="stop-color:#d4d5d7"/><stop offset=".12" style="stop-color:#e6e7e8"/><stop offset=".124" style="stop-color:#e8e9ea"/><stop offset=".147" style="stop-color:#efeff0"/><stop offset=".21" style="stop-color:#f1f1f2"/><stop offset=".545" style="stop-color:#f1f1f2"/><stop offset=".612" style="stop-color:#ccccce"/><stop offset=".692" style="stop-color:#a6a7a9"/><stop offset=".772" style="stop-color:#88898b"/><stop offset=".851" style="stop-color:#737477"/><stop offset=".928" style="stop-color:#66676a"/><stop offset="1" style="stop-color:#626366"/></linearGradient><path d="M203.78 192.37c0-69.19 23.41-126.68 52.22-126.68s52.22 57.49 52.22 126.68c0 69.92-23.41 126.68-52.22 126.68-28.82 0-52.22-56.76-52.22-126.68M256 280.14c19.46 0 35.25-39.64 35.25-92.01 0-54.42-15.8-91.87-35.25-91.87s-35.25 37.45-35.25 91.87c0 52.22 15.79 92.01 35.25 92.01" style="fill:url(#SVGID_00000141420249367059364290000000686564907983788467_)"/><linearGradient id="SVGID_00000037670835897459931660000014240685471965260679_" x1="256" x2="256" y1="466.586" y2="179.18" gradientTransform="matrix(1 0 0 -1 0 514)" gradientUnits="userSpaceOnUse"><stop offset="0" style="stop-color:#c5c7c9"/><stop offset=".048" style="stop-color:#d4d5d7"/><stop offset=".12" style="stop-color:#e6e7e8"/><stop offset=".124" style="stop-color:#e8e9ea"/><stop offset=".147" style="stop-color:#efeff0"/><stop offset=".21" style="stop-color:#f1f1f2"/><stop offset=".545" style="stop-color:#f1f1f2"/><stop offset=".612" style="stop-color:#ccccce"/><stop offset=".692" style="stop-color:#a6a7a9"/><stop offset=".772" style="stop-color:#88898b"/><stop offset=".851" style="stop-color:#737477"/><stop offset=".928" style="stop-color:#66676a"/><stop offset="1" style="stop-color:#626366"/></linearGradient><path d="M105.62 108.25c5.71-23.7 75.19-58.08 150.38-58.08 75.34 0 142.34 24.58 150.38 58.08 9.07 37.6-57.78 71.53-150.38 71.53-92.6-.14-159.45-34.08-150.38-71.53M256 65.68c-64.66 0-122.15 17.7-129.17 41.69-7.75 26.92 49.59 51.2 129.17 51.2s136.92-24.28 129.17-51.2C378.15 83.38 320.66 65.68 256 65.68" style="fill:url(#SVGID_00000037670835897459931660000014240685471965260679_)"/><linearGradient id="SVGID_00000051366740901515346990000004927999585591153574_" x1="256" x2="256" y1="407.001" y2="325.086" gradientTransform="matrix(1 0 0 -1 0 514)" gradientUnits="userSpaceOnUse"><stop offset=".006" style="stop-color:#e6e7e8"/><stop offset="1" style="stop-color:#6d6e70"/></linearGradient><path d="m220.89 178.03 4.83 8.78c9.65.88 19.89 1.32 30.28 1.32 10.53 0 20.63-.44 30.43-1.32l4.68-8.78c-11.12 1.17-22.97 1.76-35.11 1.76-12.14-.15-23.99-.74-35.11-1.76m186.37-61.73c-1.17 26.92-40.81 50.61-99.33 59.54l5.71 7.17c57.19-10.69 94.94-37.02 93.62-66.71m-302.52 0c-1.32 29.7 36.28 56.03 93.62 66.71l5.71-7.17c-58.52-8.93-98.01-32.77-99.33-59.54" style="fill:url(#SVGID_00000051366740901515346990000004927999585591153574_)"/><linearGradient id="XMLID_00000070084281484427382460000014535494113447071906_" x1="283.356" x2="283.356" y1="466.597" y2="325.894" gradientTransform="matrix(1 0 0 -1 0 514)" gradientUnits="userSpaceOnUse"><stop offset="0" style="stop-color:#e6e7e8"/><stop offset=".44" style="stop-color:#e6e7e8"/><stop offset=".559" style="stop-color:#cfd0d1"/><stop offset=".809" style="stop-color:#949597"/><stop offset="1" style="stop-color:#626366"/></linearGradient><path id="XMLID_14_" d="m306.03 155.06 4.53-5.71c-7.9-50.03-29.26-83.68-54.42-83.68 23.41.01 43.16 38.05 49.89 89.39" style="fill:url(#XMLID_00000070084281484427382460000014535494113447071906_)"/><linearGradient id="XMLID_00000138543903748946140470000009445950963070963616_" x1="228.718" x2="228.718" y1="466.597" y2="325.894" gradientTransform="matrix(1 0 0 -1 0 514)" gradientUnits="userSpaceOnUse"><stop offset="0" style="stop-color:#e6e7e8"/><stop offset=".44" style="stop-color:#e6e7e8"/><stop offset=".559" style="stop-color:#cfd0d1"/><stop offset=".809" style="stop-color:#949597"/><stop offset="1" style="stop-color:#626366"/></linearGradient><path id="XMLID_13_" d="M205.97 155.06c6.58-51.49 26.48-89.38 50.03-89.38-25.16 0-46.67 33.65-54.56 83.68z" style="fill:url(#XMLID_00000138543903748946140470000009445950963070963616_)"/><linearGradient id="XMLID_00000160158185084512007150000000605811724094882432_" x1="227.255" x2="227.255" y1="466.598" y2="233.907" gradientTransform="matrix(1 0 0 -1 0 514)" gradientUnits="userSpaceOnUse"><stop offset="0" style="stop-color:#e6e7e8"/><stop offset=".44" style="stop-color:#e6e7e8"/><stop offset=".559" style="stop-color:#cfd0d1"/><stop offset=".809" style="stop-color:#949597"/><stop offset="1" style="stop-color:#626366"/></linearGradient><path id="XMLID_12_" d="M203.78 192.37c0-5.56.15-11.12.44-16.53l-5.71 7.17c-.15 3.07-.15 6.14-.15 9.36 0 74.02 25.31 126.68 57.78 126.68-28.96 0-52.36-56.76-52.36-126.68" style="fill:url(#XMLID_00000160158185084512007150000000605811724094882432_)"/><linearGradient id="XMLID_00000028308174845698292470000015800771848088316288_" x1="285.038" x2="285.038" y1="466.598" y2="233.907" gradientTransform="matrix(1 0 0 -1 0 514)" gradientUnits="userSpaceOnUse"><stop offset="0" style="stop-color:#e6e7e8"/><stop offset=".44" style="stop-color:#e6e7e8"/><stop offset=".559" style="stop-color:#cfd0d1"/><stop offset=".809" style="stop-color:#949597"/><stop offset="1" style="stop-color:#626366"/></linearGradient><path id="XMLID_11_" d="m313.64 183-5.71-7.17c.29 5.41.44 10.97.44 16.53 0 69.92-23.41 126.68-52.22 126.68 32.33 0 57.78-52.52 57.78-126.68-.15-3.21-.29-6.28-.29-9.36" style="fill:url(#XMLID_00000028308174845698292470000015800771848088316288_)"/></g><g id="XMLID_48_"><path id="XMLID_58_" d="M255.56 420.43c0-25.01 20.33-45.35 45.35-45.35s45.35 20.33 45.35 45.35-20.33 45.35-45.35 45.35-45.35-20.34-45.35-45.35m45.35 28.67c14.04 0 25.31-12.87 25.31-28.67s-11.26-28.67-25.31-28.67c-13.9 0-25.31 12.87-25.31 28.67 0 15.79 11.41 28.67 25.31 28.67" class="st15"/><path id="XMLID_57_" d="M397.6 393.95v69.78h-19.02V394.1h-26.77v-15.8h72.41v15.8z" class="st15"/><path id="XMLID_54_" d="m447.34 444.42-7.31 19.16h-22.24l35.25-85.43h23.7L512 463.73h-22.24l-7.31-19.16h-35.1v-.15zm17.56-14.34h12l-12-31.31h-.15l-12 31.31z" class="st15"/><path id="XMLID_53_" d="M45.79 393.95v69.78H26.62V394.1H0v-15.8h72.41v15.8z" class="st15"/><path id="XMLID_50_" d="M77.24 420.43c0-25.01 20.33-45.35 45.35-45.35s45.35 20.33 45.35 45.35-20.33 45.35-45.35 45.35-45.35-20.34-45.35-45.35m45.35 28.67c13.9 0 25.31-12.87 25.31-28.67s-11.26-28.67-25.31-28.67-25.31 12.87-25.31 28.67 11.26 28.67 25.31 28.67" class="st15"/><path id="XMLID_49_" d="M211.68 463.73h9.65v-32.48l33.35-52.96h-22.24l-20.63 35.84-20.63-35.84h-22.24l33.35 52.96v32.48z" class="st15"/></g></g></svg>