<?xml version="1.0" encoding="utf-8"?>
<!-- Generator: Adobe Illustrator 27.1.1, SVG Export Plug-In . SVG Version: 6.00 Build 0)  -->
<svg version="1.1" id="Layer_1" xmlns="http://www.w3.org/2000/svg" xmlns:xlink="http://www.w3.org/1999/xlink" x="0px" y="0px"
	 viewBox="0 0 512 512" style="enable-background:new 0 0 512 512;" xml:space="preserve">
<g id="Volvo_Iron_Mark">
	<g>
		<path d="M231.01,275.46h62.05v-20.68h-6.76c0,7.99-5.73,13.72-14.75,13.72h-9.42v-30.92h10.24v-6.96h-41.37v6.96h10.44v30.92
			h-10.44V275.46L231.01,275.46z"/>
		<polygon points="322.97,275.46 347.14,275.46 367.82,237.57 378.06,237.57 378.06,230.6 347.14,230.6 347.14,237.57 
			356.15,237.57 340.99,265.22 326.04,237.57 336.9,237.57 336.9,230.6 291.84,230.6 291.84,237.57 302.08,237.57 		"/>
		<polygon points="107.32,230.6 62.46,230.6 62.46,237.57 72.7,237.57 93.59,275.46 117.76,275.46 138.24,237.57 148.48,237.57 
			148.48,230.6 117.56,230.6 117.56,237.57 126.57,237.57 111.62,265.22 96.46,237.57 107.32,237.57 		"/>
		<path d="M154.62,253.13c0,13.11,10.65,23.76,31.95,23.76s31.74-10.44,31.74-23.76c0-13.11-11.06-23.35-31.95-23.35
			C165.68,229.58,154.62,240.03,154.62,253.13z M197.43,253.13c-0.2,8.19-3.48,16.59-11.26,16.38c-7.58-0.2-10.85-8.6-10.85-16.79
			c0.2-8.6,4.3-16.18,11.47-15.97C193.95,236.75,197.63,244.53,197.43,253.13z"/>
		<path d="M384,253.13c0,13.11,10.65,23.76,31.95,23.76c21.3,0,31.74-10.44,31.74-23.76c0-13.11-11.06-23.35-31.95-23.35
			C395.06,229.58,384,240.03,384,253.13z M416.15,236.75c7.17,0.2,10.85,7.78,10.65,16.38c-0.2,8.19-3.48,16.59-11.26,16.38
			c-7.58-0.2-10.85-8.6-10.85-16.79C404.89,244.12,408.99,236.54,416.15,236.75z"/>
	</g>
	<path d="M466.74,110.59l-26.01,26.01c22.32,34.41,35.23,75.37,35.23,119.4c0,121.45-98.51,219.96-219.96,219.96
		S36.04,377.45,36.04,256S134.55,36.04,256,36.04c44.24,0,85.2,13.11,119.6,35.43l26.01-26.01C360.45,16.79,310.07,0,256,0
		C114.69,0,0,114.69,0,256s114.69,256,256,256s256-114.69,256-256C512,201.93,495.21,151.76,466.74,110.59z"/>
	<path d="M384.82,10.04v7.17c15.56,8.4,30.11,18.43,43.62,29.49l-36.45,36.45c13.72,10.85,26.21,23.14,37.07,36.86l36.45-36.45
		c11.26,13.52,21.09,28.26,29.49,43.42h6.96V10.04H384.82z"/>
</g>
</svg>
