<svg width="48" height="48" viewBox="0 0 48 48" fill="none" xmlns="http://www.w3.org/2000/svg">
<g clip-path="url(#clip0_31_2166)">
<g clip-path="url(#clip1_31_2166)">
<g clip-path="url(#clip2_31_2166)">
<path d="M25.9999 24.0002C27.1039 24.0002 27.9999 23.1043 27.9999 22.0003C27.9999 20.8963 27.1039 20.0004 25.9999 20.0004C24.896 20.0004 24 20.8963 24 22.0003C24 23.1043 24.896 24.0002 25.9999 24.0002Z" fill="black"/>
<path d="M25.9999 28.0002C24.896 28.0002 24 28.8961 24 30.0001C24 31.1041 24.896 32.0001 25.9999 32.0001C27.1039 32.0001 27.9999 31.1041 27.9999 30.0001C27.9999 28.8961 27.1039 28.0002 25.9999 28.0002Z" fill="black"/>
<path d="M14.5001 26.0002C14.5001 19.6499 19.6496 14.5004 25.9999 14.5004C32.3502 14.5004 37.4997 19.6499 37.4997 26.0002C37.4997 32.3504 32.3502 37.5 25.9999 37.5C19.6496 37.5 14.5001 32.3504 14.5001 26.0002ZM17.5001 26.0003C17.5001 30.6937 21.3064 34.5001 25.9999 34.5001C30.6934 34.5001 34.4997 30.6937 34.4997 26.0003C34.4997 21.3068 30.6934 17.5004 25.9999 17.5004C21.3064 17.5004 17.5001 21.3068 17.5001 26.0003Z" stroke="black"/>
<path d="M7.61048 28.2883H8.19455H8.85781C9.82148 28.2883 10.681 27.7722 11.1449 26.9897L11.1452 26.9893C11.3499 26.6448 11.4781 26.249 11.5038 25.8212L11.5038 25.8207C11.6831 22.8859 12.6797 20.1817 14.2704 17.9307L14.2704 17.9307C16.4709 14.8173 19.8086 12.5718 23.6966 11.7845L23.6967 11.7844C24.389 11.6444 25.0985 11.5507 25.8217 11.5064L25.8222 11.5064C26.2137 11.4828 26.5784 11.3737 26.9014 11.1985L26.9062 11.1956L26.9179 11.1889L26.9212 11.1871L26.9212 11.1871C26.9552 11.1683 26.9838 11.152 27.01 11.1361L27.0104 11.1359C27.0204 11.1298 27.0273 11.1253 27.0383 11.1181C27.0459 11.1132 27.0553 11.107 27.0691 11.0982L7.61048 28.2883ZM7.61048 28.2883L7.70052 28.8654M7.61048 28.2883L7.70052 28.8654M7.70052 28.8654C9.08585 37.7437 16.7679 44.5 25.9875 44.5C36.2112 44.5 44.4992 36.2114 44.4991 25.9864C44.4991 16.766 37.7439 9.08483 28.8651 7.70103L28.2882 7.6111V8.19506V8.85927C28.2882 9.62329 27.9628 10.3231 27.4364 10.8127L27.4349 10.814C27.4188 10.8291 27.4138 10.8341 27.4107 10.8371C27.4083 10.8395 27.4072 10.8406 27.4025 10.8447L27.4025 10.8447C27.4026 10.8447 27.4021 10.8451 27.4007 10.8463L27.3945 10.8516L27.3923 10.8534C27.3871 10.8578 27.3778 10.8657 27.3689 10.8734L27.6972 11.2505L7.70052 28.8654ZM27.2699 11.5633C27.2349 11.5845 27.1992 11.6047 27.1633 11.6246L27.2699 11.5633ZM27.2699 11.5633C27.2935 11.5489 27.3165 11.5335 27.3397 11.5186L27.2699 11.5633ZM27.1141 11.0696C27.1349 11.0556 27.156 11.0403 27.1868 11.0181L27.2015 11.0076L27.2116 11.0006C27.2131 10.9996 27.214 10.9989 27.2146 10.9985C27.2358 10.9827 27.2577 10.9653 27.2869 10.942L27.1141 11.0696ZM27.1141 11.0696C27.1072 11.0742 27.1049 11.0756 27.1006 11.0783M27.1141 11.0696L27.1006 11.0783M27.1006 11.0783C27.0958 11.0812 27.0886 11.0857 27.0699 11.0977L27.1006 11.0783ZM28.2882 4.15714V4.5977L28.7253 4.65316C39.3406 6.00006 47.4991 15.0634 47.4991 25.9863C47.4991 37.8683 37.868 47.5 25.9874 47.5C15.0647 47.5 6.00009 39.3394 4.65235 28.7239L4.59687 28.2869H4.15633H3.1566C1.62696 28.2869 0.426905 27.0009 0.504415 25.4832L0.504473 25.482C1.16207 11.9776 11.9759 1.16296 25.4827 0.503031C27.0053 0.430294 28.2882 1.62949 28.2882 3.15731V4.15714ZM25.2875 4.05748V3.51231L24.7444 3.55934C13.4904 4.53392 4.53641 13.4869 3.5608 24.7438L3.51372 25.2869H4.05893H8.07773H8.52813L8.57502 24.839C8.82794 22.4225 9.54531 20.1507 10.6369 18.1131L10.6369 18.1131C13.2125 13.3048 17.8727 9.80002 23.4314 8.78147L23.4315 8.78146C23.8955 8.69635 24.365 8.62765 24.8397 8.57787L25.2875 8.53091V8.0806V4.05748Z" stroke="black"/>
<path d="M21.9999 24.0002C20.896 24.0002 20 24.8962 20 26.0002C20 27.1041 20.896 28.0001 21.9999 28.0001C23.1039 28.0001 23.9999 27.1041 23.9999 26.0002C23.9999 24.8962 23.1039 24.0002 21.9999 24.0002Z" fill="black"/>
<path d="M29.9998 24.0002C28.8958 24.0002 27.9999 24.8962 27.9999 26.0002C27.9999 27.1041 28.8958 28.0001 29.9998 28.0001C31.1038 28.0001 31.9997 27.1041 31.9997 26.0002C31.9997 24.8962 31.1038 24.0002 29.9998 24.0002Z" fill="black"/>
</g>
</g>
</g>
<defs>
<clipPath id="clip0_31_2166">
<rect width="48" height="48" fill="white"/>
</clipPath>
<clipPath id="clip1_31_2166">
<rect width="48" height="48" fill="white"/>
</clipPath>
<clipPath id="clip2_31_2166">
<rect width="48" height="48" fill="white"/>
</clipPath>
</defs>
</svg>
