<svg width="48" height="48" viewBox="0 0 48 48" fill="none" xmlns="http://www.w3.org/2000/svg">
<g clip-path="url(#clip0_31_2225)">
<g clip-path="url(#clip1_31_2225)">
<path d="M47.25 28.323L45.4635 24.75H44.25V4.5C44.25 2.43225 42.5677 0.75 40.5 0.75H27C24.9323 0.75 23.25 2.43225 23.25 4.5V12.75H26.25V11.25H24.75V4.5C24.75 3.2595 25.7595 2.25 27 2.25H40.5C41.7405 2.25 42.75 3.2595 42.75 4.5V24.75H41.5365L39.75 28.323V38.25H41.25V45.3105L43.5 47.5605L45.75 45.3105V38.25H47.25V28.323ZM45.75 29.25V33.75H41.25V29.25H45.75ZM44.5365 26.25L45.2865 27.75H41.7135L42.4635 26.25H44.5365ZM44.25 44.6895L43.5 45.4395L42.75 44.6895V38.25H44.25V44.6895ZM41.25 36.75V35.25H45.75V36.75H41.25Z" fill="black"/>
<path d="M9 3.75C6.10575 3.75 3.75 6.10575 3.75 9H5.25C5.25 6.93225 6.93225 5.25 9 5.25C11.0677 5.25 12.75 6.93225 12.75 9H14.25C14.25 6.10575 11.8942 3.75 9 3.75Z" fill="black"/>
<path d="M9 2.25C12.7222 2.25 15.75 5.27775 15.75 9H17.25C17.25 4.45125 13.5487 0.75 9 0.75C4.45125 0.75 0.75 4.45125 0.75 9H2.25C2.25 5.27775 5.27775 2.25 9 2.25Z" fill="black"/>
<path d="M21.75 24.75H24V40.5C24 41.7405 22.9905 42.75 21.75 42.75H20.25C20.25 41.9227 19.5772 41.25 18.75 41.25H17.25V40.2967L12 31.2967V23.25H9.75V11.112C10.6208 10.8015 11.25 9.9765 11.25 9C11.25 7.7595 10.2405 6.75 9 6.75C7.7595 6.75 6.75 7.7595 6.75 9C6.75 9.9765 7.37925 10.8015 8.25 11.112V23.25H6V31.2975L0.75 40.2975V47.25H17.25V45.75H18.75C19.5772 45.75 20.25 45.0773 20.25 44.25H21.75C23.8177 44.25 25.5 42.5677 25.5 40.5V23.25H21.75V24.75ZM9 8.25C9.414 8.25 9.75 8.586 9.75 9C9.75 9.414 9.414 9.75 9 9.75C8.586 9.75 8.25 9.414 8.25 9C8.25 8.586 8.586 8.25 9 8.25ZM10.8195 32.25L15.1943 39.75H2.80575L7.1805 32.25H10.8195ZM10.5 24.75V30.75H7.5V24.75H10.5ZM2.25 45.75V44.25H14.25V42.75H2.25V41.25H15.75V45.75H2.25ZM18.75 44.25H17.25V42.75H18.75V44.25Z" fill="black"/>
<path d="M26.25 20.25H21.75V21.75H26.25V20.25Z" fill="black"/>
<path d="M26.25 17.25H21.75V18.75H26.25V17.25Z" fill="black"/>
<path d="M26.25 14.25H21.75V15.75H26.25V14.25Z" fill="black"/>
</g>
</g>
<defs>
<clipPath id="clip0_31_2225">
<rect width="48" height="48" fill="white"/>
</clipPath>
<clipPath id="clip1_31_2225">
<rect width="48" height="48" fill="white"/>
</clipPath>
</defs>
</svg>
