<svg width="48" height="48" viewBox="0 0 48 48" fill="none" xmlns="http://www.w3.org/2000/svg">
<g clip-path="url(#clip0_31_2188)">
<path d="M43.5 5.25H4.5C2.43225 5.25 0.75 6.93225 0.75 9V27C0.75 29.0677 2.43225 30.75 4.5 30.75H7.33875C7.6935 31.1963 8.15325 31.5285 8.56275 31.8232C9.321 32.3685 9.75 32.709 9.75 33.3705C9.75 34.0327 9.321 34.3732 8.562 34.9185C7.755 35.4997 6.75 36.222 6.75 37.6852C6.75 39.1485 7.755 39.8715 8.562 40.452C9.321 40.9972 9.75 41.3377 9.75 42H11.25C11.25 40.5368 10.245 39.8145 9.438 39.234C8.679 38.688 8.25 38.3468 8.25 37.6852C8.25 37.0238 8.679 36.6825 9.438 36.1372C10.245 35.556 11.25 34.833 11.25 33.3705C11.25 31.908 10.245 31.1857 9.438 30.6052C8.679 30.06 8.25 29.7195 8.25 29.058C8.25 28.398 8.679 28.0575 9.43725 27.513C10.245 26.9332 11.25 26.2118 11.25 24.75H9.75C9.75 25.3905 9.339 25.7332 8.62275 26.25H5.25V23.25H18.75V26.25H16.7948C17.064 25.851 17.25 25.3695 17.25 24.75H15.75C15.75 25.41 15.321 25.7505 14.5627 26.295C13.755 26.8748 12.75 27.5963 12.75 29.058C12.75 30.5205 13.755 31.2428 14.5627 31.8232C15.321 32.3685 15.75 32.709 15.75 33.3705C15.75 34.0327 15.321 34.3732 14.562 34.9185C13.755 35.4997 12.75 36.222 12.75 37.6852C12.75 39.1485 13.755 39.8715 14.562 40.452C15.321 40.9972 15.75 41.3377 15.75 42H17.25C17.25 40.5368 16.245 39.8145 15.438 39.234C14.679 38.688 14.25 38.3468 14.25 37.6852C14.25 37.0238 14.679 36.6825 15.438 36.1372C16.245 35.556 17.25 34.833 17.25 33.3705C17.25 32.025 16.401 31.308 15.6368 30.75H31.3387C31.6935 31.1963 32.1532 31.5285 32.5627 31.8232C33.321 32.3685 33.75 32.709 33.75 33.3705C33.75 34.0327 33.321 34.3732 32.562 34.9185C31.755 35.4997 30.75 36.222 30.75 37.6852C30.75 39.1485 31.755 39.8715 32.562 40.452C33.321 40.9972 33.75 41.3377 33.75 42H35.25C35.25 40.5368 34.245 39.8145 33.438 39.234C32.679 38.688 32.25 38.3468 32.25 37.6852C32.25 37.0238 32.679 36.6825 33.438 36.1372C34.245 35.556 35.25 34.833 35.25 33.3705C35.25 31.908 34.245 31.1857 33.438 30.6052C32.679 30.06 32.25 29.7195 32.25 29.058C32.25 28.398 32.679 28.0575 33.4372 27.513C34.245 26.9332 35.25 26.2118 35.25 24.75H33.75C33.75 25.3905 33.339 25.7332 32.6228 26.25H29.25V23.25H42.75V26.25H40.7948C41.064 25.851 41.25 25.3695 41.25 24.75H39.75C39.75 25.41 39.321 25.7505 38.5628 26.295C37.755 26.8748 36.75 27.5963 36.75 29.058C36.75 30.5205 37.755 31.2428 38.5628 31.8232C39.321 32.3685 39.75 32.709 39.75 33.3705C39.75 34.0327 39.321 34.3732 38.562 34.9185C37.755 35.4997 36.75 36.222 36.75 37.6852C36.75 39.1485 37.755 39.8715 38.562 40.452C39.321 40.9972 39.75 41.3377 39.75 42H41.25C41.25 40.5368 40.245 39.8145 39.438 39.234C38.679 38.688 38.25 38.3468 38.25 37.6852C38.25 37.0238 38.679 36.6825 39.438 36.1372C40.245 35.556 41.25 34.833 41.25 33.3705C41.25 32.025 40.401 31.308 39.6367 30.75H43.5C45.5677 30.75 47.25 29.0677 47.25 27V9C47.25 6.93225 45.5677 5.25 43.5 5.25ZM18.75 12.75H14.25V11.25H8.25V12.75H5.25V9.75H18.75V12.75ZM12.75 12.75V14.25H9.75V12.75H12.75ZM5.25 14.25H8.25V15.75H14.25V14.25H18.75V17.25H5.25V14.25ZM5.25 21.75V18.75H18.75V21.75H5.25ZM14.2838 29.25C14.274 29.1855 14.25 29.1292 14.25 29.058C14.25 28.5015 14.5702 28.1663 15.1207 27.75H31.0837C30.882 28.1108 30.75 28.5352 30.75 29.058C30.75 29.1262 30.7627 29.1847 30.7665 29.25H14.2838ZM20.25 26.25V10.2135L22.323 11.25H25.6777L27.75 10.2135V26.25H20.25ZM42.75 17.25H38.25V15.75H32.25V17.25H29.25V14.25H42.75V17.25ZM36.75 17.25V18.75H33.75V17.25H36.75ZM42.75 12.75H29.25V9.75H42.75V12.75ZM29.25 21.75V18.75H32.25V20.25H38.25V18.75H42.75V21.75H29.25ZM45.75 27C45.75 28.2405 44.7405 29.25 43.5 29.25H38.2837C38.274 29.1855 38.25 29.1292 38.25 29.058C38.25 28.5015 38.5702 28.1663 39.1208 27.75H42.75C43.5773 27.75 44.25 27.0772 44.25 26.25V9.75C44.25 8.92275 43.5773 8.25 42.75 8.25H28.323L25.323 9.75H22.6777L19.6777 8.25H5.25C4.42275 8.25 3.75 8.92275 3.75 9.75V26.25C3.75 27.0772 4.42275 27.75 5.25 27.75H7.08375C6.882 28.1108 6.75 28.5352 6.75 29.058C6.75 29.1262 6.76275 29.1847 6.7665 29.25H4.5C3.2595 29.25 2.25 28.2405 2.25 27V9C2.25 7.7595 3.2595 6.75 4.5 6.75H43.5C44.7405 6.75 45.75 7.7595 45.75 9V27Z" fill="black"/>
<path d="M24 13.323L20.5365 20.25H27.4635L24 13.323ZM24 16.677L25.0365 18.75H22.9635L24 16.677Z" fill="black"/>
</g>
<defs>
<clipPath id="clip0_31_2188">
<rect width="48" height="48" fill="white"/>
</clipPath>
</defs>
</svg>
