<svg width="48" height="48" viewBox="0 0 48 48" fill="none" xmlns="http://www.w3.org/2000/svg">
<path d="M44.7183 14.5H29.0605L27.5605 13H20.9395L19.4395 14.5H3.78175C2.248 14.5 1 15.748 1 17.2817C1 17.4805 1.021 17.6792 1.063 17.8727L3.48325 29.002C4.3015 32.767 7.69225 35.5 11.545 35.5H36.955C40.8078 35.5 44.1978 32.767 45.0168 29.0028L47.437 17.872C47.479 17.6793 47.5 17.4805 47.5 17.2817C47.5 15.748 46.252 14.5 44.7183 14.5ZM45.9707 17.554L43.5505 28.684C42.8815 31.7642 40.108 34 36.955 34H11.545C8.39275 34 5.61925 31.7642 4.9495 28.6832L2.52925 17.554C2.50975 17.4655 2.5 17.374 2.5 17.2817C2.5 16.5752 3.07525 16 3.78175 16H20.0605L21.5605 14.5H26.9395L28.4395 16H44.7183C45.4248 16 46 16.5752 46 17.2817C46 17.374 45.9902 17.4655 45.9707 17.554Z" fill="black"/>
<path d="M25.4395 19H23.0605L21.5605 17.5H4.05176L6.41426 28.3645C6.93551 30.7615 9.09251 32.5 11.545 32.5H36.955C39.4068 32.5 41.5645 30.7615 42.0858 28.3652L44.4483 17.5H26.9395L25.4395 19ZM38.5 26.5052H37V23.5H38.5V26.5052ZM40 23.5H41.608L40.9548 26.5052H40V23.5ZM38.5 30.6482C38.0365 30.8612 37.531 30.9895 37 30.9962V28.0052H38.5V30.6482ZM20.5 22H19V19H20.5V22ZM32.5 26.5052H31V23.5H32.5V26.5052ZM34 23.5H35.5V26.5052H34V23.5ZM29.5 26.5052H28V23.5H29.5V26.5052ZM26.5 26.5052H25V23.5H26.5V26.5052ZM23.5 26.5052H22V23.5H23.5V26.5052ZM20.5 26.5052H19V23.5H20.5V26.5052ZM16 23.5H17.5V26.5052H16V23.5ZM14.5 26.5052H13V23.5H14.5V26.5052ZM17.5 22H16V19H17.5V22ZM14.5 22H13V19H14.5V22ZM11.5 22H10V19H11.5V22ZM11.5 23.5V26.5052H10V23.5H11.5ZM10 28.0052H11.5V30.9962C10.969 30.9895 10.4635 30.8612 10 30.6482V28.0052ZM13 28.0052H14.5V31H13V28.0052ZM16 28.0052H17.5V31H16V28.0052ZM19 28.0052H20.5V31H19V28.0052ZM22 28.0052H23.5V31H22V28.0052ZM25 28.0052H26.5V31H25V28.0052ZM28 28.0052H29.5V31H28V28.0052ZM31 28.0052H32.5V31H31V28.0052ZM34 28.0052H35.5V31H34V28.0052ZM37 22V19H38.5V22H37ZM35.5 22H34V19H35.5V22ZM32.5 22H31V19H32.5V22ZM29.5 22H28V19H29.5V22ZM26.0605 20.5L26.5 20.0605V22H25V20.5H26.0605ZM23.5 20.5V22H22V20.0605L22.4395 20.5H23.5ZM8.50001 19V22H6.56651L5.91401 19H8.50001ZM6.89276 23.5H8.50001V29.4108C8.21126 29.0073 7.99076 28.5505 7.88126 28.0458L6.89276 23.5ZM40 29.4115V28.0052H40.6285L40.6195 28.0465C40.51 28.5513 40.2888 29.008 40 29.4115ZM41.9343 22H40V19H42.586L41.9343 22Z" fill="black"/>
</svg>
