<svg width="48" height="48" viewBox="0 0 48 48" fill="none" xmlns="http://www.w3.org/2000/svg">
<g clip-path="url(#clip0_31_2140)">
<path d="M45 18.75H43.5C42.2595 18.75 41.25 19.7595 41.25 21V27.75H39.75V15.75H44.25V9.75H39.75V8.25C39.75 7.42275 39.0773 6.75 38.25 6.75H36.75C35.9227 6.75 35.25 7.42275 35.25 8.25H9.75C9.75 7.42275 9.07725 6.75 8.25 6.75H6.75C5.92275 6.75 5.25 7.42275 5.25 8.25V9.75H0.75V15.75H5.25V32.25H0.75V38.25H5.25V39.75C5.25 40.5773 5.92275 41.25 6.75 41.25H8.25C9.07725 41.25 9.75 40.5773 9.75 39.75H35.25C35.25 40.5773 35.9227 41.25 36.75 41.25H38.25C39.0773 41.25 39.75 40.5773 39.75 39.75V38.25H45V35.25C46.2405 35.25 47.25 34.2405 47.25 33V21C47.25 19.7595 46.2405 18.75 45 18.75ZM2.25 14.25V11.25H5.25V14.25H2.25ZM2.25 36.75V33.75H5.25V36.75H2.25ZM35.25 9.75V11.25H32.25V12.75H35.25V14.25H9.75V12.75H30.75V11.25H9.75V9.75H35.25ZM35.25 18.75V20.25H9.75V18.75H12.75V17.25H9.75V15.75H35.25V17.25H14.25V18.75H35.25ZM35.25 27.75V29.25H9.75V27.75H21.75V26.25H9.75V24.75H35.25V26.25H23.25V27.75H35.25ZM35.25 33.75V35.25H9.75V33.75H24V32.25H9.75V30.75H35.25V32.25H25.5V33.75H35.25ZM9.75 23.25V21.75H35.25V23.25H9.75ZM6.75 39.75V8.25H8.25L8.25075 39.75H6.75ZM9.75 38.25V36.75H35.25V38.25H9.75ZM41.25 29.25V32.25H39.75V29.25H41.25ZM42.75 11.25V14.25H39.75V11.25H42.75ZM36.75 39.75V8.25H38.25L38.2507 39.75H36.75ZM43.5 36.75H39.75V33.75H41.388C41.6985 34.6208 42.5235 35.25 43.5 35.25V36.75ZM45.75 33C45.75 33.4132 45.414 33.75 45 33.75H43.5C43.086 33.75 42.75 33.4132 42.75 33V21C42.75 20.5868 43.086 20.25 43.5 20.25H45C45.414 20.25 45.75 20.5868 45.75 21V33Z" fill="black"/>
</g>
<defs>
<clipPath id="clip0_31_2140">
<rect width="48" height="48" fill="white"/>
</clipPath>
</defs>
</svg>
