<svg width="48" height="48" viewBox="0 0 48 48" fill="none" xmlns="http://www.w3.org/2000/svg">
<g clip-path="url(#clip0_31_2134)">
<path d="M36.1958 13.7145L33.75 8.823V6.612C34.6208 6.3015 35.25 5.4765 35.25 4.5V3C35.25 1.7595 34.2405 0.75 33 0.75H27C25.7595 0.75 24.75 1.7595 24.75 3V4.5C24.75 5.4765 25.3792 6.3015 26.25 6.612V8.49225L14.55 13.1722C12.5452 13.974 11.25 15.888 11.25 18.0472V42C11.25 44.895 13.605 47.25 16.5 47.25H31.5C34.395 47.25 36.75 44.895 36.75 42V16.0627C36.75 15.2513 36.5588 14.4397 36.1958 13.7145ZM26.25 3C26.25 2.58675 26.5868 2.25 27 2.25H33C33.4132 2.25 33.75 2.58675 33.75 3V4.5C33.75 4.91325 33.4132 5.25 33 5.25H27C26.5868 5.25 26.25 4.91325 26.25 4.5V3ZM15.1072 14.565L27.75 9.50775V6.75H32.25V9.177L34.854 14.385C35.1128 14.9032 35.25 15.4837 35.25 16.0627V17.25H17.25V18.75H35.25V42C35.25 42.2565 35.2237 42.5078 35.1742 42.75H12.8257C12.7762 42.5078 12.75 42.2565 12.75 42V18.7875L15.759 18.75L15.741 17.25L12.8362 17.286C13.086 16.068 13.917 15.0413 15.1072 14.565ZM31.5 45.75H16.5C15.2797 45.75 14.2042 45.1553 13.5195 44.25H34.4812C33.7957 45.1553 32.7202 45.75 31.5 45.75Z" fill="black"/>
<path d="M24 22.434L19.3522 30.9547C18.9585 31.677 18.75 32.4945 18.75 33.3165C18.75 36.0367 20.9632 38.25 23.6835 38.25H24.3173C27.0367 38.25 29.25 36.0367 29.25 33.3165C29.25 32.4937 29.0415 31.677 28.6477 30.954L24 22.434ZM24.3165 36.75H23.6827C21.7905 36.75 20.25 35.2095 20.25 33.3165C20.25 32.7442 20.3947 32.1757 20.6693 31.6725L24 25.566L27.3308 31.6725C27.6053 32.1757 27.75 32.7442 27.75 33.3165C27.75 35.2095 26.2095 36.75 24.3165 36.75Z" fill="black"/>
<path d="M14.25 41.25H33.75V20.25H14.25V41.25ZM15.75 21.75H32.25V39.75H15.75V21.75Z" fill="black"/>
</g>
<defs>
<clipPath id="clip0_31_2134">
<rect width="48" height="48" fill="white"/>
</clipPath>
</defs>
</svg>
