<svg width="48" height="48" viewBox="0 0 48 48" fill="none" xmlns="http://www.w3.org/2000/svg">
<g clip-path="url(#clip0_31_2193)">
<g clip-path="url(#clip1_31_2193)">
<path d="M33.279 28.9342C32.1135 28.1887 30.7335 27.75 29.25 27.75C28.9522 27.75 28.6605 27.7725 28.3717 27.8063C27.918 27.7703 27.4575 27.75 27 27.75H9.91275C6.5145 27.75 3.75 30.5152 3.75 33.9127V36.5873C3.75 38.7255 4.833 40.6792 6.64725 41.8132C7.62675 42.426 8.75625 42.75 9.91275 42.75H44.1278L43.9642 41.8635C42.8918 36.0488 38.799 31.0987 33.279 28.9342ZM35.25 35.25C35.25 38.5582 32.5583 41.25 29.25 41.25C25.9417 41.25 23.25 38.5582 23.25 35.25C23.25 31.9418 25.9417 29.25 29.25 29.25C32.5583 29.25 35.25 31.9418 35.25 35.25ZM24.7695 29.25C23.8088 29.97 23.0273 30.912 22.5 32.0025C21.9727 30.912 21.192 29.97 20.2305 29.25H24.7695ZM15.75 41.25C12.4418 41.25 9.75 38.5582 9.75 35.25C9.75 31.9418 12.4418 29.25 15.75 29.25C19.0582 29.25 21.75 31.9418 21.75 35.25C21.75 38.5582 19.0582 41.25 15.75 41.25ZM9.91275 41.25C9.0375 41.25 8.184 41.0055 7.44225 40.542C6.06975 39.6832 5.25 38.205 5.25 36.5873V33.9127C5.25 31.3417 7.34175 29.25 9.91275 29.25H11.2695C9.441 30.6188 8.25 32.7952 8.25 35.25C8.25 37.7048 9.441 39.8813 11.2695 41.25H9.91275ZM20.2305 41.25C21.1912 40.53 21.9727 39.588 22.5 38.4975C23.0273 39.588 23.808 40.5308 24.7695 41.25H20.2305ZM33.7305 41.25C35.559 39.8813 36.75 37.7048 36.75 35.25C36.75 34.1355 36.4987 33.081 36.0615 32.13C39.138 34.3103 41.3895 37.5577 42.2992 41.25H33.7305Z" fill="black"/>
<path d="M27 24.75H9.91275C4.86 24.75 0.75 28.86 0.75 33.9127V36.5873C0.75 39.7673 2.3595 42.6712 5.0565 44.3565C6.5145 45.2677 8.19375 45.75 9.91275 45.75H47.25V45C47.25 33.834 38.166 24.75 27 24.75ZM9.91275 44.25C8.475 44.25 7.071 43.8472 5.8515 43.0852C3.59625 41.6752 2.25 39.2468 2.25 36.5873V33.9127C2.25 29.6872 5.68725 26.25 9.91275 26.25H27C37.0875 26.25 45.3405 34.2577 45.735 44.25H9.91275Z" fill="black"/>
<path d="M29.25 38.25V36.75C28.4227 36.75 27.75 36.0773 27.75 35.25C27.75 34.4227 28.4227 33.75 29.25 33.75C30.0773 33.75 30.75 34.4227 30.75 35.25H32.25C32.25 33.5955 30.9045 32.25 29.25 32.25C27.5955 32.25 26.25 33.5955 26.25 35.25C26.25 36.9045 27.5955 38.25 29.25 38.25Z" fill="black"/>
<path d="M15.75 32.25C14.0955 32.25 12.75 33.5955 12.75 35.25C12.75 36.9045 14.0955 38.25 15.75 38.25V36.75C14.9227 36.75 14.25 36.0773 14.25 35.25C14.25 34.4227 14.9227 33.75 15.75 33.75C16.5773 33.75 17.25 34.4227 17.25 35.25H18.75C18.75 33.5955 17.4045 32.25 15.75 32.25Z" fill="black"/>
<path d="M38.0872 5.25H20.9999C20.5424 5.25 20.0842 5.271 19.6349 5.307C19.3439 5.2725 19.0499 5.25 18.7499 5.25C17.2664 5.25 15.8864 5.688 14.7217 6.43425C9.20094 8.598 5.10744 13.5488 4.03569 19.3635L3.87219 20.25H38.0872C39.2437 20.25 40.3724 19.926 41.3527 19.3132C43.1669 18.1792 44.2499 16.2255 44.2499 14.0873V11.4128C44.2499 8.01525 41.4854 5.25 38.0872 5.25ZM38.2499 12.75C38.2499 16.0582 35.5582 18.75 32.2499 18.75C28.9417 18.75 26.2499 16.0582 26.2499 12.75C26.2499 9.44175 28.9417 6.75 32.2499 6.75C35.5582 6.75 38.2499 9.44175 38.2499 12.75ZM27.7694 6.75C26.8087 7.47 26.0272 8.412 25.4999 9.5025C24.9727 8.412 24.1919 7.47 23.2304 6.75H27.7694ZM24.7499 12.75C24.7499 16.0582 22.0582 18.75 18.7499 18.75C15.4417 18.75 12.7499 16.0582 12.7499 12.75C12.7499 9.44175 15.4417 6.75 18.7499 6.75C22.0582 6.75 24.7499 9.44175 24.7499 12.75ZM5.70144 18.75C6.61044 15.057 8.86194 11.8095 11.9392 9.62925C11.5012 10.581 11.2499 11.6355 11.2499 12.75C11.2499 15.2048 12.4409 17.3813 14.2694 18.75H5.70144ZM23.2304 18.75C24.1912 18.03 24.9727 17.088 25.4999 15.9975C26.0272 17.088 26.8079 18.0308 27.7694 18.75H23.2304ZM42.7499 14.0873C42.7499 15.705 41.9302 17.1833 40.5584 18.0413C39.8159 18.5055 38.9624 18.75 38.0872 18.75H36.7304C38.5589 17.3813 39.7499 15.2048 39.7499 12.75C39.7499 10.2952 38.5589 8.11875 36.7304 6.75H38.0872C40.6582 6.75 42.7499 8.84175 42.7499 11.4128V14.0873Z" fill="black"/>
<path d="M38.0872 2.25H21C9.834 2.25 0.75 11.334 0.75 22.5V23.25H38.0872C39.8063 23.25 41.4855 22.7677 42.9435 21.8573C45.6405 20.172 47.25 17.2673 47.25 14.0873V11.4128C47.25 6.36 43.14 2.25 38.0872 2.25ZM45.75 14.0873C45.75 16.7468 44.4038 19.1753 42.1485 20.5853C40.929 21.3472 39.525 21.75 38.0872 21.75H2.265C2.6595 11.7577 10.9125 3.75 21 3.75H38.0872C42.3128 3.75 45.75 7.18725 45.75 11.4128V14.0873Z" fill="black"/>
<path d="M18.75 11.25C19.5773 11.25 20.25 11.9227 20.25 12.75C20.25 13.5773 19.5773 14.25 18.75 14.25V15.75C20.4045 15.75 21.75 14.4045 21.75 12.75C21.75 11.0955 20.4045 9.75 18.75 9.75C17.0955 9.75 15.75 11.0955 15.75 12.75H17.25C17.25 11.9227 17.9227 11.25 18.75 11.25Z" fill="black"/>
<path d="M32.25 11.25C33.0773 11.25 33.75 11.9227 33.75 12.75C33.75 13.5773 33.0773 14.25 32.25 14.25V15.75C33.9045 15.75 35.25 14.4045 35.25 12.75C35.25 11.0955 33.9045 9.75 32.25 9.75C30.5955 9.75 29.25 11.0955 29.25 12.75H30.75C30.75 11.9227 31.4227 11.25 32.25 11.25Z" fill="black"/>
</g>
</g>
<defs>
<clipPath id="clip0_31_2193">
<rect width="48" height="48" fill="white"/>
</clipPath>
<clipPath id="clip1_31_2193">
<rect width="48" height="48" fill="white"/>
</clipPath>
</defs>
</svg>
