<svg width="48" height="48" viewBox="0 0 48 48" fill="none" xmlns="http://www.w3.org/2000/svg">
<path d="M40.5 20.25H26.25V18.75H27.4245L31.1385 12.5595C31.8653 11.3483 32.25 9.96075 32.25 8.54775C32.25 4.248 28.752 0.75 24.4523 0.75H23.5485C19.248 0.75 15.75 4.248 15.75 8.54775C15.75 9.96075 16.1348 11.3482 16.8608 12.5602L20.5755 18.75H21.75V20.25H7.5C6.2595 20.25 5.25 21.2595 5.25 22.5V45C5.25 46.2405 6.2595 47.25 7.5 47.25H40.5C41.7405 47.25 42.75 46.2405 42.75 45V22.5C42.75 21.2595 41.7405 20.25 40.5 20.25ZM27.75 45.75H24.75V38.25H29.25V33.75H32.25V27.75H26.25V24.75H38.25V32.25H35.25V36.75H32.25V41.25H27.75V45.75ZM30.75 8.54775C30.75 9.051 30.6795 9.5475 30.5618 10.032C27.9923 9.03675 26.25 6.54975 26.25 3.75V2.51475C28.8487 3.291 30.75 5.7 30.75 8.54775ZM21.75 2.51475V3.75C21.75 6.54975 20.0077 9.03675 17.4382 10.032C17.3205 9.5475 17.25 9.051 17.25 8.54775C17.25 5.7 19.1512 3.291 21.75 2.51475ZM18.147 11.7885C18.0787 11.6745 18.0277 11.553 17.967 11.436C21.1155 10.221 23.25 7.1775 23.25 3.75V2.265C23.3498 2.2605 23.4473 2.25 23.5477 2.25H24.4515C24.5528 2.25 24.6502 2.2605 24.75 2.265V3.75C24.75 7.1775 26.8845 10.221 30.033 11.4352C29.9722 11.5522 29.9213 11.6737 29.853 11.7878L26.5755 17.25H21.4252L18.147 11.7885ZM24.75 18.75V27.75H23.25V18.75H24.75ZM21.75 27.75H18.75V24.75H21.75V27.75ZM6.75 45V22.5C6.75 22.0868 7.086 21.75 7.5 21.75H21.75V23.25H17.25V29.25H30.75V32.25H27.75V36.75H23.25V45.75H7.5C7.086 45.75 6.75 45.414 6.75 45ZM41.25 45C41.25 45.414 40.914 45.75 40.5 45.75H29.25V42.75H33.75V38.25H36.75V33.75H39.75V23.25H26.25V21.75H40.5C40.914 21.75 41.25 22.0868 41.25 22.5V45Z" fill="black"/>
<path d="M8.25 29.25H15.75V23.25H8.25V29.25ZM9.75 24.75H14.25V27.75H9.75V24.75Z" fill="black"/>
<path d="M8.25 44.25H14.25V30.75H8.25V44.25ZM9.75 42.75V41.25H12.75V42.75H9.75ZM12.75 38.25V39.75H9.75V38.25H12.75ZM9.75 36.75V35.25H12.75V36.75H9.75ZM12.75 32.25V33.75H9.75V32.25H12.75Z" fill="black"/>
</svg>
