<svg xmlns="http://www.w3.org/2000/svg" viewBox="0 0 800 480" role="img" aria-labelledby="title desc">
  <title id="title">Карта розташування PartsON і навколишніх вулиць у Львові</title>
  <desc id="desc">Магазин PartsON, Львів, вулиця Перфецького, 8</desc>
  <defs>
    <linearGradient id="bg" x1="0" y1="0" x2="1" y2="1"><stop stop-color="#eaf7f5"/><stop offset="1" stop-color="#dceeff"/></linearGradient>
    <filter id="shadow" x="-50%" y="-50%" width="200%" height="200%"><feDropShadow dx="0" dy="8" stdDeviation="8" flood-color="#075985" flood-opacity=".28"/></filter>
  </defs>
  <rect width="800" height="480" fill="url(#bg)"/>
  <g fill="#cae7dc" opacity=".72"><path d="M0 0h220l-35 96-93 38L0 110z"/><path d="M620 0h180v145l-86-22-76-57z"/><path d="M0 360l135-44 85 53-25 111H0z"/><path d="M615 350l185-74v204H650z"/></g>
  <g fill="none" stroke-linecap="round">
    <path d="M-30 405C135 310 270 330 420 218S680 120 835 28" stroke="#fff" stroke-width="54"/>
    <path d="M-30 405C135 310 270 330 420 218S680 120 835 28" stroke="#b9cbd8" stroke-width="4"/>
    <path d="M90-20c48 118 103 183 207 245s190 108 250 275" stroke="#fff" stroke-width="34"/>
    <path d="M90-20c48 118 103 183 207 245s190 108 250 275" stroke="#c5d5df" stroke-width="3"/>
    <path d="M-20 155c150 22 243 8 341-21s218-12 499 85" stroke="#fff" stroke-width="24"/>
    <path d="M-20 155c150 22 243 8 341-21s218-12 499 85" stroke="#cbd8df" stroke-width="2"/>
    <path d="M195 500c30-113 73-199 168-249 84-44 180-55 291-47" stroke="#fff" stroke-width="20"/>
  </g>
  <g font-family="Arial,sans-serif" font-size="18" font-weight="700" fill="#64748b"><text x="45" y="138">Львів</text><text x="472" y="126" transform="rotate(-25 472 126)">вул. Кульпарківська</text><text x="285" y="372" transform="rotate(-48 285 372)">вул. Перфецького</text></g>
</svg>
