<?xml version="1.0" encoding="UTF-8" standalone="no"?>
<svg
   xmlns:dc="http://purl.org/dc/elements/1.1/"
   xmlns:cc="http://creativecommons.org/ns#"
   xmlns:rdf="http://www.w3.org/1999/02/22-rdf-syntax-ns#"
   xmlns:svg="http://www.w3.org/2000/svg"
   xmlns="http://www.w3.org/2000/svg"
   xmlns:sodipodi="http://sodipodi.sourceforge.net/DTD/sodipodi-0.dtd"
   xmlns:inkscape="http://www.inkscape.org/namespaces/inkscape"
   viewBox="0 0 574.33112 103.65481"
   height="103.65481"
   width="574.33112"
   xml:space="preserve"
   id="svg2"
   version="1.1"
   inkscape:version="0.48.5 r10040"
   sodipodi:docname="Akebono.svg"><sodipodi:namedview
     pagecolor="#ffffff"
     bordercolor="#666666"
     borderopacity="1"
     objecttolerance="10"
     gridtolerance="10"
     guidetolerance="10"
     inkscape:pageopacity="0"
     inkscape:pageshadow="2"
     inkscape:window-width="1280"
     inkscape:window-height="972"
     id="namedview17"
     showgrid="false"
     fit-margin-top="5"
     fit-margin-bottom="5"
     fit-margin-right="5"
     fit-margin-left="5"
     inkscape:zoom="1"
     inkscape:cx="436.64844"
     inkscape:cy="164.28415"
     inkscape:window-x="-8"
     inkscape:window-y="-8"
     inkscape:window-maximized="1"
     inkscape:current-layer="g12" /><metadata
     id="metadata8"><rdf:RDF><cc:Work
         rdf:about=""><dc:format>image/svg+xml</dc:format><dc:type
           rdf:resource="http://purl.org/dc/dcmitype/StillImage" /><dc:title></dc:title></cc:Work></rdf:RDF></metadata><defs
     id="defs6" /><g
     transform="matrix(1.3333333,0,0,-1.3333333,307.31511,68.703996)"
     id="g10"><g
       transform="scale(0.1,0.1)"
       id="g12"><path
         id="path16"
         style="fill:#0068b5;fill-opacity:1;fill-rule:evenodd;stroke:none"
         d="m -1479.4004,320.1832 c -63.0388,-49.51391 -56.2836,-94.54844 -51.7873,-112.56225 13.5199,-36.01559 49.5403,-56.27149 96.8097,-56.27149 h 211.6262 c 6.7552,0 22.5125,0 24.7714,-27.01591 0,-2.25895 0,-195.868906 0,-195.868906 h 92.2943 V 126.58046 c 0,47.28145 -31.5145,117.06811 -117.0657,117.06811 0,0 -189.1137,0 -202.6217,0 v 2.26377 l 213.8828,157.5727 -56.2836,74.29494 -211.6261,-157.59678"
         inkscape:connector-curvature="0" /><path
         id="path18"
         style="fill:#0068b5;fill-opacity:1;fill-rule:evenodd;stroke:none"
         d="m -1652.7473,473.27653 h 94.5509 V -4.0004147 h -94.5509 V 473.27653"
         inkscape:connector-curvature="0" /><path
         id="path20"
         style="fill:#0068b5;fill-opacity:1;fill-rule:evenodd;stroke:none"
         d="M -610.39291,475.54029 H -1038.1415 V 45.537571 c 0,-4.505861 0,-51.787304 33.7711,-85.551162 15.75726,-13.507952 40.52625,-31.521765 83.30183,-31.521765 h 225.1245 v 92.303934 h -225.1245 c -6.76481,0 -22.52208,0 -24.76899,27.015903 0,0 0,234.131409 0,335.447059 72.0408,0 335.44465,0 335.44465,0 9.01173,0 24.769,0 24.769,-24.75695 v -90.06906 c 0,-6.74314 0,-22.49319 -24.769,-24.75696 -4.49622,0 -263.40385,0 -263.40385,0 V 151.34946 H -608.146 c 47.28145,0 117.07534,33.76386 117.07534,117.05607 v 92.30875 c -2.25895,47.27422 -33.77349,117.0657 -119.32225,114.82601"
         inkscape:connector-curvature="0" /><path
         id="path22"
         style="fill:#0068b5;fill-opacity:1;fill-rule:evenodd;stroke:none"
         d="m -425.78504,473.27653 v -90.04499 c 0,-6.74313 2.25895,-40.50699 27.01831,-67.5518 11.25141,-11.24659 31.51454,-24.75695 63.02908,-24.75695 H 6.4790463 c 24.7569517,0 24.7569517,-15.75004 24.7569517,-22.51726 0,0 0,-218.37173 0,-220.621049 0,-27.015903 -18.013813,-27.015903 -24.7569517,-27.015903 0,0 -310.6925163,0 -312.9418363,0 -27.01831,2.256544 -27.01831,20.263132 -27.01831,24.768993 V 198.62127 h -94.55085 V 45.537571 c 0,-85.551162 72.04081,-117.072927 119.31984,-117.072927 H 6.4790463 c 85.5415297,0 117.0657037,69.7914845 117.0657037,117.072927 V 268.40553 c 0,40.53108 -15.77413,67.5518 -31.524174,81.06216 -33.763858,33.76385 -81.038076,33.76385 -85.5415297,33.76385 0,0 -333.2049663,0 -337.7108263,0 0,4.50346 0,90.04499 0,90.04499 h -94.55326"
         inkscape:connector-curvature="0" /><path
         id="path24"
         style="fill:#0068b5;fill-opacity:1;fill-rule:evenodd;stroke:none"
         d="M 801.18204,477.77998 V 151.34946 h 92.30875 c 0,0 0,168.83374 0,234.14585 72.03117,0 333.20741,0 335.44701,0 27.0208,-2.26377 27.0208,-18.01381 27.0208,-24.78103 V -69.288446 h 92.2846 V 360.71428 c 0,85.56561 -69.7674,117.0657 -117.0657,117.0657 H 801.18204"
         inkscape:connector-curvature="0" /><path
         id="path26"
         style="fill:#0068b5;fill-opacity:1;fill-rule:evenodd;stroke:none"
         d="M 233.84323,475.54029 H 188.83278 V 50.0338 c 0,-6.75518 0,-56.283533 36.00354,-92.303934 20.27758,-20.263132 47.2983,-31.51454 81.06216,-31.51454 h 317.43325 c 47.27422,2.249318 114.82602,36.020401 114.82602,119.322245 V 360.71428 c 0,4.50345 0,49.53798 -33.78794,81.03807 -13.51036,15.77413 -40.507,33.78794 -83.30185,33.78794 z m 387.22473,-92.30875 c 9.03099,0 24.78104,0 24.78104,-22.51726 0,-2.23969 0,-315.176709 0,-315.176709 0,-4.505861 0,-24.768993 -27.02072,-27.018311 -4.50345,0 -312.9298,0 -312.9298,0 -24.78103,0 -24.78103,22.51245 -24.78103,31.51454 0,0 0,261.16657 0,333.19774 72.05525,0 339.95051,0 339.95051,0"
         inkscape:connector-curvature="0" /><path
         id="path28"
         style="fill:#0068b5;fill-opacity:1;fill-rule:evenodd;stroke:none"
         d="m 1460.8296,475.54029 h -47.2742 V 50.0338 c 0,-67.534941 56.2811,-123.818474 123.8088,-123.818474 h 303.9229 c 67.5518,0 123.8329,56.283533 123.8329,123.818474 v 303.93734 c 0,67.52772 -56.2811,121.56915 -123.8329,121.56915 z m 380.4575,-92.30875 c 15.7741,0 31.5242,-13.51036 31.5242,-29.2604 V 50.0338 c 0,-15.75727 -15.7501,-29.265222 -31.5242,-29.265222 h -303.9229 c -18.0138,0 -31.5242,13.507952 -31.5242,29.265222 0,0 0,261.16657 0,333.19774 72.0553,0 335.4471,0 335.4471,0"
         inkscape:connector-curvature="0" /><path
         id="path30"
         style="fill:#0068b5;fill-opacity:1;fill-rule:evenodd;stroke:none"
         d="m -1837.3648,475.54029 v 0 h -355.7005 v -92.30875 h 355.7005 c 24.769,0 24.769,-15.75004 24.769,-22.51726 0,0 0,-310.68048 0,-312.929799 0,-27.015903 -18.0066,-27.015903 -24.769,-27.015903 0,0 -310.6756,0 -312.925,0 -22.5124,2.256544 -22.5124,18.00418 -22.5124,24.768993 v 81.042889 c 0,27.00868 15.7573,27.00868 22.5124,27.00868 h 267.9098 v 92.3232 h -267.9098 c -42.7755,0 -67.5445,-18.01381 -81.0428,-31.52417 -33.7731,-36.03003 -36.0308,-83.30184 -36.0308,-90.05462 V 45.537571 c 0,-85.551162 69.7922,-117.072927 114.8171,-117.072927 h 315.1815 c 85.5584,0 117.073,69.7914845 117.073,117.072927 V 360.71428 c 0,40.53108 -15.7573,67.5518 -31.5146,81.03807 -33.7735,33.78794 -81.0525,33.78794 -85.5584,33.78794"
         inkscape:connector-curvature="0" /><path
         id="path32"
         style="fill:#ee1b29;fill-opacity:1;fill-rule:evenodd;stroke:none"
         d="m -2265.1057,-148.08443 h 4225.7223 v -76.54666 h -4225.7223 v 76.54666"
         inkscape:connector-curvature="0" /></g></g></svg>