<svg xmlns="http://www.w3.org/2000/svg" viewBox="0 0 989.1 346.75"><path fill="#ed6e00" d="M954.225 277.822c-50.272.121-100.564-.141-150.856-.02-1.489 0-2.816.523-4.305.523-162.665.4-325.329-.342-487.974-.02l-8.268 9.334c-76.22 85.979-211.227 76.865-274.172-18.85-59.707-90.785-22.43-214.666 77.852-255.725 82.66-33.837 178.155.04 219.495 78.637 27.218 51.761 26.353 116.476-2.6 167.312l630.823-.966ZM92.702 77.659H38.648L21.267 241.652h32.811l3.624-43.895h15.2l3.38 43.895h33.776L92.682 77.659Zm146.229.483h-28.968v32.308h-11.1v17.361h11.1v97.667c0 9.837 9.938 18.568 19.554 18.568h23.9v-19.775c-5.11 1.086-14.484-1.589-14.484-7.966v-88.514h13.76l.724-.724V110.43h-14.486V78.122Zm81.835 33.515c-5.794-3.822-7.423-3.158-14-3.621-9.214-.624-27.48-1.871-35.1 3.4-6.92 4.788-9.012 10.722-9.555 19.01-1.951 29.773 1.489 61.658.02 91.652.925 13.478 7.765 21.082 21.445 21.968a227 227 0 0 0 23.7 0c15.611-.865 22.028-8.027 22.933-23.4 1.69-28.988-1.308-59.606-.02-88.776-.724-8.208-2.253-15.55-9.395-20.278Zm-169.664-1.207h-28.969v116.979c0 2.816 2.434 10.38 4.164 12.653 5.069 6.719 21.344 3.319 27.942.141 1.67-.8 5.23-2.857 6.015-4.365.785-.141.443.644.483 1.187.08 1.529-.06 3.078 0 4.587h28.965V110.45h-28.965v110.7c0 3.4-4.506 4.848-7.383 4a9.6 9.6 0 0 1-2.273-2.072V110.45Z"/><path fill="#2905a1" d="M605.742 77.659v37.618c3.118-1.167 5.814-3.641 8.831-4.909 5.673-2.354 17.884-3.842 23.175-.322 3.1 2.052 6.6 9.656 6.6 13.2v117.923H615.86V129.5a10.4 10.4 0 0 0-2.153-2.676 7.85 7.85 0 0 0-5.13-.241 11.2 11.2 0 0 0-2.877 2.434v112.152h-28.484V77.659h28.485Zm348.483 149.288c-2.193 20.64-22.792 16.576-37.9 16.617-1.247 0-2.434.523-3.822.523-13.016.08-23.3-2.7-25.387-17.119v-99.4c.644-10.541 7.966-18.628 18.588-19.533a226 226 0 0 1 30.437 0c6.1.563 13.5 5.432 16.013 11.024a41 41 0 0 1 2.071 6.619v56.67h-38.6v41.722a7.4 7.4 0 0 0 2.233 2.6c3.681 1.931 5.391-.764 7.906-2.354v-28.953h28.481v31.6ZM915.6 127.569v40.274h10.135v-39.791c0-1.368-3.722-3.078-5.09-3.158-1.604-.101-4.622 1.184-5.045 2.675m-130.798 54.758h-38.6v42.205c0 1.509 3.5 2.816 5.029 2.635 1.73-.2 5.11-2.132 5.11-4.084v-27.74h28.485v29.672c0 6.96-4.245 14.544-10.763 17.22-6.136 2.515-19.453 1.308-26.675 1.328-2.233 0-4.667.583-7.242.523-11.949-.241-21.445-4.426-22.43-17.6-2.374-31.583 1.831-66.064 0-97.969 0-10.461 7.463-19.513 18.105-20.5a227 227 0 0 1 30.94 0c9.133.825 18.085 9.737 18.085 19.071v55.221Zm-28.466-14.484v-39.308c0-2.555-5.814-4.506-8.348-3.038a11.3 11.3 0 0 0-1.79 2.072v40.274ZM479.77 182.327h-38.6v41.722c0 1.428 3 3.239 4.567 3.178 1.428-.06 5.552-2.354 5.552-3.661v-28.223h28.481c-.382 8.972.5 18.347 0 27.278s-2.173 15.832-10.783 19.614c-5.713 2.515-20.217 1.308-27.138 1.328-2.253 0-4.647.583-7.242.523-11.688-.262-19.875-4.486-21.947-16.657v-99.88c.5-9.9 7.564-18.447 17.622-19.513 7.363-.785 23.939-.7 31.4 0 10.179.925 18.085 10.481 18.085 20.519v53.772Zm-38.6-54.758v40.274h10.139v-39.788c0-1.589-4.064-3.118-5.552-3.178-1.574-.064-4.29 1.003-4.591 2.692Zm120.657 100.826c-.241 2.193-1.931 7.5-3.2 9.354-5.351 7.886-26.031 5.834-34.722 5.834-1.247 0-2.434.523-3.822.523-14.907 0-24.241-3.742-25.387-20.016 1.509-31.322-1.951-64.434 0-95.555.644-10.28 4.144-19.252 15.711-20.479 8.248-.885 25.89-.7 34.279 0 6.236.523 11.748 3.239 14.866 8.771a26 26 0 0 1 2.233 5.955v32.063h-28v-26.29a24 24 0 0 0-2.575-2.957c-3.561-1.629-7.242-.644-8.007 3.48l.075 94.867a5.41 5.41 0 0 0 7.1 3c.8-.282 3.4-2.615 3.4-3.36v-28.222h28v33.032ZM416.543 78.142v17.844h-20.258v145.183h-33.8V95.986h-20.254V78.142Zm277.049.483v31.845h14.484v16.878h-14.484v88.514a19.1 19.1 0 0 0 2.414 5.311 29 29 0 0 0 4.587 3.138h7.483v19.775c-6.176-.241-12.432.322-18.608 0-12.654-.624-22.893-4.225-23.9-18.568l.04-96.521-.744-1.67h-10.862V110.45h11.587V78.605h28Zm149.608-.483h28.485v163.027H843.2zm-43.432 32.308h28.485v130.719h-28.485zM625.053 291.823l14.243 32.33 13.277-32.328h16.415l-3.661.925c-4.546 1.77-1.931 10.058-1.67 13.78.664 8.872.664 19.171 2.052 27.862.684 4.345 2.052 3.923 5.049 5.552.563.3.8 0 .624 1.086h-22.209l4.365-2.615c2.917-3.138.724-10.058.463-14.021-.483-7.061-1.086-14.162-1.448-21.223-.04-.744.463-1.891-.724-1.69l-16.415 39.55-17.6-38.1c-.905 4.365-.624 8.892-.966 13.257-.463 5.653-2.354 14.886-.825 20.117.885 3.038 2.193 2.977 4.949 3.742.785.221 1.428-.523 1.187.966h-16.9l4.607-2.877 2.032-4.245 4.023-35.587-3.943-4.305-4.79-2.196h17.864Zm-43.191 0c.543.08 3.561 1.207 4.285 1.509 10.6 4.627 9.274 19.191-1.831 22.088l-.282.986a4.3 4.3 0 0 1 2.032 1.006c5.532 4.909 9.9 18.668 15.007 21.766 1.066.664 3.038.5 2.756 1.831h-15.69c-3.661-4.687-9.193-21.827-15.088-23.014a34 34 0 0 0-4.929-.141v18.568a15 15 0 0 0 1.67 2.676c.905.744 1.951.664 2.937.945.785.221 1.408-.5 1.187.966h-22.692c-.382-1.609 1.428-.764 2.535-1.086 2.474-.7 3.038-1.891 3.279-4.446 1.147-12.533-.885-26.816-.06-39.55l-1.288-2.716-4.486-1.428h30.638Zm-13.76 23.154c4.446.2 8.751.282 11.829-3.38s3.561-11.628-.483-14.967a39 39 0 0 0-4.345-2.394h-7Zm173.991-23.154c8.288 7.946 15.631 16.858 23.617 25.106 1.288 1.328 4.365 4.607 5.572 5.532.483.362.6.925 1.448.724v-23.4a14.8 14.8 0 0 0-2.092-5.391l-5.633-2.575h16.9l-4.1 1.931a22.3 22.3 0 0 0-2.173 3.138v44.619c-1.79-.5-3.319-2.293-4.607-3.581-5.25-5.23-10.058-11.044-15.148-16.456l-17.864-18.065v31.121a27 27 0 0 0 1.247 2.615c1.428 2.273 2.635 2.213 4.868 2.877.8.241 1.348-.382 1.127 1.026h-17.867c-.241-1.489.4-.764 1.187-.966 3.883-1.046 5.432-1.811 6.518-6.055l.06-33.756-5.854-5.733-5.271-2.7h18.105Zm-233.355 27.479c-.563 1.328-2.434 1.368-3.359 2.193-2.9 2.635-.8 12.674-1.529 16.556-8.53 3.158-20.217 4.365-29.008 1.851-27.1-7.805-21.1-52.284 12.835-48.522 3.178.362 11.346 3.359 13.539 1.831 1.086-.764.181-2.213 1.71-1.891v13.5c-1.328.221-1.267-1.911-2.012-3.058-6.82-10.521-23.959-12.332-29.371.382-5.25 12.332-3.641 37.136 14.243 36.955 5.572-.06 7.041-1.69 7.483-7.041.221-2.857.262-9.113-2.173-10.843l-3.138-1.931h20.761Zm291.03-246.471h28.485v27.017h-28.485zM673.314 341.009c-.2-1.127.081-.764.624-1.066 5.693-3.2 5.935-5.029 8.288-11 4.888-12.452 8.409-25.569 13.378-38h6.136l17.361 44.619c1.77 3.279 2.635 3.1 5.774 4.385.724.3 1.308-.3 1.066 1.086h-23.176c-.262-1.71 2.716-.945 3.722-1.589a4.64 4.64 0 0 0 1.147-2.977c-.1-4.1-4.2-9.978-4.909-14.2l-15.369-.04c-.241 4.124-6.417 12.875-3.2 16.415.845.925 1.629.885 2.6 1.287.7.3 1.308-.3 1.066 1.086h-14.488Zm28-21.706-6.518-16.4-6.035 16.4Zm-154.938-27.48v10.622l-2.736-6.136a29 29 0 0 0-2.334-2.052h-13.76v20.74h11.35a14.4 14.4 0 0 0 2.374-1.489l2.7-4.305v13.981l-1.911-3.138a33 33 0 0 0-2.655-2.153h-11.837v15.19c0 7.1 12.835 6.639 16.918 3.4l3.822-7.021-.483 11.567h-37.155c-.382-1.549 1.73-.845 2.937-1.167 2.414-.664 3-2.072 3.279-4.426 1.066-8.851.744-27.922.081-37.116-.181-2.414-.5-5.17-3.279-5.894-.945-.241-2.8.322-3.018-.6h35.707Zm261.6 0-3.36 1.227c-1.469 1.227-.624 2.7.04 4.164.845 1.891 7.805 11.547 9.395 13.378.382.443.684 1.106 1.408 1.006 1.69-3.621 10.38-13.136 9.173-16.858a12 12 0 0 0-1.408-1.992c-1.066-.764-2.454.04-2.7-.925h18.352l-5.25 1.75c-6.84 3.219-11.748 14.866-16.375 20.781.422 6.679-.966 14.987.02 21.485.523 3.46 1.549 3.42 4.486 4.225.785.221 1.408-.5 1.187.966h-22.693c-.241-1.489.4-.764 1.187-.966 1.287-.342 2.414-.241 3.44-1.408 3.158-3.52 1.086-16.536 1.549-21.4l-17.5-23.034-5.09-2.394h24.14ZM981.544 80.737c11.064 7.182 9.716 24.744-2.293 30.376-16.114 7.564-31.925-10.9-21.867-25.709 5.11-7.524 16.536-9.6 24.14-4.667Zm-1.931 1.931a14.876 14.876 0 0 0-20.58 5.331c-7.162 12.734 5.794 26.635 19.171 20.6 10.34-4.667 11.024-20.1 1.408-25.951Z"/><path fill="#fff" d="m92.697 77.659 17.386 163.992H76.307l-3.38-43.892H57.719l-3.622 43.892h-32.83L38.648 77.659ZM58.423 179.913h13.035l-5.793-81.514h-1.449Zm262.344-68.254c7.141 4.727 8.65 12.07 9.395 20.278-1.287 29.149 1.73 59.787.02 88.776-.905 15.349-7.3 22.531-22.933 23.4a227 227 0 0 1-23.7 0c-13.679-.885-20.519-8.509-21.445-21.968 1.469-29.994-1.971-61.879-.02-91.652.543-8.288 2.635-14.223 9.555-19.01 7.624-5.271 25.89-4.023 35.1-3.4 6.578.443 8.228-.221 14 3.621Zm-20.8 15.47c-2.152-3.058-5.995-2.655-8.167.221v97.406a5.334 5.334 0 0 0 8.67-.483l.282-96.239c.141-.684-.644-.684-.785-.905M151.101 110.45v112.634a9.6 9.6 0 0 0 2.273 2.072c2.877.845 7.383-.6 7.383-4V110.45h28.968v131.2h-28.968c-.06-1.529.08-3.058 0-4.587-.02-.543.322-1.328-.483-1.187-.785 1.509-4.345 3.561-6.015 4.365-6.6 3.178-22.873 6.578-27.942-.141-1.73-2.293-4.164-9.857-4.164-12.653V110.47h28.968Zm87.83-32.308v32.308h14.484v16.636l-.724.724h-13.76v88.514c0 6.377 9.374 9.053 14.484 7.966v19.775h-23.9c-9.616 0-19.554-8.731-19.554-18.568v-97.666h-11.103V110.47h11.1V78.162h28.968Z"/><path fill="#ed6e00" d="M58.423 179.914 64.217 98.4l1.448-.02 5.794 81.533Zm241.542-52.787c.141.2.925.221.785.905l-.282 96.242a5.334 5.334 0 0 1-8.67.483v-97.409c2.193-2.856 6.015-3.274 8.167-.221"/><path fill="#2905a1" d="M972.793 86.33c7.584.845 7.564 8.61.724 10.36 3 2.032 4.365 5.492 6.276 8.429-5.814 1.65-5.21-7.4-9.918-8.167a27 27 0 0 0-3.118-.02v8.208h-2.413V86.33c2.716.221 5.794-.3 8.449 0m-6.035 8.208c2.132-.2 7.785.865 8.61-1.79 1.549-5.029-5.653-4-8.61-4Z"/></svg>
