<svg xmlns="http://www.w3.org/2000/svg" id="Ebene_1" viewBox="0 0 107.96 39.83"><defs><style>.cls-1{fill:#e30613;}.cls-1,.cls-2{stroke-width:0px;}.cls-3{stroke:#e30613;stroke-width:1.7px;}.cls-3,.cls-4{fill:none;}.cls-2{fill:#fff;}.cls-4{stroke:#fff;stroke-width:3.57px;}</style></defs><path class="cls-2" d="M53.98,38.05c-28.82,0-52.19-6.73-52.19-18.13,0-11.4,23.37-18.13,52.19-18.13,28.82,0,52.19,6.73,52.19,18.12,0,11.4-23.37,18.13-52.19,18.13h0Z"></path><path class="cls-4" d="M53.98,38.05c-28.82,0-52.19-6.73-52.19-18.13,0-11.4,23.37-18.13,52.19-18.13,28.82,0,52.19,6.73,52.19,18.12,0,11.4-23.37,18.13-52.19,18.13h0Z"></path><path class="cls-2" d="M53.98,37.78c-28.61,0-51.81-6.63-51.81-17.87,0-11.23,23.19-17.87,51.81-17.88,28.61,0,51.81,6.63,51.81,17.87,0,11.23-23.19,17.87-51.8,17.87h0Z"></path><path class="cls-3" d="M53.98,37.78c-28.61,0-51.81-6.63-51.81-17.87,0-11.23,23.19-17.87,51.81-17.88,28.61,0,51.81,6.63,51.81,17.87,0,11.23-23.19,17.87-51.8,17.87h0Z"></path><path class="cls-1" d="M23.28,27.51c-.55.22-1.94.51-3.29.51-4.31,0-6.27-2.99-6.28-7.71,0-5.02,2.21-8.5,6.48-8.5.87,0,1.94.2,3.08.62v4.03c-.62-.42-1.28-.68-1.89-.68-1.94,0-3.06,1.39-3.06,4.43,0,2.49.84,3.85,2.44,3.85.98,0,1.55-.24,2.51-.81v4.27h0Z"></path><path class="cls-1" d="M30.65,28.02c-4.88,0-6.87-3.57-6.85-8.1.02-4.27,1.82-8.1,6.84-8.1,5.02,0,6.82,3.83,6.85,8.1.02,4.54-1.96,8.1-6.84,8.1h0ZM30.65,23.83c1.41,0,2.37-1.19,2.37-4.03,0-2.84-.96-4.03-2.37-4.03s-2.37,1.19-2.37,4.03c0,2.84.96,4.03,2.37,4.03h0Z"></path><path class="cls-1" d="M38.43,12.08h6.18c4.18,0,5.45,2.51,5.45,5.02,0,1.83-.68,3.35-2.35,4.01l2.9,6.65h-4.47s-2.24-5.55-2.24-5.55h-1.14v5.55s-4.33,0-4.33,0v-15.68h0ZM42.76,18.97c.25.04.5.07.78.07.98,0,1.92-.57,1.92-1.78,0-1.19-.89-1.65-2.01-1.65h-.68v3.37h0Z"></path><polygon class="cls-1" points="53.3 15.73 50.52 15.73 50.52 12.08 60.42 12.07 60.42 15.73 57.64 15.73 57.64 27.75 53.3 27.75 53.3 15.73 53.3 15.73"></polygon><polygon class="cls-1" points="61.33 12.07 69.57 12.07 69.57 15.73 65.67 15.73 65.67 17.97 69.09 17.97 69.09 21.63 65.67 21.63 65.67 24.1 69.61 24.1 69.61 27.75 61.33 27.75 61.33 12.07 61.33 12.07"></polygon><path class="cls-1" d="M79.81,27.51c-.55.22-1.94.51-3.29.51-4.31,0-6.27-2.99-6.27-7.71,0-5.02,2.21-8.5,6.48-8.5.87,0,1.94.2,3.08.62v4.03c-.62-.42-1.28-.68-1.89-.68-1.94,0-3.06,1.39-3.06,4.43,0,2.49.85,3.85,2.44,3.85.98,0,1.55-.24,2.51-.81v4.27h0Z"></path><path class="cls-1" d="M87.2,28.01c-4.88,0-6.87-3.57-6.85-8.1.02-4.27,1.83-8.1,6.84-8.1,5.02,0,6.82,3.83,6.85,8.1.02,4.54-1.96,8.1-6.84,8.1h0ZM87.2,23.83c1.41,0,2.37-1.19,2.37-4.03,0-2.84-.96-4.03-2.37-4.03s-2.37,1.19-2.37,4.03.96,4.03,2.37,4.03h0Z"></path><path class="cls-1" d="M103.1,3.51c1.31,0,2.36,1.07,2.36,2.4s-1.04,2.41-2.37,2.41-2.38-1.06-2.38-2.41,1.07-2.4,2.38-2.4h.01ZM103.09,3.88c-1.05,0-1.92.91-1.92,2.03s.86,2.04,1.93,2.04c1.07.01,1.92-.9,1.92-2.03s-.85-2.04-1.92-2.04h-.01ZM102.64,7.31h-.43v-2.67c.22-.03.44-.06.76-.06.41,0,.67.08.83.2.16.12.24.3.24.55,0,.35-.23.57-.52.65v.02c.23.04.39.26.45.65.06.42.13.58.17.66h-.45c-.06-.09-.13-.33-.18-.68-.06-.34-.23-.47-.57-.47h-.3v1.15ZM102.64,5.82h.31c.35,0,.65-.13.65-.46,0-.23-.17-.47-.65-.47-.14,0-.23.01-.31.02v.91Z"></path></svg>