<?xml version="1.0" encoding="UTF-8" standalone="no"?><!DOCTYPE svg PUBLIC "-//W3C//DTD SVG 1.1//EN" "http://www.w3.org/Graphics/SVG/1.1/DTD/svg11.dtd"><svg width="100%" height="100%" viewBox="0 0 183 91" version="1.1" xmlns="http://www.w3.org/2000/svg" xmlns:xlink="http://www.w3.org/1999/xlink" xml:space="preserve" xmlns:serif="http://www.serif.com/" style="fill-rule:evenodd;clip-rule:evenodd;stroke-linejoin:round;stroke-miterlimit:2;"><rect id="Artboard1" x="0" y="0" width="182.4" height="90.72" style="fill:none;"/><g id="Warstwa-1" serif:id="Warstwa 1"><path d="M59.869,41.172l-0,-0.525c-0,-2.029 -0.671,-3.517 -2.012,-4.462c-1.342,-0.945 -3.471,-1.417 -6.387,-1.417l-12.74,0c-5.459,0 -8.965,0.66 -10.515,1.976c-1.553,1.319 -2.328,4.078 -2.328,8.279l-0,7.242c-0,3.758 0.863,6.336 2.589,7.735c1.727,1.4 5.145,2.099 10.254,2.099l9.241,0c5.062,0 8.38,-0.506 9.956,-1.522c1.574,-1.014 2.362,-2.898 2.362,-5.651l-0,-0.56l16.133,0c-0,0.07 0.012,0.198 0.036,0.384c0.069,1.518 0.104,2.649 0.104,3.396c-0,3.337 -0.42,6.088 -1.259,8.258c-0.841,2.17 -2.159,3.908 -3.955,5.214c-1.704,1.262 -3.972,2.159 -6.808,2.695c-2.834,0.538 -6.993,0.806 -12.475,0.806l-17.779,0c-5.437,0 -9.438,-0.293 -12.003,-0.876c-2.568,-0.583 -4.76,-1.575 -6.581,-2.974c-2.099,-1.657 -3.627,-3.692 -4.583,-6.106c-0.958,-2.416 -1.436,-5.466 -1.436,-9.152l-0,-14.207c-0,-7.467 1.774,-12.675 5.32,-15.628c3.546,-2.95 9.974,-4.425 19.283,-4.425l17.779,-0c5.716,-0 9.927,0.257 12.634,0.769c2.706,0.513 4.84,1.378 6.404,2.589c1.657,1.261 2.875,2.957 3.657,5.091c0.782,2.136 1.172,4.814 1.172,8.034c-0,0.769 -0.006,1.358 -0.017,1.767c-0.012,0.408 -0.041,0.798 -0.088,1.172l-15.958,-0Z" style="fill:#005095;fill-rule:nonzero;"/><path d="M80.272,74.489l25.653,-26.457l-23.728,-25.653l19.878,-0l16.204,18.268l16.343,-18.268l19.178,-0l-22.992,25.653l25.023,26.457l-20.508,-0l-17.044,-18.268l-17.289,18.268l-20.718,-0Z" style="fill:#005095;fill-rule:nonzero;"/><path d="M163.97,24.34l0,2.299l0.84,-0c0.518,-0 0.904,-0.093 1.159,-0.278c0.256,-0.185 0.384,-0.463 0.384,-0.834c0,-0.415 -0.133,-0.714 -0.399,-0.904c-0.266,-0.188 -0.693,-0.283 -1.28,-0.283l-0.704,-0Zm-2.362,-1.48l3.454,-0c1.218,-0 2.142,0.209 2.776,0.63c0.634,0.419 0.951,1.038 0.951,1.858c0,0.567 -0.161,1.054 -0.483,1.459c-0.322,0.405 -0.771,0.694 -1.345,0.862l1.912,3.789l-2.604,-0l-1.617,-3.422l-0.682,-0l0,3.422l-2.362,-0l0,-8.598Zm3.312,-1.944c-0.87,-0 -1.684,0.154 -2.442,0.463c-0.757,0.307 -1.439,0.753 -2.041,1.34c-0.632,0.631 -1.113,1.339 -1.443,2.129c-0.33,0.789 -0.495,1.621 -0.495,2.495c0,0.846 0.155,1.646 0.464,2.399c0.309,0.755 0.765,1.437 1.368,2.044c0.611,0.631 1.309,1.113 2.094,1.447c0.786,0.336 1.611,0.504 2.474,0.504c0.849,-0 1.665,-0.16 2.447,-0.478c0.782,-0.316 1.482,-0.773 2.1,-1.368c0.617,-0.593 1.087,-1.279 1.41,-2.06c0.323,-0.779 0.484,-1.609 0.484,-2.488c0,-0.866 -0.154,-1.683 -0.463,-2.447c-0.309,-0.765 -0.758,-1.446 -1.346,-2.04c-0.625,-0.635 -1.329,-1.118 -2.112,-1.446c-0.782,-0.33 -1.615,-0.494 -2.499,-0.494m-0.006,-1.436c1.093,-0 2.121,0.199 3.087,0.602c0.966,0.404 1.823,0.988 2.573,1.76c0.707,0.727 1.248,1.56 1.622,2.498c0.375,0.937 0.561,1.936 0.561,2.993c0,1.085 -0.197,2.103 -0.593,3.054c-0.395,0.952 -0.971,1.789 -1.726,2.51c-0.764,0.735 -1.621,1.298 -2.573,1.69c-0.952,0.392 -1.935,0.587 -2.951,0.587c-1.056,-0 -2.061,-0.201 -3.012,-0.608c-0.953,-0.406 -1.803,-0.997 -2.551,-1.774c-0.735,-0.757 -1.297,-1.6 -1.686,-2.536c-0.388,-0.935 -0.583,-1.909 -0.583,-2.923c-0,-1.057 0.207,-2.072 0.62,-3.047c0.414,-0.971 1.004,-1.836 1.774,-2.592c0.735,-0.728 1.564,-1.28 2.489,-1.653c0.924,-0.376 1.907,-0.561 2.949,-0.561" style="fill:#005095;fill-rule:nonzero;"/><g><path d="M10.386,17.28l0,-7.998l3.621,-0c1.082,-0 1.812,0.188 2.189,0.565c0.377,0.377 0.565,1.105 0.565,2.183c0,1.07 -0.18,1.781 -0.539,2.133c-0.359,0.351 -1.086,0.527 -2.18,0.527l-0.351,0.006l-1.787,0l-0,2.584l-1.518,-0Zm1.518,-3.861l1.728,-0c0.688,-0 1.124,-0.079 1.31,-0.238c0.185,-0.158 0.278,-0.532 0.278,-1.122c0,-0.675 -0.077,-1.094 -0.231,-1.257c-0.155,-0.162 -0.556,-0.243 -1.204,-0.243l-1.881,0l-0,2.86Z" style="fill:#005095;fill-rule:nonzero;"/><path d="M24.53,9.212c1.453,-0 2.389,0.241 2.807,0.723c0.418,0.483 0.627,1.562 0.627,3.238c-0,1.832 -0.21,2.986 -0.63,3.462c-0.42,0.477 -1.437,0.715 -3.05,0.715c-1.453,0 -2.392,-0.235 -2.818,-0.706c-0.426,-0.47 -0.639,-1.507 -0.639,-3.108c0,-1.906 0.209,-3.104 0.627,-3.592c0.418,-0.488 1.443,-0.732 3.076,-0.732Zm-0.117,1.3c-1.02,0 -1.615,0.131 -1.787,0.393c-0.172,0.262 -0.258,1.168 -0.258,2.719c0,1.148 0.101,1.84 0.302,2.074c0.201,0.234 0.794,0.352 1.778,0.352c0.942,-0 1.506,-0.132 1.694,-0.396c0.187,-0.264 0.281,-1.063 0.281,-2.399c-0,-1.34 -0.089,-2.132 -0.267,-2.376c-0.178,-0.245 -0.759,-0.367 -1.743,-0.367Z" style="fill:#005095;fill-rule:nonzero;"/><path d="M33.987,9.282l-0,6.639l3.75,-0l-0,1.359l-5.268,-0l0,-7.998l1.518,-0Z" style="fill:#005095;fill-rule:nonzero;"/><path d="M46.824,15.745l-3.451,-0l-0.498,1.535l-1.606,-0l2.661,-7.998l2.279,-0l2.701,7.998l-1.576,-0l-0.51,-1.535Zm-0.351,-1.119l-1.383,-4.166l-1.36,4.166l2.743,-0Z" style="fill:#005095;fill-rule:nonzero;"/><path d="M60.505,9.282l0,7.998l-2.572,-0l-2.285,-4.389c-0.113,-0.218 -0.291,-0.601 -0.533,-1.148l-0.258,-0.574l-0.252,-0.575l-0.059,0l0.024,0.528l0.017,0.521l0.012,1.049l0,4.588l-1.517,-0l-0,-7.998l2.572,-0l2.08,4.055c0.183,0.359 0.396,0.795 0.639,1.306l0.304,0.651l0.305,0.656l0.053,-0l-0.036,-1.031l-0.011,-1.032l-0,-4.605l1.517,-0Z" style="fill:#005095;fill-rule:nonzero;"/><path d="M65.392,17.28l-0,-7.998l3.931,-0c1.117,-0 1.9,0.244 2.347,0.732c0.447,0.489 0.671,1.344 0.671,2.567c-0,1.996 -0.18,3.278 -0.539,3.846c-0.36,0.569 -1.17,0.853 -2.432,0.853l-3.978,-0Zm1.517,-1.277l2.162,-0c0.727,-0 1.197,-0.167 1.409,-0.501c0.213,-0.334 0.32,-1.072 0.32,-2.212c-0,-1.18 -0.096,-1.93 -0.287,-2.25c-0.192,-0.321 -0.641,-0.481 -1.348,-0.481l-2.256,0l0,5.444Z" style="fill:#005095;fill-rule:nonzero;"/></g></g></svg>