<svg width="129" height="52" viewBox="0 0 129 52" fill="none" xmlns="http://www.w3.org/2000/svg">
<path d="M100.209 30.0064C100.232 30.695 99.8723 31.0538 99.1287 31.0805C98.3851 31.1073 98.005 30.7775 97.9823 30.0889C97.9616 29.4114 98.319 29.0593 99.0626 29.0326C99.8062 29.0036 100.188 29.329 100.209 30.0064Z" fill="#FF662B"/>
<path d="M105.924 29.8612C105.17 30.5342 104.379 30.8863 103.555 30.9153C102.623 30.9509 101.861 30.5877 101.272 29.83C100.814 29.2484 100.574 28.6511 100.553 28.0428C100.549 27.918 100.553 27.8221 100.562 27.7553L101.2 22.1217C101.256 21.5869 101.499 21.0364 101.931 20.4682C102.324 19.9556 102.757 19.5612 103.23 19.2826C103.858 18.9216 104.428 18.73 104.941 18.7121C105.746 18.6832 106.438 18.9439 107.017 19.4988C107.593 20.0537 107.896 20.7668 107.923 21.6359C107.93 21.8164 107.923 21.9813 107.909 22.1284C107.837 22.7969 107.428 23.1468 106.686 23.1735C106.11 23.1958 105.779 23.0265 105.695 22.6677L105.676 22.0749C105.668 21.803 105.558 21.5757 105.352 21.3908C105.145 21.2058 104.916 21.1189 104.662 21.1278C104.43 21.1367 104.174 21.2459 103.895 21.4598C103.586 21.6849 103.418 21.9122 103.394 22.1373L102.795 27.5681C102.77 27.7843 102.861 27.996 103.067 28.2032C103.274 28.4105 103.524 28.5085 103.817 28.4974C104.404 28.4773 104.817 28.1319 105.058 27.4678C105.075 27.3319 105.127 27.1313 105.211 26.8684C105.399 26.5007 105.769 26.3068 106.325 26.2845C106.975 26.26 107.308 26.5073 107.322 27.0266C107.339 27.5235 107.198 28.0495 106.901 28.6021C106.647 29.0901 106.32 29.5069 105.924 29.8612Z" fill="#FF662B"/>
<path d="M114.545 27.2541C114.49 27.7889 114.244 28.3327 113.812 28.892C113.43 29.4157 113.002 29.8102 112.529 30.0754C111.891 30.4386 111.317 30.628 110.805 30.6481C109.873 30.6815 109.113 30.3205 108.522 29.5628C108.064 28.9812 107.824 28.3839 107.803 27.7756C107.799 27.6508 107.803 27.555 107.812 27.4881L108.45 21.8545C108.506 21.3197 108.749 20.7692 109.181 20.201C109.574 19.6884 110.007 19.294 110.48 19.0154C111.108 18.6544 111.678 18.4628 112.191 18.4449C112.412 18.436 112.657 18.4561 112.93 18.5029C113.498 18.5942 114.017 18.933 114.479 19.5213C114.944 20.1096 115.186 20.7135 115.204 21.333C115.206 21.4244 115.2 21.5091 115.182 21.5871L114.545 27.2541ZM112.335 27.2184L112.945 21.7877C112.969 21.5715 112.858 21.3598 112.61 21.1548C112.362 20.9497 112.133 20.8517 111.922 20.8584C111.68 20.8673 111.416 20.9809 111.129 21.2016C110.84 21.4222 110.685 21.6495 110.662 21.8879L110.051 27.2853C110.028 27.5238 110.135 27.7421 110.379 27.9427C110.623 28.1433 110.854 28.2391 111.073 28.2302C111.305 28.2213 111.567 28.1076 111.86 27.887C112.151 27.6686 112.31 27.4458 112.335 27.2184Z" fill="#FF662B"/>
<path d="M126.225 29.3466C126.201 29.5605 126.046 29.7477 125.761 29.9059C125.525 30.0374 125.29 30.1087 125.052 30.1176C124.804 30.1265 124.577 30.0797 124.377 29.975C124.123 29.8502 124.009 29.663 124.032 29.4134L124.932 21.3619C124.955 21.1124 124.848 20.8895 124.61 20.6934C124.373 20.4973 124.137 20.4059 123.906 20.4126C123.685 20.4215 123.427 20.5352 123.127 20.7536C122.828 20.9742 122.664 21.1993 122.642 21.4243L121.72 29.5115C121.696 29.7254 121.539 29.9126 121.252 30.0708C121.016 30.2023 120.772 30.2736 120.522 30.2825C120.293 30.2914 120.072 30.2357 119.859 30.1221C119.593 29.9839 119.473 29.8034 119.498 29.5761L120.415 21.5224C120.448 21.2617 120.347 21.0366 120.109 20.8472C119.874 20.6577 119.634 20.5686 119.392 20.5775C119.161 20.5864 118.907 20.6978 118.63 20.9118C118.323 21.1369 118.157 21.3642 118.133 21.5915L117.207 29.6764C117.182 29.8948 117.027 30.0797 116.738 30.238C116.503 30.3717 116.259 30.443 116.009 30.4519C115.79 30.4608 115.569 30.4051 115.346 30.2914C115.082 30.1533 114.96 29.9728 114.985 29.7455L115.92 21.5736C115.976 21.041 116.22 20.4884 116.652 19.9201C117.044 19.4076 117.478 19.0131 117.951 18.7368C118.579 18.3758 119.149 18.1841 119.661 18.1663C120.541 18.1351 121.256 18.4226 121.809 19.0354C122.604 18.3736 123.389 18.0281 124.164 17.9992C124.383 17.9903 124.631 18.0103 124.905 18.0571C125.474 18.1485 125.99 18.4872 126.455 19.0755C126.919 19.6616 127.161 20.2655 127.18 20.8873C127.184 20.9898 127.18 21.0745 127.171 21.1413L126.225 29.3466Z" fill="#FF662B"/>
<path d="M27.2622 46.8933C27.8446 47.1295 28.0842 47.5841 28.0946 48.1635C28.0966 48.3039 28.0884 48.4354 28.0595 48.6961C27.8963 49.973 27.2146 51.0137 25.618 51.0472L23.5194 51.0895C23.3004 51.094 23.1992 50.9781 23.2405 50.7419L24.2836 43.5216C24.3229 43.2854 24.453 43.165 24.6719 43.1584L26.5413 43.1205C27.886 43.0937 28.3445 43.7333 28.361 44.618C28.3652 44.7829 28.3445 44.9723 28.3073 45.2442C28.1979 45.9529 27.8694 46.5501 27.2622 46.8933ZM25.6304 49.8416C26.4938 49.8237 26.6735 49.3959 26.7602 48.7786C26.8098 48.4354 26.8181 48.3284 26.816 48.2348C26.8057 47.6331 26.4091 47.5106 26.027 47.5195L24.9322 47.5418L24.5914 49.8616L25.6304 49.8416ZM27.0081 45.4581C27.0577 45.1372 27.0659 45.0325 27.0639 44.9389C27.0535 44.4197 26.7582 44.3194 26.4628 44.3238L25.4011 44.3461L25.0995 46.4298L26.1158 46.4097C26.7829 46.3963 26.9193 46.013 27.0081 45.4581Z" fill="#FF662B"/>
<path d="M28.4918 48.507L28.6281 47.5599C28.8616 45.913 29.8076 44.9392 31.0655 44.9147C32.2904 44.8879 32.9286 45.7481 32.7118 47.1231L32.6333 47.6312C32.5155 48.3889 32.3441 48.5337 31.7203 48.5471L29.7291 48.5872L29.6816 48.9437C29.5928 49.512 29.7642 49.8753 30.4975 49.8597L31.8091 49.8329C32.0281 49.8285 32.1169 49.9443 32.0776 50.1806L32.057 50.3098C31.9785 50.8669 31.6108 51.0385 30.4066 51.063C28.7562 51.0987 28.2378 50.2363 28.4918 48.507ZM29.8757 47.5688L31.1998 47.542C31.3857 47.5376 31.4167 47.5019 31.458 47.2657L31.4972 47.005C31.586 46.4144 31.3506 46.1114 30.8796 46.1225C30.355 46.1336 30.0431 46.4456 29.9542 47.0384L29.8757 47.5688Z" fill="#FF662B"/>
<path d="M34.6737 49.1956C34.6634 48.6184 34.7439 48.2017 35.2025 48.1927L35.6941 48.1816C35.88 48.1771 35.9894 48.2574 35.9936 48.4356C35.9977 48.5783 35.9564 48.7566 35.9585 48.8858C35.9688 49.4518 36.258 49.7415 36.7826 49.7304C37.4395 49.717 37.9662 49.2334 37.9559 48.5604C37.9311 47.2033 35.3347 47.5643 35.2996 45.5587C35.2686 43.7781 36.4212 42.7976 37.7452 42.7709C38.9473 42.7441 39.6269 43.3569 39.6455 44.4422C39.6558 45.0082 39.5753 45.445 39.1167 45.4562L38.6251 45.4651C38.4392 45.4695 38.3277 45.4027 38.3256 45.2244C38.3215 45.0595 38.3628 44.8812 38.3607 44.752C38.3504 44.2216 38.0839 43.9653 37.6254 43.9765C36.9789 43.9898 36.5265 44.3887 36.541 45.1665C36.5657 46.5125 39.1601 46.1047 39.1973 48.1459C39.2283 49.8797 38.022 50.907 36.6649 50.936C35.3946 50.9605 34.6943 50.3031 34.6737 49.1956Z" fill="#FF662B"/>
<path d="M39.6199 48.2794L39.7562 47.3323C39.9896 45.6877 40.9356 44.7116 42.1915 44.6871C43.4164 44.6604 44.0547 45.5206 43.8378 46.8956L43.7593 47.4037C43.6415 48.1613 43.4701 48.3084 42.8463 48.3195L40.8572 48.3597L40.8097 48.714C40.7208 49.2823 40.8923 49.6455 41.6256 49.6299L42.9372 49.6032C43.1561 49.5987 43.245 49.7146 43.2057 49.9508L43.1871 50.08C43.1086 50.6372 42.741 50.8088 41.5367 50.8333C39.8863 50.8689 39.3679 50.0043 39.6199 48.2794ZM41.0038 47.3412L42.3278 47.3145C42.5137 47.3101 42.5447 47.2744 42.584 47.0382L42.6232 46.7774C42.712 46.1869 42.4766 45.8838 42.0056 45.895C41.481 45.9061 41.1691 46.2181 41.0823 46.8109L41.0038 47.3412Z" fill="#FF662B"/>
<path d="M44.0582 48.1862L44.1945 47.2391C44.4279 45.5922 45.374 44.6184 46.6298 44.5939C47.8547 44.5671 48.493 45.4273 48.2761 46.8023L48.1976 47.3104C48.0799 48.0681 47.9084 48.2129 47.2846 48.2263L45.2955 48.2686L45.248 48.6229C45.1592 49.1912 45.3306 49.5545 46.0639 49.5389L47.3755 49.5121C47.5945 49.5077 47.6833 49.6235 47.644 49.8598L47.6254 49.989C47.5469 50.5461 47.1793 50.7177 45.9751 50.7422C44.3226 50.7779 43.8042 49.9132 44.0582 48.1862ZM45.4401 47.2502L46.7641 47.2235C46.95 47.219 46.981 47.1834 47.0202 46.9471L47.0595 46.6864C47.1483 46.0959 46.9128 45.7928 46.4419 45.8039C45.9172 45.8151 45.6053 46.1271 45.5186 46.7198L45.4401 47.2502Z" fill="#FF662B"/>
<path d="M48.4039 50.2207L49.0277 45.9242C49.1351 45.1799 49.3933 44.9481 49.8395 44.7632C50.2526 44.5893 50.7318 44.5091 51.1366 44.5024C52.6342 44.4712 53.0741 45.1933 52.8511 46.7911L52.3636 50.1405C52.3223 50.3767 52.2066 50.497 51.9877 50.5015L51.4072 50.5126C51.1883 50.5171 51.0891 50.4012 51.1284 50.165L51.6241 46.6975C51.7212 46 51.5621 45.6947 50.9838 45.708C50.7752 45.7125 50.5789 45.7281 50.4488 45.7771C50.3063 45.8284 50.265 45.8997 50.2257 46.1359L49.6412 50.1962C49.5999 50.4324 49.4842 50.5528 49.2652 50.5572L48.6848 50.5684C48.4638 50.5728 48.3647 50.4569 48.4039 50.2207Z" fill="#FF662B"/>
<path d="M128.42 44.9056C127.966 44.1167 127.379 43.3924 126.695 42.7595C122.12 38.5277 113.955 40.0185 108.206 40.667C99.2211 41.681 90.2545 42.8977 81.2693 43.905C76.7292 44.4131 72.185 44.8677 67.6325 45.2153C63.9413 45.4961 59.1513 44.7696 56.243 47.7536C56.1376 47.8628 56.0323 47.9764 55.9848 48.1168C55.5076 49.5675 70.5016 48.6071 71.4435 48.5335C79.8296 47.8672 88.0919 46.4031 96.4182 45.2421C101.696 44.5067 107 44.0142 112.317 43.7668C117.061 43.5462 122.541 42.6749 126.863 45.2644C127.557 45.7034 128.201 46.2449 128.998 46.4945C128.98 45.8883 128.728 45.4426 128.42 44.9056Z" fill="#193C57"/>
<path d="M25.915 26.3669C25.4874 25.1234 24.9586 23.8755 24.3389 22.6542C23.7337 21.4598 23.0831 20.2542 22.4035 19.0686C21.7694 17.97 21.1642 16.8602 20.6044 15.7638C20.055 14.6941 19.5902 13.6089 19.2246 12.5414C18.8735 11.5186 18.669 10.4823 18.6194 9.45944C18.5946 8.94912 18.6938 8.40983 18.9106 7.85716C19.1255 7.31342 19.458 6.86103 19.929 6.47328C20.3731 6.10558 20.9659 5.89833 21.6888 5.86045C22.3168 5.82033 22.8022 5.99861 23.1678 6.39305C23.6015 6.86103 23.899 7.44489 24.0807 8.17361C24.2708 8.93129 24.3224 9.70457 24.2377 10.4712C24.1551 11.2088 23.9527 11.8394 23.6305 12.3431C23.3764 12.7442 23.0686 12.9359 22.6369 12.9604L21.8396 13.0049L21.8665 13.8651C21.9036 15.044 22.3044 15.9777 23.0521 16.6374C23.7503 17.2547 24.6095 17.5934 25.6031 17.6491C26.5636 17.6959 27.5261 17.4664 28.4618 16.9538C29.4099 16.4323 30.1969 15.6078 30.8021 14.5002C31.4094 13.3882 31.6758 11.9598 31.5953 10.255C31.5106 8.47891 31.0004 6.80978 30.0812 5.29664C29.1703 3.79911 27.995 2.59573 26.5821 1.71771C25.1445 0.826321 23.5726 0.422965 21.914 0.512104C20.2285 0.6057 18.7103 1.01797 17.3986 1.73554C16.0932 2.44865 14.9861 3.38015 14.1061 4.49885C13.2324 5.61308 12.5735 6.87218 12.1459 8.24046C11.7204 9.60652 11.5386 11.0015 11.6047 12.3877C11.6585 13.5108 11.8485 14.6362 12.1686 15.7281C12.4785 16.7867 12.8627 17.8474 13.3068 18.8837C13.7447 19.9065 14.2115 20.9339 14.699 21.9411C15.172 22.9105 15.6285 23.8977 16.054 24.876C16.4691 25.8321 16.8182 26.7992 17.0909 27.7508C17.3553 28.6756 17.5123 29.6093 17.5556 30.5252C17.5907 31.2718 17.5391 32.1074 17.4007 33.0077C17.2623 33.8947 17.0186 34.7482 16.6736 35.546C16.3473 36.2992 15.9011 36.9366 15.3434 37.438C14.827 37.9059 14.1908 38.1533 13.3997 38.1956C12.4516 38.2536 11.7018 38.053 11.1173 37.5984C10.4997 37.1193 10.0473 36.502 9.73748 35.7131C9.41525 34.8953 9.25 33.9972 9.24794 33.0479C9.24587 32.0829 9.39873 31.1537 9.7003 30.2779C9.99361 29.4266 10.417 28.7402 10.9933 28.1809C11.5242 27.6661 12.1748 27.3942 12.9845 27.3474L13.7942 27.3028L13.7529 26.4271C13.7158 25.6426 13.2799 24.9674 12.4558 24.4192C11.8072 23.9869 11.0636 23.6437 10.2477 23.4008C9.40905 23.1512 8.70883 23.0465 8.11601 23.0777C6.4491 23.1713 4.96809 23.7908 3.7143 24.9162C2.50181 26.0059 1.55578 27.3652 0.907197 28.9608C0.25861 30.552 -0.0450293 32.201 0.00660976 33.8813C0.107822 35.9894 0.609755 37.7901 1.50001 39.2341C2.37788 40.6559 3.49534 41.7946 4.8173 42.6214C6.11035 43.4303 7.51906 43.9964 9.00007 44.3061C10.1774 44.5535 11.3197 44.676 12.4103 44.676C12.6706 44.676 12.9288 44.6694 13.1828 44.656C14.7671 44.5669 16.3865 44.2415 17.9956 43.6888C19.6315 43.1273 21.1353 42.2715 22.4634 41.1439C23.8164 39.994 24.8966 38.5099 25.6712 36.7293C26.4499 34.9398 26.7866 32.7804 26.6689 30.3091C26.6131 28.9809 26.357 27.6527 25.915 26.3669Z" fill="#193C57"/>
<path d="M54.7181 37.4244C54.5488 36.6333 54.4641 35.7107 54.4641 34.6633C54.4641 32.4928 54.6334 30.4382 54.9722 28.4994C55.311 26.5606 55.722 24.7377 56.2095 23.0307C56.6949 21.3237 57.1865 19.7281 57.6843 18.2395C58.2048 16.7041 58.6448 15.2823 59.0083 13.9786C59.3698 12.675 59.5495 11.4738 59.5495 10.3752C59.5495 9.05815 59.0971 7.89934 58.1924 6.89876C57.2877 5.89817 56.2487 5.1494 55.0734 4.65022C53.8981 4.14881 52.8364 3.98614 51.8863 4.1555C50.9361 4.32709 50.3825 4.91096 50.2255 5.91154C50.1119 6.78956 49.8971 7.61855 49.5811 8.39852C48.6784 7.73889 47.751 7.19737 46.8008 6.7695C45.8507 6.34387 44.9583 6.12993 44.1218 6.12993C41.8166 6.12993 39.7759 6.74053 38.0015 7.95951C36.2272 9.17849 34.707 10.7696 33.4408 12.7329C32.1746 14.6962 31.1397 16.8244 30.3383 19.1153C29.5369 21.4061 28.9482 23.6747 28.5764 25.9188C28.2046 28.1629 28.0166 30.1373 28.0166 31.8443C28.0166 34.2578 28.4008 36.1609 29.1692 37.5515C29.9376 38.942 30.9084 39.9292 32.0837 40.5131C33.259 41.0992 34.4343 41.3911 35.6096 41.3911C36.7622 41.3911 37.8755 40.9766 38.9496 40.1476C40.0237 39.3186 41.0462 38.2089 42.0191 36.8183C42.9899 35.4277 43.8946 33.8678 44.7311 32.1363C44.7993 33.7697 45.1153 35.2895 45.6792 36.6913C46.2452 38.093 47.2346 39.2273 48.6454 40.0941C50.0582 40.9588 52.0763 41.3933 54.6975 41.3933C55.2634 41.3933 55.5506 41.2351 55.563 40.9187C55.5733 40.6022 55.4659 40.1031 55.2407 39.4189C55.0631 38.8796 54.8896 38.2155 54.7181 37.4244ZM46.5654 18.5648C45.9085 20.7354 45.2475 22.79 44.5804 24.7288C43.9132 26.6676 43.2419 28.2721 42.5623 29.5401C41.8848 30.8081 41.2176 31.441 40.5628 31.441C39.9287 31.441 39.5796 30.8437 39.5115 29.6493C39.4433 28.4548 39.6003 26.9907 39.9845 25.2592C40.3687 23.5276 40.9181 21.8028 41.6287 20.0824C42.3413 18.3643 43.1654 16.9068 44.1032 15.7124C45.041 14.5179 46.0304 13.9207 47.0694 13.9207C47.4308 13.9207 47.7241 14.0299 47.9514 14.2505C47.5031 15.6388 47.0384 17.0784 46.5654 18.5648Z" fill="#193C57"/>
<path d="M99.6601 6.62294C99.0714 5.73378 98.2473 5.28809 97.1856 5.28809C96.9356 5.28809 96.6609 5.32597 96.3552 5.39728C96.0495 5.47082 95.7789 5.56887 95.5414 5.69144C95.3038 5.814 95.1861 5.94771 95.1861 6.09256C95.1861 8.36115 94.8639 11.1044 94.2194 14.3223C93.5749 17.5402 92.7673 20.6824 91.7944 23.7421C90.8216 26.804 89.8053 29.369 88.7415 31.4415C87.6778 33.5162 86.74 34.5502 85.9282 34.5502C85.3623 34.5502 85.0855 33.9218 85.0979 32.6671C85.102 32.1301 85.1413 31.5195 85.2012 30.8599C85.2363 30.7261 85.259 30.5902 85.3003 30.4587C85.5998 29.4671 86.0067 28.3796 85.6143 27.428C85.2673 26.5879 84.4286 26.0419 83.7718 25.5137C82.9146 24.8251 82.1255 24.0452 81.2869 23.3321C79.3288 21.6718 76.0053 20.0629 73.6092 21.732C72.942 22.1978 72.814 23.0245 72.6714 23.7978C72.3244 25.6965 71.5457 27.3901 70.6162 29.028C70.011 30.0955 69.3686 31.1384 68.6684 32.1368C67.5385 33.7457 66.6214 34.5502 65.9212 34.5502C65.4007 34.5502 65.1982 34.0198 65.3098 32.9591C65.4234 31.8983 65.7064 30.539 66.1587 28.8787C66.6111 27.2208 67.1295 25.4291 67.7182 23.5014C68.3978 21.2819 69.0113 19.1537 69.5669 17.1168C70.1205 15.0822 70.3973 13.4889 70.3973 12.3434C70.3973 11.149 70.0027 10.0704 69.2116 9.10547C68.4205 8.14277 67.4766 7.37394 66.3818 6.80122C65.285 6.2285 64.2729 5.94103 63.3475 5.94103C62.6927 5.94103 62.1495 6.08811 61.7198 6.38004C61.2902 6.6742 61.0754 7.16001 61.0754 7.84415C61.0754 8.77119 60.8895 10.0035 60.5156 11.539C60.1417 13.0766 59.6852 14.7948 59.142 16.6979C58.4191 19.2829 57.7457 21.9348 57.124 24.6535C56.5022 27.3723 56.1924 29.8303 56.1924 32.0254C56.2378 33.6343 56.5477 35.1408 57.124 36.5425C57.7002 37.9464 58.6897 39.0852 60.0901 39.9632C61.4926 40.8412 63.5024 41.2802 66.1257 41.2802C67.1419 41.2802 68.5321 40.0924 70.296 37.7124C72.058 35.3346 73.7538 32.3173 75.3815 28.6581C75.2451 29.9261 75.177 31.0493 75.177 32.0231C75.177 33.3156 75.5839 34.6817 76.3977 36.1213C77.2116 37.5587 78.3022 38.7799 79.6696 39.7782C81.037 40.7788 82.5345 41.278 84.1622 41.278C85.6535 41.278 87.1738 40.449 88.7229 38.791C90.27 37.133 91.7449 35.0182 93.1474 32.4443C94.5478 29.8726 95.8037 27.1472 96.9108 24.268C98.018 21.3911 98.8979 18.6656 99.5548 16.0917C100.21 13.5201 100.538 11.4632 100.538 9.92777C100.542 8.61743 100.247 7.51433 99.6601 6.62294Z" fill="#193C57"/>
</svg>
