<?xml version="1.0" encoding="UTF-8" standalone="no"?>
<!-- Generator: Adobe Illustrator 25.2.3, SVG Export Plug-In . SVG Version: 6.00 Build 0)  -->

<svg
   version="1.1"
   id="Ebene_1"
   x="0px"
   y="0px"
   viewBox="0 0 203.22748 40.000002"
   xml:space="preserve"
   sodipodi:docname="logo.svg"
   width="203.22748"
   height="40"
   inkscape:version="1.1 (c68e22c387, 2021-05-23)"
   xmlns:inkscape="http://www.inkscape.org/namespaces/inkscape"
   xmlns:sodipodi="http://sodipodi.sourceforge.net/DTD/sodipodi-0.dtd"
   xmlns="http://www.w3.org/2000/svg"
   xmlns:svg="http://www.w3.org/2000/svg"><defs
   id="defs9" /><sodipodi:namedview
   id="namedview7"
   pagecolor="#ffffff"
   bordercolor="#666666"
   borderopacity="1.0"
   inkscape:pageshadow="2"
   inkscape:pageopacity="0.0"
   inkscape:pagecheckerboard="0"
   showgrid="false"
   fit-margin-top="0"
   fit-margin-left="0"
   fit-margin-right="0"
   fit-margin-bottom="0"
   height="285.58002px"
   inkscape:zoom="3.7052043"
   inkscape:cx="54.787802"
   inkscape:cy="19.027291"
   inkscape:window-width="2560"
   inkscape:window-height="1371"
   inkscape:window-x="1920"
   inkscape:window-y="32"
   inkscape:window-maximized="1"
   inkscape:current-layer="Ebene_1" />
<style
   type="text/css"
   id="style2">
	.st0{fill:#FFFFFF;}
</style>
<path
   class="st0"
   d="m 138.55911,21.52305 c 0,3.349558 -2.71416,6.065459 -6.06556,6.065459 -3.34953,0 -6.06548,-2.717815 -6.06548,-6.065459 0,-3.347657 2.71786,-6.063558 6.06548,-6.063558 3.3514,-0.0014 6.06556,2.715901 6.06556,6.063558 m 12.45536,0 c 0,10.203265 -8.27175,18.47695 -18.477,18.47695 -10.20332,0 -18.47699,-8.27177 -18.47699,-18.47695 0,-10.201362 8.27184,-18.4731409 18.47699,-18.4731409 10.20702,0 18.477,8.2698759 18.477,18.4731409 m -8.51992,0 c 0,-5.496704 -4.45663,-9.953246 -9.95331,-9.953246 -5.49671,0 -9.94935,4.456542 -9.94935,9.953246 0,5.492883 4.45264,9.949418 9.94935,9.949418 5.49304,0.0015 9.95331,-4.456535 9.95331,-9.949418 M 0,38.990361 H 9.0161329 V 25.376467 H 18.904472 V 17.738333 H 9.0161329 v -5.79826 H 19.919844 V 4.3057551 H 0 Z m 24.933674,0 h 9.016139 V 4.3038446 H 24.933674 Z M 48.857719,4.3057551 H 39.841594 V 38.990361 H 59.669836 V 31.356044 H 48.857719 Z m 8.55425,7.6343179 h 7.452994 v 27.050288 h 9.016148 V 11.940073 h 7.452994 V 4.3057551 H 57.411969 Z m 45.132151,12.839013 10.90376,14.211275 H 102.16625 L 93.615809,25.651294 V 38.990361 H 84.601591 V 4.3057551 h 13.476478 c 3.620581,0 6.485371,0.8569516 8.601961,2.5765808 2.30173,1.8398693 3.45072,4.5385991 3.45072,8.0981001 0,2.486877 -0.64126,4.601579 -1.93148,6.351749 -1.37801,1.86659 -3.26367,3.015546 -5.65515,3.446901 m -1.79596,-9.248978 c 0,-2.885776 -2.086076,-4.322935 -6.258212,-4.322935 h -0.874139 v 8.645873 h 0.874139 c 4.172136,0 6.258212,-1.440992 6.258212,-4.322938 m 80.18507,9.983779 -16.61028,-21.2100424 h -9.0161 V 38.988443 h 9.0161 v -21.25011 l 0.0764,-0.0592 16.62755,21.311197 h 8.92065 V 4.3057551 h -9.01606 V 25.513887 Z M 203.22748,4.3133886 c 0,1.1871351 -0.41615,2.1986833 -1.25202,3.0403672 -0.8342,0.8378671 -1.84578,1.2558439 -3.04036,1.2558439 -1.19669,0 -2.21026,-0.4179768 -3.04623,-1.2520284 -0.83775,-0.8378659 -1.25202,-1.8494122 -1.25202,-3.0441827 0,-1.2004971 0.41605,-2.2158609 1.24638,-3.0575446 C 196.7172,0.4160696 197.73254,0 198.93686,0 c 1.19106,0 2.2064,0.41797764 3.04037,1.255844 0.83597,0.8416837 1.25025,1.8608654 1.25025,3.0575446 m -1.02108,0 c 0,-0.9542899 -0.31315,-1.738716 -0.93723,-2.3647314 -0.62408,-0.6202878 -1.39883,-0.929476 -2.33231,-0.929476 -0.94086,0 -1.72526,0.3053734 -2.34756,0.9256595 -0.62021,0.6183819 -0.92937,1.4104405 -0.92937,2.3666394 0,0.9466549 0.30916,1.7329908 0.92937,2.3494613 0.62029,0.614562 1.40284,0.925659 2.34756,0.925659 0.9296,0 1.70823,-0.3091889 2.33231,-0.925659 0.62408,-0.6145644 0.93723,-1.39708 0.93723,-2.3475528 m -2.29602,0.2958281 1.08406,1.8875863 h -1.08406 l -0.9983,-1.8875863 h -0.69655 V 6.496803 h -0.9983 V 2.028819 h 2.16811 c 0.58611,0 1.00593,0.078253 1.25975,0.2366636 0.31493,0.2023104 0.48103,0.5802067 0.48103,1.1279695 -8.8e-4,0.7519825 -0.40655,1.1604187 -1.21574,1.2157646 m 0.27851,-1.3455473 c 0,-0.2023093 -0.11123,-0.3320934 -0.33594,-0.4008007 -0.13731,-0.034353 -0.36448,-0.051529 -0.67177,-0.051529 h -0.96387 v 1.1279718 h 1.19104 c 0.26723,0 0.46575,-0.04391 0.58979,-0.137421 0.12755,-0.091613 0.19075,-0.2710169 0.19075,-0.5382181"
   id="path4"
   style="fill:#000000;stroke-width:0.190851" />
</svg>
