<?xml version="1.0" encoding="UTF-8" standalone="no"?>
<!DOCTYPE svg PUBLIC "-//W3C//DTD SVG 1.1//EN" "http://www.w3.org/Graphics/SVG/1.1/DTD/svg11.dtd">
<svg width="100%" height="100%" viewBox="0 0 254 68" version="1.1" xmlns="http://www.w3.org/2000/svg" xmlns:xlink="http://www.w3.org/1999/xlink" xml:space="preserve" xmlns:serif="http://www.serif.com/" style="fill-rule:evenodd;clip-rule:evenodd;stroke-linejoin:round;stroke-miterlimit:2;">
    <g id="Ebene_1">
        <path d="M92.03,43.27C95.95,43.27 99.16,42.85 100.94,41.53C103.3,39.67 105.33,38.05 106.69,34.03C107.43,31.75 108.77,27.86 107.83,25.7C106.83,23.48 102.22,22.76 98.97,22.76C94.29,22.76 90.8,23.78 89.41,25.04C86.53,27.62 84.81,30.74 83.75,34.04C82.45,37.46 82.36,39.26 83.64,41C84.92,42.67 89.32,43.27 92.03,43.27M158.59,40.18C158.34,42 158.66,42.55 161.64,42.91C162.67,43.21 164.55,43.21 167.12,43.21C169.98,43.21 172.47,43.21 173.93,42.91C175.45,42.73 179.88,42.18 180.09,40.73C180.54,38.42 179.27,37.45 176.49,36.65C175.01,36.28 172.71,35.98 169.77,35.98C167.66,35.98 165.84,36.04 164.31,36.28C162.24,36.65 158.91,38.3 158.59,40.18M54.19,22.78C52.24,22.78 49.75,23.01 48.09,23.24C45.14,23.69 43.24,25.91 42.14,27.56C41.28,28.93 39.77,31.93 39.15,34.14C38.32,37.09 37.21,40.73 38.88,42.26C40.01,43.17 46.14,43.28 47.63,43.28C51.3,43.28 53.17,43.22 56.36,41.69C58.53,40.67 60.94,35.73 61.49,33.63C62.24,30.79 63.01,28.63 63.12,27.27C63.26,25.51 61.86,23.29 59.56,23.07C58.67,22.95 55.92,22.78 54.19,22.78M1.55,38.13L7.01,23.28L1.48,23.28L4.43,15.6L9.96,15.6L15.72,0L22.81,0L17.06,15.6L33.29,15.6L30.49,23.28L14.1,23.28L8.64,38.13C7.38,41.67 9.23,42.78 12.84,42.78C16.68,42.78 19.11,40.49 20.22,37.09L27.23,37.09C24.79,44.04 19.56,50.47 10.19,50.47C1.7,50.47 -1.4,46.55 1.55,38.13M56.89,15.6C60.14,15.6 63.31,15.97 65.22,16.26C69.8,16.92 71.49,21.06 71.13,24.9C70.91,26.75 70.02,29.85 68.47,33.92C67.36,36.88 65.88,40.5 64.63,42.34C61.91,46.4 58.58,49.73 52.83,50.18C50.69,50.4 47.22,50.48 44.28,50.48C40.59,50.48 37.12,50.18 35.21,49.89C31.08,49.15 29.75,46.05 30.05,42.72C30.27,40.5 31.08,37.55 31.96,34.89C33.07,31.49 34.69,28.01 35.8,25.87C37.72,21.96 42.29,16.71 47.68,16.19C50.02,15.96 53.56,15.6 56.89,15.6M71.57,67.98L64.78,67.98L79.39,27.71C81.09,23.28 86.62,17.74 91.94,16.4C95.47,15.59 100.05,15.59 103.52,15.59C107.57,15.59 112.52,16.47 115.1,18.54C118.2,21.19 116.21,29.32 114.59,33.54C112.22,40.26 108.83,45.5 104.99,47.72C100.93,50.16 94.51,50.46 90.61,50.46C83.97,50.46 79.1,49.2 79.39,46.39L71.57,67.98ZM123.66,26.9L115.1,50.62L122.19,50.62L129.27,30.89C130.23,28.3 131.04,26.68 131.78,25.79C134.07,22.84 137.61,22.69 141.45,22.69C144.77,22.69 146.32,23.21 146.03,25.87C145.96,26.17 145.29,27.86 144.25,29.94L151.41,29.94C152.59,27.72 153.55,24.91 153.62,23.88C154.36,18.27 149.78,15.53 144.55,15.53C141.52,15.53 138.06,15.75 135.25,16.49C129.85,17.88 124.62,24.16 123.66,26.9M164.23,50.47C158.04,50.47 153.31,49.88 152.28,48.54C151.47,47.58 150.8,45.66 150.95,43.88C151.17,42.04 151.91,39.89 152.35,38.79C152.65,37.61 153.45,35.91 154.71,34.65C155.66,33.62 157.81,31.84 159.28,31.25C161.57,30.14 165.84,29.55 171.68,29.55C173.89,29.55 176.25,29.7 178.68,30.14C181.27,30.58 183.26,31.99 183.19,33.17L184.96,28.07C185.62,26.08 185.85,24.23 182.75,23.49C180.54,23.04 178.32,22.75 175.45,22.75C171.76,22.75 169.17,23.12 167.56,23.93C166.52,24.45 165.78,25.26 165.56,26.51L158.26,26.51C159.3,22.96 162.1,18.98 165.27,17.42C168.37,15.72 174.86,15.58 178.33,15.58C182.09,15.58 189.77,15.8 191.91,18.61C192.72,19.57 193.24,22.38 193.09,24.15C192.94,25.33 192.35,26.96 191.98,28.06L186.59,43.43C185.34,46.38 182.68,48.82 178.11,49.71C174.05,50.4 168.67,50.47 164.23,50.47M225.4,15.52C220.6,15.52 217.73,15.82 214.04,16.85C208.65,18.26 203.41,24.61 202.45,27.35L194.04,50.63L201.05,50.63L207.76,31.86C209.31,27.72 210.72,25.8 212.63,24.76C216.1,22.55 218.31,22.7 222.3,22.7C225.25,22.7 226.5,23.37 227.68,23.95C229.89,25.13 229.23,27.64 228.64,29.5L220.89,50.63L228.34,50.63L236.02,29.42C237.05,26.47 238.3,21.3 235.87,18.86C234.33,17.22 230.86,15.52 225.4,15.52" style="fill:rgb(0,41,69);"/>
        <g>
            <path d="M103.79,15.67C107.86,15.67 112.83,16.56 115.43,18.64C118.55,21.31 116.54,29.48 114.92,33.71C112.54,40.46 109.13,45.73 105.28,47.96C101.2,50.41 94.75,50.71 90.83,50.71C84.16,50.71 79.26,49.45 79.56,46.62L71.7,68.3L64.88,68.3L79.56,27.83C81.27,23.38 86.83,17.81 92.17,16.47C95.7,15.67 100.3,15.67 103.79,15.67M103.79,13.67C100.28,13.67 95.48,13.67 91.71,14.53C85.4,16.11 79.53,22.3 77.68,27.12L62.99,67.62L62.02,70.3L73.09,70.3L73.57,68.98L80.14,50.84C82.33,52.08 85.91,52.71 90.81,52.71C97.83,52.71 102.9,51.72 106.3,49.68C110.42,47.3 114.16,41.87 116.79,34.4C117.64,32.17 121.51,21.21 116.73,17.12L116.71,17.1L116.68,17.08C113.54,14.57 107.96,13.67 103.79,13.67Z" style="fill:white;fill-rule:nonzero;"/>
        </g>
    </g>
</svg>
