<svg xmlns="http://www.w3.org/2000/svg" width="156" height="60" aria-hidden="true" viewBox="0 0 156 60"><path fill="#1f2937" d="M0 11.12h3.55v25.599H0v8.787h12.563l.006-16.164h11.147v16.164h12.569v-8.787h-3.546v-25.6h3.546V2.337H23.719L23.716 18.5H12.57V2.336H0z" class="path-2"/><path fill="#1f2937" d="M88.41 14.141v22.564h-5.638v-19.84c0-.267-.104-.523-.289-.711a.98.98 0 0 0-.698-.295h-9.432v20.855h-5.638V11.125h18.73c.389 0 .774.077 1.134.229.36.151.687.373.962.653a3.063 3.063 0 0 1 .869 2.134" class="path-3"/><path fill="#1f2937" d="M40.371 14.141v19.545c0 .396.076.789.225 1.155.148.366.367.7.642.98s.602.502.961.654c.36.152.745.23 1.135.23h18.732v-4.734h-15.07a.97.97 0 0 1-.699-.294 1 1 0 0 1-.288-.712V26.35h16.057V14.141c0-.396-.076-.789-.226-1.155a3 3 0 0 0-.643-.979 3 3 0 0 0-.962-.653 2.9 2.9 0 0 0-1.134-.229H43.334c-.786 0-1.54.318-2.095.883a3.04 3.04 0 0 0-.868 2.133m16.051 7.47H46.01v-4.746a1.02 1.02 0 0 1 .288-.712.98.98 0 0 1 .7-.294h8.429a.97.97 0 0 1 .699.294 1 1 0 0 1 .288.712v4.753z" class="path-4"/><path fill="#1f2937" d="M155.998 2.335v4.734h-4.632v29.633h-5.634V7.069H40.372V2.335h105.36V0h5.634v2.335z" class="path-5"/><path fill="#1f2937" d="M125.005 16.865V20.6c0 .267.104.522.289.71a.98.98 0 0 0 .699.295h12.104c.389 0 .775.078 1.134.23.36.15.687.373.963.653a3.03 3.03 0 0 1 .868 2.134v9.054c0 .801-.312 1.57-.868 2.135a2.94 2.94 0 0 1-2.097.885h-18.73V31.97h15.07a.98.98 0 0 0 .698-.295c.186-.188.29-.444.29-.71v-3.611c0-.267-.104-.523-.29-.711a.98.98 0 0 0-.698-.295H122.33c-.39 0-.775-.078-1.135-.23a3 3 0 0 1-.961-.654 3 3 0 0 1-.642-.98 3.1 3.1 0 0 1-.225-1.155V14.14c0-.8.312-1.567.868-2.133a2.94 2.94 0 0 1 2.095-.883h18.732v4.734h-15.069a.97.97 0 0 0-.7.294 1 1 0 0 0-.214.327 1 1 0 0 0-.074.385" class="path-6"/><path fill="#1f2937" d="M96.025 11.125c-.39 0-.775.078-1.135.23s-.686.374-.961.654-.494.614-.642.98a3.1 3.1 0 0 0-.225 1.155V33.69c0 .396.076.788.225 1.154.148.367.367.7.642.98s.602.502.962.653.744.23 1.134.229h13.058v3.066c0 .266-.104.52-.289.709a.97.97 0 0 1-.696.293H40.371v4.735h71.387a2.92 2.92 0 0 0 2.097-.883c.275-.28.494-.612.643-.979.149-.366.226-.758.226-1.154V11.125zm13.058 20.855h-9.399a.98.98 0 0 1-.697-.293 1.01 1.01 0 0 1-.29-.71V16.866c0-.267.104-.523.29-.711a.98.98 0 0 1 .697-.295h8.414a.98.98 0 0 1 .697.296c.184.188.288.444.288.71z" class="path-7"/><path fill="#1f2937" d="M77.769 52.634v1.637h3.403v2.045h-3.403v3.608h-2.253v-9.338h6.234v2.048z" class="path-8"/><path fill="#1f2937" d="M84.152 50.586h2.257v9.338h-2.257z" class="path-9"/><path fill="#1f2937" d="M89.531 59.924v-9.338h2.253v7.293h3.853v2.045z" class="path-10"/><path fill="#1f2937" d="M100.577 52.634v7.29h-2.253v-7.29H96.07v-2.048h6.763v2.048z" class="path-11"/><path fill="#1f2937" d="M107.989 52.647h-1.275v1.886h1.275c.246 0 .481-.1.655-.276a.95.95 0 0 0 0-1.334.92.92 0 0 0-.655-.276m1.107 7.277-1.624-3.477h-.758v3.477h-2.253v-9.338h3.629c2.036 0 3.131 1.47 3.131 3.004a2.7 2.7 0 0 1-.398 1.44 2.65 2.65 0 0 1-1.094 1l1.984 3.894z" class="path-12"/><path fill="#1f2937" d="m116.821 54.128-.822 2.49h1.596zm1.792 5.796-.425-1.391h-2.834l-.45 1.391h-2.357l3.335-9.338h1.74l3.336 9.338z" class="path-13"/><path fill="#1f2937" d="M125.913 52.634v7.29h-2.253v-7.29h-2.254v-2.048h6.763v2.048z" class="path-14"/><path fill="#1f2937" d="M130.43 50.586h2.253v9.338h-2.253z" class="path-15"/><path fill="#1f2937" d="M139.461 52.956a1.203 1.203 0 0 0-1.801 0c-.208.277-.336.592-.336 2.297s.128 2.005.336 2.282a1.173 1.173 0 0 0 1.801 0c.205-.277.336-.576.336-2.282s-.131-2.02-.336-2.297m1.648 6.02a3.7 3.7 0 0 1-2.55 1.024 3.7 3.7 0 0 1-2.55-1.024c-.939-.956-.939-2.148-.939-3.735 0-1.588 0-2.767.939-3.735a3.7 3.7 0 0 1 2.55-1.022c.946 0 1.857.365 2.55 1.022.941.958.941 2.154.941 3.735s0 2.767-.941 3.735" class="path-16"/><path fill="#1f2937" d="m149.426 59.924-2.938-4.694v4.694h-2.254v-9.338h1.972l2.935 4.694v-4.694h2.254v9.338z" class="path-17"/></svg>