<?xml version="1.0" encoding="UTF-8"?>
<svg id="Livello_1" data-name="Livello 1" xmlns="http://www.w3.org/2000/svg" xmlns:xlink="http://www.w3.org/1999/xlink" viewBox="0 0 1454.629 167.6396">
  <defs>
    <style>
      .cls-1 {
        fill: url(#Sfumatura_senza_nome_2);
      }

      .cls-1, .cls-2, .cls-3 {
        stroke-width: 0px;
      }

      .cls-2 {
        fill: #1d4388;
      }

      .cls-3 {
        fill: #db291c;
      }
    </style>
    <linearGradient id="Sfumatura_senza_nome_2" data-name="Sfumatura senza nome 2" x1="0" y1="159.9335" x2="909.2217" y2="159.9335" gradientUnits="userSpaceOnUse">
      <stop offset=".1559" stop-color="#008c36"/>
      <stop offset=".1676" stop-color="rgba(40, 158, 85, .843)" stop-opacity=".843"/>
      <stop offset=".1877" stop-color="rgba(97, 183, 130, .6182)" stop-opacity=".6182"/>
      <stop offset=".2105" stop-color="rgba(146, 206, 169, .4241)" stop-opacity=".4241"/>
      <stop offset=".2363" stop-color="rgba(186, 224, 201, .267)" stop-opacity=".267"/>
      <stop offset=".2664" stop-color="rgba(217, 238, 225, .1463)" stop-opacity=".1463"/>
      <stop offset=".3036" stop-color="rgba(239, 247, 242, .0619)" stop-opacity=".0619"/>
      <stop offset=".3558" stop-color="rgba(251, 253, 252, .0134)" stop-opacity=".0134"/>
      <stop offset=".5007" stop-color="#fff" stop-opacity="0"/>
      <stop offset=".6193" stop-color="rgba(254, 252, 253, .0083)" stop-opacity=".0083"/>
      <stop offset=".662" stop-color="rgba(253, 245, 245, .0383)" stop-opacity=".0383"/>
      <stop offset=".6924" stop-color="rgba(252, 232, 233, .0907)" stop-opacity=".0907"/>
      <stop offset=".7171" stop-color="rgba(250, 213, 215, .1655)" stop-opacity=".1655"/>
      <stop offset=".7382" stop-color="rgba(247, 189, 192, .263)" stop-opacity=".263"/>
      <stop offset=".7568" stop-color="rgba(243, 159, 164, .3833)" stop-opacity=".3833"/>
      <stop offset=".7737" stop-color="rgba(239, 123, 130, .5269)" stop-opacity=".5269"/>
      <stop offset=".7893" stop-color="rgba(234, 82, 91, .6938)" stop-opacity=".6938"/>
      <stop offset=".8031" stop-color="rgba(229, 36, 48, .8757)" stop-opacity=".8757"/>
      <stop offset=".8113" stop-color="#e20613"/>
    </linearGradient>
  </defs>
  <g>
    <rect class="cls-2" y="55.9922" width="35.2474" height="84.9664"/>
    <rect class="cls-2" y="2.6507" width="35.2474" height="33.2212"/>
    <path class="cls-2" d="M150.6886,2.6507H59.8298v138.3078h35.2174V35.8719h54.4854c11.7428,0,15.0558,3.5034,15.0558,16.5868v88.4998h35.2303V50.9877c0-18.6606-2.9017-29.0156-10.6122-37.1065-7.6981-8.704-16.5454-11.2305-38.518-11.2305Z"/>
    <rect class="cls-2" x="113.5226" y="55.9922" width="32.5724" height="84.9664"/>
    <path class="cls-2" d="M266.3502,2.6507h-43.6958v33.2212h40.211c10.8011,0,15.0439,2.8836,15.0439,9.9018,0,7.5258-4.2428,10.2184-15.4252,10.2184h-39.8296v84.9664h35.2298v-51.8585h11.3733c15.1815,0,23.4276-2.6569,31.5474-10.295,8.6517-8.1208,13.7095-20.1316,13.7095-32.5951,0-12.6669-5.2435-25.0538-13.7095-33.1565-8.1198-7.4658-17.5166-10.4026-34.4547-10.4026Z"/>
    <rect class="cls-2" x="318.5776" y="2.6507" width="86.4855" height="33.2212"/>
    <polygon class="cls-2" points="318.5776 140.9586 405.0631 140.9586 405.0631 107.8088 353.8193 107.8088 353.8193 89.1 405.0631 89.1 405.0631 55.9922 318.5776 55.9922 318.5776 140.9586"/>
    <path class="cls-2" d="M508.4578,39.8167c0-10.4151-3.6638-20.1383-9.8071-26.3468-8.0727-8.0779-17.5523-10.8192-37.9406-10.8192h-44.1123v33.2212h42.9512c8.4541,0,12.3507,3.0683,12.3507,9.9018,0,7.293-4.0752,10.2184-13.6489,10.2184h-41.653v33.1079h29.8849c15.9431,0,20.9724,4.814,20.9724,19.31v32.5486h35.2407v-36.498c0-18.0175-6.1893-26.6981-21.2213-30.2668,18.3326-4.3256,26.9832-15.5204,26.9832-34.3771Z"/>
    <path class="cls-2" d="M536.5437,23.8482c-11.7257,13.0187-18.2793,30.4629-18.2793,48.9036,0,40.4547,28.8966,70.9056,67.0276,70.9056,13.2852,0,23.885-2.6988,35.4373-9.3057v-42.3143c-9.6581,14.4954-17.9342,19.8931-30.481,19.8931-20.1684,0-35.3778-16.5801-35.3778-38.7741,0-23.4027,13.8466-37.2845,37.1117-37.2845h28.7471V2.6507h-26.7695c-27.9534,0-43.3201,5.5938-57.4161,21.1975Z"/>
    <rect class="cls-2" x="581.8119" y="55.9922" width="38.9174" height="33.1079"/>
    <path class="cls-2" d="M694.2417,0c-37.9457,0-65.8448,30.6947-65.8448,72.3756,0,41.6116,27.8991,71.2818,66.9914,71.2818,38.4947,0,65.0852-29.6702,65.0852-72.5733,0-41.4259-27.5379-71.0841-66.2318-71.0841ZM694.6116,111.9305c-18.4707,0-29.6417-15.3409-29.6417-40.4066,0-24.8986,10.9542-39.8348,29.2718-39.8348,18.2813,0,29.6138,15.5685,29.6138,40.0552,0,25.2499-10.9542,40.1861-29.2438,40.1861Z"/>
    <path class="cls-2" d="M898.6266,13.8812c-7.7105-8.705-16.5283-11.2315-38.5185-11.2315l-90.8743.001v138.3078h35.2686V35.8719h54.4844c11.7407,0,15.0206,3.5034,15.0206,16.5868v88.4998h35.2143V50.9877c0-18.6606-2.8856-29.0167-10.5951-37.1065Z"/>
    <rect class="cls-2" x="822.9747" y="55.9922" width="32.5517" height="84.9664"/>
  </g>
  <g>
    <path class="cls-3" d="M1168.8053,17.9299c.01-.2598.0284-.5195.0284-.7796.0018-3.8427.0021-7.6856.0003-11.5285,0-.3551.0015-.7074.1052-1.0524.1485-.4939.4122-.6905.9635-.7041.6158-.0151.8958.1672,1.0679.6777.0977.2909.1001.5885.0998.8888-.0009.9539-.0003,1.9077-.0003,2.8616,0,4.4424.0009,8.885-.0006,13.3274-.0003.9962.0874.9052-.9375.9094-.5181.0021-1.0364-.0139-1.5539.0045-.2915.0106-.4518-.107-.5525-.369-.3324-.864-.6753-1.7238-1.0116-2.5864-1.3842-3.5517-2.7669-7.1037-4.1517-10.6548-.0472-.1207-.1098-.2353-.1684-.3599-.2184.0671-.1524.228-.1536.3375-.0088.7903-.0057,1.5805-.006,2.371,0,3.216.0009,6.4317-.0012,9.6477,0,.2985.0127.5952-.0683.8925-.1155.4237-.3862.6454-.8066.6935-.1606.0184-.3287.0191-.4878-.007-.3805-.0626-.6345-.2743-.7515-.6575-.098-.3209-.0901-.6451-.0904-.9717,0-3.0252,0-6.0504,0-9.0755,0-2.3438-.0003-4.6876.0006-7.0314,0-.2177.0045-.4358.0142-.6535.007-.1606.1092-.2568.2592-.2583.7905-.0073,1.5811-.0042,2.3713-.0039.1512,0,.2616.0768.32.2099.098.2241.1866.4527.2749.6811,1.5877,4.1151,3.1746,8.2309,4.7635,12.3457.1131.2931.2193.5915.4733.8453Z"/>
    <path class="cls-3" d="M1129.3267,15.5265c0-1.0627.0169-2.1258-.0048-3.1882-.0209-1.0156.2441-1.9416.7987-2.7823.4648-.705.9517-1.3951,1.4338-2.0886.4043-.5815.815-1.1589,1.2242-1.7368.1261-.1779.2556-.353.3853-.5284.6983-.9445,1.6153-1.4166,2.8093-1.3694.871.0345,1.7444.0067,2.6166.0067.082,0,.1639.0036.2456.0006.8187-.0308,1.1637.6058,1.1447,1.2817-.0188.6684-.4034,1.0673-1.0709,1.0857-.7627.0212-1.5267-.0015-2.2897.0103-.3529.0054-.705.0526-1.0579.0714-.2973.0157-.5141.1527-.6747.3971-.0747.1137-.1642.2177-.2428.329-.8008,1.1353-1.5965,2.2746-2.4028,3.406-.4736.6644-.721,1.3981-.7416,2.211-.0054.2177-.0181.4355-.0181.6535-.0018,1.6621-.0042,3.3246.0018,4.9867.0012.3257.0045.6578.0662.9756.0974.5048.3856.7461.8937.8117.1612.0206.3263.0184.4896.0188,1.1447.0015,2.2897.0015,3.4347,0,.1633-.0003.3284.0018.4896-.02.5302-.0723.8628-.3838.8794-.9061.0263-.8166.0067-1.6343,0-2.4515-.0012-.1545-.0992-.2477-.2558-.2562-.1902-.0103-.3811-.013-.5716-.0142-.3817-.0021-.7636.0042-1.145-.0027-.4733-.0088-.8435-.1851-1.0313-.6532-.1984-.4945-.1627-.9641.1666-1.3866.1712-.2196.4074-.362.6989-.3762.1633-.0076.3269-.0076.4905-.0076,1.0358-.0006,2.0716-.0015,3.1074.0006.1902.0003.3811.0081.5707.0236.1249.01.1908.0998.2008.2174.0136.1624.0184.326.0187.4893.0012,1.308-.0036,2.616.0024,3.924.0027.5791-.0871,1.1402-.2843,1.6821-.4769,1.311-1.4341,2.0066-2.8026,2.1681-.0541.0064-.1089.0106-.1633.0106-1.4172.0003-2.8347.0136-4.2518-.0045-1.1931-.0151-2.061-.6133-2.685-1.5986-.2516-.3974-.3992-.8359-.4397-1.3041-.0257-.2982-.0333-.5985-.0342-.8979-.0039-1.0627-.0015-2.1255-.0015-3.1885Z"/>
    <path class="cls-3" d="M1149.0401,13.1334c0-1.9077.0003-3.8154.0003-5.7231,0-.1092-.0003-.2181,0-.3272.0027-.9076.0484-.8713-.9088-.8689-.5725.0012-1.145.0003-1.7175,0-.1636,0-.3275.0054-.4908-.0024-.5855-.0287-.8704-.2035-1.0101-.6551-.1612-.5205-.1464-1.0228.2616-1.4429.1564-.1612.3517-.2574.581-.2649.1905-.006.3814-.0091.5722-.0091,2.5625-.0006,5.1252-.0003,7.6877-.0003.1364,0,.2731-.0048.4089.003.6206.0357.9384.3182,1.0618.9272.0747.3684-.0148.7074-.1945,1.0198-.1802.3127-.4833.4213-.8326.4216-.7361.0006-1.4722.0012-2.208.0039-.2181.0006-.4364.0009-.6535.016-.1809.0124-.3055.104-.3127.3027-.0058.1633-.0094.3269-.0094.4905-.0003,4.0879-.0003,8.1758-.0003,12.2637,0,.1092-.0024.2181.0015.327.0154.4252.0381.456.4806.4612.7086.0085,1.4175.0024,2.1264.0036.1905.0003.3847-.0151.5713.0136.4225.0647.7751.2338.9475.6717.1966.4996.1346.966-.1624,1.3957-.1434.2078-.375.3179-.6275.3448-.2159.023-.4349.0236-.6526.0239-2.5356.0015-5.0708.0009-7.6061.0009-.1364,0-.2728.0036-.4089-.004-.7803-.0435-1.2276-.6003-1.109-1.377.1077-.7041.4125-.9965,1.1259-1.0624.1893-.0175.3814-.0073.5722-.0076.6814-.0009,1.3631.0054,2.0444-.0039.4189-.0054.4488-.0417.4588-.4833.0085-.3814.0027-.763.0027-1.1447.0003-1.7713,0-3.543,0-5.3143Z"/>
    <path class="cls-3" d="M1120.1925,13.2026c0,1.9625,0,3.9249.0003,5.8874,0,.2181-.0045.4364.0064.6542.013.2577.078.3151.3593.3296.163.0088.3269.0054.4905.0054.5725.0006,1.145,0,1.7175.0003.1636.0003.3281-.0085.4908.0039.8368.0629,1.2747.5961,1.1819,1.4317-.0653.5891-.4131.9439-.998,1.0025-.1893.0191-.3814.0121-.5722.0121-2.5083.0009-5.0167.0009-7.5247,0-.2181-.0003-.4373.0021-.6532-.0218-.1313-.0142-.2701-.055-.3829-.1216-.4978-.294-.5541-.7739-.5063-1.285.0448-.4797.2725-.8274.763-.9424.2096-.049.4291-.0726.6448-.0759.6269-.01,1.2542-.0027,1.8811-.0039,1.0497-.0015.9418.0783.9475-.9868.0018-.3272.0003-.6542.0003-.9814,0-3.6524.0003-7.3045,0-10.9569-.0003-.9415.0817-.9472-.9312-.9405-.6542.0042-1.3086.0015-1.9628,0-.1636-.0003-.3291.0067-.4899-.0151-.5568-.0759-.8513-.4567-.8665-1.102-.016-.675.2894-1.1435.8256-1.2306.2132-.0348.4346-.0251.6523-.0254,2.5628-.0012,5.1259-.0009,7.6886-.0006.1636,0,.3278-.0067.4905.0054.5296.0402.8616.3203.9714.8335.0514.2404.0505.4881-.0091.7301-.1179.4784-.4234.7549-.9136.7948-.2979.0242-.5994.0091-.8991.0106-.6817.0036-1.3633-.0003-2.0444.0136-.2574.0051-.3375.0986-.3505.352-.0109.2174-.0073.4358-.0073.6539-.0003,1.9896-.0003,3.9793-.0003,5.969Z"/>
    <path class="cls-3" d="M1191.3818,13.5825c0-2.7249-.0015-5.4494.0024-8.174.0006-.2706.003-.5489.0623-.8105.1143-.5029.414-.7289.9288-.7527.1355-.0064.2728-.0012.4077.0139.3641.0408.5991.2528.705.5925.1231.3935.1319.802.1316,1.2127-.0036,4.4684-.0045,8.9367-.0009,13.4051.0009,1.1229-.1173,1.0059,1.0001,1.0086,1.9077.0048,3.8154.0012,5.7234.0015.1905,0,.3814-.0006.5722.0045.2504.007.4854.0801.6956.2117.3907.2447.5522.877.3922,1.4889-.1074.4101-.4249.6793-.8807.731-.1618.0184-.3266.0142-.4899.0145-2.8344.0006-5.669-.0009-8.5034.0012-.7824.0006-.7467-.0018-.7467-.7751.0006-2.7246.0003-5.4492.0003-8.1737Z"/>
    <path class="cls-3" d="M1276.5847,65.1439c.1675.1542.3605.0451.5386.0484.8432.0157,1.4568.391,1.8288,1.148.2949.5997.4062,1.2493.3693,1.9029-.0541.9605-.3227,1.8738-.7821,2.7264-.5752,1.0676-1.3122,2.0042-2.2504,2.7757-.4446.3656-.9227.679-1.5058.7815-1.0821.1905-1.7934-.2287-2.1627-1.2599-.1606-.4491-.1778-.9082-.1025-1.3697.0602-.369.2525-.6593.616-.8023.2586-.1016.5135.0529.5265.3257.0106.2168-.0121.4352-.0115.6529.0003.1902-.0085.3844.0236.5704.0916.535.4902.7255.962.4597.3581-.2017.6714-.4679.952-.7663,1.1211-1.1922,1.7136-2.6369,1.9673-4.2298.0638-.4013.0526-.8159-.1582-1.1955-.2162-.3889-.4981-.5289-.9481-.4539-.5344.0886-.9617.3701-1.3228.7566-.2041.2187-.388.4567-.5749.6907-.2123.2658-.489.3254-.806.2667-.3708-.0687-.538-.359-.4288-.7316.0795-.2719.2686-.47.4458-.6756.7845-.9112,1.4798-1.8859,2.0843-2.9242.5368-.9224.9895-1.8784,1.1637-2.9453.0311-.1908.0556-.3753.0009-.5646-.0472-.1633-.2298-.2634-.3856-.1857-.1449.072-.2822.1618-.414.2559-.6306.4488-1.1169,1.0358-1.5599,1.66-.4425.6233-.8111,1.2902-1.1362,1.9818-.104.2214-.2084.4446-.336.6526-.16.2616-.3638.3466-.6136.2918-.2728-.0596-.4933-.2773-.5365-.5486-.039-.2447-.0378-.4945.0423-.7285.5746-1.6818,1.4405-3.1749,2.8764-4.2727.7376-.5637,1.5623-.731,2.4645-.4222.9832.3369,1.3458,1.03,1.259,1.9419-.0493.5162-.2196,1.0083-.4443,1.4798-.3765.7905-.8562,1.5164-1.367,2.2244-.1071.1488-.284.2634-.2743.4827Z"/>
    <path class="cls-3" d="M1258.7739,76.1199c-.2241.0221-.2347.1851-.2982.2903-.2117.349-.3998.7125-.6197,1.0561-.1007.1569-.2401.2973-.3868.4137-.1672.1328-.4428.1104-.6142-.0124-.1703-.1219-.2504-.3726-.1609-.5867.0623-.1491.1533-.2876.2438-.4228.4406-.6599.7905-1.3652,1.0903-2.0985.4428-1.0833.8982-2.1615,1.3425-3.2445.1179-.2876.2707-.5268.5798-.6447.2867-.1095.5344-.0563.7255.1848.1802.2274.2317.4942.2041.7709-.0602.5951-.1388,1.1885-.2053,1.7831-.1479,1.3246-.316,2.6478-.4343,3.9754-.1815,2.0332-.3079,4.0701-.3823,6.1112-.0239.6509-.0789,1.3026-.0974,1.9552-.0045.1627-.0133.3281-.0487.486-.0553.2458-.2873.4297-.5241.4446-.4621.029-.8426-.2643-.9336-.7234-.1119-.5652-.1158-1.1368-.0871-1.7087.0263-.5159.0711-1.0306.0995-1.5466.0944-1.7123.2492-3.4195.4391-5.1237.0499-.4482.0956-.8976.068-1.3591Z"/>
    <path class="cls-3" d="M1273.7972,22.9613c-.072.2229-.0974.4745-.3638.5961-.1016-.2271.0614-.414.0671-.6176.0024-.0919.0959-.1815.1479-.2722.0393.1031.0157.2383.1488.2937Z"/>
    <path class="cls-3" d="M1135.7482,76.805c-.0169-.186.1216-.3172.17-.4803.3118-.0296.2292.1591.1821.3284-.0296.1745-.0363.3578-.1796.4911-.0321-.1261-.0293-.2698-.1724-.3393Z"/>
    <path class="cls-3" d="M1066.0622,100.5232c-.0708.1836-.1972.3151-.3726.4186q-.0275-.3275.1869-.7721c.0296.1349.033.2833.1857.3535Z"/>
    <path class="cls-3" d="M1271.8575,17.7647c.0811-.1993.1884-.3699.4963-.4285-.1001.2988-.1116.5692-.3188.7724-.029-.1303-.0242-.2779-.1775-.3439Z"/>
    <path class="cls-3" d="M1280.8601,16.4631c.0272-.1016.0454-.2072.0865-.3027.0172-.0393.0844-.0765.1294-.0774.0312-.0006.085.0584.0922.0974.0302.1655.0109.3233-.124.4461l-.1842-.1633Z"/>
    <path class="cls-3" d="M1166.5051,74.8425c0-.0269-.0042-.055.0012-.0807.0339-.1585.1161-.4152.2202-.3838.2186.0659.0886.3018.0795.4712-.1004-.0021-.2008-.0045-.3009-.0067Z"/>
    <path class="cls-3" d="M1202.9917,47.6969c-.0998.1225-.1993.2453-.2991.3678-.0148-.0919-.0296-.1842-.0445-.2764.0617-.0804.1234-.1606.1851-.2407.1482-.0511.2186-.0203.1585.1494Z"/>
    <path class="cls-3" d="M1142.4191,72.0469c.0284-.1274.0638-.2507.1848-.3257.0562.0563.1125.1125.1688.1688-.0544.108-.1086.2159-.1627.3236-.1561.0499-.2211-.0036-.1908-.1666Z"/>
    <path class="cls-3" d="M1300.312,19.6516c-.3656-.6436-.9003-1.0718-1.6262-1.2735-.5677-.1579-1.1317-.1467-1.7009-.0644-.9526.1373-1.8415.4612-2.7043.8876-2.273,1.1226-4.4971,2.3353-6.7051,3.5792-.5537.3121-1.129.5329-1.7616.6124-1.2236.1533-2.0577-.4179-2.3565-1.6201-.1939-.7806-.1706-1.5657-.0665-2.3541.2211-1.6785.63-3.3167,1.1184-4.932.7189-2.3777,1.5699-4.704,2.9952-6.7707.1663-.2419.1255-.4497.0242-.6835-.5187-1.1994-1.0337-2.401-1.5548-3.5995-.0472-.1083-.0366-.2846-.2873-.2598-.2014.316-.4228.656-.6366,1.0004-3.0288,4.8867-6.0522,9.7766-8.9748,14.7276-.7887,1.3367-1.5974,2.6625-2.2779,4.0601-.0807.0517-.1098.1503-.1857.2063-.0094-.1681-.0904-.3417.0369-.4999.8937-2.9714,1.7635-5.9499,2.6892-8.9113.6644-2.1252.9173-4.3072,1.063-6.5113.016-.2438.0039-.4905-.0057-.7352-.0067-.1567-.147-.2259-.2918-.1394-.2102.1255-.4167.2586-.6154.4013-1.0884.7809-2.0695,1.6806-2.9889,2.6541-1.2605,1.3343-2.3731,2.7823-3.2574,4.3864-1.0512,1.9077-2.0308,3.8553-3.0436,5.7846-1.9628,3.738-3.9264,7.4754-5.891,11.2125-.0865.1648-.1397.3581-.333.444-.0502-.108-.0085-.2087.0188-.3145.4981-1.9515.9923-3.9043,1.4919-5.8559.0807-.3161.157-.6369.28-.9372,1.0316-2.5207,1.9709-5.0765,2.8951-7.6381.212-.5879.3877-1.1907.545-1.7958.1022-.3932.1582-.8008.2026-1.2052.0266-.2447-.0112-.5144-.254-.6451-.2495-.134-.4757.0197-.6768.1624-.4482.3191-.8096.7279-1.1507,1.1544-.9533,1.1919-1.9101,2.3807-2.8519,3.5816-.9136,1.1646-1.6467,2.4358-2.1729,3.8218-.339.8919-.62,1.8016-.8631,2.7237-.6366,2.4073-1.553,4.704-2.7593,6.8817-1.2421,2.2425-2.6502,4.3825-4.0819,6.5064-.3659.5429-.7748,1.0531-1.2554,1.5034-.1805.1694-.365.3315-.5906.4322-.427.1902-.8208.0665-1.0416-.3475-.1137-.2135-.1842-.453-.2522-.6871-.2441-.8426-.0807-1.6785.0807-2.5065.2404-1.2333.6675-2.4125,1.1211-3.581.8096-2.0846,1.8058-4.0837,2.7959-6.0857.8571-1.7332,1.7045-3.4713,2.5616-5.2045.1237-.2501.1796-.499.1799-.7824.0018-1.2275-.0566-2.4509-.2047-3.6687-.0653-.5395-.1467-1.0815-.404-1.5729-.1034-.1978-.3157-.2419-.4793-.0901-.199.1848-.3877.3832-.5622.5912-.8779,1.0446-1.6549,2.1651-2.427,3.2877-1.4054,2.0438-2.7975,4.1-3.9134,6.3193-1.028,2.0441-2.0341,4.0985-3.1005,6.1232-1.2823,2.4351-2.5954,4.8528-4.0256,7.2048-.5949.978-1.2142,1.94-1.9253,2.8401-.5934.7512-1.2678,1.4253-1.9682,2.0734-.4013.3714-.8432.692-1.3512.9073-.734.3109-1.1625.0578-1.2282-.7379-.0175-.215-.0024-.4376.0324-.6508.1273-.7809.3157-1.5451.6142-2.2821.6557-1.6195,1.4637-3.164,2.3133-4.6867,1.1816-2.1173,2.388-4.2207,3.5689-6.3386.7295-1.3086,1.4314-2.6317,1.9776-4.032.1896-.4863.3239-.9841.3932-1.4967.0623-.4606.0617-.9266-.1195-1.3694-.104-.254-.323-.3935-.5876-.3254-.2876.0735-.5686.1851-.8389.3088-.4954.2265-.9699.4999-1.4731.7053-.4718.1926-.8522.4812-1.1519.881-.3266.4358-.6542.8725-.9554,1.3258-.6188.9309-1.1722,1.9014-1.7051,2.8839-.9889,1.8236-1.8345,3.7056-2.4566,5.6908-.5698,1.8182-1.1773,3.6252-1.8191,5.4192-.5873,1.6409-1.2149,3.2744-2.1161,4.7744-1.7523,2.9145-3.9186,5.5003-6.3933,7.8268-.4745.4464-1.0068.8344-1.5297,1.2266-.3944.2958-.838.5135-1.3243.6173-.3856.0826-.7056-.1016-.848-.4679-.1421-.3641-.1567-.7449-.1149-1.1281.068-.6275.2649-1.2152.5069-1.7985,1.9407-4.6789,3.8677-9.3632,5.8039-14.0436.1391-.336.1993-.6687.1709-1.0325-.0826-1.0619-.2413-2.1098-.5359-3.1338-.1131-.3925-.2634-.7745-.4866-1.1211-.4969-.7721-1.1994-.894-1.9449-.3354-.13.0977-.2456.2153-.3653.3266-.5229.4869-.9348,1.0624-1.3171,1.6606-1.1783,1.8457-2.0544,3.8402-2.8788,5.8592-.4013.9829-.7942,1.97-1.1634,2.9653-.7319,1.9736-1.7359,3.8157-2.6976,5.6793-1.5515,3.0043-3.2215,5.9382-5.1189,8.7399-.4282.6321-.8595,1.2623-1.3742,1.8278-.2008.2202-.4243.4246-.662.6039-.3726.281-.7966.346-1.2369.1748-.2531-.0983-.5017-.2135-.7403-.3427-.6493-.3511-.9962-.9097-1.0724-1.6364-.0599-.5728-.0311-1.1423.0868-1.7069.1733-.8296.4434-1.6289.7546-2.4149.613-1.5478,1.3924-3.0143,2.176-4.4802,1.2771-2.3898,2.2706-4.8878,2.7829-7.5595.1642-.8568.2834-1.7211.2438-2.5972-.0296-.6563-.1086-1.3056-.408-1.9032-.4095-.818-1.0561-1.0639-1.8998-.7303-.4355.1724-.8117.4394-1.1704.737-1.2015.9968-2.2389,2.15-3.2305,3.3491-.3293.3983-.6783.7824-1.0428,1.1483-.809.812-1.8288,1.0264-2.9296.9892-.3469-.0118-.561-.1975-.6523-.5165-.0517-.1809-.0804-.3738-.085-.5619-.0082-.3263.0157-.6532.0169-.9802.0021-.4086.0045-.8175-.0121-1.2257-.0091-.2244-.1929-.3384-.4019-.2567-.176.0686-.3544.1479-.5075.2567-.3097.2211-.6227.4446-.9003.7034-1.7477,1.6295-3.2021,3.4912-4.3667,5.578-.6427,1.1513-1.0996,2.3662-1.2935,3.6778-.2314,1.5656-.0266,3.0391.8513,4.387.1784.2737.3523.5517.5111.8371.1358.2444.1893.5017.0826.7839-.1833.4833-.3309.9799-.5232,1.4592-.4772,1.1891-1.0431,2.3375-1.637,3.4725-1.4946,2.8567-3.1812,5.5922-5.2761,8.0512-1.6969,1.9918-3.4979,3.8916-5.4343,5.656-.6242.5683-1.2775,1.106-2.0006,1.5515-.4201.2589-.855.4848-1.3364.5988-.6188.1467-1.135-.0221-1.5004-.5589-.1222-.1793-.2326-.3702-.3194-.5686-.4881-1.1123-.6318-2.3039-.7824-3.4924-.0181-.1434.0348-.2716.147-.3632.1046-.0859.2217-.157.3315-.2374,2.4869-1.8128,4.6274-3.97,6.4305-6.4623.8147-1.1259,1.6301-2.2516,2.4351-3.3845,1.3582-1.911,2.6722-3.8517,3.7843-5.9197.9339-1.7359,1.7253-3.5187,1.8088-5.5393.0517-1.252.1424-2.5026.0674-3.7568-.0248-.4128-.1225-.8069-.2831-1.1858-.261-.6148-.7152-.9278-1.3954-.9372-.643-.0088-1.2409.1536-1.8203.4037-1.4774.6372-2.923,1.3388-4.2954,2.1823-1.2333.7579-2.3925,1.6168-3.4643,2.593-1.7864,1.6268-3.2726,3.5009-4.5494,5.5441-1.5475,2.4769-2.8788,5.0675-4.0238,7.7536-.62,1.4544-1.2415,2.9184-1.546,4.4702-.2156,1.0993-.6529,2.0671-1.2206,3.004-.9046,1.4922-1.8908,2.9305-2.8785,4.368-2.29,3.3315-4.808,6.4729-7.7343,9.2748-.7298.6989-1.4907,1.3585-2.3151,1.9425-.3339.2359-.6805.4567-1.086.5528-.326.0765-.5432-.117-.4812-.453.049-.2655.1358-.5262.2238-.783.2562-.7494.6046-1.4589.9584-2.1651,1.1471-2.2888,2.3251-4.5624,3.4425-6.8657,1.3198-2.7197,2.5969-5.4603,3.7029-8.2765.6681-1.7009,1.2699-3.4211,1.5318-5.2396.1013-.7061.1116-1.4132-.0968-2.1058-.2577-.8562-.8846-1.3715-1.7734-1.458-.5208-.0505-1.0316.0064-1.5348.1567-.6823.2038-1.3267.4924-1.9473.8381-1.2185.6792-2.3483,1.487-3.4102,2.3876-2.3759,2.0154-4.492,4.2893-6.5454,6.6232-1.2067,1.3712-2.3408,2.8023-3.445,4.257-.0859.055-.1685.1134-.2247.2066-.0091.0656-.0405.068-.0466.0067-.0103-.108-.0345.0432.0257-.0384.0541-.1031.0027-.2377.0768-.3436.0233-.078.0396-.1594.0711-.2341,1.8445-4.335,3.7059-8.6624,5.7682-12.9.8102-1.6658,1.6464-3.3188,2.6898-4.8567.3989-.5876.7086-1.2257,1.0035-1.8702.6188-1.3515.952-2.7763,1.0673-4.2542.0245-.3145-.0789-.45-.3986-.5035-.5683-.095-1.1402-.0856-1.7096-.0021-1.7057.2507-3.1419,1.0228-4.3528,2.2401-1.1931,1.1997-2.0269,2.6284-2.6538,4.1808-.9599,2.3768-2.068,4.6813-3.2653,6.9459-2.1781,4.1191-4.5385,8.135-6.8772,12.163-1.3676,2.3556-2.7572,4.6991-4.0126,7.1176-.6399,1.2324-1.2064,2.5029-1.8545,3.7307-1.7967,3.4047-3.9119,6.6093-6.1946,9.7046-1.0032,1.36-2.0674,2.6707-3.2124,3.9167-1.0497,1.1435-2.3024,1.9936-3.6966,2.6468-.4682.2193-.9496.4158-1.4752.4549-.8184.0602-1.2321-.2731-1.3267-1.0815-.0605-.5181-.0142-1.0337.0901-1.5436.3402-1.6652.9608-3.2344,1.6652-4.7708,1.2167-2.6526,2.6517-5.1894,4.1221-7.7071.8931-1.5285,1.8309-3.0327,2.6193-4.6196.6293-1.2666.8622-1.4468-.0191-3.1319-.8232-1.5744-1.8808-2.998-2.955-4.4073-.222-.2909-.3094-.2813-.5516.0405-.9179,1.2191-1.8285,2.4433-2.7466,3.6618-4.9522,6.5721-9.9033,13.145-14.861,19.7128-1.0836,1.4353-2.1911,2.8525-3.2907,4.2757-.1663.2153-.3475.4195-.5268.6245-.0544.0617-.1349.1034-.2117.0466-.0342-.0257-.0581-.0959-.0514-.1406.0278-.1881.0499-.3808.1092-.5601.2292-.6983.4542-1.3987.7131-2.0861.9608-2.547,1.9473-5.0847,2.8979-7.6354.417-1.1202.8634-2.2377.9992-3.4419.0426-.379.0711-.7597.1249-1.1369.2002-1.4081.1996-2.8213.1052-4.2355-.0381-.5737-.1863-1.1278-.4663-1.6376-.2906-.5292-.7334-.7775-1.344-.7419-.4195.0245-.7975.1621-1.1607.3581-.8235.444-1.5251,1.0473-2.1965,1.6891-1.3219,1.2644-2.5062,2.6538-3.6633,4.067-2.5561,3.122-4.9374,6.3758-7.2607,9.6728-3.6415,5.1685-7.1361,10.4353-10.5299,15.7689-1.3019,2.0462-2.6006,4.0906-4.1254,5.9835-.4013.4981-.8477.9209-1.4002,1.2318-.1875.1055-.3932.1914-.6012.2471-.4739.1267-.7491-.072-.7766-.5489-.016-.2722.0127-.5411.0747-.8102.2023-.8782.4899-1.7299.8126-2.5673,1.7834-4.6235,4.0758-8.9712,7.039-12.9557.7313-.9832,1.4761-1.957,2.1161-3.0064.5329-.874.881-1.7976.9838-2.8259.1092-1.0903-.2873-1.9343-1.2424-2.4418-.9384-.499-1.9349-.5232-2.9426-.297-1.0452.2347-1.8871.812-2.5915,1.6131-1.4568,1.6576-2.9227,3.3073-4.3885,4.9571-.2162.2435-.4527.4685-.6799.7022-.4515.0868-.2053-.1929-.1857-.3535.4485-1.3135.8919-2.6287,1.3467-3.9401,1.5883-4.5788,3.1827-9.1557,4.7711-13.7344,1.66-4.7844,3.3095-9.5721,4.8754-14.3883.3451-1.0609.6983-2.1218.9796-3.2003.8737-3.3458,1.6131-6.7212,2.159-10.1383.4086-2.5573.6995-5.124.7727-7.7131.0738-2.622-.0741-5.2272-.6548-7.7944-.5788-2.5601-1.5956-4.9163-3.2853-6.9519-1.0065-1.2127-2.2138-2.1672-3.65-2.8307-2.2957-1.0603-4.6819-1.132-7.117-.6659-2.2138.4237-4.2854,1.2496-6.2666,2.3-5.6379,2.9892-10.7979,6.6685-15.5965,10.8623-2.3813,2.0813-4.6634,4.266-6.8206,6.5814-1.5983,1.7154-3.1434,3.4764-4.6265,5.2919-2.8664,3.5091-5.4485,7.2205-7.8528,11.0571-1.9981,3.1885-3.8608,6.4517-5.3778,9.9021-1.0872,2.4736-1.9779,5.0118-2.5915,7.6472-.4074,1.7514-.7071,3.5209-1.0083,5.2922-.3439,2.0214-.5211,4.0501-.4666,6.0994.0157.5994.0674,1.1931.1833,1.7852.1116.5713.3738.9684.9064,1.2593,2.0489,1.1202,4.2446,1.6842,6.5609,1.7985,1.9761.0977,3.9098-.2156,5.8181-.7016,1.2681-.323,2.5056-.7416,3.7135-1.2466.5816-.2432.5849-.2489.4412-.8332-.1957-.7954-.3166-1.6044-.3693-2.4185-.1182-1.8297.0088-3.6491.3587-5.4482.581-2.9898,1.6364-5.8127,3.0554-8.5028.8516-1.615,1.7822-3.1858,2.7221-4.7505,3.3164-5.5199,6.9186-10.8414,11.0162-15.8176,1.4383-1.7474,2.9281-3.4468,4.5975-4.9828,1.6643-1.5312,3.3261-3.0654,4.9559-4.6326,1.4262-1.3721,3.0267-2.4905,4.7517-3.4419.6684-.3684,1.3573-.6992,2.0828-.9402.6463-.215,1.301-.3959,1.9948-.3898,1.2608.0109,2.1046.6012,2.577,1.7656.3366.8308.3922,1.7096.3789,2.5691-.0227,1.4408-.2232,2.8715-.5323,4.2866-.3777,1.7293-.8123,3.4434-1.2808,5.15-1.2254,4.4641-2.6242,8.8759-4.0692,13.2723-1.2747,3.8792-2.5803,7.7488-3.9219,11.6054-1.7622,5.0654-3.5668,10.1165-5.3657,15.1692-.6669,1.8726-1.3322,3.7477-2.065,5.5949-1.1447,2.8857-2.3462,5.7485-3.5233,8.6213-3.2623,7.9632-6.5246,15.9261-9.7865,23.8894-.7745,1.8908-1.5645,3.774-2.5464,5.5701-.6805,1.2445-1.3948,2.4672-2.3066,3.5623-.4213.5057-.8801.9708-1.4592,1.2953-.7322.4092-1.4408.2852-1.9721-.3656-.2044-.2501-.3813-.5362-.509-.8326-.2471-.574-.479-1.1583-.6678-1.7538-.78-2.4618-1.0198-5.0109-1.1181-7.5716-.0699-1.8224-.078-3.6491.0983-5.47.0369-.3795.0308-.763.0635-1.1426.0305-.3526-.1213-.5749-.4403-.6929-.1524-.0562-.3097-.101-.4673-.1397-.7234-.1772-1.4607-.1775-2.1956-.1418-1.9059.0931-3.7979.3209-5.6796.6372-.6883.1158-.6898.1071-.7228.7999-.0027.0544-.0103.1086-.0109.163-.0342,2.8873-.0916,5.7739.1255,8.6591.127,1.6839.2828,3.363.5005,5.0378.3091,2.3783.7682,4.7257,1.3401,7.0547.5864,2.388,1.5847,4.5749,3.0863,6.5246,1.0068,1.3074,2.1763,2.4376,3.6443,3.2278,1.9367,1.0421,3.9303,1.1924,5.989.3904,1.1317-.4409,2.1236-1.1045,3.0376-1.8923,1.1411-.9835,2.1276-2.1088,3.017-3.321,1.7604-2.3979,3.3337-4.9153,4.7941-7.505,2.2365-3.966,4.2304-8.0527,6.0921-12.2054,2.1506-4.7983,4.1218-9.6689,5.9342-14.6045.0789-.215.0741-.486.3602-.6248,0,.336.0003.6538-.0003.972-.0021,1.4713-.003,2.9414.1939,4.4049.1603,1.1904.3935,2.3587.7815,3.4997.4893,1.4399,1.4259,2.489,2.7116,3.2523,1.305.7748,2.6287.8039,3.9585.0605.5501-.3079,1.0397-.6965,1.4967-1.1301.815-.7736,1.4982-1.6546,2.1366-2.5749,1.0119-1.4595,1.8409-3.0249,2.6474-4.6014,2.0849-4.0755,4.289-8.0866,6.5953-12.0402,2.2513-3.8593,4.5443-7.6947,6.8216-11.5391.5135-.8674,1.0337-1.7314,1.6331-2.5443.1618-.219.3182-.4425.5528-.594.0922-.0595.2504.0012.251.1068.0012.1624.0127.3308-.0257.4857-.1567.6339-.303,1.2723-.5023,1.8932-1.1229,3.5003-2.3937,6.9501-3.6074,10.4195-.8722,2.4929-1.7677,4.9774-2.6478,7.4675-.117.3306-.2492.6532-.2153,1.028.1013,1.1171.2822,2.2146.7146,3.2565.1893.4558.4464.8707.8093,1.2167.3753.3572.8099.526,1.3304.5214.5093-.0045.9599-.1799,1.3948-.4128.6548-.3505,1.2112-.8305,1.7432-1.3422,1.1825-1.1377,2.2047-2.4137,3.2003-3.7117,2.1412-2.792,4.0946-5.7144,5.9896-8.6763,3.1141-4.867,6.0561-9.8368,8.8899-14.871.1603-.2852.323-.5646.5559-.8032.5716-.5843,1.1284-1.1831,1.6939-1.7731.0699-.0729.1569-.1294.2574-.2105.0429.2658-.0862.4549-.157.6514-.5531,1.5369-1.1402,3.0621-1.6712,4.6066-.9127,2.652-1.7798,5.3182-2.4237,8.0521-.3523,1.4946-.5247,3.0025-.4128,4.5373.0741,1.0146.2816,1.9966.7824,2.8942.6923,1.2403,1.8487,1.7571,3.2426,1.4752.838-.1697,1.6083-.5078,2.3459-.9266,1.9634-1.1144,3.6252-2.6048,5.1909-4.208,1.5635-1.6007,2.9847-3.3252,4.328-5.1134,2.1796-2.9012,4.1384-5.9475,5.9757-9.0749,2.6635-4.534,5.2529-9.1097,7.7382-13.7438.9399-1.752,1.8633-3.5127,2.7944-5.2698.1264-.1055.2105-.2444.2949-.3871.0179-.0181-.0015-.0569.0366-.0569-.006.0272-.0133.0499-.0212.0684-.0278.0659-.0563.1315-.0817.1984-.0411.1697.0829.3578-.0563.5165-.2791,1.1078-.5456,2.2183-.8398,3.3219-.9753,3.6554-1.9966,7.2976-3.2299,10.8768-.4615,1.3391-.9288,2.6786-1.5865,3.9355-1.0355,1.9794-2.0229,3.9812-2.9405,6.018-1.5212,3.3778-2.9323,6.7998-4.0918,10.3204-.6387,1.9406-1.2055,3.9016-1.4746,5.9348-.1043.7857-.1152,1.5678.0242,2.3571.1186.6687.1739,1.3495.2326,2.0269.0726.8404.1028,1.6848.1845,2.5243.0472.4854.0971.9762.267,1.4417.2492.6823.6006.9109,1.3153.7836.5692-.1013,1.0915-.3239,1.5127-.7497.4648-.4705.8208-1.0171,1.1423-1.5874.4951-.8779.93-1.7864,1.3237-2.7152.7231-1.7057,1.3491-3.4471,1.9425-5.2011.9327-2.7597,1.7907-5.5432,2.5667-8.3497.9433-3.4099,2.1279-6.7505,2.9184-10.2027.0805-.3496.2453-.5849.5284-.78.946-.6523,1.9428-1.2115,3.0182-1.6165.6874-.2592,1.3884-.4766,2.127-.5604.5474-.0623.9545.1161,1.2584.5704.1815.2713.3656.5438.5776.7912.4237.4942.9626.6759,1.6113.558.5398-.098,1.0624-.2465,1.5539-.486.5383-.2622,1.0797-.5238,1.5953-.8265,2.407-1.4129,4.6335-3.0636,6.5981-5.0557,1.9912-2.0193,3.8804-4.13,5.6766-6.3234,2.4345-2.9732,4.8283-5.9775,6.7732-9.3075.1019-.0711.2105-.4337.3009.0067.1343,1.2708.2426,2.5443.5072,3.7985.1975.9354.4582,1.8496.8498,2.7209.6136,1.3667,1.5605,2.3496,3.1062,2.6172.1606.0282.3172.078.4778.1058,1.7126.2958,3.3585.1748,4.8969-.7316.7322-.4316,1.3999-.9421,2.0287-1.5067,1.0573-.9496,1.9715-2.0305,2.8601-3.1344,2.1859-2.7155,4.3229-5.4676,6.2442-8.3803,1.7574-2.6638,3.3131-5.4389,4.5915-8.3648,1.4002-3.2045,2.3728-6.5433,3.0524-9.9671.0941-.473.2707-.74.7146-.8546.0526-.0136.1046-.0312.1549-.0523,2.2083-.933,4.4021-1.8944,6.3579-3.3116.0829.0121.1476-.0212.2041-.082.0012-.003.0662-.0163.0662-.0163,0,0-.0547.0375-.052.0336-.0753.1013-.1527.2072-.1736.3414-.5008.9046-1.0213,1.7991-1.4988,2.7158-1.0996,2.1122-1.97,4.3184-2.384,6.6667-.4161,2.3617-.6405,4.7493-.5477,7.1536.023.597.1225,1.1897.2794,1.771.1074.3968.2486.7781.4539,1.1335.457.7905,1.1501,1.21,2.0535,1.298,1.1925.1164,2.2649-.1942,3.2317-.8939.6671-.4827,1.2439-1.0567,1.7713-1.6864,1.0537-1.2572,1.9422-2.6281,2.7838-4.0305,1.8503-3.0832,3.6433-6.1988,5.33-9.375.0817-.1536.1086-.3726.3339-.4119.0278.0164.0665.0275.0671.0408.0175.2716.0423.5435.0432.8153.0042,1.6361.1482,3.2635.3396,4.8851.0859.7273.2114,1.4525.4591,2.1517.2465.6962.721,1.1311,1.406,1.3727.629.222,1.2723.2985,1.9307.219.8181-.0992,1.5947-.3339,2.3245-.7273,1.031-.5559,1.8321-1.3543,2.508-2.2972,1.0645-1.4852,2.0356-3.0312,2.9668-4.6005,1.3204-2.2253,2.6099-4.4687,3.9179-6.7012.0856-.1464.1058-.3699.3272-.3913.153.1022.1388.2477.1621.3777.1712.9693.4567,1.9053.8474,2.8077.2604.6024.5879,1.1659,1.0588,1.637.6932.6941,1.504.8184,2.4085.5156.3396-.1134.6424-.2982.9285-.5078.5066-.3708.9841-.7757,1.4114-1.2381.7603-.8226,1.4335-1.712,2.039-2.6535,1.3754-2.1394,2.4515-4.4287,3.3947-6.7844.0708-.1763.1482-.3505.2274-.5235.0054-.0118.0514-.0048.0829-.0073.0212.0393.0638.0814.062.1204-.0269.4896-.046.9799-.0944,1.4677-.147,1.4677-.1267,2.9381-.0683,4.4079.0417,1.0534.5011,1.9428,1.2133,2.6967.6998.7404,1.5527.8765,2.4569.4379.4715-.2287.8752-.5507,1.2475-.9133.8247-.8033,1.5022-1.7242,2.1185-2.6913,2.4345-3.8175,4.5775-7.7948,6.4992-11.8927.0659-.1409.0826-.3233.3136-.3345.0656.5359.1255,1.073.1987,1.608.1805,1.3222.3904,2.6387.8069,3.9125.1355.4149.2982.8181.5314,1.1897.1313.2087.2779.4019.4945.5344.2804.1718.4872.1733.7512-.033.3257-.254.581-.5731.8075-.9158.4972-.7515.9106-1.5505,1.3053-2.3574,1.0893-2.2268,2.0396-4.5155,2.9901-6.8037,1.0337-2.489,2.0441-4.9882,3.1138-7.4615.946-2.1872,2.2289-4.1759,3.7589-6.0041.4509-.0877.1963.189.1775.3439-.3901,1.1601-.8211,2.3081-1.1628,3.4822-1.1408,3.9186-2.2234,7.8534-2.9166,11.8827-.101.5886-.2498,1.1722-.1987,1.7801.0517.6151.3789,1.0143.9847,1.1304.4349.0832.8637.0532,1.2823-.1228.4893-.2057.8828-.535,1.24-.9136.5631-.5976,1.0261-1.2696,1.4517-1.9694.8353-1.3745,1.5699-2.8032,2.267-4.2503,2.0208-4.1929,3.9721-8.4184,5.8777-12.6648.2389-.1464.2232-.0042.1845.1633-.2214,1.4801-.44,2.9608-.665,4.4405-.3315,2.1793-.6484,4.3613-1.1302,6.5146-.1857.8287-.251,1.67-.1923,2.518.0396.5749.15,1.1335.4452,1.6398.3009.5162.7485.7772,1.3488.7606.2453-.0067.4824-.0481.7216-.1213.5556-.1697,1.0494-.4558,1.526-.7715,1.6591-1.0981,3.3122-2.2053,4.9656-3.3116.7473-.5002,1.4916-1.0049,2.2346-1.5121.2755-.1884.5677-.3278.9067-.3339.5716-.0097,1.1438-.0178,1.7154-.0154.3321.0018.649.0995.9439.2407.5547.2655.753.7406.6094,1.3522-.0693.2958-.1917.5655-.3351.8299-.3538.6514-.8078,1.226-1.3192,1.7607-.8876.9285-1.8614,1.7595-2.857,2.5667-2.7956,2.267-5.6998,4.3906-8.6231,6.488-6.2448,4.4811-12.6025,8.7994-18.981,13.0863-5.9941,4.0286-11.9925,8.0503-17.982,12.0856-6.057,4.081-12.1053,8.1749-18.1577,12.2625-4.1557,2.8065-8.3113,5.6122-12.4679,8.4169-5.467,3.689-10.9352,7.3756-16.4022,11.0653-5.3986,3.6433-10.7961,7.2891-16.1941,10.9336-1.807,1.2197-3.6337,2.4119-5.4174,3.6648-5.0173,3.5248-10.017,7.0753-15.024,10.6152-6.2977,4.4523-12.5952,8.9053-18.8942,13.3558-7.9904,5.6457-15.9827,11.289-23.974,16.9335-.9569.6762-1.9135,1.3531-2.867,2.0344-.1833.131-.1954.2528-.0369.4017.4963.4663,1.0016.923,1.5028,1.3845,2.084,1.9198,4.1723,3.8354,6.2485,5.764.4875.4524,1.0464.6633,1.699.6835.8671.0269,1.6688-.2208,2.4448-.5698.9245-.4158,1.7665-.9708,2.5715-1.5814,1.9761-1.4985,3.9424-3.0107,5.9261-4.4992,3.7498-2.8135,7.5081-5.6155,11.2645-8.4202,7.5123-5.6097,15.0252-11.2183,22.5381-16.8265,5.0454-3.7661,10.0905-7.5323,15.1374-11.2963,5.199-3.878,10.4014-7.7527,15.6007-11.6308,7.2313-5.3938,14.4621-10.7879,21.6913-16.1844,6.1375-4.5812,12.2734-9.1641,18.4079-13.7493,6.6147-4.9441,13.2321-9.8845,19.8392-14.8389,7.3919-5.5429,14.7802-11.0909,22.1573-16.6535,3.4815-2.6251,6.9359-5.2867,10.3962-7.9396.5398-.414,1.0682-.8441,1.5276-1.3543,1.4644-1.6268,2.7297-3.398,3.8402-5.2801,1.1522-1.9527,2.153-3.9754,2.7878-6.1629.3055-1.0518.5144-2.1176.4618-3.219-.042-.8815-.2329-1.7281-.6723-2.5023ZM1174.181,63.8662c.1636-.7697.3705-1.5315.424-2.3218.0091-.1352.0381-.271.0333-.4056-.0275-.7552.1972-1.4447.5093-2.1203.4355-.9424.9765-1.8212,1.5602-2.6756,1.168-1.7102,2.466-3.3201,3.7933-4.9069.4364-.5217.8795-1.0379,1.3261-1.5508.2332-.2676.5005-.4999.8117-.6747.1951-.1095.3956-.003.4104.2141.0224.3284-.0133.6514-.1019.9687-.4993,1.7886-1.1498,3.5079-2.1575,5.0862-1.2899,2.0208-2.6895,3.9615-4.146,5.8629-.744.9711-1.4662,1.9594-2.2827,2.8728-.3124.0139-.2604-.1603-.1802-.349ZM1150.4328,75.3796c-1.0074,2.7587-2.0305,5.512-3.0352,8.272-.1189.3266-.2767.561-.6067.7104-1.735.7845-3.4616,1.5877-5.1921,2.3829-.1213.0556-.2441.1249-.4231.0553-.1149-.652-.0508-1.3289-.0726-2.0015-.0759-2.3208.6487-4.3843,1.977-6.2651.7397-1.0467,1.5369-2.0462,2.3943-2.9962,1.2765-1.4142,2.5724-2.8111,3.8553-4.2189.6783-.7443,1.3404-1.5036,2.0235-2.2434.3502-.3792.7255-.7361,1.1017-1.0903.1367-.1288.3012-.2338.4666-.3242.2144-.117.4579.0505.4331.3021-.0487.489-.1815.9596-.3484,1.4211-.519,1.4347-1.1335,2.828-1.8079,4.195-.2897.5867-.5413,1.1861-.7657,1.8007Z"/>
    <path class="cls-3" d="M1174.181,63.8665c.0251.134.0321.278.1799.3487-.1119.1612-.2241.3224-.3363.4833-.0596.069-.1207.0705-.1836.0048.0765-.294.1452-.5909.3399-.8368Z"/>
    <path class="cls-3" d="M1136.1002,76.6531c-.0305-.1261-.0239-.2731-.1821-.3284.0417-.0944.0744-.1945.1285-.2813.0369-.0587.1022-.1361.1579-.1385.0986-.0042.0928.0904.0759.1657-.0448.1987-.0106.4222-.1802.5825Z"/>
    <path class="cls-3" d="M1142.4191,72.0469c.0635.0556.1273.1113.1908.1666-.0702.1049-.1334.2156-.2126.3127-.0432.0532-.1161.1074-.1878.0499-.0257-.0209-.0327-.0989-.0151-.1343.0675-.1355.1488-.264.2247-.3949Z"/>
    <path class="cls-3" d="M1202.9917,47.6969c-.0529-.0499-.1055-.0998-.1585-.1494.0399-.0671.068-.1476.1234-.1978.0532-.0487.1591-.1119.1996-.0901.1388.0747.0305.183-.0085.2658-.0318.0668-.1025.1149-.1561.1715Z"/>
    <path class="cls-3" d="M1173.841,64.7033c.0611-.0015.1222-.003.1836-.0048-.0215.0463-.0318.1049-.0668.1361-.0505.0454-.1567.1131-.1736.0977-.1086-.0962-.0448-.1718.0569-.2289Z"/>
    <path class="cls-3" d="M1108.8034,20.8701c-.1164-.2447-.2537-.4815-.3974-.7116-1.4151-2.2616-2.8337-4.5213-4.2503-6.7819-.1443-.2308-.2873-.4627-.4207-.6998-.0765-.1361.0073-.2758.1663-.2779.5994-.0079,1.1991.0091,1.7976-.0151,1.8179-.0741,3.1111-1.3394,3.2109-3.1613.0387-.7059.0408-1.4171.0033-2.123-.0986-1.8654-1.5475-3.2441-3.4199-3.2562-2.179-.0145-4.3586-.0027-6.5379-.0039-.7177-.0006-.7122-.0073-.7122.7264.0015,2.7506.0006,5.5012.0006,8.2517,0,2.6414-.0015,5.2831.0021,7.9248,0,.326-.0012.6566.0478.9774.0829.5404.4597.8129,1.0509.8078.5816-.0049.9653-.2943,1.0443-.8241.0399-.2676.0321-.5432.0324-.815.0018-2.5326.0009-5.0654.0015-7.5979,0-.2177.0039-.4358.0118-.6532.0042-.1192.0653-.2069.1881-.2247.1083-.016.2274-.0169.3.0811.1455.196.287.3959.417.6027,1.7686,2.8111,3.5339,5.6242,5.3028,8.435.1446.2301.2849.4703.47.6653.5184.5468,1.3724.3853,1.6918-.3009.1597-.3433.1588-.6889-.0009-1.0255ZM1100.9097,9.9358c-.4367-.0045-.48-.0451-.4833-.4576-.0076-.9254-.0076-1.8512.0003-2.7766.003-.4013.0732-.4781.4757-.4811,1.3068-.0094,2.6139-.0103,3.9207-.0006.3248.0021.6493.0563.9741.0871.0269.0024.0541.006.0808.0115.5323.1143.8283.4074.8583.9412.0321.5701.0287,1.1438.0042,1.7142-.0236.545-.307.8389-.8504.9324-.1863.0318-.3792.0305-.5698.0315-.7077.0033-1.4157.0015-2.1236.0015v-.0009c-.7624,0-1.5248.0057-2.287-.0024Z"/>
    <path class="cls-3" d="M1092.8785,10.6955c-.3272-.7473-.6638-1.4904-.9977-2.2343-.3786-.8434-.7591-1.686-1.1386-2.5289-.2483-.5513-.5776-1.0424-1.0225-1.4601-.9421-.8846-2.4881-.8214-3.34.0188-.3723.3674-.691.7676-.9067,1.246-.7703,1.7102-1.5717,3.4078-2.3021,5.1352-.6297,1.4904-.652,3.0346-.0248,4.5298.7573,1.8046,1.5887,3.5783,2.3898,5.3645.2044.4555.5241.8259.8934,1.1532.9327.8262,2.3447.8168,3.2795-.0155.4125-.3671.7322-.8014.9572-1.3065.7527-1.6885,1.514-3.3736,2.2573-5.0666.32-.7289.5023-1.4937.4597-2.3299.0496-.858-.1509-1.6981-.5044-2.5056ZM1090.8322,14.8736c-.665,1.429-1.2995,2.8719-1.951,4.3066-.1007.222-.2045.4473-.342.6472-.2347.3412-.7246.3357-.9699-.0027-.0944-.1303-.1657-.28-.2329-.4279-.6977-1.5333-1.3954-3.0666-2.0862-4.6032-.2241-.4996-.3578-1.0249-.3665-1.3682.0012-.734.1255-1.236.3342-1.7111.7116-1.6164,1.4359-3.2275,2.1572-4.8394.0556-.1234.1158-.2477.1942-.3569.2308-.3236.7461-.3239.9765.0057.1077.1539.1836.3321.261.5051.6781,1.5121,1.3485,3.0276,2.0305,4.5379.4996,1.1066.5111,2.1977-.0051,3.307Z"/>
    <path class="cls-3" d="M1186.3615,20.7682c-.5102-2.0018-1.0231-4.0029-1.5339-6.0047-.8202-3.2127-1.637-6.4263-2.4645-9.6375-.0738-.2867-.1929-.5667-.3281-.8311-.3033-.5925-1.2796-.6333-1.6234-.0036-.1573.2876-.2625.5934-.3451.9121-.9088,3.4991-1.8258,6.9961-2.737,10.4945-.4796,1.8409-.9366,3.6881-1.4405,5.5226-.1204.4388.1476.9605.6127,1.2073.4083.2165.9236.0741,1.2318-.3351.1984-.2637.3085-.5694.3953-.8885.2141-.7869.4391-1.5711.6684-2.3538.1043-.3563.1579-.4034.5093-.4046,1.2796-.0067,2.5591-.0006,3.839-.0033.2199-.0006.3581.0826.4119.3048.0448.1845.1083.3644.1606.5474.1936.6796.3926,1.3579.5767,2.0402.0868.3218.2147.617.4428.8613.3018.3227.7322.4234,1.1169.2435.3983-.1863.652-.4845.6402-1.083-.0254-.1134-.0732-.3523-.1331-.5885ZM1179.5811,15.8967c.4709-2.029,1.0289-4.0323,1.5478-6.054.0741.0393.1467.0526.1621.0895.1951.4691,1.429,5.4494,1.4889,5.9787-.6662.1119-2.518.1095-3.1988-.0142Z"/>
    <path class="cls-3" d="M1236.9815,92.047c-.541-1.0966-1.4247-1.7595-2.5982-2.0631-.5716-.1479-1.1299-.1277-1.6839.0789-.4373.1636-.8447.3826-1.2082.6729-.2389.1908-.4252.2268-.7198.0511-.3411-.2032-.6242-.0541-.7718.3272-.088.2256-.1542.4679-.1799.708-.0363.3424-.1645.6215-.3998.8701-.2432.2568-.4666.532-.6938.8036-.9635,1.1507-1.8506,2.3556-2.5597,3.6824-.1406.2631-.2628.5383-.3647.8187-.0814.2229-.0145.4304.1769.5831.1917.1527.3965.1506.6127.0499.2283-.1068.414-.2652.5583-.4666.206-.2873.3971-.5852.5979-.8767.3708-.5377.7385-1.0775,1.1199-1.6074.088-.1222.1627-.2931.3557-.2825.0959.0487.082.1313.075.2066-.1158,1.246-.2332,2.4917-.3502,3.7377-.1545,1.6519-.3139,3.3034-.4621,4.9562-.0947,1.0561-.1851,2.1134-.2534,3.1716-.0351.5413-.0638,1.0903.1273,1.6171.1019.2807.2912.46.5991.4748.2915.0142.5308-.0944.6965-.345.1243-.1884.1597-.3995.1781-.62.0502-.5961.1065-1.1922.1654-1.7877.0124-.1264-.0157-.2782.1827-.3587.1697.1424.3436.3112.5395.4491.5601.3944,1.1628.5501,1.8515.3702.6901-.1809,1.2155-.5952,1.6987-1.0833.7382-.7455,1.2793-1.6292,1.6972-2.5803,1.2557-2.8588,1.8847-5.842,1.7129-8.976-.0499-.9115-.2979-1.7671-.6998-2.5815ZM1234.1956,103.3327c-.2819.6203-.6327,1.204-1.063,1.7347-.3109.3832-.6662.714-1.1274.9188-.3085.137-.587.1016-.8341-.1167-.5099-.4509-.8223-1.0143-.8686-1.6972-.0254-.378-.0142-.7624.02-1.1405.1273-1.4066.2734-2.8117.408-4.2177.0804-.8383.1491-1.6778.2292-2.5162.0901-.9466.2014-1.8911.274-2.8389.0272-.3541.1588-.6209.4195-.8438.372-.3182.7334-.6481,1.1111-.9587.2531-.2081.5435-.356.8538-.469.522-.1905.9596-.0644,1.3346.3245.3678.3814.59.848.731,1.3494.2292.8156.3275,1.6506.3088,2.4996-.0526,2.7799-.6451,5.4397-1.7967,7.9717Z"/>
    <path class="cls-3" d="M1250.5324,82.5042c.1128-.8652.1282-1.739.052-2.6109-.0357-.4119-.1406-.8078-.3853-1.1483-.3269-.4555-.8689-.492-1.2675-.0944-.2162.2156-.3566.4809-.4666.7615-.219.5589-.3802,1.1344-.4981,1.7232-.2353,1.1752-.4186,2.3571-.5377,3.5505-.1542,1.5448-.3197,3.0878-.2401,4.6438.0169.3272.0278.6581-.062.9756-.4524,1.5971-.8674,3.2057-1.4414,4.7666-.1809.4924-.4331.939-.776,1.334-.0877.1007-.1878.1945-.2958.2728-.1497.1092-.3472.0257-.3605-.1524-.016-.2165-.0191-.4346-.0142-.6517.0221-1.0612.173-2.1179.1204-3.1818-.0109-.2168-.0082-.4388-.0541-.649-.1255-.574-.5492-.7428-1.0316-.4107-.131.0901-.2162.2435-.4053.2371-.7488-.0251-1.2.4319-1.5817.9911-.3868.5674-.6699,1.1852-.8432,1.8493-.3369,1.2905-.6502,2.5873-1.001,3.8738-.2861,1.0494-.555,2.1125-1.2693,2.9834-.0502.0614-.0847.1415-.1074.2181-.0514.1715-.0018.3281.1228.4479.1267.1222.2934.1582.4536.0877.1207-.0529.2471-.13.3266-.2311.1678-.2129.3248-.4385.4536-.6762.3124-.5767.525-1.1949.7267-1.8176.0445-.137.0448-.3296.2779-.3611.0705.0659.1427.1485.2292.2114.6306.4594,1.3165.3599,1.7795-.2758.1588-.2181.2725-.47.3941-.7128.1083-.2165.1195-.4769.2991-.6672.0442.0088.0974.007.137.029.6811.3805.9862.356,1.5312-.1367.1409-.1273.2495-.31.4113-.3919.5764-.2931.8625-.8214,1.1338-1.354.346-.6802.6163-1.3939.8232-2.1306.1101-.3932.2265-.7848.3469-1.1746.0118-.0387.069-.0837.1089-.0877.0429-.0045.1125.0236.1325.0593.1727.3079.3091.6396.5081.9281.6003.8704,1.65.5029,2.0099-.1851.0798-.1531.0953-.3127-.0239-.4585-.1086-.1334-.2419-.2208-.4237-.1908-.0526.0088-.1013.0429-.1539.0523-.3012.0535-.3039.0432-.3962-.2332-.157-.4715-.1515-.9669-.2301-1.4495-.1249-.767-.0677-1.5103.1509-2.2594.6036-2.0668,1.0591-4.1677,1.3373-6.3035ZM1242.5296,95.8733c-.1164.6136-.2894,1.2164-.4428,1.8225-.0387.1539-.0786.3133-.2964.4539-.1294-.3-.0853-.5758-.0732-.8423.0553-1.2282.2719-2.4321.594-3.6164.0559-.2057.088-.4346.2695-.5831.0257-.0212.1297-.0021.1361.0175.0321.1019.0563.2099.0611.3163.0372.8223-.0965,1.6301-.2483,2.4315ZM1249.0926,83.1535c.0178-1.0909.1228-2.1717.3629-3.2372.0463-.0798.0904-.0786.1322.0033.1443,1.2106-.0287,2.4019-.2229,3.5919-.0348.2111-.0711.4219-.1065.633-.4437-.2652-.153-.6535-.1657-.9911Z"/>
    <path class="cls-3" d="M1249.0926,83.1535c.0088.2123.0209.4243.0251.6366.0027.1379.0266.2628.1406.3547.0553.3581-.153.6569-.1778,1.1879-.1857-.8432-.1663-1.52.0121-2.1793Z"/>
    <path class="cls-3" d="M1249.5876,79.9196c-.0439-.0024-.088-.0036-.1322-.0036.0148-.0663.0308-.1903.0439-.1897.143.0036.0898.1122.0883.1933Z"/>
    <path class="cls-3" d="M1285.239,59.7277c-.1697-.1361-.3439-.2701-.5292-.3828-.6623-.4038-.5728-.3847-.2416-1.0068.6526-1.2251,1.3277-2.4385,2-3.653.1458-.2634.2903-.522.3387-.825.0593-.3696.0127-.7391-.268-.978-.2238-.1909-.4591-.3669-.6644-.5819-.1576-.1654-.3759-.2066-.5988-.2226-.5695-.0403-1.0757.1406-1.5381.4515-1.1934.8036-2.0447,1.8666-2.4348,3.2684-.3185,1.1444-.1899,2.2095.5885,3.1516.0687.0826.1316.17.2084.2704-.104.228-.2011.4503-.3058.669-.3414.7131-.6339,1.4447-.8507,2.2059-.2187.7667-.31,1.5469-.2562,2.342.0553.8126.3526,1.5333.8613,2.1657.9012,1.1196,2.7218,1.2956,3.7882.2834.7564-.7183,1.2905-1.549,1.4979-2.5664.375-1.8385-.1049-3.3947-1.5953-4.5912ZM1282.4978,56.0898c.3871-1.0494,1.116-1.7773,2.1067-2.2612.0941-.0457.206-.062.3115-.0744.046-.0054.1143.0215.14.0572.0242.033.0227.1068.0012.1458-.1567.2852-.3224.5652-.4827.8486-.5205.9206-1.0404,1.8418-1.5593,2.7633-.0653.1158-.098.2568-.3009.3185-.4297-.5785-.4479-1.1713-.2165-1.7976ZM1284.114,66.0113c-.205.1802-.427.3296-.7183.3481-.2946.0188-.5362-.0586-.7025-.3136-.1951-.2988-.3348-.6166-.3741-.9777-.0559-.5175-.0478-1.0352.0535-1.5412.2087-1.0407.5547-2.0396,1.0004-3.0028.0209-.045.0777-.0732.1827-.1681.4685.3055.842.6974,1.1686,1.1314.4446.5912.5909,1.2705.5341,1.9993-.0759.9799-.3838,1.8563-1.1444,2.5247Z"/>
    <path class="cls-3" d="M1270.3729,68.3711c-.098-.8698-.3393-1.6993-.786-2.472-.5371-.9294-1.8875-1.4326-3.0403-.5365-.369.2867-.6726.633-.9366,1.018-.5453.7957-.8985,1.6751-1.1671,2.5954-.3299,1.1311-.5471,2.274-.4491,3.461.055.6686.2604,1.2786.6672,1.8139.796,1.0473,2.1826.9711,2.8794.2661.2861-.29.555-.5979.828-.9009.0874-.0968.1204-.2489.3587-.2791-.0569.4512-.0916.8577-.1621,1.2581-.2701,1.53-.5755,3.0509-1.2829,4.4554-.1107.2199-.2087.4434-.1969.6995.016.3484.3986.5925.7047.4292.14-.0747.2779-.1836.3711-.3106.1763-.2401.3414-.4942.473-.7612.4328-.8807.8238-1.7834,1.0775-2.7309.7031-2.6263.9663-5.2955.6614-8.0053ZM1267.3634,73.0757c-.1787.235-.3974.4467-.6257.6357-.3312.274-.5658.2174-.7936-.1609-.1845-.3067-.2928-.6387-.3236-.9977-.0448-.5175-.049-1.0382.052-1.5433.2828-1.4154.7119-2.7854,1.3872-4.0689.1397-.2661.3036-.5144.5238-.7216.2253-.212.4137-.1824.5952.0892.1685.2522.2773.5329.3436.8229.1322.5819.2571,1.1674.2438,1.7731-.0641,1.5248-.466,2.9402-1.4027,4.1714Z"/>
  </g>
  <g>
    <path class="cls-2" d="M1354.4826,133.6454V36.4489c0-.9115.7389-1.6503,1.6504-1.6503h8.953c.9115,0,1.6503-.7389,1.6503-1.6503V4.678c0-.9115-.7388-1.6503-1.6503-1.6503h-42.681c-.9115,0-1.6503.7388-1.6503,1.6503v128.9674c0,.9113.7388,1.6503,1.6503,1.6503h30.4274c.9115,0,1.6503-.7389,1.6503-1.6503Z"/>
    <path class="cls-2" d="M1444.4957,13.7683c-7.049-7.9587-15.0667-10.5168-34.1349-10.7263-.9184-.0102-1.6708.7324-1.6708,1.6507v30.106c11.2274,0,12.2624,3.3503,12.2624,15.8623v82.9845c0,.9113.7388,1.6503,1.6503,1.6503h30.376c.9113,0,1.6503-.7389,1.6503-1.6503V49.2538c0-17.8452-2.7601-27.7484-10.1333-35.4856Z"/>
    <rect class="cls-2" x="1372.1485" y="54.0399" width="31.1294" height="81.2558" rx="1.6503" ry="1.6503"/>
    <rect class="cls-2" x="1372.1485" y="3.0277" width="31.1294" height="31.7713" rx="2.114" ry="2.114"/>
    <rect class="cls-2" x="1321.0744" y="149.5158" width="5.165" height="12.4506"/>
    <rect class="cls-2" x="1321.0744" y="141.6995" width="5.165" height="4.8681"/>
    <path class="cls-2" d="M1343.1556,141.6995h-13.314v20.267h5.1606v-15.3989h7.9841c1.7207,0,2.2062.5133,2.2062,2.4305v12.9684h5.1624v-13.1839c0-2.7344-.4252-4.2518-1.5551-5.4374-1.128-1.2755-2.4244-1.6457-5.6442-1.6457Z"/>
    <rect class="cls-2" x="1337.7095" y="149.5158" width="4.7729" height="12.4506"/>
    <path class="cls-2" d="M1360.1041,141.6995h-6.403v4.8681h5.8923c1.5828,0,2.2045.4225,2.2045,1.451,0,1.1028-.6217,1.4973-2.2604,1.4973h-5.8364v12.4506h5.1624v-7.5991h1.6665c2.2247,0,3.433-.3894,4.6228-1.5086,1.2678-1.19,2.0089-2.95,2.0089-4.7764,0-1.8561-.7684-3.6712-2.0089-4.8586-1.1898-1.094-2.5667-1.5244-5.0488-1.5244Z"/>
    <rect class="cls-2" x="1367.7572" y="141.6995" width="12.6732" height="4.8681"/>
    <polygon class="cls-2" points="1372.9214 157.1088 1372.9214 154.3674 1380.4305 154.3674 1380.4305 149.5158 1367.7572 149.5158 1367.7572 161.9665 1380.4305 161.9665 1380.4305 157.1088 1372.9214 157.1088"/>
    <path class="cls-2" d="M1395.5814,147.1456c0-1.5261-.5368-2.9509-1.437-3.8607-1.1829-1.1837-2.5721-1.5854-5.5596-1.5854h-6.4641v4.8681h6.2939c1.2388,0,1.8098.4496,1.8098,1.451,0,1.0687-.5971,1.4973-2,1.4973h-6.1037v4.8515h4.3792c2.3363,0,3.0732.7054,3.0732,2.8296v4.7695h5.164v-5.3483c0-2.6402-.9069-3.9122-3.1097-4.4351,2.6864-.6339,3.954-2.2743,3.954-5.0375Z"/>
    <path class="cls-2" d="M1399.6969,144.8057c-1.7182,1.9076-2.6785,4.4639-2.6785,7.1661,0,5.928,4.2344,10.3902,9.8219,10.3902,1.9468,0,3.5-.3955,5.1928-1.3636v-6.2006c-1.4153,2.1242-2.628,2.9151-4.4666,2.9151-2.9553,0-5.1841-2.4296-5.1841-5.6817,0-3.4294,2.029-5.4635,5.4381-5.4635h4.2125v-4.8681h-3.9227c-4.0961,0-6.3479.8197-8.4135,3.1062Z"/>
    <rect class="cls-2" x="1406.3304" y="149.5158" width="5.7027" height="4.8515"/>
    <path class="cls-2" d="M1422.8053,141.311c-5.5604,0-9.6486,4.4979-9.6486,10.6056,0,6.0976,4.0882,10.4453,9.8166,10.4453,5.6409,0,9.5373-4.3477,9.5373-10.6346,0-6.0703-4.0352-10.4163-9.7052-10.4163ZM1422.8594,157.7128c-2.7065,0-4.3435-2.248-4.3435-5.921,0-3.6485,1.6052-5.8372,4.2893-5.8372,2.6788,0,4.3394,2.2813,4.3394,5.8695,0,3.7001-1.6052,5.8887-4.2853,5.8887Z"/>
    <path class="cls-2" d="M1447.1105,141.6993l-13.3162.0002v20.267h5.1681v-15.3989h7.9839c1.7204,0,2.201.5133,2.201,2.4305v12.9684h5.1601v-13.1839c0-2.7344-.4229-4.2519-1.5526-5.4374-1.1299-1.2756-2.4219-1.6459-5.6443-1.6459Z"/>
    <rect class="cls-2" x="1441.6692" y="149.5158" width="4.77" height="12.4506"/>
  </g>
  <rect class="cls-1" y="152.2274" width="909.2217" height="15.4122"/>
</svg>