<?xml version="1.0" encoding="utf-8"?>
<!-- Generator: Adobe Illustrator 27.4.0, SVG Export Plug-In . SVG Version: 6.00 Build 0)  -->
<svg version="1.1" id="Ebene_1" xmlns="http://www.w3.org/2000/svg" xmlns:xlink="http://www.w3.org/1999/xlink" x="0px" y="0px"
	 viewBox="0 0 503.9 56.7" style="enable-background:new 0 0 503.9 56.7;" xml:space="preserve">
<style type="text/css">
	.st0{fill:#FFFFFF;}
	.st1{fill:#A8A8A7;}
	.st2{fill:#D20A11;}
	.st3{fill-rule:evenodd;clip-rule:evenodd;fill:#D20A11;}
</style>
<g>
	<rect x="-57" y="-56.7" class="st0" width="618" height="170.1"/>
	<g>
		<polygon class="st1" points="302,22.9 302,0.9 312.9,0.9 312.9,22.9 334.9,22.9 334.9,31.3 312.6,31.3 312.6,55.8 302,55.8 
			302,31.3 279.8,31.3 279.8,22.9 302,22.9 		"/>
		<polygon class="st2" points="90.6,22.9 90.6,0.9 79.1,0.9 79.1,55.8 90.6,55.8 90.6,31.3 103.7,31.3 103.7,55.8 115.2,55.8 
			115.2,0.9 103.7,0.9 103.7,22.9 90.6,22.9 		"/>
		<polygon class="st2" points="155.7,55.8 155.7,47.3 136.6,47.3 136.6,31.3 153.6,31.3 153.6,22.9 136.6,22.9 136.6,9.3 155.1,9.3 
			155.1,0.9 125.1,0.9 125.1,55.8 155.7,55.8 		"/>
		<path class="st3" d="M174.4,9.3h5.1c3.6,0,5.9,2,5.9,7.2c0,3.5-1.3,8.1-5.9,8.1h-5.1V9.3L174.4,9.3z M174.4,33.1h3
			c8.8,0,8.2,5.5,8.2,12.1c0,3.6-0.3,7.3,1.2,10.6H198c-1.1-2.3-1.3-12.6-1.3-16.1c0-9.9-7.4-10.5-10-10.8v-0.2
			c7.4-1.2,10.2-6.5,10.2-13.5c0-9.3-5-14.4-12.8-14.4h-21.2v54.9h11.5V33.1L174.4,33.1z"/>
		<polygon class="st2" points="201,0.9 201,10 213.8,10 213.8,55.8 225.3,55.8 225.3,10 238,10 238,0.9 201,0.9 		"/>
		<polygon class="st2" points="255.2,22.9 255.2,0.9 243.7,0.9 243.7,55.8 255.2,55.8 255.2,31.3 268.4,31.3 268.4,55.8 279.8,55.8 
			279.8,0.9 268.4,0.9 268.4,22.9 255.2,22.9 		"/>
		<path class="st3" d="M346.3,31.3v15.4h6.4c2.4,0,7.9-0.1,7.9-7.8c0-4.9-1.8-7.7-7.6-7.7H346.3L346.3,31.3z M346.3,8.8v14.1h7.7
			c2.5,0,6-1.8,6-7.1c0-4-2.7-7-6.6-7H346.3L346.3,8.8z M355.2,55.8h-20.3V0.9h20.4c8.7,0,16,2.5,16,14.2c0,6.3-3.1,10.9-9.3,12.1
			c8.1,1.3,10.3,6.5,10.3,14.1C372.2,55.2,360.1,55.8,355.2,55.8L355.2,55.8z"/>
		<path class="st2" d="M406.8,0.9v38.1c0,6.1-2.3,9.4-7.3,9.4c-4.2,0-7.1-2.7-7.1-9.4V0.9H381v38.9c0,10.3,6.1,16.9,18.7,16.9
			c14,0,18.6-8.7,18.6-16.9V0.9H406.8L406.8,0.9z"/>
		<path class="st2" d="M461.6,40.8c0-17.3-23.1-16.3-23.1-26.8c0-3.8,2.2-5.9,5.9-5.9c4.6,0,5.3,4.2,5.3,8.3H461
			C461.7,5,456.2,0,445,0c-14,0-18.1,6.8-18.1,15.4c0,16.3,23.1,16.9,23.1,26.8c0,3.7-1.9,6.2-5.8,6.2c-6.3,0-6.5-4.4-6.5-9.7h-11.5
			c-0.6,9.5,2.1,17.9,16.3,17.9C451.2,56.7,461.6,55,461.6,40.8L461.6,40.8z"/>
		<path class="st2" d="M503.9,40.8c0-17.3-23.1-16.3-23.1-26.8c0-3.8,2.2-5.9,5.9-5.9c4.6,0,5.3,4.2,5.3,8.3h11.2
			C504,5,498.4,0,487.2,0c-14,0-18.1,6.8-18.1,15.4c0,16.3,23.1,16.9,23.1,26.8c0,3.7-1.9,6.2-5.8,6.2c-6.3,0-6.5-4.4-6.5-9.7h-11.5
			c-0.6,9.5,2.1,17.9,16.3,17.9C493.5,56.7,503.9,55,503.9,40.8L503.9,40.8z"/>
		<path class="st2" d="M55,55.7H43.9l0-55H55V55.7L55,55.7z M40.7,0.7h1.6l-10.6,55h-9.7L40.7,0.7L40.7,0.7z M0,0.7h39l-39,55V0.7
			L0,0.7z"/>
	</g>
</g>
</svg>
