<svg xmlns="http://www.w3.org/2000/svg" width="200" height="47.156" viewBox="0 0 200 47.156">
    <g id="ThatsKavo_Logo_RGB_WHITE" transform="translate(-65 -1.791)">
        <g id="Group_813" data-name="Group 813" transform="translate(65 1.791)">
            <path id="Path_682" data-name="Path 682" d="M304.454,3.9H290.162L260.7,24.513h-7.292L257.1,3.9h-8.751L243.2,33.069h19.349Z" transform="translate(-147.527 -3.9)" fill="#f2f2f2"/>
            <path id="Path_683" data-name="Path 683" d="M202.828,3.9l-5.056,3.5L193.3,33.069h8.751l.778-4.181h26.446l-.778,4.181h8.751L242.4,3.9H202.828Zm27.9,16.237H204.287l1.361-7.584h26.446Z" transform="translate(-146.144 -3.9)" fill="#f2f2f2"/>
            <path id="Path_684" data-name="Path 684" d="M196.915,3.9H182.622L156.273,21.985,159.482,3.9h-9.626L144.8,33.069h9.528l13.126-9.042,8.556,9.042h12.931L175.233,18.776Z" transform="translate(-144.8 -3.9)" fill="#f2f2f2"/>
            <path id="Path_685" data-name="Path 685" d="M345.259,3.9H310.742l-5.153,3.5L301.7,29.471l3.889,3.5h34.516l5.153-3.5L349.148,7.4l-3.889-3.5ZM337.48,24.415H311.228l2.139-11.862h26.252Z" transform="translate(-149.148 -3.9)" fill="#f2f2f2"/>
            <path id="Path_686" data-name="Path 686" d="M284.812,41.5h-4.764L278.2,52.1h1.945l.583-3.306h2.917c2.722,0,4.375-1.264,4.764-3.6a3.264,3.264,0,0,0-.486-2.528,3.948,3.948,0,0,0-3.209-1.07Zm1.75,3.4a2.283,2.283,0,0,1-2.625,2.139h-2.722l.681-4.084h2.917a2.545,2.545,0,0,1,1.653.486,1.708,1.708,0,0,1,.194,1.361Z" transform="translate(-148.497 -4.942)" fill="#f2f2f2"/>
            <path id="Path_687" data-name="Path 687" d="M296.345,41.5,290.9,52.1h2.042L294.3,49.57h4.862l.389,2.528H301.5l-1.75-10.5h-3.5Zm-1.264,6.32,2.528-4.861h.486l.778,4.861Z" transform="translate(-148.849 -4.942)" fill="#f2f2f2"/>
            <path id="Path_688" data-name="Path 688" d="M313.412,41.5h-4.764L306.8,52.1h1.945l.681-3.792h3.111l1.556,3.792h2.139l-1.75-4.181a3.662,3.662,0,0,0,2.625-3.014,2.889,2.889,0,0,0-.486-2.333,4.09,4.09,0,0,0-3.209-1.07Zm1.653,3.209c-.194,1.264-1.069,1.945-2.625,1.945h-2.82l.681-3.6h2.917a2.545,2.545,0,0,1,1.653.486,1.591,1.591,0,0,1,.194,1.167Z" transform="translate(-149.289 -4.942)" fill="#f2f2f2"/>
            <path id="Path_689" data-name="Path 689" d="M321.8,43.056h3.695L323.939,52h2.042l1.556-8.945h3.695l.292-1.556h-9.528Z" transform="translate(-149.705 -4.942)" fill="#f2f2f2"/>
            <path id="Path_690" data-name="Path 690" d="M340.128,41.3q-4.23,0-4.667,2.917a2.516,2.516,0,0,0,.292,1.847c.583.778,1.653,1.07,3.306,1.361,1.07.194,1.847.389,2.042.681.1.194.194.486,0,.681-.194,1.167-1.07,1.75-2.722,1.75s-3.014-.194-3.6-.194h-.195L334.1,51.8h.389a26.183,26.183,0,0,0,3.889.292c2.722,0,4.375-1.07,4.764-3.306a2.276,2.276,0,0,0-.292-1.75c-.486-.681-1.458-.972-3.111-1.361-1.264-.194-2.042-.389-2.333-.778a.865.865,0,0,1,0-.778c.194-.972,1.069-1.361,2.722-1.361s2.82.194,3.4.194h.194l.486-1.458h-.389a23.656,23.656,0,0,0-3.695-.292Z" transform="translate(-150.046 -4.934)" fill="#f2f2f2"/>
            <path id="Path_691" data-name="Path 691" d="M266.4,43.153h7.681l.292-1.653h-7.681Z" transform="translate(-148.17 -4.942)" fill="#f2f2f2"/>
            <path id="Path_692" data-name="Path 692" d="M263.2,47.653h10.015L273.506,46H263.492Z" transform="translate(-148.081 -5.067)" fill="#f2f2f2"/>
            <path id="Path_693" data-name="Path 693" d="M260.1,52.253h12.251l.292-1.653H260.392Z" transform="translate(-147.995 -5.194)" fill="#f2f2f2"/>
        </g>
    </g>
</svg>
