<svg width="155" height="50" viewBox="0 0 155 50" fill="none" xmlns="http://www.w3.org/2000/svg">
<path d="M145.312 17.5991V23.4266C146.235 23.4266 146.812 23.31 147.158 23.0769C147.504 22.8438 147.734 22.1445 147.734 20.979V19.5804C147.734 18.7646 147.619 18.1818 147.273 17.9487C146.812 17.7156 146.235 17.5991 145.312 17.5991ZM137.47 13.1702H143.006C146.696 13.1702 149.234 13.2867 150.502 13.5198C151.771 13.7529 152.924 14.4522 153.731 15.3846C154.539 16.4336 155 18.0653 155 20.2797C155 22.2611 154.654 23.6597 154.077 24.359C153.501 25.0583 152.347 25.5245 150.618 25.641C152.117 25.9907 153.27 26.4569 153.731 27.0396C154.308 27.6224 154.654 28.0886 154.769 28.5548C154.885 29.021 155 30.303 155 32.4009V39.2774H147.734V30.5361C147.734 29.1375 147.619 28.3217 147.388 27.972C147.158 27.6224 146.466 27.5058 145.428 27.5058V39.2774H137.586V13.1702H137.47ZM121.67 13.1702H134.702V18.4149H129.513V23.31H134.356V28.3217H129.513V34.0326H135.279V39.2774H121.67V13.1702ZM119.825 13.1702V18.4149H115.212V39.3939H107.37V18.4149H102.757V13.1702H119.825ZM100.104 13.1702V34.1492H104.948V39.3939H92.2619V13.1702H100.104ZM89.1481 39.3939H81.3058V13.1702H89.1481V39.3939ZM40.4799 23.31H63.5454V29.1375H40.4799V23.31ZM40.3646 14.3357V9.32401L31.369 39.2774H20.8743L11.8787 9.32401V39.2774H0.345982V0H19.029L26.2946 23.8928L33.3296 0H51.8973V13.1702H63.4301V18.9977H40.3646V14.3357ZM40.4799 33.3333H63.5454V39.1608H40.4799V33.3333ZM152.117 2.331C152.232 2.331 152.232 2.331 152.232 2.331C152.463 2.331 152.693 2.331 152.809 2.21445C152.924 2.0979 153.039 1.98135 153.039 1.8648C153.039 1.74825 153.039 1.6317 152.924 1.51515C152.809 1.3986 152.693 1.3986 152.463 1.3986C152.347 1.3986 152.232 1.3986 152.117 1.51515V2.331ZM151.425 1.04895H152.693C153.039 1.04895 153.155 1.1655 153.385 1.28205C153.501 1.3986 153.616 1.51515 153.616 1.74825C153.616 1.8648 153.616 2.0979 153.501 2.21445C153.385 2.331 153.27 2.44755 153.039 2.44755L153.731 3.37995C153.847 3.4965 153.847 3.61305 153.962 3.61305H154.077V3.7296H153.501L152.578 2.5641H152.347V3.2634C152.347 3.4965 152.347 3.61305 152.463 3.61305C152.463 3.61305 152.578 3.7296 152.693 3.7296V3.84615H151.656V3.4965C151.771 3.4965 151.886 3.4965 151.886 3.37995C151.886 3.37995 152.001 3.2634 152.001 3.0303V1.6317C152.001 1.51515 152.001 1.3986 151.886 1.28205C151.54 1.28205 151.54 1.1655 151.425 1.04895ZM154.654 2.44755C154.654 1.8648 154.423 1.3986 154.077 0.932401C153.616 0.4662 153.155 0.34965 152.578 0.34965C152.001 0.34965 151.54 0.582751 151.079 0.932401C150.618 1.3986 150.502 1.8648 150.502 2.44755C150.502 3.0303 150.733 3.4965 151.079 3.9627C151.54 4.4289 152.001 4.54545 152.578 4.54545C153.155 4.54545 153.616 4.31235 154.077 3.9627C154.423 3.61305 154.654 3.0303 154.654 2.44755ZM154.885 2.44755C154.885 3.14685 154.654 3.7296 154.193 4.1958C153.731 4.662 153.155 4.8951 152.463 4.8951C151.771 4.8951 151.194 4.662 150.733 4.1958C150.272 3.7296 150.041 3.14685 150.041 2.44755C150.041 1.74825 150.272 1.1655 150.733 0.699301C151.194 0.2331 151.771 0 152.463 0C153.155 0 153.731 0.2331 154.193 0.699301C154.654 1.28205 154.885 1.8648 154.885 2.44755ZM146.466 47.9021L148.426 47.7855C148.542 48.2517 148.772 48.4848 149.118 48.7179C149.464 48.951 149.926 48.951 150.618 48.951C151.31 48.951 151.771 48.8345 152.117 48.7179C152.463 48.6014 152.578 48.3683 152.578 48.1352C152.578 48.0186 152.463 47.9021 152.347 47.7855C152.232 47.669 152.001 47.5524 151.656 47.5524C151.425 47.5524 150.848 47.4359 150.041 47.3193C149.003 47.2028 148.196 46.9697 147.734 46.7366C147.158 46.3869 146.812 46.0373 146.812 45.4545C146.812 45.1049 146.927 44.8718 147.273 44.5221C147.619 44.289 147.965 44.0559 148.542 43.9394C149.118 43.8228 149.695 43.7063 150.502 43.7063C151.771 43.7063 152.693 43.8228 153.385 44.1725C154.077 44.5221 154.308 44.9883 154.423 45.5711H152.347C152.232 45.2214 152.117 44.9883 151.771 44.8718C151.54 44.7552 151.079 44.6387 150.502 44.6387C149.926 44.6387 149.464 44.7552 149.118 44.8718C148.888 44.9883 148.772 45.1049 148.772 45.2214C148.772 45.338 148.888 45.4545 149.118 45.5711C149.349 45.6876 150.041 45.8042 150.964 46.0373C152.001 46.1538 152.693 46.2704 153.155 46.5035C153.616 46.62 153.962 46.8531 154.308 47.0862C154.539 47.3193 154.654 47.669 154.654 48.0186C154.654 48.3683 154.539 48.7179 154.193 49.0676C153.847 49.4172 153.385 49.6503 152.809 49.7669C152.232 49.8834 151.54 50 150.618 50C149.349 50 148.311 49.7669 147.619 49.4172C147.042 49.0676 146.581 48.6014 146.466 47.9021ZM138.854 46.3869H140.353C141.276 46.3869 141.968 46.3869 142.199 46.2704C142.429 46.2704 142.66 46.1538 142.775 46.0373C142.891 45.9207 143.006 45.8042 143.006 45.5711C143.006 45.338 142.891 45.2214 142.775 45.1049C142.545 44.9883 142.314 44.8718 141.968 44.8718C141.853 44.8718 141.276 44.8718 140.469 44.8718H138.854V46.3869ZM136.778 49.8834V43.7063H141.045C142.083 43.7063 142.891 43.7063 143.352 43.8228C143.813 43.9394 144.275 44.1725 144.505 44.4056C144.851 44.6387 144.967 44.9883 144.967 45.338C144.967 45.8042 144.736 46.1538 144.275 46.5035C143.813 46.8531 143.121 46.9697 142.314 47.0862C142.775 47.2028 143.121 47.4359 143.352 47.5524C143.583 47.7855 144.044 48.0186 144.505 48.6014L145.774 49.7669H143.352L141.853 48.3683C141.276 47.9021 140.93 47.5524 140.815 47.4359C140.584 47.3193 140.469 47.2028 140.238 47.2028C140.007 47.2028 139.661 47.0862 139.2 47.0862H138.739V49.6503H136.778V49.8834ZM127.437 49.8834V43.7063H134.933V44.7552H129.513V46.1538H134.587V47.2028H129.513V48.8345H135.164V49.8834H127.437ZM121.094 49.8834V44.7552H118.095V43.7063H126.168V44.7552H123.17V49.8834H121.094ZM111.291 49.8834V43.8228H113.367V48.8345H118.441V49.8834H111.291ZM107.254 43.7063H109.33V49.8834H107.254V43.7063ZM98.7202 49.8834V43.7063H105.64V44.7552H100.796V46.1538H104.948V47.2028H100.681V49.7669H98.7202V49.8834ZM85.3423 49.8834V43.7063H92.8385V44.7552H87.4182V46.1538H92.4926V47.2028H87.4182V48.8345H93.0692V49.8834H85.3423ZM78.5379 49.8834L74.9628 43.7063H77.154L79.6912 48.2517L82.1131 43.7063H84.3043L80.7292 49.8834H78.5379ZM71.9643 43.7063H74.0402V49.8834H71.9643V43.7063ZM65.7366 49.8834V44.7552H62.7381V43.7063H70.811V44.7552H67.8125V49.8834H65.7366ZM54.2039 46.8531C54.2039 47.5524 54.4345 48.1352 55.0112 48.4848C55.5878 48.8345 56.1644 49.0676 56.9717 49.0676C57.779 49.0676 58.471 48.8345 58.9323 48.4848C59.5089 48.1352 59.7396 47.5524 59.7396 46.8531C59.7396 46.1538 59.5089 45.5711 58.9323 45.2214C58.471 44.8718 57.779 44.7552 56.8564 44.7552C56.0491 44.7552 55.3571 44.9883 54.7805 45.338C54.4345 45.5711 54.2039 46.1538 54.2039 46.8531ZM52.0126 46.8531C52.0126 46.2704 52.128 45.6876 52.474 45.2214C52.7046 44.8718 53.0506 44.6387 53.3966 44.4056C53.7426 44.1725 54.2039 43.9394 54.6652 43.8228C55.2418 43.7063 56.0491 43.5897 56.8564 43.5897C58.3557 43.5897 59.5089 43.8228 60.4315 44.4056C61.3542 44.9883 61.8155 45.8042 61.8155 46.7366C61.8155 47.7855 61.3542 48.4848 60.4315 49.0676C59.5089 49.6503 58.3557 49.8834 56.8564 49.8834C55.3571 49.8834 54.2039 49.6503 53.2812 49.0676C52.474 48.6014 52.0126 47.7855 52.0126 46.8531ZM40.7106 49.8834V43.7063H43.7091L45.5543 47.9021L47.3996 43.7063H50.5134V49.8834H48.6682V44.9883L46.7076 49.8834H44.747L42.7865 44.9883V49.8834H40.7106ZM31.4844 46.8531C31.4844 47.5524 31.715 48.1352 32.2917 48.4848C32.8683 48.8345 33.4449 49.0676 34.2522 49.0676C35.0595 49.0676 35.7515 48.8345 36.2128 48.4848C36.7894 48.1352 37.0201 47.5524 37.0201 46.8531C37.0201 46.1538 36.7894 45.5711 36.2128 45.2214C35.7515 44.8718 35.0595 44.7552 34.1369 44.7552C33.3296 44.7552 32.6376 44.9883 32.061 45.338C31.715 45.5711 31.4844 46.1538 31.4844 46.8531ZM29.2932 46.8531C29.2932 46.2704 29.4085 45.6876 29.7545 45.2214C29.9851 44.8718 30.3311 44.6387 30.6771 44.4056C31.0231 44.1725 31.4844 43.9394 31.9457 43.8228C32.5223 43.7063 33.3296 43.5897 34.1369 43.5897C35.6362 43.5897 36.7894 43.8228 37.7121 44.4056C38.6347 44.9883 39.096 45.8042 39.096 46.7366C39.096 47.7855 38.6347 48.4848 37.7121 49.0676C36.7894 49.6503 35.6362 49.8834 34.1369 49.8834C32.6376 49.8834 31.4844 49.6503 30.5618 49.0676C29.7545 48.6014 29.2932 47.7855 29.2932 46.8531ZM23.6421 49.8834V44.7552H20.6436V43.7063H28.7165V44.7552H25.718V49.8834H23.6421ZM11.1868 43.7063H13.2626V47.0862C13.2626 47.669 13.2626 47.9021 13.378 48.1352C13.4933 48.3683 13.724 48.6014 13.9546 48.7179C14.3006 48.8345 14.7619 48.951 15.3385 48.951C15.9152 48.951 16.3765 48.8345 16.6071 48.7179C16.9531 48.6014 17.0685 48.3683 17.1838 48.1352C17.2991 47.9021 17.2991 47.5524 17.2991 47.0862V43.7063H19.375V46.9697C19.375 47.669 19.375 48.2517 19.2597 48.4848C19.1443 48.8345 18.9137 49.0676 18.683 49.3007C18.3371 49.5338 17.9911 49.6503 17.5298 49.7669C17.0685 49.8834 16.3765 50 15.5692 50C14.6466 50 13.8393 49.8834 13.378 49.7669C12.9167 49.6503 12.4554 49.4172 12.2247 49.1841C11.8787 48.951 11.7634 48.7179 11.6481 48.4848C11.5327 48.1352 11.4174 47.669 11.4174 46.9697V43.7063H11.1868ZM6.34301 47.4359L4.95908 45.1049L3.57515 47.4359H6.34301ZM10.1488 49.8834H7.95759L7.03497 48.4848H2.99851L2.19122 49.8834H0L3.92113 43.7063H6.11235L10.1488 49.8834ZM66.1979 13.1702H79.4606V18.4149H74.0402V23.31H78.8839V28.3217H74.0402V39.2774H66.1979V13.1702Z" fill="white"/>
</svg>
