<?xml version="1.0" encoding="UTF-8" standalone="no"?>
<!-- Created with Inkscape (http://www.inkscape.org/) -->

<svg
   xmlns:dc="http://purl.org/dc/elements/1.1/"
   xmlns:cc="http://creativecommons.org/ns#"
   xmlns:rdf="http://www.w3.org/1999/02/22-rdf-syntax-ns#"
   xmlns:svg="http://www.w3.org/2000/svg"
   xmlns="http://www.w3.org/2000/svg"
   xmlns:sodipodi="http://sodipodi.sourceforge.net/DTD/sodipodi-0.dtd"
   xmlns:inkscape="http://www.inkscape.org/namespaces/inkscape"
   width="21.85811mm"
   height="4.2513299mm"
   viewBox="0 0 21.85811 4.2513299"
   version="1.1"
   id="svg4852"
   inkscape:version="0.92.0 r15299"
   sodipodi:docname="ford motorcraft.svg">
  <defs
     id="defs4846">
    <clipPath
       id="clipPath1895"
       clipPathUnits="userSpaceOnUse">
      <path
         inkscape:connector-curvature="0"
         id="path1893"
         d="m 664.156,311.488 h 62.248 v 12.492 h -62.248 z" />
    </clipPath>
  </defs>
  <sodipodi:namedview
     id="base"
     pagecolor="#ffffff"
     bordercolor="#666666"
     borderopacity="1.0"
     inkscape:pageopacity="0.0"
     inkscape:pageshadow="2"
     inkscape:zoom="10.857812"
     inkscape:cx="41.306665"
     inkscape:cy="8.0340094"
     inkscape:document-units="mm"
     inkscape:current-layer="layer1"
     showgrid="false"
     fit-margin-top="0"
     fit-margin-left="0"
     fit-margin-right="0"
     fit-margin-bottom="0"
     inkscape:window-width="1280"
     inkscape:window-height="744"
     inkscape:window-x="-4"
     inkscape:window-y="-4"
     inkscape:window-maximized="1" />
  <metadata
     id="metadata4849">
    <rdf:RDF>
      <cc:Work
         rdf:about="">
        <dc:format>image/svg+xml</dc:format>
        <dc:type
           rdf:resource="http://purl.org/dc/dcmitype/StillImage" />
        <dc:title></dc:title>
      </cc:Work>
    </rdf:RDF>
  </metadata>
  <g
     inkscape:label="Layer 1"
     inkscape:groupmode="layer"
     id="layer1"
     transform="translate(-19.30904,-37.850525)">
    <g
       id="g4999">
      <path
         inkscape:connector-curvature="0"
         id="path1881"
         style="fill:#000000;fill-opacity:1;fill-rule:nonzero;stroke:none;stroke-width:0.35277778"
         d="m 19.30904,42.101855 h 6.51828 v -4.25133 h -6.51828 z" />
      <path
         inkscape:connector-curvature="0"
         id="path1883"
         style="fill:#e32726;fill-opacity:1;fill-rule:nonzero;stroke:none;stroke-width:0.35277778"
         d="m 26.14834,42.101855 h 15.01881 v -4.25133 H 26.14834 Z" />
      <path
         d="m 27.40516,39.103753 h 0.51435 l 0.4826,1.215672 0.483306,-1.215672 h 0.511527 v 1.780469 h -0.384527 v -1.189566 l -0.478014,1.189566 H 28.236657 L 27.76076,39.702064 v 1.182158 h -0.3556 z"
         style="fill:#ffffff;fill-opacity:1;fill-rule:nonzero;stroke:none;stroke-width:0.35277778"
         id="path1887"
         inkscape:connector-curvature="0" />
      <path
         d="m 30.60495,40.21132 c 0,-0.230717 -0.07197,-0.375003 -0.331258,-0.375003 -0.26282,0 -0.33267,0.144286 -0.33267,0.375003 0,0.230717 0.06985,0.377119 0.33267,0.377119 0.259291,0 0.331258,-0.146402 0.331258,-0.377119 m -1.043517,-0.0095 c 0,-0.456494 0.19932,-0.708731 0.712259,-0.708731 0.511527,0 0.70873,0.252237 0.70873,0.708731 0,0.456494 -0.197203,0.708731 -0.70873,0.708731 -0.512939,0 -0.712259,-0.252237 -0.712259,-0.708731"
         style="fill:#ffffff;fill-opacity:1;fill-rule:nonzero;stroke:none;stroke-width:0.35277778"
         id="path1899"
         inkscape:connector-curvature="0" />
      <path
         d="m 31.027508,39.524214 h 0.240242 l 0.06491,-0.331611 0.293158,-0.05997 v 0.391583 h 0.322086 V 39.8463 h -0.322086 v 0.559506 c 0,0.105833 0.01446,0.163336 0.175331,0.163336 h 0.146755 v 0.31503 c -0.05539,0.0046 -0.15628,0.0046 -0.223661,0.0046 -0.367594,0 -0.473075,-0.124883 -0.473075,-0.427566 V 39.8463 h -0.223661 z"
         style="fill:#ffffff;fill-opacity:1;fill-rule:nonzero;stroke:none;stroke-width:0.35277778"
         id="path1903"
         inkscape:connector-curvature="0" />
      <path
         d="m 33.059825,40.21132 c 0,-0.230717 -0.07232,-0.375003 -0.331611,-0.375003 -0.261761,0 -0.331611,0.144286 -0.331611,0.375003 0,0.230717 0.06985,0.377119 0.331611,0.377119 0.259292,0 0.331611,-0.146402 0.331611,-0.377119 m -1.042811,-0.0095 c 0,-0.456494 0.199319,-0.708731 0.7112,-0.708731 0.51188,0 0.70873,0.252237 0.70873,0.708731 0,0.456494 -0.19685,0.708731 -0.70873,0.708731 -0.511881,0 -0.7112,-0.252237 -0.7112,-0.708731"
         style="fill:#ffffff;fill-opacity:1;fill-rule:nonzero;stroke:none;stroke-width:0.35277778"
         id="path1907"
         inkscape:connector-curvature="0" />
      <path
         d="m 33.580102,39.54584 0.293158,-0.02152 0.03845,0.148872 c 0.0575,-0.08643 0.223308,-0.156281 0.434975,-0.163336 v 0.360186 c -0.319617,0.0025 -0.389467,0.127353 -0.389467,0.341136 v 0.672747 h -0.377119 z"
         style="fill:#ffffff;fill-opacity:1;fill-rule:nonzero;stroke:none;stroke-width:0.35277778"
         id="path1911"
         inkscape:connector-curvature="0" />
      <path
         d="m 34.392302,40.201724 c 0,-0.394053 0.127353,-0.708731 0.713317,-0.708731 0.24518,0 0.427919,0.08185 0.552802,0.220839 l -0.26423,0.25012 c -0.05786,-0.06032 -0.134408,-0.124884 -0.288572,-0.124884 -0.268817,0 -0.333728,0.146403 -0.333728,0.372181 0,0.225778 0.05997,0.377119 0.33655,0.377119 0.127,0 0.211314,-0.04057 0.307269,-0.131938 l 0.240242,0.230716 c -0.158397,0.146403 -0.293158,0.218722 -0.566914,0.218722 -0.562328,0 -0.696736,-0.305152 -0.696736,-0.704144"
         style="fill:#ffffff;fill-opacity:1;fill-rule:nonzero;stroke:none;stroke-width:0.35277778"
         id="path1915"
         inkscape:connector-curvature="0" />
      <path
         d="m 35.755506,39.54584 0.293158,-0.02152 0.03845,0.148872 c 0.0575,-0.08643 0.223308,-0.156281 0.434622,-0.163336 v 0.360186 c -0.319616,0.0025 -0.389114,0.127353 -0.389114,0.341136 v 0.672747 h -0.377119 z"
         style="fill:#ffffff;fill-opacity:1;fill-rule:nonzero;stroke:none;stroke-width:0.35277778"
         id="path1919"
         inkscape:connector-curvature="0" />
      <path
         d="m 37.460446,40.319446 v -0.05045 h -0.03104 c -0.480837,0 -0.538339,0.03845 -0.538339,0.184855 0,0.101248 0.05539,0.149225 0.228247,0.149225 0.238125,0 0.341136,-0.08431 0.341136,-0.283633 m -0.927453,0.165806 c 0,-0.384528 0.26917,-0.475545 0.87242,-0.475545 h 0.05503 c -0.0025,-0.122767 -0.03351,-0.185208 -0.269169,-0.185208 -0.165806,0 -0.312209,0.05997 -0.394053,0.110419 L 36.6099,39.65869 c 0.09631,-0.06491 0.33655,-0.165805 0.6223,-0.165805 0.490008,0 0.591255,0.15628 0.591255,0.540455 v 0.413456 c 0,0.108303 0.0071,0.124883 0.117475,0.124883 v 0.307622 c -0.02646,0.0071 -0.07444,0.0095 -0.158397,0.0095 -0.144286,0 -0.206728,-0.02893 -0.259644,-0.134408 -0.06985,0.09349 -0.220839,0.151342 -0.478014,0.151342 -0.420511,0 -0.511881,-0.182739 -0.511881,-0.420511"
         style="fill:#ffffff;fill-opacity:1;fill-rule:nonzero;stroke:none;stroke-width:0.35277778"
         id="path1923"
         inkscape:connector-curvature="0" />
      <path
         d="M 39.050803,40.461298 V 39.846406 H 38.57032 v 1.03752 h -0.375003 v -1.03752 H 37.938495 V 39.52432 h 0.256822 v -0.06491 c 0,-0.310092 0.113242,-0.482953 0.51435,-0.482953 0.0889,0 0.136878,0.0025 0.179917,0.0049 v 0.30727 h -0.12947 c -0.153811,0 -0.189794,0.06032 -0.189794,0.168275 v 0.06738 h 0.497416 l 0.06491,-0.331611 0.293159,-0.05997 v 0.391583 h 0.321733 v 0.322086 h -0.321733 v 0.559506 c 0,0.105833 0.01411,0.163336 0.1778,0.163336 h 0.143933 v 0.314678 c -0.05539,0.0049 -0.15628,0.0049 -0.223308,0.0049 -0.367595,0 -0.473428,-0.124884 -0.473428,-0.427567"
         style="fill:#ffffff;fill-opacity:1;fill-rule:nonzero;stroke:none;stroke-width:0.35277778"
         id="path1927"
         inkscape:connector-curvature="0" />
      <path
         d="m 39.996071,40.731596 c 0.02399,0 0.0321,-0.0056 0.0321,-0.02646 0,-0.02081 -0.0081,-0.02646 -0.03246,-0.02646 h -0.04727 v 0.05292 z m -0.0056,0.03281 h -0.04198 v 0.0628 h -0.0381 v -0.182034 h 0.08714 c 0.05927,0 0.06985,0.02399 0.06985,0.05891 0,0.0254 -0.0063,0.04798 -0.0381,0.0568 l 0.03669,0.06632 h -0.04092 z m 0.11818,-0.02893 c 0,-0.07267 -0.03528,-0.130528 -0.12453,-0.130528 -0.08961,0 -0.124531,0.05786 -0.124531,0.130528 0,0.07302 0.03493,0.130527 0.124531,0.130527 0.08925,0 0.12453,-0.0575 0.12453,-0.130527 m -0.27305,0 c 0,-0.08608 0.04939,-0.153106 0.14852,-0.153106 0.09913,0 0.148872,0.06703 0.148872,0.153106 0,0.08678 -0.04974,0.153458 -0.148872,0.153458 -0.09913,0 -0.14852,-0.06667 -0.14852,-0.153458"
         style="fill:#ffffff;fill-opacity:1;fill-rule:nonzero;stroke:none;stroke-width:0.35277778"
         id="path1931"
         inkscape:connector-curvature="0" />
      <path
         d="m 23.63064,40.197456 c 7.06e-4,0.0046 0.0067,0.0092 0.0127,0.01129 0.0021,7.05e-4 0.0032,0.0021 7.06e-4,0.0071 -0.01658,0.03598 -0.0321,0.0568 -0.05327,0.08784 -0.01905,0.02893 -0.04092,0.05151 -0.06738,0.07338 -0.03986,0.03281 -0.09525,0.06879 -0.141112,0.04445 -0.02011,-0.01058 -0.02893,-0.03881 -0.02858,-0.06174 0.0011,-0.06491 0.02963,-0.131234 0.0829,-0.196497 0.06491,-0.07973 0.136525,-0.121356 0.183445,-0.09878 0.04868,0.02328 0.03316,0.07973 0.01164,0.123825 -0.0018,0.0035 -0.0018,0.0063 -0.0011,0.0092 M 24.1527,39.693052 c 0.0035,-0.006 0,-0.01058 -0.0081,-0.01058 -0.04057,0 -0.09384,0 -0.136172,0 -0.01023,0 -0.01517,0.0014 -0.02011,0.01058 -0.01552,0.02999 -0.206023,0.315736 -0.2413,0.371122 -0.006,0.0085 -0.01341,0.0071 -0.01446,-0.0025 -0.0035,-0.03281 -0.03175,-0.07091 -0.07655,-0.0889 -0.03422,-0.01376 -0.06773,-0.01623 -0.102306,-0.01164 -0.06279,0.0085 -0.118533,0.04127 -0.167569,0.07867 -0.07408,0.05609 -0.137583,0.129117 -0.220133,0.183092 -0.0448,0.02928 -0.106539,0.05468 -0.147814,0.01658 -0.03704,-0.03457 -0.03281,-0.111478 0.02399,-0.170745 0.006,-0.0063 0.0134,-0.0011 0.01235,0.0046 -0.0056,0.02681 0.0011,0.05362 0.02152,0.07232 0.02469,0.02222 0.06032,0.02469 0.09102,0.0099 0.03598,-0.01799 0.05715,-0.05221 0.06315,-0.09137 0.0095,-0.06068 -0.03704,-0.113947 -0.0956,-0.118181 -0.04727,-0.0035 -0.09278,0.01305 -0.136877,0.04974 -0.02222,0.01835 -0.03493,0.03175 -0.05433,0.05927 -0.0046,0.0067 -0.01164,0.0074 -0.01164,-0.0025 0.0025,-0.07761 -0.02963,-0.121355 -0.09384,-0.122766 -0.04974,-0.0011 -0.103011,0.02575 -0.144639,0.05891 -0.04551,0.03634 -0.08502,0.08502 -0.127705,0.130175 -0.0053,0.0056 -0.0099,0.0056 -0.01129,-0.0053 -0.0014,-0.05151 -0.01446,-0.101247 -0.0381,-0.136525 -0.0085,-0.01235 -0.02611,-0.0187 -0.04092,-0.01023 -0.0071,0.0039 -0.03104,0.01482 -0.04833,0.02893 -0.0088,0.0071 -0.01199,0.01729 -0.0081,0.03034 0.02293,0.07691 0.01799,0.164394 -0.0134,0.238125 -0.02858,0.06738 -0.08431,0.128411 -0.149578,0.148872 -0.04304,0.01376 -0.08784,0.0071 -0.115358,-0.03104 -0.0381,-0.05256 -0.02293,-0.144286 0.03387,-0.220486 0.0501,-0.06703 0.122414,-0.109361 0.194734,-0.136878 0.0085,-0.0032 0.01023,-0.0088 0.0078,-0.01588 -0.0039,-0.01199 -0.01023,-0.02822 -0.0127,-0.03528 -0.0067,-0.01764 -0.02505,-0.02081 -0.04763,-0.01834 -0.05256,0.0063 -0.09984,0.02434 -0.146756,0.04939 -0.122414,0.06526 -0.183797,0.192263 -0.210608,0.259997 -0.01305,0.03281 -0.02399,0.05327 -0.03845,0.07126 -0.01905,0.02399 -0.04339,0.04621 -0.08784,0.08502 -0.0039,0.0035 -0.0067,0.01094 -0.0035,0.01799 0.0046,0.0095 0.02752,0.04198 0.03422,0.0448 0.0071,0.0035 0.01552,-0.0014 0.0187,-0.0039 0.03104,-0.02081 0.06809,-0.05433 0.08643,-0.0769 0.0064,-0.0078 0.0127,-0.0042 0.01623,0.0074 0.01693,0.06032 0.06138,0.109714 0.122414,0.130175 0.112536,0.0381 0.228952,-0.01693 0.316794,-0.112183 0.05574,-0.06068 0.07585,-0.09948 0.09737,-0.125942 0.03634,-0.04516 0.107597,-0.145697 0.192969,-0.210256 0.0314,-0.02364 0.06844,-0.04198 0.08678,-0.02999 0.01517,0.0099 0.01976,0.0321 -0.0042,0.07585 -0.08678,0.15875 -0.214489,0.345016 -0.238125,0.390172 -0.0042,0.0081 -3.53e-4,0.01411 0.0078,0.01411 0.04551,0 0.09031,0 0.131939,0 0.0067,-3.53e-4 0.0099,-0.0035 0.01305,-0.0085 0.06703,-0.104422 0.129469,-0.203553 0.19685,-0.306211 0.0039,-0.0064 0.0074,-0.0014 0.0074,0.0011 0.0014,0.02399 0.0074,0.05645 0.02152,0.07796 0.0254,0.03951 0.06138,0.05645 0.101247,0.0568 0.03175,3.52e-4 0.04798,-0.0046 0.0822,-0.01729 0.02787,-0.01023 0.05045,-0.02399 0.06738,-0.03634 0.01023,-0.0067 0.01199,0.0049 0.01164,0.0067 -0.01517,0.0829 0.0035,0.180975 0.08608,0.221545 0.09842,0.04868 0.206728,-0.0194 0.26917,-0.08114 0.006,-0.006 0.0127,-0.0053 0.0134,0.0074 0.0011,0.02364 0.01164,0.05151 0.0314,0.07091 0.05221,0.05256 0.157339,0.03175 0.263173,-0.05009 0.06773,-0.05256 0.138994,-0.126295 0.2032,-0.204964 0.0025,-0.0028 0.0042,-0.0078 -7.06e-4,-0.0127 -0.0095,-0.01023 -0.02364,-0.02187 -0.03351,-0.03104 -0.0042,-0.0035 -0.01094,-0.0025 -0.01446,3.52e-4 -0.06597,0.06244 -0.125236,0.133703 -0.210608,0.192617 -0.02893,0.02011 -0.07479,0.03634 -0.0956,0.0085 -0.0081,-0.01058 -0.0071,-0.02575 0.0011,-0.04551 0.0247,-0.06209 0.419806,-0.663575 0.440267,-0.699205"
         style="fill:#ffffff;fill-opacity:1;fill-rule:nonzero;stroke:none;stroke-width:0.35277778"
         id="path1935"
         inkscape:connector-curvature="0" />
      <path
         d="m 22.294353,39.765691 c 0.0018,0.0088 0.0053,0.01058 0.0092,0.0099 0.02011,-0.0039 0.04233,-0.02046 0.05503,-0.03986 0.01199,-0.01729 0.01764,-0.04233 0.006,-0.05256 -0.01058,-0.0088 -0.02787,-0.0063 -0.04057,0.0049 -0.02505,0.02222 -0.03281,0.05398 -0.02963,0.07761 m -1.006828,0.773994 c -0.147108,0.0011 -0.27693,-0.08996 -0.291747,-0.247297 -0.0085,-0.08749 0.01623,-0.1651 0.06562,-0.229305 0.0441,-0.05715 0.11818,-0.104775 0.180975,-0.116064 0.02046,-0.0039 0.04798,-0.0014 0.05927,0.01199 0.01764,0.02081 0.0127,0.04339 -0.0053,0.05256 -0.04763,0.02434 -0.105481,0.06632 -0.134056,0.123472 -0.02293,0.04657 -0.02787,0.103011 0.0078,0.156634 0.05891,0.08925 0.224014,0.09172 0.37712,-0.0508 0.0381,-0.03492 0.07197,-0.06844 0.106539,-0.10795 0.06738,-0.07726 0.08996,-0.105481 0.179563,-0.230011 0.0011,-0.0014 0.0014,-0.0032 0.0011,-0.0042 -7.06e-4,-0.0014 -0.0021,-0.0018 -0.0046,-0.0021 -0.05997,0.0018 -0.112184,0.01976 -0.162984,0.0575 -0.01446,0.01058 -0.03563,0.0092 -0.0448,-0.0049 -0.01023,-0.01588 -0.0028,-0.03634 0.01376,-0.04798 0.08184,-0.0568 0.171097,-0.06738 0.262114,-0.08255 0,0 0.0064,3.52e-4 0.01164,-0.0067 0.0374,-0.04798 0.06562,-0.09137 0.105481,-0.1397 0.04022,-0.04939 0.09208,-0.09454 0.131586,-0.128411 0.05539,-0.04762 0.09102,-0.06385 0.127,-0.08326 0.0095,-0.0049 -0.0011,-0.01094 -0.0042,-0.01094 -0.201084,-0.0381 -0.410634,-0.08678 -0.610659,-0.0127 -0.138288,0.05151 -0.198966,0.16122 -0.170038,0.23495 0.02081,0.05186 0.08925,0.06032 0.153458,0.02893 0.05327,-0.02611 0.102658,-0.06809 0.137583,-0.122061 0.0194,-0.03034 0.06068,-0.0085 0.03845,0.04374 -0.05856,0.137584 -0.170392,0.246592 -0.306564,0.251178 -0.116064,0.0039 -0.190853,-0.08149 -0.1905,-0.186619 3.53e-4,-0.207434 0.231422,-0.344312 0.474133,-0.364773 0.292453,-0.02399 0.569384,0.05398 0.85972,0.0889 0.22225,0.02716 0.435328,0.02752 0.658989,-0.02364 0.02646,-0.006 0.04516,0.01094 0.04339,0.03775 -0.0025,0.03845 -0.0321,0.07585 -0.105833,0.116064 -0.08361,0.04586 -0.17145,0.05962 -0.262819,0.06032 -0.221192,0.0018 -0.427214,-0.08431 -0.640645,-0.130527 3.53e-4,0.0092 0.0028,0.02046 -0.0049,0.02611 -0.11818,0.08714 -0.225072,0.175683 -0.296333,0.299861 -0.0025,0.0032 -0.0011,0.0056 0.0028,0.0053 0.06209,-0.0032 0.118181,-0.0046 0.176036,-0.0092 0.01023,-0.0011 0.01058,-0.0035 0.0095,-0.01094 -0.0049,-0.04304 0.0074,-0.09172 0.04516,-0.125237 0.03845,-0.03457 0.08678,-0.03845 0.118886,-0.01376 0.03634,0.02858 0.03316,0.07937 0.01305,0.117828 -0.02011,0.0388 -0.05362,0.05927 -0.08573,0.0695 0,0 -0.0067,0.0014 -0.0056,0.0078 0.0011,0.0095 0.04516,0.03387 0.04868,0.04022 0.0035,0.0063 0.0018,0.01588 -0.0049,0.02293 -0.0046,0.0056 -0.01199,0.01058 -0.02117,0.01023 -0.0074,0 -0.01199,-0.0028 -0.02152,-0.0078 -0.01976,-0.01094 -0.0441,-0.02822 -0.06068,-0.04904 -0.0056,-0.0067 -0.0085,-0.0071 -0.02223,-0.0064 -0.06279,0.0039 -0.160514,0.0134 -0.226836,0.02152 -0.01623,0.0021 -0.01835,0.0049 -0.02187,0.01058 -0.105481,0.174272 -0.21837,0.36195 -0.342195,0.487891 -0.132644,0.134761 -0.243417,0.170392 -0.360539,0.171097"
         style="fill:#ffffff;fill-opacity:1;fill-rule:nonzero;stroke:none;stroke-width:0.35277778"
         id="path1939"
         inkscape:connector-curvature="0" />
      <path
         d="m 22.568249,39.13436 c -1.306336,0 -2.368903,0.391583 -2.368903,0.855486 0,0.463903 1.062567,0.843139 2.368903,0.843139 1.306689,0 2.369256,-0.379236 2.369256,-0.843139 0,-0.463903 -1.062567,-0.855486 -2.369256,-0.855486 m 0,1.768475 c -1.353961,0 -2.451806,-0.411339 -2.451806,-0.919339 0,-0.507647 1.097845,-0.919339 2.451806,-0.919339 1.353961,0 2.451453,0.411692 2.451453,0.919339 0,0.508 -1.097492,0.919339 -2.451453,0.919339"
         style="fill:#ffffff;fill-opacity:1;fill-rule:nonzero;stroke:none;stroke-width:0.35277778"
         id="path1943"
         inkscape:connector-curvature="0" />
    </g>
  </g>
</svg>
