<?xml version="1.0" encoding="UTF-8" standalone="no"?>
<svg id="Layer_1" style="enable-background:new 0 0 404 262" xmlns="http://www.w3.org/2000/svg" xml:space="preserve" viewBox="0 0 404 262" version="1.1" y="0px" x="0px" xmlns:xlink="http://www.w3.org/1999/xlink"><style type="text/css">.st0{fill:#E41E0A;}.st1{fill:#565655;}</style><path class="st0" d="m352.5 1.9v3.3h5.4v17.1h3.6v-17.1h5.5v-3.3h-14.5zm33.6 0l-6 11.6-6-11.6h-3.7v20.4h3.7v-13.4l4.3 8.5h3.4l4.3-8.5v13.3h3.7v-20.3h-3.7z"/><path class="st0" d="m264.8 1.9h83.2l-44 79.8 43 89.4h-82.3l-36-75.1v75.1h-78.2v-126.3c0-5.3-4-9.5-8.9-9.5s-8.9 4.3-8.9 9.5v126.3h-76.7v-169.2h148.7c13.3 0 24 11.5 24 25.7v39.7l36.1-65.4z"/><polygon points="15.1 233.5 15.1 260.1 10.4 260.1 10.4 233.5 2 233.5 2 229.3 23.5 229.3 23.5 233.5" class="st1"/><polygon points="45.9 260.1 45.9 246.7 33.5 246.7 33.5 260.1 28.8 260.1 28.8 229.3 33.5 229.3 33.5 242.5 45.9 242.5 45.9 229.3 50.6 229.3 50.6 260.1" class="st1"/><polygon points="58.6 260.1 58.6 229.3 78.2 229.3 78.2 233.5 63.3 233.5 63.3 242.5 76 242.5 76 246.7 63.3 246.7 63.3 255.9 78.2 255.9 78.2 260.1" class="st1"/><path class="st1" d="m111.9 260.1l-6.5-13h-5.8v13h-4.7v-30.8h11.9c5.8 0 9.5 3.8 9.5 9 0 4.4-2.7 7.2-6.1 8.2l7.1 13.6h-5.4zm-5.4-26.6h-6.9v9.7h6.9c3.1 0 5.2-1.8 5.2-4.8 0-3.1-2.1-4.9-5.2-4.9"/><polygon points="123.2 260.1 123.2 229.3 142.8 229.3 142.8 233.5 127.8 233.5 127.8 242.5 140.6 242.5 140.6 246.7 127.8 246.7 127.8 255.9 142.8 255.9 142.8 260.1" class="st1"/><polygon points="149.1 260.1 149.1 229.3 153.8 229.3 153.8 255.9 168.6 255.9 168.6 260.1" class="st1"/><rect y="229.3" x="173.9" height="30.8" class="st1" width="4.7"/><path class="st1" d="m204.1 260.1l-2.1-6.2h-12.1l-2.1 6.2h-5l11.2-30.8h3.7l11.2 30.8h-4.8zm-8-23.8l-4.8 13.7h9.4l-4.6-13.7z"/><path class="st1" d="m225.9 260.1h-12.4v-30.8h11.9c5.7 0 9.3 3.2 9.3 8.4 0 3.3-2.1 5.7-4.1 6.5 2.4 1 4.6 3.2 4.6 7.1-0.1 5.8-3.9 8.8-9.3 8.8m-0.9-26.6h-6.9v8.8h6.9c3 0 5-1.6 5-4.4s-2-4.4-5-4.4m0.4 13h-7.3v9.4h7.3c3.2 0 5-2 5-4.7 0.1-2.7-1.7-4.7-5-4.7"/><polygon points="242 260.1 242 229.3 246.7 229.3 246.7 255.9 261.5 255.9 261.5 260.1" class="st1"/><polygon points="266.8 260.1 266.8 229.3 286.4 229.3 286.4 233.5 271.4 233.5 271.4 242.5 284.2 242.5 284.2 246.7 271.4 246.7 271.4 255.9 286.4 255.9 286.4 260.1" class="st1"/><path class="st1" d="m314.7 248h-7v12.1h-4.7v-30.8h11.6c6 0 9.8 4 9.8 9.3 0.1 5.4-3.7 9.4-9.7 9.4m-0.3-14.5h-6.7v10.3h6.7c3.2 0 5.4-1.9 5.4-5.1 0.1-3.3-2.1-5.2-5.4-5.2"/><path class="st1" d="m345.6 260.1l-2.1-6.2h-12.1l-2.1 6.2h-5l11.2-30.8h3.7l11.2 30.8h-4.8zm-8-23.8l-4.8 13.7h9.4l-4.6-13.7z"/><path class="st1" d="m371.9 260.1l-6.5-13h-5.8v13h-4.7v-30.8h11.9c5.8 0 9.5 3.8 9.5 9 0 4.4-2.7 7.2-6.1 8.2l7.1 13.6h-5.4zm-5.4-26.6h-6.9v9.7h6.9c3.1 0 5.2-1.8 5.2-4.8 0-3.1-2.1-4.9-5.2-4.9"/><polygon points="393.6 233.5 393.6 260.1 388.9 260.1 388.9 233.5 380.5 233.5 380.5 229.3 402 229.3 402 233.5" class="st1"/></svg>
