<?xml version="1.0" encoding="utf-8"?>
<svg id="Template_Capture.png" data-name="Template Capture.png" viewBox="0 45 969.4 141.52" fill="#fff" xmlns="http://www.w3.org/2000/svg">
<path fill="#fff" d="M 249.873 124.644 L 249.873 116.887 C 265.93 114.68 279.766 108.588 279.21 89.215 C 279.21 72.603 265.375 67.62 249.873 66.523 L 249.873 59.877 L 252.079 59.877 C 273.118 59.877 299.694 61.542 300.791 88.103 C 301.345 108.588 289.73 117.44 273.673 121.869 C 266.47 123.533 258.173 124.089 249.873 124.644 Z M 365.004 179.99 L 365.004 124.089 C 365.559 105.27 365.559 86.453 365.559 68.174 C 348.392 68.174 331.794 68.73 314.626 70.396 L 314.626 59.877 L 431.978 59.877 C 431.425 63.36 431.425 66.911 431.978 70.396 C 416.375 68.762 400.692 68.02 385.003 68.174 L 385.003 179.99 C 378.407 178.879 371.672 178.879 365.075 179.99 L 365.004 179.99 Z M 458.555 59.877 L 477.915 59.877 L 477.915 178.879 C 471.836 177.228 464.633 177.783 458.555 178.879 L 458.555 59.877 Z M 511.139 178.879 C 515.009 158.951 518.882 139.022 522.753 119.662 C 526.625 99.734 529.947 79.806 532.718 59.877 L 538.255 59.877 C 548.775 75.378 559.836 90.325 570.355 105.826 C 580.874 120.759 591.948 136.259 602.469 151.207 C 613.529 136.259 624.049 120.759 635.124 105.826 C 645.643 90.325 656.703 75.378 667.777 59.877 L 672.76 59.877 C 675.522 79.806 678.296 99.734 681.613 119.662 C 684.46 139.036 687.706 158.964 691.022 178.879 C 687.706 178.879 683.279 177.783 679.948 177.783 C 674.425 178.324 671.094 178.879 669.983 178.879 C 667.764 163.39 666.098 148.445 663.891 133.499 C 662.226 118.553 660.02 103.605 658.355 88.658 C 647.834 103.05 637.315 117.44 627.35 132.388 C 617.387 147.335 607.422 162.28 599.123 177.783 L 596.916 177.783 C 587.508 162.836 577.543 147.89 567.578 132.943 C 557.614 118.553 547.65 103.605 538.241 88.658 C 535.479 103.05 532.703 118.553 530.498 133.499 C 528.831 148.445 527.166 163.931 527.166 178.879 C 521.875 177.783 516.414 177.783 511.124 178.879 L 511.139 178.879 Z M 877.556 178.879 L 877.556 59.877 L 896.929 59.877 L 896.929 171.762 C 917.413 171.762 938.452 170.65 959.475 169.54 C 958.379 172.581 958.379 175.909 959.475 178.95 L 877.556 178.879 Z M 705.414 178.324 C 717.043 157.855 729.214 137.372 741.4 116.331 C 753.016 95.861 765.2 75.378 777.37 54.894 L 782.353 54.894 C 793.983 75.378 805.598 95.861 817.784 116.331 C 829.4 137.372 841.029 157.855 852.658 178.324 L 705.414 178.324 Z M 88.793 57.114 C 107.611 57.67 128.094 61.542 144.706 70.396 C 161.305 79.806 173.489 94.751 173.489 116.887 C 172.935 140.132 161.86 156.187 145.817 166.153 C 129.761 176.672 108.721 181.099 88.793 181.099 L 88.793 176.118 C 105.183 176.331 121.103 170.631 133.633 160.06 C 145.402 148.748 152.174 133.209 152.451 116.887 C 152.451 98.625 145.261 85.342 133.633 76.488 C 122.558 67.62 107.07 62.652 89.902 62.652 L 88.793 62.652 L 88.793 57.114 Z M 249.873 59.877 L 249.873 66.523 C 239.91 65.969 228.835 66.523 220.535 66.523 L 220.535 117.44 C 228.835 117.44 239.91 117.997 249.873 116.887 L 249.873 124.644 L 220.549 124.644 L 220.549 178.879 C 214.137 177.783 207.588 177.783 201.175 178.879 L 201.175 59.877 L 249.873 59.877 Z M 4.181 119.662 C 4.181 98.068 14.7 82.566 30.202 72.062 C 45.69 62.097 66.174 57.114 85.546 57.114 L 88.864 57.114 L 88.864 62.652 C 71.156 62.652 55.099 68.174 44.038 77.584 C 32.409 87.548 25.775 101.941 25.775 120.759 C 25.775 139.577 32.409 152.871 43.483 162.28 C 54.557 171.135 70.6 176.118 88.323 176.118 L 88.864 176.118 L 88.864 181.099 L 86.659 181.099 C 66.727 181.099 46.244 177.228 30.744 167.819 C 15.184 157.855 4.181 142.908 4.181 119.662 Z"/>
</svg>
