<svg xmlns="http://www.w3.org/2000/svg" fill="#1f2937" data-name="Template Capture.png" viewBox="0 45 969.4 141.52"><path d="M249.873 124.644v-7.757c16.057-2.207 29.893-8.299 29.337-27.672 0-16.612-13.835-21.595-29.337-22.692v-6.646h2.206c21.039 0 47.615 1.665 48.712 28.226.554 20.485-11.061 29.337-27.118 33.766-7.203 1.664-15.5 2.22-23.8 2.775m115.131 55.346v-55.901c.555-18.819.555-37.636.555-55.915-17.167 0-33.765.556-50.933 2.222V59.877h117.352a33.6 33.6 0 0 0 0 10.519 412 412 0 0 0-46.975-2.222V179.99a60 60 0 0 0-19.928 0zm93.551-120.113h19.36v119.002c-6.079-1.651-13.282-1.096-19.36 0zm52.584 119.002c3.87-19.928 7.743-39.857 11.614-59.217a1128 1128 0 0 0 9.965-59.785h5.537c10.52 15.501 21.581 30.448 32.1 45.949 10.519 14.933 21.593 30.433 32.114 45.381 11.06-14.948 21.58-30.448 32.655-45.381 10.519-15.501 21.579-30.448 32.653-45.949h4.983c2.762 19.929 5.536 39.857 8.853 59.785 2.847 19.374 6.093 39.302 9.409 59.217-3.316 0-7.743-1.096-11.074-1.096-5.523.541-8.854 1.096-9.965 1.096-2.219-15.489-3.885-30.434-6.092-45.38-1.665-14.946-3.871-29.894-5.536-44.841-10.521 14.392-21.04 28.782-31.005 43.73-9.963 14.947-19.928 29.892-28.227 45.395h-2.207c-9.408-14.947-19.373-29.893-29.338-44.84-9.964-14.39-19.928-29.338-29.337-44.285-2.762 14.392-5.538 29.895-7.743 44.841-1.667 14.946-3.332 30.432-3.332 45.38a39.55 39.55 0 0 0-16.042 0zm366.417 0V59.877h19.373v111.885c20.484 0 41.523-1.112 62.546-2.222a13.88 13.88 0 0 0 0 9.41zm-172.142-.555c11.629-20.469 23.8-40.952 35.986-61.993 11.616-20.47 23.8-40.953 35.97-61.437h4.983c11.63 20.484 23.245 40.967 35.431 61.437 11.616 21.041 23.245 41.524 34.874 61.993zM88.793 57.114c18.818.556 39.301 4.428 55.913 13.282 16.599 9.41 28.783 24.355 28.783 46.491-.554 23.245-11.629 39.3-27.672 49.266-16.056 10.519-37.096 14.946-57.024 14.946v-4.981a68.17 68.17 0 0 0 44.84-16.058 61.33 61.33 0 0 0 18.818-43.173c0-18.262-7.19-31.545-18.818-40.399-11.075-8.868-26.563-13.836-43.731-13.836h-1.109zm161.08 2.763v6.646c-9.963-.554-21.038 0-29.338 0v50.917c8.3 0 19.375.557 29.338-.553v7.757h-29.324v54.235a57.5 57.5 0 0 0-19.374 0V59.877zM4.181 119.662c0-21.594 10.519-37.096 26.021-47.6 15.488-9.965 35.972-14.948 55.344-14.948h3.318v5.538c-17.708 0-33.765 5.522-44.826 14.932-11.629 9.964-18.263 24.357-18.263 43.175s6.634 32.112 17.708 41.521c11.074 8.855 27.117 13.838 44.84 13.838h.541v4.981h-2.205c-19.932 0-40.415-3.871-55.915-13.28-15.56-9.964-26.563-24.911-26.563-48.157"/></svg>