<?xml version="1.0" encoding="UTF-8"?>
<svg width="395" height="100" version="1.1" xmlns="http://www.w3.org/2000/svg">
 <path d="m103.61 42.932c-5.615 5.1599-12.216 8.4637-21.266 11.241a120.46 120.46 0 0 1-8.022 2.1349c-14.989 3.2815-11.826-2.1349 2.4517-7.3639 8.9835-3.121 17.418-5.1822 26.837-6.0322m194.61-0.069c-5.6819 5.0907-12.488 8.1648-21.771 11.034a131.62 131.62 0 0 1-8.2273 2.2018c-14.759 3.1655-12.696-1.4679 1.9029-6.7438 9.1888-3.1655 18.402-5.5034 28.095-6.4916m-54.749 20.481c1.9029 2.0412 7.0115 2.8912 12.787 2.4316 5.9831-0.3435 14.025-2.0412 23.995-5.664a145 145 0 0 0 7.0137-2.7997c0.38816-0.1606 0.80086-0.3436 1.1912-0.5265 0.41271 0.9414 0.8031 1.8114 1.2381 2.6837 1.9698 4.1962 4.629 6.3311 10.427 4.5866 3.1633-0.9638 7.3104-1.9743 12.948-3.9464l-4.8587 5.5035h6.1191c2.9804-0.116 5.5012-1.1712 7.4264-3.0741l8.9612-8.8541c14.391-4.5866 24.474-6.3311 29.036-6.9267 0.36586-0.047 0.50417 0.1829 0.11378 0.551-4.1025 4.2185-9.2133 10.483-11.962 14.955-1.72 2.7751 0.34354 3.3038 5.4767 3.5113 4.6066 0.1829 8.6177-0.2075 13.177-0.7116 4.8119-0.551 9.7621-1.2627 17.211-3.2347l-0.73394-2.5699c-0.32124-1.3073-1.6486-1.8583-3.1856-1.537-3.46 0.7116-5.2937 1.0774-6.9423 1.3072-1.9252 0.2744-3.7835 0.4596-4.5397 0.4819-3.5515 0.1606-3.8258-1.0106-2.2219-3.0986 3.2548-4.2431 8.022-9.1977 11.618-13.418 0.78079-0.8723 0.66479-1.8583 0.43724-2.5476a20.077 20.077 0 0 0-0.91687-2.0881c-1.604-3.1655-15.034 0.1383-26.172 3.4645-5.8448 1.72-11 3.4645-13.224 4.1962l8.0443-8.8542-13.316 0.7117-12.305 14.13c-3.3239 1.2626-6.4404 2.271-9.5791 3.3953-4.5843 1.6753-7.2658 0.986-8.5485-1.0552-1.0083-1.6062-1.2381-3.1655 0.0446-4.7249l11.252-12.455c-9.6483-0.299-26.837 0.8477-41.823 4.9078-7.9306 2.1572-16.133 5.5726-18.931 7.065-4.6066 2.4561-9.0281 5.3673-10.222 8.0287-19.616 3.7857-29.059 3.0741-35.316 2.387-14.324-1.6062-2.2464-7.9373 1.4679-9.4966 5.7533-2.4093 13.981-4.4037 24.385-6.6969 3.1611-0.6894 7.2189-1.3765 11.161-2.0189 0.13608 0 0.2744-0.047 0.41271-0.069 0.75624-0.1383 1.1221-0.6648 1.604-1.2381 1.9698-2.387 2.2442-3.4868-0.48186-3.5336-0.61794 0-1.2381 0-1.9029 0.047-7.8146 0.4596-20.35 1.9275-31.696 5.1376-18.54 5.3428-28.418 11.859-27.867 17.409-10.909 3.4868-26.402 9.4743-34.261 13.463 6.3935-6.3065 23.995-22.73 39.327-35.898l-15.56 1.3987-10.77 10.344c-5.3406 2.7752-16.637 6.9959-23.261 8.0287-2.2464 0.3436-0.6871-1.6062 0.34354-2.9134 3.6206-4.5866 10.36-11.562 14.255-15.46-6.8754 0.7116-10.427 0.7339-15.399 1.5593-1.1466 0.7808-8.5954 8.2585-12.009 12.109-4.0556 1.7668-9.9227 3.7166-13.59 4.9078-3.5292 1.3073-4.3322 0.8946-5.4544-1.102-0.87002-1.5593-1.6954-3.9932-0.73394-5.113l11.138-13.006c-28.488-0.2521-45.194 3.9686-58.76 12.178l-26.081 6.3757 1.421-1.4679c3.9642-4.127 7.9529-8.2585 11.895-12.408a682.63 682.63 0 0 0 8.7537-9.4497 381.47 381.47 0 0 0 9.0058-10.277c5.5927-0.1606 11.183-0.3904 16.776-0.6202 7.4487-0.3212 14.897-0.6648 22.344-0.7339 2.59 0 4.7673-0.5042 6.6233-1.3073 1.856-0.8031 3.3908-1.9051 4.6981-3.1655 0.57332-0.551 1.1913-1.1244 1.8337-1.72 1.72-1.5839 3.576-3.3261 5.0416-4.9546-9.2133 0.3435-18.449 0.7807-27.662 1.2626-9.2356 0.4819-18.471 1.0329-27.707 1.6285-8.2741 0.5287-16.524 1.1466-24.773 1.7891q-10.175 0.792-20.352 1.7891a421.63 421.63 0 0 0-8.5262 8.4415c5.5012-0.2521 11-0.5042 16.501-0.8031 4.881-0.2521 9.8781-0.5287 15.332-0.8254l2.9112-0.1607-9.626 11.286a3970.9 3970.9 0 0 1-9.2356 10.804c-3.0027 3.4868-5.9808 6.9959-8.9612 10.483l-8.5262 10.048h7.4487c2.4294 0 5.1108-1.1935 5.5235-1.4233q1.0306-0.5532 1.9944-1.2381l24.682-5.9853c-4.2386 6.3534 0.8031 11.676 20.031 7.9819 7.7923-1.4902 15.837-4.5397 22.895-7.6383 0.45732 1.0551 0.87002 1.9742 1.3519 2.9379 2.039 4.0825 4.3546 6.813 9.51 5.0216 4.3322-1.3072 11.756-3.924 17.188-6.4448-0.77855 0.986-1.5816 2.2955-1.6508 2.387-3.2548 4.8163-1.9252 6.7214 6.9446 5.2982 8.205-1.3318 19.549-4.3568 25.851-7.248-9.2824 9.2445-19.778 19.935-29.953 30.919l8.1358-1.7668c3.8504-2.1104 6.6679-4.243 11.275-6.7661 7.9752-4.3568 33.025-14.335 44.987-18.168 3.9887 2.5922 11.368 3.8995 23.604 3.4645 8.1804-0.2744 18.862-0.8946 32.474-3.5113l-0.0446-0.091v0.01z"/>
</svg>
