<svg xmlns="http://www.w3.org/2000/svg" width="225" height="66" fill="none" viewBox="0 0 225 66"><path fill="#5174b2" d="M142 4H0v58.85h142z"/><path fill="#fff" fill-rule="evenodd" d="M38.454 34.759H22.417q-.149.001-.299-.005c-.067 0-.13 0-.196-.009h-.067a4 4 0 0 0-.223-.018h-.036c-.066-.008-.138-.013-.205-.022h-.04a4 4 0 0 0-.223-.031l-.053-.009-.183-.027-.053-.009q-.1-.014-.206-.035l-.066-.014a3 3 0 0 0-.192-.035l-.045-.01-.178-.04-.08-.017a3 3 0 0 1-.188-.05l-.066-.017-.143-.04-.08-.023-.174-.053-.085-.027-.12-.04c-.036-.013-.067-.022-.103-.036l-.147-.053-.08-.031c-.05-.018-.098-.04-.147-.058-.032-.014-.058-.027-.09-.036-.044-.018-.084-.036-.129-.053l-.08-.036q-.08-.035-.16-.076a1 1 0 0 0-.08-.036q-.055-.026-.108-.053l-.08-.04-.152-.08-.089-.05q-.044-.027-.089-.049a2 2 0 0 1-.143-.084c-.026-.018-.053-.032-.08-.05a1 1 0 0 1-.098-.062l-.062-.04a4 4 0 0 1-.17-.111l-.053-.036c-.036-.022-.072-.049-.103-.071l-.018-.014q-.106-.073-.205-.147l-.049-.035a9 9 0 0 1-.325-.26l-.01-.008a9 9 0 0 1-.548-.495c-1.93-1.904-2.978-4.668-2.648-7.735.615-5.698 5.783-10.362 11.48-10.362h24.878l-.963 7.86h-24.73c-.972 0-1.877.794-2.011 1.766l-.21 1.516c-.111.812.344 1.498 1.061 1.703h.014l.009.005h.013l.009.004h.04l.009.009h.009l.018.004h.004l.027.005h.018l.036.004h.035l.01.005h.053v.004h7.218v-.062h8.908q.73.002 1.426.102h.01c3.049.437 5.523 2.26 6.834 4.811.816 1.587 1.181 3.455.967 5.444-.615 5.697-5.782 10.361-11.48 10.361h-24.9l.954-7.798h24.726c.972 0 1.877-.793 2.011-1.765l.21-1.516c.129-.936-.5-1.708-1.414-1.766zM80.158 14.08h-25.86l-4.547 33.51h26.162c4.909 0 9.742-4.017 10.736-8.926.718-3.54-.749-6.616-3.464-8.056 2.666-1.596 4.628-4.392 4.966-7.557l.014-.143v-1.632c-.388-4.088-3.692-7.191-8.016-7.191zm-1.41 22.44-.209 1.515c-.134.972-1.039 1.766-2.01 1.766h-17.34l.687-5.052h17.352c.972 0 1.659.794 1.525 1.77zm.982-12.859-.21 1.516c-.134.972-1.039 1.766-2.01 1.766H60.932l.687-5.052h16.59c.971 0 1.658.794 1.524 1.766zM116.534 14.036H93.582l-4.539 33.447h8.346l1.476-10.892h14.954c5.706 0 10.94-4.668 11.627-10.375l.218-1.805a7 7 0 0 0 .041-.42v-1.636c-.393-4.73-4.165-8.32-9.171-8.32m.989 10.326-.289 2.077c-.183 1.333-1.427 2.425-2.76 2.425H100.02l.941-6.928h14.471c1.334 0 2.274 1.093 2.091 2.425" clip-rule="evenodd"/><path fill="#fff" d="m12.31 54.286.708-.035q.016.341.116.454.16.194.602.192.367 0 .526-.13c.107-.088.165-.19.165-.316a.34.34 0 0 0-.133-.272q-.093-.08-.513-.263a5 5 0 0 1-.615-.303.882.882 0 0 1-.415-.771 1 1 0 0 1 .33-.758c.218-.2.54-.299.958-.299.42 0 .754.098.986.299q.348.299.383.793l-.713.032q-.027-.262-.187-.397-.16-.14-.473-.138c-.21 0-.352.035-.441.107a.34.34 0 0 0-.134.272c0 .102.04.191.12.258q.12.106.535.286.624.268.794.437.255.245.254.633.001.48-.379.816c-.254.227-.602.338-1.057.338q-.467 0-.807-.156a.95.95 0 0 1-.481-.437 1.3 1.3 0 0 1-.13-.642M20.134 54.656h-.633v-.602h.54l-.21-1.453-.33.553v-1.23l.045-.081h.824l.589 3.616h-.704l-.12-.798zm-.633 0h-.803l-.432.798h-.762L19.5 51.92v1.23l-.54.9h.54v.607M23.598 55.454l.758-3.611h2.533l-.13.602h-1.788l-.182.87h1.752l-.125.601h-1.752l-.321 1.538zM28.89 55.454l.758-3.611h2.68l-.125.602h-1.94l-.169.82h1.873l-.13.607h-1.872l-.223.98h2.104l-.129.602zM39.18 51.843h.072q.4.001.561.022.27.04.45.147a.74.74 0 0 1 .282.295.9.9 0 0 1 .098.41.84.84 0 0 1-.17.521q-.168.222-.517.335c.187.049.33.142.437.272q.155.194.156.441 0 .327-.183.62a1.03 1.03 0 0 1-.512.419 2.2 2.2 0 0 1-.674.12v-.588a1 1 0 0 0 .268-.05.5.5 0 0 0 .245-.19.5.5 0 0 0 .094-.282.38.38 0 0 0-.134-.299c-.09-.08-.236-.115-.446-.115h-.031v-.633q.26-.009.392-.05a.44.44 0 0 0 .25-.178.44.44 0 0 0 .085-.263.32.32 0 0 0-.08-.227.43.43 0 0 0-.224-.12 3 3 0 0 0-.392-.014h-.031v-.606zm-1.921 3.616.758-3.616h1.163v.606h-.548l-.178.856h.726v.633h-.856l-.196.946h.718c.13 0 .245 0 .339-.01v.59c-.067 0-.143.004-.214.004h-1.703zM45.101 51.843h.388q.414-.001.647.085.233.085.374.312.142.227.143.548-.001.462-.277.763c-.182.2-.463.325-.834.37.094.084.188.196.268.339q.248.422.557 1.199h-.798a9 9 0 0 0-.379-.954c-.026-.063-.053-.116-.08-.17v-.927a1.8 1.8 0 0 0 .388-.058c.13-.05.232-.12.308-.223a.56.56 0 0 0 .111-.321.32.32 0 0 0-.16-.294q-.1-.059-.428-.058h-.219v-.607zm-1.23 3.616h-.745l.758-3.616h1.217v.606H44.5l-.205.972h.397c.156 0 .294 0 .41-.013v.927a.9.9 0 0 0-.245-.303q-.105-.072-.37-.071h-.303zM51.32 54.656h-.633v-.602h.54l-.21-1.453-.33.553v-1.23l.045-.081h.825l.588 3.616h-.704l-.12-.798zm-.633 0h-.802l-.432.798h-.763l1.998-3.535v1.23l-.54.9h.54v.607M54.794 55.454l.753-3.611h.745l-.321 1.534 1.672-1.534h.998l-1.623 1.418 1.19 2.193h-.842l-.892-1.72-.704.615-.232 1.105zM60.612 55.454l.758-3.611h.74l-.754 3.611zM67.135 55.454h-.692l-.976-2.425-.508 2.425h-.691l.753-3.611h.696l.976 2.416.508-2.416h.691zM72.101 53.524h1.619l-.326 1.551a2.8 2.8 0 0 1-.7.312 2.9 2.9 0 0 1-.847.13q-.669-.002-1.03-.303-.489-.416-.49-1.2c0-.352.071-.686.21-1.012q.252-.581.713-.9a1.87 1.87 0 0 1 1.092-.321q.629.001 1.003.29c.25.191.42.476.504.846l-.691.08a.9.9 0 0 0-.294-.463.83.83 0 0 0-.513-.156q-.36 0-.66.187-.3.186-.472.58c-.112.258-.17.548-.17.856q-.001.46.205.673.206.22.606.218.24 0 .49-.066a2 2 0 0 0 .433-.16l.112-.54h-.923l.125-.607zM80.898 51.843h.352c.258 0 .468.031.62.094a.76.76 0 0 1 .36.307.94.94 0 0 1 .134.508q0 .276-.107.531a1.2 1.2 0 0 1-.258.415 1.2 1.2 0 0 1-.33.236 1.8 1.8 0 0 1-.477.12q-.094.016-.29.018v-.61a1.1 1.1 0 0 0 .294-.059c.13-.049.237-.129.312-.236a.6.6 0 0 0 .112-.357.36.36 0 0 0-.058-.214.3.3 0 0 0-.16-.12q-.108-.04-.469-.04h-.03v-.593zm-1.133 3.616h-.744l.758-3.616h1.119v.593h-.5l-.218 1.043h.232q.294.002.49-.018v.611h-.843l-.29 1.378zM86.578 51.843h.388q.413-.001.646.085c.156.058.276.16.375.312q.14.227.142.548-.001.462-.276.763c-.183.2-.464.325-.834.37.094.084.187.196.267.339q.249.422.558 1.199h-.798a9 9 0 0 0-.46-1.124v-.927q.268-.02.388-.058c.13-.05.232-.12.308-.223a.56.56 0 0 0 .112-.321.32.32 0 0 0-.161-.294q-.1-.059-.428-.058h-.219v-.607zm-1.23 3.616h-.745l.758-3.616h1.217v.606h-.602l-.2.972h.391c.156 0 .295 0 .41-.013v.927a.84.84 0 0 0-.245-.303q-.103-.072-.37-.071h-.303zM92.423 51.794q.127-.013.267-.013.669 0 1.084.414.414.416.414 1.106 0 .573-.267 1.105a2 2 0 0 1-.732.825 1.84 1.84 0 0 1-.766.272v-.624q.195-.046.379-.178.279-.201.459-.602.181-.402.183-.785 0-.427-.228-.669a.76.76 0 0 0-.584-.245c-.071 0-.142.005-.205.018v-.624zm-1.757 2.242q-.001-.32.098-.673c.085-.316.21-.593.383-.825a1.82 1.82 0 0 1 1.28-.74v.624q-.402.082-.678.491a1.96 1.96 0 0 0-.343 1.115c0 .25.076.454.227.624q.23.255.598.254a1 1 0 0 0 .196-.022v.624q-.136.019-.276.018c-.335 0-.62-.076-.847-.228a1.3 1.3 0 0 1-.486-.57 1.8 1.8 0 0 1-.143-.683zM98.352 51.843q.366 0 .473.013.22.022.401.09c.116.044.223.111.321.191.098.085.178.183.25.3q.107.173.16.4.056.227.058.5-.001.583-.223 1.038c-.147.304-.334.54-.561.718a1.7 1.7 0 0 1-.879.34v-.598l.058-.014a.9.9 0 0 0 .34-.191 1.7 1.7 0 0 0 .37-.53c.097-.224.15-.482.15-.786q.001-.386-.124-.58a.63.63 0 0 0-.308-.258q-.126-.045-.454-.044h-.027v-.598zm-1.779 3.616.758-3.616h1.021v.598h-.405l-.509 2.438h.38q.354-.001.534-.035v.597a5 5 0 0 1-.504.022h-1.275zM103.163 51.843h.74l-.41 1.962-.103.481q-.007.061-.009.116.002.216.156.352.155.14.455.139a.9.9 0 0 0 .442-.103.7.7 0 0 0 .272-.303c.066-.134.129-.357.196-.678l.414-1.975h.745l-.41 1.98c-.089.414-.188.735-.303.954a1.34 1.34 0 0 1-.518.54q-.346.205-.873.204-.632 0-.968-.307a1.03 1.03 0 0 1-.334-.794q-.001-.102.017-.218c.009-.054.036-.2.085-.45l.401-1.904zM110.867 54.152l.749.116q-.22.61-.66.932a1.7 1.7 0 0 1-1.03.321q-.663-.001-1.039-.397-.374-.402-.374-1.159c0-.41.085-.789.25-1.128q.247-.51.695-.785c.294-.182.62-.271.968-.271q.588-.002.949.312.362.314.428.856l-.713.067q-.06-.314-.227-.46a.7.7 0 0 0-.451-.142 1 1 0 0 0-.575.187q-.267.188-.428.584-.16.4-.16.793.001.435.209.67a.67.67 0 0 0 .517.236.85.85 0 0 0 .531-.188q.242-.185.357-.552zM115.669 55.454h-.745l.633-3.01h-1.061l.125-.601h2.849l-.125.602h-1.048zM119.49 54.286l.708-.035q.015.341.116.454.16.194.602.192.364 0 .526-.13c.107-.088.165-.19.165-.316a.34.34 0 0 0-.133-.272c-.063-.053-.237-.142-.513-.263a5 5 0 0 1-.615-.303.86.86 0 0 1-.304-.316.93.93 0 0 1-.111-.455q0-.456.33-.758.328-.3.958-.299c.419 0 .754.098.986.299q.349.299.383.793l-.713.032q-.027-.262-.187-.397-.16-.14-.473-.138c-.21 0-.352.035-.441.107a.34.34 0 0 0-.134.272c0 .102.04.191.12.258q.12.106.535.286.624.268.794.437a.84.84 0 0 1 .254.633q.001.48-.379.816c-.254.227-.602.338-1.057.338q-.466 0-.807-.156a.95.95 0 0 1-.481-.437 1.3 1.3 0 0 1-.129-.642"/><path fill="#5174b2" d="M158.768 17.112q-1.104 0-1.984-.384-.864-.4-1.36-1.088a2.83 2.83 0 0 1-.512-1.616h1.552q.08.784.64 1.328.576.528 1.664.528 1.04 0 1.632-.512.608-.528.608-1.344 0-.64-.352-1.04a2.25 2.25 0 0 0-.88-.608 14 14 0 0 0-1.424-.448q-1.104-.288-1.776-.576a2.95 2.95 0 0 1-1.136-.896q-.464-.623-.464-1.664 0-.912.464-1.616t1.296-1.088q.848-.384 1.936-.384 1.568 0 2.56.784 1.008.784 1.136 2.08h-1.6q-.08-.64-.672-1.12-.592-.495-1.568-.496-.912 0-1.488.48-.576.465-.576 1.312 0 .608.336.992.352.384.848.592.512.192 1.424.448 1.104.304 1.776.608.672.288 1.152.912.48.608.48 1.664 0 .816-.432 1.536t-1.28 1.168-2 .448m5.311-4.528q0-1.344.544-2.352a3.94 3.94 0 0 1 1.488-1.584 4.14 4.14 0 0 1 2.128-.56q1.151 0 2 .496.847.496 1.264 1.248v-1.6h1.472V17h-1.472v-1.632q-.432.768-1.296 1.28-.849.495-1.984.496a3.97 3.97 0 0 1-2.112-.576 4.03 4.03 0 0 1-1.488-1.616q-.544-1.04-.544-2.368m7.424.016q0-.992-.4-1.728a2.76 2.76 0 0 0-1.088-1.12 2.85 2.85 0 0 0-1.488-.4q-.816 0-1.488.384-.673.385-1.072 1.12-.4.736-.4 1.728 0 1.008.4 1.76.4.736 1.072 1.136.672.384 1.488.384t1.488-.384a2.87 2.87 0 0 0 1.088-1.136q.4-.752.4-1.744m7.5-3.168h-1.84V17h-1.456V9.432h-1.136v-1.2h1.136v-.624q0-1.472.752-2.144.768-.688 2.448-.688v1.216q-.96 0-1.36.384-.384.368-.384 1.232v.624h1.84zm9.698 2.848q0 .415-.048.88h-7.008q.08 1.296.88 2.032.816.72 1.968.72.944 0 1.568-.432.64-.448.896-1.184h1.568a3.8 3.8 0 0 1-1.408 2.064q-1.056.784-2.624.784-1.248 0-2.24-.56A4 4 0 0 1 180.717 15q-.56-1.04-.56-2.4t.544-2.384a3.78 3.78 0 0 1 1.52-1.568q.991-.56 2.272-.56 1.248 0 2.208.544t1.472 1.504q.528.945.528 2.144m-1.504-.304q0-.833-.368-1.424a2.32 2.32 0 0 0-1.008-.912 3 3 0 0 0-1.392-.32q-1.105 0-1.888.704-.769.704-.88 1.952zM161.792 33.24a2.6 2.6 0 0 1 1.568.976q.592.752.592 1.728 0 1.408-.992 2.24-.977.816-2.736.816h-5.232V27.768h5.056q1.712 0 2.672.784.976.784.976 2.128 0 .991-.528 1.648-.512.656-1.376.912m-4.064-.928h1.792q.672 0 1.024-.288.368-.304.368-.88t-.368-.88q-.352-.304-1.024-.304h-1.792zm2.016 4.48q.689 0 1.056-.304.384-.32.384-.912t-.4-.928q-.384-.336-1.072-.336h-1.984v2.48zm8.531-5.232q.48-.736 1.2-1.152a3.05 3.05 0 0 1 1.6-.432v2.896h-.752q-1.024 0-1.536.448-.512.432-.512 1.536V39h-2.736v-8.928h2.736zm3.564 2.96q0-1.376.512-2.416.528-1.04 1.424-1.6a3.7 3.7 0 0 1 2-.56q.943 0 1.648.384.72.384 1.104 1.008v-1.264h2.736V39h-2.736v-1.264q-.4.624-1.12 1.008-.705.384-1.648.384a3.67 3.67 0 0 1-1.984-.56q-.897-.576-1.424-1.616-.512-1.056-.512-2.432m6.688.016q0-1.024-.576-1.616a1.82 1.82 0 0 0-1.376-.592 1.87 1.87 0 0 0-1.392.592q-.56.576-.56 1.6t.56 1.632a1.87 1.87 0 0 0 1.392.592q.815 0 1.376-.592.576-.592.576-1.616M188.698 39l-2.72-3.744V39h-2.736V27.16h2.736v6.544l2.704-3.632h3.376l-3.712 4.48L192.09 39zm5.811-9.856q-.72 0-1.184-.416a1.4 1.4 0 0 1-.448-1.056q0-.64.448-1.056.464-.432 1.184-.432.704 0 1.152.432.464.416.464 1.056 0 .624-.464 1.056-.449.416-1.152.416m1.36.928V39h-2.736v-8.928zm7.422-.096q1.569 0 2.496 1.024.944 1.008.944 2.784V39h-2.72v-4.848q0-.895-.464-1.392-.464-.495-1.248-.496-.783 0-1.248.496t-.464 1.392V39h-2.736v-8.928h2.736v1.184a2.83 2.83 0 0 1 1.12-.928q.705-.352 1.584-.352m8.734-.032q.943 0 1.648.384.72.384 1.104 1.008v-1.264h2.736v8.912q0 1.232-.496 2.224a3.65 3.65 0 0 1-1.488 1.6q-.992.592-2.48.592-1.984 0-3.216-.944-1.233-.928-1.408-2.528h2.704q.128.512.608.8.48.304 1.184.304.848 0 1.344-.496.512-.48.512-1.552V37.72a3.1 3.1 0 0 1-1.104 1.024q-.705.384-1.648.384a3.7 3.7 0 0 1-2-.56q-.897-.576-1.424-1.616-.512-1.056-.512-2.432t.512-2.416q.528-1.04 1.424-1.6a3.7 3.7 0 0 1 2-.56m2.752 4.592q0-1.024-.576-1.616a1.82 1.82 0 0 0-1.376-.592 1.87 1.87 0 0 0-1.392.592q-.56.576-.56 1.6t.56 1.632a1.87 1.87 0 0 0 1.392.592q.815 0 1.376-.592.576-.592.576-1.616m-52.089 18.576q0 1.392-.96 2.32-.944.912-2.896.912h-2.144V61h-1.456V49.848h3.6q1.888 0 2.864.912.992.912.992 2.352m-3.856 2.032q1.216 0 1.792-.528t.576-1.504q0-2.064-2.368-2.064h-2.144v4.096zm7.122-1.488q.383-.751 1.088-1.168.72-.416 1.744-.416v1.504h-.384q-2.448 0-2.448 2.656V61h-1.456v-8.768h1.456zm8.336 7.488a4.54 4.54 0 0 1-2.24-.56A4.07 4.07 0 0 1 170.482 59q-.56-1.04-.56-2.4 0-1.344.576-2.368a4 4 0 0 1 1.6-1.584q1.008-.56 2.256-.56t2.256.56q1.008.544 1.584 1.568.592 1.024.592 2.384t-.608 2.4a4.1 4.1 0 0 1-1.616 1.584q-1.024.56-2.272.56m0-1.28q.785 0 1.472-.368a2.74 2.74 0 0 0 1.104-1.104q.432-.735.432-1.792t-.416-1.792-1.088-1.088a3 3 0 0 0-1.456-.368q-.8 0-1.472.368-.655.352-1.056 1.088-.4.736-.4 1.792 0 1.072.384 1.808.4.736 1.056 1.104a3 3 0 0 0 1.44.352m5.867-3.28q0-1.344.544-2.352a3.94 3.94 0 0 1 1.488-1.584 4.2 4.2 0 0 1 2.144-.56q1.023 0 1.904.48.879.465 1.344 1.232v-4.64h1.472V61h-1.472v-1.648q-.432.785-1.28 1.296-.849.495-1.984.496a4.06 4.06 0 0 1-2.128-.576 4.03 4.03 0 0 1-1.488-1.616q-.544-1.04-.544-2.368m7.424.016q0-.991-.4-1.728a2.76 2.76 0 0 0-1.088-1.12 2.85 2.85 0 0 0-1.488-.4q-.816 0-1.488.384-.672.385-1.072 1.12t-.4 1.728q0 1.008.4 1.76.4.736 1.072 1.136.672.384 1.488.384t1.488-.384a2.87 2.87 0 0 0 1.088-1.136q.4-.752.4-1.744m11.708-4.368V61h-1.456v-1.296q-.415.672-1.168 1.056a3.6 3.6 0 0 1-1.632.368q-1.023 0-1.84-.416a3.2 3.2 0 0 1-1.296-1.28q-.464-.847-.464-2.064v-5.136h1.44v4.944q0 1.295.656 2 .657.688 1.792.688 1.168 0 1.84-.72t.672-2.096v-4.816zm1.915 4.368q0-1.36.544-2.368a3.9 3.9 0 0 1 1.504-1.584q.976-.56 2.224-.56 1.615 0 2.656.784 1.056.784 1.392 2.176h-1.568a2.24 2.24 0 0 0-.88-1.264q-.64-.464-1.6-.464-1.248 0-2.016.864-.768.847-.768 2.416 0 1.584.768 2.448t2.016.864q.96 0 1.6-.448t.88-1.28h1.568q-.352 1.344-1.408 2.16-1.056.8-2.64.8-1.249 0-2.224-.56A3.9 3.9 0 0 1 201.748 59q-.544-1.024-.544-2.4m12.038-3.168V58.6q0 .64.272.912.273.255.944.256h1.072V61h-1.312q-1.215 0-1.824-.56-.608-.56-.608-1.84v-5.168h-1.136v-1.2h1.136v-2.208h1.456v2.208h2.288v1.2zm7.157 7.712q-1.008 0-1.808-.336-.8-.352-1.264-.96a2.6 2.6 0 0 1-.512-1.424h1.504q.063.656.608 1.072.56.416 1.456.416.831 0 1.312-.368.48-.368.48-.928 0-.576-.512-.848-.513-.288-1.584-.56a13 13 0 0 1-1.6-.512 3 3 0 0 1-1.056-.784q-.432-.528-.432-1.376 0-.672.4-1.232t1.136-.88q.735-.336 1.68-.336 1.455 0 2.352.736t.96 2.016h-1.456a1.5 1.5 0 0 0-.56-1.104q-.496-.416-1.344-.416-.784 0-1.248.336t-.464.88q0 .432.272.72.287.271.704.448.431.16 1.184.368.943.255 1.536.512.591.24 1.008.736.432.496.448 1.296 0 .72-.4 1.296t-1.136.912q-.72.32-1.664.32"/></svg>