<svg xmlns="http://www.w3.org/2000/svg" viewBox="0 0 105.11 78.11"><defs><style>.a{fill:#fff;}</style></defs><title>sbp-Logo_w</title><path class="a" d="M105.66,73.81h-1.07v5h1.08V76a1.18,1.18,0,0,1,1.18-1.33,1.94,1.94,0,0,1,.82.18l.26-1.07a2.15,2.15,0,0,0-.83-.14,1.66,1.66,0,0,0-1.44.69Zm-6.24,2.05a1.28,1.28,0,0,1,1.31-1.22A1.25,1.25,0,0,1,102,75.87Zm-1.13.42a2.44,2.44,0,0,0,2.53,2.6,3,3,0,0,0,2-.7l-.54-.77a2.36,2.36,0,0,1-1.43.52,1.4,1.4,0,0,1-1.47-1.26h3.66c0-.12,0-.26,0-.4a2.36,2.36,0,0,0-2.34-2.6,2.42,2.42,0,0,0-2.47,2.61m-5-2.48H92.24v5h1.08V76a1.23,1.23,0,0,1,1.28-1.31c.72,0,1.15.46,1.15,1.3v2.76h1.09V75.65a1.91,1.91,0,0,0-2-2,1.76,1.76,0,0,0-1.52.73Zm-5.53,0h-1v1h1V77c0,1.32.66,1.92,1.78,1.92a2.68,2.68,0,0,0,1.52-.49l-.43-.86a2,2,0,0,1-1,.34c-.43,0-.79-.26-.79-.92V74.8h1.9v-1h-1.9v-1.5H87.78Zm-4,0H82.69v5h1.08V76a1.18,1.18,0,0,1,1.18-1.33,1.94,1.94,0,0,1,.82.18L86,73.82a2.15,2.15,0,0,0-.83-.14,1.66,1.66,0,0,0-1.44.69Zm-21.62,0H61.06v5h1.08V76a1.23,1.23,0,0,1,1.28-1.31c.72,0,1.15.46,1.15,1.3v2.76h1.09V75.65a1.91,1.91,0,0,0-2-2,1.76,1.76,0,0,0-1.52.73Zm-6.41,0H54.66v5h1.08V76A1.23,1.23,0,0,1,57,74.71c.72,0,1.15.46,1.15,1.3v2.76h1.08V75.65a1.91,1.91,0,0,0-2-2,1.76,1.76,0,0,0-1.52.73ZM48.8,76.29a1.5,1.5,0,1,1,1.49,1.59,1.48,1.48,0,0,1-1.49-1.59m-1.11,0a2.49,2.49,0,0,0,2.48,2.6,1.88,1.88,0,0,0,1.56-.72v.59h1.08v-5H51.73v.6a1.88,1.88,0,0,0-1.56-.73,2.49,2.49,0,0,0-2.48,2.61M23.28,77.77a1.54,1.54,0,1,1,1.46-1.54,1.44,1.44,0,0,1-1.46,1.54m1.37.29v.4a1.39,1.39,0,0,1-1.57,1.48,3.25,3.25,0,0,1-1.68-.5l-.39.92a3.78,3.78,0,0,0,2.07.57,2.39,2.39,0,0,0,2.66-2.51V73.81H24.65v.6A2,2,0,0,0,23,73.69a2.57,2.57,0,0,0,0,5.11,2,2,0,0,0,1.65-.72M21.43,67.34h1.09V59.9H21.43Zm-3.69,6.47H16.67v5h1.08V76a1.18,1.18,0,0,1,1.18-1.33,1.94,1.94,0,0,1,.82.18L20,73.82a2.15,2.15,0,0,0-.83-.14,1.65,1.65,0,0,0-1.44.69Zm-1.63-6.47V64.59a1.23,1.23,0,0,1,1.28-1.31c.72,0,1.15.46,1.15,1.3v2.76h1.08V64.23a1.91,1.91,0,0,0-2-2,1.77,1.77,0,0,0-1.51.72V59.9H15v7.44ZM11.5,75.87a1.28,1.28,0,0,1,1.31-1.22,1.25,1.25,0,0,1,1.26,1.22Zm-1.13.42a2.44,2.44,0,0,0,2.53,2.6,3,3,0,0,0,2-.7l-.54-.77A2.37,2.37,0,0,1,13,78a1.4,1.4,0,0,1-1.47-1.26h3.66c0-.12,0-.26,0-.4a2.36,2.36,0,0,0-2.34-2.6,2.42,2.42,0,0,0-2.46,2.61M9.2,64.86a2.5,2.5,0,0,0,2.6,2.6,2.38,2.38,0,0,0,1.85-.79L13,65.93a1.8,1.8,0,0,1-1.21.52,1.59,1.59,0,0,1,0-3.17,1.66,1.66,0,0,1,1.19.51l.69-.74a2.37,2.37,0,0,0-1.85-.79,2.5,2.5,0,0,0-2.6,2.61M5.13,76.29a1.5,1.5,0,1,1,1.49,1.59,1.48,1.48,0,0,1-1.49-1.59m.07-5H4.13v7.44H5.21v-.59a1.88,1.88,0,0,0,1.55.72,2.61,2.61,0,0,0,0-5.21,1.88,1.88,0,0,0-1.55.72ZM4.25,66l-.5.81a3.64,3.64,0,0,0,2.12.63c1.43,0,2.25-.67,2.25-1.62s-.64-1.31-1.72-1.46l-.51-.08c-.45-.07-.82-.17-.82-.51s.35-.59.94-.59a3.2,3.2,0,0,1,1.53.42L8,62.79a3.76,3.76,0,0,0-2-.52c-1.26,0-2,.6-2,1.59,0,.8.58,1.3,1.68,1.45l.52.07c.59.08.86.27.86.55s-.39.6-1.13.6A2.49,2.49,0,0,1,4.25,66m6.5-39.9c0-2.1,2.07-3.52,5.59-3.52a19.08,19.08,0,0,1,9.15,2.54l2.78-5a22.5,22.5,0,0,0-12-3.12C8.75,17,4,20.59,4,26.46c0,4.76,3.49,7.79,10,8.68l3.09.4c3.52.5,5.13,1.61,5.13,3.28,0,2.22-2.32,3.62-6.74,3.62-4.82,0-7.63-1.39-9.77-3l-3,4.85c4.33,3.21,9.64,3.8,12.7,3.8,8.53,0,13.47-4,13.47-9.67,0-5.07-3.83-7.82-10.29-8.75l-3.06-.46c-2.72-.4-4.88-1-4.88-3.06M28.11,64.86a1.5,1.5,0,1,1-1.5-1.59,1.48,1.48,0,0,1,1.5,1.59M28,67.34h1.08v-5H28V63a1.89,1.89,0,0,0-1.56-.73,2.61,2.61,0,0,0,0,5.21A1.88,1.88,0,0,0,28,66.75Zm2.89,8.53H28.36a1.28,1.28,0,0,1,1.31-1.22,1.25,1.25,0,0,1,1.26,1.22m-1.24-2.18a2.42,2.42,0,0,0-2.47,2.61,2.44,2.44,0,0,0,2.53,2.6,3,3,0,0,0,2-.7l-.54-.77a2.36,2.36,0,0,1-1.43.52,1.4,1.4,0,0,1-1.47-1.26H32c0-.12,0-.26,0-.4a2.36,2.36,0,0,0-2.34-2.6M31,67.34h1.08v-5H31Zm1.3-6.66a.76.76,0,0,0-.77-.76.76.76,0,1,0,.77.76M34.6,73.81H33.53v5h1.08V76a1.18,1.18,0,0,1,1.18-1.33,1.94,1.94,0,0,1,.82.18l.26-1.07a2.15,2.15,0,0,0-.83-.14,1.66,1.66,0,0,0-1.44.69Zm.06-8.95a1.48,1.48,0,0,1,1.46-1.59,1.66,1.66,0,0,1,1.19.51L38,63a2.37,2.37,0,0,0-1.85-.79,2.6,2.6,0,1,0,0,5.21A2.38,2.38,0,0,0,38,66.68l-.67-.74a1.8,1.8,0,0,1-1.21.52,1.48,1.48,0,0,1-1.46-1.59m4.54,8.95H38.12v5h1.08V76a1.23,1.23,0,0,1,1.28-1.31c.72,0,1.15.46,1.15,1.3v2.76h1.08V76A1.23,1.23,0,0,1,44,74.71c.72,0,1.15.46,1.15,1.3v2.76h1.08V75.65a1.91,1.91,0,0,0-2-2,2,2,0,0,0-1.81.88,2,2,0,0,0-1.71-.88,1.76,1.76,0,0,0-1.52.73Zm1.26-6.47V64.59a1.23,1.23,0,0,1,1.28-1.31c.72,0,1.15.46,1.15,1.3v2.76H44V64.23a1.91,1.91,0,0,0-2-2,1.77,1.77,0,0,0-1.51.72V59.9H39.37v7.44Zm22-34.82c0,5.19-3.37,9.49-8.93,9.49-5.35,0-8.93-4.08-8.93-9.49S48.18,23,53.52,23c5.56,0,8.93,4.3,8.93,9.49m6.64,0c0-9.05-6.52-15.57-14.8-15.57A11.23,11.23,0,0,0,45,21.24V2.82H38.57v44.5H45V43.8a11.23,11.23,0,0,0,9.27,4.3c8.28,0,14.8-6.52,14.8-15.58m4.38,43.77A1.5,1.5,0,1,1,72,74.7a1.48,1.48,0,0,1,1.49,1.59m1.11,0a2.49,2.49,0,0,0-2.48-2.61,1.88,1.88,0,0,0-1.55.72v-.59H69.48v7h1.08V78.18a1.88,1.88,0,0,0,1.55.72,2.48,2.48,0,0,0,2.48-2.6m3.74-1.59a1.59,1.59,0,1,1-1.49,1.59,1.48,1.48,0,0,1,1.49-1.59m-.13-1a2.61,2.61,0,0,0,0,5.21,1.88,1.88,0,0,0,1.56-.72v.59h1.08v-5H79.76v.6a1.88,1.88,0,0,0-1.56-.73m22.91-41.17c0,5.19-3.37,9.49-8.93,9.49-5.35,0-8.93-4.08-8.93-9.49S86.84,23,92.18,23c5.56,0,8.93,4.3,8.93,9.49m6.64,0c0-9.05-6.52-15.57-14.8-15.57a11.23,11.23,0,0,0-9.27,4.3V17.71H77.23v42h6.46V43.8A11.23,11.23,0,0,0,93,48.09c8.28,0,14.8-6.52,14.8-15.58" transform="translate(-2.81 -2.82)"/></svg>