<svg xmlns="http://www.w3.org/2000/svg" width="195.413" height="35.213" viewBox="0 0 195.413 35.213"><g fill="#ccc"><path d="M34.763 32.685c-1.125-.179-2.056-.453-2.794-.846-1.892-.653-6.96-2.161-13.514-2.161h-.114c-6.938.02-12.478 1.542-14.617 2.226-.72.355-1.611.616-2.674.78-.703.1-1.05.41-1.05.958 0 .73.986 1.096 2.968 1.096h7.725c2.059 0 3.088-.381 3.088-1.137 0-.42-.7-.868-2.102-1.337a6.105 6.105 0 01-1.12-.485c1.55-.4 3.839-.802 6.793-.723a42.82 42.82 0 017.572.895 7.15 7.15 0 01-.79.313c-1.401.469-2.103.917-2.103 1.337 0 .756 1.03 1.137 3.09 1.137h7.727c1.975 0 2.966-.367 2.966-1.096 0-.548-.348-.858-1.051-.957M15.241 15.079a26.94 26.94 0 012.629 1.693 24.032 24.032 0 012.457-1.586 25.77 25.77 0 012.281-1.134l-4.5-9.697-4.694 9.773c.617.295 1.227.618 1.827.95m-3.687 10.559c.267-.927.62-1.821 1.045-2.67a17.21 17.21 0 013.31-4.529c.391-.377.8-.733 1.215-1.078a26.501 26.501 0 00-2.21-1.77 33.38 33.38 0 00-1.67-1.105l-6.88 14.32c-.064.135-.126.271-.192.405a50.309 50.309 0 014.823-.928c.033-.27.188-.992.231-1.221.086-.483.197-.958.328-1.424m13.813 1.5c.067.241.125.497.177.757a.922.922 0 010 .396 43.89 43.89 0 014.05.815c-.046-.099-.1-.195-.146-.3l-1.26-2.729-5.448-11.733a25.28 25.28 0 00-2.086 1.353 22.128 22.128 0 00-2.035 1.652 20.133 20.133 0 014.978 5.645c.502.853.944 1.75 1.299 2.697.18.47.339.954.471 1.447m-2.201.478h-.026a12.17 12.17 0 00-.263-1.278 15.63 15.63 0 00-.889-2.506c-.74-1.632-1.747-3.16-2.947-4.546a21.936 21.936 0 00-1.16-1.224c-.377.39-.74.784-1.076 1.202a15.478 15.478 0 00-2.537 4.427 14.116 14.116 0 00-.645 2.427c-.067.406-.233 1.454-.258 1.857-.012.014-.024.014-.037.014v.008a51.93 51.93 0 015.006-.258h.124c1.682 0 3.261.094 4.724.25a.941.941 0 01-.016-.373m90.176-21.787a2.912 2.912 0 002.912-2.918 2.914 2.914 0 10-5.829 0 2.918 2.918 0 002.917 2.918zm-7.894 0a2.913 2.913 0 002.914-2.918 2.915 2.915 0 00-5.83 0 2.916 2.916 0 002.916 2.918zM195.08 30.27c-.224-.237-.448-.356-.664-.356-.341 0-.675.222-.996.672-.14.164-.233.275-.307.339a.385.385 0 01-.265.09c-.27 0-.412-.212-.412-.628v-4.049a3.82 3.82 0 00-.437-1.786 4.297 4.297 0 00-1.263-1.438 6.485 6.485 0 00-1.75-.903c-.646-.223-1.563-.422-2.763-.607 1.314-.388 2.294-.742 2.942-1.055a6.046 6.046 0 001.686-1.212c1.153-1.176 1.726-2.68 1.726-4.52 0-2.244-.854-3.967-2.565-5.18-1.188-.845-2.535-1.338-4.044-1.489a39.355 39.355 0 00-3.693-.15h-.514v2.168c.834.235 1.412.554 1.73.959.32.4.474 1.018.474 1.836v5.185c0 .584-.042 1.029-.141 1.328-.101.302-.279.57-.536.8-.3.26-.805.44-1.505.551v2.093c.7.074 1.245.342 1.62.803.301.37.481.826.554 1.348.008.113.008.535.008 1.27v3.283c0 1.76.484 3.131 1.455 4.117.959.982 2.305 1.473 4.027 1.473.846 0 1.585-.09 2.208-.282a5.207 5.207 0 001.742-.929 6.753 6.753 0 001.435-1.553c.39-.577.579-1.07.579-1.479 0-.234-.115-.47-.331-.7zm-13.376 2.286c-.508-.134-.807-.21-.899-.245-.096-.035-.189-.11-.29-.246-.199-.218-.295-.585-.295-1.096V7.998h-9.208c-.472 0-.833.089-1.087.265a.855.855 0 00-.382.75c0 .54.262.892.776 1.056.432.148.69.229.764.268a.609.609 0 01.218.223c.159.206.236.54.236.997v19.566c0 .46-.077.792-.236 1.005a.683.683 0 01-.218.222c-.074.034-.332.119-.764.264-.514.17-.776.526-.776 1.051 0 .33.125.584.382.758.254.177.615.26 1.087.26h9.893c.567 0 .984-.075 1.224-.234.342-.203.51-.479.51-.817 0-.575-.312-.93-.935-1.075zm-21.75-9.369c.407.486.725 1.17.949 2.073.101.433.236.735.405.917.175.187.41.279.704.279.37 0 .62-.118.755-.354.136-.23.208-.66.208-1.269v-7.442c0-.61-.05-.995-.14-1.16-.156-.33-.44-.493-.858-.493-.314 0-.561.1-.721.288-.173.185-.307.523-.413 1.021-.17.722-.44 1.293-.803 1.729-.361.428-.921.826-1.681 1.185v2.269c.653.161 1.184.479 1.596.957zm4.405-8.02c.116.37.244.609.374.725.132.121.339.18.626.18.336 0 .58-.092.744-.278.15-.174.234-.471.234-.876V8h-7.88v2.286c1.523.153 2.763.63 3.724 1.431.954.79 1.684 1.95 2.178 3.451zm-16.852-7.17c-.467 0-.834.089-1.087.265a.867.867 0 00-.383.75c0 .54.267.892.784 1.056.432.148.686.229.756.268.07.034.143.101.222.223.153.206.236.54.236.997v19.566c0 .46-.083.792-.236 1.005a.661.661 0 01-.222.222c-.07.034-.324.119-.756.264-.517.17-.784.526-.784 1.051 0 .33.131.584.383.758.253.177.62.26 1.087.26h9.208V7.998h-8.7zm18.128 18.341c-.276 0-.496.073-.65.225-.156.148-.304.437-.445.846-.299.85-.623 1.532-.953 2.044-.331.521-.776 1.02-1.338 1.496a6.502 6.502 0 01-1.672 1.08c-.552.234-1.256.419-2.102.541v2.112h8.133V27.78c0-.528-.073-.904-.21-1.122-.145-.207-.4-.318-.763-.318zm-26.363-10.6c-.307 0-.555.1-.719.288-.169.185-.309.523-.412 1.021-.164.737-.434 1.311-.79 1.736-.36.423-.928.819-1.694 1.178v2.269c.654.161 1.18.479 1.584.957.406.486.722 1.17.954 2.073.113.433.244.735.413.917.172.187.407.279.703.279.365 0 .617-.118.756-.354.137-.23.208-.66.208-1.269v-7.442c0-.61-.05-.995-.14-1.16-.152-.33-.439-.493-.863-.493zm-3.519-5.454c.899.104 1.672.294 2.308.566.643.275 1.23.67 1.76 1.194.391.375.743.836 1.055 1.37.316.534.573 1.116.765 1.752.106.337.227.56.382.696.153.143.353.21.614.21.346 0 .61-.098.763-.296.161-.196.237-.51.237-.958v-6.82h-7.884zm-.236 22.272c-.502-.134-.808-.21-.893-.245-.095-.035-.19-.11-.295-.246-.2-.218-.297-.585-.297-1.096V7.998h-9.207c-.467 0-.829.089-1.084.265-.258.18-.38.423-.38.75 0 .54.258.892.779 1.056.431.148.681.229.752.268a.58.58 0 01.227.223c.156.206.237.54.237.997v19.566c0 .46-.08.792-.237 1.005a.635.635 0 01-.227.222c-.07.034-.32.119-.752.264-.521.17-.78.526-.78 1.051 0 .33.123.584.381.758.255.177.617.26 1.084.26h9.895c.57 0 .981-.075 1.235-.234.336-.203.505-.479.505-.817 0-.575-.313-.93-.943-1.075zm-31.24.176l-.685-.312c-.77-.355-1.158-.94-1.158-1.769 0-.308.058-.644.161-1.012l3.46-12.626-.999-4.052-4.42 16.114c-.23.884-.532 1.595-.897 2.13-.234.32-.48.578-.735.77-.252.193-.648.404-1.183.638-.573.245-.862.557-.862.935 0 .36.143.632.422.835.286.205.666.3 1.146.3h4.968c.952 0 1.423-.327 1.423-.972 0-.456-.214-.788-.64-.98zm16.576-.076c-.404-.158-.661-.367-.778-.612a7.651 7.651 0 01-.352-1.075l-5.436-22.972h-7.877l-.496 1.912 3.6 15.9h-4.376l-.528 2.332h5.456l.628 2.828c.037.169.054.37.054.59 0 .231-.051.426-.158.588-.102.151-.284.3-.548.423-.361.2-.598.362-.705.493-.104.13-.153.329-.153.583 0 .315.117.57.351.76.237.185.547.276.942.276h9.751c1.018 0 1.529-.335 1.529-1.018 0-.242-.068-.438-.196-.583-.13-.138-.364-.284-.708-.425zm-74.28-3.505a12.92 12.92 0 01-1.304-3.153c-.115-.44-.255-.748-.415-.924-.164-.173-.39-.254-.676-.24-.312.01-.573.15-.783.403-.21.248-.313.557-.313.924v7.115c0 1.125.367 1.683 1.096 1.683.275 0 .526-.14.76-.43.286-.336.496-.55.63-.636.13-.088.322-.128.585-.128.168 0 .344.034.528.1.18.065.514.207.994.433 1.29.613 2.478.914 3.541.914v-2.226a5.406 5.406 0 01-2.659-1.348c-.76-.677-1.417-1.505-1.984-2.487zM57.312 11.81a8.64 8.64 0 011.234 1.815c.355.676.605 1.339.747 1.975.063.356.132.604.206.758.07.146.167.278.284.384.218.163.456.256.722.256.339 0 .615-.134.833-.37.213-.242.322-.55.322-.93V9.246c0-.547-.085-.943-.246-1.194-.167-.26-.42-.388-.769-.388-.304 0-.56.146-.767.43l-.433.57c-.112.168-.294.248-.544.248-.17 0-.383-.05-.646-.15-1.052-.451-1.869-.743-2.445-.891a10.714 10.714 0 00-2.035-.302v2.148c1.425.341 2.604 1.044 3.537 2.094zm1.13 6.854c-.646-.409-1.56-.875-2.728-1.381-1.933-.85-3.167-1.426-3.716-1.72-.797-.446-1.369-.907-1.718-1.402-.352-.49-.53-1.054-.53-1.708 0-.673.208-1.247.635-1.708.421-.461 1.037-.809 1.852-1.03v-2.25c-2.257.123-4.15.717-5.672 1.78-1.1.773-1.951 1.788-2.565 3.044-.607 1.26-.918 2.63-.918 4.117 0 2.909 1.221 5.235 3.675 6.978.548.408 1.119.755 1.716 1.059.587.295 1.688.794 3.293 1.502 1.46.638 2.448 1.172 2.97 1.604.786.662 1.172 1.436 1.172 2.308 0 .84-.25 1.497-.754 1.986-.498.48-1.315.868-2.453 1.143v2.226c.808 0 1.68-.118 2.613-.36.928-.239 1.788-.57 2.566-.988a8.88 8.88 0 003.445-3.278c.832-1.399 1.253-2.938 1.253-4.618 0-2.231-.773-4.15-2.305-5.77a9.428 9.428 0 00-1.83-1.534m33.174-10.63V34.82h-.672V8.034h-1.18V34.82h-.676V8.034h-1.176V34.82h-.673V8.034h-1.183V34.82h-.674V8.034h-1.782v26.824h9.826V8.034h-1.81m-23.751 9.118l.16-.153-.16-.165zm2.317 6.318l-1.681-1.684-.636.64v2.085l.636.638 1.68-1.679m-2.316 1.995v.314l.163-.156zm3.271-10.629l1.682 1.682 1.683-1.682-1.683-1.684-1.682 1.684m-2.16 2.163l1.682 1.682L72.343 17l-1.684-1.685L68.977 17m-1.111 1.108v2.09l.636.64 1.68-1.686-1.68-1.685-.636.641m0 3.044v.32l.163-.158zm9.826 4.391l-.085.08.085.084zm0-.949v-2.246l-.561-.562-1.679 1.684 1.679 1.674.56-.55M74.5 27.78l-1.68-1.682-1.683 1.681 1.682 1.683 1.682-1.683m-2.158-2.156l-1.684-1.682-1.68 1.682 1.68 1.68 1.684-1.68m4.309 0l-1.677-1.682-1.684 1.682 1.684 1.68 1.677-1.68m-1.677-15.578l1.677-1.68-.311-.32h-2.729l-.32.32 1.683 1.68m2.717 11.348v-.164l-.085.085zm0-8.629v-.167l-.085.078zm-4.401 4.235l1.684 1.682L76.657 17l-1.682-1.685L73.291 17m4.401.079v-.164l-.085.084zM73.291 34.26l.61.6h2.151l.605-.61-1.682-1.679-1.684 1.688m-2.631-1.688l-1.68 1.688.606.601h2.146l.608-.6-1.68-1.689m3.842-9.101l-1.683-1.684-1.682 1.684 1.682 1.68 1.683-1.68m.95-4.318l1.679 1.685.56-.562v-2.247l-.556-.561-1.683 1.685m1.2 2.162l-1.677-1.686-1.684 1.686 1.684 1.679 1.677-1.68m-2.15-2.161l-1.683-1.685-1.682 1.685 1.682 1.685 1.683-1.685m-5.525 2.162l1.682 1.679 1.681-1.68-1.68-1.685-1.683 1.686m8.715-12.868v-.16l-.086.074zM72.82 34.735l-.136.125h.263zm4.872-1.511v-2.249l-.561-.559-1.679 1.68 1.679 1.686.56-.558m-.084-3.283l.085.086v-.169zm-7.428 2.155l-1.677-1.68-.636.634v2.094l.636.638 1.677-1.686m-2.15-19.421l-.163-.159v.32zm-.163-1.106l.636.638 1.684-1.688-1.684-1.685-.636.638v2.097m0 22.531v.317l.16-.166zm.163-25.735l-.163-.164v.32zm9.101 26.37l-.13.125h.264zm.477-.475l.085.08v-.17zm-9.105.475l-.13.125h.26zm2.158-24.69l1.68-1.68-.316-.32h-2.731l-.318.32 1.684 1.68m.478.475l1.682 1.687 1.683-1.688-1.683-1.68-1.682 1.68m-3.271 3.271v2.094l.636.634 1.68-1.682-1.68-1.684-.636.638m1.111-1.115l1.682 1.684 1.684-1.686-1.684-1.68-1.682 1.682m4.314 0l1.684 1.684 1.677-1.684-1.677-1.682-1.684 1.682m-5.425 17.106v.323l.163-.163zm7.586-14.945l1.679 1.682.56-.561v-2.242l-.56-.563-1.679 1.684m2.24 14.074v-2.253l-.561-.554-1.679 1.676 1.679 1.683.56-.552m-2.239-18.39l1.679 1.687.56-.567V9.396l-.56-.562-1.679 1.685m1.2 19.422l-1.677-1.68-1.684 1.68 1.684 1.682 1.677-1.682m-6.466-2.161l-1.684-1.682-.636.639v2.097l.636.628 1.684-1.683m2.157 2.157L70.66 28.26l-1.682 1.681 1.682 1.682 1.684-1.687m2.158 2.16l-1.682-1.68-1.683 1.68 1.682 1.686 1.683-1.686"/><path d="M67.872 15.73c-.257-.182-.568-.401-.931-.563a3.853 3.853 0 00-1.175-.312 7.207 7.207 0 00-.552-.027v1.605c.139-.005.287-.01.43-.005.264.005.498.05.723.122.227.089.446.211.726.388.215.14.485.29.779.415V15.73m-.06 3.461a5.016 5.016 0 00-.871-.526 3.817 3.817 0 00-1.175-.306 5.54 5.54 0 00-.552-.031v1.603c.139-.005.287-.01.43-.005.264.005.498.046.723.133.227.075.446.202.726.385.2.125.45.264.719.387v-1.64m0 3.497c-.246-.175-.534-.377-.871-.524a3.97 3.97 0 00-1.175-.306 5.385 5.385 0 00-.552-.03v1.6c.139-.005.287-.007.43-.005.264.005.498.054.723.129.227.076.446.21.726.381.2.133.45.273.719.393v-1.638m0 3.228a4.795 4.795 0 00-.871-.524 3.98 3.98 0 00-1.175-.303 5.312 5.312 0 00-.552-.03v1.598c.139-.005.287-.005.43-.005.264.005.498.05.723.127.227.081.446.211.726.388.2.132.45.271.719.392v-1.643m16.417-9.368c-.216.066-.432.09-.643.05-.396-.05-.763-.319-1.18-.631-.208-.146-.433-.31-.692-.44a2.6 2.6 0 00-.855-.26 2.411 2.411 0 00-.898.091 3.38 3.38 0 00-.78.347c-.468.285-.86.624-1.25.785a1.06 1.06 0 01-.236.076v.763c.19-.024.374-.068.533-.142.554-.249.934-.608 1.335-.843.398-.246.804-.384 1.224-.338.41.023.788.253 1.195.555.2.144.413.302.662.443.247.14.531.266.838.31.25.03.506.01.747-.044v-.722m10.573-.542c-.209-.151-.423-.31-.672-.445-.252-.129-.55-.247-.873-.251a1.823 1.823 0 00-.695.136v.709c.235-.121.466-.206.68-.198.377 0 .782.268 1.181.561.205.156.416.313.657.45.206.125.45.239.721.286v-.639c-.325-.102-.656-.356-1-.609m.001 3.5c-.209-.151-.423-.31-.672-.445a2.003 2.003 0 00-.873-.256 1.748 1.748 0 00-.695.14v.706c.235-.122.466-.205.68-.194.377 0 .782.267 1.181.56.205.155.416.312.657.449.206.132.45.239.721.293v-.644c-.325-.102-.656-.354-1-.609m-10.572.534a1.473 1.473 0 01-.643.061c-.396-.053-.763-.322-1.18-.63a5.174 5.174 0 00-.692-.442 2.203 2.203 0 00-.855-.252c-.305-.04-.61 0-.898.078a3.58 3.58 0 00-.78.352c-.468.285-.86.62-1.25.783a1.053 1.053 0 01-.286.092v.744c.207-.02.41-.062.583-.143.554-.245.934-.596 1.335-.838.398-.252.804-.383 1.224-.341.41.034.788.257 1.195.555.2.142.413.301.662.45.247.137.531.259.838.302.25.034.506.013.747-.036v-.735m0 3.498a1.466 1.466 0 01-.643.062c-.396-.055-.763-.328-1.18-.633a5.603 5.603 0 00-.692-.44 2.54 2.54 0 00-.855-.26 2.42 2.42 0 00-.898.083 3.382 3.382 0 00-.78.36c-.468.28-.86.619-1.25.78a1.138 1.138 0 01-.286.088v.748c.207-.023.41-.067.583-.143.554-.25.934-.599 1.335-.844.398-.248.804-.382 1.224-.335.41.028.788.252 1.195.548.2.148.413.31.662.453.247.135.531.256.838.297.25.037.506.014.747-.037v-.727m10.573-.528a5.454 5.454 0 00-.672-.456c-.252-.126-.55-.252-.873-.255a1.93 1.93 0 00-.695.143v.709c.235-.124.466-.21.68-.202.377 0 .782.276 1.181.574.205.14.416.3.657.447.206.122.45.236.721.29v-.647c-.325-.095-.656-.357-1-.604M84.229 26.77a1.472 1.472 0 01-.643.059c-.396-.057-.763-.32-1.18-.628a5.134 5.134 0 00-.692-.447 2.476 2.476 0 00-.855-.255 2.571 2.571 0 00-.898.085c-.289.08-.547.211-.78.352-.468.281-.86.62-1.25.786a1.094 1.094 0 01-.286.087v.748c.207-.02.41-.064.583-.147.554-.25.934-.598 1.335-.832.398-.252.804-.387 1.224-.347.41.028.788.252 1.195.554.2.148.413.307.662.448a2.5 2.5 0 00.838.307c.25.031.506.008.747-.044v-.726m10.573-.537a5.655 5.655 0 00-.672-.445 2.084 2.084 0 00-.873-.26 1.868 1.868 0 00-.695.148v.706c.235-.122.466-.21.68-.204.377.005.782.272 1.181.573.205.146.416.302.657.441.206.132.45.246.721.294v-.647c-.325-.097-.656-.356-1-.606"/></g></svg>