<?xml version="1.0" encoding="utf-8"?>
<!-- Generator: Adobe Illustrator 23.0.1, SVG Export Plug-In . SVG Version: 6.00 Build 0)  -->
<svg version="1.1" id="Livello_1" xmlns="http://www.w3.org/2000/svg" xmlns:xlink="http://www.w3.org/1999/xlink" x="0px" y="0px"
	 viewBox="0 0 255.1 49.4" style="enable-background:new 0 0 255.1 49.4;" xml:space="preserve">
<style type="text/css">
	.st0{fill:#EE3124;}
</style>
<g>
	<path d="M29.7,16l-0.1,9.5c-2.8,0-8.3-0.2-11.6-0.2c-2.3,0-3,0.8-3,1.8c0,0.7,0.5,1.5,2.7,1.5h5.2c6.8,0,8.8,3.4,8.8,10
		c0,10.6-10.8,10.5-17.4,10.5c-4.5,0-8-0.9-11.9-2v-8c2.3,0.7,5.8,0.7,8.7,0.7c3.6,0,6.6,0.5,6.6-1.5c0-1.9-1.6-2.2-3.3-2.2
		l-4.1,0.1C5.8,36.2,0,35.5,0,25.3c0-10,8.3-11.1,15.4-11.1C18.8,14.2,26.5,15.7,29.7,16"/>
	<path d="M50.8,14.5c-13.3,0-18,5.3-18,17.4c0,7.1,2.4,17.3,18,17.3c0.8,0,1.5,0,2.2-0.1l14-26.2C64.7,17,59.4,14.5,50.8,14.5
		 M50.5,38.4c-2.9,0-4.6-1.7-4.6-5.7c0-3.9,1.7-6.5,4.6-6.5c2.9,0,4.3,2.6,4.3,6.5C54.8,36.7,53.4,38.4,50.5,38.4"/>
	<path class="st0" d="M92.4,15h0.3l3.5-6.3L91,0.2L79.1,0L67,22.9L53,49.2l-0.1,0.2h20.7l4.2-7.5c-1.3-2.4-2-5.5-2-9.1
		C75.8,20.1,83.9,15,92.4,15"/>
	<path d="M95.2,32.7v6.6h-1.7c-2.9,0-4.1-1.1-4.1-5.9c0-5.8,3.3-7,6.6-7c2.9,0,6.8,0.3,10.1,1.5l0.1-10.7c-5-1.4-8.4-2.2-13.6-2.2
		h-0.3c-8.5,0-16.6,5.1-16.6,17.8c0,3.7,0.7,6.7,2,9.1c2.7,5.1,7.9,7.5,14.1,7.5c5.9,0,10.3-1.3,15.3-3.8V32.7H95.2z"/>
	<path d="M122.3,28.4c0.2-3.5,2.1-4.4,4.6-4.4c2.7,0,4.5,1.8,4.5,4.4H122.3z M142.1,36.2l0.5-4.5c0-12.2-4-17.4-17.1-17.4
		c-11.9,0-16.6,5.8-16.6,18.8c0,12.8,6.8,16,15.6,16c6.3,0,11.1-0.5,16-2.2l1.3-8.3c-4.9,1.4-9.4,1.8-12.6,1.8
		c-3.4,0-6.6-1.3-6.6-4.1h19.5V36.2z"/>
	<polygon points="144.9,15.6 170.6,15.6 170.6,26.5 158.6,26.5 158.6,29.5 170.6,29.5 170.6,39.1 158.6,39.1 158.6,48.1 144.9,48.1 
			"/>
	<rect x="173.3" y="15.7" width="14.2" height="32.4"/>
	<path d="M205.6,47.6h-1.5l-0.4-2.1c-1.2,1.9-2.4,2.5-4,2.5c-4,0-6.4-4.2-6.4-9.3s2.4-9.3,6.4-9.3c2.9,0,5.3,2.1,5.7,6.1h-2.3
		c-0.2-2.3-1.8-3.5-3.4-3.5c-2.9,0-4,3.4-4,6.8c0,3.4,1.2,6.8,4,6.8c2.4,0,3.7-1.9,3.7-4.9h-3.5v-2.4h5.7V47.6z"/>
	<path d="M209.3,32.4h3.8c1.2,0,2.3,0.4,2.3,2.7c0,1.9-0.8,2.8-2.3,2.8h-3.8V32.4z M207,47.6h2.3v-7.3h3.4c2.1,0,2.6,1.4,2.6,4.7
		c0,0.9,0,1.8,0.4,2.6h2.5c-0.5-0.7-0.7-2.6-0.7-4.7c0-2.8-1.2-3.6-2-3.8V39c0.4-0.2,2.2-1.1,2.2-4.5c0-3-1.5-4.8-4.4-4.8H207V47.6z
		"/>
	<path d="M224.9,32c2.9,0,4,3.4,4,6.8c0,3.4-1.2,6.8-4,6.8c-2.9,0-4-3.4-4-6.8C220.9,35.4,222.1,32,224.9,32 M224.9,29.5
		c-4,0-6.4,4.2-6.4,9.3s2.4,9.3,6.4,9.3s6.4-4.2,6.4-9.3S228.9,29.5,224.9,29.5"/>
	<path d="M232.5,29.9h2.3v10.3c0,2.4,0.1,5.1,3.1,5.1s3.1-2.8,3.1-5.1V29.9h2.3v11.4c0,4.5-2.2,6.8-5.5,6.8c-3.3,0-5.5-2.3-5.5-6.8
		V29.9H232.5z"/>
	<path d="M247.2,32.4h3.4c1.2,0,2.3,0.6,2.3,2.9c0,2.2-1.3,2.9-2.3,2.9h-3.4V32.4z M244.8,47.6h2.3v-6.8h3.5c3.8,0,4.5-3.3,4.5-5.4
		c0-2.2-0.7-5.5-4.5-5.5h-5.9v17.7H244.8z"/>
</g>
</svg>
