<svg width="464" height="108" viewBox="0 0 464 108" xmlns="http://www.w3.org/2000/svg">
  <path d="M39.6851 106.899C31.8579 106.899 24.992 105.523 19.0873 102.772C13.1826 100.02 8.51376 96.0304 5.08079 90.8023C1.64783 85.5743 0 79.3832 0 71.9539V67.9641H18.8127V71.9539C18.8127 78.0074 20.7351 82.5476 24.4427 85.5743C28.1503 88.6011 33.2311 90.1144 39.6851 90.1144C46.1391 90.1144 51.0826 88.8762 54.3782 86.2622C57.5366 83.6482 59.1844 80.3463 59.1844 76.2189C59.1844 72.0915 58.3605 71.1285 56.85 69.4775C55.2021 67.689 53.005 66.3132 49.984 65.2125C46.963 64.1119 43.2554 63.0113 38.9985 62.0482L35.7029 61.3603C28.8369 59.8469 22.7949 57.9208 17.8514 55.4444C12.908 53.1055 9.06304 49.9412 6.45398 46.089C3.84493 42.2367 2.47174 37.2839 2.47174 31.0928C2.47174 24.9017 3.98224 19.6737 6.86594 15.2711C9.74963 10.8686 13.8692 7.56669 19.2246 5.09026C24.5801 2.7514 30.8967 1.51318 38.0373 1.51318C45.1779 1.51318 51.6318 2.7514 57.2619 5.22783C62.892 7.70427 67.2862 11.4189 70.5818 16.2342C73.7402 21.0495 75.388 27.2406 75.388 34.5323V38.9348H56.5753V34.5323C56.5753 30.6801 55.8887 27.5157 54.3782 25.1769C52.8677 22.838 50.8079 21.0495 47.9242 19.9489C45.1779 18.8482 41.7449 18.2979 37.9 18.2979C32.1326 18.2979 27.8757 19.3985 25.1293 21.5998C22.383 23.8011 21.0098 26.6902 21.0098 30.5425C21.0098 34.3947 21.6964 35.2202 22.9322 36.8711C24.1681 38.6597 26.2279 40.0355 28.8369 41.2737C31.446 42.3743 34.7416 43.475 38.8612 44.3004L42.1569 44.9883C49.4347 46.5017 55.6141 48.5654 60.9695 50.9043C66.3249 53.3807 70.4445 56.545 73.4655 60.3973C76.4865 64.3871 77.997 69.4775 77.997 75.531C77.997 81.5845 76.4865 87.0877 73.3282 91.7654C70.1699 96.4431 65.7757 100.158 60.0083 102.772C54.2409 105.386 47.5123 106.762 39.6851 106.762V106.899Z" fill="#1a1a2e"/>
  <path d="M131.414 106.899C118.781 106.899 108.619 103.46 101.067 96.4432C93.5143 89.4267 89.8066 79.5209 89.8066 66.4509V42.0993C89.8066 29.0292 93.5143 19.1235 101.067 12.1069C108.619 5.09037 118.644 1.65088 131.414 1.65088C144.185 1.65088 154.209 5.09037 161.762 12.1069C169.314 19.1235 173.022 29.1668 173.022 42.0993V66.4509C173.022 79.5209 169.314 89.4267 161.762 96.4432C154.209 103.46 144.185 106.899 131.414 106.899ZM131.414 89.8394C138.555 89.8394 144.048 87.7757 148.03 83.6483C152.012 79.5209 153.934 74.0178 153.934 67.0012V41.549C153.934 34.67 152.012 29.0292 148.03 24.9018C144.048 20.7744 138.555 18.7107 131.414 18.7107C124.274 18.7107 118.918 20.7744 114.936 24.9018C110.954 29.0292 108.894 34.5324 108.894 41.549V67.0012C108.894 73.8802 110.954 79.5209 114.936 83.6483C118.918 87.7757 124.411 89.8394 131.414 89.8394Z" fill="#1a1a2e"/>
  <path d="M213.393 87.5007H199.799L213.393 77.595V3.57715H194.306V104.836H259.533V87.5007H213.393Z" fill="#1a1a2e"/>
  <path d="M328.192 35.6331C327.505 33.1567 326.682 30.9554 325.446 29.0293C324.21 27.1032 322.837 25.4522 321.189 24.0764C319.541 22.7006 317.618 21.7376 315.421 20.9121C313.224 20.2242 310.89 19.8115 308.281 19.8115C303.337 19.8115 299.08 21.1873 295.373 23.8013C291.665 26.4153 288.782 30.4051 286.722 35.4955C284.662 40.586 283.701 46.7771 283.701 54.0688C283.701 61.3605 284.662 67.6892 286.722 72.7796C288.782 77.8701 291.665 81.8599 295.373 84.4739C299.08 87.2255 303.475 88.4637 308.555 88.4637C313.636 88.4637 317.069 87.5006 320.365 85.7121C323.66 83.9236 326.132 81.3096 327.78 78.1452C329.565 74.8433 330.389 70.9911 330.389 66.451L334.509 67.1389H309.791V50.3541H349.888V63.5618C349.888 72.7796 348.103 80.7592 344.533 87.3631C340.963 93.9669 336.019 99.0573 329.84 102.634C323.66 106.211 316.52 108 308.418 108C300.316 108 291.528 105.799 284.799 101.396C278.071 96.9936 272.715 90.8025 268.87 82.8229C265.025 74.7057 263.24 65.2127 263.24 54.0688C263.24 42.9248 264.339 37.972 266.673 31.2306C268.87 24.4892 272.166 18.8484 276.148 14.1707C280.268 9.49299 284.937 5.91592 290.429 3.57707C295.922 1.10063 301.689 0 308.006 0C314.323 0 318.442 0.82548 323.111 2.61401C327.78 4.40255 331.9 6.7414 335.607 9.90573C339.178 13.0701 342.199 16.7847 344.533 21.1873C346.867 25.5898 348.378 30.2675 348.927 35.4955H328.329L328.192 35.6331Z" fill="#1a1a2e"/>
  <path d="M384.767 104.836V70.0282L350.438 3.71484H371.722L393.144 47.0524H395.753L417.174 3.71484H438.321L403.992 70.0282V104.836H384.905H384.767Z" fill="#1a1a2e"/>
  <path d="M449.582 7.01637C450.405 6.87879 451.779 6.74121 453.289 6.74121C454.8 6.74121 456.447 7.01637 457.271 7.70426C457.958 8.25458 458.37 9.08006 458.37 10.3183C458.37 11.5565 457.271 12.9323 456.173 13.345C456.997 13.7578 457.546 14.5832 457.821 15.6839C458.233 17.0597 458.645 18.7106 458.782 19.1234H455.898C455.761 18.7106 455.349 17.7476 455.074 16.2342C454.8 14.7208 454.25 14.3081 453.152 14.3081H452.328V19.1234H449.582V7.01637ZM452.328 12.2444H453.426C454.8 12.2444 455.624 11.5565 455.624 10.4559C455.624 9.35522 454.8 8.80491 453.564 8.80491C452.877 8.80491 452.465 8.80491 452.328 8.80491V12.2444Z" fill="#1a1a2e"/>
  <path d="M453.838 2.75146C448.208 2.75146 443.677 7.29159 443.677 12.9324C443.677 18.5731 448.208 23.1132 453.838 23.1132C459.468 23.1132 464 18.5731 464 12.9324C464 7.29159 459.468 2.75146 453.838 2.75146ZM453.838 21.875C448.895 21.875 444.913 17.8852 444.913 12.9324C444.913 7.97949 448.895 3.98968 453.838 3.98968C458.782 3.98968 462.764 7.97949 462.764 12.9324C462.764 17.8852 458.782 21.875 453.838 21.875Z" fill="#1a1a2e"/>
</svg>
