<?xml version="1.0" encoding="UTF-8"?>
<svg xmlns="http://www.w3.org/2000/svg" id="Ebene_1" data-name="Ebene 1" viewBox="0 0 254.9 68.62">
  <defs>
    <style>.cls-1,.cls-2{fill:#fff;}.cls-1{fill-rule:evenodd;}</style>
  </defs>
  <g id="Logo">
    <path class="cls-1" d="M92.43,43.67c4,0,7.2-.42,9-1.76,2.38-1.88,4.43-3.51,5.8-7.57.74-2.3,2.1-6.23,1.15-8.41s-5.66-3-8.94-3c-4.72,0-8.24,1-9.65,2.3a20.06,20.06,0,0,0-5.71,9.08c-1.31,3.45-1.4,5.27-.11,7s5.72,2.3,8.47,2.3m67.17-3.11c-.25,1.84.07,2.39,3.08,2.76a24.78,24.78,0,0,0,5.53.31,41.27,41.27,0,0,0,6.87-.31c1.54-.19,6-.74,6.22-2.2.45-2.33-.82-3.31-3.64-4.11a29.53,29.53,0,0,0-6.78-.67,37.18,37.18,0,0,0-5.51.3c-2.08.36-5.44,2-5.77,3.92M54.23,23a50.67,50.67,0,0,0-6.16.46c-3,.46-4.9,2.69-6,4.36a30.93,30.93,0,0,0-3,6.65c-.84,3-2,6.65-.27,8.19,1.14.92,7.32,1,8.83,1,3.7,0,5.59-.06,8.81-1.6,2.19-1,4.63-6,5.17-8.13a56.37,56.37,0,0,0,1.64-6.42,4.11,4.11,0,0,0-3.6-4.24,53.78,53.78,0,0,0-5.39-.3M1.09,38.49l5.51-15H1l3-7.76H9.59L15.39,0h7.15L16.73,15.74H33.11L30.28,23.5H13.76l-5.51,15c-1.27,3.58.6,4.69,4.24,4.69,3.87,0,6.33-2.31,7.44-5.74H27c-2.46,7-7.75,13.5-17.2,13.5C1.25,51-1.88,47,1.09,38.49M57,15.74a57.67,57.67,0,0,1,8.41.67c4.62.67,6.33,4.85,6,8.72a44.09,44.09,0,0,1-2.68,9.1,48.21,48.21,0,0,1-3.88,8.5c-2.75,4.1-6.11,7.46-11.91,7.91-2.16.22-5.66.3-8.63.3a66.26,66.26,0,0,1-9.16-.6c-4.17-.74-5.51-3.88-5.21-7.23a40.33,40.33,0,0,1,1.93-7.9,66.38,66.38,0,0,1,3.87-9.1c1.94-3.95,6.55-9.25,12-9.77,2.38-.23,6-.6,9.31-.6M71.77,68.62H64.92L79.66,28C81.37,23.5,87,17.9,92.32,16.56c3.57-.82,8.19-.82,11.69-.82,4.09,0,9.08.89,11.69,3,3.13,2.68,1.12,10.88-.52,15.14-2.39,6.79-5.81,12.08-9.69,14.32-4.1,2.46-10.58,2.76-14.52,2.76-6.7,0-11.62-1.27-11.32-4.11Zm52.57-41.47L115.7,51.09h7.15L130,31.17A19,19,0,0,1,132.53,26c2.31-3,5.89-3.13,9.76-3.13,3.35,0,4.92.52,4.62,3.21a36.12,36.12,0,0,1-1.79,4.1h7.23a21.81,21.81,0,0,0,2.24-6.12c.75-5.67-3.87-8.43-9.16-8.43a38.7,38.7,0,0,0-9.38,1c-5.45,1.42-10.74,7.76-11.71,10.52m41,23.8c-6.25,0-11-.6-12.06-1.94a7.05,7.05,0,0,1-1.34-4.7,22.53,22.53,0,0,1,1.42-5.14A9.68,9.68,0,0,1,155.7,35a16.61,16.61,0,0,1,4.62-3.43c2.31-1.12,6.63-1.71,12.51-1.71a40.06,40.06,0,0,1,7.07.59c2.61.45,4.62,1.86,4.55,3.06l1.78-5.15c.67-2,.89-3.88-2.23-4.62a35.52,35.52,0,0,0-7.37-.75c-3.73,0-6.34.38-8,1.19a3.48,3.48,0,0,0-2,2.61h-7.37c1-3.58,3.87-7.6,7.08-9.17s9.68-1.86,13.18-1.86c3.8,0,11.55.22,13.71,3.05.82,1,1.34,3.8,1.19,5.59a24.39,24.39,0,0,1-1.12,3.95l-5.44,15.52c-1.27,3-4,5.44-8.56,6.34a95.28,95.28,0,0,1-14,.75M227,15.66A38.22,38.22,0,0,0,215.58,17c-5.44,1.42-10.73,7.84-11.7,10.59l-8.49,23.49h7.08l6.78-18.95c1.56-4.18,3-6.11,4.91-7.16,3.5-2.23,5.74-2.08,9.76-2.08a10.17,10.17,0,0,1,5.43,1.27c2.23,1.2,1.57,3.73,1,5.6L222.5,51.09H230l7.75-21.41c1-3,2.31-8.2-.15-10.66-1.57-1.64-5.07-3.36-10.58-3.36"></path>
   </g>
</svg>
