<svg width="272" height="32" viewBox="0 0 272 32" fill="none" xmlns="http://www.w3.org/2000/svg">
<path d="M195.52 31.2369H189.036L205.538 0.92926H212.877L229.379 31.2369H222.895L209.208 5.93849L195.52 31.2369Z" fill="#FFF200"/>
<path d="M34.8813 6.23387H20.3992V31.2308H14.4697V6.23387H0V0.923096H34.8751V6.23387H34.8813Z" fill="#2A2A2A"/>
<path d="M78.4074 31.2369H71.6036L63.6544 20.08H48.6737V31.2369H42.7441V0.92926H67.2257C70.446 0.92926 73.0013 1.80311 74.91 3.53849C76.8127 5.28003 77.767 7.61233 77.767 10.5354C77.767 15.5631 75.2548 18.6339 70.2305 19.7539L78.4074 31.2369ZM66.3267 14.7754C69.898 14.7754 71.6898 13.397 71.6898 10.6339C71.6898 7.70464 69.7871 6.24003 65.9881 6.24003H48.6798V14.7816H66.3267V14.7754Z" fill="#2A2A2A"/>
<path d="M94.1888 31.2369H88.2593V0.92926H94.1888V31.2369Z" fill="#2A2A2A"/>
<path d="M133.467 8.44308C129.532 6.35693 125.246 5.31077 120.622 5.31077C113.899 5.31077 110.537 6.51077 110.537 8.91077C110.537 10.3262 111.799 11.2431 114.323 11.6677C117.765 11.9631 121.207 12.2769 124.649 12.6031C129.6 13.0954 133.122 13.9815 135.221 15.2615C137.549 16.6769 138.713 18.8246 138.713 21.7169C138.713 24.9723 137.259 27.4831 134.359 29.2615C131.453 31.0338 127.248 31.92 121.737 31.92C113.96 31.92 107.741 30.1477 103.08 26.6031L106.276 22.4185C110.438 25.3169 115.549 26.7692 121.614 26.7692C125.025 26.7692 127.66 26.3323 129.526 25.4646C131.391 24.5969 132.327 23.44 132.327 21.9938C132.327 20.3877 131.182 19.2554 128.885 18.5969C127.605 18.2338 125.628 17.9938 122.937 17.8585C118.744 17.6615 116.171 17.5138 115.222 17.4154C111.485 17.0523 108.733 16.2523 106.965 15.0031C105.192 13.7538 104.312 11.9385 104.312 9.53846C104.312 6.65231 105.734 4.36308 108.572 2.67693C111.411 0.990773 115.395 0.141541 120.518 0.141541C127.346 0.141541 132.882 1.61847 137.118 4.57846L133.467 8.44308Z" fill="#2A2A2A"/>
<path d="M183.796 8.24615L178.365 10.1108C175.108 6.91077 170.977 5.31077 165.971 5.31077C161.661 5.31077 158.219 6.30154 155.651 8.27692C153.083 10.2523 151.803 12.8123 151.803 15.9508C151.803 19.1877 153.083 21.7908 155.651 23.7477C158.219 25.7108 161.691 26.6892 166.069 26.6892C171.137 26.6892 175.268 25.0523 178.464 21.7785L183.55 24.48C179.086 29.4892 173.218 32 165.965 32C159.924 32 155.035 30.4985 151.31 27.5015C147.585 24.5046 145.719 20.6585 145.719 15.9754C145.719 11.0954 147.837 7.11385 152.074 4.03077C155.75 1.34154 160.263 0 165.62 0C173.138 0.00615385 179.197 2.75077 183.796 8.24615Z" fill="#2A2A2A"/>
<path d="M272 31.2369H263.171L242.599 5.98157V31.2369H236.669V0.92926H245.524L266.071 26.1477V0.92926H272V31.2369Z" fill="#2A2A2A"/>
</svg>
