<svg xmlns="http://www.w3.org/2000/svg" xmlns:xlink="http://www.w3.org/1999/xlink" width="480" height="140" viewBox="0 0 480 140">
  <defs>
    <clipPath id="clip-vaico-logo">
      <rect width="480" height="140"/>
    </clipPath>
  </defs>
  <g id="vaico-logo" clip-path="url(#clip-vaico-logo)">
    <g id="logo" transform="translate(14.5 10.398)">
      <path id="Pfad_43" data-name="Pfad 43" d="M121.155,41.121l3.84,25.3H109.33Zm-7.676-18.544-39.905,70.7,23.185-.027,5.361-11.6h25.024l1.713,11.615h23.076L136.3,22.577Z" transform="translate(79.335 24.713)" fill="#03305d"/>
      <path id="Pfad_44" data-name="Pfad 44" d="M124.94,22.647,113.715,93.04H135.8l11.225-70.393Z" transform="translate(122.436 24.788)" fill="#03305d"/>
      <path id="Pfad_45" data-name="Pfad 45" d="M180.894,64.911l18.4,5.763a42.6,42.6,0,0,1-8.266,13.4,33.141,33.141,0,0,1-11.683,8.114,42.631,42.631,0,0,1-16.217,2.736q-11.632,0-18.464-3.337-6.859-3.33-10.856-11.729-4.021-8.4-1.923-21.5,2.779-17.463,13.691-26.848t28.131-9.378q13.48,0,20.335,5.379t8.826,16.512L182.716,48.3a13.643,13.643,0,0,0-1.395-4.707,9.914,9.914,0,0,0-3.9-3.84A11.859,11.859,0,0,0,171.65,38.4a15.459,15.459,0,0,0-12.426,5.949Q155.5,48.766,154,58.209c-1.255,7.806-.9,13.155,1.036,16.043s5.086,4.342,9.426,4.342q6.33,0,10.119-3.5a26.293,26.293,0,0,0,6.316-10.181" transform="translate(141.4 24.239)" fill="#03305d"/>
      <path id="Pfad_46" data-name="Pfad 46" d="M51.042,22.642H75.333l4.909,33.564a56.057,56.057,0,0,1,.792,7.164l.4,5.047a50.811,50.811,0,0,0,2.251-5.047c.972-2.2,2.084-4.6,3.318-7.164l17.121-33.564H128L88.063,93.095H66.173Z" transform="translate(55.036 24.783)" fill="#03305d"/>
      <path id="Pfad_47" data-name="Pfad 47" d="M200.5,94.736a42.729,42.729,0,0,1-14.77-2.373,31.758,31.758,0,0,1-10.7-6.469,27.961,27.961,0,0,1-6.6-9.9,33.118,33.118,0,0,1-2.241-12.271,39.669,39.669,0,0,1,3.172-15.569,42.21,42.21,0,0,1,9.242-13.332,43.743,43.743,0,0,1,14.38-9.232,49.241,49.241,0,0,1,18.744-3.438,41.244,41.244,0,0,1,14.525,2.373A30.14,30.14,0,0,1,236.8,30.992a26.9,26.9,0,0,1,6.6,9.636,31.219,31.219,0,0,1,2.241,11.877,42.407,42.407,0,0,1-3.159,16.365,40.1,40.1,0,0,1-9.108,13.466,43.651,43.651,0,0,1-14.254,9.1,50.2,50.2,0,0,1-18.621,3.3M202.421,76.8a15.926,15.926,0,0,0,8.093-1.991,18.627,18.627,0,0,0,5.976-5.175,24.077,24.077,0,0,0,3.58-7.431,30.389,30.389,0,0,0,1.189-8.489,15.05,15.05,0,0,0-2.52-8.9q-2.52-3.578-8.623-3.578a16.89,16.89,0,0,0-8.355,1.993,18.73,18.73,0,0,0-6.106,5.035,24.943,24.943,0,0,0-3.72,7.311,28.085,28.085,0,0,0-1.189,8.081,15.8,15.8,0,0,0,2.652,9.422q2.659,3.73,9.024,3.72" transform="translate(179.401 24.259)" fill="#03305d"/>
      <path id="Pfad_49" data-name="Pfad 49" d="M217.627,69.788a11.814,11.814,0,0,1-4.665-.929,12.868,12.868,0,0,1-3.791-2.573,12.311,12.311,0,0,1-2.542-3.826,12.139,12.139,0,0,1,0-9.323,11.882,11.882,0,0,1,2.542-3.793,12.126,12.126,0,0,1,3.791-2.573,11.388,11.388,0,0,1,4.665-.966,11.156,11.156,0,0,1,4.63.966,12.166,12.166,0,0,1,6.364,6.366,11.733,11.733,0,0,1,0,9.323,12.076,12.076,0,0,1-2.571,3.826,12.34,12.34,0,0,1-3.793,2.573,11.572,11.572,0,0,1-4.63.929m0-1.83a10.532,10.532,0,0,0,3.985-.741,9.586,9.586,0,0,0,3.153-2.119,9.449,9.449,0,0,0,2.086-3.215,11.19,11.19,0,0,0,0-8.167,9.409,9.409,0,0,0-2.086-3.215,9.111,9.111,0,0,0-3.153-2.086,10.715,10.715,0,0,0-7.975,0,9.429,9.429,0,0,0-3.182,2.086,10.061,10.061,0,0,0-2.088,3.215,11.626,11.626,0,0,0,0,8.167,10.107,10.107,0,0,0,2.088,3.215,9.932,9.932,0,0,0,3.182,2.119,10.58,10.58,0,0,0,3.991.741m-4.374-17.424h4.694a5.365,5.365,0,0,1,1.958.322,3.707,3.707,0,0,1,1.42.9,3.493,3.493,0,0,1,.867,1.281,4.184,4.184,0,0,1,.289,1.543,3.3,3.3,0,0,1-1,2.54,4.763,4.763,0,0,1-2.7,1.189,6.045,6.045,0,0,1,.836.809c.256.3.534.662.834,1.09l3.186,4.626h-2.672l-3.312-4.946a4.45,4.45,0,0,0-.964-1.065,1.95,1.95,0,0,0-1.189-.32v6.331h-2.251Zm3.669,6.269a11.444,11.444,0,0,0,1.156-.064,3.056,3.056,0,0,0,1.03-.291,1.706,1.706,0,0,0,.7-.642,2.482,2.482,0,0,0-.289-2.767,2.728,2.728,0,0,0-2.026-.607H215.5V56.8Z" transform="translate(221.413 49.417)" fill="#03305d" fill-rule="evenodd"/>
      <path id="Pfad_48" data-name="Pfad 48" d="M51.135,117.672C21.786,106.182,0,90.723,0,71.777c0-24.825,37.918-43.516,86.568-56.7C130.05,3.284,189.269-.039,214.79,0l-.243.428C189.983,3.394,42.414,23.3,42.414,72.3c0,18.786,22.24,33.253,50.912,44.116l4.127,1.5H52.472a2.943,2.943,0,0,1-1.337-.243" transform="translate(0 0)" fill="#f07e14"/>
    </g>
  </g>
</svg>
